<?xml version="1.0"?>
<!DOCTYPE svg PUBLIC "-//W3C//DTD SVG 1.1//EN" "http://www.w3.org/Graphics/SVG/1.1/DTD/svg11.dtd">
<svg width="325.38mm" height="15.379999999999995mm" viewBox="0 0 325.38 15.379999999999995" xmlns="http://www.w3.org/2000/svg" version="1.1">
<g id="Cut018" transform="translate(10.190000,181.190000) scale(1,-1)">
<path id="Cut018_f0000"  d="M -3.19 169.0 L -3.19 169.0 L 308.19 169.0 L 308.19 169.0 L -3.1900000000000004 169.0 Z " stroke="#191919" stroke-width="0.35 px" style="stroke-width:0.35;stroke-miterlimit:4;stroke-dasharray:none;fill:#cccccc;fill-opacity:0.19999999999999996;fill-rule: evenodd"/>
<path id="Cut018_f0001"  d="M -7.0 172.81 L -7.0 172.81 A 3.81 3.81 0 0 1 -3.19 169L -3.1900000000000004 169.0 A 3.81 3.81 0 0 0 -7 172.81Z " stroke="#191919" stroke-width="0.35 px" style="stroke-width:0.35;stroke-miterlimit:4;stroke-dasharray:none;fill:#cccccc;fill-opacity:0.19999999999999996;fill-rule: evenodd"/>
<path id="Cut018_f0002"  d="M 308.19 169.0 L 308.19 169.0 A 3.81 3.81 0 0 1 312 172.81L 312.0 172.81 A 3.81 3.81 0 0 0 308.19 169Z " stroke="#191919" stroke-width="0.35 px" style="stroke-width:0.35;stroke-miterlimit:4;stroke-dasharray:none;fill:#cccccc;fill-opacity:0.19999999999999996;fill-rule: evenodd"/>
<circle cx="-2.3" cy="173.39999999999998" r="1.7" stroke="#191919" stroke-width="0.35 px" style="stroke-width:0.35;stroke-miterlimit:4;stroke-dasharray:none;fill:#cccccc"/>
<circle cx="-2.3" cy="173.39999999999998" r="1.7" stroke="#191919" stroke-width="0.35 px" style="stroke-width:0.35;stroke-miterlimit:4;stroke-dasharray:none;fill:#cccccc"/>
<path id="Cut018_f0005"  d="M -7.0 174.19 L -7.0 174.19 L -7.0 172.81 L -7.0 172.81 L -7.0 174.19 Z " stroke="#191919" stroke-width="0.35 px" style="stroke-width:0.35;stroke-miterlimit:4;stroke-dasharray:none;fill:#cccccc;fill-opacity:0.19999999999999996;fill-rule: evenodd"/>
<path id="Cut018_f0006"  d="M 312.0 172.81 L 312.0 172.81 L 312.0 174.19 L 312.0 174.19 L 312.0 172.81 Z " stroke="#191919" stroke-width="0.35 px" style="stroke-width:0.35;stroke-miterlimit:4;stroke-dasharray:none;fill:#cccccc;fill-opacity:0.19999999999999996;fill-rule: evenodd"/>
<path id="Cut018_f0007"  d="M -3.189999999999999 178.0 L -3.189999999999999 178.0 A 3.81 3.81 0 0 1 -7 174.19L -7.0 174.19 A 3.81 3.81 0 0 0 -3.19 178Z " stroke="#191919" stroke-width="0.35 px" style="stroke-width:0.35;stroke-miterlimit:4;stroke-dasharray:none;fill:#cccccc;fill-opacity:0.19999999999999996;fill-rule: evenodd"/>
<path id="Cut018_f0008"  d="M 312.0 174.19 L 312.0 174.19 A 3.81 3.81 0 0 1 308.19 178L 308.19 178.0 A 3.81 3.81 0 0 0 312 174.19Z " stroke="#191919" stroke-width="0.35 px" style="stroke-width:0.35;stroke-miterlimit:4;stroke-dasharray:none;fill:#cccccc;fill-opacity:0.19999999999999996;fill-rule: evenodd"/>
<path id="Cut018_f0009"  d="M 308.19 178.0 L 308.19 178.0 L -3.189999999999999 178.0 L -3.189999999999999 178.0 L 308.19 178.0 Z " stroke="#191919" stroke-width="0.35 px" style="stroke-width:0.35;stroke-miterlimit:4;stroke-dasharray:none;fill:#cccccc;fill-opacity:0.19999999999999996;fill-rule: evenodd"/>
<circle cx="-2.3" cy="173.39999999999998" r="1.7" stroke="#191919" stroke-width="0.35 px" style="stroke-width:0.35;stroke-miterlimit:4;stroke-dasharray:none;fill:#cccccc"/>
<circle cx="307.4" cy="173.39999999999998" r="1.7" stroke="#191919" stroke-width="0.35 px" style="stroke-width:0.35;stroke-miterlimit:4;stroke-dasharray:none;fill:#cccccc"/>
<circle cx="99.0" cy="174.5" r="1.7" stroke="#191919" stroke-width="0.35 px" style="stroke-width:0.35;stroke-miterlimit:4;stroke-dasharray:none;fill:#cccccc"/>
<circle cx="206.0" cy="174.5" r="1.7" stroke="#191919" stroke-width="0.35 px" style="stroke-width:0.35;stroke-miterlimit:4;stroke-dasharray:none;fill:#cccccc"/>
<title>b'hlayer_foot'</title>
</g>
</svg>