<?xml version="1.0"?>
<!DOCTYPE svg PUBLIC "-//W3C//DTD SVG 1.1//EN" "http://www.w3.org/Graphics/SVG/1.1/DTD/svg11.dtd">
<svg width="325.38mm" height="191.38mm" viewBox="0 0 325.38 191.38" xmlns="http://www.w3.org/2000/svg" version="1.1">
<g id="Cut" transform="translate(10.190000,181.190000) scale(1,-1)">
<path id="Cut_f0000"  d="M 308.19 -7.0 L -3.1900000000000004 -7.0 L -3.19 -7.0 L 308.19 -6.999999999999996 L 308.19 -6.9999999999999964 Z " stroke="#191919" stroke-width="0.35 px" style="stroke-width:0.35;stroke-miterlimit:4;stroke-dasharray:none;fill:#cccccc;fill-opacity:0.19999999999999996;fill-rule: evenodd"/>
<path id="Cut_f0001"  d="M -3.190000000000002 -7.0 A 3.81 3.81 0 0 0 -7 -3.19L -7.0 -3.189999999999999 A 3.81 3.81 0 0 1 -3.19 -7L -3.1900000000000004 -7.0 Z " stroke="#191919" stroke-width="0.35 px" style="stroke-width:0.35;stroke-miterlimit:4;stroke-dasharray:none;fill:#cccccc;fill-opacity:0.19999999999999996;fill-rule: evenodd"/>
<path id="Cut_f0002"  d="M 312.0 -3.1899999999999995 A 3.81 3.81 0 0 0 308.19 -7L 308.19 -6.999999999999996 A 3.81 3.81 0 0 1 312 -3.19L 312.0 -3.1900000000000004 Z " stroke="#191919" stroke-width="0.35 px" style="stroke-width:0.35;stroke-miterlimit:4;stroke-dasharray:none;fill:#cccccc;fill-opacity:0.19999999999999996;fill-rule: evenodd"/>
<path id="Cut_f0003"  d="M -7.000000000000004 174.19 L -7.0 -3.189999999999999 A 3.81 3.81 0 0 1 -3.19 -7L 308.19 -6.999999999999996 A 3.81 3.81 0 0 1 312 -3.19L 312.0 174.19 A 3.81 3.81 0 0 1 308.19 178L -3.189999999999999 178.0 A 3.81 3.81 0 0 1 -7 174.19Z M 3.8100000000000014 0.0 A 3.81 3.81 0 0 0 4.44089e-16 3.81L -7.55111511714588e-15 167.19 A 3.81 3.81 0 0 0 3.81 171L 301.19 171.0 A 3.81 3.81 0 0 0 305 167.19L 305.0 3.8100000000000014 A 3.81 3.81 0 0 0 301.19 2.22045e-15L 3.8100000000000014 0.0 Z " stroke="#191919" stroke-width="0.35 px" style="stroke-width:0.35;stroke-miterlimit:4;stroke-dasharray:none;fill:#cccccc;fill-opacity:0.19999999999999996;fill-rule: evenodd"/>
<path id="Cut_f0004"  d="M -3.19 -7.0 L 308.19 -6.999999999999996 A 3.81 3.81 0 0 1 312 -3.19L 312.0 174.19 A 3.81 3.81 0 0 1 308.19 178L -3.189999999999999 178.0 A 3.81 3.81 0 0 1 -7 174.19L -7.0 -3.189999999999999 A 3.81 3.81 0 0 1 -3.19 -7Z M 305.0 3.8100000000000014 A 3.81 3.81 0 0 0 301.19 2.22045e-15L 3.8100000000000014 0.0 A 3.81 3.81 0 0 0 4.44089e-16 3.81L -7.551115129105684e-15 167.19 A 3.81 3.81 0 0 0 3.81 171L 301.19 171.0 A 3.81 3.81 0 0 0 305 167.19L 305.0 3.8100000000000014 Z " stroke="#191919" stroke-width="0.35 px" style="stroke-width:0.35;stroke-miterlimit:4;stroke-dasharray:none;fill:#cccccc;fill-opacity:0.19999999999999996;fill-rule: evenodd"/>
<path id="Cut_f0005"  d="M -7.0 -3.1899999999999977 L -7.0 174.19 L -7.000000000000004 174.19 L -7.0 -3.189999999999999 L -7.0 -3.189999999999999 Z " stroke="#191919" stroke-width="0.35 px" style="stroke-width:0.35;stroke-miterlimit:4;stroke-dasharray:none;fill:#cccccc;fill-opacity:0.19999999999999996;fill-rule: evenodd"/>
<path id="Cut_f0006"  d="M 312.0 174.19 L 312.0 -3.1900000000000004 L 312.0 -3.19 L 312.0 174.19 L 312.0 174.19 Z " stroke="#191919" stroke-width="0.35 px" style="stroke-width:0.35;stroke-miterlimit:4;stroke-dasharray:none;fill:#cccccc;fill-opacity:0.19999999999999996;fill-rule: evenodd"/>
<path id="Cut_f0007"  d="M -7.000000000000007 174.19 A 3.81 3.81 0 0 0 -3.19 178L -3.189999999999999 178.0 A 3.81 3.81 0 0 1 -7 174.19L -7.0000000000000036 174.19 Z " stroke="#191919" stroke-width="0.35 px" style="stroke-width:0.35;stroke-miterlimit:4;stroke-dasharray:none;fill:#cccccc;fill-opacity:0.19999999999999996;fill-rule: evenodd"/>
<path id="Cut_f0008"  d="M 308.19 178.0 A 3.81 3.81 0 0 0 312 174.19L 312.0 174.19 A 3.81 3.81 0 0 1 308.19 178L 308.19 178.0 Z " stroke="#191919" stroke-width="0.35 px" style="stroke-width:0.35;stroke-miterlimit:4;stroke-dasharray:none;fill:#cccccc;fill-opacity:0.19999999999999996;fill-rule: evenodd"/>
<path id="Cut_f0009"  d="M -3.1899999999999977 178.0 L 308.19 178.0 L 308.19 178.0 L -3.189999999999999 178.0 L -3.189999999999999 178.0 Z " stroke="#191919" stroke-width="0.35 px" style="stroke-width:0.35;stroke-miterlimit:4;stroke-dasharray:none;fill:#cccccc;fill-opacity:0.19999999999999996;fill-rule: evenodd"/>
<path id="Cut_f0010"  d="M 3.81 0.0 L 3.81 0.0 L 301.19 4e-15 L 301.19 4e-15 L 3.8099999999999996 0.0 Z " stroke="#191919" stroke-width="0.35 px" style="stroke-width:0.35;stroke-miterlimit:4;stroke-dasharray:none;fill:#cccccc;fill-opacity:0.19999999999999996;fill-rule: evenodd"/>
<path id="Cut_f0011"  d="M 301.19 4e-15 L 301.19 4e-15 A 3.81 3.81 0 0 1 305 3.81L 305.0 3.8099999999999996 A 3.81 3.81 0 0 0 301.19 7.99361e-15Z " stroke="#191919" stroke-width="0.35 px" style="stroke-width:0.35;stroke-miterlimit:4;stroke-dasharray:none;fill:#cccccc;fill-opacity:0.19999999999999996;fill-rule: evenodd"/>
<path id="Cut_f0012"  d="M 305.0 3.81 L 305.0 3.81 L 305.0 167.19 L 305.0 167.19 L 305.0 3.8099999999999996 Z " stroke="#191919" stroke-width="0.35 px" style="stroke-width:0.35;stroke-miterlimit:4;stroke-dasharray:none;fill:#cccccc;fill-opacity:0.19999999999999996;fill-rule: evenodd"/>
<path id="Cut_f0013"  d="M 305.0 167.19 L 305.0 167.19 A 3.81 3.81 0 0 1 301.19 171L 301.19 171.0 A 3.81 3.81 0 0 0 305 167.19Z " stroke="#191919" stroke-width="0.35 px" style="stroke-width:0.35;stroke-miterlimit:4;stroke-dasharray:none;fill:#cccccc;fill-opacity:0.19999999999999996;fill-rule: evenodd"/>
<path id="Cut_f0014"  d="M 301.19 171.0 L 301.19 171.0 L 3.810000000000001 171.0 L 3.810000000000001 171.0 L 301.19 171.0 Z " stroke="#191919" stroke-width="0.35 px" style="stroke-width:0.35;stroke-miterlimit:4;stroke-dasharray:none;fill:#cccccc;fill-opacity:0.19999999999999996;fill-rule: evenodd"/>
<path id="Cut_f0015"  d="M 3.810000000000001 171.0 L 3.810000000000001 171.0 A 3.81 3.81 0 0 1 -7.54952e-15 167.19L -3.77e-15 167.19 A 3.81 3.81 0 0 0 3.81 171Z " stroke="#191919" stroke-width="0.35 px" style="stroke-width:0.35;stroke-miterlimit:4;stroke-dasharray:none;fill:#cccccc;fill-opacity:0.19999999999999996;fill-rule: evenodd"/>
<path id="Cut_f0016"  d="M -4e-15 167.19 L -4e-15 167.19 L 0.0 3.810000000000001 L -2.2e-16 3.810000000000001 L 0.0 167.19 Z " stroke="#191919" stroke-width="0.35 px" style="stroke-width:0.35;stroke-miterlimit:4;stroke-dasharray:none;fill:#cccccc;fill-opacity:0.19999999999999996;fill-rule: evenodd"/>
<path id="Cut_f0017"  d="M 0.0 3.810000000000001 L 0.0 3.810000000000001 A 3.81 3.81 0 0 1 3.81 -4.44089e-16L 3.8099999999999996 -2.2e-16 A 3.81 3.81 0 0 0 -4.44089e-16 3.81Z " stroke="#191919" stroke-width="0.35 px" style="stroke-width:0.35;stroke-miterlimit:4;stroke-dasharray:none;fill:#cccccc;fill-opacity:0.19999999999999996;fill-rule: evenodd"/>
<title>b'layer_closed_1'</title>
</g>
</svg>