<?xml version="1.0"?>
<!DOCTYPE svg PUBLIC "-//W3C//DTD SVG 1.1//EN" "http://www.w3.org/Graphics/SVG/1.1/DTD/svg11.dtd">
<svg width="325.38mm" height="191.38mm" viewBox="0 0 325.38 191.38" xmlns="http://www.w3.org/2000/svg" version="1.1">
<g id="Cut015" transform="translate(10.190000,181.190000) scale(1,-1)">
<path id="Cut015_f0000"  d="M 308.19 -7.0 L -3.1900000000000004 -7.0 L -3.19 -7.0 L 308.19 -6.999999999999996 L 308.19 -6.999999999999996 Z " stroke="#191919" stroke-width="0.35 px" style="stroke-width:0.35;stroke-miterlimit:4;stroke-dasharray:none;fill:#cccccc;fill-opacity:0.19999999999999996;fill-rule: evenodd"/>
<path id="Cut015_f0001"  d="M -3.190000000000002 -7.0 A 3.81 3.81 0 0 0 -7 -3.19L -7.0 -3.189999999999999 A 3.81 3.81 0 0 1 -3.19 -7L -3.19 -7.0 Z " stroke="#191919" stroke-width="0.35 px" style="stroke-width:0.35;stroke-miterlimit:4;stroke-dasharray:none;fill:#cccccc;fill-opacity:0.19999999999999996;fill-rule: evenodd"/>
<path id="Cut015_f0002"  d="M 312.0 -3.1899999999999995 A 3.81 3.81 0 0 0 308.19 -7L 308.19 -6.999999999999996 A 3.81 3.81 0 0 1 312 -3.19L 312.0 -3.19 Z " stroke="#191919" stroke-width="0.35 px" style="stroke-width:0.35;stroke-miterlimit:4;stroke-dasharray:none;fill:#cccccc;fill-opacity:0.19999999999999996;fill-rule: evenodd"/>
<circle cx="-2.3" cy="-2.3" r="1.7" stroke="#191919" stroke-width="0.35 px" style="stroke-width:0.35;stroke-miterlimit:4;stroke-dasharray:none;fill:#cccccc"/>
<circle cx="-2.3" cy="-2.3" r="1.7" stroke="#191919" stroke-width="0.35 px" style="stroke-width:0.35;stroke-miterlimit:4;stroke-dasharray:none;fill:#cccccc"/>
<path id="Cut015_f0005"  d="M -7.0 -3.1899999999999977 L -7.0 174.19 L -7.000000000000004 174.19 L -7.0 -3.189999999999999 L -7.0 -3.189999999999999 Z " stroke="#191919" stroke-width="0.35 px" style="stroke-width:0.35;stroke-miterlimit:4;stroke-dasharray:none;fill:#cccccc;fill-opacity:0.19999999999999996;fill-rule: evenodd"/>
<path id="Cut015_f0006"  d="M 312.0 174.19 L 312.0 -3.1900000000000004 L 312.0 -3.19 L 312.0 174.19 L 312.0 174.19 Z " stroke="#191919" stroke-width="0.35 px" style="stroke-width:0.35;stroke-miterlimit:4;stroke-dasharray:none;fill:#cccccc;fill-opacity:0.19999999999999996;fill-rule: evenodd"/>
<path id="Cut015_f0007"  d="M -7.000000000000007 174.19 A 3.81 3.81 0 0 0 -3.19 178L -3.189999999999999 178.0 A 3.81 3.81 0 0 1 -7 174.19L -7.000000000000004 174.19 Z " stroke="#191919" stroke-width="0.35 px" style="stroke-width:0.35;stroke-miterlimit:4;stroke-dasharray:none;fill:#cccccc;fill-opacity:0.19999999999999996;fill-rule: evenodd"/>
<path id="Cut015_f0008"  d="M 308.19 178.0 A 3.81 3.81 0 0 0 312 174.19L 312.0 174.19 A 3.81 3.81 0 0 1 308.19 178L 308.19 178.0 Z " stroke="#191919" stroke-width="0.35 px" style="stroke-width:0.35;stroke-miterlimit:4;stroke-dasharray:none;fill:#cccccc;fill-opacity:0.19999999999999996;fill-rule: evenodd"/>
<path id="Cut015_f0009"  d="M -3.1899999999999977 178.0 L 308.19 178.0 L 308.19 178.0 L -3.189999999999999 178.0 L -3.189999999999999 178.0 Z " stroke="#191919" stroke-width="0.35 px" style="stroke-width:0.35;stroke-miterlimit:4;stroke-dasharray:none;fill:#cccccc;fill-opacity:0.19999999999999996;fill-rule: evenodd"/>
<circle cx="-2.3" cy="-2.3" r="1.7" stroke="#191919" stroke-width="0.35 px" style="stroke-width:0.35;stroke-miterlimit:4;stroke-dasharray:none;fill:#cccccc"/>
<circle cx="99.0" cy="-3.5" r="1.7" stroke="#191919" stroke-width="0.35 px" style="stroke-width:0.35;stroke-miterlimit:4;stroke-dasharray:none;fill:#cccccc"/>
<circle cx="206.0" cy="-3.5" r="1.7" stroke="#191919" stroke-width="0.35 px" style="stroke-width:0.35;stroke-miterlimit:4;stroke-dasharray:none;fill:#cccccc"/>
<circle cx="307.4" cy="-2.3" r="1.7" stroke="#191919" stroke-width="0.35 px" style="stroke-width:0.35;stroke-miterlimit:4;stroke-dasharray:none;fill:#cccccc"/>
<path id="Cut015_f0014"  d="M 305.0 114.5 L 305.0 3.8099999999999996 L 305.0 3.81 L 305.0 114.5 L 305.0 114.5 Z " stroke="#191919" stroke-width="0.35 px" style="stroke-width:0.35;stroke-miterlimit:4;stroke-dasharray:none;fill:#cccccc;fill-opacity:0.19999999999999996;fill-rule: evenodd"/>
<path id="Cut015_f0015"  d="M 301.19 4e-15 L 301.19 4e-15 A 3.81 3.81 0 0 1 305 3.81L 305.0 3.81 A 3.81 3.81 0 0 0 301.19 7.99361e-15Z " stroke="#191919" stroke-width="0.35 px" style="stroke-width:0.35;stroke-miterlimit:4;stroke-dasharray:none;fill:#cccccc;fill-opacity:0.19999999999999996;fill-rule: evenodd"/>
<path id="Cut015_f0016"  d="M 0.0 114.5 L 305.0 114.5 L 305.0 114.5 L 0.0 114.5 L 0.0 114.5 Z " stroke="#191919" stroke-width="0.35 px" style="stroke-width:0.35;stroke-miterlimit:4;stroke-dasharray:none;fill:#cccccc;fill-opacity:0.19999999999999996;fill-rule: evenodd"/>
<path id="Cut015_f0017"  d="M 3.81 0.0 L 3.81 0.0 L 301.19 4e-15 L 301.19 4e-15 L 3.8099999999999996 0.0 Z " stroke="#191919" stroke-width="0.35 px" style="stroke-width:0.35;stroke-miterlimit:4;stroke-dasharray:none;fill:#cccccc;fill-opacity:0.19999999999999996;fill-rule: evenodd"/>
<path id="Cut015_f0018"  d="M 0.0 3.8100000000000023 L 0.0 114.5 L 0.0 114.5 L 0.0 3.810000000000001 L 0.0 3.810000000000001 Z " stroke="#191919" stroke-width="0.35 px" style="stroke-width:0.35;stroke-miterlimit:4;stroke-dasharray:none;fill:#cccccc;fill-opacity:0.19999999999999996;fill-rule: evenodd"/>
<path id="Cut015_f0019"  d="M 0.0 3.810000000000001 L 0.0 3.810000000000001 A 3.81 3.81 0 0 1 3.81 -4.44089e-16L 3.81 0.0 A 3.81 3.81 0 0 0 -4.44089e-16 3.81Z " stroke="#191919" stroke-width="0.35 px" style="stroke-width:0.35;stroke-miterlimit:4;stroke-dasharray:none;fill:#cccccc;fill-opacity:0.19999999999999996;fill-rule: evenodd"/>
<circle cx="-3.5" cy="85.5" r="1.7" stroke="#191919" stroke-width="0.35 px" style="stroke-width:0.35;stroke-miterlimit:4;stroke-dasharray:none;fill:#cccccc"/>
<circle cx="-2.3" cy="173.39999999999998" r="1.7" stroke="#191919" stroke-width="0.35 px" style="stroke-width:0.35;stroke-miterlimit:4;stroke-dasharray:none;fill:#cccccc"/>
<circle cx="99.0" cy="174.5" r="1.7" stroke="#191919" stroke-width="0.35 px" style="stroke-width:0.35;stroke-miterlimit:4;stroke-dasharray:none;fill:#cccccc"/>
<circle cx="308.5" cy="85.5" r="1.7" stroke="#191919" stroke-width="0.35 px" style="stroke-width:0.35;stroke-miterlimit:4;stroke-dasharray:none;fill:#cccccc"/>
<circle cx="206.0" cy="174.5" r="1.7" stroke="#191919" stroke-width="0.35 px" style="stroke-width:0.35;stroke-miterlimit:4;stroke-dasharray:none;fill:#cccccc"/>
<circle cx="307.4" cy="173.39999999999998" r="1.7" stroke="#191919" stroke-width="0.35 px" style="stroke-width:0.35;stroke-miterlimit:4;stroke-dasharray:none;fill:#cccccc"/>
<title>b'hlayer_top_2'</title>
</g>
</svg>