<?xml version="1.0" encoding="UTF-8" standalone="no"?>
<svg
   xmlns:dc="http://purl.org/dc/elements/1.1/"
   xmlns:cc="http://creativecommons.org/ns#"
   xmlns:rdf="http://www.w3.org/1999/02/22-rdf-syntax-ns#"
   xmlns:svg="http://www.w3.org/2000/svg"
   xmlns="http://www.w3.org/2000/svg"
   xmlns:sodipodi="http://sodipodi.sourceforge.net/DTD/sodipodi-0.dtd"
   xmlns:inkscape="http://www.inkscape.org/namespaces/inkscape"
   width="325mm"
   height="191.00999mm"
   viewBox="0 0 325 191.00999"
   version="1.1"
   id="svg8"
   inkscape:version="1.0.1 (3bc2e813f5, 2020-09-07)"
   sodipodi:docname="plate.svg">
  <defs
     id="defs2" />
  <sodipodi:namedview
     id="base"
     pagecolor="#ffffff"
     bordercolor="#666666"
     borderopacity="1.0"
     inkscape:pageopacity="0.0"
     inkscape:pageshadow="2"
     inkscape:zoom="3.959798"
     inkscape:cx="615.22539"
     inkscape:cy="154.57107"
     inkscape:document-units="mm"
     inkscape:current-layer="Cut"
     inkscape:document-rotation="0"
     showgrid="false"
     inkscape:window-width="2560"
     inkscape:window-height="1377"
     inkscape:window-x="1912"
     inkscape:window-y="-8"
     inkscape:window-maximized="1"
     lock-margins="false"
     fit-margin-top="10"
     fit-margin-left="10"
     fit-margin-right="10"
     fit-margin-bottom="10" />
  <metadata
     id="metadata5">
    <rdf:RDF>
      <cc:Work
         rdf:about="">
        <dc:format>image/svg+xml</dc:format>
        <dc:type
           rdf:resource="http://purl.org/dc/dcmitype/StillImage" />
        <dc:title></dc:title>
      </cc:Work>
    </rdf:RDF>
  </metadata>
  <g
     inkscape:label="Layer 1"
     inkscape:groupmode="layer"
     id="layer1"
     transform="translate(-0.075,-0.075)">
    <g
       id="g159"
       transform="translate(7.127,7.127)">
      <g
         id="Cut"
         transform="matrix(1,0,0,-1,3.048,173.858)"
         style="stroke-width:0.2;stroke-miterlimit:4;stroke-dasharray:none">
        <path
           id="Cut_f0000"
           d="M 0,167 V 3.81 v 0 z"
           stroke="#191919"
           stroke-width="0.35 px"
           style="opacity:1;fill:none;fill-opacity:1;fill-rule:evenodd;stroke:#0000ff;stroke-width:0.2;stroke-miterlimit:4;stroke-dasharray:none;stroke-opacity:1" />
        <path
           id="Cut_f0002"
           d="M 0,3.81 A 3.81,3.81 0 0 1 3.81,0 V 0 A 3.81,3.81 0 0 0 0,3.81 Z"
           stroke="#191919"
           stroke-width="0.35 px"
           style="fill:#cccccc;fill-opacity:1;fill-rule:evenodd;stroke:#0000ff;stroke-width:0.2;stroke-miterlimit:4;stroke-dasharray:none;stroke-opacity:1" />
        <path
           id="Cut_f0003"
           d="m 0,167 a 3.81,3.81 0 0 0 3.81,3.81 v 0 A 3.81,3.81 0 0 1 0,167 Z"
           stroke="#191919"
           stroke-width="0.35 px"
           style="fill:#cccccc;fill-opacity:1;fill-rule:evenodd;stroke:#0000ff;stroke-width:0.2;stroke-miterlimit:4;stroke-dasharray:none;stroke-opacity:1" />
        <path
           id="Cut_f0005"
           d="M 300.99,0 H 3.81 v 0 z"
           stroke="#191919"
           stroke-width="0.35 px"
           style="fill:#cccccc;fill-opacity:1;fill-rule:evenodd;stroke:#0000ff;stroke-width:0.2;stroke-miterlimit:4;stroke-dasharray:none;stroke-opacity:1" />
        <path
           id="Cut_f0006"
           d="M 300.99,170.81 H 3.81 v 0 z"
           stroke="#191919"
           stroke-width="0.35 px"
           style="fill:#cccccc;fill-opacity:1;fill-rule:evenodd;stroke:#0000ff;stroke-width:0.2;stroke-miterlimit:4;stroke-dasharray:none;stroke-opacity:1" />
        <path
           id="Cut_f0007"
           d="M 304.8,3.81 A 3.81,3.81 0 0 0 300.99,0 v 0 a 3.81,3.81 0 0 1 3.81,3.81 z"
           stroke="#191919"
           stroke-width="0.35 px"
           style="fill:#cccccc;fill-opacity:1;fill-rule:evenodd;stroke:#0000ff;stroke-width:0.2;stroke-miterlimit:4;stroke-dasharray:none;stroke-opacity:1" />
        <path
           id="Cut_f0008"
           d="m 304.8,167 a 3.81,3.81 0 0 1 -3.81,3.81 v 0 A 3.81,3.81 0 0 0 304.8,167 Z"
           stroke="#191919"
           stroke-width="0.35 px"
           style="fill:#cccccc;fill-opacity:1;fill-rule:evenodd;stroke:#0000ff;stroke-width:0.2;stroke-miterlimit:4;stroke-dasharray:none;stroke-opacity:1" />
        <path
           id="Cut_f0009"
           d="M 304.8,167 V 3.81 v 0 z"
           stroke="#191919"
           stroke-width="0.35 px"
           style="fill:#cccccc;fill-opacity:1;fill-rule:evenodd;stroke:#0000ff;stroke-width:0.2;stroke-miterlimit:4;stroke-dasharray:none;stroke-opacity:1" />
        <circle
           cx="154.94"
           cy="118.11"
           r="1.1"
           stroke="#191919"
           stroke-width="0.35 px"
           style="fill:#ffffff;fill-opacity:1;stroke:#0000ff;stroke-width:0.2;stroke-miterlimit:4;stroke-dasharray:none;stroke-opacity:1"
           id="circle85" />
        <circle
           cx="285.75"
           cy="19.049999"
           r="1.1"
           stroke="#191919"
           stroke-width="0.35 px"
           style="fill:#ffffff;fill-opacity:1;stroke:#0000ff;stroke-width:0.2;stroke-miterlimit:4;stroke-dasharray:none;stroke-opacity:1"
           id="circle87" />
        <circle
           cx="285.75"
           cy="95.25"
           r="1.1"
           stroke="#191919"
           stroke-width="0.35 px"
           style="fill:#ffffff;fill-opacity:1;stroke:#0000ff;stroke-width:0.2;stroke-miterlimit:4;stroke-dasharray:none;stroke-opacity:1"
           id="circle89" />
        <circle
           cx="154.94"
           cy="167"
           r="1.1"
           stroke="#191919"
           stroke-width="0.35 px"
           style="fill:#ffffff;fill-opacity:1;stroke:#0000ff;stroke-width:0.2;stroke-miterlimit:4;stroke-dasharray:none;stroke-opacity:1"
           id="circle91" />
        <circle
           cx="300.98999"
           cy="118.11"
           r="1.1"
           stroke="#191919"
           stroke-width="0.35 px"
           style="fill:#ffffff;fill-opacity:1;stroke:#0000ff;stroke-width:0.2;stroke-miterlimit:4;stroke-dasharray:none;stroke-opacity:1"
           id="circle93" />
        <circle
           cx="300.98999"
           cy="167"
           r="1.1"
           stroke="#191919"
           stroke-width="0.35 px"
           style="fill:#ffffff;fill-opacity:1;stroke:#0000ff;stroke-width:0.2;stroke-miterlimit:4;stroke-dasharray:none;stroke-opacity:1"
           id="circle95" />
        <circle
           cx="152.39999"
           cy="95.25"
           r="1.1"
           stroke="#191919"
           stroke-width="0.35 px"
           style="fill:#ffffff;fill-opacity:1;stroke:#0000ff;stroke-width:0.2;stroke-miterlimit:4;stroke-dasharray:none;stroke-opacity:1"
           id="circle97" />
        <circle
           cx="3.8099999"
           cy="167"
           r="1.1"
           stroke="#191919"
           stroke-width="0.35 px"
           style="fill:#ffffff;fill-opacity:1;stroke:#0000ff;stroke-width:0.2;stroke-miterlimit:4;stroke-dasharray:none;stroke-opacity:1"
           id="circle99" />
        <circle
           cx="19.049999"
           cy="95.25"
           r="1.1"
           stroke="#191919"
           stroke-width="0.35 px"
           style="fill:#ffffff;fill-opacity:1;stroke:#0000ff;stroke-width:0.2;stroke-miterlimit:4;stroke-dasharray:none;stroke-opacity:1"
           id="circle101" />
        <circle
           cx="3.8099999"
           cy="118.11"
           r="1.1"
           stroke="#191919"
           stroke-width="0.35 px"
           style="fill:#ffffff;fill-opacity:1;stroke:#0000ff;stroke-width:0.2;stroke-miterlimit:4;stroke-dasharray:none;stroke-opacity:1"
           id="circle103" />
        <circle
           cx="23.809999"
           cy="9.5299997"
           r="1.1"
           stroke="#191919"
           stroke-width="0.35 px"
           style="fill:#ffffff;fill-opacity:1;stroke:#0000ff;stroke-width:0.2;stroke-miterlimit:4;stroke-dasharray:none;stroke-opacity:1"
           id="circle105" />
        <circle
           cx="152.39999"
           cy="9.5299997"
           r="1.1"
           stroke="#191919"
           stroke-width="0.35 px"
           style="fill:#ffffff;fill-opacity:1;stroke:#0000ff;stroke-width:0.2;stroke-miterlimit:4;stroke-dasharray:none;stroke-opacity:1"
           id="circle107" />
        <title
           id="title109">b'Cut'</title>
      </g>
      <g
         id="ShapeString"
         transform="matrix(1,0,0,-1,3.048,173.858)"
         style="stroke-width:0.2;stroke-miterlimit:4;stroke-dasharray:none">
        <path
           id="ShapeString_f0000"
           d="m 185.82924,57.018349 q 0.56297,-2.427023 1.71393,-4.165972 1.13844,-1.738949 2.83986,-2.702252 1.68891,-0.950792 3.97832,-0.950792 1.97664,0 3.59049,0.775646 1.61384,0.775647 2.7648,2.389491 1.13845,1.613845 1.76397,4.11593 0.61301,2.502085 0.61301,5.917432 0,2.95246 -0.57548,5.391993 -0.57548,2.439533 -1.70141,4.178482 -1.13845,1.738949 -2.83987,2.689741 -1.71393,0.963303 -3.99083,0.963303 -1.96413,0 -3.57798,-0.775646 -1.61384,-0.775647 -2.75229,-2.402002 -1.15096,-1.626355 -1.76397,-4.12844 -0.62552,-2.489575 -0.62552,-5.917431 0,-2.952461 0.56297,-5.379483 z m 2.78982,6.905754 q 0.0375,0.663053 0.10009,1.288574 l 10.37114,-8.006672 q -0.27523,-1.138449 -0.70059,-2.101751 -0.43786,-0.963303 -1.05087,-1.651377 -0.61301,-0.688073 -1.38866,-1.075896 -0.77565,-0.375313 -1.77648,-0.375313 -1.27606,0 -2.31443,0.675563 -1.03836,0.675563 -1.76397,2.014179 -0.73811,1.338615 -1.12594,3.315262 -0.40033,1.989158 -0.40033,4.603837 0,0.663052 0.05,1.313594 z m 11.1593,-2.326939 q -0.0125,-0.613011 -0.0625,-1.18849 l -10.38365,8.006672 q 0.28774,0.975813 0.7256,1.776481 0.42536,0.813177 1.02586,1.388657 0.6005,0.58799 1.37614,0.913261 0.76314,0.325271 1.71393,0.325271 1.27606,0 2.32694,-0.638032 1.03836,-0.638032 1.77648,-1.901585 0.7256,-1.263552 1.12594,-3.127606 0.38782,-1.864053 0.38782,-4.316097 0,-0.61301 -0.0125,-1.238532 z"
           stroke="#000000"
           stroke-width="0.35 px"
           style="fill:#ffffff;fill-opacity:1;fill-rule:evenodd;stroke:#ff00ff;stroke-width:0.2;stroke-miterlimit:4;stroke-dasharray:none;stroke-opacity:1" />
        <path
           id="ShapeString_f0001"
           d="m 165.01189,57.018349 q 0.56297,-2.427023 1.71393,-4.165972 1.13845,-1.738949 2.83986,-2.702252 1.68891,-0.950792 3.97832,-0.950792 1.97665,0 3.59049,0.775646 1.61385,0.775647 2.76481,2.389491 1.13844,1.613845 1.76397,4.11593 0.61301,2.502085 0.61301,5.917432 0,2.95246 -0.57548,5.391993 -0.57548,2.439533 -1.70142,4.178482 -1.13845,1.738949 -2.83987,2.689741 -1.71393,0.963303 -3.99082,0.963303 -1.96414,0 -3.57799,-0.775646 -1.61384,-0.775647 -2.75229,-2.402002 -1.15096,-1.626355 -1.76397,-4.12844 -0.62552,-2.489575 -0.62552,-5.917431 0,-2.952461 0.56297,-5.379483 z m 2.78982,6.905754 q 0.0375,0.663053 0.10009,1.288574 l 10.37114,-8.006672 q -0.27523,-1.138449 -0.70058,-2.101751 -0.43787,-0.963303 -1.05088,-1.651377 -0.61301,-0.688073 -1.38866,-1.075896 -0.77564,-0.375313 -1.77648,-0.375313 -1.27606,0 -2.31443,0.675563 -1.03836,0.675563 -1.76397,2.014179 -0.73811,1.338615 -1.12593,3.315262 -0.40034,1.989158 -0.40034,4.603837 0,0.663052 0.05,1.313594 z m 11.1593,-2.326939 q -0.0125,-0.613011 -0.0625,-1.18849 l -10.38365,8.006672 q 0.28774,0.975813 0.7256,1.776481 0.42536,0.813177 1.02586,1.388657 0.6005,0.58799 1.37614,0.913261 0.76314,0.325271 1.71393,0.325271 1.27607,0 2.32694,-0.638032 1.03837,-0.638032 1.77648,-1.901585 0.72561,-1.263552 1.12594,-3.127606 0.38782,-1.864053 0.38782,-4.316097 0,-0.61301 -0.0125,-1.238532 z"
           stroke="#000000"
           stroke-width="0.35 px"
           style="fill:#ffffff;fill-opacity:1;fill-rule:evenodd;stroke:#ff00ff;stroke-width:0.2;stroke-miterlimit:4;stroke-dasharray:none;stroke-opacity:1" />
        <path
           id="ShapeString_f0002"
           d="m 147.65993,50 9.18265,12.172644 V 50 h 3.34028 v 24.820684 h -3.34028 V 63.298582 l -8.99499,11.522102 h -3.9533 L 153.57736,63.023353 143.45643,50 Z"
           stroke="#000000"
           stroke-width="0.35 px"
           style="fill:#ffffff;fill-opacity:1;fill-rule:evenodd;stroke:#ff00ff;stroke-width:0.2;stroke-miterlimit:4;stroke-dasharray:none;stroke-opacity:1" />
        <path
           id="ShapeString_f0003"
           d="m 123.40221,59.720601 q 0.0125,-0.487907 0.05,-0.913262 h 13.22352 q 0,-3.290241 -1.61385,-5.054211 -1.61384,-1.75146 -4.65388,-1.75146 -0.82569,0 -1.65137,0.06255 -0.82569,0.06255 -1.58883,0.175146 -0.77564,0.112594 -1.47623,0.250209 -0.70058,0.150125 -1.30108,0.31276 v -2.602168 q 1.3261,-0.450376 3.01501,-0.725605 1.6764,-0.275229 3.4779,-0.275229 2.41451,0 4.16597,0.700584 1.73895,0.700583 2.86489,2.026689 1.11343,1.338615 1.65137,3.265221 0.52544,1.939115 0.52544,4.378648 0,2.114262 -0.56297,4.003337 -0.57548,1.901584 -1.67639,3.327773 -1.10092,1.438699 -2.68975,2.276897 -1.60133,0.838199 -3.62802,0.838199 -1.96414,0 -3.4779,-0.650543 -1.52627,-0.638031 -2.56463,-1.814011 -1.05088,-1.17598 -1.57632,-2.864888 -0.53795,-1.676397 -0.53795,-3.753127 0,-0.725605 0.025,-1.213511 z m 3.61552,4.115929 q 0.30025,1.100918 0.92577,1.889075 0.62552,0.800667 1.5638,1.238532 0.93828,0.450375 2.17682,0.450375 1.07589,0 1.96413,-0.437865 0.87573,-0.437865 1.51376,-1.226021 0.63804,-0.788157 1.03837,-1.901585 0.38782,-1.113428 0.4754,-2.439533 h -9.90826 q -0.05,1.326105 0.25021,2.427022 z"
           stroke="#000000"
           stroke-width="0.35 px"
           style="fill:#ffffff;fill-opacity:1;fill-rule:evenodd;stroke:#ff00fb;stroke-width:0.2;stroke-miterlimit:4;stroke-dasharray:none;stroke-opacity:1" />
        <path
           id="ShapeString_f0004"
           d="m 108.12698,51.488741 q 1.00084,-2.702252 2.06423,-4.653879 1.05087,-1.951626 2.31442,-3.202669 1.25105,-1.251042 2.7523,-1.839032 1.50125,-0.6005 3.3653,-0.6005 0.48791,0 0.88824,0 0.38783,0 0.85071,0 v 2.802335 q -0.41284,0 -0.90075,0 -0.48791,0 -1.02585,0 -0.90076,0 -1.6764,0.325271 -0.78816,0.312761 -1.47623,1.038365 -0.70059,0.725605 -1.33862,1.876564 Q 113.3063,48.373645 112.7058,50 l 7.53128,19.216013 h -3.7156 l -4.76647,-12.710592 -0.9633,-2.989991 -1.08841,3.065054 -4.40367,12.635529 h -3.59049 z"
           stroke="#000000"
           stroke-width="0.35 px"
           style="fill:#ffffff;fill-opacity:1;fill-rule:evenodd;stroke:#ff00ff;stroke-width:0.2;stroke-miterlimit:4;stroke-dasharray:none;stroke-opacity:1" />
        <title
           id="title117">b'00Key'</title>
      </g>
    </g>
  </g>
</svg>
