  0
SECTION
  2
HEADER
  9
$ACADVER
  1
AC1009
  9
$FILLMODE
 70
 0
  9
$SPLFRAME
 70
 1
  9
$EXTMIN
 10
0
 20
0
 30
0.0
  9
$EXTMAX
 10
1058.33
 20
1058.33
 30
0.0
  0
ENDSEC
  0
SECTION
  2
TABLES
  0
TABLE
  2
LAYER
 70
1
  0
LAYER
  2
0
 70
     0
 62
     7
  6
CONTINUOUS
  0
ENDTAB
  0
ENDSEC
  0
SECTION
  2
ENTITIES
  0
LINE
  8
0
 62
     0
 10
314.897
 20
184.408
 30
0.0
 11
315.053
 21
184.401
 31
0.0
  0
LINE
  8
0
 62
     0
 10
315.053
 20
184.401
 30
0.0
 11
315.208
 21
184.383
 31
0.0
  0
LINE
  8
0
 62
     0
 10
315.208
 20
184.383
 30
0.0
 11
315.363
 21
184.352
 31
0.0
  0
LINE
  8
0
 62
     0
 10
315.363
 20
184.352
 30
0.0
 11
315.514
 21
184.31
 31
0.0
  0
LINE
  8
0
 62
     0
 10
315.514
 20
184.31
 30
0.0
 11
315.662
 21
184.255
 31
0.0
  0
LINE
  8
0
 62
     0
 10
315.662
 20
184.255
 30
0.0
 11
315.803
 21
184.19
 31
0.0
  0
LINE
  8
0
 62
     0
 10
315.803
 20
184.19
 30
0.0
 11
315.94
 21
184.113
 31
0.0
  0
LINE
  8
0
 62
     0
 10
315.94
 20
184.113
 30
0.0
 11
316.071
 21
184.026
 31
0.0
  0
LINE
  8
0
 62
     0
 10
316.071
 20
184.026
 30
0.0
 11
316.195
 21
183.928
 31
0.0
  0
LINE
  8
0
 62
     0
 10
316.195
 20
183.928
 30
0.0
 11
316.311
 21
183.822
 31
0.0
  0
LINE
  8
0
 62
     0
 10
316.311
 20
183.822
 30
0.0
 11
316.417
 21
183.706
 31
0.0
  0
LINE
  8
0
 62
     0
 10
316.417
 20
183.706
 30
0.0
 11
316.515
 21
183.584
 31
0.0
  0
LINE
  8
0
 62
     0
 10
316.515
 20
183.584
 30
0.0
 11
316.601
 21
183.453
 31
0.0
  0
LINE
  8
0
 62
     0
 10
316.601
 20
183.453
 30
0.0
 11
316.679
 21
183.315
 31
0.0
  0
LINE
  8
0
 62
     0
 10
316.679
 20
183.315
 30
0.0
 11
316.743
 21
183.173
 31
0.0
  0
LINE
  8
0
 62
     0
 10
316.743
 20
183.173
 30
0.0
 11
316.799
 21
183.027
 31
0.0
  0
LINE
  8
0
 62
     0
 10
316.799
 20
183.027
 30
0.0
 11
316.84
 21
182.874
 31
0.0
  0
LINE
  8
0
 62
     0
 10
316.84
 20
182.874
 30
0.0
 11
316.872
 21
182.721
 31
0.0
  0
LINE
  8
0
 62
     0
 10
316.872
 20
182.721
 30
0.0
 11
316.89
 21
182.564
 31
0.0
  0
LINE
  8
0
 62
     0
 10
316.89
 20
182.564
 30
0.0
 11
316.896
 21
182.407
 31
0.0
  0
LINE
  8
0
 62
     0
 10
316.896
 20
182.407
 30
0.0
 11
316.896
 21
2.10564
 31
0.0
  0
LINE
  8
0
 62
     0
 10
316.896
 20
2.10564
 30
0.0
 11
316.89
 21
1.94992
 31
0.0
  0
LINE
  8
0
 62
     0
 10
316.89
 20
1.94992
 30
0.0
 11
316.872
 21
1.79421
 31
0.0
  0
LINE
  8
0
 62
     0
 10
316.872
 20
1.79421
 30
0.0
 11
316.84
 21
1.63987
 31
0.0
  0
LINE
  8
0
 62
     0
 10
316.84
 20
1.63987
 30
0.0
 11
316.799
 21
1.48828
 31
0.0
  0
LINE
  8
0
 62
     0
 10
316.799
 20
1.48828
 30
0.0
 11
316.743
 21
1.34083
 31
0.0
  0
LINE
  8
0
 62
     0
 10
316.743
 20
1.34083
 30
0.0
 11
316.679
 21
1.19889
 31
0.0
  0
LINE
  8
0
 62
     0
 10
316.679
 20
1.19889
 30
0.0
 11
316.601
 21
1.06247
 31
0.0
  0
LINE
  8
0
 62
     0
 10
316.601
 20
1.06247
 30
0.0
 11
316.515
 21
0.931556
 31
0.0
  0
LINE
  8
0
 62
     0
 10
316.515
 20
0.931556
 30
0.0
 11
316.417
 21
0.808909
 31
0.0
  0
LINE
  8
0
 62
     0
 10
316.417
 20
0.808909
 30
0.0
 11
316.311
 21
0.691776
 31
0.0
  0
LINE
  8
0
 62
     0
 10
316.311
 20
0.691776
 30
0.0
 11
316.195
 21
0.585668
 31
0.0
  0
LINE
  8
0
 62
     0
 10
316.195
 20
0.585668
 30
0.0
 11
316.071
 21
0.487825
 31
0.0
  0
LINE
  8
0
 62
     0
 10
316.071
 20
0.487825
 30
0.0
 11
315.94
 21
0.40101
 31
0.0
  0
LINE
  8
0
 62
     0
 10
315.94
 20
0.40101
 30
0.0
 11
315.803
 21
0.323839
 31
0.0
  0
LINE
  8
0
 62
     0
 10
315.803
 20
0.323839
 30
0.0
 11
315.662
 21
0.259071
 31
0.0
  0
LINE
  8
0
 62
     0
 10
315.662
 20
0.259071
 30
0.0
 11
315.514
 21
0.20395
 31
0.0
  0
LINE
  8
0
 62
     0
 10
315.514
 20
0.20395
 30
0.0
 11
315.363
 21
0.162609
 31
0.0
  0
LINE
  8
0
 62
     0
 10
315.363
 20
0.162609
 30
0.0
 11
315.208
 21
0.130914
 31
0.0
  0
LINE
  8
0
 62
     0
 10
315.208
 20
0.130914
 30
0.0
 11
315.053
 21
0.112999
 31
0.0
  0
LINE
  8
0
 62
     0
 10
315.053
 20
0.112999
 30
0.0
 11
314.897
 21
0.106109
 31
0.0
  0
LINE
  8
0
 62
     0
 10
314.897
 20
0.106109
 30
0.0
 11
2.096
 21
0.106109
 31
0.0
  0
LINE
  8
0
 62
     0
 10
2.096
 20
0.106109
 30
0.0
 11
1.9389
 21
0.112999
 31
0.0
  0
LINE
  8
0
 62
     0
 10
1.9389
 20
0.112999
 30
0.0
 11
1.7818
 21
0.130914
 31
0.0
  0
LINE
  8
0
 62
     0
 10
1.7818
 20
0.130914
 30
0.0
 11
1.62884
 21
0.162609
 31
0.0
  0
LINE
  8
0
 62
     0
 10
1.62884
 20
0.162609
 30
0.0
 11
1.47588
 21
0.20395
 31
0.0
  0
LINE
  8
0
 62
     0
 10
1.47588
 20
0.20395
 30
0.0
 11
1.32981
 21
0.259071
 31
0.0
  0
LINE
  8
0
 62
     0
 10
1.32981
 20
0.259071
 30
0.0
 11
1.18787
 21
0.323839
 31
0.0
  0
LINE
  8
0
 62
     0
 10
1.18787
 20
0.323839
 30
0.0
 11
1.05006
 21
0.40101
 31
0.0
  0
LINE
  8
0
 62
     0
 10
1.05006
 20
0.40101
 30
0.0
 11
0.919152
 21
0.487825
 31
0.0
  0
LINE
  8
0
 62
     0
 10
0.919152
 20
0.487825
 30
0.0
 11
0.796505
 21
0.585668
 31
0.0
  0
LINE
  8
0
 62
     0
 10
0.796505
 20
0.585668
 30
0.0
 11
0.680752
 21
0.691776
 31
0.0
  0
LINE
  8
0
 62
     0
 10
0.680752
 20
0.691776
 30
0.0
 11
0.574643
 21
0.808909
 31
0.0
  0
LINE
  8
0
 62
     0
 10
0.574643
 20
0.808909
 30
0.0
 11
0.4768
 21
0.931556
 31
0.0
  0
LINE
  8
0
 62
     0
 10
0.4768
 20
0.931556
 30
0.0
 11
0.389985
 21
1.06247
 31
0.0
  0
LINE
  8
0
 62
     0
 10
0.389985
 20
1.06247
 30
0.0
 11
0.312815
 21
1.19889
 31
0.0
  0
LINE
  8
0
 62
     0
 10
0.312815
 20
1.19889
 30
0.0
 11
0.248047
 21
1.34083
 31
0.0
  0
LINE
  8
0
 62
     0
 10
0.248047
 20
1.34083
 30
0.0
 11
0.192925
 21
1.48828
 31
0.0
  0
LINE
  8
0
 62
     0
 10
0.192925
 20
1.48828
 30
0.0
 11
0.150206
 21
1.63987
 31
0.0
  0
LINE
  8
0
 62
     0
 10
0.150206
 20
1.63987
 30
0.0
 11
0.119889
 21
1.79421
 31
0.0
  0
LINE
  8
0
 62
     0
 10
0.119889
 20
1.79421
 30
0.0
 11
0.101975
 21
1.94992
 31
0.0
  0
LINE
  8
0
 62
     0
 10
0.101975
 20
1.94992
 30
0.0
 11
0.0950846
 21
2.10564
 31
0.0
  0
LINE
  8
0
 62
     0
 10
0.0950846
 20
2.10564
 30
0.0
 11
0.0950846
 21
182.407
 31
0.0
  0
LINE
  8
0
 62
     0
 10
0.0950846
 20
182.407
 30
0.0
 11
0.101975
 21
182.564
 31
0.0
  0
LINE
  8
0
 62
     0
 10
0.101975
 20
182.564
 30
0.0
 11
0.119889
 21
182.721
 31
0.0
  0
LINE
  8
0
 62
     0
 10
0.119889
 20
182.721
 30
0.0
 11
0.150206
 21
182.874
 31
0.0
  0
LINE
  8
0
 62
     0
 10
0.150206
 20
182.874
 30
0.0
 11
0.192925
 21
183.027
 31
0.0
  0
LINE
  8
0
 62
     0
 10
0.192925
 20
183.027
 30
0.0
 11
0.248047
 21
183.173
 31
0.0
  0
LINE
  8
0
 62
     0
 10
0.248047
 20
183.173
 30
0.0
 11
0.312815
 21
183.315
 31
0.0
  0
LINE
  8
0
 62
     0
 10
0.312815
 20
183.315
 30
0.0
 11
0.389985
 21
183.453
 31
0.0
  0
LINE
  8
0
 62
     0
 10
0.389985
 20
183.453
 30
0.0
 11
0.4768
 21
183.584
 31
0.0
  0
LINE
  8
0
 62
     0
 10
0.4768
 20
183.584
 30
0.0
 11
0.574643
 21
183.706
 31
0.0
  0
LINE
  8
0
 62
     0
 10
0.574643
 20
183.706
 30
0.0
 11
0.680752
 21
183.822
 31
0.0
  0
LINE
  8
0
 62
     0
 10
0.680752
 20
183.822
 30
0.0
 11
0.796505
 21
183.928
 31
0.0
  0
LINE
  8
0
 62
     0
 10
0.796505
 20
183.928
 30
0.0
 11
0.919152
 21
184.026
 31
0.0
  0
LINE
  8
0
 62
     0
 10
0.919152
 20
184.026
 30
0.0
 11
1.05006
 21
184.113
 31
0.0
  0
LINE
  8
0
 62
     0
 10
1.05006
 20
184.113
 30
0.0
 11
1.18787
 21
184.19
 31
0.0
  0
LINE
  8
0
 62
     0
 10
1.18787
 20
184.19
 30
0.0
 11
1.32981
 21
184.255
 31
0.0
  0
LINE
  8
0
 62
     0
 10
1.32981
 20
184.255
 30
0.0
 11
1.47588
 21
184.31
 31
0.0
  0
LINE
  8
0
 62
     0
 10
1.47588
 20
184.31
 30
0.0
 11
1.62884
 21
184.352
 31
0.0
  0
LINE
  8
0
 62
     0
 10
1.62884
 20
184.352
 30
0.0
 11
1.7818
 21
184.383
 31
0.0
  0
LINE
  8
0
 62
     0
 10
1.7818
 20
184.383
 30
0.0
 11
1.9389
 21
184.401
 31
0.0
  0
LINE
  8
0
 62
     0
 10
1.9389
 20
184.401
 30
0.0
 11
2.096
 21
184.408
 31
0.0
  0
LINE
  8
0
 62
     0
 10
2.096
 20
184.408
 30
0.0
 11
314.897
 21
184.408
 31
0.0
  0
LINE
  8
0
 62
     0
 10
2.63205
 20
4.53376
 30
0.0
 11
2.21313
 21
4.32015
 31
0.0
  0
LINE
  8
0
 62
     0
 10
2.21313
 20
4.32015
 30
0.0
 11
1.88102
 21
3.98805
 31
0.0
  0
LINE
  8
0
 62
     0
 10
1.88102
 20
3.98805
 30
0.0
 11
1.6688
 21
3.5705
 31
0.0
  0
LINE
  8
0
 62
     0
 10
1.6688
 20
3.5705
 30
0.0
 11
1.59439
 21
3.1061
 31
0.0
  0
LINE
  8
0
 62
     0
 10
1.59439
 20
3.1061
 30
0.0
 11
1.6688
 21
2.64308
 31
0.0
  0
LINE
  8
0
 62
     0
 10
1.6688
 20
2.64308
 30
0.0
 11
1.88102
 21
2.22553
 31
0.0
  0
LINE
  8
0
 62
     0
 10
1.88102
 20
2.22553
 30
0.0
 11
2.21313
 21
1.89343
 31
0.0
  0
LINE
  8
0
 62
     0
 10
2.21313
 20
1.89343
 30
0.0
 11
2.63205
 21
1.67983
 31
0.0
  0
LINE
  8
0
 62
     0
 10
2.63205
 20
1.67983
 30
0.0
 11
3.09507
 21
1.60679
 31
0.0
  0
LINE
  8
0
 62
     0
 10
3.09507
 20
1.60679
 30
0.0
 11
3.55808
 21
1.67983
 31
0.0
  0
LINE
  8
0
 62
     0
 10
3.55808
 20
1.67983
 30
0.0
 11
3.97701
 21
1.89343
 31
0.0
  0
LINE
  8
0
 62
     0
 10
3.97701
 20
1.89343
 30
0.0
 11
4.30911
 21
2.22553
 31
0.0
  0
LINE
  8
0
 62
     0
 10
4.30911
 20
2.22553
 30
0.0
 11
4.52134
 21
2.64308
 31
0.0
  0
LINE
  8
0
 62
     0
 10
4.52134
 20
2.64308
 30
0.0
 11
4.59574
 21
3.1061
 31
0.0
  0
LINE
  8
0
 62
     0
 10
4.59574
 20
3.1061
 30
0.0
 11
4.52134
 21
3.5705
 31
0.0
  0
LINE
  8
0
 62
     0
 10
4.52134
 20
3.5705
 30
0.0
 11
4.30911
 21
3.98805
 31
0.0
  0
LINE
  8
0
 62
     0
 10
4.30911
 20
3.98805
 30
0.0
 11
3.97701
 21
4.32015
 31
0.0
  0
LINE
  8
0
 62
     0
 10
3.97701
 20
4.32015
 30
0.0
 11
3.55808
 21
4.53376
 31
0.0
  0
LINE
  8
0
 62
     0
 10
3.55808
 20
4.53376
 30
0.0
 11
3.09507
 21
4.60678
 31
0.0
  0
LINE
  8
0
 62
     0
 10
3.09507
 20
4.60678
 30
0.0
 11
2.63205
 21
4.53376
 31
0.0
  0
LINE
  8
0
 62
     0
 10
106.232
 20
4.53376
 30
0.0
 11
105.814
 21
4.32015
 31
0.0
  0
LINE
  8
0
 62
     0
 10
105.814
 20
4.32015
 30
0.0
 11
105.482
 21
3.98805
 31
0.0
  0
LINE
  8
0
 62
     0
 10
105.482
 20
3.98805
 30
0.0
 11
105.268
 21
3.5705
 31
0.0
  0
LINE
  8
0
 62
     0
 10
105.268
 20
3.5705
 30
0.0
 11
105.195
 21
3.1061
 31
0.0
  0
LINE
  8
0
 62
     0
 10
105.195
 20
3.1061
 30
0.0
 11
105.268
 21
2.64308
 31
0.0
  0
LINE
  8
0
 62
     0
 10
105.268
 20
2.64308
 30
0.0
 11
105.482
 21
2.22553
 31
0.0
  0
LINE
  8
0
 62
     0
 10
105.482
 20
2.22553
 30
0.0
 11
105.814
 21
1.89343
 31
0.0
  0
LINE
  8
0
 62
     0
 10
105.814
 20
1.89343
 30
0.0
 11
106.232
 21
1.67983
 31
0.0
  0
LINE
  8
0
 62
     0
 10
106.232
 20
1.67983
 30
0.0
 11
106.696
 21
1.60679
 31
0.0
  0
LINE
  8
0
 62
     0
 10
106.696
 20
1.60679
 30
0.0
 11
107.159
 21
1.67983
 31
0.0
  0
LINE
  8
0
 62
     0
 10
107.159
 20
1.67983
 30
0.0
 11
107.578
 21
1.89343
 31
0.0
  0
LINE
  8
0
 62
     0
 10
107.578
 20
1.89343
 30
0.0
 11
107.909
 21
2.22553
 31
0.0
  0
LINE
  8
0
 62
     0
 10
107.909
 20
2.22553
 30
0.0
 11
108.121
 21
2.64308
 31
0.0
  0
LINE
  8
0
 62
     0
 10
108.121
 20
2.64308
 30
0.0
 11
108.195
 21
3.1061
 31
0.0
  0
LINE
  8
0
 62
     0
 10
108.195
 20
3.1061
 30
0.0
 11
108.121
 21
3.5705
 31
0.0
  0
LINE
  8
0
 62
     0
 10
108.121
 20
3.5705
 30
0.0
 11
107.909
 21
3.98805
 31
0.0
  0
LINE
  8
0
 62
     0
 10
107.909
 20
3.98805
 30
0.0
 11
107.578
 21
4.32015
 31
0.0
  0
LINE
  8
0
 62
     0
 10
107.578
 20
4.32015
 30
0.0
 11
107.159
 21
4.53376
 31
0.0
  0
LINE
  8
0
 62
     0
 10
107.159
 20
4.53376
 30
0.0
 11
106.696
 21
4.60678
 31
0.0
  0
LINE
  8
0
 62
     0
 10
106.696
 20
4.60678
 30
0.0
 11
106.232
 21
4.53376
 31
0.0
  0
LINE
  8
0
 62
     0
 10
209.833
 20
4.53376
 30
0.0
 11
209.413
 21
4.32015
 31
0.0
  0
LINE
  8
0
 62
     0
 10
209.413
 20
4.32015
 30
0.0
 11
209.083
 21
3.98805
 31
0.0
  0
LINE
  8
0
 62
     0
 10
209.083
 20
3.98805
 30
0.0
 11
208.869
 21
3.5705
 31
0.0
  0
LINE
  8
0
 62
     0
 10
208.869
 20
3.5705
 30
0.0
 11
208.795
 21
3.1061
 31
0.0
  0
LINE
  8
0
 62
     0
 10
208.795
 20
3.1061
 30
0.0
 11
208.869
 21
2.64308
 31
0.0
  0
LINE
  8
0
 62
     0
 10
208.869
 20
2.64308
 30
0.0
 11
209.083
 21
2.22553
 31
0.0
  0
LINE
  8
0
 62
     0
 10
209.083
 20
2.22553
 30
0.0
 11
209.413
 21
1.89343
 31
0.0
  0
LINE
  8
0
 62
     0
 10
209.413
 20
1.89343
 30
0.0
 11
209.833
 21
1.67983
 31
0.0
  0
LINE
  8
0
 62
     0
 10
209.833
 20
1.67983
 30
0.0
 11
210.295
 21
1.60679
 31
0.0
  0
LINE
  8
0
 62
     0
 10
210.295
 20
1.60679
 30
0.0
 11
210.76
 21
1.67983
 31
0.0
  0
LINE
  8
0
 62
     0
 10
210.76
 20
1.67983
 30
0.0
 11
211.177
 21
1.89343
 31
0.0
  0
LINE
  8
0
 62
     0
 10
211.177
 20
1.89343
 30
0.0
 11
211.51
 21
2.22553
 31
0.0
  0
LINE
  8
0
 62
     0
 10
211.51
 20
2.22553
 30
0.0
 11
211.723
 21
2.64308
 31
0.0
  0
LINE
  8
0
 62
     0
 10
211.723
 20
2.64308
 30
0.0
 11
211.795
 21
3.1061
 31
0.0
  0
LINE
  8
0
 62
     0
 10
211.795
 20
3.1061
 30
0.0
 11
211.723
 21
3.5705
 31
0.0
  0
LINE
  8
0
 62
     0
 10
211.723
 20
3.5705
 30
0.0
 11
211.51
 21
3.98805
 31
0.0
  0
LINE
  8
0
 62
     0
 10
211.51
 20
3.98805
 30
0.0
 11
211.177
 21
4.32015
 31
0.0
  0
LINE
  8
0
 62
     0
 10
211.177
 20
4.32015
 30
0.0
 11
210.76
 21
4.53376
 31
0.0
  0
LINE
  8
0
 62
     0
 10
210.76
 20
4.53376
 30
0.0
 11
210.295
 21
4.60678
 31
0.0
  0
LINE
  8
0
 62
     0
 10
210.295
 20
4.60678
 30
0.0
 11
209.833
 21
4.53376
 31
0.0
  0
LINE
  8
0
 62
     0
 10
313.432
 20
4.53376
 30
0.0
 11
313.014
 21
4.32015
 31
0.0
  0
LINE
  8
0
 62
     0
 10
313.014
 20
4.32015
 30
0.0
 11
312.682
 21
3.98805
 31
0.0
  0
LINE
  8
0
 62
     0
 10
312.682
 20
3.98805
 30
0.0
 11
312.47
 21
3.5705
 31
0.0
  0
LINE
  8
0
 62
     0
 10
312.47
 20
3.5705
 30
0.0
 11
312.397
 21
3.1061
 31
0.0
  0
LINE
  8
0
 62
     0
 10
312.397
 20
3.1061
 30
0.0
 11
312.47
 21
2.64308
 31
0.0
  0
LINE
  8
0
 62
     0
 10
312.47
 20
2.64308
 30
0.0
 11
312.682
 21
2.22553
 31
0.0
  0
LINE
  8
0
 62
     0
 10
312.682
 20
2.22553
 30
0.0
 11
313.014
 21
1.89343
 31
0.0
  0
LINE
  8
0
 62
     0
 10
313.014
 20
1.89343
 30
0.0
 11
313.432
 21
1.67983
 31
0.0
  0
LINE
  8
0
 62
     0
 10
313.432
 20
1.67983
 30
0.0
 11
313.896
 21
1.60679
 31
0.0
  0
LINE
  8
0
 62
     0
 10
313.896
 20
1.60679
 30
0.0
 11
314.36
 21
1.67983
 31
0.0
  0
LINE
  8
0
 62
     0
 10
314.36
 20
1.67983
 30
0.0
 11
314.777
 21
1.89343
 31
0.0
  0
LINE
  8
0
 62
     0
 10
314.777
 20
1.89343
 30
0.0
 11
315.109
 21
2.22553
 31
0.0
  0
LINE
  8
0
 62
     0
 10
315.109
 20
2.22553
 30
0.0
 11
315.323
 21
2.64308
 31
0.0
  0
LINE
  8
0
 62
     0
 10
315.323
 20
2.64308
 30
0.0
 11
315.397
 21
3.1061
 31
0.0
  0
LINE
  8
0
 62
     0
 10
315.397
 20
3.1061
 30
0.0
 11
315.323
 21
3.5705
 31
0.0
  0
LINE
  8
0
 62
     0
 10
315.323
 20
3.5705
 30
0.0
 11
315.109
 21
3.98805
 31
0.0
  0
LINE
  8
0
 62
     0
 10
315.109
 20
3.98805
 30
0.0
 11
314.777
 21
4.32015
 31
0.0
  0
LINE
  8
0
 62
     0
 10
314.777
 20
4.32015
 30
0.0
 11
314.36
 21
4.53376
 31
0.0
  0
LINE
  8
0
 62
     0
 10
314.36
 20
4.53376
 30
0.0
 11
313.896
 21
4.60678
 31
0.0
  0
LINE
  8
0
 62
     0
 10
313.896
 20
4.60678
 30
0.0
 11
313.432
 21
4.53376
 31
0.0
  0
LINE
  8
0
 62
     0
 10
294.371
 20
22.6329
 30
0.0
 11
294.371
 21
21.6324
 31
0.0
  0
LINE
  8
0
 62
     0
 10
294.371
 20
21.6324
 30
0.0
 11
293.57
 21
21.6324
 31
0.0
  0
LINE
  8
0
 62
     0
 10
293.57
 20
21.6324
 30
0.0
 11
293.57
 21
18.5319
 31
0.0
  0
LINE
  8
0
 62
     0
 10
293.57
 20
18.5319
 30
0.0
 11
294.371
 21
18.5319
 31
0.0
  0
LINE
  8
0
 62
     0
 10
294.371
 20
18.5319
 30
0.0
 11
294.371
 21
12.7317
 31
0.0
  0
LINE
  8
0
 62
     0
 10
294.371
 20
12.7317
 30
0.0
 11
293.57
 21
12.7317
 31
0.0
  0
LINE
  8
0
 62
     0
 10
293.57
 20
12.7317
 30
0.0
 11
293.57
 21
9.63249
 31
0.0
  0
LINE
  8
0
 62
     0
 10
293.57
 20
9.63249
 30
0.0
 11
294.371
 21
9.63249
 31
0.0
  0
LINE
  8
0
 62
     0
 10
294.371
 20
9.63249
 30
0.0
 11
294.371
 21
8.63205
 31
0.0
  0
LINE
  8
0
 62
     0
 10
294.371
 20
8.63205
 30
0.0
 11
308.37
 21
8.63205
 31
0.0
  0
LINE
  8
0
 62
     0
 10
308.37
 20
8.63205
 30
0.0
 11
308.37
 21
9.63249
 31
0.0
  0
LINE
  8
0
 62
     0
 10
308.37
 20
9.63249
 30
0.0
 11
309.171
 21
9.63249
 31
0.0
  0
LINE
  8
0
 62
     0
 10
309.171
 20
9.63249
 30
0.0
 11
309.171
 21
12.7317
 31
0.0
  0
LINE
  8
0
 62
     0
 10
309.171
 20
12.7317
 30
0.0
 11
308.37
 21
12.7317
 31
0.0
  0
LINE
  8
0
 62
     0
 10
308.37
 20
12.7317
 30
0.0
 11
308.37
 21
18.5319
 31
0.0
  0
LINE
  8
0
 62
     0
 10
308.37
 20
18.5319
 30
0.0
 11
309.171
 21
18.5319
 31
0.0
  0
LINE
  8
0
 62
     0
 10
309.171
 20
18.5319
 30
0.0
 11
309.171
 21
21.6324
 31
0.0
  0
LINE
  8
0
 62
     0
 10
309.171
 20
21.6324
 30
0.0
 11
308.37
 21
21.6324
 31
0.0
  0
LINE
  8
0
 62
     0
 10
308.37
 20
21.6324
 30
0.0
 11
308.37
 21
22.6329
 31
0.0
  0
LINE
  8
0
 62
     0
 10
308.37
 20
22.6329
 30
0.0
 11
294.371
 21
22.6329
 31
0.0
  0
LINE
  8
0
 62
     0
 10
275.321
 20
22.6329
 30
0.0
 11
275.321
 21
21.6324
 31
0.0
  0
LINE
  8
0
 62
     0
 10
275.321
 20
21.6324
 30
0.0
 11
274.52
 21
21.6324
 31
0.0
  0
LINE
  8
0
 62
     0
 10
274.52
 20
21.6324
 30
0.0
 11
274.52
 21
18.5319
 31
0.0
  0
LINE
  8
0
 62
     0
 10
274.52
 20
18.5319
 30
0.0
 11
275.321
 21
18.5319
 31
0.0
  0
LINE
  8
0
 62
     0
 10
275.321
 20
18.5319
 30
0.0
 11
275.321
 21
12.7317
 31
0.0
  0
LINE
  8
0
 62
     0
 10
275.321
 20
12.7317
 30
0.0
 11
274.52
 21
12.7317
 31
0.0
  0
LINE
  8
0
 62
     0
 10
274.52
 20
12.7317
 30
0.0
 11
274.52
 21
9.63249
 31
0.0
  0
LINE
  8
0
 62
     0
 10
274.52
 20
9.63249
 30
0.0
 11
275.321
 21
9.63249
 31
0.0
  0
LINE
  8
0
 62
     0
 10
275.321
 20
9.63249
 30
0.0
 11
275.321
 21
8.63205
 31
0.0
  0
LINE
  8
0
 62
     0
 10
275.321
 20
8.63205
 30
0.0
 11
289.32
 21
8.63205
 31
0.0
  0
LINE
  8
0
 62
     0
 10
289.32
 20
8.63205
 30
0.0
 11
289.32
 21
9.63249
 31
0.0
  0
LINE
  8
0
 62
     0
 10
289.32
 20
9.63249
 30
0.0
 11
290.121
 21
9.63249
 31
0.0
  0
LINE
  8
0
 62
     0
 10
290.121
 20
9.63249
 30
0.0
 11
290.121
 21
12.7317
 31
0.0
  0
LINE
  8
0
 62
     0
 10
290.121
 20
12.7317
 30
0.0
 11
289.32
 21
12.7317
 31
0.0
  0
LINE
  8
0
 62
     0
 10
289.32
 20
12.7317
 30
0.0
 11
289.32
 21
18.5319
 31
0.0
  0
LINE
  8
0
 62
     0
 10
289.32
 20
18.5319
 30
0.0
 11
290.121
 21
18.5319
 31
0.0
  0
LINE
  8
0
 62
     0
 10
290.121
 20
18.5319
 30
0.0
 11
290.121
 21
21.6324
 31
0.0
  0
LINE
  8
0
 62
     0
 10
290.121
 20
21.6324
 30
0.0
 11
289.32
 21
21.6324
 31
0.0
  0
LINE
  8
0
 62
     0
 10
289.32
 20
21.6324
 30
0.0
 11
289.32
 21
22.6329
 31
0.0
  0
LINE
  8
0
 62
     0
 10
289.32
 20
22.6329
 30
0.0
 11
275.321
 21
22.6329
 31
0.0
  0
LINE
  8
0
 62
     0
 10
256.271
 20
22.6329
 30
0.0
 11
256.271
 21
21.6324
 31
0.0
  0
LINE
  8
0
 62
     0
 10
256.271
 20
21.6324
 30
0.0
 11
255.47
 21
21.6324
 31
0.0
  0
LINE
  8
0
 62
     0
 10
255.47
 20
21.6324
 30
0.0
 11
255.47
 21
18.5319
 31
0.0
  0
LINE
  8
0
 62
     0
 10
255.47
 20
18.5319
 30
0.0
 11
256.271
 21
18.5319
 31
0.0
  0
LINE
  8
0
 62
     0
 10
256.271
 20
18.5319
 30
0.0
 11
256.271
 21
12.7317
 31
0.0
  0
LINE
  8
0
 62
     0
 10
256.271
 20
12.7317
 30
0.0
 11
255.47
 21
12.7317
 31
0.0
  0
LINE
  8
0
 62
     0
 10
255.47
 20
12.7317
 30
0.0
 11
255.47
 21
9.63249
 31
0.0
  0
LINE
  8
0
 62
     0
 10
255.47
 20
9.63249
 30
0.0
 11
256.271
 21
9.63249
 31
0.0
  0
LINE
  8
0
 62
     0
 10
256.271
 20
9.63249
 30
0.0
 11
256.271
 21
8.63205
 31
0.0
  0
LINE
  8
0
 62
     0
 10
256.271
 20
8.63205
 30
0.0
 11
270.27
 21
8.63205
 31
0.0
  0
LINE
  8
0
 62
     0
 10
270.27
 20
8.63205
 30
0.0
 11
270.27
 21
9.63249
 31
0.0
  0
LINE
  8
0
 62
     0
 10
270.27
 20
9.63249
 30
0.0
 11
271.071
 21
9.63249
 31
0.0
  0
LINE
  8
0
 62
     0
 10
271.071
 20
9.63249
 30
0.0
 11
271.071
 21
12.7317
 31
0.0
  0
LINE
  8
0
 62
     0
 10
271.071
 20
12.7317
 30
0.0
 11
270.27
 21
12.7317
 31
0.0
  0
LINE
  8
0
 62
     0
 10
270.27
 20
12.7317
 30
0.0
 11
270.27
 21
18.5319
 31
0.0
  0
LINE
  8
0
 62
     0
 10
270.27
 20
18.5319
 30
0.0
 11
271.071
 21
18.5319
 31
0.0
  0
LINE
  8
0
 62
     0
 10
271.071
 20
18.5319
 30
0.0
 11
271.071
 21
21.6324
 31
0.0
  0
LINE
  8
0
 62
     0
 10
271.071
 20
21.6324
 30
0.0
 11
270.27
 21
21.6324
 31
0.0
  0
LINE
  8
0
 62
     0
 10
270.27
 20
21.6324
 30
0.0
 11
270.27
 21
22.6329
 31
0.0
  0
LINE
  8
0
 62
     0
 10
270.27
 20
22.6329
 30
0.0
 11
256.271
 21
22.6329
 31
0.0
  0
LINE
  8
0
 62
     0
 10
237.221
 20
22.6329
 30
0.0
 11
237.221
 21
21.6324
 31
0.0
  0
LINE
  8
0
 62
     0
 10
237.221
 20
21.6324
 30
0.0
 11
236.42
 21
21.6324
 31
0.0
  0
LINE
  8
0
 62
     0
 10
236.42
 20
21.6324
 30
0.0
 11
236.42
 21
18.5319
 31
0.0
  0
LINE
  8
0
 62
     0
 10
236.42
 20
18.5319
 30
0.0
 11
237.221
 21
18.5319
 31
0.0
  0
LINE
  8
0
 62
     0
 10
237.221
 20
18.5319
 30
0.0
 11
237.221
 21
12.7317
 31
0.0
  0
LINE
  8
0
 62
     0
 10
237.221
 20
12.7317
 30
0.0
 11
236.42
 21
12.7317
 31
0.0
  0
LINE
  8
0
 62
     0
 10
236.42
 20
12.7317
 30
0.0
 11
236.42
 21
9.63249
 31
0.0
  0
LINE
  8
0
 62
     0
 10
236.42
 20
9.63249
 30
0.0
 11
237.221
 21
9.63249
 31
0.0
  0
LINE
  8
0
 62
     0
 10
237.221
 20
9.63249
 30
0.0
 11
237.221
 21
8.63205
 31
0.0
  0
LINE
  8
0
 62
     0
 10
237.221
 20
8.63205
 30
0.0
 11
251.22
 21
8.63205
 31
0.0
  0
LINE
  8
0
 62
     0
 10
251.22
 20
8.63205
 30
0.0
 11
251.22
 21
9.63249
 31
0.0
  0
LINE
  8
0
 62
     0
 10
251.22
 20
9.63249
 30
0.0
 11
252.021
 21
9.63249
 31
0.0
  0
LINE
  8
0
 62
     0
 10
252.021
 20
9.63249
 30
0.0
 11
252.021
 21
12.7317
 31
0.0
  0
LINE
  8
0
 62
     0
 10
252.021
 20
12.7317
 30
0.0
 11
251.22
 21
12.7317
 31
0.0
  0
LINE
  8
0
 62
     0
 10
251.22
 20
12.7317
 30
0.0
 11
251.22
 21
18.5319
 31
0.0
  0
LINE
  8
0
 62
     0
 10
251.22
 20
18.5319
 30
0.0
 11
252.021
 21
18.5319
 31
0.0
  0
LINE
  8
0
 62
     0
 10
252.021
 20
18.5319
 30
0.0
 11
252.021
 21
21.6324
 31
0.0
  0
LINE
  8
0
 62
     0
 10
252.021
 20
21.6324
 30
0.0
 11
251.22
 21
21.6324
 31
0.0
  0
LINE
  8
0
 62
     0
 10
251.22
 20
21.6324
 30
0.0
 11
251.22
 21
22.6329
 31
0.0
  0
LINE
  8
0
 62
     0
 10
251.22
 20
22.6329
 30
0.0
 11
237.221
 21
22.6329
 31
0.0
  0
LINE
  8
0
 62
     0
 10
218.171
 20
22.6329
 30
0.0
 11
218.171
 21
21.6324
 31
0.0
  0
LINE
  8
0
 62
     0
 10
218.171
 20
21.6324
 30
0.0
 11
217.37
 21
21.6324
 31
0.0
  0
LINE
  8
0
 62
     0
 10
217.37
 20
21.6324
 30
0.0
 11
217.37
 21
18.5319
 31
0.0
  0
LINE
  8
0
 62
     0
 10
217.37
 20
18.5319
 30
0.0
 11
218.171
 21
18.5319
 31
0.0
  0
LINE
  8
0
 62
     0
 10
218.171
 20
18.5319
 30
0.0
 11
218.171
 21
12.7317
 31
0.0
  0
LINE
  8
0
 62
     0
 10
218.171
 20
12.7317
 30
0.0
 11
217.37
 21
12.7317
 31
0.0
  0
LINE
  8
0
 62
     0
 10
217.37
 20
12.7317
 30
0.0
 11
217.37
 21
9.63249
 31
0.0
  0
LINE
  8
0
 62
     0
 10
217.37
 20
9.63249
 30
0.0
 11
218.171
 21
9.63249
 31
0.0
  0
LINE
  8
0
 62
     0
 10
218.171
 20
9.63249
 30
0.0
 11
218.171
 21
8.63205
 31
0.0
  0
LINE
  8
0
 62
     0
 10
218.171
 20
8.63205
 30
0.0
 11
232.17
 21
8.63205
 31
0.0
  0
LINE
  8
0
 62
     0
 10
232.17
 20
8.63205
 30
0.0
 11
232.17
 21
9.63249
 31
0.0
  0
LINE
  8
0
 62
     0
 10
232.17
 20
9.63249
 30
0.0
 11
232.971
 21
9.63249
 31
0.0
  0
LINE
  8
0
 62
     0
 10
232.971
 20
9.63249
 30
0.0
 11
232.971
 21
12.7317
 31
0.0
  0
LINE
  8
0
 62
     0
 10
232.971
 20
12.7317
 30
0.0
 11
232.17
 21
12.7317
 31
0.0
  0
LINE
  8
0
 62
     0
 10
232.17
 20
12.7317
 30
0.0
 11
232.17
 21
18.5319
 31
0.0
  0
LINE
  8
0
 62
     0
 10
232.17
 20
18.5319
 30
0.0
 11
232.971
 21
18.5319
 31
0.0
  0
LINE
  8
0
 62
     0
 10
232.971
 20
18.5319
 30
0.0
 11
232.971
 21
21.6324
 31
0.0
  0
LINE
  8
0
 62
     0
 10
232.971
 20
21.6324
 30
0.0
 11
232.17
 21
21.6324
 31
0.0
  0
LINE
  8
0
 62
     0
 10
232.17
 20
21.6324
 30
0.0
 11
232.17
 21
22.6329
 31
0.0
  0
LINE
  8
0
 62
     0
 10
232.17
 20
22.6329
 30
0.0
 11
218.171
 21
22.6329
 31
0.0
  0
LINE
  8
0
 62
     0
 10
199.121
 20
22.6329
 30
0.0
 11
199.121
 21
21.6324
 31
0.0
  0
LINE
  8
0
 62
     0
 10
199.121
 20
21.6324
 30
0.0
 11
198.32
 21
21.6324
 31
0.0
  0
LINE
  8
0
 62
     0
 10
198.32
 20
21.6324
 30
0.0
 11
198.32
 21
18.5319
 31
0.0
  0
LINE
  8
0
 62
     0
 10
198.32
 20
18.5319
 30
0.0
 11
199.121
 21
18.5319
 31
0.0
  0
LINE
  8
0
 62
     0
 10
199.121
 20
18.5319
 30
0.0
 11
199.121
 21
12.7317
 31
0.0
  0
LINE
  8
0
 62
     0
 10
199.121
 20
12.7317
 30
0.0
 11
198.32
 21
12.7317
 31
0.0
  0
LINE
  8
0
 62
     0
 10
198.32
 20
12.7317
 30
0.0
 11
198.32
 21
9.63249
 31
0.0
  0
LINE
  8
0
 62
     0
 10
198.32
 20
9.63249
 30
0.0
 11
199.121
 21
9.63249
 31
0.0
  0
LINE
  8
0
 62
     0
 10
199.121
 20
9.63249
 30
0.0
 11
199.121
 21
8.63205
 31
0.0
  0
LINE
  8
0
 62
     0
 10
199.121
 20
8.63205
 30
0.0
 11
213.12
 21
8.63205
 31
0.0
  0
LINE
  8
0
 62
     0
 10
213.12
 20
8.63205
 30
0.0
 11
213.12
 21
9.63249
 31
0.0
  0
LINE
  8
0
 62
     0
 10
213.12
 20
9.63249
 30
0.0
 11
213.921
 21
9.63249
 31
0.0
  0
LINE
  8
0
 62
     0
 10
213.921
 20
9.63249
 30
0.0
 11
213.921
 21
12.7317
 31
0.0
  0
LINE
  8
0
 62
     0
 10
213.921
 20
12.7317
 30
0.0
 11
213.12
 21
12.7317
 31
0.0
  0
LINE
  8
0
 62
     0
 10
213.12
 20
12.7317
 30
0.0
 11
213.12
 21
18.5319
 31
0.0
  0
LINE
  8
0
 62
     0
 10
213.12
 20
18.5319
 30
0.0
 11
213.921
 21
18.5319
 31
0.0
  0
LINE
  8
0
 62
     0
 10
213.921
 20
18.5319
 30
0.0
 11
213.921
 21
21.6324
 31
0.0
  0
LINE
  8
0
 62
     0
 10
213.921
 20
21.6324
 30
0.0
 11
213.12
 21
21.6324
 31
0.0
  0
LINE
  8
0
 62
     0
 10
213.12
 20
21.6324
 30
0.0
 11
213.12
 21
22.6329
 31
0.0
  0
LINE
  8
0
 62
     0
 10
213.12
 20
22.6329
 30
0.0
 11
199.121
 21
22.6329
 31
0.0
  0
LINE
  8
0
 62
     0
 10
85.4135
 20
23.3826
 30
0.0
 11
85.4135
 21
22.4028
 31
0.0
  0
LINE
  8
0
 62
     0
 10
85.4135
 20
22.4028
 30
0.0
 11
83.6884
 21
22.4028
 31
0.0
  0
LINE
  8
0
 62
     0
 10
83.6884
 20
22.4028
 30
0.0
 11
83.6884
 21
16.1327
 31
0.0
  0
LINE
  8
0
 62
     0
 10
83.6884
 20
16.1327
 30
0.0
 11
82.8629
 21
16.1327
 31
0.0
  0
LINE
  8
0
 62
     0
 10
82.8629
 20
16.1327
 30
0.0
 11
82.8629
 21
13.3325
 31
0.0
  0
LINE
  8
0
 62
     0
 10
82.8629
 20
13.3325
 30
0.0
 11
83.6884
 21
13.3325
 31
0.0
  0
LINE
  8
0
 62
     0
 10
83.6884
 20
13.3325
 30
0.0
 11
83.6884
 21
10.1024
 31
0.0
  0
LINE
  8
0
 62
     0
 10
83.6884
 20
10.1024
 30
0.0
 11
85.4135
 21
10.1024
 31
0.0
  0
LINE
  8
0
 62
     0
 10
85.4135
 20
10.1024
 30
0.0
 11
85.4135
 21
9.18185
 31
0.0
  0
LINE
  8
0
 62
     0
 10
85.4135
 20
9.18185
 30
0.0
 11
88.7141
 21
9.18185
 31
0.0
  0
LINE
  8
0
 62
     0
 10
88.7141
 20
9.18185
 30
0.0
 11
88.7141
 21
10.1024
 31
0.0
  0
LINE
  8
0
 62
     0
 10
88.7141
 20
10.1024
 30
0.0
 11
90.4378
 21
10.1024
 31
0.0
  0
LINE
  8
0
 62
     0
 10
90.4378
 20
10.1024
 30
0.0
 11
90.4378
 21
13.3325
 31
0.0
  0
LINE
  8
0
 62
     0
 10
90.4378
 20
13.3325
 30
0.0
 11
130.064
 21
13.3325
 31
0.0
  0
LINE
  8
0
 62
     0
 10
130.064
 20
13.3325
 30
0.0
 11
130.064
 21
12.7317
 31
0.0
  0
LINE
  8
0
 62
     0
 10
130.064
 20
12.7317
 30
0.0
 11
129.264
 21
12.7317
 31
0.0
  0
LINE
  8
0
 62
     0
 10
129.264
 20
12.7317
 30
0.0
 11
129.264
 21
9.63249
 31
0.0
  0
LINE
  8
0
 62
     0
 10
129.264
 20
9.63249
 30
0.0
 11
130.064
 21
9.63249
 31
0.0
  0
LINE
  8
0
 62
     0
 10
130.064
 20
9.63249
 30
0.0
 11
130.064
 21
8.63205
 31
0.0
  0
LINE
  8
0
 62
     0
 10
130.064
 20
8.63205
 30
0.0
 11
144.063
 21
8.63205
 31
0.0
  0
LINE
  8
0
 62
     0
 10
144.063
 20
8.63205
 30
0.0
 11
144.063
 21
9.63249
 31
0.0
  0
LINE
  8
0
 62
     0
 10
144.063
 20
9.63249
 30
0.0
 11
144.864
 21
9.63249
 31
0.0
  0
LINE
  8
0
 62
     0
 10
144.864
 20
9.63249
 30
0.0
 11
144.864
 21
12.7317
 31
0.0
  0
LINE
  8
0
 62
     0
 10
144.864
 20
12.7317
 30
0.0
 11
144.063
 21
12.7317
 31
0.0
  0
LINE
  8
0
 62
     0
 10
144.063
 20
12.7317
 30
0.0
 11
144.063
 21
13.3325
 31
0.0
  0
LINE
  8
0
 62
     0
 10
144.063
 20
13.3325
 30
0.0
 11
183.688
 21
13.3325
 31
0.0
  0
LINE
  8
0
 62
     0
 10
183.688
 20
13.3325
 30
0.0
 11
183.688
 21
10.1024
 31
0.0
  0
LINE
  8
0
 62
     0
 10
183.688
 20
10.1024
 30
0.0
 11
185.414
 21
10.1024
 31
0.0
  0
LINE
  8
0
 62
     0
 10
185.414
 20
10.1024
 30
0.0
 11
185.414
 21
9.18185
 31
0.0
  0
LINE
  8
0
 62
     0
 10
185.414
 20
9.18185
 30
0.0
 11
188.714
 21
9.18185
 31
0.0
  0
LINE
  8
0
 62
     0
 10
188.714
 20
9.18185
 30
0.0
 11
188.714
 21
10.1024
 31
0.0
  0
LINE
  8
0
 62
     0
 10
188.714
 20
10.1024
 30
0.0
 11
190.438
 21
10.1024
 31
0.0
  0
LINE
  8
0
 62
     0
 10
190.438
 20
10.1024
 30
0.0
 11
190.438
 21
13.3325
 31
0.0
  0
LINE
  8
0
 62
     0
 10
190.438
 20
13.3325
 30
0.0
 11
191.263
 21
13.3325
 31
0.0
  0
LINE
  8
0
 62
     0
 10
191.263
 20
13.3325
 30
0.0
 11
191.263
 21
16.1327
 31
0.0
  0
LINE
  8
0
 62
     0
 10
191.263
 20
16.1327
 30
0.0
 11
190.438
 21
16.1327
 31
0.0
  0
LINE
  8
0
 62
     0
 10
190.438
 20
16.1327
 30
0.0
 11
190.438
 21
22.4028
 31
0.0
  0
LINE
  8
0
 62
     0
 10
190.438
 20
22.4028
 30
0.0
 11
188.714
 21
22.4028
 31
0.0
  0
LINE
  8
0
 62
     0
 10
188.714
 20
22.4028
 30
0.0
 11
188.714
 21
23.3826
 31
0.0
  0
LINE
  8
0
 62
     0
 10
188.714
 20
23.3826
 30
0.0
 11
185.414
 21
23.3826
 31
0.0
  0
LINE
  8
0
 62
     0
 10
185.414
 20
23.3826
 30
0.0
 11
185.414
 21
22.4028
 31
0.0
  0
LINE
  8
0
 62
     0
 10
185.414
 20
22.4028
 30
0.0
 11
183.688
 21
22.4028
 31
0.0
  0
LINE
  8
0
 62
     0
 10
183.688
 20
22.4028
 30
0.0
 11
183.688
 21
17.9324
 31
0.0
  0
LINE
  8
0
 62
     0
 10
183.688
 20
17.9324
 30
0.0
 11
144.063
 21
17.9324
 31
0.0
  0
LINE
  8
0
 62
     0
 10
144.063
 20
17.9324
 30
0.0
 11
144.063
 21
18.5319
 31
0.0
  0
LINE
  8
0
 62
     0
 10
144.063
 20
18.5319
 30
0.0
 11
144.864
 21
18.5319
 31
0.0
  0
LINE
  8
0
 62
     0
 10
144.864
 20
18.5319
 30
0.0
 11
144.864
 21
21.6324
 31
0.0
  0
LINE
  8
0
 62
     0
 10
144.864
 20
21.6324
 30
0.0
 11
144.063
 21
21.6324
 31
0.0
  0
LINE
  8
0
 62
     0
 10
144.063
 20
21.6324
 30
0.0
 11
144.063
 21
22.6329
 31
0.0
  0
LINE
  8
0
 62
     0
 10
144.063
 20
22.6329
 30
0.0
 11
130.064
 21
22.6329
 31
0.0
  0
LINE
  8
0
 62
     0
 10
130.064
 20
22.6329
 30
0.0
 11
130.064
 21
21.6324
 31
0.0
  0
LINE
  8
0
 62
     0
 10
130.064
 20
21.6324
 30
0.0
 11
129.264
 21
21.6324
 31
0.0
  0
LINE
  8
0
 62
     0
 10
129.264
 20
21.6324
 30
0.0
 11
129.264
 21
18.5319
 31
0.0
  0
LINE
  8
0
 62
     0
 10
129.264
 20
18.5319
 30
0.0
 11
130.064
 21
18.5319
 31
0.0
  0
LINE
  8
0
 62
     0
 10
130.064
 20
18.5319
 30
0.0
 11
130.064
 21
17.9324
 31
0.0
  0
LINE
  8
0
 62
     0
 10
130.064
 20
17.9324
 30
0.0
 11
90.4378
 21
17.9324
 31
0.0
  0
LINE
  8
0
 62
     0
 10
90.4378
 20
17.9324
 30
0.0
 11
90.4378
 21
22.4028
 31
0.0
  0
LINE
  8
0
 62
     0
 10
90.4378
 20
22.4028
 30
0.0
 11
88.7141
 21
22.4028
 31
0.0
  0
LINE
  8
0
 62
     0
 10
88.7141
 20
22.4028
 30
0.0
 11
88.7141
 21
23.3826
 31
0.0
  0
LINE
  8
0
 62
     0
 10
88.7141
 20
23.3826
 30
0.0
 11
85.4135
 21
23.3826
 31
0.0
  0
LINE
  8
0
 62
     0
 10
58.626
 20
22.6329
 30
0.0
 11
58.626
 21
21.6324
 31
0.0
  0
LINE
  8
0
 62
     0
 10
58.626
 20
21.6324
 30
0.0
 11
57.8266
 21
21.6324
 31
0.0
  0
LINE
  8
0
 62
     0
 10
57.8266
 20
21.6324
 30
0.0
 11
57.8266
 21
18.5319
 31
0.0
  0
LINE
  8
0
 62
     0
 10
57.8266
 20
18.5319
 30
0.0
 11
58.626
 21
18.5319
 31
0.0
  0
LINE
  8
0
 62
     0
 10
58.626
 20
18.5319
 30
0.0
 11
58.626
 21
12.7317
 31
0.0
  0
LINE
  8
0
 62
     0
 10
58.626
 20
12.7317
 30
0.0
 11
57.8266
 21
12.7317
 31
0.0
  0
LINE
  8
0
 62
     0
 10
57.8266
 20
12.7317
 30
0.0
 11
57.8266
 21
9.63249
 31
0.0
  0
LINE
  8
0
 62
     0
 10
57.8266
 20
9.63249
 30
0.0
 11
58.626
 21
9.63249
 31
0.0
  0
LINE
  8
0
 62
     0
 10
58.626
 20
9.63249
 30
0.0
 11
58.626
 21
8.63205
 31
0.0
  0
LINE
  8
0
 62
     0
 10
58.626
 20
8.63205
 30
0.0
 11
72.6267
 21
8.63205
 31
0.0
  0
LINE
  8
0
 62
     0
 10
72.6267
 20
8.63205
 30
0.0
 11
72.6267
 21
9.63249
 31
0.0
  0
LINE
  8
0
 62
     0
 10
72.6267
 20
9.63249
 30
0.0
 11
73.4261
 21
9.63249
 31
0.0
  0
LINE
  8
0
 62
     0
 10
73.4261
 20
9.63249
 30
0.0
 11
73.4261
 21
12.7317
 31
0.0
  0
LINE
  8
0
 62
     0
 10
73.4261
 20
12.7317
 30
0.0
 11
72.6267
 21
12.7317
 31
0.0
  0
LINE
  8
0
 62
     0
 10
72.6267
 20
12.7317
 30
0.0
 11
72.6267
 21
18.5319
 31
0.0
  0
LINE
  8
0
 62
     0
 10
72.6267
 20
18.5319
 30
0.0
 11
73.4261
 21
18.5319
 31
0.0
  0
LINE
  8
0
 62
     0
 10
73.4261
 20
18.5319
 30
0.0
 11
73.4261
 21
21.6324
 31
0.0
  0
LINE
  8
0
 62
     0
 10
73.4261
 20
21.6324
 30
0.0
 11
72.6267
 21
21.6324
 31
0.0
  0
LINE
  8
0
 62
     0
 10
72.6267
 20
21.6324
 30
0.0
 11
72.6267
 21
22.6329
 31
0.0
  0
LINE
  8
0
 62
     0
 10
72.6267
 20
22.6329
 30
0.0
 11
58.626
 21
22.6329
 31
0.0
  0
LINE
  8
0
 62
     0
 10
34.8134
 20
22.6329
 30
0.0
 11
34.8134
 21
21.6324
 31
0.0
  0
LINE
  8
0
 62
     0
 10
34.8134
 20
21.6324
 30
0.0
 11
34.0141
 21
21.6324
 31
0.0
  0
LINE
  8
0
 62
     0
 10
34.0141
 20
21.6324
 30
0.0
 11
34.0141
 21
18.5319
 31
0.0
  0
LINE
  8
0
 62
     0
 10
34.0141
 20
18.5319
 30
0.0
 11
34.8134
 21
18.5319
 31
0.0
  0
LINE
  8
0
 62
     0
 10
34.8134
 20
18.5319
 30
0.0
 11
34.8134
 21
12.7317
 31
0.0
  0
LINE
  8
0
 62
     0
 10
34.8134
 20
12.7317
 30
0.0
 11
34.0141
 21
12.7317
 31
0.0
  0
LINE
  8
0
 62
     0
 10
34.0141
 20
12.7317
 30
0.0
 11
34.0141
 21
9.63249
 31
0.0
  0
LINE
  8
0
 62
     0
 10
34.0141
 20
9.63249
 30
0.0
 11
34.8134
 21
9.63249
 31
0.0
  0
LINE
  8
0
 62
     0
 10
34.8134
 20
9.63249
 30
0.0
 11
34.8134
 21
8.63205
 31
0.0
  0
LINE
  8
0
 62
     0
 10
34.8134
 20
8.63205
 30
0.0
 11
48.8128
 21
8.63205
 31
0.0
  0
LINE
  8
0
 62
     0
 10
48.8128
 20
8.63205
 30
0.0
 11
48.8128
 21
9.63249
 31
0.0
  0
LINE
  8
0
 62
     0
 10
48.8128
 20
9.63249
 30
0.0
 11
49.6136
 21
9.63249
 31
0.0
  0
LINE
  8
0
 62
     0
 10
49.6136
 20
9.63249
 30
0.0
 11
49.6136
 21
12.7317
 31
0.0
  0
LINE
  8
0
 62
     0
 10
49.6136
 20
12.7317
 30
0.0
 11
48.8128
 21
12.7317
 31
0.0
  0
LINE
  8
0
 62
     0
 10
48.8128
 20
12.7317
 30
0.0
 11
48.8128
 21
18.5319
 31
0.0
  0
LINE
  8
0
 62
     0
 10
48.8128
 20
18.5319
 30
0.0
 11
49.6136
 21
18.5319
 31
0.0
  0
LINE
  8
0
 62
     0
 10
49.6136
 20
18.5319
 30
0.0
 11
49.6136
 21
21.6324
 31
0.0
  0
LINE
  8
0
 62
     0
 10
49.6136
 20
21.6324
 30
0.0
 11
48.8128
 21
21.6324
 31
0.0
  0
LINE
  8
0
 62
     0
 10
48.8128
 20
21.6324
 30
0.0
 11
48.8128
 21
22.6329
 31
0.0
  0
LINE
  8
0
 62
     0
 10
48.8128
 20
22.6329
 30
0.0
 11
34.8134
 21
22.6329
 31
0.0
  0
LINE
  8
0
 62
     0
 10
11.0009
 20
22.6329
 30
0.0
 11
11.0009
 21
21.6324
 31
0.0
  0
LINE
  8
0
 62
     0
 10
11.0009
 20
21.6324
 30
0.0
 11
10.2016
 21
21.6324
 31
0.0
  0
LINE
  8
0
 62
     0
 10
10.2016
 20
21.6324
 30
0.0
 11
10.2016
 21
18.5319
 31
0.0
  0
LINE
  8
0
 62
     0
 10
10.2016
 20
18.5319
 30
0.0
 11
11.0009
 21
18.5319
 31
0.0
  0
LINE
  8
0
 62
     0
 10
11.0009
 20
18.5319
 30
0.0
 11
11.0009
 21
12.7317
 31
0.0
  0
LINE
  8
0
 62
     0
 10
11.0009
 20
12.7317
 30
0.0
 11
10.2016
 21
12.7317
 31
0.0
  0
LINE
  8
0
 62
     0
 10
10.2016
 20
12.7317
 30
0.0
 11
10.2016
 21
9.63249
 31
0.0
  0
LINE
  8
0
 62
     0
 10
10.2016
 20
9.63249
 30
0.0
 11
11.0009
 21
9.63249
 31
0.0
  0
LINE
  8
0
 62
     0
 10
11.0009
 20
9.63249
 30
0.0
 11
11.0009
 21
8.63205
 31
0.0
  0
LINE
  8
0
 62
     0
 10
11.0009
 20
8.63205
 30
0.0
 11
25.0017
 21
8.63205
 31
0.0
  0
LINE
  8
0
 62
     0
 10
25.0017
 20
8.63205
 30
0.0
 11
25.0017
 21
9.63249
 31
0.0
  0
LINE
  8
0
 62
     0
 10
25.0017
 20
9.63249
 30
0.0
 11
25.801
 21
9.63249
 31
0.0
  0
LINE
  8
0
 62
     0
 10
25.801
 20
9.63249
 30
0.0
 11
25.801
 21
12.7317
 31
0.0
  0
LINE
  8
0
 62
     0
 10
25.801
 20
12.7317
 30
0.0
 11
25.0017
 21
12.7317
 31
0.0
  0
LINE
  8
0
 62
     0
 10
25.0017
 20
12.7317
 30
0.0
 11
25.0017
 21
18.5319
 31
0.0
  0
LINE
  8
0
 62
     0
 10
25.0017
 20
18.5319
 30
0.0
 11
25.801
 21
18.5319
 31
0.0
  0
LINE
  8
0
 62
     0
 10
25.801
 20
18.5319
 30
0.0
 11
25.801
 21
21.6324
 31
0.0
  0
LINE
  8
0
 62
     0
 10
25.801
 20
21.6324
 30
0.0
 11
25.0017
 21
21.6324
 31
0.0
  0
LINE
  8
0
 62
     0
 10
25.0017
 20
21.6324
 30
0.0
 11
25.0017
 21
22.6329
 31
0.0
  0
LINE
  8
0
 62
     0
 10
25.0017
 20
22.6329
 30
0.0
 11
11.0009
 21
22.6329
 31
0.0
  0
LINE
  8
0
 62
     0
 10
20.5259
 20
41.6828
 30
0.0
 11
20.5259
 21
40.6823
 31
0.0
  0
LINE
  8
0
 62
     0
 10
20.5259
 20
40.6823
 30
0.0
 11
19.7266
 21
40.6823
 31
0.0
  0
LINE
  8
0
 62
     0
 10
19.7266
 20
40.6823
 30
0.0
 11
19.7266
 21
37.5818
 31
0.0
  0
LINE
  8
0
 62
     0
 10
19.7266
 20
37.5818
 30
0.0
 11
20.5259
 21
37.5818
 31
0.0
  0
LINE
  8
0
 62
     0
 10
20.5259
 20
37.5818
 30
0.0
 11
20.5259
 21
36.9824
 31
0.0
  0
LINE
  8
0
 62
     0
 10
20.5259
 20
36.9824
 30
0.0
 11
19.0018
 21
36.9824
 31
0.0
  0
LINE
  8
0
 62
     0
 10
19.0018
 20
36.9824
 30
0.0
 11
19.0018
 21
40.2124
 31
0.0
  0
LINE
  8
0
 62
     0
 10
19.0018
 20
40.2124
 30
0.0
 11
17.2765
 21
40.2124
 31
0.0
  0
LINE
  8
0
 62
     0
 10
17.2765
 20
40.2124
 30
0.0
 11
17.2765
 21
41.1318
 31
0.0
  0
LINE
  8
0
 62
     0
 10
17.2765
 20
41.1318
 30
0.0
 11
13.9761
 21
41.1318
 31
0.0
  0
LINE
  8
0
 62
     0
 10
13.9761
 20
41.1318
 30
0.0
 11
13.9761
 21
40.2124
 31
0.0
  0
LINE
  8
0
 62
     0
 10
13.9761
 20
40.2124
 30
0.0
 11
12.2521
 21
40.2124
 31
0.0
  0
LINE
  8
0
 62
     0
 10
12.2521
 20
40.2124
 30
0.0
 11
12.2521
 21
36.9824
 31
0.0
  0
LINE
  8
0
 62
     0
 10
12.2521
 20
36.9824
 30
0.0
 11
11.4267
 21
36.9824
 31
0.0
  0
LINE
  8
0
 62
     0
 10
11.4267
 20
36.9824
 30
0.0
 11
11.4267
 21
34.1822
 31
0.0
  0
LINE
  8
0
 62
     0
 10
11.4267
 20
34.1822
 30
0.0
 11
12.2521
 21
34.1822
 31
0.0
  0
LINE
  8
0
 62
     0
 10
12.2521
 20
34.1822
 30
0.0
 11
12.2521
 21
27.9122
 31
0.0
  0
LINE
  8
0
 62
     0
 10
12.2521
 20
27.9122
 30
0.0
 11
13.9761
 21
27.9122
 31
0.0
  0
LINE
  8
0
 62
     0
 10
13.9761
 20
27.9122
 30
0.0
 11
13.9761
 21
26.9324
 31
0.0
  0
LINE
  8
0
 62
     0
 10
13.9761
 20
26.9324
 30
0.0
 11
17.2765
 21
26.9324
 31
0.0
  0
LINE
  8
0
 62
     0
 10
17.2765
 20
26.9324
 30
0.0
 11
17.2765
 21
27.9122
 31
0.0
  0
LINE
  8
0
 62
     0
 10
17.2765
 20
27.9122
 30
0.0
 11
19.0018
 21
27.9122
 31
0.0
  0
LINE
  8
0
 62
     0
 10
19.0018
 20
27.9122
 30
0.0
 11
19.0018
 21
32.3825
 31
0.0
  0
LINE
  8
0
 62
     0
 10
19.0018
 20
32.3825
 30
0.0
 11
20.5259
 21
32.3825
 31
0.0
  0
LINE
  8
0
 62
     0
 10
20.5259
 20
32.3825
 30
0.0
 11
20.5259
 21
31.7817
 31
0.0
  0
LINE
  8
0
 62
     0
 10
20.5259
 20
31.7817
 30
0.0
 11
19.7266
 21
31.7817
 31
0.0
  0
LINE
  8
0
 62
     0
 10
19.7266
 20
31.7817
 30
0.0
 11
19.7266
 21
28.6825
 31
0.0
  0
LINE
  8
0
 62
     0
 10
19.7266
 20
28.6825
 30
0.0
 11
20.5259
 21
28.6825
 31
0.0
  0
LINE
  8
0
 62
     0
 10
20.5259
 20
28.6825
 30
0.0
 11
20.5259
 21
27.6821
 31
0.0
  0
LINE
  8
0
 62
     0
 10
20.5259
 20
27.6821
 30
0.0
 11
34.5267
 21
27.6821
 31
0.0
  0
LINE
  8
0
 62
     0
 10
34.5267
 20
27.6821
 30
0.0
 11
34.5267
 21
28.6825
 31
0.0
  0
LINE
  8
0
 62
     0
 10
34.5267
 20
28.6825
 30
0.0
 11
35.3261
 21
28.6825
 31
0.0
  0
LINE
  8
0
 62
     0
 10
35.3261
 20
28.6825
 30
0.0
 11
35.3261
 21
31.7817
 31
0.0
  0
LINE
  8
0
 62
     0
 10
35.3261
 20
31.7817
 30
0.0
 11
34.5267
 21
31.7817
 31
0.0
  0
LINE
  8
0
 62
     0
 10
34.5267
 20
31.7817
 30
0.0
 11
34.5267
 21
32.3825
 31
0.0
  0
LINE
  8
0
 62
     0
 10
34.5267
 20
32.3825
 30
0.0
 11
36.0507
 21
32.3825
 31
0.0
  0
LINE
  8
0
 62
     0
 10
36.0507
 20
32.3825
 30
0.0
 11
36.0507
 21
27.9122
 31
0.0
  0
LINE
  8
0
 62
     0
 10
36.0507
 20
27.9122
 30
0.0
 11
37.7762
 21
27.9122
 31
0.0
  0
LINE
  8
0
 62
     0
 10
37.7762
 20
27.9122
 30
0.0
 11
37.7762
 21
26.9324
 31
0.0
  0
LINE
  8
0
 62
     0
 10
37.7762
 20
26.9324
 30
0.0
 11
41.0767
 21
26.9324
 31
0.0
  0
LINE
  8
0
 62
     0
 10
41.0767
 20
26.9324
 30
0.0
 11
41.0767
 21
27.9122
 31
0.0
  0
LINE
  8
0
 62
     0
 10
41.0767
 20
27.9122
 30
0.0
 11
42.8018
 21
27.9122
 31
0.0
  0
LINE
  8
0
 62
     0
 10
42.8018
 20
27.9122
 30
0.0
 11
42.8018
 21
34.1822
 31
0.0
  0
LINE
  8
0
 62
     0
 10
42.8018
 20
34.1822
 30
0.0
 11
43.6259
 21
34.1822
 31
0.0
  0
LINE
  8
0
 62
     0
 10
43.6259
 20
34.1822
 30
0.0
 11
43.6259
 21
36.9824
 31
0.0
  0
LINE
  8
0
 62
     0
 10
43.6259
 20
36.9824
 30
0.0
 11
42.8018
 21
36.9824
 31
0.0
  0
LINE
  8
0
 62
     0
 10
42.8018
 20
36.9824
 30
0.0
 11
42.8018
 21
40.2124
 31
0.0
  0
LINE
  8
0
 62
     0
 10
42.8018
 20
40.2124
 30
0.0
 11
41.0767
 21
40.2124
 31
0.0
  0
LINE
  8
0
 62
     0
 10
41.0767
 20
40.2124
 30
0.0
 11
41.0767
 21
41.1318
 31
0.0
  0
LINE
  8
0
 62
     0
 10
41.0767
 20
41.1318
 30
0.0
 11
37.7762
 21
41.1318
 31
0.0
  0
LINE
  8
0
 62
     0
 10
37.7762
 20
41.1318
 30
0.0
 11
37.7762
 21
40.2124
 31
0.0
  0
LINE
  8
0
 62
     0
 10
37.7762
 20
40.2124
 30
0.0
 11
36.0507
 21
40.2124
 31
0.0
  0
LINE
  8
0
 62
     0
 10
36.0507
 20
40.2124
 30
0.0
 11
36.0507
 21
36.9824
 31
0.0
  0
LINE
  8
0
 62
     0
 10
36.0507
 20
36.9824
 30
0.0
 11
34.5267
 21
36.9824
 31
0.0
  0
LINE
  8
0
 62
     0
 10
34.5267
 20
36.9824
 30
0.0
 11
34.5267
 21
37.5818
 31
0.0
  0
LINE
  8
0
 62
     0
 10
34.5267
 20
37.5818
 30
0.0
 11
35.3261
 21
37.5818
 31
0.0
  0
LINE
  8
0
 62
     0
 10
35.3261
 20
37.5818
 30
0.0
 11
35.3261
 21
40.6823
 31
0.0
  0
LINE
  8
0
 62
     0
 10
35.3261
 20
40.6823
 30
0.0
 11
34.5267
 21
40.6823
 31
0.0
  0
LINE
  8
0
 62
     0
 10
34.5267
 20
40.6823
 30
0.0
 11
34.5267
 21
41.6828
 31
0.0
  0
LINE
  8
0
 62
     0
 10
34.5267
 20
41.6828
 30
0.0
 11
20.5259
 21
41.6828
 31
0.0
  0
LINE
  8
0
 62
     0
 10
294.371
 20
41.6828
 30
0.0
 11
294.371
 21
40.6823
 31
0.0
  0
LINE
  8
0
 62
     0
 10
294.371
 20
40.6823
 30
0.0
 11
293.57
 21
40.6823
 31
0.0
  0
LINE
  8
0
 62
     0
 10
293.57
 20
40.6823
 30
0.0
 11
293.57
 21
37.5818
 31
0.0
  0
LINE
  8
0
 62
     0
 10
293.57
 20
37.5818
 30
0.0
 11
294.371
 21
37.5818
 31
0.0
  0
LINE
  8
0
 62
     0
 10
294.371
 20
37.5818
 30
0.0
 11
294.371
 21
31.7817
 31
0.0
  0
LINE
  8
0
 62
     0
 10
294.371
 20
31.7817
 30
0.0
 11
293.57
 21
31.7817
 31
0.0
  0
LINE
  8
0
 62
     0
 10
293.57
 20
31.7817
 30
0.0
 11
293.57
 21
28.6825
 31
0.0
  0
LINE
  8
0
 62
     0
 10
293.57
 20
28.6825
 30
0.0
 11
294.371
 21
28.6825
 31
0.0
  0
LINE
  8
0
 62
     0
 10
294.371
 20
28.6825
 30
0.0
 11
294.371
 21
27.6821
 31
0.0
  0
LINE
  8
0
 62
     0
 10
294.371
 20
27.6821
 30
0.0
 11
308.37
 21
27.6821
 31
0.0
  0
LINE
  8
0
 62
     0
 10
308.37
 20
27.6821
 30
0.0
 11
308.37
 21
28.6825
 31
0.0
  0
LINE
  8
0
 62
     0
 10
308.37
 20
28.6825
 30
0.0
 11
309.171
 21
28.6825
 31
0.0
  0
LINE
  8
0
 62
     0
 10
309.171
 20
28.6825
 30
0.0
 11
309.171
 21
31.7817
 31
0.0
  0
LINE
  8
0
 62
     0
 10
309.171
 20
31.7817
 30
0.0
 11
308.37
 21
31.7817
 31
0.0
  0
LINE
  8
0
 62
     0
 10
308.37
 20
31.7817
 30
0.0
 11
308.37
 21
37.5818
 31
0.0
  0
LINE
  8
0
 62
     0
 10
308.37
 20
37.5818
 30
0.0
 11
309.171
 21
37.5818
 31
0.0
  0
LINE
  8
0
 62
     0
 10
309.171
 20
37.5818
 30
0.0
 11
309.171
 21
40.6823
 31
0.0
  0
LINE
  8
0
 62
     0
 10
309.171
 20
40.6823
 30
0.0
 11
308.37
 21
40.6823
 31
0.0
  0
LINE
  8
0
 62
     0
 10
308.37
 20
40.6823
 30
0.0
 11
308.37
 21
41.6828
 31
0.0
  0
LINE
  8
0
 62
     0
 10
308.37
 20
41.6828
 30
0.0
 11
294.371
 21
41.6828
 31
0.0
  0
LINE
  8
0
 62
     0
 10
275.321
 20
41.6828
 30
0.0
 11
275.321
 21
40.6823
 31
0.0
  0
LINE
  8
0
 62
     0
 10
275.321
 20
40.6823
 30
0.0
 11
274.52
 21
40.6823
 31
0.0
  0
LINE
  8
0
 62
     0
 10
274.52
 20
40.6823
 30
0.0
 11
274.52
 21
37.5818
 31
0.0
  0
LINE
  8
0
 62
     0
 10
274.52
 20
37.5818
 30
0.0
 11
275.321
 21
37.5818
 31
0.0
  0
LINE
  8
0
 62
     0
 10
275.321
 20
37.5818
 30
0.0
 11
275.321
 21
31.7817
 31
0.0
  0
LINE
  8
0
 62
     0
 10
275.321
 20
31.7817
 30
0.0
 11
274.52
 21
31.7817
 31
0.0
  0
LINE
  8
0
 62
     0
 10
274.52
 20
31.7817
 30
0.0
 11
274.52
 21
28.6825
 31
0.0
  0
LINE
  8
0
 62
     0
 10
274.52
 20
28.6825
 30
0.0
 11
275.321
 21
28.6825
 31
0.0
  0
LINE
  8
0
 62
     0
 10
275.321
 20
28.6825
 30
0.0
 11
275.321
 21
27.6821
 31
0.0
  0
LINE
  8
0
 62
     0
 10
275.321
 20
27.6821
 30
0.0
 11
289.32
 21
27.6821
 31
0.0
  0
LINE
  8
0
 62
     0
 10
289.32
 20
27.6821
 30
0.0
 11
289.32
 21
28.6825
 31
0.0
  0
LINE
  8
0
 62
     0
 10
289.32
 20
28.6825
 30
0.0
 11
290.121
 21
28.6825
 31
0.0
  0
LINE
  8
0
 62
     0
 10
290.121
 20
28.6825
 30
0.0
 11
290.121
 21
31.7817
 31
0.0
  0
LINE
  8
0
 62
     0
 10
290.121
 20
31.7817
 30
0.0
 11
289.32
 21
31.7817
 31
0.0
  0
LINE
  8
0
 62
     0
 10
289.32
 20
31.7817
 30
0.0
 11
289.32
 21
37.5818
 31
0.0
  0
LINE
  8
0
 62
     0
 10
289.32
 20
37.5818
 30
0.0
 11
290.121
 21
37.5818
 31
0.0
  0
LINE
  8
0
 62
     0
 10
290.121
 20
37.5818
 30
0.0
 11
290.121
 21
40.6823
 31
0.0
  0
LINE
  8
0
 62
     0
 10
290.121
 20
40.6823
 30
0.0
 11
289.32
 21
40.6823
 31
0.0
  0
LINE
  8
0
 62
     0
 10
289.32
 20
40.6823
 30
0.0
 11
289.32
 21
41.6828
 31
0.0
  0
LINE
  8
0
 62
     0
 10
289.32
 20
41.6828
 30
0.0
 11
275.321
 21
41.6828
 31
0.0
  0
LINE
  8
0
 62
     0
 10
249.126
 20
41.6828
 30
0.0
 11
249.126
 21
40.6823
 31
0.0
  0
LINE
  8
0
 62
     0
 10
249.126
 20
40.6823
 30
0.0
 11
248.327
 21
40.6823
 31
0.0
  0
LINE
  8
0
 62
     0
 10
248.327
 20
40.6823
 30
0.0
 11
248.327
 21
37.5818
 31
0.0
  0
LINE
  8
0
 62
     0
 10
248.327
 20
37.5818
 30
0.0
 11
249.126
 21
37.5818
 31
0.0
  0
LINE
  8
0
 62
     0
 10
249.126
 20
37.5818
 30
0.0
 11
249.126
 21
31.7817
 31
0.0
  0
LINE
  8
0
 62
     0
 10
249.126
 20
31.7817
 30
0.0
 11
248.327
 21
31.7817
 31
0.0
  0
LINE
  8
0
 62
     0
 10
248.327
 20
31.7817
 30
0.0
 11
248.327
 21
28.6825
 31
0.0
  0
LINE
  8
0
 62
     0
 10
248.327
 20
28.6825
 30
0.0
 11
249.126
 21
28.6825
 31
0.0
  0
LINE
  8
0
 62
     0
 10
249.126
 20
28.6825
 30
0.0
 11
249.126
 21
27.6821
 31
0.0
  0
LINE
  8
0
 62
     0
 10
249.126
 20
27.6821
 30
0.0
 11
263.127
 21
27.6821
 31
0.0
  0
LINE
  8
0
 62
     0
 10
263.127
 20
27.6821
 30
0.0
 11
263.127
 21
28.6825
 31
0.0
  0
LINE
  8
0
 62
     0
 10
263.127
 20
28.6825
 30
0.0
 11
263.926
 21
28.6825
 31
0.0
  0
LINE
  8
0
 62
     0
 10
263.926
 20
28.6825
 30
0.0
 11
263.926
 21
31.7817
 31
0.0
  0
LINE
  8
0
 62
     0
 10
263.926
 20
31.7817
 30
0.0
 11
263.127
 21
31.7817
 31
0.0
  0
LINE
  8
0
 62
     0
 10
263.127
 20
31.7817
 30
0.0
 11
263.127
 21
37.5818
 31
0.0
  0
LINE
  8
0
 62
     0
 10
263.127
 20
37.5818
 30
0.0
 11
263.926
 21
37.5818
 31
0.0
  0
LINE
  8
0
 62
     0
 10
263.926
 20
37.5818
 30
0.0
 11
263.926
 21
40.6823
 31
0.0
  0
LINE
  8
0
 62
     0
 10
263.926
 20
40.6823
 30
0.0
 11
263.127
 21
40.6823
 31
0.0
  0
LINE
  8
0
 62
     0
 10
263.127
 20
40.6823
 30
0.0
 11
263.127
 21
41.6828
 31
0.0
  0
LINE
  8
0
 62
     0
 10
263.127
 20
41.6828
 30
0.0
 11
249.126
 21
41.6828
 31
0.0
  0
LINE
  8
0
 62
     0
 10
222.932
 20
41.6828
 30
0.0
 11
222.932
 21
40.6823
 31
0.0
  0
LINE
  8
0
 62
     0
 10
222.932
 20
40.6823
 30
0.0
 11
222.133
 21
40.6823
 31
0.0
  0
LINE
  8
0
 62
     0
 10
222.133
 20
40.6823
 30
0.0
 11
222.133
 21
37.5818
 31
0.0
  0
LINE
  8
0
 62
     0
 10
222.133
 20
37.5818
 30
0.0
 11
222.932
 21
37.5818
 31
0.0
  0
LINE
  8
0
 62
     0
 10
222.932
 20
37.5818
 30
0.0
 11
222.932
 21
31.7817
 31
0.0
  0
LINE
  8
0
 62
     0
 10
222.932
 20
31.7817
 30
0.0
 11
222.133
 21
31.7817
 31
0.0
  0
LINE
  8
0
 62
     0
 10
222.133
 20
31.7817
 30
0.0
 11
222.133
 21
28.6825
 31
0.0
  0
LINE
  8
0
 62
     0
 10
222.133
 20
28.6825
 30
0.0
 11
222.932
 21
28.6825
 31
0.0
  0
LINE
  8
0
 62
     0
 10
222.932
 20
28.6825
 30
0.0
 11
222.932
 21
27.6821
 31
0.0
  0
LINE
  8
0
 62
     0
 10
222.932
 20
27.6821
 30
0.0
 11
236.933
 21
27.6821
 31
0.0
  0
LINE
  8
0
 62
     0
 10
236.933
 20
27.6821
 30
0.0
 11
236.933
 21
28.6825
 31
0.0
  0
LINE
  8
0
 62
     0
 10
236.933
 20
28.6825
 30
0.0
 11
237.732
 21
28.6825
 31
0.0
  0
LINE
  8
0
 62
     0
 10
237.732
 20
28.6825
 30
0.0
 11
237.732
 21
31.7817
 31
0.0
  0
LINE
  8
0
 62
     0
 10
237.732
 20
31.7817
 30
0.0
 11
236.933
 21
31.7817
 31
0.0
  0
LINE
  8
0
 62
     0
 10
236.933
 20
31.7817
 30
0.0
 11
236.933
 21
37.5818
 31
0.0
  0
LINE
  8
0
 62
     0
 10
236.933
 20
37.5818
 30
0.0
 11
237.732
 21
37.5818
 31
0.0
  0
LINE
  8
0
 62
     0
 10
237.732
 20
37.5818
 30
0.0
 11
237.732
 21
40.6823
 31
0.0
  0
LINE
  8
0
 62
     0
 10
237.732
 20
40.6823
 30
0.0
 11
236.933
 21
40.6823
 31
0.0
  0
LINE
  8
0
 62
     0
 10
236.933
 20
40.6823
 30
0.0
 11
236.933
 21
41.6828
 31
0.0
  0
LINE
  8
0
 62
     0
 10
236.933
 20
41.6828
 30
0.0
 11
222.932
 21
41.6828
 31
0.0
  0
LINE
  8
0
 62
     0
 10
203.882
 20
41.6828
 30
0.0
 11
203.882
 21
40.6823
 31
0.0
  0
LINE
  8
0
 62
     0
 10
203.882
 20
40.6823
 30
0.0
 11
203.083
 21
40.6823
 31
0.0
  0
LINE
  8
0
 62
     0
 10
203.083
 20
40.6823
 30
0.0
 11
203.083
 21
37.5818
 31
0.0
  0
LINE
  8
0
 62
     0
 10
203.083
 20
37.5818
 30
0.0
 11
203.882
 21
37.5818
 31
0.0
  0
LINE
  8
0
 62
     0
 10
203.882
 20
37.5818
 30
0.0
 11
203.882
 21
31.7817
 31
0.0
  0
LINE
  8
0
 62
     0
 10
203.882
 20
31.7817
 30
0.0
 11
203.083
 21
31.7817
 31
0.0
  0
LINE
  8
0
 62
     0
 10
203.083
 20
31.7817
 30
0.0
 11
203.083
 21
28.6825
 31
0.0
  0
LINE
  8
0
 62
     0
 10
203.083
 20
28.6825
 30
0.0
 11
203.882
 21
28.6825
 31
0.0
  0
LINE
  8
0
 62
     0
 10
203.882
 20
28.6825
 30
0.0
 11
203.882
 21
27.6821
 31
0.0
  0
LINE
  8
0
 62
     0
 10
203.882
 20
27.6821
 30
0.0
 11
217.883
 21
27.6821
 31
0.0
  0
LINE
  8
0
 62
     0
 10
217.883
 20
27.6821
 30
0.0
 11
217.883
 21
28.6825
 31
0.0
  0
LINE
  8
0
 62
     0
 10
217.883
 20
28.6825
 30
0.0
 11
218.682
 21
28.6825
 31
0.0
  0
LINE
  8
0
 62
     0
 10
218.682
 20
28.6825
 30
0.0
 11
218.682
 21
31.7817
 31
0.0
  0
LINE
  8
0
 62
     0
 10
218.682
 20
31.7817
 30
0.0
 11
217.883
 21
31.7817
 31
0.0
  0
LINE
  8
0
 62
     0
 10
217.883
 20
31.7817
 30
0.0
 11
217.883
 21
37.5818
 31
0.0
  0
LINE
  8
0
 62
     0
 10
217.883
 20
37.5818
 30
0.0
 11
218.682
 21
37.5818
 31
0.0
  0
LINE
  8
0
 62
     0
 10
218.682
 20
37.5818
 30
0.0
 11
218.682
 21
40.6823
 31
0.0
  0
LINE
  8
0
 62
     0
 10
218.682
 20
40.6823
 30
0.0
 11
217.883
 21
40.6823
 31
0.0
  0
LINE
  8
0
 62
     0
 10
217.883
 20
40.6823
 30
0.0
 11
217.883
 21
41.6828
 31
0.0
  0
LINE
  8
0
 62
     0
 10
217.883
 20
41.6828
 30
0.0
 11
203.882
 21
41.6828
 31
0.0
  0
LINE
  8
0
 62
     0
 10
184.832
 20
41.6828
 30
0.0
 11
184.832
 21
40.6823
 31
0.0
  0
LINE
  8
0
 62
     0
 10
184.832
 20
40.6823
 30
0.0
 11
184.033
 21
40.6823
 31
0.0
  0
LINE
  8
0
 62
     0
 10
184.033
 20
40.6823
 30
0.0
 11
184.033
 21
37.5818
 31
0.0
  0
LINE
  8
0
 62
     0
 10
184.033
 20
37.5818
 30
0.0
 11
184.832
 21
37.5818
 31
0.0
  0
LINE
  8
0
 62
     0
 10
184.832
 20
37.5818
 30
0.0
 11
184.832
 21
31.7817
 31
0.0
  0
LINE
  8
0
 62
     0
 10
184.832
 20
31.7817
 30
0.0
 11
184.033
 21
31.7817
 31
0.0
  0
LINE
  8
0
 62
     0
 10
184.033
 20
31.7817
 30
0.0
 11
184.033
 21
28.6825
 31
0.0
  0
LINE
  8
0
 62
     0
 10
184.033
 20
28.6825
 30
0.0
 11
184.832
 21
28.6825
 31
0.0
  0
LINE
  8
0
 62
     0
 10
184.832
 20
28.6825
 30
0.0
 11
184.832
 21
27.6821
 31
0.0
  0
LINE
  8
0
 62
     0
 10
184.832
 20
27.6821
 30
0.0
 11
198.833
 21
27.6821
 31
0.0
  0
LINE
  8
0
 62
     0
 10
198.833
 20
27.6821
 30
0.0
 11
198.833
 21
28.6825
 31
0.0
  0
LINE
  8
0
 62
     0
 10
198.833
 20
28.6825
 30
0.0
 11
199.632
 21
28.6825
 31
0.0
  0
LINE
  8
0
 62
     0
 10
199.632
 20
28.6825
 30
0.0
 11
199.632
 21
31.7817
 31
0.0
  0
LINE
  8
0
 62
     0
 10
199.632
 20
31.7817
 30
0.0
 11
198.833
 21
31.7817
 31
0.0
  0
LINE
  8
0
 62
     0
 10
198.833
 20
31.7817
 30
0.0
 11
198.833
 21
37.5818
 31
0.0
  0
LINE
  8
0
 62
     0
 10
198.833
 20
37.5818
 30
0.0
 11
199.632
 21
37.5818
 31
0.0
  0
LINE
  8
0
 62
     0
 10
199.632
 20
37.5818
 30
0.0
 11
199.632
 21
40.6823
 31
0.0
  0
LINE
  8
0
 62
     0
 10
199.632
 20
40.6823
 30
0.0
 11
198.833
 21
40.6823
 31
0.0
  0
LINE
  8
0
 62
     0
 10
198.833
 20
40.6823
 30
0.0
 11
198.833
 21
41.6828
 31
0.0
  0
LINE
  8
0
 62
     0
 10
198.833
 20
41.6828
 30
0.0
 11
184.832
 21
41.6828
 31
0.0
  0
LINE
  8
0
 62
     0
 10
165.782
 20
41.6828
 30
0.0
 11
165.782
 21
40.6823
 31
0.0
  0
LINE
  8
0
 62
     0
 10
165.782
 20
40.6823
 30
0.0
 11
164.983
 21
40.6823
 31
0.0
  0
LINE
  8
0
 62
     0
 10
164.983
 20
40.6823
 30
0.0
 11
164.983
 21
37.5818
 31
0.0
  0
LINE
  8
0
 62
     0
 10
164.983
 20
37.5818
 30
0.0
 11
165.782
 21
37.5818
 31
0.0
  0
LINE
  8
0
 62
     0
 10
165.782
 20
37.5818
 30
0.0
 11
165.782
 21
31.7817
 31
0.0
  0
LINE
  8
0
 62
     0
 10
165.782
 20
31.7817
 30
0.0
 11
164.983
 21
31.7817
 31
0.0
  0
LINE
  8
0
 62
     0
 10
164.983
 20
31.7817
 30
0.0
 11
164.983
 21
28.6825
 31
0.0
  0
LINE
  8
0
 62
     0
 10
164.983
 20
28.6825
 30
0.0
 11
165.782
 21
28.6825
 31
0.0
  0
LINE
  8
0
 62
     0
 10
165.782
 20
28.6825
 30
0.0
 11
165.782
 21
27.6821
 31
0.0
  0
LINE
  8
0
 62
     0
 10
165.782
 20
27.6821
 30
0.0
 11
179.783
 21
27.6821
 31
0.0
  0
LINE
  8
0
 62
     0
 10
179.783
 20
27.6821
 30
0.0
 11
179.783
 21
28.6825
 31
0.0
  0
LINE
  8
0
 62
     0
 10
179.783
 20
28.6825
 30
0.0
 11
180.582
 21
28.6825
 31
0.0
  0
LINE
  8
0
 62
     0
 10
180.582
 20
28.6825
 30
0.0
 11
180.582
 21
31.7817
 31
0.0
  0
LINE
  8
0
 62
     0
 10
180.582
 20
31.7817
 30
0.0
 11
179.783
 21
31.7817
 31
0.0
  0
LINE
  8
0
 62
     0
 10
179.783
 20
31.7817
 30
0.0
 11
179.783
 21
37.5818
 31
0.0
  0
LINE
  8
0
 62
     0
 10
179.783
 20
37.5818
 30
0.0
 11
180.582
 21
37.5818
 31
0.0
  0
LINE
  8
0
 62
     0
 10
180.582
 20
37.5818
 30
0.0
 11
180.582
 21
40.6823
 31
0.0
  0
LINE
  8
0
 62
     0
 10
180.582
 20
40.6823
 30
0.0
 11
179.783
 21
40.6823
 31
0.0
  0
LINE
  8
0
 62
     0
 10
179.783
 20
40.6823
 30
0.0
 11
179.783
 21
41.6828
 31
0.0
  0
LINE
  8
0
 62
     0
 10
179.783
 20
41.6828
 30
0.0
 11
165.782
 21
41.6828
 31
0.0
  0
LINE
  8
0
 62
     0
 10
146.732
 20
41.6828
 30
0.0
 11
146.732
 21
40.6823
 31
0.0
  0
LINE
  8
0
 62
     0
 10
146.732
 20
40.6823
 30
0.0
 11
145.933
 21
40.6823
 31
0.0
  0
LINE
  8
0
 62
     0
 10
145.933
 20
40.6823
 30
0.0
 11
145.933
 21
37.5818
 31
0.0
  0
LINE
  8
0
 62
     0
 10
145.933
 20
37.5818
 30
0.0
 11
146.732
 21
37.5818
 31
0.0
  0
LINE
  8
0
 62
     0
 10
146.732
 20
37.5818
 30
0.0
 11
146.732
 21
31.7817
 31
0.0
  0
LINE
  8
0
 62
     0
 10
146.732
 20
31.7817
 30
0.0
 11
145.933
 21
31.7817
 31
0.0
  0
LINE
  8
0
 62
     0
 10
145.933
 20
31.7817
 30
0.0
 11
145.933
 21
28.6825
 31
0.0
  0
LINE
  8
0
 62
     0
 10
145.933
 20
28.6825
 30
0.0
 11
146.732
 21
28.6825
 31
0.0
  0
LINE
  8
0
 62
     0
 10
146.732
 20
28.6825
 30
0.0
 11
146.732
 21
27.6821
 31
0.0
  0
LINE
  8
0
 62
     0
 10
146.732
 20
27.6821
 30
0.0
 11
160.733
 21
27.6821
 31
0.0
  0
LINE
  8
0
 62
     0
 10
160.733
 20
27.6821
 30
0.0
 11
160.733
 21
28.6825
 31
0.0
  0
LINE
  8
0
 62
     0
 10
160.733
 20
28.6825
 30
0.0
 11
161.532
 21
28.6825
 31
0.0
  0
LINE
  8
0
 62
     0
 10
161.532
 20
28.6825
 30
0.0
 11
161.532
 21
31.7817
 31
0.0
  0
LINE
  8
0
 62
     0
 10
161.532
 20
31.7817
 30
0.0
 11
160.733
 21
31.7817
 31
0.0
  0
LINE
  8
0
 62
     0
 10
160.733
 20
31.7817
 30
0.0
 11
160.733
 21
37.5818
 31
0.0
  0
LINE
  8
0
 62
     0
 10
160.733
 20
37.5818
 30
0.0
 11
161.532
 21
37.5818
 31
0.0
  0
LINE
  8
0
 62
     0
 10
161.532
 20
37.5818
 30
0.0
 11
161.532
 21
40.6823
 31
0.0
  0
LINE
  8
0
 62
     0
 10
161.532
 20
40.6823
 30
0.0
 11
160.733
 21
40.6823
 31
0.0
  0
LINE
  8
0
 62
     0
 10
160.733
 20
40.6823
 30
0.0
 11
160.733
 21
41.6828
 31
0.0
  0
LINE
  8
0
 62
     0
 10
160.733
 20
41.6828
 30
0.0
 11
146.732
 21
41.6828
 31
0.0
  0
LINE
  8
0
 62
     0
 10
127.682
 20
41.6828
 30
0.0
 11
127.682
 21
40.6823
 31
0.0
  0
LINE
  8
0
 62
     0
 10
127.682
 20
40.6823
 30
0.0
 11
126.883
 21
40.6823
 31
0.0
  0
LINE
  8
0
 62
     0
 10
126.883
 20
40.6823
 30
0.0
 11
126.883
 21
37.5818
 31
0.0
  0
LINE
  8
0
 62
     0
 10
126.883
 20
37.5818
 30
0.0
 11
127.682
 21
37.5818
 31
0.0
  0
LINE
  8
0
 62
     0
 10
127.682
 20
37.5818
 30
0.0
 11
127.682
 21
31.7817
 31
0.0
  0
LINE
  8
0
 62
     0
 10
127.682
 20
31.7817
 30
0.0
 11
126.883
 21
31.7817
 31
0.0
  0
LINE
  8
0
 62
     0
 10
126.883
 20
31.7817
 30
0.0
 11
126.883
 21
28.6825
 31
0.0
  0
LINE
  8
0
 62
     0
 10
126.883
 20
28.6825
 30
0.0
 11
127.682
 21
28.6825
 31
0.0
  0
LINE
  8
0
 62
     0
 10
127.682
 20
28.6825
 30
0.0
 11
127.682
 21
27.6821
 31
0.0
  0
LINE
  8
0
 62
     0
 10
127.682
 20
27.6821
 30
0.0
 11
141.683
 21
27.6821
 31
0.0
  0
LINE
  8
0
 62
     0
 10
141.683
 20
27.6821
 30
0.0
 11
141.683
 21
28.6825
 31
0.0
  0
LINE
  8
0
 62
     0
 10
141.683
 20
28.6825
 30
0.0
 11
142.482
 21
28.6825
 31
0.0
  0
LINE
  8
0
 62
     0
 10
142.482
 20
28.6825
 30
0.0
 11
142.482
 21
31.7817
 31
0.0
  0
LINE
  8
0
 62
     0
 10
142.482
 20
31.7817
 30
0.0
 11
141.683
 21
31.7817
 31
0.0
  0
LINE
  8
0
 62
     0
 10
141.683
 20
31.7817
 30
0.0
 11
141.683
 21
37.5818
 31
0.0
  0
LINE
  8
0
 62
     0
 10
141.683
 20
37.5818
 30
0.0
 11
142.482
 21
37.5818
 31
0.0
  0
LINE
  8
0
 62
     0
 10
142.482
 20
37.5818
 30
0.0
 11
142.482
 21
40.6823
 31
0.0
  0
LINE
  8
0
 62
     0
 10
142.482
 20
40.6823
 30
0.0
 11
141.683
 21
40.6823
 31
0.0
  0
LINE
  8
0
 62
     0
 10
141.683
 20
40.6823
 30
0.0
 11
141.683
 21
41.6828
 31
0.0
  0
LINE
  8
0
 62
     0
 10
141.683
 20
41.6828
 30
0.0
 11
127.682
 21
41.6828
 31
0.0
  0
LINE
  8
0
 62
     0
 10
108.632
 20
41.6828
 30
0.0
 11
108.632
 21
40.6823
 31
0.0
  0
LINE
  8
0
 62
     0
 10
108.632
 20
40.6823
 30
0.0
 11
107.833
 21
40.6823
 31
0.0
  0
LINE
  8
0
 62
     0
 10
107.833
 20
40.6823
 30
0.0
 11
107.833
 21
37.5818
 31
0.0
  0
LINE
  8
0
 62
     0
 10
107.833
 20
37.5818
 30
0.0
 11
108.632
 21
37.5818
 31
0.0
  0
LINE
  8
0
 62
     0
 10
108.632
 20
37.5818
 30
0.0
 11
108.632
 21
31.7817
 31
0.0
  0
LINE
  8
0
 62
     0
 10
108.632
 20
31.7817
 30
0.0
 11
107.833
 21
31.7817
 31
0.0
  0
LINE
  8
0
 62
     0
 10
107.833
 20
31.7817
 30
0.0
 11
107.833
 21
28.6825
 31
0.0
  0
LINE
  8
0
 62
     0
 10
107.833
 20
28.6825
 30
0.0
 11
108.632
 21
28.6825
 31
0.0
  0
LINE
  8
0
 62
     0
 10
108.632
 20
28.6825
 30
0.0
 11
108.632
 21
27.6821
 31
0.0
  0
LINE
  8
0
 62
     0
 10
108.632
 20
27.6821
 30
0.0
 11
122.633
 21
27.6821
 31
0.0
  0
LINE
  8
0
 62
     0
 10
122.633
 20
27.6821
 30
0.0
 11
122.633
 21
28.6825
 31
0.0
  0
LINE
  8
0
 62
     0
 10
122.633
 20
28.6825
 30
0.0
 11
123.431
 21
28.6825
 31
0.0
  0
LINE
  8
0
 62
     0
 10
123.431
 20
28.6825
 30
0.0
 11
123.431
 21
31.7817
 31
0.0
  0
LINE
  8
0
 62
     0
 10
123.431
 20
31.7817
 30
0.0
 11
122.633
 21
31.7817
 31
0.0
  0
LINE
  8
0
 62
     0
 10
122.633
 20
31.7817
 30
0.0
 11
122.633
 21
37.5818
 31
0.0
  0
LINE
  8
0
 62
     0
 10
122.633
 20
37.5818
 30
0.0
 11
123.431
 21
37.5818
 31
0.0
  0
LINE
  8
0
 62
     0
 10
123.431
 20
37.5818
 30
0.0
 11
123.431
 21
40.6823
 31
0.0
  0
LINE
  8
0
 62
     0
 10
123.431
 20
40.6823
 30
0.0
 11
122.633
 21
40.6823
 31
0.0
  0
LINE
  8
0
 62
     0
 10
122.633
 20
40.6823
 30
0.0
 11
122.633
 21
41.6828
 31
0.0
  0
LINE
  8
0
 62
     0
 10
122.633
 20
41.6828
 30
0.0
 11
108.632
 21
41.6828
 31
0.0
  0
LINE
  8
0
 62
     0
 10
89.5823
 20
41.6828
 30
0.0
 11
89.5823
 21
40.6823
 31
0.0
  0
LINE
  8
0
 62
     0
 10
89.5823
 20
40.6823
 30
0.0
 11
88.7829
 21
40.6823
 31
0.0
  0
LINE
  8
0
 62
     0
 10
88.7829
 20
40.6823
 30
0.0
 11
88.7829
 21
37.5818
 31
0.0
  0
LINE
  8
0
 62
     0
 10
88.7829
 20
37.5818
 30
0.0
 11
89.5823
 21
37.5818
 31
0.0
  0
LINE
  8
0
 62
     0
 10
89.5823
 20
37.5818
 30
0.0
 11
89.5823
 21
31.7817
 31
0.0
  0
LINE
  8
0
 62
     0
 10
89.5823
 20
31.7817
 30
0.0
 11
88.7829
 21
31.7817
 31
0.0
  0
LINE
  8
0
 62
     0
 10
88.7829
 20
31.7817
 30
0.0
 11
88.7829
 21
28.6825
 31
0.0
  0
LINE
  8
0
 62
     0
 10
88.7829
 20
28.6825
 30
0.0
 11
89.5823
 21
28.6825
 31
0.0
  0
LINE
  8
0
 62
     0
 10
89.5823
 20
28.6825
 30
0.0
 11
89.5823
 21
27.6821
 31
0.0
  0
LINE
  8
0
 62
     0
 10
89.5823
 20
27.6821
 30
0.0
 11
103.583
 21
27.6821
 31
0.0
  0
LINE
  8
0
 62
     0
 10
103.583
 20
27.6821
 30
0.0
 11
103.583
 21
28.6825
 31
0.0
  0
LINE
  8
0
 62
     0
 10
103.583
 20
28.6825
 30
0.0
 11
104.382
 21
28.6825
 31
0.0
  0
LINE
  8
0
 62
     0
 10
104.382
 20
28.6825
 30
0.0
 11
104.382
 21
31.7817
 31
0.0
  0
LINE
  8
0
 62
     0
 10
104.382
 20
31.7817
 30
0.0
 11
103.583
 21
31.7817
 31
0.0
  0
LINE
  8
0
 62
     0
 10
103.583
 20
31.7817
 30
0.0
 11
103.583
 21
37.5818
 31
0.0
  0
LINE
  8
0
 62
     0
 10
103.583
 20
37.5818
 30
0.0
 11
104.382
 21
37.5818
 31
0.0
  0
LINE
  8
0
 62
     0
 10
104.382
 20
37.5818
 30
0.0
 11
104.382
 21
40.6823
 31
0.0
  0
LINE
  8
0
 62
     0
 10
104.382
 20
40.6823
 30
0.0
 11
103.583
 21
40.6823
 31
0.0
  0
LINE
  8
0
 62
     0
 10
103.583
 20
40.6823
 30
0.0
 11
103.583
 21
41.6828
 31
0.0
  0
LINE
  8
0
 62
     0
 10
103.583
 20
41.6828
 30
0.0
 11
89.5823
 21
41.6828
 31
0.0
  0
LINE
  8
0
 62
     0
 10
70.5323
 20
41.6828
 30
0.0
 11
70.5323
 21
40.6823
 31
0.0
  0
LINE
  8
0
 62
     0
 10
70.5323
 20
40.6823
 30
0.0
 11
69.7329
 21
40.6823
 31
0.0
  0
LINE
  8
0
 62
     0
 10
69.7329
 20
40.6823
 30
0.0
 11
69.7329
 21
37.5818
 31
0.0
  0
LINE
  8
0
 62
     0
 10
69.7329
 20
37.5818
 30
0.0
 11
70.5323
 21
37.5818
 31
0.0
  0
LINE
  8
0
 62
     0
 10
70.5323
 20
37.5818
 30
0.0
 11
70.5323
 21
31.7817
 31
0.0
  0
LINE
  8
0
 62
     0
 10
70.5323
 20
31.7817
 30
0.0
 11
69.7329
 21
31.7817
 31
0.0
  0
LINE
  8
0
 62
     0
 10
69.7329
 20
31.7817
 30
0.0
 11
69.7329
 21
28.6825
 31
0.0
  0
LINE
  8
0
 62
     0
 10
69.7329
 20
28.6825
 30
0.0
 11
70.5323
 21
28.6825
 31
0.0
  0
LINE
  8
0
 62
     0
 10
70.5323
 20
28.6825
 30
0.0
 11
70.5323
 21
27.6821
 31
0.0
  0
LINE
  8
0
 62
     0
 10
70.5323
 20
27.6821
 30
0.0
 11
84.533
 21
27.6821
 31
0.0
  0
LINE
  8
0
 62
     0
 10
84.533
 20
27.6821
 30
0.0
 11
84.533
 21
28.6825
 31
0.0
  0
LINE
  8
0
 62
     0
 10
84.533
 20
28.6825
 30
0.0
 11
85.3324
 21
28.6825
 31
0.0
  0
LINE
  8
0
 62
     0
 10
85.3324
 20
28.6825
 30
0.0
 11
85.3324
 21
31.7817
 31
0.0
  0
LINE
  8
0
 62
     0
 10
85.3324
 20
31.7817
 30
0.0
 11
84.533
 21
31.7817
 31
0.0
  0
LINE
  8
0
 62
     0
 10
84.533
 20
31.7817
 30
0.0
 11
84.533
 21
37.5818
 31
0.0
  0
LINE
  8
0
 62
     0
 10
84.533
 20
37.5818
 30
0.0
 11
85.3324
 21
37.5818
 31
0.0
  0
LINE
  8
0
 62
     0
 10
85.3324
 20
37.5818
 30
0.0
 11
85.3324
 21
40.6823
 31
0.0
  0
LINE
  8
0
 62
     0
 10
85.3324
 20
40.6823
 30
0.0
 11
84.533
 21
40.6823
 31
0.0
  0
LINE
  8
0
 62
     0
 10
84.533
 20
40.6823
 30
0.0
 11
84.533
 21
41.6828
 31
0.0
  0
LINE
  8
0
 62
     0
 10
84.533
 20
41.6828
 30
0.0
 11
70.5323
 21
41.6828
 31
0.0
  0
LINE
  8
0
 62
     0
 10
51.4823
 20
41.6828
 30
0.0
 11
51.4823
 21
40.6823
 31
0.0
  0
LINE
  8
0
 62
     0
 10
51.4823
 20
40.6823
 30
0.0
 11
50.6829
 21
40.6823
 31
0.0
  0
LINE
  8
0
 62
     0
 10
50.6829
 20
40.6823
 30
0.0
 11
50.6829
 21
37.5818
 31
0.0
  0
LINE
  8
0
 62
     0
 10
50.6829
 20
37.5818
 30
0.0
 11
51.4823
 21
37.5818
 31
0.0
  0
LINE
  8
0
 62
     0
 10
51.4823
 20
37.5818
 30
0.0
 11
51.4823
 21
31.7817
 31
0.0
  0
LINE
  8
0
 62
     0
 10
51.4823
 20
31.7817
 30
0.0
 11
50.6829
 21
31.7817
 31
0.0
  0
LINE
  8
0
 62
     0
 10
50.6829
 20
31.7817
 30
0.0
 11
50.6829
 21
28.6825
 31
0.0
  0
LINE
  8
0
 62
     0
 10
50.6829
 20
28.6825
 30
0.0
 11
51.4823
 21
28.6825
 31
0.0
  0
LINE
  8
0
 62
     0
 10
51.4823
 20
28.6825
 30
0.0
 11
51.4823
 21
27.6821
 31
0.0
  0
LINE
  8
0
 62
     0
 10
51.4823
 20
27.6821
 30
0.0
 11
65.483
 21
27.6821
 31
0.0
  0
LINE
  8
0
 62
     0
 10
65.483
 20
27.6821
 30
0.0
 11
65.483
 21
28.6825
 31
0.0
  0
LINE
  8
0
 62
     0
 10
65.483
 20
28.6825
 30
0.0
 11
66.2824
 21
28.6825
 31
0.0
  0
LINE
  8
0
 62
     0
 10
66.2824
 20
28.6825
 30
0.0
 11
66.2824
 21
31.7817
 31
0.0
  0
LINE
  8
0
 62
     0
 10
66.2824
 20
31.7817
 30
0.0
 11
65.483
 21
31.7817
 31
0.0
  0
LINE
  8
0
 62
     0
 10
65.483
 20
31.7817
 30
0.0
 11
65.483
 21
37.5818
 31
0.0
  0
LINE
  8
0
 62
     0
 10
65.483
 20
37.5818
 30
0.0
 11
66.2824
 21
37.5818
 31
0.0
  0
LINE
  8
0
 62
     0
 10
66.2824
 20
37.5818
 30
0.0
 11
66.2824
 21
40.6823
 31
0.0
  0
LINE
  8
0
 62
     0
 10
66.2824
 20
40.6823
 30
0.0
 11
65.483
 21
40.6823
 31
0.0
  0
LINE
  8
0
 62
     0
 10
65.483
 20
40.6823
 30
0.0
 11
65.483
 21
41.6828
 31
0.0
  0
LINE
  8
0
 62
     0
 10
65.483
 20
41.6828
 30
0.0
 11
51.4823
 21
41.6828
 31
0.0
  0
LINE
  8
0
 62
     0
 10
263.414
 20
60.7328
 30
0.0
 11
263.414
 21
59.7323
 31
0.0
  0
LINE
  8
0
 62
     0
 10
263.414
 20
59.7323
 30
0.0
 11
262.614
 21
59.7323
 31
0.0
  0
LINE
  8
0
 62
     0
 10
262.614
 20
59.7323
 30
0.0
 11
262.614
 21
56.6318
 31
0.0
  0
LINE
  8
0
 62
     0
 10
262.614
 20
56.6318
 30
0.0
 11
263.414
 21
56.6318
 31
0.0
  0
LINE
  8
0
 62
     0
 10
263.414
 20
56.6318
 30
0.0
 11
263.414
 21
56.0324
 31
0.0
  0
LINE
  8
0
 62
     0
 10
263.414
 20
56.0324
 30
0.0
 11
261.888
 21
56.0324
 31
0.0
  0
LINE
  8
0
 62
     0
 10
261.888
 20
56.0324
 30
0.0
 11
261.888
 21
59.2624
 31
0.0
  0
LINE
  8
0
 62
     0
 10
261.888
 20
59.2624
 30
0.0
 11
260.164
 21
59.2624
 31
0.0
  0
LINE
  8
0
 62
     0
 10
260.164
 20
59.2624
 30
0.0
 11
260.164
 21
60.1818
 31
0.0
  0
LINE
  8
0
 62
     0
 10
260.164
 20
60.1818
 30
0.0
 11
256.862
 21
60.1818
 31
0.0
  0
LINE
  8
0
 62
     0
 10
256.862
 20
60.1818
 30
0.0
 11
256.862
 21
59.2624
 31
0.0
  0
LINE
  8
0
 62
     0
 10
256.862
 20
59.2624
 30
0.0
 11
255.138
 21
59.2624
 31
0.0
  0
LINE
  8
0
 62
     0
 10
255.138
 20
59.2624
 30
0.0
 11
255.138
 21
56.0324
 31
0.0
  0
LINE
  8
0
 62
     0
 10
255.138
 20
56.0324
 30
0.0
 11
254.313
 21
56.0324
 31
0.0
  0
LINE
  8
0
 62
     0
 10
254.313
 20
56.0324
 30
0.0
 11
254.313
 21
53.2324
 31
0.0
  0
LINE
  8
0
 62
     0
 10
254.313
 20
53.2324
 30
0.0
 11
255.138
 21
53.2324
 31
0.0
  0
LINE
  8
0
 62
     0
 10
255.138
 20
53.2324
 30
0.0
 11
255.138
 21
46.9621
 31
0.0
  0
LINE
  8
0
 62
     0
 10
255.138
 20
46.9621
 30
0.0
 11
256.862
 21
46.9621
 31
0.0
  0
LINE
  8
0
 62
     0
 10
256.862
 20
46.9621
 30
0.0
 11
256.862
 21
45.9825
 31
0.0
  0
LINE
  8
0
 62
     0
 10
256.862
 20
45.9825
 30
0.0
 11
260.164
 21
45.9825
 31
0.0
  0
LINE
  8
0
 62
     0
 10
260.164
 20
45.9825
 30
0.0
 11
260.164
 21
46.9621
 31
0.0
  0
LINE
  8
0
 62
     0
 10
260.164
 20
46.9621
 30
0.0
 11
261.888
 21
46.9621
 31
0.0
  0
LINE
  8
0
 62
     0
 10
261.888
 20
46.9621
 30
0.0
 11
261.888
 21
51.4325
 31
0.0
  0
LINE
  8
0
 62
     0
 10
261.888
 20
51.4325
 30
0.0
 11
263.414
 21
51.4325
 31
0.0
  0
LINE
  8
0
 62
     0
 10
263.414
 20
51.4325
 30
0.0
 11
263.414
 21
50.8317
 31
0.0
  0
LINE
  8
0
 62
     0
 10
263.414
 20
50.8317
 30
0.0
 11
262.614
 21
50.8317
 31
0.0
  0
LINE
  8
0
 62
     0
 10
262.614
 20
50.8317
 30
0.0
 11
262.614
 21
47.7326
 31
0.0
  0
LINE
  8
0
 62
     0
 10
262.614
 20
47.7326
 30
0.0
 11
263.414
 21
47.7326
 31
0.0
  0
LINE
  8
0
 62
     0
 10
263.414
 20
47.7326
 30
0.0
 11
263.414
 21
46.7321
 31
0.0
  0
LINE
  8
0
 62
     0
 10
263.414
 20
46.7321
 30
0.0
 11
277.413
 21
46.7321
 31
0.0
  0
LINE
  8
0
 62
     0
 10
277.413
 20
46.7321
 30
0.0
 11
277.413
 21
47.7326
 31
0.0
  0
LINE
  8
0
 62
     0
 10
277.413
 20
47.7326
 30
0.0
 11
278.214
 21
47.7326
 31
0.0
  0
LINE
  8
0
 62
     0
 10
278.214
 20
47.7326
 30
0.0
 11
278.214
 21
50.8317
 31
0.0
  0
LINE
  8
0
 62
     0
 10
278.214
 20
50.8317
 30
0.0
 11
277.413
 21
50.8317
 31
0.0
  0
LINE
  8
0
 62
     0
 10
277.413
 20
50.8317
 30
0.0
 11
277.413
 21
51.4325
 31
0.0
  0
LINE
  8
0
 62
     0
 10
277.413
 20
51.4325
 30
0.0
 11
278.938
 21
51.4325
 31
0.0
  0
LINE
  8
0
 62
     0
 10
278.938
 20
51.4325
 30
0.0
 11
278.938
 21
46.9621
 31
0.0
  0
LINE
  8
0
 62
     0
 10
278.938
 20
46.9621
 30
0.0
 11
280.664
 21
46.9621
 31
0.0
  0
LINE
  8
0
 62
     0
 10
280.664
 20
46.9621
 30
0.0
 11
280.664
 21
45.9825
 31
0.0
  0
LINE
  8
0
 62
     0
 10
280.664
 20
45.9825
 30
0.0
 11
283.964
 21
45.9825
 31
0.0
  0
LINE
  8
0
 62
     0
 10
283.964
 20
45.9825
 30
0.0
 11
283.964
 21
46.9621
 31
0.0
  0
LINE
  8
0
 62
     0
 10
283.964
 20
46.9621
 30
0.0
 11
285.688
 21
46.9621
 31
0.0
  0
LINE
  8
0
 62
     0
 10
285.688
 20
46.9621
 30
0.0
 11
285.688
 21
53.2324
 31
0.0
  0
LINE
  8
0
 62
     0
 10
285.688
 20
53.2324
 30
0.0
 11
286.513
 21
53.2324
 31
0.0
  0
LINE
  8
0
 62
     0
 10
286.513
 20
53.2324
 30
0.0
 11
286.513
 21
56.0324
 31
0.0
  0
LINE
  8
0
 62
     0
 10
286.513
 20
56.0324
 30
0.0
 11
285.688
 21
56.0324
 31
0.0
  0
LINE
  8
0
 62
     0
 10
285.688
 20
56.0324
 30
0.0
 11
285.688
 21
59.2624
 31
0.0
  0
LINE
  8
0
 62
     0
 10
285.688
 20
59.2624
 30
0.0
 11
283.964
 21
59.2624
 31
0.0
  0
LINE
  8
0
 62
     0
 10
283.964
 20
59.2624
 30
0.0
 11
283.964
 21
60.1818
 31
0.0
  0
LINE
  8
0
 62
     0
 10
283.964
 20
60.1818
 30
0.0
 11
280.664
 21
60.1818
 31
0.0
  0
LINE
  8
0
 62
     0
 10
280.664
 20
60.1818
 30
0.0
 11
280.664
 21
59.2624
 31
0.0
  0
LINE
  8
0
 62
     0
 10
280.664
 20
59.2624
 30
0.0
 11
278.938
 21
59.2624
 31
0.0
  0
LINE
  8
0
 62
     0
 10
278.938
 20
59.2624
 30
0.0
 11
278.938
 21
56.0324
 31
0.0
  0
LINE
  8
0
 62
     0
 10
278.938
 20
56.0324
 30
0.0
 11
277.413
 21
56.0324
 31
0.0
  0
LINE
  8
0
 62
     0
 10
277.413
 20
56.0324
 30
0.0
 11
277.413
 21
56.6318
 31
0.0
  0
LINE
  8
0
 62
     0
 10
277.413
 20
56.6318
 30
0.0
 11
278.214
 21
56.6318
 31
0.0
  0
LINE
  8
0
 62
     0
 10
278.214
 20
56.6318
 30
0.0
 11
278.214
 21
59.7323
 31
0.0
  0
LINE
  8
0
 62
     0
 10
278.214
 20
59.7323
 30
0.0
 11
277.413
 21
59.7323
 31
0.0
  0
LINE
  8
0
 62
     0
 10
277.413
 20
59.7323
 30
0.0
 11
277.413
 21
60.7328
 31
0.0
  0
LINE
  8
0
 62
     0
 10
277.413
 20
60.7328
 30
0.0
 11
263.414
 21
60.7328
 31
0.0
  0
LINE
  8
0
 62
     0
 10
294.371
 20
60.7328
 30
0.0
 11
294.371
 21
59.7323
 31
0.0
  0
LINE
  8
0
 62
     0
 10
294.371
 20
59.7323
 30
0.0
 11
293.57
 21
59.7323
 31
0.0
  0
LINE
  8
0
 62
     0
 10
293.57
 20
59.7323
 30
0.0
 11
293.57
 21
56.6318
 31
0.0
  0
LINE
  8
0
 62
     0
 10
293.57
 20
56.6318
 30
0.0
 11
294.371
 21
56.6318
 31
0.0
  0
LINE
  8
0
 62
     0
 10
294.371
 20
56.6318
 30
0.0
 11
294.371
 21
50.8317
 31
0.0
  0
LINE
  8
0
 62
     0
 10
294.371
 20
50.8317
 30
0.0
 11
293.57
 21
50.8317
 31
0.0
  0
LINE
  8
0
 62
     0
 10
293.57
 20
50.8317
 30
0.0
 11
293.57
 21
47.7326
 31
0.0
  0
LINE
  8
0
 62
     0
 10
293.57
 20
47.7326
 30
0.0
 11
294.371
 21
47.7326
 31
0.0
  0
LINE
  8
0
 62
     0
 10
294.371
 20
47.7326
 30
0.0
 11
294.371
 21
46.7321
 31
0.0
  0
LINE
  8
0
 62
     0
 10
294.371
 20
46.7321
 30
0.0
 11
308.37
 21
46.7321
 31
0.0
  0
LINE
  8
0
 62
     0
 10
308.37
 20
46.7321
 30
0.0
 11
308.37
 21
47.7326
 31
0.0
  0
LINE
  8
0
 62
     0
 10
308.37
 20
47.7326
 30
0.0
 11
309.171
 21
47.7326
 31
0.0
  0
LINE
  8
0
 62
     0
 10
309.171
 20
47.7326
 30
0.0
 11
309.171
 21
50.8317
 31
0.0
  0
LINE
  8
0
 62
     0
 10
309.171
 20
50.8317
 30
0.0
 11
308.37
 21
50.8317
 31
0.0
  0
LINE
  8
0
 62
     0
 10
308.37
 20
50.8317
 30
0.0
 11
308.37
 21
56.6318
 31
0.0
  0
LINE
  8
0
 62
     0
 10
308.37
 20
56.6318
 30
0.0
 11
309.171
 21
56.6318
 31
0.0
  0
LINE
  8
0
 62
     0
 10
309.171
 20
56.6318
 30
0.0
 11
309.171
 21
59.7323
 31
0.0
  0
LINE
  8
0
 62
     0
 10
309.171
 20
59.7323
 30
0.0
 11
308.37
 21
59.7323
 31
0.0
  0
LINE
  8
0
 62
     0
 10
308.37
 20
59.7323
 30
0.0
 11
308.37
 21
60.7328
 31
0.0
  0
LINE
  8
0
 62
     0
 10
308.37
 20
60.7328
 30
0.0
 11
294.371
 21
60.7328
 31
0.0
  0
LINE
  8
0
 62
     0
 10
232.457
 20
60.7328
 30
0.0
 11
232.457
 21
59.7323
 31
0.0
  0
LINE
  8
0
 62
     0
 10
232.457
 20
59.7323
 30
0.0
 11
231.658
 21
59.7323
 31
0.0
  0
LINE
  8
0
 62
     0
 10
231.658
 20
59.7323
 30
0.0
 11
231.658
 21
56.6318
 31
0.0
  0
LINE
  8
0
 62
     0
 10
231.658
 20
56.6318
 30
0.0
 11
232.457
 21
56.6318
 31
0.0
  0
LINE
  8
0
 62
     0
 10
232.457
 20
56.6318
 30
0.0
 11
232.457
 21
50.8317
 31
0.0
  0
LINE
  8
0
 62
     0
 10
232.457
 20
50.8317
 30
0.0
 11
231.658
 21
50.8317
 31
0.0
  0
LINE
  8
0
 62
     0
 10
231.658
 20
50.8317
 30
0.0
 11
231.658
 21
47.7326
 31
0.0
  0
LINE
  8
0
 62
     0
 10
231.658
 20
47.7326
 30
0.0
 11
232.457
 21
47.7326
 31
0.0
  0
LINE
  8
0
 62
     0
 10
232.457
 20
47.7326
 30
0.0
 11
232.457
 21
46.7321
 31
0.0
  0
LINE
  8
0
 62
     0
 10
232.457
 20
46.7321
 30
0.0
 11
246.458
 21
46.7321
 31
0.0
  0
LINE
  8
0
 62
     0
 10
246.458
 20
46.7321
 30
0.0
 11
246.458
 21
47.7326
 31
0.0
  0
LINE
  8
0
 62
     0
 10
246.458
 20
47.7326
 30
0.0
 11
247.257
 21
47.7326
 31
0.0
  0
LINE
  8
0
 62
     0
 10
247.257
 20
47.7326
 30
0.0
 11
247.257
 21
50.8317
 31
0.0
  0
LINE
  8
0
 62
     0
 10
247.257
 20
50.8317
 30
0.0
 11
246.458
 21
50.8317
 31
0.0
  0
LINE
  8
0
 62
     0
 10
246.458
 20
50.8317
 30
0.0
 11
246.458
 21
56.6318
 31
0.0
  0
LINE
  8
0
 62
     0
 10
246.458
 20
56.6318
 30
0.0
 11
247.257
 21
56.6318
 31
0.0
  0
LINE
  8
0
 62
     0
 10
247.257
 20
56.6318
 30
0.0
 11
247.257
 21
59.7323
 31
0.0
  0
LINE
  8
0
 62
     0
 10
247.257
 20
59.7323
 30
0.0
 11
246.458
 21
59.7323
 31
0.0
  0
LINE
  8
0
 62
     0
 10
246.458
 20
59.7323
 30
0.0
 11
246.458
 21
60.7328
 31
0.0
  0
LINE
  8
0
 62
     0
 10
246.458
 20
60.7328
 30
0.0
 11
232.457
 21
60.7328
 31
0.0
  0
LINE
  8
0
 62
     0
 10
213.407
 20
60.7328
 30
0.0
 11
213.407
 21
59.7323
 31
0.0
  0
LINE
  8
0
 62
     0
 10
213.407
 20
59.7323
 30
0.0
 11
212.608
 21
59.7323
 31
0.0
  0
LINE
  8
0
 62
     0
 10
212.608
 20
59.7323
 30
0.0
 11
212.608
 21
56.6318
 31
0.0
  0
LINE
  8
0
 62
     0
 10
212.608
 20
56.6318
 30
0.0
 11
213.407
 21
56.6318
 31
0.0
  0
LINE
  8
0
 62
     0
 10
213.407
 20
56.6318
 30
0.0
 11
213.407
 21
50.8317
 31
0.0
  0
LINE
  8
0
 62
     0
 10
213.407
 20
50.8317
 30
0.0
 11
212.608
 21
50.8317
 31
0.0
  0
LINE
  8
0
 62
     0
 10
212.608
 20
50.8317
 30
0.0
 11
212.608
 21
47.7326
 31
0.0
  0
LINE
  8
0
 62
     0
 10
212.608
 20
47.7326
 30
0.0
 11
213.407
 21
47.7326
 31
0.0
  0
LINE
  8
0
 62
     0
 10
213.407
 20
47.7326
 30
0.0
 11
213.407
 21
46.7321
 31
0.0
  0
LINE
  8
0
 62
     0
 10
213.407
 20
46.7321
 30
0.0
 11
227.408
 21
46.7321
 31
0.0
  0
LINE
  8
0
 62
     0
 10
227.408
 20
46.7321
 30
0.0
 11
227.408
 21
47.7326
 31
0.0
  0
LINE
  8
0
 62
     0
 10
227.408
 20
47.7326
 30
0.0
 11
228.207
 21
47.7326
 31
0.0
  0
LINE
  8
0
 62
     0
 10
228.207
 20
47.7326
 30
0.0
 11
228.207
 21
50.8317
 31
0.0
  0
LINE
  8
0
 62
     0
 10
228.207
 20
50.8317
 30
0.0
 11
227.408
 21
50.8317
 31
0.0
  0
LINE
  8
0
 62
     0
 10
227.408
 20
50.8317
 30
0.0
 11
227.408
 21
56.6318
 31
0.0
  0
LINE
  8
0
 62
     0
 10
227.408
 20
56.6318
 30
0.0
 11
228.207
 21
56.6318
 31
0.0
  0
LINE
  8
0
 62
     0
 10
228.207
 20
56.6318
 30
0.0
 11
228.207
 21
59.7323
 31
0.0
  0
LINE
  8
0
 62
     0
 10
228.207
 20
59.7323
 30
0.0
 11
227.408
 21
59.7323
 31
0.0
  0
LINE
  8
0
 62
     0
 10
227.408
 20
59.7323
 30
0.0
 11
227.408
 21
60.7328
 31
0.0
  0
LINE
  8
0
 62
     0
 10
227.408
 20
60.7328
 30
0.0
 11
213.407
 21
60.7328
 31
0.0
  0
LINE
  8
0
 62
     0
 10
194.357
 20
60.7328
 30
0.0
 11
194.357
 21
59.7323
 31
0.0
  0
LINE
  8
0
 62
     0
 10
194.357
 20
59.7323
 30
0.0
 11
193.558
 21
59.7323
 31
0.0
  0
LINE
  8
0
 62
     0
 10
193.558
 20
59.7323
 30
0.0
 11
193.558
 21
56.6318
 31
0.0
  0
LINE
  8
0
 62
     0
 10
193.558
 20
56.6318
 30
0.0
 11
194.357
 21
56.6318
 31
0.0
  0
LINE
  8
0
 62
     0
 10
194.357
 20
56.6318
 30
0.0
 11
194.357
 21
50.8317
 31
0.0
  0
LINE
  8
0
 62
     0
 10
194.357
 20
50.8317
 30
0.0
 11
193.558
 21
50.8317
 31
0.0
  0
LINE
  8
0
 62
     0
 10
193.558
 20
50.8317
 30
0.0
 11
193.558
 21
47.7326
 31
0.0
  0
LINE
  8
0
 62
     0
 10
193.558
 20
47.7326
 30
0.0
 11
194.357
 21
47.7326
 31
0.0
  0
LINE
  8
0
 62
     0
 10
194.357
 20
47.7326
 30
0.0
 11
194.357
 21
46.7321
 31
0.0
  0
LINE
  8
0
 62
     0
 10
194.357
 20
46.7321
 30
0.0
 11
208.358
 21
46.7321
 31
0.0
  0
LINE
  8
0
 62
     0
 10
208.358
 20
46.7321
 30
0.0
 11
208.358
 21
47.7326
 31
0.0
  0
LINE
  8
0
 62
     0
 10
208.358
 20
47.7326
 30
0.0
 11
209.157
 21
47.7326
 31
0.0
  0
LINE
  8
0
 62
     0
 10
209.157
 20
47.7326
 30
0.0
 11
209.157
 21
50.8317
 31
0.0
  0
LINE
  8
0
 62
     0
 10
209.157
 20
50.8317
 30
0.0
 11
208.358
 21
50.8317
 31
0.0
  0
LINE
  8
0
 62
     0
 10
208.358
 20
50.8317
 30
0.0
 11
208.358
 21
56.6318
 31
0.0
  0
LINE
  8
0
 62
     0
 10
208.358
 20
56.6318
 30
0.0
 11
209.157
 21
56.6318
 31
0.0
  0
LINE
  8
0
 62
     0
 10
209.157
 20
56.6318
 30
0.0
 11
209.157
 21
59.7323
 31
0.0
  0
LINE
  8
0
 62
     0
 10
209.157
 20
59.7323
 30
0.0
 11
208.358
 21
59.7323
 31
0.0
  0
LINE
  8
0
 62
     0
 10
208.358
 20
59.7323
 30
0.0
 11
208.358
 21
60.7328
 31
0.0
  0
LINE
  8
0
 62
     0
 10
208.358
 20
60.7328
 30
0.0
 11
194.357
 21
60.7328
 31
0.0
  0
LINE
  8
0
 62
     0
 10
175.307
 20
60.7328
 30
0.0
 11
175.307
 21
59.7323
 31
0.0
  0
LINE
  8
0
 62
     0
 10
175.307
 20
59.7323
 30
0.0
 11
174.508
 21
59.7323
 31
0.0
  0
LINE
  8
0
 62
     0
 10
174.508
 20
59.7323
 30
0.0
 11
174.508
 21
56.6318
 31
0.0
  0
LINE
  8
0
 62
     0
 10
174.508
 20
56.6318
 30
0.0
 11
175.307
 21
56.6318
 31
0.0
  0
LINE
  8
0
 62
     0
 10
175.307
 20
56.6318
 30
0.0
 11
175.307
 21
50.8317
 31
0.0
  0
LINE
  8
0
 62
     0
 10
175.307
 20
50.8317
 30
0.0
 11
174.508
 21
50.8317
 31
0.0
  0
LINE
  8
0
 62
     0
 10
174.508
 20
50.8317
 30
0.0
 11
174.508
 21
47.7326
 31
0.0
  0
LINE
  8
0
 62
     0
 10
174.508
 20
47.7326
 30
0.0
 11
175.307
 21
47.7326
 31
0.0
  0
LINE
  8
0
 62
     0
 10
175.307
 20
47.7326
 30
0.0
 11
175.307
 21
46.7321
 31
0.0
  0
LINE
  8
0
 62
     0
 10
175.307
 20
46.7321
 30
0.0
 11
189.308
 21
46.7321
 31
0.0
  0
LINE
  8
0
 62
     0
 10
189.308
 20
46.7321
 30
0.0
 11
189.308
 21
47.7326
 31
0.0
  0
LINE
  8
0
 62
     0
 10
189.308
 20
47.7326
 30
0.0
 11
190.107
 21
47.7326
 31
0.0
  0
LINE
  8
0
 62
     0
 10
190.107
 20
47.7326
 30
0.0
 11
190.107
 21
50.8317
 31
0.0
  0
LINE
  8
0
 62
     0
 10
190.107
 20
50.8317
 30
0.0
 11
189.308
 21
50.8317
 31
0.0
  0
LINE
  8
0
 62
     0
 10
189.308
 20
50.8317
 30
0.0
 11
189.308
 21
56.6318
 31
0.0
  0
LINE
  8
0
 62
     0
 10
189.308
 20
56.6318
 30
0.0
 11
190.107
 21
56.6318
 31
0.0
  0
LINE
  8
0
 62
     0
 10
190.107
 20
56.6318
 30
0.0
 11
190.107
 21
59.7323
 31
0.0
  0
LINE
  8
0
 62
     0
 10
190.107
 20
59.7323
 30
0.0
 11
189.308
 21
59.7323
 31
0.0
  0
LINE
  8
0
 62
     0
 10
189.308
 20
59.7323
 30
0.0
 11
189.308
 21
60.7328
 31
0.0
  0
LINE
  8
0
 62
     0
 10
189.308
 20
60.7328
 30
0.0
 11
175.307
 21
60.7328
 31
0.0
  0
LINE
  8
0
 62
     0
 10
156.257
 20
60.7328
 30
0.0
 11
156.257
 21
59.7323
 31
0.0
  0
LINE
  8
0
 62
     0
 10
156.257
 20
59.7323
 30
0.0
 11
155.458
 21
59.7323
 31
0.0
  0
LINE
  8
0
 62
     0
 10
155.458
 20
59.7323
 30
0.0
 11
155.458
 21
56.6318
 31
0.0
  0
LINE
  8
0
 62
     0
 10
155.458
 20
56.6318
 30
0.0
 11
156.257
 21
56.6318
 31
0.0
  0
LINE
  8
0
 62
     0
 10
156.257
 20
56.6318
 30
0.0
 11
156.257
 21
50.8317
 31
0.0
  0
LINE
  8
0
 62
     0
 10
156.257
 20
50.8317
 30
0.0
 11
155.458
 21
50.8317
 31
0.0
  0
LINE
  8
0
 62
     0
 10
155.458
 20
50.8317
 30
0.0
 11
155.458
 21
47.7326
 31
0.0
  0
LINE
  8
0
 62
     0
 10
155.458
 20
47.7326
 30
0.0
 11
156.257
 21
47.7326
 31
0.0
  0
LINE
  8
0
 62
     0
 10
156.257
 20
47.7326
 30
0.0
 11
156.257
 21
46.7321
 31
0.0
  0
LINE
  8
0
 62
     0
 10
156.257
 20
46.7321
 30
0.0
 11
170.258
 21
46.7321
 31
0.0
  0
LINE
  8
0
 62
     0
 10
170.258
 20
46.7321
 30
0.0
 11
170.258
 21
47.7326
 31
0.0
  0
LINE
  8
0
 62
     0
 10
170.258
 20
47.7326
 30
0.0
 11
171.057
 21
47.7326
 31
0.0
  0
LINE
  8
0
 62
     0
 10
171.057
 20
47.7326
 30
0.0
 11
171.057
 21
50.8317
 31
0.0
  0
LINE
  8
0
 62
     0
 10
171.057
 20
50.8317
 30
0.0
 11
170.258
 21
50.8317
 31
0.0
  0
LINE
  8
0
 62
     0
 10
170.258
 20
50.8317
 30
0.0
 11
170.258
 21
56.6318
 31
0.0
  0
LINE
  8
0
 62
     0
 10
170.258
 20
56.6318
 30
0.0
 11
171.057
 21
56.6318
 31
0.0
  0
LINE
  8
0
 62
     0
 10
171.057
 20
56.6318
 30
0.0
 11
171.057
 21
59.7323
 31
0.0
  0
LINE
  8
0
 62
     0
 10
171.057
 20
59.7323
 30
0.0
 11
170.258
 21
59.7323
 31
0.0
  0
LINE
  8
0
 62
     0
 10
170.258
 20
59.7323
 30
0.0
 11
170.258
 21
60.7328
 31
0.0
  0
LINE
  8
0
 62
     0
 10
170.258
 20
60.7328
 30
0.0
 11
156.257
 21
60.7328
 31
0.0
  0
LINE
  8
0
 62
     0
 10
137.207
 20
60.7328
 30
0.0
 11
137.207
 21
59.7323
 31
0.0
  0
LINE
  8
0
 62
     0
 10
137.207
 20
59.7323
 30
0.0
 11
136.408
 21
59.7323
 31
0.0
  0
LINE
  8
0
 62
     0
 10
136.408
 20
59.7323
 30
0.0
 11
136.408
 21
56.6318
 31
0.0
  0
LINE
  8
0
 62
     0
 10
136.408
 20
56.6318
 30
0.0
 11
137.207
 21
56.6318
 31
0.0
  0
LINE
  8
0
 62
     0
 10
137.207
 20
56.6318
 30
0.0
 11
137.207
 21
50.8317
 31
0.0
  0
LINE
  8
0
 62
     0
 10
137.207
 20
50.8317
 30
0.0
 11
136.408
 21
50.8317
 31
0.0
  0
LINE
  8
0
 62
     0
 10
136.408
 20
50.8317
 30
0.0
 11
136.408
 21
47.7326
 31
0.0
  0
LINE
  8
0
 62
     0
 10
136.408
 20
47.7326
 30
0.0
 11
137.207
 21
47.7326
 31
0.0
  0
LINE
  8
0
 62
     0
 10
137.207
 20
47.7326
 30
0.0
 11
137.207
 21
46.7321
 31
0.0
  0
LINE
  8
0
 62
     0
 10
137.207
 20
46.7321
 30
0.0
 11
151.208
 21
46.7321
 31
0.0
  0
LINE
  8
0
 62
     0
 10
151.208
 20
46.7321
 30
0.0
 11
151.208
 21
47.7326
 31
0.0
  0
LINE
  8
0
 62
     0
 10
151.208
 20
47.7326
 30
0.0
 11
152.007
 21
47.7326
 31
0.0
  0
LINE
  8
0
 62
     0
 10
152.007
 20
47.7326
 30
0.0
 11
152.007
 21
50.8317
 31
0.0
  0
LINE
  8
0
 62
     0
 10
152.007
 20
50.8317
 30
0.0
 11
151.208
 21
50.8317
 31
0.0
  0
LINE
  8
0
 62
     0
 10
151.208
 20
50.8317
 30
0.0
 11
151.208
 21
56.6318
 31
0.0
  0
LINE
  8
0
 62
     0
 10
151.208
 20
56.6318
 30
0.0
 11
152.007
 21
56.6318
 31
0.0
  0
LINE
  8
0
 62
     0
 10
152.007
 20
56.6318
 30
0.0
 11
152.007
 21
59.7323
 31
0.0
  0
LINE
  8
0
 62
     0
 10
152.007
 20
59.7323
 30
0.0
 11
151.208
 21
59.7323
 31
0.0
  0
LINE
  8
0
 62
     0
 10
151.208
 20
59.7323
 30
0.0
 11
151.208
 21
60.7328
 31
0.0
  0
LINE
  8
0
 62
     0
 10
151.208
 20
60.7328
 30
0.0
 11
137.207
 21
60.7328
 31
0.0
  0
LINE
  8
0
 62
     0
 10
118.157
 20
60.7328
 30
0.0
 11
118.157
 21
59.7323
 31
0.0
  0
LINE
  8
0
 62
     0
 10
118.157
 20
59.7323
 30
0.0
 11
117.358
 21
59.7323
 31
0.0
  0
LINE
  8
0
 62
     0
 10
117.358
 20
59.7323
 30
0.0
 11
117.358
 21
56.6318
 31
0.0
  0
LINE
  8
0
 62
     0
 10
117.358
 20
56.6318
 30
0.0
 11
118.157
 21
56.6318
 31
0.0
  0
LINE
  8
0
 62
     0
 10
118.157
 20
56.6318
 30
0.0
 11
118.157
 21
50.8317
 31
0.0
  0
LINE
  8
0
 62
     0
 10
118.157
 20
50.8317
 30
0.0
 11
117.358
 21
50.8317
 31
0.0
  0
LINE
  8
0
 62
     0
 10
117.358
 20
50.8317
 30
0.0
 11
117.358
 21
47.7326
 31
0.0
  0
LINE
  8
0
 62
     0
 10
117.358
 20
47.7326
 30
0.0
 11
118.157
 21
47.7326
 31
0.0
  0
LINE
  8
0
 62
     0
 10
118.157
 20
47.7326
 30
0.0
 11
118.157
 21
46.7321
 31
0.0
  0
LINE
  8
0
 62
     0
 10
118.157
 20
46.7321
 30
0.0
 11
132.158
 21
46.7321
 31
0.0
  0
LINE
  8
0
 62
     0
 10
132.158
 20
46.7321
 30
0.0
 11
132.158
 21
47.7326
 31
0.0
  0
LINE
  8
0
 62
     0
 10
132.158
 20
47.7326
 30
0.0
 11
132.957
 21
47.7326
 31
0.0
  0
LINE
  8
0
 62
     0
 10
132.957
 20
47.7326
 30
0.0
 11
132.957
 21
50.8317
 31
0.0
  0
LINE
  8
0
 62
     0
 10
132.957
 20
50.8317
 30
0.0
 11
132.158
 21
50.8317
 31
0.0
  0
LINE
  8
0
 62
     0
 10
132.158
 20
50.8317
 30
0.0
 11
132.158
 21
56.6318
 31
0.0
  0
LINE
  8
0
 62
     0
 10
132.158
 20
56.6318
 30
0.0
 11
132.957
 21
56.6318
 31
0.0
  0
LINE
  8
0
 62
     0
 10
132.957
 20
56.6318
 30
0.0
 11
132.957
 21
59.7323
 31
0.0
  0
LINE
  8
0
 62
     0
 10
132.957
 20
59.7323
 30
0.0
 11
132.158
 21
59.7323
 31
0.0
  0
LINE
  8
0
 62
     0
 10
132.158
 20
59.7323
 30
0.0
 11
132.158
 21
60.7328
 31
0.0
  0
LINE
  8
0
 62
     0
 10
132.158
 20
60.7328
 30
0.0
 11
118.157
 21
60.7328
 31
0.0
  0
LINE
  8
0
 62
     0
 10
99.1073
 20
60.7328
 30
0.0
 11
99.1073
 21
59.7323
 31
0.0
  0
LINE
  8
0
 62
     0
 10
99.1073
 20
59.7323
 30
0.0
 11
98.3079
 21
59.7323
 31
0.0
  0
LINE
  8
0
 62
     0
 10
98.3079
 20
59.7323
 30
0.0
 11
98.3079
 21
56.6318
 31
0.0
  0
LINE
  8
0
 62
     0
 10
98.3079
 20
56.6318
 30
0.0
 11
99.1073
 21
56.6318
 31
0.0
  0
LINE
  8
0
 62
     0
 10
99.1073
 20
56.6318
 30
0.0
 11
99.1073
 21
50.8317
 31
0.0
  0
LINE
  8
0
 62
     0
 10
99.1073
 20
50.8317
 30
0.0
 11
98.3079
 21
50.8317
 31
0.0
  0
LINE
  8
0
 62
     0
 10
98.3079
 20
50.8317
 30
0.0
 11
98.3079
 21
47.7326
 31
0.0
  0
LINE
  8
0
 62
     0
 10
98.3079
 20
47.7326
 30
0.0
 11
99.1073
 21
47.7326
 31
0.0
  0
LINE
  8
0
 62
     0
 10
99.1073
 20
47.7326
 30
0.0
 11
99.1073
 21
46.7321
 31
0.0
  0
LINE
  8
0
 62
     0
 10
99.1073
 20
46.7321
 30
0.0
 11
113.108
 21
46.7321
 31
0.0
  0
LINE
  8
0
 62
     0
 10
113.108
 20
46.7321
 30
0.0
 11
113.108
 21
47.7326
 31
0.0
  0
LINE
  8
0
 62
     0
 10
113.108
 20
47.7326
 30
0.0
 11
113.907
 21
47.7326
 31
0.0
  0
LINE
  8
0
 62
     0
 10
113.907
 20
47.7326
 30
0.0
 11
113.907
 21
50.8317
 31
0.0
  0
LINE
  8
0
 62
     0
 10
113.907
 20
50.8317
 30
0.0
 11
113.108
 21
50.8317
 31
0.0
  0
LINE
  8
0
 62
     0
 10
113.108
 20
50.8317
 30
0.0
 11
113.108
 21
56.6318
 31
0.0
  0
LINE
  8
0
 62
     0
 10
113.108
 20
56.6318
 30
0.0
 11
113.907
 21
56.6318
 31
0.0
  0
LINE
  8
0
 62
     0
 10
113.907
 20
56.6318
 30
0.0
 11
113.907
 21
59.7323
 31
0.0
  0
LINE
  8
0
 62
     0
 10
113.907
 20
59.7323
 30
0.0
 11
113.108
 21
59.7323
 31
0.0
  0
LINE
  8
0
 62
     0
 10
113.108
 20
59.7323
 30
0.0
 11
113.108
 21
60.7328
 31
0.0
  0
LINE
  8
0
 62
     0
 10
113.108
 20
60.7328
 30
0.0
 11
99.1073
 21
60.7328
 31
0.0
  0
LINE
  8
0
 62
     0
 10
80.0573
 20
60.7328
 30
0.0
 11
80.0573
 21
59.7323
 31
0.0
  0
LINE
  8
0
 62
     0
 10
80.0573
 20
59.7323
 30
0.0
 11
79.2579
 21
59.7323
 31
0.0
  0
LINE
  8
0
 62
     0
 10
79.2579
 20
59.7323
 30
0.0
 11
79.2579
 21
56.6318
 31
0.0
  0
LINE
  8
0
 62
     0
 10
79.2579
 20
56.6318
 30
0.0
 11
80.0573
 21
56.6318
 31
0.0
  0
LINE
  8
0
 62
     0
 10
80.0573
 20
56.6318
 30
0.0
 11
80.0573
 21
50.8317
 31
0.0
  0
LINE
  8
0
 62
     0
 10
80.0573
 20
50.8317
 30
0.0
 11
79.2579
 21
50.8317
 31
0.0
  0
LINE
  8
0
 62
     0
 10
79.2579
 20
50.8317
 30
0.0
 11
79.2579
 21
47.7326
 31
0.0
  0
LINE
  8
0
 62
     0
 10
79.2579
 20
47.7326
 30
0.0
 11
80.0573
 21
47.7326
 31
0.0
  0
LINE
  8
0
 62
     0
 10
80.0573
 20
47.7326
 30
0.0
 11
80.0573
 21
46.7321
 31
0.0
  0
LINE
  8
0
 62
     0
 10
80.0573
 20
46.7321
 30
0.0
 11
94.058
 21
46.7321
 31
0.0
  0
LINE
  8
0
 62
     0
 10
94.058
 20
46.7321
 30
0.0
 11
94.058
 21
47.7326
 31
0.0
  0
LINE
  8
0
 62
     0
 10
94.058
 20
47.7326
 30
0.0
 11
94.8574
 21
47.7326
 31
0.0
  0
LINE
  8
0
 62
     0
 10
94.8574
 20
47.7326
 30
0.0
 11
94.8574
 21
50.8317
 31
0.0
  0
LINE
  8
0
 62
     0
 10
94.8574
 20
50.8317
 30
0.0
 11
94.058
 21
50.8317
 31
0.0
  0
LINE
  8
0
 62
     0
 10
94.058
 20
50.8317
 30
0.0
 11
94.058
 21
56.6318
 31
0.0
  0
LINE
  8
0
 62
     0
 10
94.058
 20
56.6318
 30
0.0
 11
94.8574
 21
56.6318
 31
0.0
  0
LINE
  8
0
 62
     0
 10
94.8574
 20
56.6318
 30
0.0
 11
94.8574
 21
59.7323
 31
0.0
  0
LINE
  8
0
 62
     0
 10
94.8574
 20
59.7323
 30
0.0
 11
94.058
 21
59.7323
 31
0.0
  0
LINE
  8
0
 62
     0
 10
94.058
 20
59.7323
 30
0.0
 11
94.058
 21
60.7328
 31
0.0
  0
LINE
  8
0
 62
     0
 10
94.058
 20
60.7328
 30
0.0
 11
80.0573
 21
60.7328
 31
0.0
  0
LINE
  8
0
 62
     0
 10
61.0073
 20
60.7328
 30
0.0
 11
61.0073
 21
59.7323
 31
0.0
  0
LINE
  8
0
 62
     0
 10
61.0073
 20
59.7323
 30
0.0
 11
60.2065
 21
59.7323
 31
0.0
  0
LINE
  8
0
 62
     0
 10
60.2065
 20
59.7323
 30
0.0
 11
60.2065
 21
56.6318
 31
0.0
  0
LINE
  8
0
 62
     0
 10
60.2065
 20
56.6318
 30
0.0
 11
61.0073
 21
56.6318
 31
0.0
  0
LINE
  8
0
 62
     0
 10
61.0073
 20
56.6318
 30
0.0
 11
61.0073
 21
50.8317
 31
0.0
  0
LINE
  8
0
 62
     0
 10
61.0073
 20
50.8317
 30
0.0
 11
60.2065
 21
50.8317
 31
0.0
  0
LINE
  8
0
 62
     0
 10
60.2065
 20
50.8317
 30
0.0
 11
60.2065
 21
47.7326
 31
0.0
  0
LINE
  8
0
 62
     0
 10
60.2065
 20
47.7326
 30
0.0
 11
61.0073
 21
47.7326
 31
0.0
  0
LINE
  8
0
 62
     0
 10
61.0073
 20
47.7326
 30
0.0
 11
61.0073
 21
46.7321
 31
0.0
  0
LINE
  8
0
 62
     0
 10
61.0073
 20
46.7321
 30
0.0
 11
75.008
 21
46.7321
 31
0.0
  0
LINE
  8
0
 62
     0
 10
75.008
 20
46.7321
 30
0.0
 11
75.008
 21
47.7326
 31
0.0
  0
LINE
  8
0
 62
     0
 10
75.008
 20
47.7326
 30
0.0
 11
75.8074
 21
47.7326
 31
0.0
  0
LINE
  8
0
 62
     0
 10
75.8074
 20
47.7326
 30
0.0
 11
75.8074
 21
50.8317
 31
0.0
  0
LINE
  8
0
 62
     0
 10
75.8074
 20
50.8317
 30
0.0
 11
75.008
 21
50.8317
 31
0.0
  0
LINE
  8
0
 62
     0
 10
75.008
 20
50.8317
 30
0.0
 11
75.008
 21
56.6318
 31
0.0
  0
LINE
  8
0
 62
     0
 10
75.008
 20
56.6318
 30
0.0
 11
75.8074
 21
56.6318
 31
0.0
  0
LINE
  8
0
 62
     0
 10
75.8074
 20
56.6318
 30
0.0
 11
75.8074
 21
59.7323
 31
0.0
  0
LINE
  8
0
 62
     0
 10
75.8074
 20
59.7323
 30
0.0
 11
75.008
 21
59.7323
 31
0.0
  0
LINE
  8
0
 62
     0
 10
75.008
 20
59.7323
 30
0.0
 11
75.008
 21
60.7328
 31
0.0
  0
LINE
  8
0
 62
     0
 10
75.008
 20
60.7328
 30
0.0
 11
61.0073
 21
60.7328
 31
0.0
  0
LINE
  8
0
 62
     0
 10
41.9573
 20
60.7328
 30
0.0
 11
41.9573
 21
59.7323
 31
0.0
  0
LINE
  8
0
 62
     0
 10
41.9573
 20
59.7323
 30
0.0
 11
41.1579
 21
59.7323
 31
0.0
  0
LINE
  8
0
 62
     0
 10
41.1579
 20
59.7323
 30
0.0
 11
41.1579
 21
56.6318
 31
0.0
  0
LINE
  8
0
 62
     0
 10
41.1579
 20
56.6318
 30
0.0
 11
41.9573
 21
56.6318
 31
0.0
  0
LINE
  8
0
 62
     0
 10
41.9573
 20
56.6318
 30
0.0
 11
41.9573
 21
50.8317
 31
0.0
  0
LINE
  8
0
 62
     0
 10
41.9573
 20
50.8317
 30
0.0
 11
41.1579
 21
50.8317
 31
0.0
  0
LINE
  8
0
 62
     0
 10
41.1579
 20
50.8317
 30
0.0
 11
41.1579
 21
47.7326
 31
0.0
  0
LINE
  8
0
 62
     0
 10
41.1579
 20
47.7326
 30
0.0
 11
41.9573
 21
47.7326
 31
0.0
  0
LINE
  8
0
 62
     0
 10
41.9573
 20
47.7326
 30
0.0
 11
41.9573
 21
46.7321
 31
0.0
  0
LINE
  8
0
 62
     0
 10
41.9573
 20
46.7321
 30
0.0
 11
55.958
 21
46.7321
 31
0.0
  0
LINE
  8
0
 62
     0
 10
55.958
 20
46.7321
 30
0.0
 11
55.958
 21
47.7326
 31
0.0
  0
LINE
  8
0
 62
     0
 10
55.958
 20
47.7326
 30
0.0
 11
56.7574
 21
47.7326
 31
0.0
  0
LINE
  8
0
 62
     0
 10
56.7574
 20
47.7326
 30
0.0
 11
56.7574
 21
50.8317
 31
0.0
  0
LINE
  8
0
 62
     0
 10
56.7574
 20
50.8317
 30
0.0
 11
55.958
 21
50.8317
 31
0.0
  0
LINE
  8
0
 62
     0
 10
55.958
 20
50.8317
 30
0.0
 11
55.958
 21
56.6318
 31
0.0
  0
LINE
  8
0
 62
     0
 10
55.958
 20
56.6318
 30
0.0
 11
56.7574
 21
56.6318
 31
0.0
  0
LINE
  8
0
 62
     0
 10
56.7574
 20
56.6318
 30
0.0
 11
56.7574
 21
59.7323
 31
0.0
  0
LINE
  8
0
 62
     0
 10
56.7574
 20
59.7323
 30
0.0
 11
55.958
 21
59.7323
 31
0.0
  0
LINE
  8
0
 62
     0
 10
55.958
 20
59.7323
 30
0.0
 11
55.958
 21
60.7328
 31
0.0
  0
LINE
  8
0
 62
     0
 10
55.958
 20
60.7328
 30
0.0
 11
41.9573
 21
60.7328
 31
0.0
  0
LINE
  8
0
 62
     0
 10
15.7634
 20
60.7328
 30
0.0
 11
15.7634
 21
59.7323
 31
0.0
  0
LINE
  8
0
 62
     0
 10
15.7634
 20
59.7323
 30
0.0
 11
14.9641
 21
59.7323
 31
0.0
  0
LINE
  8
0
 62
     0
 10
14.9641
 20
59.7323
 30
0.0
 11
14.9641
 21
56.6318
 31
0.0
  0
LINE
  8
0
 62
     0
 10
14.9641
 20
56.6318
 30
0.0
 11
15.7634
 21
56.6318
 31
0.0
  0
LINE
  8
0
 62
     0
 10
15.7634
 20
56.6318
 30
0.0
 11
15.7634
 21
50.8317
 31
0.0
  0
LINE
  8
0
 62
     0
 10
15.7634
 20
50.8317
 30
0.0
 11
14.9641
 21
50.8317
 31
0.0
  0
LINE
  8
0
 62
     0
 10
14.9641
 20
50.8317
 30
0.0
 11
14.9641
 21
47.7326
 31
0.0
  0
LINE
  8
0
 62
     0
 10
14.9641
 20
47.7326
 30
0.0
 11
15.7634
 21
47.7326
 31
0.0
  0
LINE
  8
0
 62
     0
 10
15.7634
 20
47.7326
 30
0.0
 11
15.7634
 21
46.7321
 31
0.0
  0
LINE
  8
0
 62
     0
 10
15.7634
 20
46.7321
 30
0.0
 11
29.7629
 21
46.7321
 31
0.0
  0
LINE
  8
0
 62
     0
 10
29.7629
 20
46.7321
 30
0.0
 11
29.7629
 21
47.7326
 31
0.0
  0
LINE
  8
0
 62
     0
 10
29.7629
 20
47.7326
 30
0.0
 11
30.5635
 21
47.7326
 31
0.0
  0
LINE
  8
0
 62
     0
 10
30.5635
 20
47.7326
 30
0.0
 11
30.5635
 21
50.8317
 31
0.0
  0
LINE
  8
0
 62
     0
 10
30.5635
 20
50.8317
 30
0.0
 11
29.7629
 21
50.8317
 31
0.0
  0
LINE
  8
0
 62
     0
 10
29.7629
 20
50.8317
 30
0.0
 11
29.7629
 21
56.6318
 31
0.0
  0
LINE
  8
0
 62
     0
 10
29.7629
 20
56.6318
 30
0.0
 11
30.5635
 21
56.6318
 31
0.0
  0
LINE
  8
0
 62
     0
 10
30.5635
 20
56.6318
 30
0.0
 11
30.5635
 21
59.7323
 31
0.0
  0
LINE
  8
0
 62
     0
 10
30.5635
 20
59.7323
 30
0.0
 11
29.7629
 21
59.7323
 31
0.0
  0
LINE
  8
0
 62
     0
 10
29.7629
 20
59.7323
 30
0.0
 11
29.7629
 21
60.7328
 31
0.0
  0
LINE
  8
0
 62
     0
 10
29.7629
 20
60.7328
 30
0.0
 11
15.7634
 21
60.7328
 31
0.0
  0
LINE
  8
0
 62
     0
 10
294.371
 20
79.7828
 30
0.0
 11
294.371
 21
78.7823
 31
0.0
  0
LINE
  8
0
 62
     0
 10
294.371
 20
78.7823
 30
0.0
 11
293.57
 21
78.7823
 31
0.0
  0
LINE
  8
0
 62
     0
 10
293.57
 20
78.7823
 30
0.0
 11
293.57
 21
75.6818
 31
0.0
  0
LINE
  8
0
 62
     0
 10
293.57
 20
75.6818
 30
0.0
 11
294.371
 21
75.6818
 31
0.0
  0
LINE
  8
0
 62
     0
 10
294.371
 20
75.6818
 30
0.0
 11
294.371
 21
69.8817
 31
0.0
  0
LINE
  8
0
 62
     0
 10
294.371
 20
69.8817
 30
0.0
 11
293.57
 21
69.8817
 31
0.0
  0
LINE
  8
0
 62
     0
 10
293.57
 20
69.8817
 30
0.0
 11
293.57
 21
66.7826
 31
0.0
  0
LINE
  8
0
 62
     0
 10
293.57
 20
66.7826
 30
0.0
 11
294.371
 21
66.7826
 31
0.0
  0
LINE
  8
0
 62
     0
 10
294.371
 20
66.7826
 30
0.0
 11
294.371
 21
65.7821
 31
0.0
  0
LINE
  8
0
 62
     0
 10
294.371
 20
65.7821
 30
0.0
 11
308.37
 21
65.7821
 31
0.0
  0
LINE
  8
0
 62
     0
 10
308.37
 20
65.7821
 30
0.0
 11
308.37
 21
66.7826
 31
0.0
  0
LINE
  8
0
 62
     0
 10
308.37
 20
66.7826
 30
0.0
 11
309.171
 21
66.7826
 31
0.0
  0
LINE
  8
0
 62
     0
 10
309.171
 20
66.7826
 30
0.0
 11
309.171
 21
69.8817
 31
0.0
  0
LINE
  8
0
 62
     0
 10
309.171
 20
69.8817
 30
0.0
 11
308.37
 21
69.8817
 31
0.0
  0
LINE
  8
0
 62
     0
 10
308.37
 20
69.8817
 30
0.0
 11
308.37
 21
75.6818
 31
0.0
  0
LINE
  8
0
 62
     0
 10
308.37
 20
75.6818
 30
0.0
 11
309.171
 21
75.6818
 31
0.0
  0
LINE
  8
0
 62
     0
 10
309.171
 20
75.6818
 30
0.0
 11
309.171
 21
78.7823
 31
0.0
  0
LINE
  8
0
 62
     0
 10
309.171
 20
78.7823
 30
0.0
 11
308.37
 21
78.7823
 31
0.0
  0
LINE
  8
0
 62
     0
 10
308.37
 20
78.7823
 30
0.0
 11
308.37
 21
79.7828
 31
0.0
  0
LINE
  8
0
 62
     0
 10
308.37
 20
79.7828
 30
0.0
 11
294.371
 21
79.7828
 31
0.0
  0
LINE
  8
0
 62
     0
 10
270.557
 20
79.7828
 30
0.0
 11
270.557
 21
78.7823
 31
0.0
  0
LINE
  8
0
 62
     0
 10
270.557
 20
78.7823
 30
0.0
 11
269.758
 21
78.7823
 31
0.0
  0
LINE
  8
0
 62
     0
 10
269.758
 20
78.7823
 30
0.0
 11
269.758
 21
75.6818
 31
0.0
  0
LINE
  8
0
 62
     0
 10
269.758
 20
75.6818
 30
0.0
 11
270.557
 21
75.6818
 31
0.0
  0
LINE
  8
0
 62
     0
 10
270.557
 20
75.6818
 30
0.0
 11
270.557
 21
69.8817
 31
0.0
  0
LINE
  8
0
 62
     0
 10
270.557
 20
69.8817
 30
0.0
 11
269.758
 21
69.8817
 31
0.0
  0
LINE
  8
0
 62
     0
 10
269.758
 20
69.8817
 30
0.0
 11
269.758
 21
66.7826
 31
0.0
  0
LINE
  8
0
 62
     0
 10
269.758
 20
66.7826
 30
0.0
 11
270.557
 21
66.7826
 31
0.0
  0
LINE
  8
0
 62
     0
 10
270.557
 20
66.7826
 30
0.0
 11
270.557
 21
65.7821
 31
0.0
  0
LINE
  8
0
 62
     0
 10
270.557
 20
65.7821
 30
0.0
 11
284.558
 21
65.7821
 31
0.0
  0
LINE
  8
0
 62
     0
 10
284.558
 20
65.7821
 30
0.0
 11
284.558
 21
66.7826
 31
0.0
  0
LINE
  8
0
 62
     0
 10
284.558
 20
66.7826
 30
0.0
 11
285.357
 21
66.7826
 31
0.0
  0
LINE
  8
0
 62
     0
 10
285.357
 20
66.7826
 30
0.0
 11
285.357
 21
69.8817
 31
0.0
  0
LINE
  8
0
 62
     0
 10
285.357
 20
69.8817
 30
0.0
 11
284.558
 21
69.8817
 31
0.0
  0
LINE
  8
0
 62
     0
 10
284.558
 20
69.8817
 30
0.0
 11
284.558
 21
75.6818
 31
0.0
  0
LINE
  8
0
 62
     0
 10
284.558
 20
75.6818
 30
0.0
 11
285.357
 21
75.6818
 31
0.0
  0
LINE
  8
0
 62
     0
 10
285.357
 20
75.6818
 30
0.0
 11
285.357
 21
78.7823
 31
0.0
  0
LINE
  8
0
 62
     0
 10
285.357
 20
78.7823
 30
0.0
 11
284.558
 21
78.7823
 31
0.0
  0
LINE
  8
0
 62
     0
 10
284.558
 20
78.7823
 30
0.0
 11
284.558
 21
79.7828
 31
0.0
  0
LINE
  8
0
 62
     0
 10
284.558
 20
79.7828
 30
0.0
 11
270.557
 21
79.7828
 31
0.0
  0
LINE
  8
0
 62
     0
 10
246.746
 20
79.7828
 30
0.0
 11
246.746
 21
78.7823
 31
0.0
  0
LINE
  8
0
 62
     0
 10
246.746
 20
78.7823
 30
0.0
 11
245.945
 21
78.7823
 31
0.0
  0
LINE
  8
0
 62
     0
 10
245.945
 20
78.7823
 30
0.0
 11
245.945
 21
75.6818
 31
0.0
  0
LINE
  8
0
 62
     0
 10
245.945
 20
75.6818
 30
0.0
 11
246.746
 21
75.6818
 31
0.0
  0
LINE
  8
0
 62
     0
 10
246.746
 20
75.6818
 30
0.0
 11
246.746
 21
69.8817
 31
0.0
  0
LINE
  8
0
 62
     0
 10
246.746
 20
69.8817
 30
0.0
 11
245.945
 21
69.8817
 31
0.0
  0
LINE
  8
0
 62
     0
 10
245.945
 20
69.8817
 30
0.0
 11
245.945
 21
66.7826
 31
0.0
  0
LINE
  8
0
 62
     0
 10
245.945
 20
66.7826
 30
0.0
 11
246.746
 21
66.7826
 31
0.0
  0
LINE
  8
0
 62
     0
 10
246.746
 20
66.7826
 30
0.0
 11
246.746
 21
65.7821
 31
0.0
  0
LINE
  8
0
 62
     0
 10
246.746
 20
65.7821
 30
0.0
 11
260.745
 21
65.7821
 31
0.0
  0
LINE
  8
0
 62
     0
 10
260.745
 20
65.7821
 30
0.0
 11
260.745
 21
66.7826
 31
0.0
  0
LINE
  8
0
 62
     0
 10
260.745
 20
66.7826
 30
0.0
 11
261.546
 21
66.7826
 31
0.0
  0
LINE
  8
0
 62
     0
 10
261.546
 20
66.7826
 30
0.0
 11
261.546
 21
69.8817
 31
0.0
  0
LINE
  8
0
 62
     0
 10
261.546
 20
69.8817
 30
0.0
 11
260.745
 21
69.8817
 31
0.0
  0
LINE
  8
0
 62
     0
 10
260.745
 20
69.8817
 30
0.0
 11
260.745
 21
75.6818
 31
0.0
  0
LINE
  8
0
 62
     0
 10
260.745
 20
75.6818
 30
0.0
 11
261.546
 21
75.6818
 31
0.0
  0
LINE
  8
0
 62
     0
 10
261.546
 20
75.6818
 30
0.0
 11
261.546
 21
78.7823
 31
0.0
  0
LINE
  8
0
 62
     0
 10
261.546
 20
78.7823
 30
0.0
 11
260.745
 21
78.7823
 31
0.0
  0
LINE
  8
0
 62
     0
 10
260.745
 20
78.7823
 30
0.0
 11
260.745
 21
79.7828
 31
0.0
  0
LINE
  8
0
 62
     0
 10
260.745
 20
79.7828
 30
0.0
 11
246.746
 21
79.7828
 31
0.0
  0
LINE
  8
0
 62
     0
 10
227.696
 20
79.7828
 30
0.0
 11
227.696
 21
78.7823
 31
0.0
  0
LINE
  8
0
 62
     0
 10
227.696
 20
78.7823
 30
0.0
 11
226.895
 21
78.7823
 31
0.0
  0
LINE
  8
0
 62
     0
 10
226.895
 20
78.7823
 30
0.0
 11
226.895
 21
75.6818
 31
0.0
  0
LINE
  8
0
 62
     0
 10
226.895
 20
75.6818
 30
0.0
 11
227.696
 21
75.6818
 31
0.0
  0
LINE
  8
0
 62
     0
 10
227.696
 20
75.6818
 30
0.0
 11
227.696
 21
69.8817
 31
0.0
  0
LINE
  8
0
 62
     0
 10
227.696
 20
69.8817
 30
0.0
 11
226.895
 21
69.8817
 31
0.0
  0
LINE
  8
0
 62
     0
 10
226.895
 20
69.8817
 30
0.0
 11
226.895
 21
66.7826
 31
0.0
  0
LINE
  8
0
 62
     0
 10
226.895
 20
66.7826
 30
0.0
 11
227.696
 21
66.7826
 31
0.0
  0
LINE
  8
0
 62
     0
 10
227.696
 20
66.7826
 30
0.0
 11
227.696
 21
65.7821
 31
0.0
  0
LINE
  8
0
 62
     0
 10
227.696
 20
65.7821
 30
0.0
 11
241.695
 21
65.7821
 31
0.0
  0
LINE
  8
0
 62
     0
 10
241.695
 20
65.7821
 30
0.0
 11
241.695
 21
66.7826
 31
0.0
  0
LINE
  8
0
 62
     0
 10
241.695
 20
66.7826
 30
0.0
 11
242.496
 21
66.7826
 31
0.0
  0
LINE
  8
0
 62
     0
 10
242.496
 20
66.7826
 30
0.0
 11
242.496
 21
69.8817
 31
0.0
  0
LINE
  8
0
 62
     0
 10
242.496
 20
69.8817
 30
0.0
 11
241.695
 21
69.8817
 31
0.0
  0
LINE
  8
0
 62
     0
 10
241.695
 20
69.8817
 30
0.0
 11
241.695
 21
75.6818
 31
0.0
  0
LINE
  8
0
 62
     0
 10
241.695
 20
75.6818
 30
0.0
 11
242.496
 21
75.6818
 31
0.0
  0
LINE
  8
0
 62
     0
 10
242.496
 20
75.6818
 30
0.0
 11
242.496
 21
78.7823
 31
0.0
  0
LINE
  8
0
 62
     0
 10
242.496
 20
78.7823
 30
0.0
 11
241.695
 21
78.7823
 31
0.0
  0
LINE
  8
0
 62
     0
 10
241.695
 20
78.7823
 30
0.0
 11
241.695
 21
79.7828
 31
0.0
  0
LINE
  8
0
 62
     0
 10
241.695
 20
79.7828
 30
0.0
 11
227.696
 21
79.7828
 31
0.0
  0
LINE
  8
0
 62
     0
 10
208.646
 20
79.7828
 30
0.0
 11
208.646
 21
78.7823
 31
0.0
  0
LINE
  8
0
 62
     0
 10
208.646
 20
78.7823
 30
0.0
 11
207.845
 21
78.7823
 31
0.0
  0
LINE
  8
0
 62
     0
 10
207.845
 20
78.7823
 30
0.0
 11
207.845
 21
75.6818
 31
0.0
  0
LINE
  8
0
 62
     0
 10
207.845
 20
75.6818
 30
0.0
 11
208.646
 21
75.6818
 31
0.0
  0
LINE
  8
0
 62
     0
 10
208.646
 20
75.6818
 30
0.0
 11
208.646
 21
69.8817
 31
0.0
  0
LINE
  8
0
 62
     0
 10
208.646
 20
69.8817
 30
0.0
 11
207.845
 21
69.8817
 31
0.0
  0
LINE
  8
0
 62
     0
 10
207.845
 20
69.8817
 30
0.0
 11
207.845
 21
66.7826
 31
0.0
  0
LINE
  8
0
 62
     0
 10
207.845
 20
66.7826
 30
0.0
 11
208.646
 21
66.7826
 31
0.0
  0
LINE
  8
0
 62
     0
 10
208.646
 20
66.7826
 30
0.0
 11
208.646
 21
65.7821
 31
0.0
  0
LINE
  8
0
 62
     0
 10
208.646
 20
65.7821
 30
0.0
 11
222.645
 21
65.7821
 31
0.0
  0
LINE
  8
0
 62
     0
 10
222.645
 20
65.7821
 30
0.0
 11
222.645
 21
66.7826
 31
0.0
  0
LINE
  8
0
 62
     0
 10
222.645
 20
66.7826
 30
0.0
 11
223.446
 21
66.7826
 31
0.0
  0
LINE
  8
0
 62
     0
 10
223.446
 20
66.7826
 30
0.0
 11
223.446
 21
69.8817
 31
0.0
  0
LINE
  8
0
 62
     0
 10
223.446
 20
69.8817
 30
0.0
 11
222.645
 21
69.8817
 31
0.0
  0
LINE
  8
0
 62
     0
 10
222.645
 20
69.8817
 30
0.0
 11
222.645
 21
75.6818
 31
0.0
  0
LINE
  8
0
 62
     0
 10
222.645
 20
75.6818
 30
0.0
 11
223.446
 21
75.6818
 31
0.0
  0
LINE
  8
0
 62
     0
 10
223.446
 20
75.6818
 30
0.0
 11
223.446
 21
78.7823
 31
0.0
  0
LINE
  8
0
 62
     0
 10
223.446
 20
78.7823
 30
0.0
 11
222.645
 21
78.7823
 31
0.0
  0
LINE
  8
0
 62
     0
 10
222.645
 20
78.7823
 30
0.0
 11
222.645
 21
79.7828
 31
0.0
  0
LINE
  8
0
 62
     0
 10
222.645
 20
79.7828
 30
0.0
 11
208.646
 21
79.7828
 31
0.0
  0
LINE
  8
0
 62
     0
 10
189.596
 20
79.7828
 30
0.0
 11
189.596
 21
78.7823
 31
0.0
  0
LINE
  8
0
 62
     0
 10
189.596
 20
78.7823
 30
0.0
 11
188.795
 21
78.7823
 31
0.0
  0
LINE
  8
0
 62
     0
 10
188.795
 20
78.7823
 30
0.0
 11
188.795
 21
75.6818
 31
0.0
  0
LINE
  8
0
 62
     0
 10
188.795
 20
75.6818
 30
0.0
 11
189.596
 21
75.6818
 31
0.0
  0
LINE
  8
0
 62
     0
 10
189.596
 20
75.6818
 30
0.0
 11
189.596
 21
69.8817
 31
0.0
  0
LINE
  8
0
 62
     0
 10
189.596
 20
69.8817
 30
0.0
 11
188.795
 21
69.8817
 31
0.0
  0
LINE
  8
0
 62
     0
 10
188.795
 20
69.8817
 30
0.0
 11
188.795
 21
66.7826
 31
0.0
  0
LINE
  8
0
 62
     0
 10
188.795
 20
66.7826
 30
0.0
 11
189.596
 21
66.7826
 31
0.0
  0
LINE
  8
0
 62
     0
 10
189.596
 20
66.7826
 30
0.0
 11
189.596
 21
65.7821
 31
0.0
  0
LINE
  8
0
 62
     0
 10
189.596
 20
65.7821
 30
0.0
 11
203.595
 21
65.7821
 31
0.0
  0
LINE
  8
0
 62
     0
 10
203.595
 20
65.7821
 30
0.0
 11
203.595
 21
66.7826
 31
0.0
  0
LINE
  8
0
 62
     0
 10
203.595
 20
66.7826
 30
0.0
 11
204.396
 21
66.7826
 31
0.0
  0
LINE
  8
0
 62
     0
 10
204.396
 20
66.7826
 30
0.0
 11
204.396
 21
69.8817
 31
0.0
  0
LINE
  8
0
 62
     0
 10
204.396
 20
69.8817
 30
0.0
 11
203.595
 21
69.8817
 31
0.0
  0
LINE
  8
0
 62
     0
 10
203.595
 20
69.8817
 30
0.0
 11
203.595
 21
75.6818
 31
0.0
  0
LINE
  8
0
 62
     0
 10
203.595
 20
75.6818
 30
0.0
 11
204.396
 21
75.6818
 31
0.0
  0
LINE
  8
0
 62
     0
 10
204.396
 20
75.6818
 30
0.0
 11
204.396
 21
78.7823
 31
0.0
  0
LINE
  8
0
 62
     0
 10
204.396
 20
78.7823
 30
0.0
 11
203.595
 21
78.7823
 31
0.0
  0
LINE
  8
0
 62
     0
 10
203.595
 20
78.7823
 30
0.0
 11
203.595
 21
79.7828
 31
0.0
  0
LINE
  8
0
 62
     0
 10
203.595
 20
79.7828
 30
0.0
 11
189.596
 21
79.7828
 31
0.0
  0
LINE
  8
0
 62
     0
 10
170.546
 20
79.7828
 30
0.0
 11
170.546
 21
78.7823
 31
0.0
  0
LINE
  8
0
 62
     0
 10
170.546
 20
78.7823
 30
0.0
 11
169.745
 21
78.7823
 31
0.0
  0
LINE
  8
0
 62
     0
 10
169.745
 20
78.7823
 30
0.0
 11
169.745
 21
75.6818
 31
0.0
  0
LINE
  8
0
 62
     0
 10
169.745
 20
75.6818
 30
0.0
 11
170.546
 21
75.6818
 31
0.0
  0
LINE
  8
0
 62
     0
 10
170.546
 20
75.6818
 30
0.0
 11
170.546
 21
69.8817
 31
0.0
  0
LINE
  8
0
 62
     0
 10
170.546
 20
69.8817
 30
0.0
 11
169.745
 21
69.8817
 31
0.0
  0
LINE
  8
0
 62
     0
 10
169.745
 20
69.8817
 30
0.0
 11
169.745
 21
66.7826
 31
0.0
  0
LINE
  8
0
 62
     0
 10
169.745
 20
66.7826
 30
0.0
 11
170.546
 21
66.7826
 31
0.0
  0
LINE
  8
0
 62
     0
 10
170.546
 20
66.7826
 30
0.0
 11
170.546
 21
65.7821
 31
0.0
  0
LINE
  8
0
 62
     0
 10
170.546
 20
65.7821
 30
0.0
 11
184.545
 21
65.7821
 31
0.0
  0
LINE
  8
0
 62
     0
 10
184.545
 20
65.7821
 30
0.0
 11
184.545
 21
66.7826
 31
0.0
  0
LINE
  8
0
 62
     0
 10
184.545
 20
66.7826
 30
0.0
 11
185.346
 21
66.7826
 31
0.0
  0
LINE
  8
0
 62
     0
 10
185.346
 20
66.7826
 30
0.0
 11
185.346
 21
69.8817
 31
0.0
  0
LINE
  8
0
 62
     0
 10
185.346
 20
69.8817
 30
0.0
 11
184.545
 21
69.8817
 31
0.0
  0
LINE
  8
0
 62
     0
 10
184.545
 20
69.8817
 30
0.0
 11
184.545
 21
75.6818
 31
0.0
  0
LINE
  8
0
 62
     0
 10
184.545
 20
75.6818
 30
0.0
 11
185.346
 21
75.6818
 31
0.0
  0
LINE
  8
0
 62
     0
 10
185.346
 20
75.6818
 30
0.0
 11
185.346
 21
78.7823
 31
0.0
  0
LINE
  8
0
 62
     0
 10
185.346
 20
78.7823
 30
0.0
 11
184.545
 21
78.7823
 31
0.0
  0
LINE
  8
0
 62
     0
 10
184.545
 20
78.7823
 30
0.0
 11
184.545
 21
79.7828
 31
0.0
  0
LINE
  8
0
 62
     0
 10
184.545
 20
79.7828
 30
0.0
 11
170.546
 21
79.7828
 31
0.0
  0
LINE
  8
0
 62
     0
 10
151.496
 20
79.7828
 30
0.0
 11
151.496
 21
78.7823
 31
0.0
  0
LINE
  8
0
 62
     0
 10
151.496
 20
78.7823
 30
0.0
 11
150.695
 21
78.7823
 31
0.0
  0
LINE
  8
0
 62
     0
 10
150.695
 20
78.7823
 30
0.0
 11
150.695
 21
75.6818
 31
0.0
  0
LINE
  8
0
 62
     0
 10
150.695
 20
75.6818
 30
0.0
 11
151.496
 21
75.6818
 31
0.0
  0
LINE
  8
0
 62
     0
 10
151.496
 20
75.6818
 30
0.0
 11
151.496
 21
69.8817
 31
0.0
  0
LINE
  8
0
 62
     0
 10
151.496
 20
69.8817
 30
0.0
 11
150.695
 21
69.8817
 31
0.0
  0
LINE
  8
0
 62
     0
 10
150.695
 20
69.8817
 30
0.0
 11
150.695
 21
66.7826
 31
0.0
  0
LINE
  8
0
 62
     0
 10
150.695
 20
66.7826
 30
0.0
 11
151.496
 21
66.7826
 31
0.0
  0
LINE
  8
0
 62
     0
 10
151.496
 20
66.7826
 30
0.0
 11
151.496
 21
65.7821
 31
0.0
  0
LINE
  8
0
 62
     0
 10
151.496
 20
65.7821
 30
0.0
 11
165.495
 21
65.7821
 31
0.0
  0
LINE
  8
0
 62
     0
 10
165.495
 20
65.7821
 30
0.0
 11
165.495
 21
66.7826
 31
0.0
  0
LINE
  8
0
 62
     0
 10
165.495
 20
66.7826
 30
0.0
 11
166.296
 21
66.7826
 31
0.0
  0
LINE
  8
0
 62
     0
 10
166.296
 20
66.7826
 30
0.0
 11
166.296
 21
69.8817
 31
0.0
  0
LINE
  8
0
 62
     0
 10
166.296
 20
69.8817
 30
0.0
 11
165.495
 21
69.8817
 31
0.0
  0
LINE
  8
0
 62
     0
 10
165.495
 20
69.8817
 30
0.0
 11
165.495
 21
75.6818
 31
0.0
  0
LINE
  8
0
 62
     0
 10
165.495
 20
75.6818
 30
0.0
 11
166.296
 21
75.6818
 31
0.0
  0
LINE
  8
0
 62
     0
 10
166.296
 20
75.6818
 30
0.0
 11
166.296
 21
78.7823
 31
0.0
  0
LINE
  8
0
 62
     0
 10
166.296
 20
78.7823
 30
0.0
 11
165.495
 21
78.7823
 31
0.0
  0
LINE
  8
0
 62
     0
 10
165.495
 20
78.7823
 30
0.0
 11
165.495
 21
79.7828
 31
0.0
  0
LINE
  8
0
 62
     0
 10
165.495
 20
79.7828
 30
0.0
 11
151.496
 21
79.7828
 31
0.0
  0
LINE
  8
0
 62
     0
 10
132.446
 20
79.7828
 30
0.0
 11
132.446
 21
78.7823
 31
0.0
  0
LINE
  8
0
 62
     0
 10
132.446
 20
78.7823
 30
0.0
 11
131.644
 21
78.7823
 31
0.0
  0
LINE
  8
0
 62
     0
 10
131.644
 20
78.7823
 30
0.0
 11
131.644
 21
75.6818
 31
0.0
  0
LINE
  8
0
 62
     0
 10
131.644
 20
75.6818
 30
0.0
 11
132.446
 21
75.6818
 31
0.0
  0
LINE
  8
0
 62
     0
 10
132.446
 20
75.6818
 30
0.0
 11
132.446
 21
69.8817
 31
0.0
  0
LINE
  8
0
 62
     0
 10
132.446
 20
69.8817
 30
0.0
 11
131.644
 21
69.8817
 31
0.0
  0
LINE
  8
0
 62
     0
 10
131.644
 20
69.8817
 30
0.0
 11
131.644
 21
66.7826
 31
0.0
  0
LINE
  8
0
 62
     0
 10
131.644
 20
66.7826
 30
0.0
 11
132.446
 21
66.7826
 31
0.0
  0
LINE
  8
0
 62
     0
 10
132.446
 20
66.7826
 30
0.0
 11
132.446
 21
65.7821
 31
0.0
  0
LINE
  8
0
 62
     0
 10
132.446
 20
65.7821
 30
0.0
 11
146.445
 21
65.7821
 31
0.0
  0
LINE
  8
0
 62
     0
 10
146.445
 20
65.7821
 30
0.0
 11
146.445
 21
66.7826
 31
0.0
  0
LINE
  8
0
 62
     0
 10
146.445
 20
66.7826
 30
0.0
 11
147.246
 21
66.7826
 31
0.0
  0
LINE
  8
0
 62
     0
 10
147.246
 20
66.7826
 30
0.0
 11
147.246
 21
69.8817
 31
0.0
  0
LINE
  8
0
 62
     0
 10
147.246
 20
69.8817
 30
0.0
 11
146.445
 21
69.8817
 31
0.0
  0
LINE
  8
0
 62
     0
 10
146.445
 20
69.8817
 30
0.0
 11
146.445
 21
75.6818
 31
0.0
  0
LINE
  8
0
 62
     0
 10
146.445
 20
75.6818
 30
0.0
 11
147.246
 21
75.6818
 31
0.0
  0
LINE
  8
0
 62
     0
 10
147.246
 20
75.6818
 30
0.0
 11
147.246
 21
78.7823
 31
0.0
  0
LINE
  8
0
 62
     0
 10
147.246
 20
78.7823
 30
0.0
 11
146.445
 21
78.7823
 31
0.0
  0
LINE
  8
0
 62
     0
 10
146.445
 20
78.7823
 30
0.0
 11
146.445
 21
79.7828
 31
0.0
  0
LINE
  8
0
 62
     0
 10
146.445
 20
79.7828
 30
0.0
 11
132.446
 21
79.7828
 31
0.0
  0
LINE
  8
0
 62
     0
 10
113.396
 20
79.7828
 30
0.0
 11
113.396
 21
78.7823
 31
0.0
  0
LINE
  8
0
 62
     0
 10
113.396
 20
78.7823
 30
0.0
 11
112.595
 21
78.7823
 31
0.0
  0
LINE
  8
0
 62
     0
 10
112.595
 20
78.7823
 30
0.0
 11
112.595
 21
75.6818
 31
0.0
  0
LINE
  8
0
 62
     0
 10
112.595
 20
75.6818
 30
0.0
 11
113.396
 21
75.6818
 31
0.0
  0
LINE
  8
0
 62
     0
 10
113.396
 20
75.6818
 30
0.0
 11
113.396
 21
69.8817
 31
0.0
  0
LINE
  8
0
 62
     0
 10
113.396
 20
69.8817
 30
0.0
 11
112.595
 21
69.8817
 31
0.0
  0
LINE
  8
0
 62
     0
 10
112.595
 20
69.8817
 30
0.0
 11
112.595
 21
66.7826
 31
0.0
  0
LINE
  8
0
 62
     0
 10
112.595
 20
66.7826
 30
0.0
 11
113.396
 21
66.7826
 31
0.0
  0
LINE
  8
0
 62
     0
 10
113.396
 20
66.7826
 30
0.0
 11
113.396
 21
65.7821
 31
0.0
  0
LINE
  8
0
 62
     0
 10
113.396
 20
65.7821
 30
0.0
 11
127.395
 21
65.7821
 31
0.0
  0
LINE
  8
0
 62
     0
 10
127.395
 20
65.7821
 30
0.0
 11
127.395
 21
66.7826
 31
0.0
  0
LINE
  8
0
 62
     0
 10
127.395
 20
66.7826
 30
0.0
 11
128.196
 21
66.7826
 31
0.0
  0
LINE
  8
0
 62
     0
 10
128.196
 20
66.7826
 30
0.0
 11
128.196
 21
69.8817
 31
0.0
  0
LINE
  8
0
 62
     0
 10
128.196
 20
69.8817
 30
0.0
 11
127.395
 21
69.8817
 31
0.0
  0
LINE
  8
0
 62
     0
 10
127.395
 20
69.8817
 30
0.0
 11
127.395
 21
75.6818
 31
0.0
  0
LINE
  8
0
 62
     0
 10
127.395
 20
75.6818
 30
0.0
 11
128.196
 21
75.6818
 31
0.0
  0
LINE
  8
0
 62
     0
 10
128.196
 20
75.6818
 30
0.0
 11
128.196
 21
78.7823
 31
0.0
  0
LINE
  8
0
 62
     0
 10
128.196
 20
78.7823
 30
0.0
 11
127.395
 21
78.7823
 31
0.0
  0
LINE
  8
0
 62
     0
 10
127.395
 20
78.7823
 30
0.0
 11
127.395
 21
79.7828
 31
0.0
  0
LINE
  8
0
 62
     0
 10
127.395
 20
79.7828
 30
0.0
 11
113.396
 21
79.7828
 31
0.0
  0
LINE
  8
0
 62
     0
 10
94.3462
 20
79.7828
 30
0.0
 11
94.3462
 21
78.7823
 31
0.0
  0
LINE
  8
0
 62
     0
 10
94.3462
 20
78.7823
 30
0.0
 11
93.5454
 21
78.7823
 31
0.0
  0
LINE
  8
0
 62
     0
 10
93.5454
 20
78.7823
 30
0.0
 11
93.5454
 21
75.6818
 31
0.0
  0
LINE
  8
0
 62
     0
 10
93.5454
 20
75.6818
 30
0.0
 11
94.3462
 21
75.6818
 31
0.0
  0
LINE
  8
0
 62
     0
 10
94.3462
 20
75.6818
 30
0.0
 11
94.3462
 21
69.8817
 31
0.0
  0
LINE
  8
0
 62
     0
 10
94.3462
 20
69.8817
 30
0.0
 11
93.5454
 21
69.8817
 31
0.0
  0
LINE
  8
0
 62
     0
 10
93.5454
 20
69.8817
 30
0.0
 11
93.5454
 21
66.7826
 31
0.0
  0
LINE
  8
0
 62
     0
 10
93.5454
 20
66.7826
 30
0.0
 11
94.3462
 21
66.7826
 31
0.0
  0
LINE
  8
0
 62
     0
 10
94.3462
 20
66.7826
 30
0.0
 11
94.3462
 21
65.7821
 31
0.0
  0
LINE
  8
0
 62
     0
 10
94.3462
 20
65.7821
 30
0.0
 11
108.345
 21
65.7821
 31
0.0
  0
LINE
  8
0
 62
     0
 10
108.345
 20
65.7821
 30
0.0
 11
108.345
 21
66.7826
 31
0.0
  0
LINE
  8
0
 62
     0
 10
108.345
 20
66.7826
 30
0.0
 11
109.146
 21
66.7826
 31
0.0
  0
LINE
  8
0
 62
     0
 10
109.146
 20
66.7826
 30
0.0
 11
109.146
 21
69.8817
 31
0.0
  0
LINE
  8
0
 62
     0
 10
109.146
 20
69.8817
 30
0.0
 11
108.345
 21
69.8817
 31
0.0
  0
LINE
  8
0
 62
     0
 10
108.345
 20
69.8817
 30
0.0
 11
108.345
 21
75.6818
 31
0.0
  0
LINE
  8
0
 62
     0
 10
108.345
 20
75.6818
 30
0.0
 11
109.146
 21
75.6818
 31
0.0
  0
LINE
  8
0
 62
     0
 10
109.146
 20
75.6818
 30
0.0
 11
109.146
 21
78.7823
 31
0.0
  0
LINE
  8
0
 62
     0
 10
109.146
 20
78.7823
 30
0.0
 11
108.345
 21
78.7823
 31
0.0
  0
LINE
  8
0
 62
     0
 10
108.345
 20
78.7823
 30
0.0
 11
108.345
 21
79.7828
 31
0.0
  0
LINE
  8
0
 62
     0
 10
108.345
 20
79.7828
 30
0.0
 11
94.3462
 21
79.7828
 31
0.0
  0
LINE
  8
0
 62
     0
 10
75.2962
 20
79.7828
 30
0.0
 11
75.2962
 21
78.7823
 31
0.0
  0
LINE
  8
0
 62
     0
 10
75.2962
 20
78.7823
 30
0.0
 11
74.4954
 21
78.7823
 31
0.0
  0
LINE
  8
0
 62
     0
 10
74.4954
 20
78.7823
 30
0.0
 11
74.4954
 21
75.6818
 31
0.0
  0
LINE
  8
0
 62
     0
 10
74.4954
 20
75.6818
 30
0.0
 11
75.2962
 21
75.6818
 31
0.0
  0
LINE
  8
0
 62
     0
 10
75.2962
 20
75.6818
 30
0.0
 11
75.2962
 21
69.8817
 31
0.0
  0
LINE
  8
0
 62
     0
 10
75.2962
 20
69.8817
 30
0.0
 11
74.4954
 21
69.8817
 31
0.0
  0
LINE
  8
0
 62
     0
 10
74.4954
 20
69.8817
 30
0.0
 11
74.4954
 21
66.7826
 31
0.0
  0
LINE
  8
0
 62
     0
 10
74.4954
 20
66.7826
 30
0.0
 11
75.2962
 21
66.7826
 31
0.0
  0
LINE
  8
0
 62
     0
 10
75.2962
 20
66.7826
 30
0.0
 11
75.2962
 21
65.7821
 31
0.0
  0
LINE
  8
0
 62
     0
 10
75.2962
 20
65.7821
 30
0.0
 11
89.2955
 21
65.7821
 31
0.0
  0
LINE
  8
0
 62
     0
 10
89.2955
 20
65.7821
 30
0.0
 11
89.2955
 21
66.7826
 31
0.0
  0
LINE
  8
0
 62
     0
 10
89.2955
 20
66.7826
 30
0.0
 11
90.0963
 21
66.7826
 31
0.0
  0
LINE
  8
0
 62
     0
 10
90.0963
 20
66.7826
 30
0.0
 11
90.0963
 21
69.8817
 31
0.0
  0
LINE
  8
0
 62
     0
 10
90.0963
 20
69.8817
 30
0.0
 11
89.2955
 21
69.8817
 31
0.0
  0
LINE
  8
0
 62
     0
 10
89.2955
 20
69.8817
 30
0.0
 11
89.2955
 21
75.6818
 31
0.0
  0
LINE
  8
0
 62
     0
 10
89.2955
 20
75.6818
 30
0.0
 11
90.0963
 21
75.6818
 31
0.0
  0
LINE
  8
0
 62
     0
 10
90.0963
 20
75.6818
 30
0.0
 11
90.0963
 21
78.7823
 31
0.0
  0
LINE
  8
0
 62
     0
 10
90.0963
 20
78.7823
 30
0.0
 11
89.2955
 21
78.7823
 31
0.0
  0
LINE
  8
0
 62
     0
 10
89.2955
 20
78.7823
 30
0.0
 11
89.2955
 21
79.7828
 31
0.0
  0
LINE
  8
0
 62
     0
 10
89.2955
 20
79.7828
 30
0.0
 11
75.2962
 21
79.7828
 31
0.0
  0
LINE
  8
0
 62
     0
 10
56.2462
 20
79.7828
 30
0.0
 11
56.2462
 21
78.7823
 31
0.0
  0
LINE
  8
0
 62
     0
 10
56.2462
 20
78.7823
 30
0.0
 11
55.4454
 21
78.7823
 31
0.0
  0
LINE
  8
0
 62
     0
 10
55.4454
 20
78.7823
 30
0.0
 11
55.4454
 21
75.6818
 31
0.0
  0
LINE
  8
0
 62
     0
 10
55.4454
 20
75.6818
 30
0.0
 11
56.2462
 21
75.6818
 31
0.0
  0
LINE
  8
0
 62
     0
 10
56.2462
 20
75.6818
 30
0.0
 11
56.2462
 21
69.8817
 31
0.0
  0
LINE
  8
0
 62
     0
 10
56.2462
 20
69.8817
 30
0.0
 11
55.4454
 21
69.8817
 31
0.0
  0
LINE
  8
0
 62
     0
 10
55.4454
 20
69.8817
 30
0.0
 11
55.4454
 21
66.7826
 31
0.0
  0
LINE
  8
0
 62
     0
 10
55.4454
 20
66.7826
 30
0.0
 11
56.2462
 21
66.7826
 31
0.0
  0
LINE
  8
0
 62
     0
 10
56.2462
 20
66.7826
 30
0.0
 11
56.2462
 21
65.7821
 31
0.0
  0
LINE
  8
0
 62
     0
 10
56.2462
 20
65.7821
 30
0.0
 11
70.2455
 21
65.7821
 31
0.0
  0
LINE
  8
0
 62
     0
 10
70.2455
 20
65.7821
 30
0.0
 11
70.2455
 21
66.7826
 31
0.0
  0
LINE
  8
0
 62
     0
 10
70.2455
 20
66.7826
 30
0.0
 11
71.0463
 21
66.7826
 31
0.0
  0
LINE
  8
0
 62
     0
 10
71.0463
 20
66.7826
 30
0.0
 11
71.0463
 21
69.8817
 31
0.0
  0
LINE
  8
0
 62
     0
 10
71.0463
 20
69.8817
 30
0.0
 11
70.2455
 21
69.8817
 31
0.0
  0
LINE
  8
0
 62
     0
 10
70.2455
 20
69.8817
 30
0.0
 11
70.2455
 21
75.6818
 31
0.0
  0
LINE
  8
0
 62
     0
 10
70.2455
 20
75.6818
 30
0.0
 11
71.0463
 21
75.6818
 31
0.0
  0
LINE
  8
0
 62
     0
 10
71.0463
 20
75.6818
 30
0.0
 11
71.0463
 21
78.7823
 31
0.0
  0
LINE
  8
0
 62
     0
 10
71.0463
 20
78.7823
 30
0.0
 11
70.2455
 21
78.7823
 31
0.0
  0
LINE
  8
0
 62
     0
 10
70.2455
 20
78.7823
 30
0.0
 11
70.2455
 21
79.7828
 31
0.0
  0
LINE
  8
0
 62
     0
 10
70.2455
 20
79.7828
 30
0.0
 11
56.2462
 21
79.7828
 31
0.0
  0
LINE
  8
0
 62
     0
 10
37.1962
 20
79.7828
 30
0.0
 11
37.1962
 21
78.7823
 31
0.0
  0
LINE
  8
0
 62
     0
 10
37.1962
 20
78.7823
 30
0.0
 11
36.3954
 21
78.7823
 31
0.0
  0
LINE
  8
0
 62
     0
 10
36.3954
 20
78.7823
 30
0.0
 11
36.3954
 21
75.6818
 31
0.0
  0
LINE
  8
0
 62
     0
 10
36.3954
 20
75.6818
 30
0.0
 11
37.1962
 21
75.6818
 31
0.0
  0
LINE
  8
0
 62
     0
 10
37.1962
 20
75.6818
 30
0.0
 11
37.1962
 21
69.8817
 31
0.0
  0
LINE
  8
0
 62
     0
 10
37.1962
 20
69.8817
 30
0.0
 11
36.3954
 21
69.8817
 31
0.0
  0
LINE
  8
0
 62
     0
 10
36.3954
 20
69.8817
 30
0.0
 11
36.3954
 21
66.7826
 31
0.0
  0
LINE
  8
0
 62
     0
 10
36.3954
 20
66.7826
 30
0.0
 11
37.1962
 21
66.7826
 31
0.0
  0
LINE
  8
0
 62
     0
 10
37.1962
 20
66.7826
 30
0.0
 11
37.1962
 21
65.7821
 31
0.0
  0
LINE
  8
0
 62
     0
 10
37.1962
 20
65.7821
 30
0.0
 11
51.1955
 21
65.7821
 31
0.0
  0
LINE
  8
0
 62
     0
 10
51.1955
 20
65.7821
 30
0.0
 11
51.1955
 21
66.7826
 31
0.0
  0
LINE
  8
0
 62
     0
 10
51.1955
 20
66.7826
 30
0.0
 11
51.9963
 21
66.7826
 31
0.0
  0
LINE
  8
0
 62
     0
 10
51.9963
 20
66.7826
 30
0.0
 11
51.9963
 21
69.8817
 31
0.0
  0
LINE
  8
0
 62
     0
 10
51.9963
 20
69.8817
 30
0.0
 11
51.1955
 21
69.8817
 31
0.0
  0
LINE
  8
0
 62
     0
 10
51.1955
 20
69.8817
 30
0.0
 11
51.1955
 21
75.6818
 31
0.0
  0
LINE
  8
0
 62
     0
 10
51.1955
 20
75.6818
 30
0.0
 11
51.9963
 21
75.6818
 31
0.0
  0
LINE
  8
0
 62
     0
 10
51.9963
 20
75.6818
 30
0.0
 11
51.9963
 21
78.7823
 31
0.0
  0
LINE
  8
0
 62
     0
 10
51.9963
 20
78.7823
 30
0.0
 11
51.1955
 21
78.7823
 31
0.0
  0
LINE
  8
0
 62
     0
 10
51.1955
 20
78.7823
 30
0.0
 11
51.1955
 21
79.7828
 31
0.0
  0
LINE
  8
0
 62
     0
 10
51.1955
 20
79.7828
 30
0.0
 11
37.1962
 21
79.7828
 31
0.0
  0
LINE
  8
0
 62
     0
 10
13.3821
 20
79.7828
 30
0.0
 11
13.3821
 21
78.7823
 31
0.0
  0
LINE
  8
0
 62
     0
 10
13.3821
 20
78.7823
 30
0.0
 11
12.5829
 21
78.7823
 31
0.0
  0
LINE
  8
0
 62
     0
 10
12.5829
 20
78.7823
 30
0.0
 11
12.5829
 21
75.6818
 31
0.0
  0
LINE
  8
0
 62
     0
 10
12.5829
 20
75.6818
 30
0.0
 11
13.3821
 21
75.6818
 31
0.0
  0
LINE
  8
0
 62
     0
 10
13.3821
 20
75.6818
 30
0.0
 11
13.3821
 21
69.8817
 31
0.0
  0
LINE
  8
0
 62
     0
 10
13.3821
 20
69.8817
 30
0.0
 11
12.5829
 21
69.8817
 31
0.0
  0
LINE
  8
0
 62
     0
 10
12.5829
 20
69.8817
 30
0.0
 11
12.5829
 21
66.7826
 31
0.0
  0
LINE
  8
0
 62
     0
 10
12.5829
 20
66.7826
 30
0.0
 11
13.3821
 21
66.7826
 31
0.0
  0
LINE
  8
0
 62
     0
 10
13.3821
 20
66.7826
 30
0.0
 11
13.3821
 21
65.7821
 31
0.0
  0
LINE
  8
0
 62
     0
 10
13.3821
 20
65.7821
 30
0.0
 11
27.383
 21
65.7821
 31
0.0
  0
LINE
  8
0
 62
     0
 10
27.383
 20
65.7821
 30
0.0
 11
27.383
 21
66.7826
 31
0.0
  0
LINE
  8
0
 62
     0
 10
27.383
 20
66.7826
 30
0.0
 11
28.1823
 21
66.7826
 31
0.0
  0
LINE
  8
0
 62
     0
 10
28.1823
 20
66.7826
 30
0.0
 11
28.1823
 21
69.8817
 31
0.0
  0
LINE
  8
0
 62
     0
 10
28.1823
 20
69.8817
 30
0.0
 11
27.383
 21
69.8817
 31
0.0
  0
LINE
  8
0
 62
     0
 10
27.383
 20
69.8817
 30
0.0
 11
27.383
 21
75.6818
 31
0.0
  0
LINE
  8
0
 62
     0
 10
27.383
 20
75.6818
 30
0.0
 11
28.1823
 21
75.6818
 31
0.0
  0
LINE
  8
0
 62
     0
 10
28.1823
 20
75.6818
 30
0.0
 11
28.1823
 21
78.7823
 31
0.0
  0
LINE
  8
0
 62
     0
 10
28.1823
 20
78.7823
 30
0.0
 11
27.383
 21
78.7823
 31
0.0
  0
LINE
  8
0
 62
     0
 10
27.383
 20
78.7823
 30
0.0
 11
27.383
 21
79.7828
 31
0.0
  0
LINE
  8
0
 62
     0
 10
27.383
 20
79.7828
 30
0.0
 11
13.3821
 21
79.7828
 31
0.0
  0
LINE
  8
0
 62
     0
 10
265.796
 20
98.8328
 30
0.0
 11
265.796
 21
97.8323
 31
0.0
  0
LINE
  8
0
 62
     0
 10
265.796
 20
97.8323
 30
0.0
 11
264.995
 21
97.8323
 31
0.0
  0
LINE
  8
0
 62
     0
 10
264.995
 20
97.8323
 30
0.0
 11
264.995
 21
94.7318
 31
0.0
  0
LINE
  8
0
 62
     0
 10
264.995
 20
94.7318
 30
0.0
 11
265.796
 21
94.7318
 31
0.0
  0
LINE
  8
0
 62
     0
 10
265.796
 20
94.7318
 30
0.0
 11
265.796
 21
94.1324
 31
0.0
  0
LINE
  8
0
 62
     0
 10
265.796
 20
94.1324
 30
0.0
 11
264.27
 21
94.1324
 31
0.0
  0
LINE
  8
0
 62
     0
 10
264.27
 20
94.1324
 30
0.0
 11
264.27
 21
97.3624
 31
0.0
  0
LINE
  8
0
 62
     0
 10
264.27
 20
97.3624
 30
0.0
 11
262.545
 21
97.3624
 31
0.0
  0
LINE
  8
0
 62
     0
 10
262.545
 20
97.3624
 30
0.0
 11
262.545
 21
98.2818
 31
0.0
  0
LINE
  8
0
 62
     0
 10
262.545
 20
98.2818
 30
0.0
 11
259.245
 21
98.2818
 31
0.0
  0
LINE
  8
0
 62
     0
 10
259.245
 20
98.2818
 30
0.0
 11
259.245
 21
97.3624
 31
0.0
  0
LINE
  8
0
 62
     0
 10
259.245
 20
97.3624
 30
0.0
 11
257.521
 21
97.3624
 31
0.0
  0
LINE
  8
0
 62
     0
 10
257.521
 20
97.3624
 30
0.0
 11
257.521
 21
94.1324
 31
0.0
  0
LINE
  8
0
 62
     0
 10
257.521
 20
94.1324
 30
0.0
 11
256.696
 21
94.1324
 31
0.0
  0
LINE
  8
0
 62
     0
 10
256.696
 20
94.1324
 30
0.0
 11
256.696
 21
91.3324
 31
0.0
  0
LINE
  8
0
 62
     0
 10
256.696
 20
91.3324
 30
0.0
 11
257.521
 21
91.3324
 31
0.0
  0
LINE
  8
0
 62
     0
 10
257.521
 20
91.3324
 30
0.0
 11
257.521
 21
85.0621
 31
0.0
  0
LINE
  8
0
 62
     0
 10
257.521
 20
85.0621
 30
0.0
 11
259.245
 21
85.0621
 31
0.0
  0
LINE
  8
0
 62
     0
 10
259.245
 20
85.0621
 30
0.0
 11
259.245
 21
84.0825
 31
0.0
  0
LINE
  8
0
 62
     0
 10
259.245
 20
84.0825
 30
0.0
 11
262.545
 21
84.0825
 31
0.0
  0
LINE
  8
0
 62
     0
 10
262.545
 20
84.0825
 30
0.0
 11
262.545
 21
85.0621
 31
0.0
  0
LINE
  8
0
 62
     0
 10
262.545
 20
85.0621
 30
0.0
 11
264.27
 21
85.0621
 31
0.0
  0
LINE
  8
0
 62
     0
 10
264.27
 20
85.0621
 30
0.0
 11
264.27
 21
89.5325
 31
0.0
  0
LINE
  8
0
 62
     0
 10
264.27
 20
89.5325
 30
0.0
 11
265.796
 21
89.5325
 31
0.0
  0
LINE
  8
0
 62
     0
 10
265.796
 20
89.5325
 30
0.0
 11
265.796
 21
88.9317
 31
0.0
  0
LINE
  8
0
 62
     0
 10
265.796
 20
88.9317
 30
0.0
 11
264.995
 21
88.9317
 31
0.0
  0
LINE
  8
0
 62
     0
 10
264.995
 20
88.9317
 30
0.0
 11
264.995
 21
85.8326
 31
0.0
  0
LINE
  8
0
 62
     0
 10
264.995
 20
85.8326
 30
0.0
 11
265.796
 21
85.8326
 31
0.0
  0
LINE
  8
0
 62
     0
 10
265.796
 20
85.8326
 30
0.0
 11
265.796
 21
84.8321
 31
0.0
  0
LINE
  8
0
 62
     0
 10
265.796
 20
84.8321
 30
0.0
 11
279.795
 21
84.8321
 31
0.0
  0
LINE
  8
0
 62
     0
 10
279.795
 20
84.8321
 30
0.0
 11
279.795
 21
85.8326
 31
0.0
  0
LINE
  8
0
 62
     0
 10
279.795
 20
85.8326
 30
0.0
 11
280.596
 21
85.8326
 31
0.0
  0
LINE
  8
0
 62
     0
 10
280.596
 20
85.8326
 30
0.0
 11
280.596
 21
88.9317
 31
0.0
  0
LINE
  8
0
 62
     0
 10
280.596
 20
88.9317
 30
0.0
 11
279.795
 21
88.9317
 31
0.0
  0
LINE
  8
0
 62
     0
 10
279.795
 20
88.9317
 30
0.0
 11
279.795
 21
89.5325
 31
0.0
  0
LINE
  8
0
 62
     0
 10
279.795
 20
89.5325
 30
0.0
 11
281.321
 21
89.5325
 31
0.0
  0
LINE
  8
0
 62
     0
 10
281.321
 20
89.5325
 30
0.0
 11
281.321
 21
85.0621
 31
0.0
  0
LINE
  8
0
 62
     0
 10
281.321
 20
85.0621
 30
0.0
 11
283.045
 21
85.0621
 31
0.0
  0
LINE
  8
0
 62
     0
 10
283.045
 20
85.0621
 30
0.0
 11
283.045
 21
84.0825
 31
0.0
  0
LINE
  8
0
 62
     0
 10
283.045
 20
84.0825
 30
0.0
 11
286.345
 21
84.0825
 31
0.0
  0
LINE
  8
0
 62
     0
 10
286.345
 20
84.0825
 30
0.0
 11
286.345
 21
85.0621
 31
0.0
  0
LINE
  8
0
 62
     0
 10
286.345
 20
85.0621
 30
0.0
 11
288.071
 21
85.0621
 31
0.0
  0
LINE
  8
0
 62
     0
 10
288.071
 20
85.0621
 30
0.0
 11
288.071
 21
91.3324
 31
0.0
  0
LINE
  8
0
 62
     0
 10
288.071
 20
91.3324
 30
0.0
 11
288.896
 21
91.3324
 31
0.0
  0
LINE
  8
0
 62
     0
 10
288.896
 20
91.3324
 30
0.0
 11
288.896
 21
94.1324
 31
0.0
  0
LINE
  8
0
 62
     0
 10
288.896
 20
94.1324
 30
0.0
 11
288.071
 21
94.1324
 31
0.0
  0
LINE
  8
0
 62
     0
 10
288.071
 20
94.1324
 30
0.0
 11
288.071
 21
97.3624
 31
0.0
  0
LINE
  8
0
 62
     0
 10
288.071
 20
97.3624
 30
0.0
 11
286.345
 21
97.3624
 31
0.0
  0
LINE
  8
0
 62
     0
 10
286.345
 20
97.3624
 30
0.0
 11
286.345
 21
98.2818
 31
0.0
  0
LINE
  8
0
 62
     0
 10
286.345
 20
98.2818
 30
0.0
 11
283.045
 21
98.2818
 31
0.0
  0
LINE
  8
0
 62
     0
 10
283.045
 20
98.2818
 30
0.0
 11
283.045
 21
97.3624
 31
0.0
  0
LINE
  8
0
 62
     0
 10
283.045
 20
97.3624
 30
0.0
 11
281.321
 21
97.3624
 31
0.0
  0
LINE
  8
0
 62
     0
 10
281.321
 20
97.3624
 30
0.0
 11
281.321
 21
94.1324
 31
0.0
  0
LINE
  8
0
 62
     0
 10
281.321
 20
94.1324
 30
0.0
 11
279.795
 21
94.1324
 31
0.0
  0
LINE
  8
0
 62
     0
 10
279.795
 20
94.1324
 30
0.0
 11
279.795
 21
94.7318
 31
0.0
  0
LINE
  8
0
 62
     0
 10
279.795
 20
94.7318
 30
0.0
 11
280.596
 21
94.7318
 31
0.0
  0
LINE
  8
0
 62
     0
 10
280.596
 20
94.7318
 30
0.0
 11
280.596
 21
97.8323
 31
0.0
  0
LINE
  8
0
 62
     0
 10
280.596
 20
97.8323
 30
0.0
 11
279.795
 21
97.8323
 31
0.0
  0
LINE
  8
0
 62
     0
 10
279.795
 20
97.8323
 30
0.0
 11
279.795
 21
98.8328
 31
0.0
  0
LINE
  8
0
 62
     0
 10
279.795
 20
98.8328
 30
0.0
 11
265.796
 21
98.8328
 31
0.0
  0
LINE
  8
0
 62
     0
 10
294.371
 20
98.8328
 30
0.0
 11
294.371
 21
97.8323
 31
0.0
  0
LINE
  8
0
 62
     0
 10
294.371
 20
97.8323
 30
0.0
 11
293.57
 21
97.8323
 31
0.0
  0
LINE
  8
0
 62
     0
 10
293.57
 20
97.8323
 30
0.0
 11
293.57
 21
94.7318
 31
0.0
  0
LINE
  8
0
 62
     0
 10
293.57
 20
94.7318
 30
0.0
 11
294.371
 21
94.7318
 31
0.0
  0
LINE
  8
0
 62
     0
 10
294.371
 20
94.7318
 30
0.0
 11
294.371
 21
88.9317
 31
0.0
  0
LINE
  8
0
 62
     0
 10
294.371
 20
88.9317
 30
0.0
 11
293.57
 21
88.9317
 31
0.0
  0
LINE
  8
0
 62
     0
 10
293.57
 20
88.9317
 30
0.0
 11
293.57
 21
85.8326
 31
0.0
  0
LINE
  8
0
 62
     0
 10
293.57
 20
85.8326
 30
0.0
 11
294.371
 21
85.8326
 31
0.0
  0
LINE
  8
0
 62
     0
 10
294.371
 20
85.8326
 30
0.0
 11
294.371
 21
84.8321
 31
0.0
  0
LINE
  8
0
 62
     0
 10
294.371
 20
84.8321
 30
0.0
 11
308.37
 21
84.8321
 31
0.0
  0
LINE
  8
0
 62
     0
 10
308.37
 20
84.8321
 30
0.0
 11
308.37
 21
85.8326
 31
0.0
  0
LINE
  8
0
 62
     0
 10
308.37
 20
85.8326
 30
0.0
 11
309.171
 21
85.8326
 31
0.0
  0
LINE
  8
0
 62
     0
 10
309.171
 20
85.8326
 30
0.0
 11
309.171
 21
88.9317
 31
0.0
  0
LINE
  8
0
 62
     0
 10
309.171
 20
88.9317
 30
0.0
 11
308.37
 21
88.9317
 31
0.0
  0
LINE
  8
0
 62
     0
 10
308.37
 20
88.9317
 30
0.0
 11
308.37
 21
94.7318
 31
0.0
  0
LINE
  8
0
 62
     0
 10
308.37
 20
94.7318
 30
0.0
 11
309.171
 21
94.7318
 31
0.0
  0
LINE
  8
0
 62
     0
 10
309.171
 20
94.7318
 30
0.0
 11
309.171
 21
97.8323
 31
0.0
  0
LINE
  8
0
 62
     0
 10
309.171
 20
97.8323
 30
0.0
 11
308.37
 21
97.8323
 31
0.0
  0
LINE
  8
0
 62
     0
 10
308.37
 20
97.8323
 30
0.0
 11
308.37
 21
98.8328
 31
0.0
  0
LINE
  8
0
 62
     0
 10
308.37
 20
98.8328
 30
0.0
 11
294.371
 21
98.8328
 31
0.0
  0
LINE
  8
0
 62
     0
 10
237.221
 20
98.8328
 30
0.0
 11
237.221
 21
97.8323
 31
0.0
  0
LINE
  8
0
 62
     0
 10
237.221
 20
97.8323
 30
0.0
 11
236.42
 21
97.8323
 31
0.0
  0
LINE
  8
0
 62
     0
 10
236.42
 20
97.8323
 30
0.0
 11
236.42
 21
94.7318
 31
0.0
  0
LINE
  8
0
 62
     0
 10
236.42
 20
94.7318
 30
0.0
 11
237.221
 21
94.7318
 31
0.0
  0
LINE
  8
0
 62
     0
 10
237.221
 20
94.7318
 30
0.0
 11
237.221
 21
88.9317
 31
0.0
  0
LINE
  8
0
 62
     0
 10
237.221
 20
88.9317
 30
0.0
 11
236.42
 21
88.9317
 31
0.0
  0
LINE
  8
0
 62
     0
 10
236.42
 20
88.9317
 30
0.0
 11
236.42
 21
85.8326
 31
0.0
  0
LINE
  8
0
 62
     0
 10
236.42
 20
85.8326
 30
0.0
 11
237.221
 21
85.8326
 31
0.0
  0
LINE
  8
0
 62
     0
 10
237.221
 20
85.8326
 30
0.0
 11
237.221
 21
84.8321
 31
0.0
  0
LINE
  8
0
 62
     0
 10
237.221
 20
84.8321
 30
0.0
 11
251.22
 21
84.8321
 31
0.0
  0
LINE
  8
0
 62
     0
 10
251.22
 20
84.8321
 30
0.0
 11
251.22
 21
85.8326
 31
0.0
  0
LINE
  8
0
 62
     0
 10
251.22
 20
85.8326
 30
0.0
 11
252.021
 21
85.8326
 31
0.0
  0
LINE
  8
0
 62
     0
 10
252.021
 20
85.8326
 30
0.0
 11
252.021
 21
88.9317
 31
0.0
  0
LINE
  8
0
 62
     0
 10
252.021
 20
88.9317
 30
0.0
 11
251.22
 21
88.9317
 31
0.0
  0
LINE
  8
0
 62
     0
 10
251.22
 20
88.9317
 30
0.0
 11
251.22
 21
94.7318
 31
0.0
  0
LINE
  8
0
 62
     0
 10
251.22
 20
94.7318
 30
0.0
 11
252.021
 21
94.7318
 31
0.0
  0
LINE
  8
0
 62
     0
 10
252.021
 20
94.7318
 30
0.0
 11
252.021
 21
97.8323
 31
0.0
  0
LINE
  8
0
 62
     0
 10
252.021
 20
97.8323
 30
0.0
 11
251.22
 21
97.8323
 31
0.0
  0
LINE
  8
0
 62
     0
 10
251.22
 20
97.8323
 30
0.0
 11
251.22
 21
98.8328
 31
0.0
  0
LINE
  8
0
 62
     0
 10
251.22
 20
98.8328
 30
0.0
 11
237.221
 21
98.8328
 31
0.0
  0
LINE
  8
0
 62
     0
 10
218.171
 20
98.8328
 30
0.0
 11
218.171
 21
97.8323
 31
0.0
  0
LINE
  8
0
 62
     0
 10
218.171
 20
97.8323
 30
0.0
 11
217.37
 21
97.8323
 31
0.0
  0
LINE
  8
0
 62
     0
 10
217.37
 20
97.8323
 30
0.0
 11
217.37
 21
94.7318
 31
0.0
  0
LINE
  8
0
 62
     0
 10
217.37
 20
94.7318
 30
0.0
 11
218.171
 21
94.7318
 31
0.0
  0
LINE
  8
0
 62
     0
 10
218.171
 20
94.7318
 30
0.0
 11
218.171
 21
88.9317
 31
0.0
  0
LINE
  8
0
 62
     0
 10
218.171
 20
88.9317
 30
0.0
 11
217.37
 21
88.9317
 31
0.0
  0
LINE
  8
0
 62
     0
 10
217.37
 20
88.9317
 30
0.0
 11
217.37
 21
85.8326
 31
0.0
  0
LINE
  8
0
 62
     0
 10
217.37
 20
85.8326
 30
0.0
 11
218.171
 21
85.8326
 31
0.0
  0
LINE
  8
0
 62
     0
 10
218.171
 20
85.8326
 30
0.0
 11
218.171
 21
84.8321
 31
0.0
  0
LINE
  8
0
 62
     0
 10
218.171
 20
84.8321
 30
0.0
 11
232.17
 21
84.8321
 31
0.0
  0
LINE
  8
0
 62
     0
 10
232.17
 20
84.8321
 30
0.0
 11
232.17
 21
85.8326
 31
0.0
  0
LINE
  8
0
 62
     0
 10
232.17
 20
85.8326
 30
0.0
 11
232.971
 21
85.8326
 31
0.0
  0
LINE
  8
0
 62
     0
 10
232.971
 20
85.8326
 30
0.0
 11
232.971
 21
88.9317
 31
0.0
  0
LINE
  8
0
 62
     0
 10
232.971
 20
88.9317
 30
0.0
 11
232.17
 21
88.9317
 31
0.0
  0
LINE
  8
0
 62
     0
 10
232.17
 20
88.9317
 30
0.0
 11
232.17
 21
94.7318
 31
0.0
  0
LINE
  8
0
 62
     0
 10
232.17
 20
94.7318
 30
0.0
 11
232.971
 21
94.7318
 31
0.0
  0
LINE
  8
0
 62
     0
 10
232.971
 20
94.7318
 30
0.0
 11
232.971
 21
97.8323
 31
0.0
  0
LINE
  8
0
 62
     0
 10
232.971
 20
97.8323
 30
0.0
 11
232.17
 21
97.8323
 31
0.0
  0
LINE
  8
0
 62
     0
 10
232.17
 20
97.8323
 30
0.0
 11
232.17
 21
98.8328
 31
0.0
  0
LINE
  8
0
 62
     0
 10
232.17
 20
98.8328
 30
0.0
 11
218.171
 21
98.8328
 31
0.0
  0
LINE
  8
0
 62
     0
 10
199.121
 20
98.8328
 30
0.0
 11
199.121
 21
97.8323
 31
0.0
  0
LINE
  8
0
 62
     0
 10
199.121
 20
97.8323
 30
0.0
 11
198.32
 21
97.8323
 31
0.0
  0
LINE
  8
0
 62
     0
 10
198.32
 20
97.8323
 30
0.0
 11
198.32
 21
94.7318
 31
0.0
  0
LINE
  8
0
 62
     0
 10
198.32
 20
94.7318
 30
0.0
 11
199.121
 21
94.7318
 31
0.0
  0
LINE
  8
0
 62
     0
 10
199.121
 20
94.7318
 30
0.0
 11
199.121
 21
88.9317
 31
0.0
  0
LINE
  8
0
 62
     0
 10
199.121
 20
88.9317
 30
0.0
 11
198.32
 21
88.9317
 31
0.0
  0
LINE
  8
0
 62
     0
 10
198.32
 20
88.9317
 30
0.0
 11
198.32
 21
85.8326
 31
0.0
  0
LINE
  8
0
 62
     0
 10
198.32
 20
85.8326
 30
0.0
 11
199.121
 21
85.8326
 31
0.0
  0
LINE
  8
0
 62
     0
 10
199.121
 20
85.8326
 30
0.0
 11
199.121
 21
84.8321
 31
0.0
  0
LINE
  8
0
 62
     0
 10
199.121
 20
84.8321
 30
0.0
 11
213.12
 21
84.8321
 31
0.0
  0
LINE
  8
0
 62
     0
 10
213.12
 20
84.8321
 30
0.0
 11
213.12
 21
85.8326
 31
0.0
  0
LINE
  8
0
 62
     0
 10
213.12
 20
85.8326
 30
0.0
 11
213.921
 21
85.8326
 31
0.0
  0
LINE
  8
0
 62
     0
 10
213.921
 20
85.8326
 30
0.0
 11
213.921
 21
88.9317
 31
0.0
  0
LINE
  8
0
 62
     0
 10
213.921
 20
88.9317
 30
0.0
 11
213.12
 21
88.9317
 31
0.0
  0
LINE
  8
0
 62
     0
 10
213.12
 20
88.9317
 30
0.0
 11
213.12
 21
94.7318
 31
0.0
  0
LINE
  8
0
 62
     0
 10
213.12
 20
94.7318
 30
0.0
 11
213.921
 21
94.7318
 31
0.0
  0
LINE
  8
0
 62
     0
 10
213.921
 20
94.7318
 30
0.0
 11
213.921
 21
97.8323
 31
0.0
  0
LINE
  8
0
 62
     0
 10
213.921
 20
97.8323
 30
0.0
 11
213.12
 21
97.8323
 31
0.0
  0
LINE
  8
0
 62
     0
 10
213.12
 20
97.8323
 30
0.0
 11
213.12
 21
98.8328
 31
0.0
  0
LINE
  8
0
 62
     0
 10
213.12
 20
98.8328
 30
0.0
 11
199.121
 21
98.8328
 31
0.0
  0
LINE
  8
0
 62
     0
 10
180.071
 20
98.8328
 30
0.0
 11
180.071
 21
97.8323
 31
0.0
  0
LINE
  8
0
 62
     0
 10
180.071
 20
97.8323
 30
0.0
 11
179.27
 21
97.8323
 31
0.0
  0
LINE
  8
0
 62
     0
 10
179.27
 20
97.8323
 30
0.0
 11
179.27
 21
94.7318
 31
0.0
  0
LINE
  8
0
 62
     0
 10
179.27
 20
94.7318
 30
0.0
 11
180.071
 21
94.7318
 31
0.0
  0
LINE
  8
0
 62
     0
 10
180.071
 20
94.7318
 30
0.0
 11
180.071
 21
88.9317
 31
0.0
  0
LINE
  8
0
 62
     0
 10
180.071
 20
88.9317
 30
0.0
 11
179.27
 21
88.9317
 31
0.0
  0
LINE
  8
0
 62
     0
 10
179.27
 20
88.9317
 30
0.0
 11
179.27
 21
85.8326
 31
0.0
  0
LINE
  8
0
 62
     0
 10
179.27
 20
85.8326
 30
0.0
 11
180.071
 21
85.8326
 31
0.0
  0
LINE
  8
0
 62
     0
 10
180.071
 20
85.8326
 30
0.0
 11
180.071
 21
84.8321
 31
0.0
  0
LINE
  8
0
 62
     0
 10
180.071
 20
84.8321
 30
0.0
 11
194.07
 21
84.8321
 31
0.0
  0
LINE
  8
0
 62
     0
 10
194.07
 20
84.8321
 30
0.0
 11
194.07
 21
85.8326
 31
0.0
  0
LINE
  8
0
 62
     0
 10
194.07
 20
85.8326
 30
0.0
 11
194.871
 21
85.8326
 31
0.0
  0
LINE
  8
0
 62
     0
 10
194.871
 20
85.8326
 30
0.0
 11
194.871
 21
88.9317
 31
0.0
  0
LINE
  8
0
 62
     0
 10
194.871
 20
88.9317
 30
0.0
 11
194.07
 21
88.9317
 31
0.0
  0
LINE
  8
0
 62
     0
 10
194.07
 20
88.9317
 30
0.0
 11
194.07
 21
94.7318
 31
0.0
  0
LINE
  8
0
 62
     0
 10
194.07
 20
94.7318
 30
0.0
 11
194.871
 21
94.7318
 31
0.0
  0
LINE
  8
0
 62
     0
 10
194.871
 20
94.7318
 30
0.0
 11
194.871
 21
97.8323
 31
0.0
  0
LINE
  8
0
 62
     0
 10
194.871
 20
97.8323
 30
0.0
 11
194.07
 21
97.8323
 31
0.0
  0
LINE
  8
0
 62
     0
 10
194.07
 20
97.8323
 30
0.0
 11
194.07
 21
98.8328
 31
0.0
  0
LINE
  8
0
 62
     0
 10
194.07
 20
98.8328
 30
0.0
 11
180.071
 21
98.8328
 31
0.0
  0
LINE
  8
0
 62
     0
 10
161.021
 20
98.8328
 30
0.0
 11
161.021
 21
97.8323
 31
0.0
  0
LINE
  8
0
 62
     0
 10
161.021
 20
97.8323
 30
0.0
 11
160.22
 21
97.8323
 31
0.0
  0
LINE
  8
0
 62
     0
 10
160.22
 20
97.8323
 30
0.0
 11
160.22
 21
94.7318
 31
0.0
  0
LINE
  8
0
 62
     0
 10
160.22
 20
94.7318
 30
0.0
 11
161.021
 21
94.7318
 31
0.0
  0
LINE
  8
0
 62
     0
 10
161.021
 20
94.7318
 30
0.0
 11
161.021
 21
88.9317
 31
0.0
  0
LINE
  8
0
 62
     0
 10
161.021
 20
88.9317
 30
0.0
 11
160.22
 21
88.9317
 31
0.0
  0
LINE
  8
0
 62
     0
 10
160.22
 20
88.9317
 30
0.0
 11
160.22
 21
85.8326
 31
0.0
  0
LINE
  8
0
 62
     0
 10
160.22
 20
85.8326
 30
0.0
 11
161.021
 21
85.8326
 31
0.0
  0
LINE
  8
0
 62
     0
 10
161.021
 20
85.8326
 30
0.0
 11
161.021
 21
84.8321
 31
0.0
  0
LINE
  8
0
 62
     0
 10
161.021
 20
84.8321
 30
0.0
 11
175.02
 21
84.8321
 31
0.0
  0
LINE
  8
0
 62
     0
 10
175.02
 20
84.8321
 30
0.0
 11
175.02
 21
85.8326
 31
0.0
  0
LINE
  8
0
 62
     0
 10
175.02
 20
85.8326
 30
0.0
 11
175.821
 21
85.8326
 31
0.0
  0
LINE
  8
0
 62
     0
 10
175.821
 20
85.8326
 30
0.0
 11
175.821
 21
88.9317
 31
0.0
  0
LINE
  8
0
 62
     0
 10
175.821
 20
88.9317
 30
0.0
 11
175.02
 21
88.9317
 31
0.0
  0
LINE
  8
0
 62
     0
 10
175.02
 20
88.9317
 30
0.0
 11
175.02
 21
94.7318
 31
0.0
  0
LINE
  8
0
 62
     0
 10
175.02
 20
94.7318
 30
0.0
 11
175.821
 21
94.7318
 31
0.0
  0
LINE
  8
0
 62
     0
 10
175.821
 20
94.7318
 30
0.0
 11
175.821
 21
97.8323
 31
0.0
  0
LINE
  8
0
 62
     0
 10
175.821
 20
97.8323
 30
0.0
 11
175.02
 21
97.8323
 31
0.0
  0
LINE
  8
0
 62
     0
 10
175.02
 20
97.8323
 30
0.0
 11
175.02
 21
98.8328
 31
0.0
  0
LINE
  8
0
 62
     0
 10
175.02
 20
98.8328
 30
0.0
 11
161.021
 21
98.8328
 31
0.0
  0
LINE
  8
0
 62
     0
 10
141.971
 20
98.8328
 30
0.0
 11
141.971
 21
97.8323
 31
0.0
  0
LINE
  8
0
 62
     0
 10
141.971
 20
97.8323
 30
0.0
 11
141.17
 21
97.8323
 31
0.0
  0
LINE
  8
0
 62
     0
 10
141.17
 20
97.8323
 30
0.0
 11
141.17
 21
94.7318
 31
0.0
  0
LINE
  8
0
 62
     0
 10
141.17
 20
94.7318
 30
0.0
 11
141.971
 21
94.7318
 31
0.0
  0
LINE
  8
0
 62
     0
 10
141.971
 20
94.7318
 30
0.0
 11
141.971
 21
88.9317
 31
0.0
  0
LINE
  8
0
 62
     0
 10
141.971
 20
88.9317
 30
0.0
 11
141.17
 21
88.9317
 31
0.0
  0
LINE
  8
0
 62
     0
 10
141.17
 20
88.9317
 30
0.0
 11
141.17
 21
85.8326
 31
0.0
  0
LINE
  8
0
 62
     0
 10
141.17
 20
85.8326
 30
0.0
 11
141.971
 21
85.8326
 31
0.0
  0
LINE
  8
0
 62
     0
 10
141.971
 20
85.8326
 30
0.0
 11
141.971
 21
84.8321
 31
0.0
  0
LINE
  8
0
 62
     0
 10
141.971
 20
84.8321
 30
0.0
 11
155.97
 21
84.8321
 31
0.0
  0
LINE
  8
0
 62
     0
 10
155.97
 20
84.8321
 30
0.0
 11
155.97
 21
85.8326
 31
0.0
  0
LINE
  8
0
 62
     0
 10
155.97
 20
85.8326
 30
0.0
 11
156.771
 21
85.8326
 31
0.0
  0
LINE
  8
0
 62
     0
 10
156.771
 20
85.8326
 30
0.0
 11
156.771
 21
88.9317
 31
0.0
  0
LINE
  8
0
 62
     0
 10
156.771
 20
88.9317
 30
0.0
 11
155.97
 21
88.9317
 31
0.0
  0
LINE
  8
0
 62
     0
 10
155.97
 20
88.9317
 30
0.0
 11
155.97
 21
94.7318
 31
0.0
  0
LINE
  8
0
 62
     0
 10
155.97
 20
94.7318
 30
0.0
 11
156.771
 21
94.7318
 31
0.0
  0
LINE
  8
0
 62
     0
 10
156.771
 20
94.7318
 30
0.0
 11
156.771
 21
97.8323
 31
0.0
  0
LINE
  8
0
 62
     0
 10
156.771
 20
97.8323
 30
0.0
 11
155.97
 21
97.8323
 31
0.0
  0
LINE
  8
0
 62
     0
 10
155.97
 20
97.8323
 30
0.0
 11
155.97
 21
98.8328
 31
0.0
  0
LINE
  8
0
 62
     0
 10
155.97
 20
98.8328
 30
0.0
 11
141.971
 21
98.8328
 31
0.0
  0
LINE
  8
0
 62
     0
 10
122.92
 20
98.8328
 30
0.0
 11
122.92
 21
97.8323
 31
0.0
  0
LINE
  8
0
 62
     0
 10
122.92
 20
97.8323
 30
0.0
 11
122.119
 21
97.8323
 31
0.0
  0
LINE
  8
0
 62
     0
 10
122.119
 20
97.8323
 30
0.0
 11
122.119
 21
94.7318
 31
0.0
  0
LINE
  8
0
 62
     0
 10
122.119
 20
94.7318
 30
0.0
 11
122.92
 21
94.7318
 31
0.0
  0
LINE
  8
0
 62
     0
 10
122.92
 20
94.7318
 30
0.0
 11
122.92
 21
88.9317
 31
0.0
  0
LINE
  8
0
 62
     0
 10
122.92
 20
88.9317
 30
0.0
 11
122.119
 21
88.9317
 31
0.0
  0
LINE
  8
0
 62
     0
 10
122.119
 20
88.9317
 30
0.0
 11
122.119
 21
85.8326
 31
0.0
  0
LINE
  8
0
 62
     0
 10
122.119
 20
85.8326
 30
0.0
 11
122.92
 21
85.8326
 31
0.0
  0
LINE
  8
0
 62
     0
 10
122.92
 20
85.8326
 30
0.0
 11
122.92
 21
84.8321
 31
0.0
  0
LINE
  8
0
 62
     0
 10
122.92
 20
84.8321
 30
0.0
 11
136.92
 21
84.8321
 31
0.0
  0
LINE
  8
0
 62
     0
 10
136.92
 20
84.8321
 30
0.0
 11
136.92
 21
85.8326
 31
0.0
  0
LINE
  8
0
 62
     0
 10
136.92
 20
85.8326
 30
0.0
 11
137.721
 21
85.8326
 31
0.0
  0
LINE
  8
0
 62
     0
 10
137.721
 20
85.8326
 30
0.0
 11
137.721
 21
88.9317
 31
0.0
  0
LINE
  8
0
 62
     0
 10
137.721
 20
88.9317
 30
0.0
 11
136.92
 21
88.9317
 31
0.0
  0
LINE
  8
0
 62
     0
 10
136.92
 20
88.9317
 30
0.0
 11
136.92
 21
94.7318
 31
0.0
  0
LINE
  8
0
 62
     0
 10
136.92
 20
94.7318
 30
0.0
 11
137.721
 21
94.7318
 31
0.0
  0
LINE
  8
0
 62
     0
 10
137.721
 20
94.7318
 30
0.0
 11
137.721
 21
97.8323
 31
0.0
  0
LINE
  8
0
 62
     0
 10
137.721
 20
97.8323
 30
0.0
 11
136.92
 21
97.8323
 31
0.0
  0
LINE
  8
0
 62
     0
 10
136.92
 20
97.8323
 30
0.0
 11
136.92
 21
98.8328
 31
0.0
  0
LINE
  8
0
 62
     0
 10
136.92
 20
98.8328
 30
0.0
 11
122.92
 21
98.8328
 31
0.0
  0
LINE
  8
0
 62
     0
 10
103.87
 20
98.8328
 30
0.0
 11
103.87
 21
97.8323
 31
0.0
  0
LINE
  8
0
 62
     0
 10
103.87
 20
97.8323
 30
0.0
 11
103.07
 21
97.8323
 31
0.0
  0
LINE
  8
0
 62
     0
 10
103.07
 20
97.8323
 30
0.0
 11
103.07
 21
94.7318
 31
0.0
  0
LINE
  8
0
 62
     0
 10
103.07
 20
94.7318
 30
0.0
 11
103.87
 21
94.7318
 31
0.0
  0
LINE
  8
0
 62
     0
 10
103.87
 20
94.7318
 30
0.0
 11
103.87
 21
88.9317
 31
0.0
  0
LINE
  8
0
 62
     0
 10
103.87
 20
88.9317
 30
0.0
 11
103.07
 21
88.9317
 31
0.0
  0
LINE
  8
0
 62
     0
 10
103.07
 20
88.9317
 30
0.0
 11
103.07
 21
85.8326
 31
0.0
  0
LINE
  8
0
 62
     0
 10
103.07
 20
85.8326
 30
0.0
 11
103.87
 21
85.8326
 31
0.0
  0
LINE
  8
0
 62
     0
 10
103.87
 20
85.8326
 30
0.0
 11
103.87
 21
84.8321
 31
0.0
  0
LINE
  8
0
 62
     0
 10
103.87
 20
84.8321
 30
0.0
 11
117.869
 21
84.8321
 31
0.0
  0
LINE
  8
0
 62
     0
 10
117.869
 20
84.8321
 30
0.0
 11
117.869
 21
85.8326
 31
0.0
  0
LINE
  8
0
 62
     0
 10
117.869
 20
85.8326
 30
0.0
 11
118.67
 21
85.8326
 31
0.0
  0
LINE
  8
0
 62
     0
 10
118.67
 20
85.8326
 30
0.0
 11
118.67
 21
88.9317
 31
0.0
  0
LINE
  8
0
 62
     0
 10
118.67
 20
88.9317
 30
0.0
 11
117.869
 21
88.9317
 31
0.0
  0
LINE
  8
0
 62
     0
 10
117.869
 20
88.9317
 30
0.0
 11
117.869
 21
94.7318
 31
0.0
  0
LINE
  8
0
 62
     0
 10
117.869
 20
94.7318
 30
0.0
 11
118.67
 21
94.7318
 31
0.0
  0
LINE
  8
0
 62
     0
 10
118.67
 20
94.7318
 30
0.0
 11
118.67
 21
97.8323
 31
0.0
  0
LINE
  8
0
 62
     0
 10
118.67
 20
97.8323
 30
0.0
 11
117.869
 21
97.8323
 31
0.0
  0
LINE
  8
0
 62
     0
 10
117.869
 20
97.8323
 30
0.0
 11
117.869
 21
98.8328
 31
0.0
  0
LINE
  8
0
 62
     0
 10
117.869
 20
98.8328
 30
0.0
 11
103.87
 21
98.8328
 31
0.0
  0
LINE
  8
0
 62
     0
 10
84.8212
 20
98.8328
 30
0.0
 11
84.8212
 21
97.8323
 31
0.0
  0
LINE
  8
0
 62
     0
 10
84.8212
 20
97.8323
 30
0.0
 11
84.0204
 21
97.8323
 31
0.0
  0
LINE
  8
0
 62
     0
 10
84.0204
 20
97.8323
 30
0.0
 11
84.0204
 21
94.7318
 31
0.0
  0
LINE
  8
0
 62
     0
 10
84.0204
 20
94.7318
 30
0.0
 11
84.8212
 21
94.7318
 31
0.0
  0
LINE
  8
0
 62
     0
 10
84.8212
 20
94.7318
 30
0.0
 11
84.8212
 21
88.9317
 31
0.0
  0
LINE
  8
0
 62
     0
 10
84.8212
 20
88.9317
 30
0.0
 11
84.0204
 21
88.9317
 31
0.0
  0
LINE
  8
0
 62
     0
 10
84.0204
 20
88.9317
 30
0.0
 11
84.0204
 21
85.8326
 31
0.0
  0
LINE
  8
0
 62
     0
 10
84.0204
 20
85.8326
 30
0.0
 11
84.8212
 21
85.8326
 31
0.0
  0
LINE
  8
0
 62
     0
 10
84.8212
 20
85.8326
 30
0.0
 11
84.8212
 21
84.8321
 31
0.0
  0
LINE
  8
0
 62
     0
 10
84.8212
 20
84.8321
 30
0.0
 11
98.8205
 21
84.8321
 31
0.0
  0
LINE
  8
0
 62
     0
 10
98.8205
 20
84.8321
 30
0.0
 11
98.8205
 21
85.8326
 31
0.0
  0
LINE
  8
0
 62
     0
 10
98.8205
 20
85.8326
 30
0.0
 11
99.6199
 21
85.8326
 31
0.0
  0
LINE
  8
0
 62
     0
 10
99.6199
 20
85.8326
 30
0.0
 11
99.6199
 21
88.9317
 31
0.0
  0
LINE
  8
0
 62
     0
 10
99.6199
 20
88.9317
 30
0.0
 11
98.8205
 21
88.9317
 31
0.0
  0
LINE
  8
0
 62
     0
 10
98.8205
 20
88.9317
 30
0.0
 11
98.8205
 21
94.7318
 31
0.0
  0
LINE
  8
0
 62
     0
 10
98.8205
 20
94.7318
 30
0.0
 11
99.6199
 21
94.7318
 31
0.0
  0
LINE
  8
0
 62
     0
 10
99.6199
 20
94.7318
 30
0.0
 11
99.6199
 21
97.8323
 31
0.0
  0
LINE
  8
0
 62
     0
 10
99.6199
 20
97.8323
 30
0.0
 11
98.8205
 21
97.8323
 31
0.0
  0
LINE
  8
0
 62
     0
 10
98.8205
 20
97.8323
 30
0.0
 11
98.8205
 21
98.8328
 31
0.0
  0
LINE
  8
0
 62
     0
 10
98.8205
 20
98.8328
 30
0.0
 11
84.8212
 21
98.8328
 31
0.0
  0
LINE
  8
0
 62
     0
 10
65.7712
 20
98.8328
 30
0.0
 11
65.7712
 21
97.8323
 31
0.0
  0
LINE
  8
0
 62
     0
 10
65.7712
 20
97.8323
 30
0.0
 11
64.9704
 21
97.8323
 31
0.0
  0
LINE
  8
0
 62
     0
 10
64.9704
 20
97.8323
 30
0.0
 11
64.9704
 21
94.7318
 31
0.0
  0
LINE
  8
0
 62
     0
 10
64.9704
 20
94.7318
 30
0.0
 11
65.7712
 21
94.7318
 31
0.0
  0
LINE
  8
0
 62
     0
 10
65.7712
 20
94.7318
 30
0.0
 11
65.7712
 21
88.9317
 31
0.0
  0
LINE
  8
0
 62
     0
 10
65.7712
 20
88.9317
 30
0.0
 11
64.9704
 21
88.9317
 31
0.0
  0
LINE
  8
0
 62
     0
 10
64.9704
 20
88.9317
 30
0.0
 11
64.9704
 21
85.8326
 31
0.0
  0
LINE
  8
0
 62
     0
 10
64.9704
 20
85.8326
 30
0.0
 11
65.7712
 21
85.8326
 31
0.0
  0
LINE
  8
0
 62
     0
 10
65.7712
 20
85.8326
 30
0.0
 11
65.7712
 21
84.8321
 31
0.0
  0
LINE
  8
0
 62
     0
 10
65.7712
 20
84.8321
 30
0.0
 11
79.7705
 21
84.8321
 31
0.0
  0
LINE
  8
0
 62
     0
 10
79.7705
 20
84.8321
 30
0.0
 11
79.7705
 21
85.8326
 31
0.0
  0
LINE
  8
0
 62
     0
 10
79.7705
 20
85.8326
 30
0.0
 11
80.5713
 21
85.8326
 31
0.0
  0
LINE
  8
0
 62
     0
 10
80.5713
 20
85.8326
 30
0.0
 11
80.5713
 21
88.9317
 31
0.0
  0
LINE
  8
0
 62
     0
 10
80.5713
 20
88.9317
 30
0.0
 11
79.7705
 21
88.9317
 31
0.0
  0
LINE
  8
0
 62
     0
 10
79.7705
 20
88.9317
 30
0.0
 11
79.7705
 21
94.7318
 31
0.0
  0
LINE
  8
0
 62
     0
 10
79.7705
 20
94.7318
 30
0.0
 11
80.5713
 21
94.7318
 31
0.0
  0
LINE
  8
0
 62
     0
 10
80.5713
 20
94.7318
 30
0.0
 11
80.5713
 21
97.8323
 31
0.0
  0
LINE
  8
0
 62
     0
 10
80.5713
 20
97.8323
 30
0.0
 11
79.7705
 21
97.8323
 31
0.0
  0
LINE
  8
0
 62
     0
 10
79.7705
 20
97.8323
 30
0.0
 11
79.7705
 21
98.8328
 31
0.0
  0
LINE
  8
0
 62
     0
 10
79.7705
 20
98.8328
 30
0.0
 11
65.7712
 21
98.8328
 31
0.0
  0
LINE
  8
0
 62
     0
 10
46.7212
 20
98.8328
 30
0.0
 11
46.7212
 21
97.8323
 31
0.0
  0
LINE
  8
0
 62
     0
 10
46.7212
 20
97.8323
 30
0.0
 11
45.9204
 21
97.8323
 31
0.0
  0
LINE
  8
0
 62
     0
 10
45.9204
 20
97.8323
 30
0.0
 11
45.9204
 21
94.7318
 31
0.0
  0
LINE
  8
0
 62
     0
 10
45.9204
 20
94.7318
 30
0.0
 11
46.7212
 21
94.7318
 31
0.0
  0
LINE
  8
0
 62
     0
 10
46.7212
 20
94.7318
 30
0.0
 11
46.7212
 21
88.9317
 31
0.0
  0
LINE
  8
0
 62
     0
 10
46.7212
 20
88.9317
 30
0.0
 11
45.9204
 21
88.9317
 31
0.0
  0
LINE
  8
0
 62
     0
 10
45.9204
 20
88.9317
 30
0.0
 11
45.9204
 21
85.8326
 31
0.0
  0
LINE
  8
0
 62
     0
 10
45.9204
 20
85.8326
 30
0.0
 11
46.7212
 21
85.8326
 31
0.0
  0
LINE
  8
0
 62
     0
 10
46.7212
 20
85.8326
 30
0.0
 11
46.7212
 21
84.8321
 31
0.0
  0
LINE
  8
0
 62
     0
 10
46.7212
 20
84.8321
 30
0.0
 11
60.7205
 21
84.8321
 31
0.0
  0
LINE
  8
0
 62
     0
 10
60.7205
 20
84.8321
 30
0.0
 11
60.7205
 21
85.8326
 31
0.0
  0
LINE
  8
0
 62
     0
 10
60.7205
 20
85.8326
 30
0.0
 11
61.5213
 21
85.8326
 31
0.0
  0
LINE
  8
0
 62
     0
 10
61.5213
 20
85.8326
 30
0.0
 11
61.5213
 21
88.9317
 31
0.0
  0
LINE
  8
0
 62
     0
 10
61.5213
 20
88.9317
 30
0.0
 11
60.7205
 21
88.9317
 31
0.0
  0
LINE
  8
0
 62
     0
 10
60.7205
 20
88.9317
 30
0.0
 11
60.7205
 21
94.7318
 31
0.0
  0
LINE
  8
0
 62
     0
 10
60.7205
 20
94.7318
 30
0.0
 11
61.5213
 21
94.7318
 31
0.0
  0
LINE
  8
0
 62
     0
 10
61.5213
 20
94.7318
 30
0.0
 11
61.5213
 21
97.8323
 31
0.0
  0
LINE
  8
0
 62
     0
 10
61.5213
 20
97.8323
 30
0.0
 11
60.7205
 21
97.8323
 31
0.0
  0
LINE
  8
0
 62
     0
 10
60.7205
 20
97.8323
 30
0.0
 11
60.7205
 21
98.8328
 31
0.0
  0
LINE
  8
0
 62
     0
 10
60.7205
 20
98.8328
 30
0.0
 11
46.7212
 21
98.8328
 31
0.0
  0
LINE
  8
0
 62
     0
 10
27.671
 20
98.8328
 30
0.0
 11
27.671
 21
97.8323
 31
0.0
  0
LINE
  8
0
 62
     0
 10
27.671
 20
97.8323
 30
0.0
 11
26.8704
 21
97.8323
 31
0.0
  0
LINE
  8
0
 62
     0
 10
26.8704
 20
97.8323
 30
0.0
 11
26.8704
 21
94.7318
 31
0.0
  0
LINE
  8
0
 62
     0
 10
26.8704
 20
94.7318
 30
0.0
 11
27.671
 21
94.7318
 31
0.0
  0
LINE
  8
0
 62
     0
 10
27.671
 20
94.7318
 30
0.0
 11
27.671
 21
88.9317
 31
0.0
  0
LINE
  8
0
 62
     0
 10
27.671
 20
88.9317
 30
0.0
 11
26.8704
 21
88.9317
 31
0.0
  0
LINE
  8
0
 62
     0
 10
26.8704
 20
88.9317
 30
0.0
 11
26.8704
 21
85.8326
 31
0.0
  0
LINE
  8
0
 62
     0
 10
26.8704
 20
85.8326
 30
0.0
 11
27.671
 21
85.8326
 31
0.0
  0
LINE
  8
0
 62
     0
 10
27.671
 20
85.8326
 30
0.0
 11
27.671
 21
84.8321
 31
0.0
  0
LINE
  8
0
 62
     0
 10
27.671
 20
84.8321
 30
0.0
 11
41.6705
 21
84.8321
 31
0.0
  0
LINE
  8
0
 62
     0
 10
41.6705
 20
84.8321
 30
0.0
 11
41.6705
 21
85.8326
 31
0.0
  0
LINE
  8
0
 62
     0
 10
41.6705
 20
85.8326
 30
0.0
 11
42.4713
 21
85.8326
 31
0.0
  0
LINE
  8
0
 62
     0
 10
42.4713
 20
85.8326
 30
0.0
 11
42.4713
 21
88.9317
 31
0.0
  0
LINE
  8
0
 62
     0
 10
42.4713
 20
88.9317
 30
0.0
 11
41.6705
 21
88.9317
 31
0.0
  0
LINE
  8
0
 62
     0
 10
41.6705
 20
88.9317
 30
0.0
 11
41.6705
 21
94.7318
 31
0.0
  0
LINE
  8
0
 62
     0
 10
41.6705
 20
94.7318
 30
0.0
 11
42.4713
 21
94.7318
 31
0.0
  0
LINE
  8
0
 62
     0
 10
42.4713
 20
94.7318
 30
0.0
 11
42.4713
 21
97.8323
 31
0.0
  0
LINE
  8
0
 62
     0
 10
42.4713
 20
97.8323
 30
0.0
 11
41.6705
 21
97.8323
 31
0.0
  0
LINE
  8
0
 62
     0
 10
41.6705
 20
97.8323
 30
0.0
 11
41.6705
 21
98.8328
 31
0.0
  0
LINE
  8
0
 62
     0
 10
41.6705
 20
98.8328
 30
0.0
 11
27.671
 21
98.8328
 31
0.0
  0
LINE
  8
0
 62
     0
 10
8.61963
 20
98.8328
 30
0.0
 11
8.61963
 21
97.8323
 31
0.0
  0
LINE
  8
0
 62
     0
 10
8.61963
 20
97.8323
 30
0.0
 11
7.819
 21
97.8323
 31
0.0
  0
LINE
  8
0
 62
     0
 10
7.819
 20
97.8323
 30
0.0
 11
7.819
 21
94.7318
 31
0.0
  0
LINE
  8
0
 62
     0
 10
7.819
 20
94.7318
 30
0.0
 11
8.61963
 21
94.7318
 31
0.0
  0
LINE
  8
0
 62
     0
 10
8.61963
 20
94.7318
 30
0.0
 11
8.61963
 21
88.9317
 31
0.0
  0
LINE
  8
0
 62
     0
 10
8.61963
 20
88.9317
 30
0.0
 11
7.819
 21
88.9317
 31
0.0
  0
LINE
  8
0
 62
     0
 10
7.819
 20
88.9317
 30
0.0
 11
7.819
 21
85.8326
 31
0.0
  0
LINE
  8
0
 62
     0
 10
7.819
 20
85.8326
 30
0.0
 11
8.61963
 21
85.8326
 31
0.0
  0
LINE
  8
0
 62
     0
 10
8.61963
 20
85.8326
 30
0.0
 11
8.61963
 21
84.8321
 31
0.0
  0
LINE
  8
0
 62
     0
 10
8.61963
 20
84.8321
 30
0.0
 11
22.6205
 21
84.8321
 31
0.0
  0
LINE
  8
0
 62
     0
 10
22.6205
 20
84.8321
 30
0.0
 11
22.6205
 21
85.8326
 31
0.0
  0
LINE
  8
0
 62
     0
 10
22.6205
 20
85.8326
 30
0.0
 11
23.4211
 21
85.8326
 31
0.0
  0
LINE
  8
0
 62
     0
 10
23.4211
 20
85.8326
 30
0.0
 11
23.4211
 21
88.9317
 31
0.0
  0
LINE
  8
0
 62
     0
 10
23.4211
 20
88.9317
 30
0.0
 11
22.6205
 21
88.9317
 31
0.0
  0
LINE
  8
0
 62
     0
 10
22.6205
 20
88.9317
 30
0.0
 11
22.6205
 21
94.7318
 31
0.0
  0
LINE
  8
0
 62
     0
 10
22.6205
 20
94.7318
 30
0.0
 11
23.4211
 21
94.7318
 31
0.0
  0
LINE
  8
0
 62
     0
 10
23.4211
 20
94.7318
 30
0.0
 11
23.4211
 21
97.8323
 31
0.0
  0
LINE
  8
0
 62
     0
 10
23.4211
 20
97.8323
 30
0.0
 11
22.6205
 21
97.8323
 31
0.0
  0
LINE
  8
0
 62
     0
 10
22.6205
 20
97.8323
 30
0.0
 11
22.6205
 21
98.8328
 31
0.0
  0
LINE
  8
0
 62
     0
 10
22.6205
 20
98.8328
 30
0.0
 11
8.61963
 21
98.8328
 31
0.0
  0
LINE
  8
0
 62
     0
 10
2.63205
 20
93.6847
 30
0.0
 11
2.21313
 21
93.4709
 31
0.0
  0
LINE
  8
0
 62
     0
 10
2.21313
 20
93.4709
 30
0.0
 11
1.88102
 21
93.139
 31
0.0
  0
LINE
  8
0
 62
     0
 10
1.88102
 20
93.139
 30
0.0
 11
1.6688
 21
92.7213
 31
0.0
  0
LINE
  8
0
 62
     0
 10
1.6688
 20
92.7213
 30
0.0
 11
1.59439
 21
92.257
 31
0.0
  0
LINE
  8
0
 62
     0
 10
1.59439
 20
92.257
 30
0.0
 11
1.6688
 21
91.7938
 31
0.0
  0
LINE
  8
0
 62
     0
 10
1.6688
 20
91.7938
 30
0.0
 11
1.88102
 21
91.3751
 31
0.0
  0
LINE
  8
0
 62
     0
 10
1.88102
 20
91.3751
 30
0.0
 11
2.21313
 21
91.0428
 31
0.0
  0
LINE
  8
0
 62
     0
 10
2.21313
 20
91.0428
 30
0.0
 11
2.63205
 21
90.8308
 31
0.0
  0
LINE
  8
0
 62
     0
 10
2.63205
 20
90.8308
 30
0.0
 11
3.09507
 21
90.7577
 31
0.0
  0
LINE
  8
0
 62
     0
 10
3.09507
 20
90.7577
 30
0.0
 11
3.55808
 21
90.8308
 31
0.0
  0
LINE
  8
0
 62
     0
 10
3.55808
 20
90.8308
 30
0.0
 11
3.97701
 21
91.0428
 31
0.0
  0
LINE
  8
0
 62
     0
 10
3.97701
 20
91.0428
 30
0.0
 11
4.30911
 21
91.3751
 31
0.0
  0
LINE
  8
0
 62
     0
 10
4.30911
 20
91.3751
 30
0.0
 11
4.52134
 21
91.7938
 31
0.0
  0
LINE
  8
0
 62
     0
 10
4.52134
 20
91.7938
 30
0.0
 11
4.59574
 21
92.257
 31
0.0
  0
LINE
  8
0
 62
     0
 10
4.59574
 20
92.257
 30
0.0
 11
4.52134
 21
92.7213
 31
0.0
  0
LINE
  8
0
 62
     0
 10
4.52134
 20
92.7213
 30
0.0
 11
4.30911
 21
93.139
 31
0.0
  0
LINE
  8
0
 62
     0
 10
4.30911
 20
93.139
 30
0.0
 11
3.97701
 21
93.4709
 31
0.0
  0
LINE
  8
0
 62
     0
 10
3.97701
 20
93.4709
 30
0.0
 11
3.55808
 21
93.6847
 31
0.0
  0
LINE
  8
0
 62
     0
 10
3.55808
 20
93.6847
 30
0.0
 11
3.09507
 21
93.7577
 31
0.0
  0
LINE
  8
0
 62
     0
 10
3.09507
 20
93.7577
 30
0.0
 11
2.63205
 21
93.6847
 31
0.0
  0
LINE
  8
0
 62
     0
 10
313.432
 20
93.6847
 30
0.0
 11
313.014
 21
93.4709
 31
0.0
  0
LINE
  8
0
 62
     0
 10
313.014
 20
93.4709
 30
0.0
 11
312.682
 21
93.139
 31
0.0
  0
LINE
  8
0
 62
     0
 10
312.682
 20
93.139
 30
0.0
 11
312.47
 21
92.7213
 31
0.0
  0
LINE
  8
0
 62
     0
 10
312.47
 20
92.7213
 30
0.0
 11
312.397
 21
92.257
 31
0.0
  0
LINE
  8
0
 62
     0
 10
312.397
 20
92.257
 30
0.0
 11
312.47
 21
91.7938
 31
0.0
  0
LINE
  8
0
 62
     0
 10
312.47
 20
91.7938
 30
0.0
 11
312.682
 21
91.3751
 31
0.0
  0
LINE
  8
0
 62
     0
 10
312.682
 20
91.3751
 30
0.0
 11
313.014
 21
91.0428
 31
0.0
  0
LINE
  8
0
 62
     0
 10
313.014
 20
91.0428
 30
0.0
 11
313.432
 21
90.8308
 31
0.0
  0
LINE
  8
0
 62
     0
 10
313.432
 20
90.8308
 30
0.0
 11
313.896
 21
90.7577
 31
0.0
  0
LINE
  8
0
 62
     0
 10
313.896
 20
90.7577
 30
0.0
 11
314.36
 21
90.8308
 31
0.0
  0
LINE
  8
0
 62
     0
 10
314.36
 20
90.8308
 30
0.0
 11
314.777
 21
91.0428
 31
0.0
  0
LINE
  8
0
 62
     0
 10
314.777
 20
91.0428
 30
0.0
 11
315.109
 21
91.3751
 31
0.0
  0
LINE
  8
0
 62
     0
 10
315.109
 20
91.3751
 30
0.0
 11
315.323
 21
91.7938
 31
0.0
  0
LINE
  8
0
 62
     0
 10
315.323
 20
91.7938
 30
0.0
 11
315.397
 21
92.257
 31
0.0
  0
LINE
  8
0
 62
     0
 10
315.397
 20
92.257
 30
0.0
 11
315.323
 21
92.7213
 31
0.0
  0
LINE
  8
0
 62
     0
 10
315.323
 20
92.7213
 30
0.0
 11
315.109
 21
93.139
 31
0.0
  0
LINE
  8
0
 62
     0
 10
315.109
 20
93.139
 30
0.0
 11
314.777
 21
93.4709
 31
0.0
  0
LINE
  8
0
 62
     0
 10
314.777
 20
93.4709
 30
0.0
 11
314.36
 21
93.6847
 31
0.0
  0
LINE
  8
0
 62
     0
 10
314.36
 20
93.6847
 30
0.0
 11
313.896
 21
93.7577
 31
0.0
  0
LINE
  8
0
 62
     0
 10
313.896
 20
93.7577
 30
0.0
 11
313.432
 21
93.6847
 31
0.0
  0
LINE
  8
0
 62
     0
 10
294.371
 20
117.883
 30
0.0
 11
294.371
 21
116.882
 31
0.0
  0
LINE
  8
0
 62
     0
 10
294.371
 20
116.882
 30
0.0
 11
293.57
 21
116.882
 31
0.0
  0
LINE
  8
0
 62
     0
 10
293.57
 20
116.882
 30
0.0
 11
293.57
 21
113.782
 31
0.0
  0
LINE
  8
0
 62
     0
 10
293.57
 20
113.782
 30
0.0
 11
294.371
 21
113.782
 31
0.0
  0
LINE
  8
0
 62
     0
 10
294.371
 20
113.782
 30
0.0
 11
294.371
 21
107.982
 31
0.0
  0
LINE
  8
0
 62
     0
 10
294.371
 20
107.982
 30
0.0
 11
293.57
 21
107.982
 31
0.0
  0
LINE
  8
0
 62
     0
 10
293.57
 20
107.982
 30
0.0
 11
293.57
 21
104.883
 31
0.0
  0
LINE
  8
0
 62
     0
 10
293.57
 20
104.883
 30
0.0
 11
294.371
 21
104.883
 31
0.0
  0
LINE
  8
0
 62
     0
 10
294.371
 20
104.883
 30
0.0
 11
294.371
 21
103.882
 31
0.0
  0
LINE
  8
0
 62
     0
 10
294.371
 20
103.882
 30
0.0
 11
308.37
 21
103.882
 31
0.0
  0
LINE
  8
0
 62
     0
 10
308.37
 20
103.882
 30
0.0
 11
308.37
 21
104.883
 31
0.0
  0
LINE
  8
0
 62
     0
 10
308.37
 20
104.883
 30
0.0
 11
309.171
 21
104.883
 31
0.0
  0
LINE
  8
0
 62
     0
 10
309.171
 20
104.883
 30
0.0
 11
309.171
 21
107.982
 31
0.0
  0
LINE
  8
0
 62
     0
 10
309.171
 20
107.982
 30
0.0
 11
308.37
 21
107.982
 31
0.0
  0
LINE
  8
0
 62
     0
 10
308.37
 20
107.982
 30
0.0
 11
308.37
 21
113.782
 31
0.0
  0
LINE
  8
0
 62
     0
 10
308.37
 20
113.782
 30
0.0
 11
309.171
 21
113.782
 31
0.0
  0
LINE
  8
0
 62
     0
 10
309.171
 20
113.782
 30
0.0
 11
309.171
 21
116.882
 31
0.0
  0
LINE
  8
0
 62
     0
 10
309.171
 20
116.882
 30
0.0
 11
308.37
 21
116.882
 31
0.0
  0
LINE
  8
0
 62
     0
 10
308.37
 20
116.882
 30
0.0
 11
308.37
 21
117.883
 31
0.0
  0
LINE
  8
0
 62
     0
 10
308.37
 20
117.883
 30
0.0
 11
294.371
 21
117.883
 31
0.0
  0
LINE
  8
0
 62
     0
 10
275.321
 20
117.883
 30
0.0
 11
275.321
 21
116.882
 31
0.0
  0
LINE
  8
0
 62
     0
 10
275.321
 20
116.882
 30
0.0
 11
274.52
 21
116.882
 31
0.0
  0
LINE
  8
0
 62
     0
 10
274.52
 20
116.882
 30
0.0
 11
274.52
 21
113.782
 31
0.0
  0
LINE
  8
0
 62
     0
 10
274.52
 20
113.782
 30
0.0
 11
275.321
 21
113.782
 31
0.0
  0
LINE
  8
0
 62
     0
 10
275.321
 20
113.782
 30
0.0
 11
275.321
 21
107.982
 31
0.0
  0
LINE
  8
0
 62
     0
 10
275.321
 20
107.982
 30
0.0
 11
274.52
 21
107.982
 31
0.0
  0
LINE
  8
0
 62
     0
 10
274.52
 20
107.982
 30
0.0
 11
274.52
 21
104.883
 31
0.0
  0
LINE
  8
0
 62
     0
 10
274.52
 20
104.883
 30
0.0
 11
275.321
 21
104.883
 31
0.0
  0
LINE
  8
0
 62
     0
 10
275.321
 20
104.883
 30
0.0
 11
275.321
 21
103.882
 31
0.0
  0
LINE
  8
0
 62
     0
 10
275.321
 20
103.882
 30
0.0
 11
289.32
 21
103.882
 31
0.0
  0
LINE
  8
0
 62
     0
 10
289.32
 20
103.882
 30
0.0
 11
289.32
 21
104.883
 31
0.0
  0
LINE
  8
0
 62
     0
 10
289.32
 20
104.883
 30
0.0
 11
290.121
 21
104.883
 31
0.0
  0
LINE
  8
0
 62
     0
 10
290.121
 20
104.883
 30
0.0
 11
290.121
 21
107.982
 31
0.0
  0
LINE
  8
0
 62
     0
 10
290.121
 20
107.982
 30
0.0
 11
289.32
 21
107.982
 31
0.0
  0
LINE
  8
0
 62
     0
 10
289.32
 20
107.982
 30
0.0
 11
289.32
 21
113.782
 31
0.0
  0
LINE
  8
0
 62
     0
 10
289.32
 20
113.782
 30
0.0
 11
290.121
 21
113.782
 31
0.0
  0
LINE
  8
0
 62
     0
 10
290.121
 20
113.782
 30
0.0
 11
290.121
 21
116.882
 31
0.0
  0
LINE
  8
0
 62
     0
 10
290.121
 20
116.882
 30
0.0
 11
289.32
 21
116.882
 31
0.0
  0
LINE
  8
0
 62
     0
 10
289.32
 20
116.882
 30
0.0
 11
289.32
 21
117.883
 31
0.0
  0
LINE
  8
0
 62
     0
 10
289.32
 20
117.883
 30
0.0
 11
275.321
 21
117.883
 31
0.0
  0
LINE
  8
0
 62
     0
 10
256.271
 20
117.883
 30
0.0
 11
256.271
 21
116.882
 31
0.0
  0
LINE
  8
0
 62
     0
 10
256.271
 20
116.882
 30
0.0
 11
255.47
 21
116.882
 31
0.0
  0
LINE
  8
0
 62
     0
 10
255.47
 20
116.882
 30
0.0
 11
255.47
 21
113.782
 31
0.0
  0
LINE
  8
0
 62
     0
 10
255.47
 20
113.782
 30
0.0
 11
256.271
 21
113.782
 31
0.0
  0
LINE
  8
0
 62
     0
 10
256.271
 20
113.782
 30
0.0
 11
256.271
 21
107.982
 31
0.0
  0
LINE
  8
0
 62
     0
 10
256.271
 20
107.982
 30
0.0
 11
255.47
 21
107.982
 31
0.0
  0
LINE
  8
0
 62
     0
 10
255.47
 20
107.982
 30
0.0
 11
255.47
 21
104.883
 31
0.0
  0
LINE
  8
0
 62
     0
 10
255.47
 20
104.883
 30
0.0
 11
256.271
 21
104.883
 31
0.0
  0
LINE
  8
0
 62
     0
 10
256.271
 20
104.883
 30
0.0
 11
256.271
 21
103.882
 31
0.0
  0
LINE
  8
0
 62
     0
 10
256.271
 20
103.882
 30
0.0
 11
270.27
 21
103.882
 31
0.0
  0
LINE
  8
0
 62
     0
 10
270.27
 20
103.882
 30
0.0
 11
270.27
 21
104.883
 31
0.0
  0
LINE
  8
0
 62
     0
 10
270.27
 20
104.883
 30
0.0
 11
271.071
 21
104.883
 31
0.0
  0
LINE
  8
0
 62
     0
 10
271.071
 20
104.883
 30
0.0
 11
271.071
 21
107.982
 31
0.0
  0
LINE
  8
0
 62
     0
 10
271.071
 20
107.982
 30
0.0
 11
270.27
 21
107.982
 31
0.0
  0
LINE
  8
0
 62
     0
 10
270.27
 20
107.982
 30
0.0
 11
270.27
 21
113.782
 31
0.0
  0
LINE
  8
0
 62
     0
 10
270.27
 20
113.782
 30
0.0
 11
271.071
 21
113.782
 31
0.0
  0
LINE
  8
0
 62
     0
 10
271.071
 20
113.782
 30
0.0
 11
271.071
 21
116.882
 31
0.0
  0
LINE
  8
0
 62
     0
 10
271.071
 20
116.882
 30
0.0
 11
270.27
 21
116.882
 31
0.0
  0
LINE
  8
0
 62
     0
 10
270.27
 20
116.882
 30
0.0
 11
270.27
 21
117.883
 31
0.0
  0
LINE
  8
0
 62
     0
 10
270.27
 20
117.883
 30
0.0
 11
256.271
 21
117.883
 31
0.0
  0
LINE
  8
0
 62
     0
 10
237.221
 20
117.883
 30
0.0
 11
237.221
 21
116.882
 31
0.0
  0
LINE
  8
0
 62
     0
 10
237.221
 20
116.882
 30
0.0
 11
236.42
 21
116.882
 31
0.0
  0
LINE
  8
0
 62
     0
 10
236.42
 20
116.882
 30
0.0
 11
236.42
 21
113.782
 31
0.0
  0
LINE
  8
0
 62
     0
 10
236.42
 20
113.782
 30
0.0
 11
237.221
 21
113.782
 31
0.0
  0
LINE
  8
0
 62
     0
 10
237.221
 20
113.782
 30
0.0
 11
237.221
 21
107.982
 31
0.0
  0
LINE
  8
0
 62
     0
 10
237.221
 20
107.982
 30
0.0
 11
236.42
 21
107.982
 31
0.0
  0
LINE
  8
0
 62
     0
 10
236.42
 20
107.982
 30
0.0
 11
236.42
 21
104.883
 31
0.0
  0
LINE
  8
0
 62
     0
 10
236.42
 20
104.883
 30
0.0
 11
237.221
 21
104.883
 31
0.0
  0
LINE
  8
0
 62
     0
 10
237.221
 20
104.883
 30
0.0
 11
237.221
 21
103.882
 31
0.0
  0
LINE
  8
0
 62
     0
 10
237.221
 20
103.882
 30
0.0
 11
251.22
 21
103.882
 31
0.0
  0
LINE
  8
0
 62
     0
 10
251.22
 20
103.882
 30
0.0
 11
251.22
 21
104.883
 31
0.0
  0
LINE
  8
0
 62
     0
 10
251.22
 20
104.883
 30
0.0
 11
252.021
 21
104.883
 31
0.0
  0
LINE
  8
0
 62
     0
 10
252.021
 20
104.883
 30
0.0
 11
252.021
 21
107.982
 31
0.0
  0
LINE
  8
0
 62
     0
 10
252.021
 20
107.982
 30
0.0
 11
251.22
 21
107.982
 31
0.0
  0
LINE
  8
0
 62
     0
 10
251.22
 20
107.982
 30
0.0
 11
251.22
 21
113.782
 31
0.0
  0
LINE
  8
0
 62
     0
 10
251.22
 20
113.782
 30
0.0
 11
252.021
 21
113.782
 31
0.0
  0
LINE
  8
0
 62
     0
 10
252.021
 20
113.782
 30
0.0
 11
252.021
 21
116.882
 31
0.0
  0
LINE
  8
0
 62
     0
 10
252.021
 20
116.882
 30
0.0
 11
251.22
 21
116.882
 31
0.0
  0
LINE
  8
0
 62
     0
 10
251.22
 20
116.882
 30
0.0
 11
251.22
 21
117.883
 31
0.0
  0
LINE
  8
0
 62
     0
 10
251.22
 20
117.883
 30
0.0
 11
237.221
 21
117.883
 31
0.0
  0
LINE
  8
0
 62
     0
 10
218.171
 20
117.883
 30
0.0
 11
218.171
 21
116.882
 31
0.0
  0
LINE
  8
0
 62
     0
 10
218.171
 20
116.882
 30
0.0
 11
217.37
 21
116.882
 31
0.0
  0
LINE
  8
0
 62
     0
 10
217.37
 20
116.882
 30
0.0
 11
217.37
 21
113.782
 31
0.0
  0
LINE
  8
0
 62
     0
 10
217.37
 20
113.782
 30
0.0
 11
218.171
 21
113.782
 31
0.0
  0
LINE
  8
0
 62
     0
 10
218.171
 20
113.782
 30
0.0
 11
218.171
 21
107.982
 31
0.0
  0
LINE
  8
0
 62
     0
 10
218.171
 20
107.982
 30
0.0
 11
217.37
 21
107.982
 31
0.0
  0
LINE
  8
0
 62
     0
 10
217.37
 20
107.982
 30
0.0
 11
217.37
 21
104.883
 31
0.0
  0
LINE
  8
0
 62
     0
 10
217.37
 20
104.883
 30
0.0
 11
218.171
 21
104.883
 31
0.0
  0
LINE
  8
0
 62
     0
 10
218.171
 20
104.883
 30
0.0
 11
218.171
 21
103.882
 31
0.0
  0
LINE
  8
0
 62
     0
 10
218.171
 20
103.882
 30
0.0
 11
232.17
 21
103.882
 31
0.0
  0
LINE
  8
0
 62
     0
 10
232.17
 20
103.882
 30
0.0
 11
232.17
 21
104.883
 31
0.0
  0
LINE
  8
0
 62
     0
 10
232.17
 20
104.883
 30
0.0
 11
232.971
 21
104.883
 31
0.0
  0
LINE
  8
0
 62
     0
 10
232.971
 20
104.883
 30
0.0
 11
232.971
 21
107.982
 31
0.0
  0
LINE
  8
0
 62
     0
 10
232.971
 20
107.982
 30
0.0
 11
232.17
 21
107.982
 31
0.0
  0
LINE
  8
0
 62
     0
 10
232.17
 20
107.982
 30
0.0
 11
232.17
 21
113.782
 31
0.0
  0
LINE
  8
0
 62
     0
 10
232.17
 20
113.782
 30
0.0
 11
232.971
 21
113.782
 31
0.0
  0
LINE
  8
0
 62
     0
 10
232.971
 20
113.782
 30
0.0
 11
232.971
 21
116.882
 31
0.0
  0
LINE
  8
0
 62
     0
 10
232.971
 20
116.882
 30
0.0
 11
232.17
 21
116.882
 31
0.0
  0
LINE
  8
0
 62
     0
 10
232.17
 20
116.882
 30
0.0
 11
232.17
 21
117.883
 31
0.0
  0
LINE
  8
0
 62
     0
 10
232.17
 20
117.883
 30
0.0
 11
218.171
 21
117.883
 31
0.0
  0
LINE
  8
0
 62
     0
 10
199.121
 20
117.883
 30
0.0
 11
199.121
 21
116.882
 31
0.0
  0
LINE
  8
0
 62
     0
 10
199.121
 20
116.882
 30
0.0
 11
198.32
 21
116.882
 31
0.0
  0
LINE
  8
0
 62
     0
 10
198.32
 20
116.882
 30
0.0
 11
198.32
 21
113.782
 31
0.0
  0
LINE
  8
0
 62
     0
 10
198.32
 20
113.782
 30
0.0
 11
199.121
 21
113.782
 31
0.0
  0
LINE
  8
0
 62
     0
 10
199.121
 20
113.782
 30
0.0
 11
199.121
 21
107.982
 31
0.0
  0
LINE
  8
0
 62
     0
 10
199.121
 20
107.982
 30
0.0
 11
198.32
 21
107.982
 31
0.0
  0
LINE
  8
0
 62
     0
 10
198.32
 20
107.982
 30
0.0
 11
198.32
 21
104.883
 31
0.0
  0
LINE
  8
0
 62
     0
 10
198.32
 20
104.883
 30
0.0
 11
199.121
 21
104.883
 31
0.0
  0
LINE
  8
0
 62
     0
 10
199.121
 20
104.883
 30
0.0
 11
199.121
 21
103.882
 31
0.0
  0
LINE
  8
0
 62
     0
 10
199.121
 20
103.882
 30
0.0
 11
213.12
 21
103.882
 31
0.0
  0
LINE
  8
0
 62
     0
 10
213.12
 20
103.882
 30
0.0
 11
213.12
 21
104.883
 31
0.0
  0
LINE
  8
0
 62
     0
 10
213.12
 20
104.883
 30
0.0
 11
213.921
 21
104.883
 31
0.0
  0
LINE
  8
0
 62
     0
 10
213.921
 20
104.883
 30
0.0
 11
213.921
 21
107.982
 31
0.0
  0
LINE
  8
0
 62
     0
 10
213.921
 20
107.982
 30
0.0
 11
213.12
 21
107.982
 31
0.0
  0
LINE
  8
0
 62
     0
 10
213.12
 20
107.982
 30
0.0
 11
213.12
 21
113.782
 31
0.0
  0
LINE
  8
0
 62
     0
 10
213.12
 20
113.782
 30
0.0
 11
213.921
 21
113.782
 31
0.0
  0
LINE
  8
0
 62
     0
 10
213.921
 20
113.782
 30
0.0
 11
213.921
 21
116.882
 31
0.0
  0
LINE
  8
0
 62
     0
 10
213.921
 20
116.882
 30
0.0
 11
213.12
 21
116.882
 31
0.0
  0
LINE
  8
0
 62
     0
 10
213.12
 20
116.882
 30
0.0
 11
213.12
 21
117.883
 31
0.0
  0
LINE
  8
0
 62
     0
 10
213.12
 20
117.883
 30
0.0
 11
199.121
 21
117.883
 31
0.0
  0
LINE
  8
0
 62
     0
 10
180.071
 20
117.883
 30
0.0
 11
180.071
 21
116.882
 31
0.0
  0
LINE
  8
0
 62
     0
 10
180.071
 20
116.882
 30
0.0
 11
179.27
 21
116.882
 31
0.0
  0
LINE
  8
0
 62
     0
 10
179.27
 20
116.882
 30
0.0
 11
179.27
 21
113.782
 31
0.0
  0
LINE
  8
0
 62
     0
 10
179.27
 20
113.782
 30
0.0
 11
180.071
 21
113.782
 31
0.0
  0
LINE
  8
0
 62
     0
 10
180.071
 20
113.782
 30
0.0
 11
180.071
 21
107.982
 31
0.0
  0
LINE
  8
0
 62
     0
 10
180.071
 20
107.982
 30
0.0
 11
179.27
 21
107.982
 31
0.0
  0
LINE
  8
0
 62
     0
 10
179.27
 20
107.982
 30
0.0
 11
179.27
 21
104.883
 31
0.0
  0
LINE
  8
0
 62
     0
 10
179.27
 20
104.883
 30
0.0
 11
180.071
 21
104.883
 31
0.0
  0
LINE
  8
0
 62
     0
 10
180.071
 20
104.883
 30
0.0
 11
180.071
 21
103.882
 31
0.0
  0
LINE
  8
0
 62
     0
 10
180.071
 20
103.882
 30
0.0
 11
194.07
 21
103.882
 31
0.0
  0
LINE
  8
0
 62
     0
 10
194.07
 20
103.882
 30
0.0
 11
194.07
 21
104.883
 31
0.0
  0
LINE
  8
0
 62
     0
 10
194.07
 20
104.883
 30
0.0
 11
194.871
 21
104.883
 31
0.0
  0
LINE
  8
0
 62
     0
 10
194.871
 20
104.883
 30
0.0
 11
194.871
 21
107.982
 31
0.0
  0
LINE
  8
0
 62
     0
 10
194.871
 20
107.982
 30
0.0
 11
194.07
 21
107.982
 31
0.0
  0
LINE
  8
0
 62
     0
 10
194.07
 20
107.982
 30
0.0
 11
194.07
 21
113.782
 31
0.0
  0
LINE
  8
0
 62
     0
 10
194.07
 20
113.782
 30
0.0
 11
194.871
 21
113.782
 31
0.0
  0
LINE
  8
0
 62
     0
 10
194.871
 20
113.782
 30
0.0
 11
194.871
 21
116.882
 31
0.0
  0
LINE
  8
0
 62
     0
 10
194.871
 20
116.882
 30
0.0
 11
194.07
 21
116.882
 31
0.0
  0
LINE
  8
0
 62
     0
 10
194.07
 20
116.882
 30
0.0
 11
194.07
 21
117.883
 31
0.0
  0
LINE
  8
0
 62
     0
 10
194.07
 20
117.883
 30
0.0
 11
180.071
 21
117.883
 31
0.0
  0
LINE
  8
0
 62
     0
 10
161.021
 20
117.883
 30
0.0
 11
161.021
 21
116.882
 31
0.0
  0
LINE
  8
0
 62
     0
 10
161.021
 20
116.882
 30
0.0
 11
160.22
 21
116.882
 31
0.0
  0
LINE
  8
0
 62
     0
 10
160.22
 20
116.882
 30
0.0
 11
160.22
 21
113.782
 31
0.0
  0
LINE
  8
0
 62
     0
 10
160.22
 20
113.782
 30
0.0
 11
161.021
 21
113.782
 31
0.0
  0
LINE
  8
0
 62
     0
 10
161.021
 20
113.782
 30
0.0
 11
161.021
 21
107.982
 31
0.0
  0
LINE
  8
0
 62
     0
 10
161.021
 20
107.982
 30
0.0
 11
160.22
 21
107.982
 31
0.0
  0
LINE
  8
0
 62
     0
 10
160.22
 20
107.982
 30
0.0
 11
160.22
 21
104.883
 31
0.0
  0
LINE
  8
0
 62
     0
 10
160.22
 20
104.883
 30
0.0
 11
161.021
 21
104.883
 31
0.0
  0
LINE
  8
0
 62
     0
 10
161.021
 20
104.883
 30
0.0
 11
161.021
 21
103.882
 31
0.0
  0
LINE
  8
0
 62
     0
 10
161.021
 20
103.882
 30
0.0
 11
175.02
 21
103.882
 31
0.0
  0
LINE
  8
0
 62
     0
 10
175.02
 20
103.882
 30
0.0
 11
175.02
 21
104.883
 31
0.0
  0
LINE
  8
0
 62
     0
 10
175.02
 20
104.883
 30
0.0
 11
175.821
 21
104.883
 31
0.0
  0
LINE
  8
0
 62
     0
 10
175.821
 20
104.883
 30
0.0
 11
175.821
 21
107.982
 31
0.0
  0
LINE
  8
0
 62
     0
 10
175.821
 20
107.982
 30
0.0
 11
175.02
 21
107.982
 31
0.0
  0
LINE
  8
0
 62
     0
 10
175.02
 20
107.982
 30
0.0
 11
175.02
 21
113.782
 31
0.0
  0
LINE
  8
0
 62
     0
 10
175.02
 20
113.782
 30
0.0
 11
175.821
 21
113.782
 31
0.0
  0
LINE
  8
0
 62
     0
 10
175.821
 20
113.782
 30
0.0
 11
175.821
 21
116.882
 31
0.0
  0
LINE
  8
0
 62
     0
 10
175.821
 20
116.882
 30
0.0
 11
175.02
 21
116.882
 31
0.0
  0
LINE
  8
0
 62
     0
 10
175.02
 20
116.882
 30
0.0
 11
175.02
 21
117.883
 31
0.0
  0
LINE
  8
0
 62
     0
 10
175.02
 20
117.883
 30
0.0
 11
161.021
 21
117.883
 31
0.0
  0
LINE
  8
0
 62
     0
 10
141.971
 20
117.883
 30
0.0
 11
141.971
 21
116.882
 31
0.0
  0
LINE
  8
0
 62
     0
 10
141.971
 20
116.882
 30
0.0
 11
141.17
 21
116.882
 31
0.0
  0
LINE
  8
0
 62
     0
 10
141.17
 20
116.882
 30
0.0
 11
141.17
 21
113.782
 31
0.0
  0
LINE
  8
0
 62
     0
 10
141.17
 20
113.782
 30
0.0
 11
141.971
 21
113.782
 31
0.0
  0
LINE
  8
0
 62
     0
 10
141.971
 20
113.782
 30
0.0
 11
141.971
 21
107.982
 31
0.0
  0
LINE
  8
0
 62
     0
 10
141.971
 20
107.982
 30
0.0
 11
141.17
 21
107.982
 31
0.0
  0
LINE
  8
0
 62
     0
 10
141.17
 20
107.982
 30
0.0
 11
141.17
 21
104.883
 31
0.0
  0
LINE
  8
0
 62
     0
 10
141.17
 20
104.883
 30
0.0
 11
141.971
 21
104.883
 31
0.0
  0
LINE
  8
0
 62
     0
 10
141.971
 20
104.883
 30
0.0
 11
141.971
 21
103.882
 31
0.0
  0
LINE
  8
0
 62
     0
 10
141.971
 20
103.882
 30
0.0
 11
155.97
 21
103.882
 31
0.0
  0
LINE
  8
0
 62
     0
 10
155.97
 20
103.882
 30
0.0
 11
155.97
 21
104.883
 31
0.0
  0
LINE
  8
0
 62
     0
 10
155.97
 20
104.883
 30
0.0
 11
156.771
 21
104.883
 31
0.0
  0
LINE
  8
0
 62
     0
 10
156.771
 20
104.883
 30
0.0
 11
156.771
 21
107.982
 31
0.0
  0
LINE
  8
0
 62
     0
 10
156.771
 20
107.982
 30
0.0
 11
155.97
 21
107.982
 31
0.0
  0
LINE
  8
0
 62
     0
 10
155.97
 20
107.982
 30
0.0
 11
155.97
 21
113.782
 31
0.0
  0
LINE
  8
0
 62
     0
 10
155.97
 20
113.782
 30
0.0
 11
156.771
 21
113.782
 31
0.0
  0
LINE
  8
0
 62
     0
 10
156.771
 20
113.782
 30
0.0
 11
156.771
 21
116.882
 31
0.0
  0
LINE
  8
0
 62
     0
 10
156.771
 20
116.882
 30
0.0
 11
155.97
 21
116.882
 31
0.0
  0
LINE
  8
0
 62
     0
 10
155.97
 20
116.882
 30
0.0
 11
155.97
 21
117.883
 31
0.0
  0
LINE
  8
0
 62
     0
 10
155.97
 20
117.883
 30
0.0
 11
141.971
 21
117.883
 31
0.0
  0
LINE
  8
0
 62
     0
 10
122.92
 20
117.883
 30
0.0
 11
122.92
 21
116.882
 31
0.0
  0
LINE
  8
0
 62
     0
 10
122.92
 20
116.882
 30
0.0
 11
122.119
 21
116.882
 31
0.0
  0
LINE
  8
0
 62
     0
 10
122.119
 20
116.882
 30
0.0
 11
122.119
 21
113.782
 31
0.0
  0
LINE
  8
0
 62
     0
 10
122.119
 20
113.782
 30
0.0
 11
122.92
 21
113.782
 31
0.0
  0
LINE
  8
0
 62
     0
 10
122.92
 20
113.782
 30
0.0
 11
122.92
 21
107.982
 31
0.0
  0
LINE
  8
0
 62
     0
 10
122.92
 20
107.982
 30
0.0
 11
122.119
 21
107.982
 31
0.0
  0
LINE
  8
0
 62
     0
 10
122.119
 20
107.982
 30
0.0
 11
122.119
 21
104.883
 31
0.0
  0
LINE
  8
0
 62
     0
 10
122.119
 20
104.883
 30
0.0
 11
122.92
 21
104.883
 31
0.0
  0
LINE
  8
0
 62
     0
 10
122.92
 20
104.883
 30
0.0
 11
122.92
 21
103.882
 31
0.0
  0
LINE
  8
0
 62
     0
 10
122.92
 20
103.882
 30
0.0
 11
136.92
 21
103.882
 31
0.0
  0
LINE
  8
0
 62
     0
 10
136.92
 20
103.882
 30
0.0
 11
136.92
 21
104.883
 31
0.0
  0
LINE
  8
0
 62
     0
 10
136.92
 20
104.883
 30
0.0
 11
137.721
 21
104.883
 31
0.0
  0
LINE
  8
0
 62
     0
 10
137.721
 20
104.883
 30
0.0
 11
137.721
 21
107.982
 31
0.0
  0
LINE
  8
0
 62
     0
 10
137.721
 20
107.982
 30
0.0
 11
136.92
 21
107.982
 31
0.0
  0
LINE
  8
0
 62
     0
 10
136.92
 20
107.982
 30
0.0
 11
136.92
 21
113.782
 31
0.0
  0
LINE
  8
0
 62
     0
 10
136.92
 20
113.782
 30
0.0
 11
137.721
 21
113.782
 31
0.0
  0
LINE
  8
0
 62
     0
 10
137.721
 20
113.782
 30
0.0
 11
137.721
 21
116.882
 31
0.0
  0
LINE
  8
0
 62
     0
 10
137.721
 20
116.882
 30
0.0
 11
136.92
 21
116.882
 31
0.0
  0
LINE
  8
0
 62
     0
 10
136.92
 20
116.882
 30
0.0
 11
136.92
 21
117.883
 31
0.0
  0
LINE
  8
0
 62
     0
 10
136.92
 20
117.883
 30
0.0
 11
122.92
 21
117.883
 31
0.0
  0
LINE
  8
0
 62
     0
 10
103.87
 20
117.883
 30
0.0
 11
103.87
 21
116.882
 31
0.0
  0
LINE
  8
0
 62
     0
 10
103.87
 20
116.882
 30
0.0
 11
103.07
 21
116.882
 31
0.0
  0
LINE
  8
0
 62
     0
 10
103.07
 20
116.882
 30
0.0
 11
103.07
 21
113.782
 31
0.0
  0
LINE
  8
0
 62
     0
 10
103.07
 20
113.782
 30
0.0
 11
103.87
 21
113.782
 31
0.0
  0
LINE
  8
0
 62
     0
 10
103.87
 20
113.782
 30
0.0
 11
103.87
 21
107.982
 31
0.0
  0
LINE
  8
0
 62
     0
 10
103.87
 20
107.982
 30
0.0
 11
103.07
 21
107.982
 31
0.0
  0
LINE
  8
0
 62
     0
 10
103.07
 20
107.982
 30
0.0
 11
103.07
 21
104.883
 31
0.0
  0
LINE
  8
0
 62
     0
 10
103.07
 20
104.883
 30
0.0
 11
103.87
 21
104.883
 31
0.0
  0
LINE
  8
0
 62
     0
 10
103.87
 20
104.883
 30
0.0
 11
103.87
 21
103.882
 31
0.0
  0
LINE
  8
0
 62
     0
 10
103.87
 20
103.882
 30
0.0
 11
117.869
 21
103.882
 31
0.0
  0
LINE
  8
0
 62
     0
 10
117.869
 20
103.882
 30
0.0
 11
117.869
 21
104.883
 31
0.0
  0
LINE
  8
0
 62
     0
 10
117.869
 20
104.883
 30
0.0
 11
118.67
 21
104.883
 31
0.0
  0
LINE
  8
0
 62
     0
 10
118.67
 20
104.883
 30
0.0
 11
118.67
 21
107.982
 31
0.0
  0
LINE
  8
0
 62
     0
 10
118.67
 20
107.982
 30
0.0
 11
117.869
 21
107.982
 31
0.0
  0
LINE
  8
0
 62
     0
 10
117.869
 20
107.982
 30
0.0
 11
117.869
 21
113.782
 31
0.0
  0
LINE
  8
0
 62
     0
 10
117.869
 20
113.782
 30
0.0
 11
118.67
 21
113.782
 31
0.0
  0
LINE
  8
0
 62
     0
 10
118.67
 20
113.782
 30
0.0
 11
118.67
 21
116.882
 31
0.0
  0
LINE
  8
0
 62
     0
 10
118.67
 20
116.882
 30
0.0
 11
117.869
 21
116.882
 31
0.0
  0
LINE
  8
0
 62
     0
 10
117.869
 20
116.882
 30
0.0
 11
117.869
 21
117.883
 31
0.0
  0
LINE
  8
0
 62
     0
 10
117.869
 20
117.883
 30
0.0
 11
103.87
 21
117.883
 31
0.0
  0
LINE
  8
0
 62
     0
 10
84.8212
 20
117.883
 30
0.0
 11
84.8212
 21
116.882
 31
0.0
  0
LINE
  8
0
 62
     0
 10
84.8212
 20
116.882
 30
0.0
 11
84.0204
 21
116.882
 31
0.0
  0
LINE
  8
0
 62
     0
 10
84.0204
 20
116.882
 30
0.0
 11
84.0204
 21
113.782
 31
0.0
  0
LINE
  8
0
 62
     0
 10
84.0204
 20
113.782
 30
0.0
 11
84.8212
 21
113.782
 31
0.0
  0
LINE
  8
0
 62
     0
 10
84.8212
 20
113.782
 30
0.0
 11
84.8212
 21
107.982
 31
0.0
  0
LINE
  8
0
 62
     0
 10
84.8212
 20
107.982
 30
0.0
 11
84.0204
 21
107.982
 31
0.0
  0
LINE
  8
0
 62
     0
 10
84.0204
 20
107.982
 30
0.0
 11
84.0204
 21
104.883
 31
0.0
  0
LINE
  8
0
 62
     0
 10
84.0204
 20
104.883
 30
0.0
 11
84.8212
 21
104.883
 31
0.0
  0
LINE
  8
0
 62
     0
 10
84.8212
 20
104.883
 30
0.0
 11
84.8212
 21
103.882
 31
0.0
  0
LINE
  8
0
 62
     0
 10
84.8212
 20
103.882
 30
0.0
 11
98.8205
 21
103.882
 31
0.0
  0
LINE
  8
0
 62
     0
 10
98.8205
 20
103.882
 30
0.0
 11
98.8205
 21
104.883
 31
0.0
  0
LINE
  8
0
 62
     0
 10
98.8205
 20
104.883
 30
0.0
 11
99.6199
 21
104.883
 31
0.0
  0
LINE
  8
0
 62
     0
 10
99.6199
 20
104.883
 30
0.0
 11
99.6199
 21
107.982
 31
0.0
  0
LINE
  8
0
 62
     0
 10
99.6199
 20
107.982
 30
0.0
 11
98.8205
 21
107.982
 31
0.0
  0
LINE
  8
0
 62
     0
 10
98.8205
 20
107.982
 30
0.0
 11
98.8205
 21
113.782
 31
0.0
  0
LINE
  8
0
 62
     0
 10
98.8205
 20
113.782
 30
0.0
 11
99.6199
 21
113.782
 31
0.0
  0
LINE
  8
0
 62
     0
 10
99.6199
 20
113.782
 30
0.0
 11
99.6199
 21
116.882
 31
0.0
  0
LINE
  8
0
 62
     0
 10
99.6199
 20
116.882
 30
0.0
 11
98.8205
 21
116.882
 31
0.0
  0
LINE
  8
0
 62
     0
 10
98.8205
 20
116.882
 30
0.0
 11
98.8205
 21
117.883
 31
0.0
  0
LINE
  8
0
 62
     0
 10
98.8205
 20
117.883
 30
0.0
 11
84.8212
 21
117.883
 31
0.0
  0
LINE
  8
0
 62
     0
 10
65.7712
 20
117.883
 30
0.0
 11
65.7712
 21
116.882
 31
0.0
  0
LINE
  8
0
 62
     0
 10
65.7712
 20
116.882
 30
0.0
 11
64.9704
 21
116.882
 31
0.0
  0
LINE
  8
0
 62
     0
 10
64.9704
 20
116.882
 30
0.0
 11
64.9704
 21
113.782
 31
0.0
  0
LINE
  8
0
 62
     0
 10
64.9704
 20
113.782
 30
0.0
 11
65.7712
 21
113.782
 31
0.0
  0
LINE
  8
0
 62
     0
 10
65.7712
 20
113.782
 30
0.0
 11
65.7712
 21
107.982
 31
0.0
  0
LINE
  8
0
 62
     0
 10
65.7712
 20
107.982
 30
0.0
 11
64.9704
 21
107.982
 31
0.0
  0
LINE
  8
0
 62
     0
 10
64.9704
 20
107.982
 30
0.0
 11
64.9704
 21
104.883
 31
0.0
  0
LINE
  8
0
 62
     0
 10
64.9704
 20
104.883
 30
0.0
 11
65.7712
 21
104.883
 31
0.0
  0
LINE
  8
0
 62
     0
 10
65.7712
 20
104.883
 30
0.0
 11
65.7712
 21
103.882
 31
0.0
  0
LINE
  8
0
 62
     0
 10
65.7712
 20
103.882
 30
0.0
 11
79.7705
 21
103.882
 31
0.0
  0
LINE
  8
0
 62
     0
 10
79.7705
 20
103.882
 30
0.0
 11
79.7705
 21
104.883
 31
0.0
  0
LINE
  8
0
 62
     0
 10
79.7705
 20
104.883
 30
0.0
 11
80.5713
 21
104.883
 31
0.0
  0
LINE
  8
0
 62
     0
 10
80.5713
 20
104.883
 30
0.0
 11
80.5713
 21
107.982
 31
0.0
  0
LINE
  8
0
 62
     0
 10
80.5713
 20
107.982
 30
0.0
 11
79.7705
 21
107.982
 31
0.0
  0
LINE
  8
0
 62
     0
 10
79.7705
 20
107.982
 30
0.0
 11
79.7705
 21
113.782
 31
0.0
  0
LINE
  8
0
 62
     0
 10
79.7705
 20
113.782
 30
0.0
 11
80.5713
 21
113.782
 31
0.0
  0
LINE
  8
0
 62
     0
 10
80.5713
 20
113.782
 30
0.0
 11
80.5713
 21
116.882
 31
0.0
  0
LINE
  8
0
 62
     0
 10
80.5713
 20
116.882
 30
0.0
 11
79.7705
 21
116.882
 31
0.0
  0
LINE
  8
0
 62
     0
 10
79.7705
 20
116.882
 30
0.0
 11
79.7705
 21
117.883
 31
0.0
  0
LINE
  8
0
 62
     0
 10
79.7705
 20
117.883
 30
0.0
 11
65.7712
 21
117.883
 31
0.0
  0
LINE
  8
0
 62
     0
 10
46.7212
 20
117.883
 30
0.0
 11
46.7212
 21
116.882
 31
0.0
  0
LINE
  8
0
 62
     0
 10
46.7212
 20
116.882
 30
0.0
 11
45.9204
 21
116.882
 31
0.0
  0
LINE
  8
0
 62
     0
 10
45.9204
 20
116.882
 30
0.0
 11
45.9204
 21
113.782
 31
0.0
  0
LINE
  8
0
 62
     0
 10
45.9204
 20
113.782
 30
0.0
 11
46.7212
 21
113.782
 31
0.0
  0
LINE
  8
0
 62
     0
 10
46.7212
 20
113.782
 30
0.0
 11
46.7212
 21
107.982
 31
0.0
  0
LINE
  8
0
 62
     0
 10
46.7212
 20
107.982
 30
0.0
 11
45.9204
 21
107.982
 31
0.0
  0
LINE
  8
0
 62
     0
 10
45.9204
 20
107.982
 30
0.0
 11
45.9204
 21
104.883
 31
0.0
  0
LINE
  8
0
 62
     0
 10
45.9204
 20
104.883
 30
0.0
 11
46.7212
 21
104.883
 31
0.0
  0
LINE
  8
0
 62
     0
 10
46.7212
 20
104.883
 30
0.0
 11
46.7212
 21
103.882
 31
0.0
  0
LINE
  8
0
 62
     0
 10
46.7212
 20
103.882
 30
0.0
 11
60.7205
 21
103.882
 31
0.0
  0
LINE
  8
0
 62
     0
 10
60.7205
 20
103.882
 30
0.0
 11
60.7205
 21
104.883
 31
0.0
  0
LINE
  8
0
 62
     0
 10
60.7205
 20
104.883
 30
0.0
 11
61.5213
 21
104.883
 31
0.0
  0
LINE
  8
0
 62
     0
 10
61.5213
 20
104.883
 30
0.0
 11
61.5213
 21
107.982
 31
0.0
  0
LINE
  8
0
 62
     0
 10
61.5213
 20
107.982
 30
0.0
 11
60.7205
 21
107.982
 31
0.0
  0
LINE
  8
0
 62
     0
 10
60.7205
 20
107.982
 30
0.0
 11
60.7205
 21
113.782
 31
0.0
  0
LINE
  8
0
 62
     0
 10
60.7205
 20
113.782
 30
0.0
 11
61.5213
 21
113.782
 31
0.0
  0
LINE
  8
0
 62
     0
 10
61.5213
 20
113.782
 30
0.0
 11
61.5213
 21
116.882
 31
0.0
  0
LINE
  8
0
 62
     0
 10
61.5213
 20
116.882
 30
0.0
 11
60.7205
 21
116.882
 31
0.0
  0
LINE
  8
0
 62
     0
 10
60.7205
 20
116.882
 30
0.0
 11
60.7205
 21
117.883
 31
0.0
  0
LINE
  8
0
 62
     0
 10
60.7205
 20
117.883
 30
0.0
 11
46.7212
 21
117.883
 31
0.0
  0
LINE
  8
0
 62
     0
 10
27.671
 20
117.883
 30
0.0
 11
27.671
 21
116.882
 31
0.0
  0
LINE
  8
0
 62
     0
 10
27.671
 20
116.882
 30
0.0
 11
26.8704
 21
116.882
 31
0.0
  0
LINE
  8
0
 62
     0
 10
26.8704
 20
116.882
 30
0.0
 11
26.8704
 21
113.782
 31
0.0
  0
LINE
  8
0
 62
     0
 10
26.8704
 20
113.782
 30
0.0
 11
27.671
 21
113.782
 31
0.0
  0
LINE
  8
0
 62
     0
 10
27.671
 20
113.782
 30
0.0
 11
27.671
 21
107.982
 31
0.0
  0
LINE
  8
0
 62
     0
 10
27.671
 20
107.982
 30
0.0
 11
26.8704
 21
107.982
 31
0.0
  0
LINE
  8
0
 62
     0
 10
26.8704
 20
107.982
 30
0.0
 11
26.8704
 21
104.883
 31
0.0
  0
LINE
  8
0
 62
     0
 10
26.8704
 20
104.883
 30
0.0
 11
27.671
 21
104.883
 31
0.0
  0
LINE
  8
0
 62
     0
 10
27.671
 20
104.883
 30
0.0
 11
27.671
 21
103.882
 31
0.0
  0
LINE
  8
0
 62
     0
 10
27.671
 20
103.882
 30
0.0
 11
41.6705
 21
103.882
 31
0.0
  0
LINE
  8
0
 62
     0
 10
41.6705
 20
103.882
 30
0.0
 11
41.6705
 21
104.883
 31
0.0
  0
LINE
  8
0
 62
     0
 10
41.6705
 20
104.883
 30
0.0
 11
42.4713
 21
104.883
 31
0.0
  0
LINE
  8
0
 62
     0
 10
42.4713
 20
104.883
 30
0.0
 11
42.4713
 21
107.982
 31
0.0
  0
LINE
  8
0
 62
     0
 10
42.4713
 20
107.982
 30
0.0
 11
41.6705
 21
107.982
 31
0.0
  0
LINE
  8
0
 62
     0
 10
41.6705
 20
107.982
 30
0.0
 11
41.6705
 21
113.782
 31
0.0
  0
LINE
  8
0
 62
     0
 10
41.6705
 20
113.782
 30
0.0
 11
42.4713
 21
113.782
 31
0.0
  0
LINE
  8
0
 62
     0
 10
42.4713
 20
113.782
 30
0.0
 11
42.4713
 21
116.882
 31
0.0
  0
LINE
  8
0
 62
     0
 10
42.4713
 20
116.882
 30
0.0
 11
41.6705
 21
116.882
 31
0.0
  0
LINE
  8
0
 62
     0
 10
41.6705
 20
116.882
 30
0.0
 11
41.6705
 21
117.883
 31
0.0
  0
LINE
  8
0
 62
     0
 10
41.6705
 20
117.883
 30
0.0
 11
27.671
 21
117.883
 31
0.0
  0
LINE
  8
0
 62
     0
 10
8.61963
 20
117.883
 30
0.0
 11
8.61963
 21
116.882
 31
0.0
  0
LINE
  8
0
 62
     0
 10
8.61963
 20
116.882
 30
0.0
 11
7.819
 21
116.882
 31
0.0
  0
LINE
  8
0
 62
     0
 10
7.819
 20
116.882
 30
0.0
 11
7.819
 21
113.782
 31
0.0
  0
LINE
  8
0
 62
     0
 10
7.819
 20
113.782
 30
0.0
 11
8.61963
 21
113.782
 31
0.0
  0
LINE
  8
0
 62
     0
 10
8.61963
 20
113.782
 30
0.0
 11
8.61963
 21
107.982
 31
0.0
  0
LINE
  8
0
 62
     0
 10
8.61963
 20
107.982
 30
0.0
 11
7.819
 21
107.982
 31
0.0
  0
LINE
  8
0
 62
     0
 10
7.819
 20
107.982
 30
0.0
 11
7.819
 21
104.883
 31
0.0
  0
LINE
  8
0
 62
     0
 10
7.819
 20
104.883
 30
0.0
 11
8.61963
 21
104.883
 31
0.0
  0
LINE
  8
0
 62
     0
 10
8.61963
 20
104.883
 30
0.0
 11
8.61963
 21
103.882
 31
0.0
  0
LINE
  8
0
 62
     0
 10
8.61963
 20
103.882
 30
0.0
 11
22.6205
 21
103.882
 31
0.0
  0
LINE
  8
0
 62
     0
 10
22.6205
 20
103.882
 30
0.0
 11
22.6205
 21
104.883
 31
0.0
  0
LINE
  8
0
 62
     0
 10
22.6205
 20
104.883
 30
0.0
 11
23.4211
 21
104.883
 31
0.0
  0
LINE
  8
0
 62
     0
 10
23.4211
 20
104.883
 30
0.0
 11
23.4211
 21
107.982
 31
0.0
  0
LINE
  8
0
 62
     0
 10
23.4211
 20
107.982
 30
0.0
 11
22.6205
 21
107.982
 31
0.0
  0
LINE
  8
0
 62
     0
 10
22.6205
 20
107.982
 30
0.0
 11
22.6205
 21
113.782
 31
0.0
  0
LINE
  8
0
 62
     0
 10
22.6205
 20
113.782
 30
0.0
 11
23.4211
 21
113.782
 31
0.0
  0
LINE
  8
0
 62
     0
 10
23.4211
 20
113.782
 30
0.0
 11
23.4211
 21
116.882
 31
0.0
  0
LINE
  8
0
 62
     0
 10
23.4211
 20
116.882
 30
0.0
 11
22.6205
 21
116.882
 31
0.0
  0
LINE
  8
0
 62
     0
 10
22.6205
 20
116.882
 30
0.0
 11
22.6205
 21
117.883
 31
0.0
  0
LINE
  8
0
 62
     0
 10
22.6205
 20
117.883
 30
0.0
 11
8.61963
 21
117.883
 31
0.0
  0
LINE
  8
0
 62
     0
 10
2.63205
 20
182.834
 30
0.0
 11
2.21313
 21
182.622
 31
0.0
  0
LINE
  8
0
 62
     0
 10
2.21313
 20
182.622
 30
0.0
 11
1.88102
 21
182.29
 31
0.0
  0
LINE
  8
0
 62
     0
 10
1.88102
 20
182.29
 30
0.0
 11
1.6688
 21
181.871
 31
0.0
  0
LINE
  8
0
 62
     0
 10
1.6688
 20
181.871
 30
0.0
 11
1.59439
 21
181.408
 31
0.0
  0
LINE
  8
0
 62
     0
 10
1.59439
 20
181.408
 30
0.0
 11
1.6688
 21
180.945
 31
0.0
  0
LINE
  8
0
 62
     0
 10
1.6688
 20
180.945
 30
0.0
 11
1.88102
 21
180.526
 31
0.0
  0
LINE
  8
0
 62
     0
 10
1.88102
 20
180.526
 30
0.0
 11
2.21313
 21
180.194
 31
0.0
  0
LINE
  8
0
 62
     0
 10
2.21313
 20
180.194
 30
0.0
 11
2.63205
 21
179.982
 31
0.0
  0
LINE
  8
0
 62
     0
 10
2.63205
 20
179.982
 30
0.0
 11
3.09507
 21
179.907
 31
0.0
  0
LINE
  8
0
 62
     0
 10
3.09507
 20
179.907
 30
0.0
 11
3.55808
 21
179.982
 31
0.0
  0
LINE
  8
0
 62
     0
 10
3.55808
 20
179.982
 30
0.0
 11
3.97701
 21
180.194
 31
0.0
  0
LINE
  8
0
 62
     0
 10
3.97701
 20
180.194
 30
0.0
 11
4.30911
 21
180.526
 31
0.0
  0
LINE
  8
0
 62
     0
 10
4.30911
 20
180.526
 30
0.0
 11
4.52134
 21
180.945
 31
0.0
  0
LINE
  8
0
 62
     0
 10
4.52134
 20
180.945
 30
0.0
 11
4.59574
 21
181.408
 31
0.0
  0
LINE
  8
0
 62
     0
 10
4.59574
 20
181.408
 30
0.0
 11
4.52134
 21
181.871
 31
0.0
  0
LINE
  8
0
 62
     0
 10
4.52134
 20
181.871
 30
0.0
 11
4.30911
 21
182.29
 31
0.0
  0
LINE
  8
0
 62
     0
 10
4.30911
 20
182.29
 30
0.0
 11
3.97701
 21
182.622
 31
0.0
  0
LINE
  8
0
 62
     0
 10
3.97701
 20
182.622
 30
0.0
 11
3.55808
 21
182.834
 31
0.0
  0
LINE
  8
0
 62
     0
 10
3.55808
 20
182.834
 30
0.0
 11
3.09507
 21
182.907
 31
0.0
  0
LINE
  8
0
 62
     0
 10
3.09507
 20
182.907
 30
0.0
 11
2.63205
 21
182.834
 31
0.0
  0
LINE
  8
0
 62
     0
 10
313.432
 20
182.834
 30
0.0
 11
313.014
 21
182.622
 31
0.0
  0
LINE
  8
0
 62
     0
 10
313.014
 20
182.622
 30
0.0
 11
312.682
 21
182.29
 31
0.0
  0
LINE
  8
0
 62
     0
 10
312.682
 20
182.29
 30
0.0
 11
312.47
 21
181.871
 31
0.0
  0
LINE
  8
0
 62
     0
 10
312.47
 20
181.871
 30
0.0
 11
312.397
 21
181.408
 31
0.0
  0
LINE
  8
0
 62
     0
 10
312.397
 20
181.408
 30
0.0
 11
312.47
 21
180.945
 31
0.0
  0
LINE
  8
0
 62
     0
 10
312.47
 20
180.945
 30
0.0
 11
312.682
 21
180.526
 31
0.0
  0
LINE
  8
0
 62
     0
 10
312.682
 20
180.526
 30
0.0
 11
313.014
 21
180.194
 31
0.0
  0
LINE
  8
0
 62
     0
 10
313.014
 20
180.194
 30
0.0
 11
313.432
 21
179.982
 31
0.0
  0
LINE
  8
0
 62
     0
 10
313.432
 20
179.982
 30
0.0
 11
313.896
 21
179.907
 31
0.0
  0
LINE
  8
0
 62
     0
 10
313.896
 20
179.907
 30
0.0
 11
314.36
 21
179.982
 31
0.0
  0
LINE
  8
0
 62
     0
 10
314.36
 20
179.982
 30
0.0
 11
314.777
 21
180.194
 31
0.0
  0
LINE
  8
0
 62
     0
 10
314.777
 20
180.194
 30
0.0
 11
315.109
 21
180.526
 31
0.0
  0
LINE
  8
0
 62
     0
 10
315.109
 20
180.526
 30
0.0
 11
315.323
 21
180.945
 31
0.0
  0
LINE
  8
0
 62
     0
 10
315.323
 20
180.945
 30
0.0
 11
315.397
 21
181.408
 31
0.0
  0
LINE
  8
0
 62
     0
 10
315.397
 20
181.408
 30
0.0
 11
315.323
 21
181.871
 31
0.0
  0
LINE
  8
0
 62
     0
 10
315.323
 20
181.871
 30
0.0
 11
315.109
 21
182.29
 31
0.0
  0
LINE
  8
0
 62
     0
 10
315.109
 20
182.29
 30
0.0
 11
314.777
 21
182.622
 31
0.0
  0
LINE
  8
0
 62
     0
 10
314.777
 20
182.622
 30
0.0
 11
314.36
 21
182.834
 31
0.0
  0
LINE
  8
0
 62
     0
 10
314.36
 20
182.834
 30
0.0
 11
313.896
 21
182.907
 31
0.0
  0
LINE
  8
0
 62
     0
 10
313.896
 20
182.907
 30
0.0
 11
313.432
 21
182.834
 31
0.0
  0
LINE
  8
0
 62
     0
 10
209.833
 20
182.834
 30
0.0
 11
209.413
 21
182.622
 31
0.0
  0
LINE
  8
0
 62
     0
 10
209.413
 20
182.622
 30
0.0
 11
209.083
 21
182.29
 31
0.0
  0
LINE
  8
0
 62
     0
 10
209.083
 20
182.29
 30
0.0
 11
208.869
 21
181.871
 31
0.0
  0
LINE
  8
0
 62
     0
 10
208.869
 20
181.871
 30
0.0
 11
208.795
 21
181.408
 31
0.0
  0
LINE
  8
0
 62
     0
 10
208.795
 20
181.408
 30
0.0
 11
208.869
 21
180.945
 31
0.0
  0
LINE
  8
0
 62
     0
 10
208.869
 20
180.945
 30
0.0
 11
209.083
 21
180.526
 31
0.0
  0
LINE
  8
0
 62
     0
 10
209.083
 20
180.526
 30
0.0
 11
209.413
 21
180.194
 31
0.0
  0
LINE
  8
0
 62
     0
 10
209.413
 20
180.194
 30
0.0
 11
209.833
 21
179.982
 31
0.0
  0
LINE
  8
0
 62
     0
 10
209.833
 20
179.982
 30
0.0
 11
210.295
 21
179.907
 31
0.0
  0
LINE
  8
0
 62
     0
 10
210.295
 20
179.907
 30
0.0
 11
210.76
 21
179.982
 31
0.0
  0
LINE
  8
0
 62
     0
 10
210.76
 20
179.982
 30
0.0
 11
211.177
 21
180.194
 31
0.0
  0
LINE
  8
0
 62
     0
 10
211.177
 20
180.194
 30
0.0
 11
211.51
 21
180.526
 31
0.0
  0
LINE
  8
0
 62
     0
 10
211.51
 20
180.526
 30
0.0
 11
211.723
 21
180.945
 31
0.0
  0
LINE
  8
0
 62
     0
 10
211.723
 20
180.945
 30
0.0
 11
211.795
 21
181.408
 31
0.0
  0
LINE
  8
0
 62
     0
 10
211.795
 20
181.408
 30
0.0
 11
211.723
 21
181.871
 31
0.0
  0
LINE
  8
0
 62
     0
 10
211.723
 20
181.871
 30
0.0
 11
211.51
 21
182.29
 31
0.0
  0
LINE
  8
0
 62
     0
 10
211.51
 20
182.29
 30
0.0
 11
211.177
 21
182.622
 31
0.0
  0
LINE
  8
0
 62
     0
 10
211.177
 20
182.622
 30
0.0
 11
210.76
 21
182.834
 31
0.0
  0
LINE
  8
0
 62
     0
 10
210.76
 20
182.834
 30
0.0
 11
210.295
 21
182.907
 31
0.0
  0
LINE
  8
0
 62
     0
 10
210.295
 20
182.907
 30
0.0
 11
209.833
 21
182.834
 31
0.0
  0
LINE
  8
0
 62
     0
 10
106.232
 20
182.834
 30
0.0
 11
105.814
 21
182.622
 31
0.0
  0
LINE
  8
0
 62
     0
 10
105.814
 20
182.622
 30
0.0
 11
105.482
 21
182.29
 31
0.0
  0
LINE
  8
0
 62
     0
 10
105.482
 20
182.29
 30
0.0
 11
105.268
 21
181.871
 31
0.0
  0
LINE
  8
0
 62
     0
 10
105.268
 20
181.871
 30
0.0
 11
105.195
 21
181.408
 31
0.0
  0
LINE
  8
0
 62
     0
 10
105.195
 20
181.408
 30
0.0
 11
105.268
 21
180.945
 31
0.0
  0
LINE
  8
0
 62
     0
 10
105.268
 20
180.945
 30
0.0
 11
105.482
 21
180.526
 31
0.0
  0
LINE
  8
0
 62
     0
 10
105.482
 20
180.526
 30
0.0
 11
105.814
 21
180.194
 31
0.0
  0
LINE
  8
0
 62
     0
 10
105.814
 20
180.194
 30
0.0
 11
106.232
 21
179.982
 31
0.0
  0
LINE
  8
0
 62
     0
 10
106.232
 20
179.982
 30
0.0
 11
106.696
 21
179.907
 31
0.0
  0
LINE
  8
0
 62
     0
 10
106.696
 20
179.907
 30
0.0
 11
107.159
 21
179.982
 31
0.0
  0
LINE
  8
0
 62
     0
 10
107.159
 20
179.982
 30
0.0
 11
107.578
 21
180.194
 31
0.0
  0
LINE
  8
0
 62
     0
 10
107.578
 20
180.194
 30
0.0
 11
107.909
 21
180.526
 31
0.0
  0
LINE
  8
0
 62
     0
 10
107.909
 20
180.526
 30
0.0
 11
108.121
 21
180.945
 31
0.0
  0
LINE
  8
0
 62
     0
 10
108.121
 20
180.945
 30
0.0
 11
108.195
 21
181.408
 31
0.0
  0
LINE
  8
0
 62
     0
 10
108.195
 20
181.408
 30
0.0
 11
108.121
 21
181.871
 31
0.0
  0
LINE
  8
0
 62
     0
 10
108.121
 20
181.871
 30
0.0
 11
107.909
 21
182.29
 31
0.0
  0
LINE
  8
0
 62
     0
 10
107.909
 20
182.29
 30
0.0
 11
107.578
 21
182.622
 31
0.0
  0
LINE
  8
0
 62
     0
 10
107.578
 20
182.622
 30
0.0
 11
107.159
 21
182.834
 31
0.0
  0
LINE
  8
0
 62
     0
 10
107.159
 20
182.834
 30
0.0
 11
106.696
 21
182.907
 31
0.0
  0
LINE
  8
0
 62
     0
 10
106.696
 20
182.907
 30
0.0
 11
106.232
 21
182.834
 31
0.0
  0
ENDSEC
  0
EOF
