<?xml version="1.0"?>
<!-- Generated by SVGo -->
<svg width="326.802mm" height="194.302mm"
     viewBox="0.000 0.000 326.802 194.302"
     xmlns="http://www.w3.org/2000/svg" 
     xmlns:xlink="http://www.w3.org/1999/xlink">
<polygon points="319.802,5.001 319.958,5.007 320.114,5.025 320.268,5.056 320.420,5.098 320.567,5.153 320.709,5.218 320.846,5.295 320.977,5.382 321.100,5.480 321.216,5.586 321.322,5.702 321.420,5.825 321.507,5.956 321.584,6.093 321.649,6.235 321.704,6.382 321.746,6.534 321.777,6.688 321.795,6.844 321.802,7.001 321.802,187.302 321.795,187.458 321.777,187.614 321.746,187.768 321.704,187.920 321.649,188.067 321.584,188.209 321.507,188.346 321.420,188.477 321.322,188.600 321.216,188.716 321.100,188.822 320.977,188.920 320.846,189.007 320.709,189.084 320.567,189.149 320.420,189.204 320.268,189.246 320.114,189.277 319.958,189.295 319.802,189.302 7.001,189.302 6.844,189.295 6.688,189.277 6.534,189.246 6.382,189.204 6.235,189.149 6.093,189.084 5.956,189.007 5.825,188.920 5.702,188.822 5.586,188.716 5.480,188.600 5.382,188.477 5.295,188.346 5.218,188.209 5.153,188.067 5.098,187.920 5.056,187.768 5.025,187.614 5.007,187.458 5.000,187.302 5.001,7.001 5.007,6.844 5.025,6.688 5.056,6.534 5.098,6.382 5.153,6.235 5.218,6.093 5.295,5.956 5.382,5.825 5.480,5.702 5.586,5.586 5.702,5.480 5.825,5.382 5.956,5.295 6.093,5.218 6.235,5.153 6.382,5.098 6.534,5.056 6.688,5.025 6.844,5.007 7.001,5.000" style="fill:none;stroke-width:0.050000mm;stroke:black"/>
<polygon points="7.537,184.875 7.119,185.088 6.787,185.420 6.574,185.838 6.500,186.302 6.574,186.765 6.787,187.183 7.119,187.515 7.537,187.728 8.001,187.802 8.464,187.728 8.882,187.515 9.214,187.183 9.427,186.765 9.501,186.302 9.427,185.838 9.214,185.420 8.882,185.088 8.464,184.875 8.001,184.802" style="fill:none;stroke-width:0.050000mm;stroke:black"/>
<polygon points="111.137,184.875 110.719,185.088 110.387,185.420 110.174,185.838 110.101,186.302 110.174,186.765 110.387,187.183 110.719,187.515 111.137,187.728 111.601,187.802 112.064,187.728 112.483,187.515 112.814,187.183 113.027,186.765 113.101,186.302 113.027,185.838 112.814,185.420 112.483,185.088 112.064,184.875 111.601,184.802" style="fill:none;stroke-width:0.050000mm;stroke:black"/>
<polygon points="214.738,184.875 214.319,185.088 213.988,185.420 213.775,185.838 213.701,186.302 213.775,186.765 213.988,187.183 214.319,187.515 214.738,187.728 215.201,187.802 215.665,187.728 216.083,187.515 216.415,187.183 216.628,186.765 216.701,186.302 216.628,185.838 216.415,185.420 216.083,185.088 215.665,184.875 215.201,184.802" style="fill:none;stroke-width:0.050000mm;stroke:black"/>
<polygon points="318.338,184.875 317.920,185.088 317.588,185.420 317.375,185.838 317.302,186.302 317.375,186.765 317.588,187.183 317.920,187.515 318.338,187.728 318.802,187.802 319.265,187.728 319.683,187.515 320.015,187.183 320.228,186.765 320.302,186.302 320.228,185.838 320.015,185.420 319.683,185.088 319.265,184.875 318.802,184.802" style="fill:none;stroke-width:0.050000mm;stroke:black"/>
<polygon points="299.276,166.776 299.276,167.776 298.476,167.776 298.476,170.876 299.276,170.876 299.276,176.676 298.476,176.676 298.476,179.776 299.276,179.776 299.276,180.776 313.276,180.776 313.276,179.776 314.076,179.776 314.076,176.676 313.276,176.676 313.276,170.876 314.076,170.876 314.076,167.776 313.276,167.776 313.276,166.776" style="fill:none;stroke-width:0.050000mm;stroke:black"/>
<polygon points="280.226,166.776 280.226,167.776 279.426,167.776 279.426,170.876 280.226,170.876 280.226,176.676 279.426,176.676 279.426,179.776 280.226,179.776 280.226,180.776 294.226,180.776 294.226,179.776 295.026,179.776 295.026,176.676 294.226,176.676 294.226,170.876 295.026,170.876 295.026,167.776 294.226,167.776 294.226,166.776" style="fill:none;stroke-width:0.050000mm;stroke:black"/>
<polygon points="261.176,166.776 261.176,167.776 260.376,167.776 260.376,170.876 261.176,170.876 261.176,176.676 260.376,176.676 260.376,179.776 261.176,179.776 261.176,180.776 275.176,180.776 275.176,179.776 275.976,179.776 275.976,176.676 275.176,176.676 275.176,170.876 275.976,170.876 275.976,167.776 275.176,167.776 275.176,166.776" style="fill:none;stroke-width:0.050000mm;stroke:black"/>
<polygon points="242.126,166.776 242.126,167.776 241.326,167.776 241.326,170.876 242.126,170.876 242.126,176.676 241.326,176.676 241.326,179.776 242.126,179.776 242.126,180.776 256.126,180.776 256.126,179.776 256.926,179.776 256.926,176.676 256.126,176.676 256.126,170.876 256.926,170.876 256.926,167.776 256.126,167.776 256.126,166.776" style="fill:none;stroke-width:0.050000mm;stroke:black"/>
<polygon points="223.076,166.776 223.076,167.776 222.276,167.776 222.276,170.876 223.076,170.876 223.076,176.676 222.276,176.676 222.276,179.776 223.076,179.776 223.076,180.776 237.076,180.776 237.076,179.776 237.876,179.776 237.876,176.676 237.076,176.676 237.076,170.876 237.876,170.876 237.876,167.776 237.076,167.776 237.076,166.776" style="fill:none;stroke-width:0.050000mm;stroke:black"/>
<polygon points="204.026,166.776 204.026,167.776 203.226,167.776 203.226,170.876 204.026,170.876 204.026,176.676 203.226,176.676 203.226,179.776 204.026,179.776 204.026,180.776 218.026,180.776 218.026,179.776 218.826,179.776 218.826,176.676 218.026,176.676 218.026,170.876 218.826,170.876 218.826,167.776 218.026,167.776 218.026,166.776" style="fill:none;stroke-width:0.050000mm;stroke:black"/>
<polygon points="90.319,166.026 90.319,167.006 88.594,167.006 88.594,173.276 87.769,173.276 87.769,176.076 88.594,176.076 88.594,179.306 90.319,179.306 90.319,180.226 93.619,180.226 93.619,179.306 95.344,179.306 95.344,176.076 134.969,176.076 134.969,176.676 134.169,176.676 134.169,179.776 134.969,179.776 134.969,180.776 148.969,180.776 148.969,179.776 149.769,179.776 149.769,176.676 148.969,176.676 148.969,176.076 188.594,176.076 188.594,179.306 190.319,179.306 190.319,180.226 193.619,180.226 193.619,179.306 195.344,179.306 195.344,176.076 196.169,176.076 196.169,173.276 195.344,173.276 195.344,167.006 193.619,167.006 193.619,166.026 190.319,166.026 190.319,167.006 188.594,167.006 188.594,171.476 148.969,171.476 148.969,170.876 149.769,170.876 149.769,167.776 148.969,167.776 148.969,166.776 134.969,166.776 134.969,167.776 134.169,167.776 134.169,170.876 134.969,170.876 134.969,171.476 95.344,171.476 95.344,167.006 93.619,167.006 93.619,166.026" style="fill:none;stroke-width:0.050000mm;stroke:black"/>
<polygon points="63.532,166.776 63.532,167.776 62.732,167.776 62.732,170.876 63.532,170.876 63.532,176.676 62.732,176.676 62.732,179.776 63.532,179.776 63.532,180.776 77.532,180.776 77.532,179.776 78.332,179.776 78.332,176.676 77.532,176.676 77.532,170.876 78.332,170.876 78.332,167.776 77.532,167.776 77.532,166.776" style="fill:none;stroke-width:0.050000mm;stroke:black"/>
<polygon points="39.719,166.776 39.719,167.776 38.919,167.776 38.919,170.876 39.719,170.876 39.719,176.676 38.919,176.676 38.919,179.776 39.719,179.776 39.719,180.776 53.719,180.776 53.719,179.776 54.519,179.776 54.519,176.676 53.719,176.676 53.719,170.876 54.519,170.876 54.519,167.776 53.719,167.776 53.719,166.776" style="fill:none;stroke-width:0.050000mm;stroke:black"/>
<polygon points="15.907,166.776 15.907,167.776 15.107,167.776 15.107,170.876 15.907,170.876 15.907,176.676 15.107,176.676 15.107,179.776 15.907,179.776 15.907,180.776 29.907,180.776 29.907,179.776 30.707,179.776 30.707,176.676 29.907,176.676 29.907,170.876 30.707,170.876 30.707,167.776 29.907,167.776 29.907,166.776" style="fill:none;stroke-width:0.050000mm;stroke:black"/>
<polygon points="25.432,147.726 25.432,148.726 24.632,148.726 24.632,151.826 25.432,151.826 25.432,152.426 23.907,152.426 23.907,149.196 22.182,149.196 22.182,148.276 18.882,148.276 18.882,149.196 17.157,149.196 17.157,152.426 16.332,152.426 16.332,155.226 17.157,155.226 17.157,161.496 18.882,161.496 18.882,162.476 22.182,162.476 22.182,161.496 23.907,161.496 23.907,157.026 25.432,157.026 25.432,157.626 24.632,157.626 24.632,160.726 25.432,160.726 25.432,161.726 39.432,161.726 39.432,160.726 40.232,160.726 40.232,157.626 39.432,157.626 39.432,157.026 40.957,157.026 40.957,161.496 42.682,161.496 42.682,162.476 45.982,162.476 45.982,161.496 47.707,161.496 47.707,155.226 48.532,155.226 48.532,152.426 47.707,152.426 47.707,149.196 45.982,149.196 45.982,148.276 42.682,148.276 42.682,149.196 40.957,149.196 40.957,152.426 39.432,152.426 39.432,151.826 40.232,151.826 40.232,148.726 39.432,148.726 39.432,147.726" style="fill:none;stroke-width:0.050000mm;stroke:black"/>
<polygon points="299.276,147.726 299.276,148.726 298.476,148.726 298.476,151.826 299.276,151.826 299.276,157.626 298.476,157.626 298.476,160.726 299.276,160.726 299.276,161.726 313.276,161.726 313.276,160.726 314.076,160.726 314.076,157.626 313.276,157.626 313.276,151.826 314.076,151.826 314.076,148.726 313.276,148.726 313.276,147.726" style="fill:none;stroke-width:0.050000mm;stroke:black"/>
<polygon points="280.226,147.726 280.226,148.726 279.426,148.726 279.426,151.826 280.226,151.826 280.226,157.626 279.426,157.626 279.426,160.726 280.226,160.726 280.226,161.726 294.226,161.726 294.226,160.726 295.026,160.726 295.026,157.626 294.226,157.626 294.226,151.826 295.026,151.826 295.026,148.726 294.226,148.726 294.226,147.726" style="fill:none;stroke-width:0.050000mm;stroke:black"/>
<polygon points="254.032,147.726 254.032,148.726 253.232,148.726 253.232,151.826 254.032,151.826 254.032,157.626 253.232,157.626 253.232,160.726 254.032,160.726 254.032,161.726 268.032,161.726 268.032,160.726 268.832,160.726 268.832,157.626 268.032,157.626 268.032,151.826 268.832,151.826 268.832,148.726 268.032,148.726 268.032,147.726" style="fill:none;stroke-width:0.050000mm;stroke:black"/>
<polygon points="227.838,147.726 227.838,148.726 227.038,148.726 227.038,151.826 227.838,151.826 227.838,157.626 227.038,157.626 227.038,160.726 227.838,160.726 227.838,161.726 241.838,161.726 241.838,160.726 242.638,160.726 242.638,157.626 241.838,157.626 241.838,151.826 242.638,151.826 242.638,148.726 241.838,148.726 241.838,147.726" style="fill:none;stroke-width:0.050000mm;stroke:black"/>
<polygon points="208.788,147.726 208.788,148.726 207.988,148.726 207.988,151.826 208.788,151.826 208.788,157.626 207.988,157.626 207.988,160.726 208.788,160.726 208.788,161.726 222.788,161.726 222.788,160.726 223.588,160.726 223.588,157.626 222.788,157.626 222.788,151.826 223.588,151.826 223.588,148.726 222.788,148.726 222.788,147.726" style="fill:none;stroke-width:0.050000mm;stroke:black"/>
<polygon points="189.738,147.726 189.738,148.726 188.938,148.726 188.938,151.826 189.738,151.826 189.738,157.626 188.938,157.626 188.938,160.726 189.738,160.726 189.738,161.726 203.738,161.726 203.738,160.726 204.538,160.726 204.538,157.626 203.738,157.626 203.738,151.826 204.538,151.826 204.538,148.726 203.738,148.726 203.738,147.726" style="fill:none;stroke-width:0.050000mm;stroke:black"/>
<polygon points="170.688,147.726 170.688,148.726 169.888,148.726 169.888,151.826 170.688,151.826 170.688,157.626 169.888,157.626 169.888,160.726 170.688,160.726 170.688,161.726 184.688,161.726 184.688,160.726 185.488,160.726 185.488,157.626 184.688,157.626 184.688,151.826 185.488,151.826 185.488,148.726 184.688,148.726 184.688,147.726" style="fill:none;stroke-width:0.050000mm;stroke:black"/>
<polygon points="151.638,147.726 151.638,148.726 150.838,148.726 150.838,151.826 151.638,151.826 151.638,157.626 150.838,157.626 150.838,160.726 151.638,160.726 151.638,161.726 165.638,161.726 165.638,160.726 166.438,160.726 166.438,157.626 165.638,157.626 165.638,151.826 166.438,151.826 166.438,148.726 165.638,148.726 165.638,147.726" style="fill:none;stroke-width:0.050000mm;stroke:black"/>
<polygon points="132.588,147.726 132.588,148.726 131.788,148.726 131.788,151.826 132.588,151.826 132.588,157.626 131.788,157.626 131.788,160.726 132.588,160.726 132.588,161.726 146.588,161.726 146.588,160.726 147.388,160.726 147.388,157.626 146.588,157.626 146.588,151.826 147.388,151.826 147.388,148.726 146.588,148.726 146.588,147.726" style="fill:none;stroke-width:0.050000mm;stroke:black"/>
<polygon points="113.538,147.726 113.538,148.726 112.738,148.726 112.738,151.826 113.538,151.826 113.538,157.626 112.738,157.626 112.738,160.726 113.538,160.726 113.538,161.726 127.538,161.726 127.538,160.726 128.337,160.726 128.337,157.626 127.538,157.626 127.538,151.826 128.337,151.826 128.337,148.726 127.538,148.726 127.538,147.726" style="fill:none;stroke-width:0.050000mm;stroke:black"/>
<polygon points="94.488,147.726 94.488,148.726 93.688,148.726 93.688,151.826 94.488,151.826 94.488,157.626 93.688,157.626 93.688,160.726 94.488,160.726 94.488,161.726 108.488,161.726 108.488,160.726 109.288,160.726 109.288,157.626 108.488,157.626 108.488,151.826 109.288,151.826 109.288,148.726 108.488,148.726 108.488,147.726" style="fill:none;stroke-width:0.050000mm;stroke:black"/>
<polygon points="75.438,147.726 75.438,148.726 74.638,148.726 74.638,151.826 75.438,151.826 75.438,157.626 74.638,157.626 74.638,160.726 75.438,160.726 75.438,161.726 89.438,161.726 89.438,160.726 90.238,160.726 90.238,157.626 89.438,157.626 89.438,151.826 90.238,151.826 90.238,148.726 89.438,148.726 89.438,147.726" style="fill:none;stroke-width:0.050000mm;stroke:black"/>
<polygon points="56.388,147.726 56.388,148.726 55.588,148.726 55.588,151.826 56.388,151.826 56.388,157.626 55.588,157.626 55.588,160.726 56.388,160.726 56.388,161.726 70.388,161.726 70.388,160.726 71.188,160.726 71.188,157.626 70.388,157.626 70.388,151.826 71.188,151.826 71.188,148.726 70.388,148.726 70.388,147.726" style="fill:none;stroke-width:0.050000mm;stroke:black"/>
<polygon points="268.319,128.676 268.319,129.676 267.519,129.676 267.519,132.776 268.319,132.776 268.319,133.376 266.794,133.376 266.794,130.146 265.069,130.146 265.069,129.226 261.768,129.226 261.768,130.146 260.044,130.146 260.044,133.376 259.219,133.376 259.219,136.176 260.044,136.176 260.044,142.446 261.768,142.446 261.768,143.426 265.069,143.426 265.069,142.446 266.794,142.446 266.794,137.976 268.319,137.976 268.319,138.576 267.519,138.576 267.519,141.676 268.319,141.676 268.319,142.676 282.319,142.676 282.319,141.676 283.119,141.676 283.119,138.576 282.319,138.576 282.319,137.976 283.844,137.976 283.844,142.446 285.569,142.446 285.569,143.426 288.869,143.426 288.869,142.446 290.594,142.446 290.594,136.176 291.419,136.176 291.419,133.376 290.594,133.376 290.594,130.146 288.869,130.146 288.869,129.226 285.569,129.226 285.569,130.146 283.844,130.146 283.844,133.376 282.319,133.376 282.319,132.776 283.119,132.776 283.119,129.676 282.319,129.676 282.319,128.676" style="fill:none;stroke-width:0.050000mm;stroke:black"/>
<polygon points="299.276,128.676 299.276,129.676 298.476,129.676 298.476,132.776 299.276,132.776 299.276,138.576 298.476,138.576 298.476,141.676 299.276,141.676 299.276,142.676 313.276,142.676 313.276,141.676 314.076,141.676 314.076,138.576 313.276,138.576 313.276,132.776 314.076,132.776 314.076,129.676 313.276,129.676 313.276,128.676" style="fill:none;stroke-width:0.050000mm;stroke:black"/>
<polygon points="237.363,128.676 237.363,129.676 236.563,129.676 236.563,132.776 237.363,132.776 237.363,138.576 236.563,138.576 236.563,141.676 237.363,141.676 237.363,142.676 251.363,142.676 251.363,141.676 252.163,141.676 252.163,138.576 251.363,138.576 251.363,132.776 252.163,132.776 252.163,129.676 251.363,129.676 251.363,128.676" style="fill:none;stroke-width:0.050000mm;stroke:black"/>
<polygon points="218.313,128.676 218.313,129.676 217.513,129.676 217.513,132.776 218.313,132.776 218.313,138.576 217.513,138.576 217.513,141.676 218.313,141.676 218.313,142.676 232.313,142.676 232.313,141.676 233.113,141.676 233.113,138.576 232.313,138.576 232.313,132.776 233.113,132.776 233.113,129.676 232.313,129.676 232.313,128.676" style="fill:none;stroke-width:0.050000mm;stroke:black"/>
<polygon points="199.263,128.676 199.263,129.676 198.463,129.676 198.463,132.776 199.263,132.776 199.263,138.576 198.463,138.576 198.463,141.676 199.263,141.676 199.263,142.676 213.263,142.676 213.263,141.676 214.063,141.676 214.063,138.576 213.263,138.576 213.263,132.776 214.063,132.776 214.063,129.676 213.263,129.676 213.263,128.676" style="fill:none;stroke-width:0.050000mm;stroke:black"/>
<polygon points="180.213,128.676 180.213,129.676 179.413,129.676 179.413,132.776 180.213,132.776 180.213,138.576 179.413,138.576 179.413,141.676 180.213,141.676 180.213,142.676 194.213,142.676 194.213,141.676 195.013,141.676 195.013,138.576 194.213,138.576 194.213,132.776 195.013,132.776 195.013,129.676 194.213,129.676 194.213,128.676" style="fill:none;stroke-width:0.050000mm;stroke:black"/>
<polygon points="161.163,128.676 161.163,129.676 160.363,129.676 160.363,132.776 161.163,132.776 161.163,138.576 160.363,138.576 160.363,141.676 161.163,141.676 161.163,142.676 175.163,142.676 175.163,141.676 175.963,141.676 175.963,138.576 175.163,138.576 175.163,132.776 175.963,132.776 175.963,129.676 175.163,129.676 175.163,128.676" style="fill:none;stroke-width:0.050000mm;stroke:black"/>
<polygon points="142.113,128.676 142.113,129.676 141.313,129.676 141.313,132.776 142.113,132.776 142.113,138.576 141.313,138.576 141.313,141.676 142.113,141.676 142.113,142.676 156.113,142.676 156.113,141.676 156.913,141.676 156.913,138.576 156.113,138.576 156.113,132.776 156.913,132.776 156.913,129.676 156.113,129.676 156.113,128.676" style="fill:none;stroke-width:0.050000mm;stroke:black"/>
<polygon points="123.063,128.676 123.063,129.676 122.263,129.676 122.263,132.776 123.063,132.776 123.063,138.576 122.263,138.576 122.263,141.676 123.063,141.676 123.063,142.676 137.063,142.676 137.063,141.676 137.863,141.676 137.863,138.576 137.063,138.576 137.063,132.776 137.863,132.776 137.863,129.676 137.063,129.676 137.063,128.676" style="fill:none;stroke-width:0.050000mm;stroke:black"/>
<polygon points="104.013,128.676 104.013,129.676 103.213,129.676 103.213,132.776 104.013,132.776 104.013,138.576 103.213,138.576 103.213,141.676 104.013,141.676 104.013,142.676 118.013,142.676 118.013,141.676 118.813,141.676 118.813,138.576 118.013,138.576 118.013,132.776 118.813,132.776 118.813,129.676 118.013,129.676 118.013,128.676" style="fill:none;stroke-width:0.050000mm;stroke:black"/>
<polygon points="84.963,128.676 84.963,129.676 84.163,129.676 84.163,132.776 84.963,132.776 84.963,138.576 84.163,138.576 84.163,141.676 84.963,141.676 84.963,142.676 98.963,142.676 98.963,141.676 99.763,141.676 99.763,138.576 98.963,138.576 98.963,132.776 99.763,132.776 99.763,129.676 98.963,129.676 98.963,128.676" style="fill:none;stroke-width:0.050000mm;stroke:black"/>
<polygon points="65.913,128.676 65.913,129.676 65.112,129.676 65.112,132.776 65.913,132.776 65.913,138.576 65.112,138.576 65.112,141.676 65.913,141.676 65.913,142.676 79.913,142.676 79.913,141.676 80.713,141.676 80.713,138.576 79.913,138.576 79.913,132.776 80.713,132.776 80.713,129.676 79.913,129.676 79.913,128.676" style="fill:none;stroke-width:0.050000mm;stroke:black"/>
<polygon points="46.863,128.676 46.863,129.676 46.063,129.676 46.063,132.776 46.863,132.776 46.863,138.576 46.063,138.576 46.063,141.676 46.863,141.676 46.863,142.676 60.863,142.676 60.863,141.676 61.663,141.676 61.663,138.576 60.863,138.576 60.863,132.776 61.663,132.776 61.663,129.676 60.863,129.676 60.863,128.676" style="fill:none;stroke-width:0.050000mm;stroke:black"/>
<polygon points="20.669,128.676 20.669,129.676 19.869,129.676 19.869,132.776 20.669,132.776 20.669,138.576 19.869,138.576 19.869,141.676 20.669,141.676 20.669,142.676 34.669,142.676 34.669,141.676 35.469,141.676 35.469,138.576 34.669,138.576 34.669,132.776 35.469,132.776 35.469,129.676 34.669,129.676 34.669,128.676" style="fill:none;stroke-width:0.050000mm;stroke:black"/>
<polygon points="299.276,109.626 299.276,110.626 298.476,110.626 298.476,113.726 299.276,113.726 299.276,119.526 298.476,119.526 298.476,122.626 299.276,122.626 299.276,123.626 313.276,123.626 313.276,122.626 314.076,122.626 314.076,119.526 313.276,119.526 313.276,113.726 314.076,113.726 314.076,110.626 313.276,110.626 313.276,109.626" style="fill:none;stroke-width:0.050000mm;stroke:black"/>
<polygon points="275.463,109.626 275.463,110.626 274.663,110.626 274.663,113.726 275.463,113.726 275.463,119.526 274.663,119.526 274.663,122.626 275.463,122.626 275.463,123.626 289.463,123.626 289.463,122.626 290.263,122.626 290.263,119.526 289.463,119.526 289.463,113.726 290.263,113.726 290.263,110.626 289.463,110.626 289.463,109.626" style="fill:none;stroke-width:0.050000mm;stroke:black"/>
<polygon points="251.651,109.626 251.651,110.626 250.851,110.626 250.851,113.726 251.651,113.726 251.651,119.526 250.851,119.526 250.851,122.626 251.651,122.626 251.651,123.626 265.651,123.626 265.651,122.626 266.451,122.626 266.451,119.526 265.651,119.526 265.651,113.726 266.451,113.726 266.451,110.626 265.651,110.626 265.651,109.626" style="fill:none;stroke-width:0.050000mm;stroke:black"/>
<polygon points="232.601,109.626 232.601,110.626 231.801,110.626 231.801,113.726 232.601,113.726 232.601,119.526 231.801,119.526 231.801,122.626 232.601,122.626 232.601,123.626 246.601,123.626 246.601,122.626 247.401,122.626 247.401,119.526 246.601,119.526 246.601,113.726 247.401,113.726 247.401,110.626 246.601,110.626 246.601,109.626" style="fill:none;stroke-width:0.050000mm;stroke:black"/>
<polygon points="213.551,109.626 213.551,110.626 212.751,110.626 212.751,113.726 213.551,113.726 213.551,119.526 212.751,119.526 212.751,122.626 213.551,122.626 213.551,123.626 227.551,123.626 227.551,122.626 228.351,122.626 228.351,119.526 227.551,119.526 227.551,113.726 228.351,113.726 228.351,110.626 227.551,110.626 227.551,109.626" style="fill:none;stroke-width:0.050000mm;stroke:black"/>
<polygon points="194.501,109.626 194.501,110.626 193.701,110.626 193.701,113.726 194.501,113.726 194.501,119.526 193.701,119.526 193.701,122.626 194.501,122.626 194.501,123.626 208.501,123.626 208.501,122.626 209.301,122.626 209.301,119.526 208.501,119.526 208.501,113.726 209.301,113.726 209.301,110.626 208.501,110.626 208.501,109.626" style="fill:none;stroke-width:0.050000mm;stroke:black"/>
<polygon points="175.451,109.626 175.451,110.626 174.651,110.626 174.651,113.726 175.451,113.726 175.451,119.526 174.651,119.526 174.651,122.626 175.451,122.626 175.451,123.626 189.451,123.626 189.451,122.626 190.251,122.626 190.251,119.526 189.451,119.526 189.451,113.726 190.251,113.726 190.251,110.626 189.451,110.626 189.451,109.626" style="fill:none;stroke-width:0.050000mm;stroke:black"/>
<polygon points="156.401,109.626 156.401,110.626 155.601,110.626 155.601,113.726 156.401,113.726 156.401,119.526 155.601,119.526 155.601,122.626 156.401,122.626 156.401,123.626 170.401,123.626 170.401,122.626 171.201,122.626 171.201,119.526 170.401,119.526 170.401,113.726 171.201,113.726 171.201,110.626 170.401,110.626 170.401,109.626" style="fill:none;stroke-width:0.050000mm;stroke:black"/>
<polygon points="137.351,109.626 137.351,110.626 136.550,110.626 136.550,113.726 137.351,113.726 137.351,119.526 136.550,119.526 136.550,122.626 137.351,122.626 137.351,123.626 151.351,123.626 151.351,122.626 152.151,122.626 152.151,119.526 151.351,119.526 151.351,113.726 152.151,113.726 152.151,110.626 151.351,110.626 151.351,109.626" style="fill:none;stroke-width:0.050000mm;stroke:black"/>
<polygon points="118.301,109.626 118.301,110.626 117.501,110.626 117.501,113.726 118.301,113.726 118.301,119.526 117.501,119.526 117.501,122.626 118.301,122.626 118.301,123.626 132.301,123.626 132.301,122.626 133.101,122.626 133.101,119.526 132.301,119.526 132.301,113.726 133.101,113.726 133.101,110.626 132.301,110.626 132.301,109.626" style="fill:none;stroke-width:0.050000mm;stroke:black"/>
<polygon points="99.251,109.626 99.251,110.626 98.451,110.626 98.451,113.726 99.251,113.726 99.251,119.526 98.451,119.526 98.451,122.626 99.251,122.626 99.251,123.626 113.251,123.626 113.251,122.626 114.051,122.626 114.051,119.526 113.251,119.526 113.251,113.726 114.051,113.726 114.051,110.626 113.251,110.626 113.251,109.626" style="fill:none;stroke-width:0.050000mm;stroke:black"/>
<polygon points="80.201,109.626 80.201,110.626 79.401,110.626 79.401,113.726 80.201,113.726 80.201,119.526 79.401,119.526 79.401,122.626 80.201,122.626 80.201,123.626 94.201,123.626 94.201,122.626 95.001,122.626 95.001,119.526 94.201,119.526 94.201,113.726 95.001,113.726 95.001,110.626 94.201,110.626 94.201,109.626" style="fill:none;stroke-width:0.050000mm;stroke:black"/>
<polygon points="61.151,109.626 61.151,110.626 60.351,110.626 60.351,113.726 61.151,113.726 61.151,119.526 60.351,119.526 60.351,122.626 61.151,122.626 61.151,123.626 75.151,123.626 75.151,122.626 75.951,122.626 75.951,119.526 75.151,119.526 75.151,113.726 75.951,113.726 75.951,110.626 75.151,110.626 75.151,109.626" style="fill:none;stroke-width:0.050000mm;stroke:black"/>
<polygon points="42.101,109.626 42.101,110.626 41.301,110.626 41.301,113.726 42.101,113.726 42.101,119.526 41.301,119.526 41.301,122.626 42.101,122.626 42.101,123.626 56.101,123.626 56.101,122.626 56.901,122.626 56.901,119.526 56.101,119.526 56.101,113.726 56.901,113.726 56.901,110.626 56.101,110.626 56.101,109.626" style="fill:none;stroke-width:0.050000mm;stroke:black"/>
<polygon points="18.288,109.626 18.288,110.626 17.488,110.626 17.488,113.726 18.288,113.726 18.288,119.526 17.488,119.526 17.488,122.626 18.288,122.626 18.288,123.626 32.288,123.626 32.288,122.626 33.088,122.626 33.088,119.526 32.288,119.526 32.288,113.726 33.088,113.726 33.088,110.626 32.288,110.626 32.288,109.626" style="fill:none;stroke-width:0.050000mm;stroke:black"/>
<polygon points="270.701,90.576 270.701,91.576 269.901,91.576 269.901,94.676 270.701,94.676 270.701,95.276 269.176,95.276 269.176,92.046 267.451,92.046 267.451,91.126 264.151,91.126 264.151,92.046 262.426,92.046 262.426,95.276 261.601,95.276 261.601,98.076 262.426,98.076 262.426,104.346 264.151,104.346 264.151,105.326 267.451,105.326 267.451,104.346 269.176,104.346 269.176,99.876 270.701,99.876 270.701,100.476 269.901,100.476 269.901,103.576 270.701,103.576 270.701,104.576 284.701,104.576 284.701,103.576 285.501,103.576 285.501,100.476 284.701,100.476 284.701,99.876 286.226,99.876 286.226,104.346 287.951,104.346 287.951,105.326 291.251,105.326 291.251,104.346 292.976,104.346 292.976,98.076 293.801,98.076 293.801,95.276 292.976,95.276 292.976,92.046 291.251,92.046 291.251,91.126 287.951,91.126 287.951,92.046 286.226,92.046 286.226,95.276 284.701,95.276 284.701,94.676 285.501,94.676 285.501,91.576 284.701,91.576 284.701,90.576" style="fill:none;stroke-width:0.050000mm;stroke:black"/>
<polygon points="299.276,90.576 299.276,91.576 298.476,91.576 298.476,94.676 299.276,94.676 299.276,100.476 298.476,100.476 298.476,103.576 299.276,103.576 299.276,104.576 313.276,104.576 313.276,103.576 314.076,103.576 314.076,100.476 313.276,100.476 313.276,94.676 314.076,94.676 314.076,91.576 313.276,91.576 313.276,90.576" style="fill:none;stroke-width:0.050000mm;stroke:black"/>
<polygon points="242.126,90.576 242.126,91.576 241.326,91.576 241.326,94.676 242.126,94.676 242.126,100.476 241.326,100.476 241.326,103.576 242.126,103.576 242.126,104.576 256.126,104.576 256.126,103.576 256.926,103.576 256.926,100.476 256.126,100.476 256.126,94.676 256.926,94.676 256.926,91.576 256.126,91.576 256.126,90.576" style="fill:none;stroke-width:0.050000mm;stroke:black"/>
<polygon points="223.076,90.576 223.076,91.576 222.276,91.576 222.276,94.676 223.076,94.676 223.076,100.476 222.276,100.476 222.276,103.576 223.076,103.576 223.076,104.576 237.076,104.576 237.076,103.576 237.876,103.576 237.876,100.476 237.076,100.476 237.076,94.676 237.876,94.676 237.876,91.576 237.076,91.576 237.076,90.576" style="fill:none;stroke-width:0.050000mm;stroke:black"/>
<polygon points="204.026,90.576 204.026,91.576 203.226,91.576 203.226,94.676 204.026,94.676 204.026,100.476 203.226,100.476 203.226,103.576 204.026,103.576 204.026,104.576 218.026,104.576 218.026,103.576 218.826,103.576 218.826,100.476 218.026,100.476 218.026,94.676 218.826,94.676 218.826,91.576 218.026,91.576 218.026,90.576" style="fill:none;stroke-width:0.050000mm;stroke:black"/>
<polygon points="184.976,90.576 184.976,91.576 184.176,91.576 184.176,94.676 184.976,94.676 184.976,100.476 184.176,100.476 184.176,103.576 184.976,103.576 184.976,104.576 198.976,104.576 198.976,103.576 199.776,103.576 199.776,100.476 198.976,100.476 198.976,94.676 199.776,94.676 199.776,91.576 198.976,91.576 198.976,90.576" style="fill:none;stroke-width:0.050000mm;stroke:black"/>
<polygon points="165.926,90.576 165.926,91.576 165.126,91.576 165.126,94.676 165.926,94.676 165.926,100.476 165.126,100.476 165.126,103.576 165.926,103.576 165.926,104.576 179.926,104.576 179.926,103.576 180.726,103.576 180.726,100.476 179.926,100.476 179.926,94.676 180.726,94.676 180.726,91.576 179.926,91.576 179.926,90.576" style="fill:none;stroke-width:0.050000mm;stroke:black"/>
<polygon points="146.876,90.576 146.876,91.576 146.076,91.576 146.076,94.676 146.876,94.676 146.876,100.476 146.076,100.476 146.076,103.576 146.876,103.576 146.876,104.576 160.876,104.576 160.876,103.576 161.676,103.576 161.676,100.476 160.876,100.476 160.876,94.676 161.676,94.676 161.676,91.576 160.876,91.576 160.876,90.576" style="fill:none;stroke-width:0.050000mm;stroke:black"/>
<polygon points="127.825,90.576 127.825,91.576 127.025,91.576 127.025,94.676 127.825,94.676 127.825,100.476 127.025,100.476 127.025,103.576 127.825,103.576 127.825,104.576 141.826,104.576 141.826,103.576 142.626,103.576 142.626,100.476 141.826,100.476 141.826,94.676 142.626,94.676 142.626,91.576 141.826,91.576 141.826,90.576" style="fill:none;stroke-width:0.050000mm;stroke:black"/>
<polygon points="108.775,90.576 108.775,91.576 107.976,91.576 107.976,94.676 108.775,94.676 108.775,100.476 107.976,100.476 107.976,103.576 108.775,103.576 108.775,104.576 122.775,104.576 122.775,103.576 123.575,103.576 123.575,100.476 122.775,100.476 122.775,94.676 123.575,94.676 123.575,91.576 122.775,91.576 122.775,90.576" style="fill:none;stroke-width:0.050000mm;stroke:black"/>
<polygon points="89.726,90.576 89.726,91.576 88.926,91.576 88.926,94.676 89.726,94.676 89.726,100.476 88.926,100.476 88.926,103.576 89.726,103.576 89.726,104.576 103.726,104.576 103.726,103.576 104.525,103.576 104.525,100.476 103.726,100.476 103.726,94.676 104.525,94.676 104.525,91.576 103.726,91.576 103.726,90.576" style="fill:none;stroke-width:0.050000mm;stroke:black"/>
<polygon points="70.676,90.576 70.676,91.576 69.876,91.576 69.876,94.676 70.676,94.676 70.676,100.476 69.876,100.476 69.876,103.576 70.676,103.576 70.676,104.576 84.676,104.576 84.676,103.576 85.476,103.576 85.476,100.476 84.676,100.476 84.676,94.676 85.476,94.676 85.476,91.576 84.676,91.576 84.676,90.576" style="fill:none;stroke-width:0.050000mm;stroke:black"/>
<polygon points="51.626,90.576 51.626,91.576 50.826,91.576 50.826,94.676 51.626,94.676 51.626,100.476 50.826,100.476 50.826,103.576 51.626,103.576 51.626,104.576 65.626,104.576 65.626,103.576 66.426,103.576 66.426,100.476 65.626,100.476 65.626,94.676 66.426,94.676 66.426,91.576 65.626,91.576 65.626,90.576" style="fill:none;stroke-width:0.050000mm;stroke:black"/>
<polygon points="32.576,90.576 32.576,91.576 31.776,91.576 31.776,94.676 32.576,94.676 32.576,100.476 31.776,100.476 31.776,103.576 32.576,103.576 32.576,104.576 46.576,104.576 46.576,103.576 47.376,103.576 47.376,100.476 46.576,100.476 46.576,94.676 47.376,94.676 47.376,91.576 46.576,91.576 46.576,90.576" style="fill:none;stroke-width:0.050000mm;stroke:black"/>
<polygon points="13.525,90.576 13.525,91.576 12.725,91.576 12.725,94.676 13.525,94.676 13.525,100.476 12.725,100.476 12.725,103.576 13.525,103.576 13.525,104.576 27.526,104.576 27.526,103.576 28.326,103.576 28.326,100.476 27.526,100.476 27.526,94.676 28.326,94.676 28.326,91.576 27.526,91.576 27.526,90.576" style="fill:none;stroke-width:0.050000mm;stroke:black"/>
<polygon points="7.537,95.724 7.119,95.937 6.787,96.269 6.574,96.687 6.500,97.151 6.574,97.615 6.787,98.033 7.119,98.365 7.537,98.578 8.001,98.651 8.464,98.578 8.882,98.365 9.214,98.033 9.427,97.615 9.501,97.151 9.427,96.687 9.214,96.269 8.882,95.937 8.464,95.724 8.001,95.651" style="fill:none;stroke-width:0.050000mm;stroke:black"/>
<polygon points="318.338,95.724 317.920,95.937 317.588,96.269 317.375,96.687 317.302,97.151 317.375,97.615 317.588,98.033 317.920,98.365 318.338,98.578 318.802,98.651 319.265,98.578 319.683,98.365 320.015,98.033 320.228,97.615 320.302,97.151 320.228,96.687 320.015,96.269 319.683,95.937 319.265,95.724 318.802,95.651" style="fill:none;stroke-width:0.050000mm;stroke:black"/>
<polygon points="299.276,71.526 299.276,72.526 298.476,72.526 298.476,75.626 299.276,75.626 299.276,81.426 298.476,81.426 298.476,84.526 299.276,84.526 299.276,85.526 313.276,85.526 313.276,84.526 314.076,84.526 314.076,81.426 313.276,81.426 313.276,75.626 314.076,75.626 314.076,72.526 313.276,72.526 313.276,71.526" style="fill:none;stroke-width:0.050000mm;stroke:black"/>
<polygon points="280.226,71.526 280.226,72.526 279.426,72.526 279.426,75.626 280.226,75.626 280.226,81.426 279.426,81.426 279.426,84.526 280.226,84.526 280.226,85.526 294.226,85.526 294.226,84.526 295.026,84.526 295.026,81.426 294.226,81.426 294.226,75.626 295.026,75.626 295.026,72.526 294.226,72.526 294.226,71.526" style="fill:none;stroke-width:0.050000mm;stroke:black"/>
<polygon points="261.176,71.526 261.176,72.526 260.376,72.526 260.376,75.626 261.176,75.626 261.176,81.426 260.376,81.426 260.376,84.526 261.176,84.526 261.176,85.526 275.176,85.526 275.176,84.526 275.976,84.526 275.976,81.426 275.176,81.426 275.176,75.626 275.976,75.626 275.976,72.526 275.176,72.526 275.176,71.526" style="fill:none;stroke-width:0.050000mm;stroke:black"/>
<polygon points="242.126,71.526 242.126,72.526 241.326,72.526 241.326,75.626 242.126,75.626 242.126,81.426 241.326,81.426 241.326,84.526 242.126,84.526 242.126,85.526 256.126,85.526 256.126,84.526 256.926,84.526 256.926,81.426 256.126,81.426 256.126,75.626 256.926,75.626 256.926,72.526 256.126,72.526 256.126,71.526" style="fill:none;stroke-width:0.050000mm;stroke:black"/>
<polygon points="223.076,71.526 223.076,72.526 222.276,72.526 222.276,75.626 223.076,75.626 223.076,81.426 222.276,81.426 222.276,84.526 223.076,84.526 223.076,85.526 237.076,85.526 237.076,84.526 237.876,84.526 237.876,81.426 237.076,81.426 237.076,75.626 237.876,75.626 237.876,72.526 237.076,72.526 237.076,71.526" style="fill:none;stroke-width:0.050000mm;stroke:black"/>
<polygon points="204.026,71.526 204.026,72.526 203.226,72.526 203.226,75.626 204.026,75.626 204.026,81.426 203.226,81.426 203.226,84.526 204.026,84.526 204.026,85.526 218.026,85.526 218.026,84.526 218.826,84.526 218.826,81.426 218.026,81.426 218.026,75.626 218.826,75.626 218.826,72.526 218.026,72.526 218.026,71.526" style="fill:none;stroke-width:0.050000mm;stroke:black"/>
<polygon points="184.976,71.526 184.976,72.526 184.176,72.526 184.176,75.626 184.976,75.626 184.976,81.426 184.176,81.426 184.176,84.526 184.976,84.526 184.976,85.526 198.976,85.526 198.976,84.526 199.776,84.526 199.776,81.426 198.976,81.426 198.976,75.626 199.776,75.626 199.776,72.526 198.976,72.526 198.976,71.526" style="fill:none;stroke-width:0.050000mm;stroke:black"/>
<polygon points="165.926,71.526 165.926,72.526 165.126,72.526 165.126,75.626 165.926,75.626 165.926,81.426 165.126,81.426 165.126,84.526 165.926,84.526 165.926,85.526 179.926,85.526 179.926,84.526 180.726,84.526 180.726,81.426 179.926,81.426 179.926,75.626 180.726,75.626 180.726,72.526 179.926,72.526 179.926,71.526" style="fill:none;stroke-width:0.050000mm;stroke:black"/>
<polygon points="146.876,71.526 146.876,72.526 146.076,72.526 146.076,75.626 146.876,75.626 146.876,81.426 146.076,81.426 146.076,84.526 146.876,84.526 146.876,85.526 160.876,85.526 160.876,84.526 161.676,84.526 161.676,81.426 160.876,81.426 160.876,75.626 161.676,75.626 161.676,72.526 160.876,72.526 160.876,71.526" style="fill:none;stroke-width:0.050000mm;stroke:black"/>
<polygon points="127.825,71.526 127.825,72.526 127.025,72.526 127.025,75.626 127.825,75.626 127.825,81.426 127.025,81.426 127.025,84.526 127.825,84.526 127.825,85.526 141.826,85.526 141.826,84.526 142.626,84.526 142.626,81.426 141.826,81.426 141.826,75.626 142.626,75.626 142.626,72.526 141.826,72.526 141.826,71.526" style="fill:none;stroke-width:0.050000mm;stroke:black"/>
<polygon points="108.775,71.526 108.775,72.526 107.976,72.526 107.976,75.626 108.775,75.626 108.775,81.426 107.976,81.426 107.976,84.526 108.775,84.526 108.775,85.526 122.775,85.526 122.775,84.526 123.575,84.526 123.575,81.426 122.775,81.426 122.775,75.626 123.575,75.626 123.575,72.526 122.775,72.526 122.775,71.526" style="fill:none;stroke-width:0.050000mm;stroke:black"/>
<polygon points="89.726,71.526 89.726,72.526 88.926,72.526 88.926,75.626 89.726,75.626 89.726,81.426 88.926,81.426 88.926,84.526 89.726,84.526 89.726,85.526 103.726,85.526 103.726,84.526 104.525,84.526 104.525,81.426 103.726,81.426 103.726,75.626 104.525,75.626 104.525,72.526 103.726,72.526 103.726,71.526" style="fill:none;stroke-width:0.050000mm;stroke:black"/>
<polygon points="70.676,71.526 70.676,72.526 69.876,72.526 69.876,75.626 70.676,75.626 70.676,81.426 69.876,81.426 69.876,84.526 70.676,84.526 70.676,85.526 84.676,85.526 84.676,84.526 85.476,84.526 85.476,81.426 84.676,81.426 84.676,75.626 85.476,75.626 85.476,72.526 84.676,72.526 84.676,71.526" style="fill:none;stroke-width:0.050000mm;stroke:black"/>
<polygon points="51.626,71.526 51.626,72.526 50.826,72.526 50.826,75.626 51.626,75.626 51.626,81.426 50.826,81.426 50.826,84.526 51.626,84.526 51.626,85.526 65.626,85.526 65.626,84.526 66.426,84.526 66.426,81.426 65.626,81.426 65.626,75.626 66.426,75.626 66.426,72.526 65.626,72.526 65.626,71.526" style="fill:none;stroke-width:0.050000mm;stroke:black"/>
<polygon points="32.576,71.526 32.576,72.526 31.776,72.526 31.776,75.626 32.576,75.626 32.576,81.426 31.776,81.426 31.776,84.526 32.576,84.526 32.576,85.526 46.576,85.526 46.576,84.526 47.376,84.526 47.376,81.426 46.576,81.426 46.576,75.626 47.376,75.626 47.376,72.526 46.576,72.526 46.576,71.526" style="fill:none;stroke-width:0.050000mm;stroke:black"/>
<polygon points="13.525,71.526 13.525,72.526 12.725,72.526 12.725,75.626 13.525,75.626 13.525,81.426 12.725,81.426 12.725,84.526 13.525,84.526 13.525,85.526 27.526,85.526 27.526,84.526 28.326,84.526 28.326,81.426 27.526,81.426 27.526,75.626 28.326,75.626 28.326,72.526 27.526,72.526 27.526,71.526" style="fill:none;stroke-width:0.050000mm;stroke:black"/>
<polygon points="7.537,6.574 7.119,6.787 6.787,7.119 6.574,7.537 6.500,8.001 6.574,8.464 6.787,8.882 7.119,9.214 7.537,9.427 8.001,9.501 8.464,9.427 8.882,9.214 9.214,8.882 9.427,8.464 9.501,8.001 9.427,7.537 9.214,7.119 8.882,6.787 8.464,6.574 8.001,6.501" style="fill:none;stroke-width:0.050000mm;stroke:black"/>
<polygon points="318.338,6.574 317.920,6.787 317.588,7.119 317.375,7.537 317.302,8.001 317.375,8.464 317.588,8.882 317.920,9.214 318.338,9.427 318.802,9.501 319.265,9.427 319.683,9.214 320.015,8.882 320.228,8.464 320.302,8.001 320.228,7.537 320.015,7.119 319.683,6.787 319.265,6.574 318.802,6.501" style="fill:none;stroke-width:0.050000mm;stroke:black"/>
<polygon points="214.738,6.574 214.319,6.787 213.988,7.119 213.775,7.537 213.701,8.001 213.775,8.464 213.988,8.882 214.319,9.214 214.738,9.427 215.201,9.501 215.665,9.427 216.083,9.214 216.415,8.882 216.628,8.464 216.701,8.001 216.628,7.537 216.415,7.119 216.083,6.787 215.665,6.574 215.201,6.501" style="fill:none;stroke-width:0.050000mm;stroke:black"/>
<polygon points="111.137,6.574 110.719,6.787 110.387,7.119 110.174,7.537 110.101,8.001 110.174,8.464 110.387,8.882 110.719,9.214 111.137,9.427 111.601,9.501 112.064,9.427 112.483,9.214 112.814,8.882 113.027,8.464 113.101,8.001 113.027,7.537 112.814,7.119 112.483,6.787 112.064,6.574 111.601,6.501" style="fill:none;stroke-width:0.050000mm;stroke:black"/>
</svg>
