<?xml version="1.0"?>
<!-- Generated by SVGo -->
<svg width="328.802mm" height="194.812mm"
     viewBox="0.000 0.000 328.802 194.812"
     xmlns="http://www.w3.org/2000/svg" 
     xmlns:xlink="http://www.w3.org/1999/xlink">
<polygon points="319.992,5.001 320.290,5.012 320.588,5.047 320.881,5.106 321.169,5.187 321.450,5.291 321.721,5.416 321.982,5.562 322.231,5.728 322.466,5.913 322.686,6.116 322.889,6.336 323.074,6.571 323.240,6.820 323.386,7.081 323.511,7.352 323.615,7.633 323.696,7.921 323.755,8.214 323.790,8.512 323.802,8.811 323.802,186.002 323.790,186.300 323.755,186.598 323.696,186.891 323.615,187.179 323.511,187.460 323.386,187.731 323.240,187.992 323.074,188.241 322.889,188.476 322.686,188.696 322.466,188.899 322.231,189.084 321.982,189.250 321.721,189.396 321.450,189.521 321.169,189.625 320.881,189.706 320.588,189.765 320.290,189.800 319.992,189.812 8.811,189.812 8.512,189.800 8.214,189.765 7.921,189.706 7.633,189.625 7.352,189.521 7.081,189.396 6.820,189.250 6.571,189.084 6.336,188.899 6.116,188.696 5.913,188.476 5.728,188.241 5.562,187.992 5.416,187.731 5.291,187.460 5.187,187.179 5.106,186.891 5.047,186.598 5.012,186.300 5.000,186.002 5.001,8.811 5.012,8.512 5.047,8.214 5.106,7.921 5.187,7.633 5.291,7.352 5.416,7.081 5.562,6.820 5.728,6.571 5.913,6.336 6.116,6.116 6.336,5.913 6.571,5.728 6.820,5.562 7.081,5.416 7.352,5.291 7.633,5.187 7.921,5.106 8.214,5.047 8.512,5.012 8.811,5.000" style="fill:none;stroke-width:0.050000mm;stroke:black"/>
<polygon points="7.975,184.695 7.501,184.936 7.125,185.312 6.884,185.786 6.801,186.312 6.884,186.837 7.125,187.311 7.501,187.687 7.975,187.928 8.501,188.012 9.026,187.928 9.500,187.687 9.876,187.311 10.117,186.837 10.201,186.312 10.117,185.786 9.876,185.312 9.500,184.936 9.026,184.695 8.501,184.612" style="fill:none;stroke-width:0.050000mm;stroke:black"/>
<polygon points="111.909,184.695 111.435,184.936 111.059,185.312 110.817,185.786 110.734,186.312 110.817,186.837 111.059,187.311 111.435,187.687 111.909,187.928 112.434,188.012 112.959,187.928 113.433,187.687 113.809,187.311 114.051,186.837 114.134,186.312 114.051,185.786 113.809,185.312 113.433,184.936 112.959,184.695 112.434,184.612" style="fill:none;stroke-width:0.050000mm;stroke:black"/>
<polygon points="215.843,184.695 215.369,184.936 214.993,185.312 214.751,185.786 214.668,186.312 214.751,186.837 214.993,187.311 215.369,187.687 215.843,187.928 216.368,188.012 216.893,187.928 217.367,187.687 217.743,187.311 217.985,186.837 218.068,186.312 217.985,185.786 217.743,185.312 217.367,184.936 216.893,184.695 216.368,184.612" style="fill:none;stroke-width:0.050000mm;stroke:black"/>
<polygon points="319.776,184.695 319.302,184.936 318.926,185.312 318.685,185.786 318.602,186.312 318.685,186.837 318.926,187.311 319.302,187.687 319.776,187.928 320.302,188.012 320.827,187.928 321.301,187.687 321.677,187.311 321.918,186.837 322.002,186.312 321.918,185.786 321.677,185.312 321.301,184.936 320.827,184.695 320.302,184.612" style="fill:none;stroke-width:0.050000mm;stroke:black"/>
<polygon points="11.999,68.510 11.999,106.611 12.000,106.611 12.000,125.660 11.999,125.660 11.999,144.712 12.000,144.712 12.000,182.812 316.802,182.812 316.802,68.510" style="fill:none;stroke-width:0.050000mm;stroke:black"/>
<polygon points="7.975,95.789 7.501,96.031 7.125,96.407 6.884,96.881 6.801,97.406 6.884,97.931 7.125,98.405 7.501,98.781 7.975,99.023 8.501,99.106 9.026,99.023 9.500,98.781 9.876,98.405 10.117,97.931 10.201,97.406 10.117,96.881 9.876,96.407 9.500,96.031 9.026,95.789 8.501,95.706" style="fill:none;stroke-width:0.050000mm;stroke:black"/>
<polygon points="319.776,95.789 319.302,96.031 318.926,96.407 318.685,96.881 318.602,97.406 318.685,97.931 318.926,98.405 319.302,98.781 319.776,99.023 320.302,99.106 320.827,99.023 321.301,98.781 321.677,98.405 321.918,97.931 322.002,97.406 321.918,96.881 321.677,96.407 321.301,96.031 320.827,95.789 320.302,95.706" style="fill:none;stroke-width:0.050000mm;stroke:black"/>
<polygon points="7.975,6.884 7.501,7.125 7.125,7.501 6.884,7.975 6.801,8.501 6.884,9.026 7.125,9.500 7.501,9.876 7.975,10.117 8.501,10.201 9.026,10.117 9.500,9.876 9.876,9.500 10.117,9.026 10.201,8.501 10.117,7.975 9.876,7.501 9.500,7.125 9.026,6.884 8.501,6.801" style="fill:none;stroke-width:0.050000mm;stroke:black"/>
<polygon points="319.776,6.884 319.302,7.125 318.926,7.501 318.685,7.975 318.602,8.501 318.685,9.026 318.926,9.500 319.302,9.876 319.776,10.117 320.302,10.201 320.827,10.117 321.301,9.876 321.677,9.500 321.918,9.026 322.002,8.501 321.918,7.975 321.677,7.501 321.301,7.125 320.827,6.884 320.302,6.801" style="fill:none;stroke-width:0.050000mm;stroke:black"/>
<polygon points="215.843,6.884 215.369,7.125 214.993,7.501 214.751,7.975 214.668,8.501 214.751,9.026 214.993,9.500 215.369,9.876 215.843,10.117 216.368,10.201 216.893,10.117 217.367,9.876 217.743,9.500 217.985,9.026 218.068,8.501 217.985,7.975 217.743,7.501 217.367,7.125 216.893,6.884 216.368,6.801" style="fill:none;stroke-width:0.050000mm;stroke:black"/>
<polygon points="111.909,6.884 111.435,7.125 111.059,7.501 110.817,7.975 110.734,8.501 110.817,9.026 111.059,9.500 111.435,9.876 111.909,10.117 112.434,10.201 112.959,10.117 113.433,9.876 113.809,9.500 114.051,9.026 114.134,8.501 114.051,7.975 113.809,7.501 113.433,7.125 112.959,6.884 112.434,6.801" style="fill:none;stroke-width:0.050000mm;stroke:black"/>
</svg>
