<?xml version="1.0"?>
<!-- Generated by SVGo -->
<svg width="326.802mm" height="194.302mm"
     viewBox="0.000 0.000 326.802 194.302"
     xmlns="http://www.w3.org/2000/svg" 
     xmlns:xlink="http://www.w3.org/1999/xlink">
<polygon points="319.802,5.001 319.958,5.007 320.114,5.025 320.268,5.056 320.420,5.098 320.567,5.153 320.709,5.218 320.846,5.295 320.977,5.382 321.100,5.480 321.216,5.586 321.322,5.702 321.420,5.825 321.507,5.956 321.584,6.093 321.649,6.235 321.704,6.382 321.746,6.534 321.777,6.688 321.795,6.844 321.802,7.001 321.802,187.302 321.795,187.458 321.777,187.614 321.746,187.768 321.704,187.920 321.649,188.067 321.584,188.209 321.507,188.346 321.420,188.477 321.322,188.600 321.216,188.716 321.100,188.822 320.977,188.920 320.846,189.007 320.709,189.084 320.567,189.149 320.420,189.204 320.268,189.246 320.114,189.277 319.958,189.295 319.802,189.302 7.001,189.302 6.844,189.295 6.688,189.277 6.534,189.246 6.382,189.204 6.235,189.149 6.093,189.084 5.956,189.007 5.825,188.920 5.702,188.822 5.586,188.716 5.480,188.600 5.382,188.477 5.295,188.346 5.218,188.209 5.153,188.067 5.098,187.920 5.056,187.768 5.025,187.614 5.007,187.458 5.000,187.302 5.001,7.001 5.007,6.844 5.025,6.688 5.056,6.534 5.098,6.382 5.153,6.235 5.218,6.093 5.295,5.956 5.382,5.825 5.480,5.702 5.586,5.586 5.702,5.480 5.825,5.382 5.956,5.295 6.093,5.218 6.235,5.153 6.382,5.098 6.534,5.056 6.688,5.025 6.844,5.007 7.001,5.000" style="fill:none;stroke-width:0.050000mm;stroke:black"/>
<polygon points="7.537,184.875 7.119,185.088 6.787,185.420 6.574,185.838 6.500,186.302 6.574,186.765 6.787,187.183 7.119,187.515 7.537,187.728 8.001,187.802 8.464,187.728 8.882,187.515 9.214,187.183 9.427,186.765 9.501,186.302 9.427,185.838 9.214,185.420 8.882,185.088 8.464,184.875 8.001,184.802" style="fill:none;stroke-width:0.050000mm;stroke:black"/>
<polygon points="111.137,184.875 110.719,185.088 110.387,185.420 110.174,185.838 110.101,186.302 110.174,186.765 110.387,187.183 110.719,187.515 111.137,187.728 111.601,187.802 112.064,187.728 112.483,187.515 112.814,187.183 113.027,186.765 113.101,186.302 113.027,185.838 112.814,185.420 112.483,185.088 112.064,184.875 111.601,184.802" style="fill:none;stroke-width:0.050000mm;stroke:black"/>
<polygon points="214.738,184.875 214.319,185.088 213.988,185.420 213.775,185.838 213.701,186.302 213.775,186.765 213.988,187.183 214.319,187.515 214.738,187.728 215.201,187.802 215.665,187.728 216.083,187.515 216.415,187.183 216.628,186.765 216.701,186.302 216.628,185.838 216.415,185.420 216.083,185.088 215.665,184.875 215.201,184.802" style="fill:none;stroke-width:0.050000mm;stroke:black"/>
<polygon points="318.338,184.875 317.920,185.088 317.588,185.420 317.375,185.838 317.302,186.302 317.375,186.765 317.588,187.183 317.920,187.515 318.338,187.728 318.802,187.802 319.265,187.728 319.683,187.515 320.015,187.183 320.228,186.765 320.302,186.302 320.228,185.838 320.015,185.420 319.683,185.088 319.265,184.875 318.802,184.802" style="fill:none;stroke-width:0.050000mm;stroke:black"/>
<polygon points="10.999,69.000 10.999,107.102 11.000,107.102 11.000,126.150 10.999,126.150 10.999,145.202 11.000,145.202 11.000,183.302 315.802,183.302 315.802,69.000" style="fill:none;stroke-width:0.050000mm;stroke:black"/>
<polygon points="7.537,95.724 7.119,95.937 6.787,96.269 6.574,96.687 6.500,97.151 6.574,97.615 6.787,98.033 7.119,98.365 7.537,98.578 8.001,98.651 8.464,98.578 8.882,98.365 9.214,98.033 9.427,97.615 9.501,97.151 9.427,96.687 9.214,96.269 8.882,95.937 8.464,95.724 8.001,95.651" style="fill:none;stroke-width:0.050000mm;stroke:black"/>
<polygon points="318.338,95.724 317.920,95.937 317.588,96.269 317.375,96.687 317.302,97.151 317.375,97.615 317.588,98.033 317.920,98.365 318.338,98.578 318.802,98.651 319.265,98.578 319.683,98.365 320.015,98.033 320.228,97.615 320.302,97.151 320.228,96.687 320.015,96.269 319.683,95.937 319.265,95.724 318.802,95.651" style="fill:none;stroke-width:0.050000mm;stroke:black"/>
<polygon points="7.537,6.574 7.119,6.787 6.787,7.119 6.574,7.537 6.500,8.001 6.574,8.464 6.787,8.882 7.119,9.214 7.537,9.427 8.001,9.501 8.464,9.427 8.882,9.214 9.214,8.882 9.427,8.464 9.501,8.001 9.427,7.537 9.214,7.119 8.882,6.787 8.464,6.574 8.001,6.501" style="fill:none;stroke-width:0.050000mm;stroke:black"/>
<polygon points="318.338,6.574 317.920,6.787 317.588,7.119 317.375,7.537 317.302,8.001 317.375,8.464 317.588,8.882 317.920,9.214 318.338,9.427 318.802,9.501 319.265,9.427 319.683,9.214 320.015,8.882 320.228,8.464 320.302,8.001 320.228,7.537 320.015,7.119 319.683,6.787 319.265,6.574 318.802,6.501" style="fill:none;stroke-width:0.050000mm;stroke:black"/>
<polygon points="214.738,6.574 214.319,6.787 213.988,7.119 213.775,7.537 213.701,8.001 213.775,8.464 213.988,8.882 214.319,9.214 214.738,9.427 215.201,9.501 215.665,9.427 216.083,9.214 216.415,8.882 216.628,8.464 216.701,8.001 216.628,7.537 216.415,7.119 216.083,6.787 215.665,6.574 215.201,6.501" style="fill:none;stroke-width:0.050000mm;stroke:black"/>
<polygon points="111.137,6.574 110.719,6.787 110.387,7.119 110.174,7.537 110.101,8.001 110.174,8.464 110.387,8.882 110.719,9.214 111.137,9.427 111.601,9.501 112.064,9.427 112.483,9.214 112.814,8.882 113.027,8.464 113.101,8.001 113.027,7.537 112.814,7.119 112.483,6.787 112.064,6.574 111.601,6.501" style="fill:none;stroke-width:0.050000mm;stroke:black"/>
</svg>
