  0
SECTION
  2
HEADER
  9
$ACADVER
  1
AC1009
  9
$FILLMODE
 70
 0
  9
$SPLFRAME
 70
 1
  9
$EXTMIN
 10
0
 20
0
 30
0.0
  9
$EXTMAX
 10
1058.33
 20
1058.33
 30
0.0
  0
ENDSEC
  0
SECTION
  2
TABLES
  0
TABLE
  2
LAYER
 70
1
  0
LAYER
  2
0
 70
     0
 62
     7
  6
CONTINUOUS
  0
ENDTAB
  0
ENDSEC
  0
SECTION
  2
ENTITIES
  0
LINE
  8
0
 62
     0
 10
315.087
 20
185.113
 30
0.0
 11
315.385
 21
185.102
 31
0.0
  0
LINE
  8
0
 62
     0
 10
315.385
 20
185.102
 30
0.0
 11
315.682
 21
185.067
 31
0.0
  0
LINE
  8
0
 62
     0
 10
315.682
 20
185.067
 30
0.0
 11
315.976
 21
185.009
 31
0.0
  0
LINE
  8
0
 62
     0
 10
315.976
 20
185.009
 30
0.0
 11
316.264
 21
184.927
 31
0.0
  0
LINE
  8
0
 62
     0
 10
316.264
 20
184.927
 30
0.0
 11
316.545
 21
184.822
 31
0.0
  0
LINE
  8
0
 62
     0
 10
316.545
 20
184.822
 30
0.0
 11
316.815
 21
184.699
 31
0.0
  0
LINE
  8
0
 62
     0
 10
316.815
 20
184.699
 30
0.0
 11
317.077
 21
184.553
 31
0.0
  0
LINE
  8
0
 62
     0
 10
317.077
 20
184.553
 30
0.0
 11
317.325
 21
184.386
 31
0.0
  0
LINE
  8
0
 62
     0
 10
317.325
 20
184.386
 30
0.0
 11
317.561
 21
184.201
 31
0.0
  0
LINE
  8
0
 62
     0
 10
317.561
 20
184.201
 30
0.0
 11
317.781
 21
183.998
 31
0.0
  0
LINE
  8
0
 62
     0
 10
317.781
 20
183.998
 30
0.0
 11
317.984
 21
183.778
 31
0.0
  0
LINE
  8
0
 62
     0
 10
317.984
 20
183.778
 30
0.0
 11
318.169
 21
183.542
 31
0.0
  0
LINE
  8
0
 62
     0
 10
318.169
 20
183.542
 30
0.0
 11
318.335
 21
183.294
 31
0.0
  0
LINE
  8
0
 62
     0
 10
318.335
 20
183.294
 30
0.0
 11
318.481
 21
183.032
 31
0.0
  0
LINE
  8
0
 62
     0
 10
318.481
 20
183.032
 30
0.0
 11
318.605
 21
182.762
 31
0.0
  0
LINE
  8
0
 62
     0
 10
318.605
 20
182.762
 30
0.0
 11
318.71
 21
182.481
 31
0.0
  0
LINE
  8
0
 62
     0
 10
318.71
 20
182.481
 30
0.0
 11
318.79
 21
182.193
 31
0.0
  0
LINE
  8
0
 62
     0
 10
318.79
 20
182.193
 30
0.0
 11
318.849
 21
181.9
 31
0.0
  0
LINE
  8
0
 62
     0
 10
318.849
 20
181.9
 30
0.0
 11
318.885
 21
181.602
 31
0.0
  0
LINE
  8
0
 62
     0
 10
318.885
 20
181.602
 30
0.0
 11
318.896
 21
181.303
 31
0.0
  0
LINE
  8
0
 62
     0
 10
318.896
 20
181.303
 30
0.0
 11
318.896
 21
4.11208
 31
0.0
  0
LINE
  8
0
 62
     0
 10
318.896
 20
4.11208
 30
0.0
 11
318.885
 21
3.81441
 31
0.0
  0
LINE
  8
0
 62
     0
 10
318.885
 20
3.81441
 30
0.0
 11
318.849
 21
3.51537
 31
0.0
  0
LINE
  8
0
 62
     0
 10
318.849
 20
3.51537
 30
0.0
 11
318.79
 21
3.22323
 31
0.0
  0
LINE
  8
0
 62
     0
 10
318.79
 20
3.22323
 30
0.0
 11
318.71
 21
2.93522
 31
0.0
  0
LINE
  8
0
 62
     0
 10
318.71
 20
2.93522
 30
0.0
 11
318.605
 21
2.6541
 31
0.0
  0
LINE
  8
0
 62
     0
 10
318.605
 20
2.6541
 30
0.0
 11
318.481
 21
2.38263
 31
0.0
  0
LINE
  8
0
 62
     0
 10
318.481
 20
2.38263
 30
0.0
 11
318.335
 21
2.12218
 31
0.0
  0
LINE
  8
0
 62
     0
 10
318.335
 20
2.12218
 30
0.0
 11
318.169
 21
1.87275
 31
0.0
  0
LINE
  8
0
 62
     0
 10
318.169
 20
1.87275
 30
0.0
 11
317.984
 21
1.63849
 31
0.0
  0
LINE
  8
0
 62
     0
 10
317.984
 20
1.63849
 30
0.0
 11
317.781
 21
1.418
 31
0.0
  0
LINE
  8
0
 62
     0
 10
317.781
 20
1.418
 30
0.0
 11
317.561
 21
1.21543
 31
0.0
  0
LINE
  8
0
 62
     0
 10
317.561
 20
1.21543
 30
0.0
 11
317.325
 21
1.02939
 31
0.0
  0
LINE
  8
0
 62
     0
 10
317.325
 20
1.02939
 30
0.0
 11
317.077
 21
0.86403
 31
0.0
  0
LINE
  8
0
 62
     0
 10
317.077
 20
0.86403
 30
0.0
 11
316.815
 21
0.717959
 31
0.0
  0
LINE
  8
0
 62
     0
 10
316.815
 20
0.717959
 30
0.0
 11
316.545
 21
0.592557
 31
0.0
  0
LINE
  8
0
 62
     0
 10
316.545
 20
0.592557
 30
0.0
 11
316.264
 21
0.489204
 31
0.0
  0
LINE
  8
0
 62
     0
 10
316.264
 20
0.489204
 30
0.0
 11
315.976
 21
0.407899
 31
0.0
  0
LINE
  8
0
 62
     0
 10
315.976
 20
0.407899
 30
0.0
 11
315.682
 21
0.348644
 31
0.0
  0
LINE
  8
0
 62
     0
 10
315.682
 20
0.348644
 30
0.0
 11
315.385
 21
0.314193
 31
0.0
  0
LINE
  8
0
 62
     0
 10
315.385
 20
0.314193
 30
0.0
 11
315.087
 21
0.30179
 31
0.0
  0
LINE
  8
0
 62
     0
 10
315.087
 20
0.30179
 30
0.0
 11
3.90536
 21
0.30179
 31
0.0
  0
LINE
  8
0
 62
     0
 10
3.90536
 20
0.30179
 30
0.0
 11
3.60634
 21
0.314193
 31
0.0
  0
LINE
  8
0
 62
     0
 10
3.60634
 20
0.314193
 30
0.0
 11
3.30867
 21
0.348644
 31
0.0
  0
LINE
  8
0
 62
     0
 10
3.30867
 20
0.348644
 30
0.0
 11
3.01515
 21
0.407899
 31
0.0
  0
LINE
  8
0
 62
     0
 10
3.01515
 20
0.407899
 30
0.0
 11
2.72714
 21
0.489204
 31
0.0
  0
LINE
  8
0
 62
     0
 10
2.72714
 20
0.489204
 30
0.0
 11
2.44602
 21
0.592557
 31
0.0
  0
LINE
  8
0
 62
     0
 10
2.44602
 20
0.592557
 30
0.0
 11
2.17592
 21
0.717959
 31
0.0
  0
LINE
  8
0
 62
     0
 10
2.17592
 20
0.717959
 30
0.0
 11
1.91409
 21
0.86403
 31
0.0
  0
LINE
  8
0
 62
     0
 10
1.91409
 20
0.86403
 30
0.0
 11
1.66605
 21
1.02939
 31
0.0
  0
LINE
  8
0
 62
     0
 10
1.66605
 20
1.02939
 30
0.0
 11
1.4304
 21
1.21543
 31
0.0
  0
LINE
  8
0
 62
     0
 10
1.4304
 20
1.21543
 30
0.0
 11
1.20992
 21
1.418
 31
0.0
  0
LINE
  8
0
 62
     0
 10
1.20992
 20
1.418
 30
0.0
 11
1.00735
 21
1.63849
 31
0.0
  0
LINE
  8
0
 62
     0
 10
1.00735
 20
1.63849
 30
0.0
 11
0.822688
 21
1.87275
 31
0.0
  0
LINE
  8
0
 62
     0
 10
0.822688
 20
1.87275
 30
0.0
 11
0.655948
 21
2.12218
 31
0.0
  0
LINE
  8
0
 62
     0
 10
0.655948
 20
2.12218
 30
0.0
 11
0.509873
 21
2.38263
 31
0.0
  0
LINE
  8
0
 62
     0
 10
0.509873
 20
2.38263
 30
0.0
 11
0.385851
 21
2.6541
 31
0.0
  0
LINE
  8
0
 62
     0
 10
0.385851
 20
2.6541
 30
0.0
 11
0.28112
 21
2.93522
 31
0.0
  0
LINE
  8
0
 62
     0
 10
0.28112
 20
2.93522
 30
0.0
 11
0.199815
 21
3.22323
 31
0.0
  0
LINE
  8
0
 62
     0
 10
0.199815
 20
3.22323
 30
0.0
 11
0.141938
 21
3.51537
 31
0.0
  0
LINE
  8
0
 62
     0
 10
0.141938
 20
3.51537
 30
0.0
 11
0.106109
 21
3.81441
 31
0.0
  0
LINE
  8
0
 62
     0
 10
0.106109
 20
3.81441
 30
0.0
 11
0.0950846
 21
4.11208
 31
0.0
  0
LINE
  8
0
 62
     0
 10
0.0950846
 20
4.11208
 30
0.0
 11
0.0950846
 21
181.303
 31
0.0
  0
LINE
  8
0
 62
     0
 10
0.0950846
 20
181.303
 30
0.0
 11
0.106109
 21
181.602
 31
0.0
  0
LINE
  8
0
 62
     0
 10
0.106109
 20
181.602
 30
0.0
 11
0.141938
 21
181.9
 31
0.0
  0
LINE
  8
0
 62
     0
 10
0.141938
 20
181.9
 30
0.0
 11
0.199815
 21
182.193
 31
0.0
  0
LINE
  8
0
 62
     0
 10
0.199815
 20
182.193
 30
0.0
 11
0.28112
 21
182.481
 31
0.0
  0
LINE
  8
0
 62
     0
 10
0.28112
 20
182.481
 30
0.0
 11
0.385851
 21
182.762
 31
0.0
  0
LINE
  8
0
 62
     0
 10
0.385851
 20
182.762
 30
0.0
 11
0.509873
 21
183.032
 31
0.0
  0
LINE
  8
0
 62
     0
 10
0.509873
 20
183.032
 30
0.0
 11
0.655948
 21
183.294
 31
0.0
  0
LINE
  8
0
 62
     0
 10
0.655948
 20
183.294
 30
0.0
 11
0.822688
 21
183.542
 31
0.0
  0
LINE
  8
0
 62
     0
 10
0.822688
 20
183.542
 30
0.0
 11
1.00735
 21
183.778
 31
0.0
  0
LINE
  8
0
 62
     0
 10
1.00735
 20
183.778
 30
0.0
 11
1.20992
 21
183.998
 31
0.0
  0
LINE
  8
0
 62
     0
 10
1.20992
 20
183.998
 30
0.0
 11
1.4304
 21
184.201
 31
0.0
  0
LINE
  8
0
 62
     0
 10
1.4304
 20
184.201
 30
0.0
 11
1.66605
 21
184.386
 31
0.0
  0
LINE
  8
0
 62
     0
 10
1.66605
 20
184.386
 30
0.0
 11
1.91409
 21
184.553
 31
0.0
  0
LINE
  8
0
 62
     0
 10
1.91409
 20
184.553
 30
0.0
 11
2.17592
 21
184.699
 31
0.0
  0
LINE
  8
0
 62
     0
 10
2.17592
 20
184.699
 30
0.0
 11
2.44602
 21
184.822
 31
0.0
  0
LINE
  8
0
 62
     0
 10
2.44602
 20
184.822
 30
0.0
 11
2.72714
 21
184.927
 31
0.0
  0
LINE
  8
0
 62
     0
 10
2.72714
 20
184.927
 30
0.0
 11
3.01515
 21
185.009
 31
0.0
  0
LINE
  8
0
 62
     0
 10
3.01515
 20
185.009
 30
0.0
 11
3.30867
 21
185.067
 31
0.0
  0
LINE
  8
0
 62
     0
 10
3.30867
 20
185.067
 30
0.0
 11
3.60634
 21
185.102
 31
0.0
  0
LINE
  8
0
 62
     0
 10
3.60634
 20
185.102
 30
0.0
 11
3.90536
 21
185.113
 31
0.0
  0
LINE
  8
0
 62
     0
 10
3.90536
 20
185.113
 30
0.0
 11
315.087
 21
185.113
 31
0.0
  0
LINE
  8
0
 62
     0
 10
3.06889
 20
5.41845
 30
0.0
 11
2.59485
 21
5.1773
 31
0.0
  0
LINE
  8
0
 62
     0
 10
2.59485
 20
5.1773
 30
0.0
 11
2.22002
 21
4.80247
 31
0.0
  0
LINE
  8
0
 62
     0
 10
2.22002
 20
4.80247
 30
0.0
 11
1.97886
 21
4.32841
 31
0.0
  0
LINE
  8
0
 62
     0
 10
1.97886
 20
4.32841
 30
0.0
 11
1.8948
 21
3.80199
 31
0.0
  0
LINE
  8
0
 62
     0
 10
1.8948
 20
3.80199
 30
0.0
 11
1.97886
 21
3.27697
 31
0.0
  0
LINE
  8
0
 62
     0
 10
1.97886
 20
3.27697
 30
0.0
 11
2.22002
 21
2.80293
 31
0.0
  0
LINE
  8
0
 62
     0
 10
2.22002
 20
2.80293
 30
0.0
 11
2.59485
 21
2.42673
 31
0.0
  0
LINE
  8
0
 62
     0
 10
2.59485
 20
2.42673
 30
0.0
 11
3.06889
 21
2.18557
 31
0.0
  0
LINE
  8
0
 62
     0
 10
3.06889
 20
2.18557
 30
0.0
 11
3.5953
 21
2.10151
 31
0.0
  0
LINE
  8
0
 62
     0
 10
3.5953
 20
2.10151
 30
0.0
 11
4.12034
 21
2.18557
 31
0.0
  0
LINE
  8
0
 62
     0
 10
4.12034
 20
2.18557
 30
0.0
 11
4.59437
 21
2.42673
 31
0.0
  0
LINE
  8
0
 62
     0
 10
4.59437
 20
2.42673
 30
0.0
 11
4.97057
 21
2.80293
 31
0.0
  0
LINE
  8
0
 62
     0
 10
4.97057
 20
2.80293
 30
0.0
 11
5.21173
 21
3.27697
 31
0.0
  0
LINE
  8
0
 62
     0
 10
5.21173
 20
3.27697
 30
0.0
 11
5.29579
 21
3.80199
 31
0.0
  0
LINE
  8
0
 62
     0
 10
5.29579
 20
3.80199
 30
0.0
 11
5.21173
 21
4.32841
 31
0.0
  0
LINE
  8
0
 62
     0
 10
5.21173
 20
4.32841
 30
0.0
 11
4.97057
 21
4.80247
 31
0.0
  0
LINE
  8
0
 62
     0
 10
4.97057
 20
4.80247
 30
0.0
 11
4.59437
 21
5.1773
 31
0.0
  0
LINE
  8
0
 62
     0
 10
4.59437
 20
5.1773
 30
0.0
 11
4.12034
 21
5.41845
 31
0.0
  0
LINE
  8
0
 62
     0
 10
4.12034
 20
5.41845
 30
0.0
 11
3.5953
 21
5.50252
 31
0.0
  0
LINE
  8
0
 62
     0
 10
3.5953
 20
5.50252
 30
0.0
 11
3.06889
 21
5.41845
 31
0.0
  0
LINE
  8
0
 62
     0
 10
107.003
 20
5.41845
 30
0.0
 11
106.529
 21
5.1773
 31
0.0
  0
LINE
  8
0
 62
     0
 10
106.529
 20
5.1773
 30
0.0
 11
106.153
 21
4.80247
 31
0.0
  0
LINE
  8
0
 62
     0
 10
106.153
 20
4.80247
 30
0.0
 11
105.912
 21
4.32841
 31
0.0
  0
LINE
  8
0
 62
     0
 10
105.912
 20
4.32841
 30
0.0
 11
105.828
 21
3.80199
 31
0.0
  0
LINE
  8
0
 62
     0
 10
105.828
 20
3.80199
 30
0.0
 11
105.912
 21
3.27697
 31
0.0
  0
LINE
  8
0
 62
     0
 10
105.912
 20
3.27697
 30
0.0
 11
106.153
 21
2.80293
 31
0.0
  0
LINE
  8
0
 62
     0
 10
106.153
 20
2.80293
 30
0.0
 11
106.529
 21
2.42673
 31
0.0
  0
LINE
  8
0
 62
     0
 10
106.529
 20
2.42673
 30
0.0
 11
107.003
 21
2.18557
 31
0.0
  0
LINE
  8
0
 62
     0
 10
107.003
 20
2.18557
 30
0.0
 11
107.528
 21
2.10151
 31
0.0
  0
LINE
  8
0
 62
     0
 10
107.528
 20
2.10151
 30
0.0
 11
108.053
 21
2.18557
 31
0.0
  0
LINE
  8
0
 62
     0
 10
108.053
 20
2.18557
 30
0.0
 11
108.527
 21
2.42673
 31
0.0
  0
LINE
  8
0
 62
     0
 10
108.527
 20
2.42673
 30
0.0
 11
108.904
 21
2.80293
 31
0.0
  0
LINE
  8
0
 62
     0
 10
108.904
 20
2.80293
 30
0.0
 11
109.146
 21
3.27697
 31
0.0
  0
LINE
  8
0
 62
     0
 10
109.146
 20
3.27697
 30
0.0
 11
109.229
 21
3.80199
 31
0.0
  0
LINE
  8
0
 62
     0
 10
109.229
 20
3.80199
 30
0.0
 11
109.146
 21
4.32841
 31
0.0
  0
LINE
  8
0
 62
     0
 10
109.146
 20
4.32841
 30
0.0
 11
108.904
 21
4.80247
 31
0.0
  0
LINE
  8
0
 62
     0
 10
108.904
 20
4.80247
 30
0.0
 11
108.527
 21
5.1773
 31
0.0
  0
LINE
  8
0
 62
     0
 10
108.527
 20
5.1773
 30
0.0
 11
108.053
 21
5.41845
 31
0.0
  0
LINE
  8
0
 62
     0
 10
108.053
 20
5.41845
 30
0.0
 11
107.528
 21
5.50252
 31
0.0
  0
LINE
  8
0
 62
     0
 10
107.528
 20
5.50252
 30
0.0
 11
107.003
 21
5.41845
 31
0.0
  0
LINE
  8
0
 62
     0
 10
210.938
 20
5.41845
 30
0.0
 11
210.464
 21
5.1773
 31
0.0
  0
LINE
  8
0
 62
     0
 10
210.464
 20
5.1773
 30
0.0
 11
210.087
 21
4.80247
 31
0.0
  0
LINE
  8
0
 62
     0
 10
210.087
 20
4.80247
 30
0.0
 11
209.845
 21
4.32841
 31
0.0
  0
LINE
  8
0
 62
     0
 10
209.845
 20
4.32841
 30
0.0
 11
209.762
 21
3.80199
 31
0.0
  0
LINE
  8
0
 62
     0
 10
209.762
 20
3.80199
 30
0.0
 11
209.845
 21
3.27697
 31
0.0
  0
LINE
  8
0
 62
     0
 10
209.845
 20
3.27697
 30
0.0
 11
210.087
 21
2.80293
 31
0.0
  0
LINE
  8
0
 62
     0
 10
210.087
 20
2.80293
 30
0.0
 11
210.464
 21
2.42673
 31
0.0
  0
LINE
  8
0
 62
     0
 10
210.464
 20
2.42673
 30
0.0
 11
210.938
 21
2.18557
 31
0.0
  0
LINE
  8
0
 62
     0
 10
210.938
 20
2.18557
 30
0.0
 11
211.463
 21
2.10151
 31
0.0
  0
LINE
  8
0
 62
     0
 10
211.463
 20
2.10151
 30
0.0
 11
211.988
 21
2.18557
 31
0.0
  0
LINE
  8
0
 62
     0
 10
211.988
 20
2.18557
 30
0.0
 11
212.462
 21
2.42673
 31
0.0
  0
LINE
  8
0
 62
     0
 10
212.462
 20
2.42673
 30
0.0
 11
212.838
 21
2.80293
 31
0.0
  0
LINE
  8
0
 62
     0
 10
212.838
 20
2.80293
 30
0.0
 11
213.079
 21
3.27697
 31
0.0
  0
LINE
  8
0
 62
     0
 10
213.079
 20
3.27697
 30
0.0
 11
213.162
 21
3.80199
 31
0.0
  0
LINE
  8
0
 62
     0
 10
213.162
 20
3.80199
 30
0.0
 11
213.079
 21
4.32841
 31
0.0
  0
LINE
  8
0
 62
     0
 10
213.079
 20
4.32841
 30
0.0
 11
212.838
 21
4.80247
 31
0.0
  0
LINE
  8
0
 62
     0
 10
212.838
 20
4.80247
 30
0.0
 11
212.462
 21
5.1773
 31
0.0
  0
LINE
  8
0
 62
     0
 10
212.462
 20
5.1773
 30
0.0
 11
211.988
 21
5.41845
 31
0.0
  0
LINE
  8
0
 62
     0
 10
211.988
 20
5.41845
 30
0.0
 11
211.463
 21
5.50252
 31
0.0
  0
LINE
  8
0
 62
     0
 10
211.463
 20
5.50252
 30
0.0
 11
210.938
 21
5.41845
 31
0.0
  0
LINE
  8
0
 62
     0
 10
314.871
 20
5.41845
 30
0.0
 11
314.397
 21
5.1773
 31
0.0
  0
LINE
  8
0
 62
     0
 10
314.397
 20
5.1773
 30
0.0
 11
314.021
 21
4.80247
 31
0.0
  0
LINE
  8
0
 62
     0
 10
314.021
 20
4.80247
 30
0.0
 11
313.779
 21
4.32841
 31
0.0
  0
LINE
  8
0
 62
     0
 10
313.779
 20
4.32841
 30
0.0
 11
313.697
 21
3.80199
 31
0.0
  0
LINE
  8
0
 62
     0
 10
313.697
 20
3.80199
 30
0.0
 11
313.779
 21
3.27697
 31
0.0
  0
LINE
  8
0
 62
     0
 10
313.779
 20
3.27697
 30
0.0
 11
314.021
 21
2.80293
 31
0.0
  0
LINE
  8
0
 62
     0
 10
314.021
 20
2.80293
 30
0.0
 11
314.397
 21
2.42673
 31
0.0
  0
LINE
  8
0
 62
     0
 10
314.397
 20
2.42673
 30
0.0
 11
314.871
 21
2.18557
 31
0.0
  0
LINE
  8
0
 62
     0
 10
314.871
 20
2.18557
 30
0.0
 11
315.397
 21
2.10151
 31
0.0
  0
LINE
  8
0
 62
     0
 10
315.397
 20
2.10151
 30
0.0
 11
315.922
 21
2.18557
 31
0.0
  0
LINE
  8
0
 62
     0
 10
315.922
 20
2.18557
 30
0.0
 11
316.395
 21
2.42673
 31
0.0
  0
LINE
  8
0
 62
     0
 10
316.395
 20
2.42673
 30
0.0
 11
316.771
 21
2.80293
 31
0.0
  0
LINE
  8
0
 62
     0
 10
316.771
 20
2.80293
 30
0.0
 11
317.012
 21
3.27697
 31
0.0
  0
LINE
  8
0
 62
     0
 10
317.012
 20
3.27697
 30
0.0
 11
317.096
 21
3.80199
 31
0.0
  0
LINE
  8
0
 62
     0
 10
317.096
 20
3.80199
 30
0.0
 11
317.012
 21
4.32841
 31
0.0
  0
LINE
  8
0
 62
     0
 10
317.012
 20
4.32841
 30
0.0
 11
316.771
 21
4.80247
 31
0.0
  0
LINE
  8
0
 62
     0
 10
316.771
 20
4.80247
 30
0.0
 11
316.395
 21
5.1773
 31
0.0
  0
LINE
  8
0
 62
     0
 10
316.395
 20
5.1773
 30
0.0
 11
315.922
 21
5.41845
 31
0.0
  0
LINE
  8
0
 62
     0
 10
315.922
 20
5.41845
 30
0.0
 11
315.397
 21
5.50252
 31
0.0
  0
LINE
  8
0
 62
     0
 10
315.397
 20
5.50252
 30
0.0
 11
314.871
 21
5.41845
 31
0.0
  0
LINE
  8
0
 62
     0
 10
295.37
 20
23.8277
 30
0.0
 11
295.37
 21
22.8272
 31
0.0
  0
LINE
  8
0
 62
     0
 10
295.37
 20
22.8272
 30
0.0
 11
294.571
 21
22.8272
 31
0.0
  0
LINE
  8
0
 62
     0
 10
294.571
 20
22.8272
 30
0.0
 11
294.571
 21
19.728
 31
0.0
  0
LINE
  8
0
 62
     0
 10
294.571
 20
19.728
 30
0.0
 11
295.37
 21
19.728
 31
0.0
  0
LINE
  8
0
 62
     0
 10
295.37
 20
19.728
 30
0.0
 11
295.37
 21
13.9278
 31
0.0
  0
LINE
  8
0
 62
     0
 10
295.37
 20
13.9278
 30
0.0
 11
294.571
 21
13.9278
 31
0.0
  0
LINE
  8
0
 62
     0
 10
294.571
 20
13.9278
 30
0.0
 11
294.571
 21
10.8272
 31
0.0
  0
LINE
  8
0
 62
     0
 10
294.571
 20
10.8272
 30
0.0
 11
295.37
 21
10.8272
 31
0.0
  0
LINE
  8
0
 62
     0
 10
295.37
 20
10.8272
 30
0.0
 11
295.37
 21
9.82818
 31
0.0
  0
LINE
  8
0
 62
     0
 10
295.37
 20
9.82818
 30
0.0
 11
309.371
 21
9.82818
 31
0.0
  0
LINE
  8
0
 62
     0
 10
309.371
 20
9.82818
 30
0.0
 11
309.371
 21
10.8272
 31
0.0
  0
LINE
  8
0
 62
     0
 10
309.371
 20
10.8272
 30
0.0
 11
310.17
 21
10.8272
 31
0.0
  0
LINE
  8
0
 62
     0
 10
310.17
 20
10.8272
 30
0.0
 11
310.17
 21
13.9278
 31
0.0
  0
LINE
  8
0
 62
     0
 10
310.17
 20
13.9278
 30
0.0
 11
309.371
 21
13.9278
 31
0.0
  0
LINE
  8
0
 62
     0
 10
309.371
 20
13.9278
 30
0.0
 11
309.371
 21
19.728
 31
0.0
  0
LINE
  8
0
 62
     0
 10
309.371
 20
19.728
 30
0.0
 11
310.17
 21
19.728
 31
0.0
  0
LINE
  8
0
 62
     0
 10
310.17
 20
19.728
 30
0.0
 11
310.17
 21
22.8272
 31
0.0
  0
LINE
  8
0
 62
     0
 10
310.17
 20
22.8272
 30
0.0
 11
309.371
 21
22.8272
 31
0.0
  0
LINE
  8
0
 62
     0
 10
309.371
 20
22.8272
 30
0.0
 11
309.371
 21
23.8277
 31
0.0
  0
LINE
  8
0
 62
     0
 10
309.371
 20
23.8277
 30
0.0
 11
295.37
 21
23.8277
 31
0.0
  0
LINE
  8
0
 62
     0
 10
276.32
 20
23.8277
 30
0.0
 11
276.32
 21
22.8272
 31
0.0
  0
LINE
  8
0
 62
     0
 10
276.32
 20
22.8272
 30
0.0
 11
275.521
 21
22.8272
 31
0.0
  0
LINE
  8
0
 62
     0
 10
275.521
 20
22.8272
 30
0.0
 11
275.521
 21
19.728
 31
0.0
  0
LINE
  8
0
 62
     0
 10
275.521
 20
19.728
 30
0.0
 11
276.32
 21
19.728
 31
0.0
  0
LINE
  8
0
 62
     0
 10
276.32
 20
19.728
 30
0.0
 11
276.32
 21
13.9278
 31
0.0
  0
LINE
  8
0
 62
     0
 10
276.32
 20
13.9278
 30
0.0
 11
275.521
 21
13.9278
 31
0.0
  0
LINE
  8
0
 62
     0
 10
275.521
 20
13.9278
 30
0.0
 11
275.521
 21
10.8272
 31
0.0
  0
LINE
  8
0
 62
     0
 10
275.521
 20
10.8272
 30
0.0
 11
276.32
 21
10.8272
 31
0.0
  0
LINE
  8
0
 62
     0
 10
276.32
 20
10.8272
 30
0.0
 11
276.32
 21
9.82818
 31
0.0
  0
LINE
  8
0
 62
     0
 10
276.32
 20
9.82818
 30
0.0
 11
290.321
 21
9.82818
 31
0.0
  0
LINE
  8
0
 62
     0
 10
290.321
 20
9.82818
 30
0.0
 11
290.321
 21
10.8272
 31
0.0
  0
LINE
  8
0
 62
     0
 10
290.321
 20
10.8272
 30
0.0
 11
291.12
 21
10.8272
 31
0.0
  0
LINE
  8
0
 62
     0
 10
291.12
 20
10.8272
 30
0.0
 11
291.12
 21
13.9278
 31
0.0
  0
LINE
  8
0
 62
     0
 10
291.12
 20
13.9278
 30
0.0
 11
290.321
 21
13.9278
 31
0.0
  0
LINE
  8
0
 62
     0
 10
290.321
 20
13.9278
 30
0.0
 11
290.321
 21
19.728
 31
0.0
  0
LINE
  8
0
 62
     0
 10
290.321
 20
19.728
 30
0.0
 11
291.12
 21
19.728
 31
0.0
  0
LINE
  8
0
 62
     0
 10
291.12
 20
19.728
 30
0.0
 11
291.12
 21
22.8272
 31
0.0
  0
LINE
  8
0
 62
     0
 10
291.12
 20
22.8272
 30
0.0
 11
290.321
 21
22.8272
 31
0.0
  0
LINE
  8
0
 62
     0
 10
290.321
 20
22.8272
 30
0.0
 11
290.321
 21
23.8277
 31
0.0
  0
LINE
  8
0
 62
     0
 10
290.321
 20
23.8277
 30
0.0
 11
276.32
 21
23.8277
 31
0.0
  0
LINE
  8
0
 62
     0
 10
257.27
 20
23.8277
 30
0.0
 11
257.27
 21
22.8272
 31
0.0
  0
LINE
  8
0
 62
     0
 10
257.27
 20
22.8272
 30
0.0
 11
256.471
 21
22.8272
 31
0.0
  0
LINE
  8
0
 62
     0
 10
256.471
 20
22.8272
 30
0.0
 11
256.471
 21
19.728
 31
0.0
  0
LINE
  8
0
 62
     0
 10
256.471
 20
19.728
 30
0.0
 11
257.27
 21
19.728
 31
0.0
  0
LINE
  8
0
 62
     0
 10
257.27
 20
19.728
 30
0.0
 11
257.27
 21
13.9278
 31
0.0
  0
LINE
  8
0
 62
     0
 10
257.27
 20
13.9278
 30
0.0
 11
256.471
 21
13.9278
 31
0.0
  0
LINE
  8
0
 62
     0
 10
256.471
 20
13.9278
 30
0.0
 11
256.471
 21
10.8272
 31
0.0
  0
LINE
  8
0
 62
     0
 10
256.471
 20
10.8272
 30
0.0
 11
257.27
 21
10.8272
 31
0.0
  0
LINE
  8
0
 62
     0
 10
257.27
 20
10.8272
 30
0.0
 11
257.27
 21
9.82818
 31
0.0
  0
LINE
  8
0
 62
     0
 10
257.27
 20
9.82818
 30
0.0
 11
271.271
 21
9.82818
 31
0.0
  0
LINE
  8
0
 62
     0
 10
271.271
 20
9.82818
 30
0.0
 11
271.271
 21
10.8272
 31
0.0
  0
LINE
  8
0
 62
     0
 10
271.271
 20
10.8272
 30
0.0
 11
272.07
 21
10.8272
 31
0.0
  0
LINE
  8
0
 62
     0
 10
272.07
 20
10.8272
 30
0.0
 11
272.07
 21
13.9278
 31
0.0
  0
LINE
  8
0
 62
     0
 10
272.07
 20
13.9278
 30
0.0
 11
271.271
 21
13.9278
 31
0.0
  0
LINE
  8
0
 62
     0
 10
271.271
 20
13.9278
 30
0.0
 11
271.271
 21
19.728
 31
0.0
  0
LINE
  8
0
 62
     0
 10
271.271
 20
19.728
 30
0.0
 11
272.07
 21
19.728
 31
0.0
  0
LINE
  8
0
 62
     0
 10
272.07
 20
19.728
 30
0.0
 11
272.07
 21
22.8272
 31
0.0
  0
LINE
  8
0
 62
     0
 10
272.07
 20
22.8272
 30
0.0
 11
271.271
 21
22.8272
 31
0.0
  0
LINE
  8
0
 62
     0
 10
271.271
 20
22.8272
 30
0.0
 11
271.271
 21
23.8277
 31
0.0
  0
LINE
  8
0
 62
     0
 10
271.271
 20
23.8277
 30
0.0
 11
257.27
 21
23.8277
 31
0.0
  0
LINE
  8
0
 62
     0
 10
238.22
 20
23.8277
 30
0.0
 11
238.22
 21
22.8272
 31
0.0
  0
LINE
  8
0
 62
     0
 10
238.22
 20
22.8272
 30
0.0
 11
237.421
 21
22.8272
 31
0.0
  0
LINE
  8
0
 62
     0
 10
237.421
 20
22.8272
 30
0.0
 11
237.421
 21
19.728
 31
0.0
  0
LINE
  8
0
 62
     0
 10
237.421
 20
19.728
 30
0.0
 11
238.22
 21
19.728
 31
0.0
  0
LINE
  8
0
 62
     0
 10
238.22
 20
19.728
 30
0.0
 11
238.22
 21
13.9278
 31
0.0
  0
LINE
  8
0
 62
     0
 10
238.22
 20
13.9278
 30
0.0
 11
237.421
 21
13.9278
 31
0.0
  0
LINE
  8
0
 62
     0
 10
237.421
 20
13.9278
 30
0.0
 11
237.421
 21
10.8272
 31
0.0
  0
LINE
  8
0
 62
     0
 10
237.421
 20
10.8272
 30
0.0
 11
238.22
 21
10.8272
 31
0.0
  0
LINE
  8
0
 62
     0
 10
238.22
 20
10.8272
 30
0.0
 11
238.22
 21
9.82818
 31
0.0
  0
LINE
  8
0
 62
     0
 10
238.22
 20
9.82818
 30
0.0
 11
252.221
 21
9.82818
 31
0.0
  0
LINE
  8
0
 62
     0
 10
252.221
 20
9.82818
 30
0.0
 11
252.221
 21
10.8272
 31
0.0
  0
LINE
  8
0
 62
     0
 10
252.221
 20
10.8272
 30
0.0
 11
253.02
 21
10.8272
 31
0.0
  0
LINE
  8
0
 62
     0
 10
253.02
 20
10.8272
 30
0.0
 11
253.02
 21
13.9278
 31
0.0
  0
LINE
  8
0
 62
     0
 10
253.02
 20
13.9278
 30
0.0
 11
252.221
 21
13.9278
 31
0.0
  0
LINE
  8
0
 62
     0
 10
252.221
 20
13.9278
 30
0.0
 11
252.221
 21
19.728
 31
0.0
  0
LINE
  8
0
 62
     0
 10
252.221
 20
19.728
 30
0.0
 11
253.02
 21
19.728
 31
0.0
  0
LINE
  8
0
 62
     0
 10
253.02
 20
19.728
 30
0.0
 11
253.02
 21
22.8272
 31
0.0
  0
LINE
  8
0
 62
     0
 10
253.02
 20
22.8272
 30
0.0
 11
252.221
 21
22.8272
 31
0.0
  0
LINE
  8
0
 62
     0
 10
252.221
 20
22.8272
 30
0.0
 11
252.221
 21
23.8277
 31
0.0
  0
LINE
  8
0
 62
     0
 10
252.221
 20
23.8277
 30
0.0
 11
238.22
 21
23.8277
 31
0.0
  0
LINE
  8
0
 62
     0
 10
219.17
 20
23.8277
 30
0.0
 11
219.17
 21
22.8272
 31
0.0
  0
LINE
  8
0
 62
     0
 10
219.17
 20
22.8272
 30
0.0
 11
218.371
 21
22.8272
 31
0.0
  0
LINE
  8
0
 62
     0
 10
218.371
 20
22.8272
 30
0.0
 11
218.371
 21
19.728
 31
0.0
  0
LINE
  8
0
 62
     0
 10
218.371
 20
19.728
 30
0.0
 11
219.17
 21
19.728
 31
0.0
  0
LINE
  8
0
 62
     0
 10
219.17
 20
19.728
 30
0.0
 11
219.17
 21
13.9278
 31
0.0
  0
LINE
  8
0
 62
     0
 10
219.17
 20
13.9278
 30
0.0
 11
218.371
 21
13.9278
 31
0.0
  0
LINE
  8
0
 62
     0
 10
218.371
 20
13.9278
 30
0.0
 11
218.371
 21
10.8272
 31
0.0
  0
LINE
  8
0
 62
     0
 10
218.371
 20
10.8272
 30
0.0
 11
219.17
 21
10.8272
 31
0.0
  0
LINE
  8
0
 62
     0
 10
219.17
 20
10.8272
 30
0.0
 11
219.17
 21
9.82818
 31
0.0
  0
LINE
  8
0
 62
     0
 10
219.17
 20
9.82818
 30
0.0
 11
233.171
 21
9.82818
 31
0.0
  0
LINE
  8
0
 62
     0
 10
233.171
 20
9.82818
 30
0.0
 11
233.171
 21
10.8272
 31
0.0
  0
LINE
  8
0
 62
     0
 10
233.171
 20
10.8272
 30
0.0
 11
233.97
 21
10.8272
 31
0.0
  0
LINE
  8
0
 62
     0
 10
233.97
 20
10.8272
 30
0.0
 11
233.97
 21
13.9278
 31
0.0
  0
LINE
  8
0
 62
     0
 10
233.97
 20
13.9278
 30
0.0
 11
233.171
 21
13.9278
 31
0.0
  0
LINE
  8
0
 62
     0
 10
233.171
 20
13.9278
 30
0.0
 11
233.171
 21
19.728
 31
0.0
  0
LINE
  8
0
 62
     0
 10
233.171
 20
19.728
 30
0.0
 11
233.97
 21
19.728
 31
0.0
  0
LINE
  8
0
 62
     0
 10
233.97
 20
19.728
 30
0.0
 11
233.97
 21
22.8272
 31
0.0
  0
LINE
  8
0
 62
     0
 10
233.97
 20
22.8272
 30
0.0
 11
233.171
 21
22.8272
 31
0.0
  0
LINE
  8
0
 62
     0
 10
233.171
 20
22.8272
 30
0.0
 11
233.171
 21
23.8277
 31
0.0
  0
LINE
  8
0
 62
     0
 10
233.171
 20
23.8277
 30
0.0
 11
219.17
 21
23.8277
 31
0.0
  0
LINE
  8
0
 62
     0
 10
200.12
 20
23.8277
 30
0.0
 11
200.12
 21
22.8272
 31
0.0
  0
LINE
  8
0
 62
     0
 10
200.12
 20
22.8272
 30
0.0
 11
199.321
 21
22.8272
 31
0.0
  0
LINE
  8
0
 62
     0
 10
199.321
 20
22.8272
 30
0.0
 11
199.321
 21
19.728
 31
0.0
  0
LINE
  8
0
 62
     0
 10
199.321
 20
19.728
 30
0.0
 11
200.12
 21
19.728
 31
0.0
  0
LINE
  8
0
 62
     0
 10
200.12
 20
19.728
 30
0.0
 11
200.12
 21
13.9278
 31
0.0
  0
LINE
  8
0
 62
     0
 10
200.12
 20
13.9278
 30
0.0
 11
199.321
 21
13.9278
 31
0.0
  0
LINE
  8
0
 62
     0
 10
199.321
 20
13.9278
 30
0.0
 11
199.321
 21
10.8272
 31
0.0
  0
LINE
  8
0
 62
     0
 10
199.321
 20
10.8272
 30
0.0
 11
200.12
 21
10.8272
 31
0.0
  0
LINE
  8
0
 62
     0
 10
200.12
 20
10.8272
 30
0.0
 11
200.12
 21
9.82818
 31
0.0
  0
LINE
  8
0
 62
     0
 10
200.12
 20
9.82818
 30
0.0
 11
214.121
 21
9.82818
 31
0.0
  0
LINE
  8
0
 62
     0
 10
214.121
 20
9.82818
 30
0.0
 11
214.121
 21
10.8272
 31
0.0
  0
LINE
  8
0
 62
     0
 10
214.121
 20
10.8272
 30
0.0
 11
214.92
 21
10.8272
 31
0.0
  0
LINE
  8
0
 62
     0
 10
214.92
 20
10.8272
 30
0.0
 11
214.92
 21
13.9278
 31
0.0
  0
LINE
  8
0
 62
     0
 10
214.92
 20
13.9278
 30
0.0
 11
214.121
 21
13.9278
 31
0.0
  0
LINE
  8
0
 62
     0
 10
214.121
 20
13.9278
 30
0.0
 11
214.121
 21
19.728
 31
0.0
  0
LINE
  8
0
 62
     0
 10
214.121
 20
19.728
 30
0.0
 11
214.92
 21
19.728
 31
0.0
  0
LINE
  8
0
 62
     0
 10
214.92
 20
19.728
 30
0.0
 11
214.92
 21
22.8272
 31
0.0
  0
LINE
  8
0
 62
     0
 10
214.92
 20
22.8272
 30
0.0
 11
214.121
 21
22.8272
 31
0.0
  0
LINE
  8
0
 62
     0
 10
214.121
 20
22.8272
 30
0.0
 11
214.121
 21
23.8277
 31
0.0
  0
LINE
  8
0
 62
     0
 10
214.121
 20
23.8277
 30
0.0
 11
200.12
 21
23.8277
 31
0.0
  0
LINE
  8
0
 62
     0
 10
86.414
 20
24.5773
 30
0.0
 11
86.414
 21
23.5975
 31
0.0
  0
LINE
  8
0
 62
     0
 10
86.414
 20
23.5975
 30
0.0
 11
84.6889
 21
23.5975
 31
0.0
  0
LINE
  8
0
 62
     0
 10
84.6889
 20
23.5975
 30
0.0
 11
84.6889
 21
17.3275
 31
0.0
  0
LINE
  8
0
 62
     0
 10
84.6889
 20
17.3275
 30
0.0
 11
83.8634
 21
17.3275
 31
0.0
  0
LINE
  8
0
 62
     0
 10
83.8634
 20
17.3275
 30
0.0
 11
83.8634
 21
14.5273
 31
0.0
  0
LINE
  8
0
 62
     0
 10
83.8634
 20
14.5273
 30
0.0
 11
84.6889
 21
14.5273
 31
0.0
  0
LINE
  8
0
 62
     0
 10
84.6889
 20
14.5273
 30
0.0
 11
84.6889
 21
11.2985
 31
0.0
  0
LINE
  8
0
 62
     0
 10
84.6889
 20
11.2985
 30
0.0
 11
86.414
 21
11.2985
 31
0.0
  0
LINE
  8
0
 62
     0
 10
86.414
 20
11.2985
 30
0.0
 11
86.414
 21
10.378
 31
0.0
  0
LINE
  8
0
 62
     0
 10
86.414
 20
10.378
 30
0.0
 11
89.7132
 21
10.378
 31
0.0
  0
LINE
  8
0
 62
     0
 10
89.7132
 20
10.378
 30
0.0
 11
89.7132
 21
11.2985
 31
0.0
  0
LINE
  8
0
 62
     0
 10
89.7132
 20
11.2985
 30
0.0
 11
91.4382
 21
11.2985
 31
0.0
  0
LINE
  8
0
 62
     0
 10
91.4382
 20
11.2985
 30
0.0
 11
91.4382
 21
14.5273
 31
0.0
  0
LINE
  8
0
 62
     0
 10
91.4382
 20
14.5273
 30
0.0
 11
131.064
 21
14.5273
 31
0.0
  0
LINE
  8
0
 62
     0
 10
131.064
 20
14.5273
 30
0.0
 11
131.064
 21
13.9278
 31
0.0
  0
LINE
  8
0
 62
     0
 10
131.064
 20
13.9278
 30
0.0
 11
130.263
 21
13.9278
 31
0.0
  0
LINE
  8
0
 62
     0
 10
130.263
 20
13.9278
 30
0.0
 11
130.263
 21
10.8272
 31
0.0
  0
LINE
  8
0
 62
     0
 10
130.263
 20
10.8272
 30
0.0
 11
131.064
 21
10.8272
 31
0.0
  0
LINE
  8
0
 62
     0
 10
131.064
 20
10.8272
 30
0.0
 11
131.064
 21
9.82818
 31
0.0
  0
LINE
  8
0
 62
     0
 10
131.064
 20
9.82818
 30
0.0
 11
145.063
 21
9.82818
 31
0.0
  0
LINE
  8
0
 62
     0
 10
145.063
 20
9.82818
 30
0.0
 11
145.063
 21
10.8272
 31
0.0
  0
LINE
  8
0
 62
     0
 10
145.063
 20
10.8272
 30
0.0
 11
145.864
 21
10.8272
 31
0.0
  0
LINE
  8
0
 62
     0
 10
145.864
 20
10.8272
 30
0.0
 11
145.864
 21
13.9278
 31
0.0
  0
LINE
  8
0
 62
     0
 10
145.864
 20
13.9278
 30
0.0
 11
145.063
 21
13.9278
 31
0.0
  0
LINE
  8
0
 62
     0
 10
145.063
 20
13.9278
 30
0.0
 11
145.063
 21
14.5273
 31
0.0
  0
LINE
  8
0
 62
     0
 10
145.063
 20
14.5273
 30
0.0
 11
184.689
 21
14.5273
 31
0.0
  0
LINE
  8
0
 62
     0
 10
184.689
 20
14.5273
 30
0.0
 11
184.689
 21
11.2985
 31
0.0
  0
LINE
  8
0
 62
     0
 10
184.689
 20
11.2985
 30
0.0
 11
186.414
 21
11.2985
 31
0.0
  0
LINE
  8
0
 62
     0
 10
186.414
 20
11.2985
 30
0.0
 11
186.414
 21
10.378
 31
0.0
  0
LINE
  8
0
 62
     0
 10
186.414
 20
10.378
 30
0.0
 11
189.713
 21
10.378
 31
0.0
  0
LINE
  8
0
 62
     0
 10
189.713
 20
10.378
 30
0.0
 11
189.713
 21
11.2985
 31
0.0
  0
LINE
  8
0
 62
     0
 10
189.713
 20
11.2985
 30
0.0
 11
191.438
 21
11.2985
 31
0.0
  0
LINE
  8
0
 62
     0
 10
191.438
 20
11.2985
 30
0.0
 11
191.438
 21
14.5273
 31
0.0
  0
LINE
  8
0
 62
     0
 10
191.438
 20
14.5273
 30
0.0
 11
192.264
 21
14.5273
 31
0.0
  0
LINE
  8
0
 62
     0
 10
192.264
 20
14.5273
 30
0.0
 11
192.264
 21
17.3275
 31
0.0
  0
LINE
  8
0
 62
     0
 10
192.264
 20
17.3275
 30
0.0
 11
191.438
 21
17.3275
 31
0.0
  0
LINE
  8
0
 62
     0
 10
191.438
 20
17.3275
 30
0.0
 11
191.438
 21
23.5975
 31
0.0
  0
LINE
  8
0
 62
     0
 10
191.438
 20
23.5975
 30
0.0
 11
189.713
 21
23.5975
 31
0.0
  0
LINE
  8
0
 62
     0
 10
189.713
 20
23.5975
 30
0.0
 11
189.713
 21
24.5773
 31
0.0
  0
LINE
  8
0
 62
     0
 10
189.713
 20
24.5773
 30
0.0
 11
186.414
 21
24.5773
 31
0.0
  0
LINE
  8
0
 62
     0
 10
186.414
 20
24.5773
 30
0.0
 11
186.414
 21
23.5975
 31
0.0
  0
LINE
  8
0
 62
     0
 10
186.414
 20
23.5975
 30
0.0
 11
184.689
 21
23.5975
 31
0.0
  0
LINE
  8
0
 62
     0
 10
184.689
 20
23.5975
 30
0.0
 11
184.689
 21
19.1272
 31
0.0
  0
LINE
  8
0
 62
     0
 10
184.689
 20
19.1272
 30
0.0
 11
145.063
 21
19.1272
 31
0.0
  0
LINE
  8
0
 62
     0
 10
145.063
 20
19.1272
 30
0.0
 11
145.063
 21
19.728
 31
0.0
  0
LINE
  8
0
 62
     0
 10
145.063
 20
19.728
 30
0.0
 11
145.864
 21
19.728
 31
0.0
  0
LINE
  8
0
 62
     0
 10
145.864
 20
19.728
 30
0.0
 11
145.864
 21
22.8272
 31
0.0
  0
LINE
  8
0
 62
     0
 10
145.864
 20
22.8272
 30
0.0
 11
145.063
 21
22.8272
 31
0.0
  0
LINE
  8
0
 62
     0
 10
145.063
 20
22.8272
 30
0.0
 11
145.063
 21
23.8277
 31
0.0
  0
LINE
  8
0
 62
     0
 10
145.063
 20
23.8277
 30
0.0
 11
131.064
 21
23.8277
 31
0.0
  0
LINE
  8
0
 62
     0
 10
131.064
 20
23.8277
 30
0.0
 11
131.064
 21
22.8272
 31
0.0
  0
LINE
  8
0
 62
     0
 10
131.064
 20
22.8272
 30
0.0
 11
130.263
 21
22.8272
 31
0.0
  0
LINE
  8
0
 62
     0
 10
130.263
 20
22.8272
 30
0.0
 11
130.263
 21
19.728
 31
0.0
  0
LINE
  8
0
 62
     0
 10
130.263
 20
19.728
 30
0.0
 11
131.064
 21
19.728
 31
0.0
  0
LINE
  8
0
 62
     0
 10
131.064
 20
19.728
 30
0.0
 11
131.064
 21
19.1272
 31
0.0
  0
LINE
  8
0
 62
     0
 10
131.064
 20
19.1272
 30
0.0
 11
91.4382
 21
19.1272
 31
0.0
  0
LINE
  8
0
 62
     0
 10
91.4382
 20
19.1272
 30
0.0
 11
91.4382
 21
23.5975
 31
0.0
  0
LINE
  8
0
 62
     0
 10
91.4382
 20
23.5975
 30
0.0
 11
89.7132
 21
23.5975
 31
0.0
  0
LINE
  8
0
 62
     0
 10
89.7132
 20
23.5975
 30
0.0
 11
89.7132
 21
24.5773
 31
0.0
  0
LINE
  8
0
 62
     0
 10
89.7132
 20
24.5773
 30
0.0
 11
86.414
 21
24.5773
 31
0.0
  0
LINE
  8
0
 62
     0
 10
59.6265
 20
23.8277
 30
0.0
 11
59.6265
 21
22.8272
 31
0.0
  0
LINE
  8
0
 62
     0
 10
59.6265
 20
22.8272
 30
0.0
 11
58.8271
 21
22.8272
 31
0.0
  0
LINE
  8
0
 62
     0
 10
58.8271
 20
22.8272
 30
0.0
 11
58.8271
 21
19.728
 31
0.0
  0
LINE
  8
0
 62
     0
 10
58.8271
 20
19.728
 30
0.0
 11
59.6265
 21
19.728
 31
0.0
  0
LINE
  8
0
 62
     0
 10
59.6265
 20
19.728
 30
0.0
 11
59.6265
 21
13.9278
 31
0.0
  0
LINE
  8
0
 62
     0
 10
59.6265
 20
13.9278
 30
0.0
 11
58.8271
 21
13.9278
 31
0.0
  0
LINE
  8
0
 62
     0
 10
58.8271
 20
13.9278
 30
0.0
 11
58.8271
 21
10.8272
 31
0.0
  0
LINE
  8
0
 62
     0
 10
58.8271
 20
10.8272
 30
0.0
 11
59.6265
 21
10.8272
 31
0.0
  0
LINE
  8
0
 62
     0
 10
59.6265
 20
10.8272
 30
0.0
 11
59.6265
 21
9.82818
 31
0.0
  0
LINE
  8
0
 62
     0
 10
59.6265
 20
9.82818
 30
0.0
 11
73.6258
 21
9.82818
 31
0.0
  0
LINE
  8
0
 62
     0
 10
73.6258
 20
9.82818
 30
0.0
 11
73.6258
 21
10.8272
 31
0.0
  0
LINE
  8
0
 62
     0
 10
73.6258
 20
10.8272
 30
0.0
 11
74.4266
 21
10.8272
 31
0.0
  0
LINE
  8
0
 62
     0
 10
74.4266
 20
10.8272
 30
0.0
 11
74.4266
 21
13.9278
 31
0.0
  0
LINE
  8
0
 62
     0
 10
74.4266
 20
13.9278
 30
0.0
 11
73.6258
 21
13.9278
 31
0.0
  0
LINE
  8
0
 62
     0
 10
73.6258
 20
13.9278
 30
0.0
 11
73.6258
 21
19.728
 31
0.0
  0
LINE
  8
0
 62
     0
 10
73.6258
 20
19.728
 30
0.0
 11
74.4266
 21
19.728
 31
0.0
  0
LINE
  8
0
 62
     0
 10
74.4266
 20
19.728
 30
0.0
 11
74.4266
 21
22.8272
 31
0.0
  0
LINE
  8
0
 62
     0
 10
74.4266
 20
22.8272
 30
0.0
 11
73.6258
 21
22.8272
 31
0.0
  0
LINE
  8
0
 62
     0
 10
73.6258
 20
22.8272
 30
0.0
 11
73.6258
 21
23.8277
 31
0.0
  0
LINE
  8
0
 62
     0
 10
73.6258
 20
23.8277
 30
0.0
 11
59.6265
 21
23.8277
 31
0.0
  0
LINE
  8
0
 62
     0
 10
35.814
 20
23.8277
 30
0.0
 11
35.814
 21
22.8272
 31
0.0
  0
LINE
  8
0
 62
     0
 10
35.814
 20
22.8272
 30
0.0
 11
35.0132
 21
22.8272
 31
0.0
  0
LINE
  8
0
 62
     0
 10
35.0132
 20
22.8272
 30
0.0
 11
35.0132
 21
19.728
 31
0.0
  0
LINE
  8
0
 62
     0
 10
35.0132
 20
19.728
 30
0.0
 11
35.814
 21
19.728
 31
0.0
  0
LINE
  8
0
 62
     0
 10
35.814
 20
19.728
 30
0.0
 11
35.814
 21
13.9278
 31
0.0
  0
LINE
  8
0
 62
     0
 10
35.814
 20
13.9278
 30
0.0
 11
35.0132
 21
13.9278
 31
0.0
  0
LINE
  8
0
 62
     0
 10
35.0132
 20
13.9278
 30
0.0
 11
35.0132
 21
10.8272
 31
0.0
  0
LINE
  8
0
 62
     0
 10
35.0132
 20
10.8272
 30
0.0
 11
35.814
 21
10.8272
 31
0.0
  0
LINE
  8
0
 62
     0
 10
35.814
 20
10.8272
 30
0.0
 11
35.814
 21
9.82818
 31
0.0
  0
LINE
  8
0
 62
     0
 10
35.814
 20
9.82818
 30
0.0
 11
49.8133
 21
9.82818
 31
0.0
  0
LINE
  8
0
 62
     0
 10
49.8133
 20
9.82818
 30
0.0
 11
49.8133
 21
10.8272
 31
0.0
  0
LINE
  8
0
 62
     0
 10
49.8133
 20
10.8272
 30
0.0
 11
50.6141
 21
10.8272
 31
0.0
  0
LINE
  8
0
 62
     0
 10
50.6141
 20
10.8272
 30
0.0
 11
50.6141
 21
13.9278
 31
0.0
  0
LINE
  8
0
 62
     0
 10
50.6141
 20
13.9278
 30
0.0
 11
49.8133
 21
13.9278
 31
0.0
  0
LINE
  8
0
 62
     0
 10
49.8133
 20
13.9278
 30
0.0
 11
49.8133
 21
19.728
 31
0.0
  0
LINE
  8
0
 62
     0
 10
49.8133
 20
19.728
 30
0.0
 11
50.6141
 21
19.728
 31
0.0
  0
LINE
  8
0
 62
     0
 10
50.6141
 20
19.728
 30
0.0
 11
50.6141
 21
22.8272
 31
0.0
  0
LINE
  8
0
 62
     0
 10
50.6141
 20
22.8272
 30
0.0
 11
49.8133
 21
22.8272
 31
0.0
  0
LINE
  8
0
 62
     0
 10
49.8133
 20
22.8272
 30
0.0
 11
49.8133
 21
23.8277
 31
0.0
  0
LINE
  8
0
 62
     0
 10
49.8133
 20
23.8277
 30
0.0
 11
35.814
 21
23.8277
 31
0.0
  0
LINE
  8
0
 62
     0
 10
12.0013
 20
23.8277
 30
0.0
 11
12.0013
 21
22.8272
 31
0.0
  0
LINE
  8
0
 62
     0
 10
12.0013
 20
22.8272
 30
0.0
 11
11.2021
 21
22.8272
 31
0.0
  0
LINE
  8
0
 62
     0
 10
11.2021
 20
22.8272
 30
0.0
 11
11.2021
 21
19.728
 31
0.0
  0
LINE
  8
0
 62
     0
 10
11.2021
 20
19.728
 30
0.0
 11
12.0013
 21
19.728
 31
0.0
  0
LINE
  8
0
 62
     0
 10
12.0013
 20
19.728
 30
0.0
 11
12.0013
 21
13.9278
 31
0.0
  0
LINE
  8
0
 62
     0
 10
12.0013
 20
13.9278
 30
0.0
 11
11.2021
 21
13.9278
 31
0.0
  0
LINE
  8
0
 62
     0
 10
11.2021
 20
13.9278
 30
0.0
 11
11.2021
 21
10.8272
 31
0.0
  0
LINE
  8
0
 62
     0
 10
11.2021
 20
10.8272
 30
0.0
 11
12.0013
 21
10.8272
 31
0.0
  0
LINE
  8
0
 62
     0
 10
12.0013
 20
10.8272
 30
0.0
 11
12.0013
 21
9.82818
 31
0.0
  0
LINE
  8
0
 62
     0
 10
12.0013
 20
9.82818
 30
0.0
 11
26.0008
 21
9.82818
 31
0.0
  0
LINE
  8
0
 62
     0
 10
26.0008
 20
9.82818
 30
0.0
 11
26.0008
 21
10.8272
 31
0.0
  0
LINE
  8
0
 62
     0
 10
26.0008
 20
10.8272
 30
0.0
 11
26.8015
 21
10.8272
 31
0.0
  0
LINE
  8
0
 62
     0
 10
26.8015
 20
10.8272
 30
0.0
 11
26.8015
 21
13.9278
 31
0.0
  0
LINE
  8
0
 62
     0
 10
26.8015
 20
13.9278
 30
0.0
 11
26.0008
 21
13.9278
 31
0.0
  0
LINE
  8
0
 62
     0
 10
26.0008
 20
13.9278
 30
0.0
 11
26.0008
 21
19.728
 31
0.0
  0
LINE
  8
0
 62
     0
 10
26.0008
 20
19.728
 30
0.0
 11
26.8015
 21
19.728
 31
0.0
  0
LINE
  8
0
 62
     0
 10
26.8015
 20
19.728
 30
0.0
 11
26.8015
 21
22.8272
 31
0.0
  0
LINE
  8
0
 62
     0
 10
26.8015
 20
22.8272
 30
0.0
 11
26.0008
 21
22.8272
 31
0.0
  0
LINE
  8
0
 62
     0
 10
26.0008
 20
22.8272
 30
0.0
 11
26.0008
 21
23.8277
 31
0.0
  0
LINE
  8
0
 62
     0
 10
26.0008
 20
23.8277
 30
0.0
 11
12.0013
 21
23.8277
 31
0.0
  0
LINE
  8
0
 62
     0
 10
21.5263
 20
42.8777
 30
0.0
 11
21.5263
 21
41.8772
 31
0.0
  0
LINE
  8
0
 62
     0
 10
21.5263
 20
41.8772
 30
0.0
 11
20.7271
 21
41.8772
 31
0.0
  0
LINE
  8
0
 62
     0
 10
20.7271
 20
41.8772
 30
0.0
 11
20.7271
 21
38.778
 31
0.0
  0
LINE
  8
0
 62
     0
 10
20.7271
 20
38.778
 30
0.0
 11
21.5263
 21
38.778
 31
0.0
  0
LINE
  8
0
 62
     0
 10
21.5263
 20
38.778
 30
0.0
 11
21.5263
 21
38.1773
 31
0.0
  0
LINE
  8
0
 62
     0
 10
21.5263
 20
38.1773
 30
0.0
 11
20.0008
 21
38.1773
 31
0.0
  0
LINE
  8
0
 62
     0
 10
20.0008
 20
38.1773
 30
0.0
 11
20.0008
 21
41.4073
 31
0.0
  0
LINE
  8
0
 62
     0
 10
20.0008
 20
41.4073
 30
0.0
 11
18.2769
 21
41.4073
 31
0.0
  0
LINE
  8
0
 62
     0
 10
18.2769
 20
41.4073
 30
0.0
 11
18.2769
 21
42.3277
 31
0.0
  0
LINE
  8
0
 62
     0
 10
18.2769
 20
42.3277
 30
0.0
 11
14.9765
 21
42.3277
 31
0.0
  0
LINE
  8
0
 62
     0
 10
14.9765
 20
42.3277
 30
0.0
 11
14.9765
 21
41.4073
 31
0.0
  0
LINE
  8
0
 62
     0
 10
14.9765
 20
41.4073
 30
0.0
 11
13.2512
 21
41.4073
 31
0.0
  0
LINE
  8
0
 62
     0
 10
13.2512
 20
41.4073
 30
0.0
 11
13.2512
 21
38.1773
 31
0.0
  0
LINE
  8
0
 62
     0
 10
13.2512
 20
38.1773
 30
0.0
 11
12.4272
 21
38.1773
 31
0.0
  0
LINE
  8
0
 62
     0
 10
12.4272
 20
38.1773
 30
0.0
 11
12.4272
 21
35.3783
 31
0.0
  0
LINE
  8
0
 62
     0
 10
12.4272
 20
35.3783
 30
0.0
 11
13.2512
 21
35.3783
 31
0.0
  0
LINE
  8
0
 62
     0
 10
13.2512
 20
35.3783
 30
0.0
 11
13.2512
 21
29.1083
 31
0.0
  0
LINE
  8
0
 62
     0
 10
13.2512
 20
29.1083
 30
0.0
 11
14.9765
 21
29.1083
 31
0.0
  0
LINE
  8
0
 62
     0
 10
14.9765
 20
29.1083
 30
0.0
 11
14.9765
 21
28.1285
 31
0.0
  0
LINE
  8
0
 62
     0
 10
14.9765
 20
28.1285
 30
0.0
 11
18.2769
 21
28.1285
 31
0.0
  0
LINE
  8
0
 62
     0
 10
18.2769
 20
28.1285
 30
0.0
 11
18.2769
 21
29.1083
 31
0.0
  0
LINE
  8
0
 62
     0
 10
18.2769
 20
29.1083
 30
0.0
 11
20.0008
 21
29.1083
 31
0.0
  0
LINE
  8
0
 62
     0
 10
20.0008
 20
29.1083
 30
0.0
 11
20.0008
 21
33.5773
 31
0.0
  0
LINE
  8
0
 62
     0
 10
20.0008
 20
33.5773
 30
0.0
 11
21.5263
 21
33.5773
 31
0.0
  0
LINE
  8
0
 62
     0
 10
21.5263
 20
33.5773
 30
0.0
 11
21.5263
 21
32.9778
 31
0.0
  0
LINE
  8
0
 62
     0
 10
21.5263
 20
32.9778
 30
0.0
 11
20.7271
 21
32.9778
 31
0.0
  0
LINE
  8
0
 62
     0
 10
20.7271
 20
32.9778
 30
0.0
 11
20.7271
 21
29.8772
 31
0.0
  0
LINE
  8
0
 62
     0
 10
20.7271
 20
29.8772
 30
0.0
 11
21.5263
 21
29.8772
 31
0.0
  0
LINE
  8
0
 62
     0
 10
21.5263
 20
29.8772
 30
0.0
 11
21.5263
 21
28.8782
 31
0.0
  0
LINE
  8
0
 62
     0
 10
21.5263
 20
28.8782
 30
0.0
 11
35.5258
 21
28.8782
 31
0.0
  0
LINE
  8
0
 62
     0
 10
35.5258
 20
28.8782
 30
0.0
 11
35.5258
 21
29.8772
 31
0.0
  0
LINE
  8
0
 62
     0
 10
35.5258
 20
29.8772
 30
0.0
 11
36.3266
 21
29.8772
 31
0.0
  0
LINE
  8
0
 62
     0
 10
36.3266
 20
29.8772
 30
0.0
 11
36.3266
 21
32.9778
 31
0.0
  0
LINE
  8
0
 62
     0
 10
36.3266
 20
32.9778
 30
0.0
 11
35.5258
 21
32.9778
 31
0.0
  0
LINE
  8
0
 62
     0
 10
35.5258
 20
32.9778
 30
0.0
 11
35.5258
 21
33.5773
 31
0.0
  0
LINE
  8
0
 62
     0
 10
35.5258
 20
33.5773
 30
0.0
 11
37.0512
 21
33.5773
 31
0.0
  0
LINE
  8
0
 62
     0
 10
37.0512
 20
33.5773
 30
0.0
 11
37.0512
 21
29.1083
 31
0.0
  0
LINE
  8
0
 62
     0
 10
37.0512
 20
29.1083
 30
0.0
 11
38.7766
 21
29.1083
 31
0.0
  0
LINE
  8
0
 62
     0
 10
38.7766
 20
29.1083
 30
0.0
 11
38.7766
 21
28.1285
 31
0.0
  0
LINE
  8
0
 62
     0
 10
38.7766
 20
28.1285
 30
0.0
 11
42.0769
 21
28.1285
 31
0.0
  0
LINE
  8
0
 62
     0
 10
42.0769
 20
28.1285
 30
0.0
 11
42.0769
 21
29.1083
 31
0.0
  0
LINE
  8
0
 62
     0
 10
42.0769
 20
29.1083
 30
0.0
 11
43.8009
 21
29.1083
 31
0.0
  0
LINE
  8
0
 62
     0
 10
43.8009
 20
29.1083
 30
0.0
 11
43.8009
 21
35.3783
 31
0.0
  0
LINE
  8
0
 62
     0
 10
43.8009
 20
35.3783
 30
0.0
 11
44.6264
 21
35.3783
 31
0.0
  0
LINE
  8
0
 62
     0
 10
44.6264
 20
35.3783
 30
0.0
 11
44.6264
 21
38.1773
 31
0.0
  0
LINE
  8
0
 62
     0
 10
44.6264
 20
38.1773
 30
0.0
 11
43.8009
 21
38.1773
 31
0.0
  0
LINE
  8
0
 62
     0
 10
43.8009
 20
38.1773
 30
0.0
 11
43.8009
 21
41.4073
 31
0.0
  0
LINE
  8
0
 62
     0
 10
43.8009
 20
41.4073
 30
0.0
 11
42.0769
 21
41.4073
 31
0.0
  0
LINE
  8
0
 62
     0
 10
42.0769
 20
41.4073
 30
0.0
 11
42.0769
 21
42.3277
 31
0.0
  0
LINE
  8
0
 62
     0
 10
42.0769
 20
42.3277
 30
0.0
 11
38.7766
 21
42.3277
 31
0.0
  0
LINE
  8
0
 62
     0
 10
38.7766
 20
42.3277
 30
0.0
 11
38.7766
 21
41.4073
 31
0.0
  0
LINE
  8
0
 62
     0
 10
38.7766
 20
41.4073
 30
0.0
 11
37.0512
 21
41.4073
 31
0.0
  0
LINE
  8
0
 62
     0
 10
37.0512
 20
41.4073
 30
0.0
 11
37.0512
 21
38.1773
 31
0.0
  0
LINE
  8
0
 62
     0
 10
37.0512
 20
38.1773
 30
0.0
 11
35.5258
 21
38.1773
 31
0.0
  0
LINE
  8
0
 62
     0
 10
35.5258
 20
38.1773
 30
0.0
 11
35.5258
 21
38.778
 31
0.0
  0
LINE
  8
0
 62
     0
 10
35.5258
 20
38.778
 30
0.0
 11
36.3266
 21
38.778
 31
0.0
  0
LINE
  8
0
 62
     0
 10
36.3266
 20
38.778
 30
0.0
 11
36.3266
 21
41.8772
 31
0.0
  0
LINE
  8
0
 62
     0
 10
36.3266
 20
41.8772
 30
0.0
 11
35.5258
 21
41.8772
 31
0.0
  0
LINE
  8
0
 62
     0
 10
35.5258
 20
41.8772
 30
0.0
 11
35.5258
 21
42.8777
 31
0.0
  0
LINE
  8
0
 62
     0
 10
35.5258
 20
42.8777
 30
0.0
 11
21.5263
 21
42.8777
 31
0.0
  0
LINE
  8
0
 62
     0
 10
295.37
 20
42.8777
 30
0.0
 11
295.37
 21
41.8772
 31
0.0
  0
LINE
  8
0
 62
     0
 10
295.37
 20
41.8772
 30
0.0
 11
294.571
 21
41.8772
 31
0.0
  0
LINE
  8
0
 62
     0
 10
294.571
 20
41.8772
 30
0.0
 11
294.571
 21
38.778
 31
0.0
  0
LINE
  8
0
 62
     0
 10
294.571
 20
38.778
 30
0.0
 11
295.37
 21
38.778
 31
0.0
  0
LINE
  8
0
 62
     0
 10
295.37
 20
38.778
 30
0.0
 11
295.37
 21
32.9778
 31
0.0
  0
LINE
  8
0
 62
     0
 10
295.37
 20
32.9778
 30
0.0
 11
294.571
 21
32.9778
 31
0.0
  0
LINE
  8
0
 62
     0
 10
294.571
 20
32.9778
 30
0.0
 11
294.571
 21
29.8772
 31
0.0
  0
LINE
  8
0
 62
     0
 10
294.571
 20
29.8772
 30
0.0
 11
295.37
 21
29.8772
 31
0.0
  0
LINE
  8
0
 62
     0
 10
295.37
 20
29.8772
 30
0.0
 11
295.37
 21
28.8782
 31
0.0
  0
LINE
  8
0
 62
     0
 10
295.37
 20
28.8782
 30
0.0
 11
309.371
 21
28.8782
 31
0.0
  0
LINE
  8
0
 62
     0
 10
309.371
 20
28.8782
 30
0.0
 11
309.371
 21
29.8772
 31
0.0
  0
LINE
  8
0
 62
     0
 10
309.371
 20
29.8772
 30
0.0
 11
310.17
 21
29.8772
 31
0.0
  0
LINE
  8
0
 62
     0
 10
310.17
 20
29.8772
 30
0.0
 11
310.17
 21
32.9778
 31
0.0
  0
LINE
  8
0
 62
     0
 10
310.17
 20
32.9778
 30
0.0
 11
309.371
 21
32.9778
 31
0.0
  0
LINE
  8
0
 62
     0
 10
309.371
 20
32.9778
 30
0.0
 11
309.371
 21
38.778
 31
0.0
  0
LINE
  8
0
 62
     0
 10
309.371
 20
38.778
 30
0.0
 11
310.17
 21
38.778
 31
0.0
  0
LINE
  8
0
 62
     0
 10
310.17
 20
38.778
 30
0.0
 11
310.17
 21
41.8772
 31
0.0
  0
LINE
  8
0
 62
     0
 10
310.17
 20
41.8772
 30
0.0
 11
309.371
 21
41.8772
 31
0.0
  0
LINE
  8
0
 62
     0
 10
309.371
 20
41.8772
 30
0.0
 11
309.371
 21
42.8777
 31
0.0
  0
LINE
  8
0
 62
     0
 10
309.371
 20
42.8777
 30
0.0
 11
295.37
 21
42.8777
 31
0.0
  0
LINE
  8
0
 62
     0
 10
276.32
 20
42.8777
 30
0.0
 11
276.32
 21
41.8772
 31
0.0
  0
LINE
  8
0
 62
     0
 10
276.32
 20
41.8772
 30
0.0
 11
275.521
 21
41.8772
 31
0.0
  0
LINE
  8
0
 62
     0
 10
275.521
 20
41.8772
 30
0.0
 11
275.521
 21
38.778
 31
0.0
  0
LINE
  8
0
 62
     0
 10
275.521
 20
38.778
 30
0.0
 11
276.32
 21
38.778
 31
0.0
  0
LINE
  8
0
 62
     0
 10
276.32
 20
38.778
 30
0.0
 11
276.32
 21
32.9778
 31
0.0
  0
LINE
  8
0
 62
     0
 10
276.32
 20
32.9778
 30
0.0
 11
275.521
 21
32.9778
 31
0.0
  0
LINE
  8
0
 62
     0
 10
275.521
 20
32.9778
 30
0.0
 11
275.521
 21
29.8772
 31
0.0
  0
LINE
  8
0
 62
     0
 10
275.521
 20
29.8772
 30
0.0
 11
276.32
 21
29.8772
 31
0.0
  0
LINE
  8
0
 62
     0
 10
276.32
 20
29.8772
 30
0.0
 11
276.32
 21
28.8782
 31
0.0
  0
LINE
  8
0
 62
     0
 10
276.32
 20
28.8782
 30
0.0
 11
290.321
 21
28.8782
 31
0.0
  0
LINE
  8
0
 62
     0
 10
290.321
 20
28.8782
 30
0.0
 11
290.321
 21
29.8772
 31
0.0
  0
LINE
  8
0
 62
     0
 10
290.321
 20
29.8772
 30
0.0
 11
291.12
 21
29.8772
 31
0.0
  0
LINE
  8
0
 62
     0
 10
291.12
 20
29.8772
 30
0.0
 11
291.12
 21
32.9778
 31
0.0
  0
LINE
  8
0
 62
     0
 10
291.12
 20
32.9778
 30
0.0
 11
290.321
 21
32.9778
 31
0.0
  0
LINE
  8
0
 62
     0
 10
290.321
 20
32.9778
 30
0.0
 11
290.321
 21
38.778
 31
0.0
  0
LINE
  8
0
 62
     0
 10
290.321
 20
38.778
 30
0.0
 11
291.12
 21
38.778
 31
0.0
  0
LINE
  8
0
 62
     0
 10
291.12
 20
38.778
 30
0.0
 11
291.12
 21
41.8772
 31
0.0
  0
LINE
  8
0
 62
     0
 10
291.12
 20
41.8772
 30
0.0
 11
290.321
 21
41.8772
 31
0.0
  0
LINE
  8
0
 62
     0
 10
290.321
 20
41.8772
 30
0.0
 11
290.321
 21
42.8777
 31
0.0
  0
LINE
  8
0
 62
     0
 10
290.321
 20
42.8777
 30
0.0
 11
276.32
 21
42.8777
 31
0.0
  0
LINE
  8
0
 62
     0
 10
250.127
 20
42.8777
 30
0.0
 11
250.127
 21
41.8772
 31
0.0
  0
LINE
  8
0
 62
     0
 10
250.127
 20
41.8772
 30
0.0
 11
249.327
 21
41.8772
 31
0.0
  0
LINE
  8
0
 62
     0
 10
249.327
 20
41.8772
 30
0.0
 11
249.327
 21
38.778
 31
0.0
  0
LINE
  8
0
 62
     0
 10
249.327
 20
38.778
 30
0.0
 11
250.127
 21
38.778
 31
0.0
  0
LINE
  8
0
 62
     0
 10
250.127
 20
38.778
 30
0.0
 11
250.127
 21
32.9778
 31
0.0
  0
LINE
  8
0
 62
     0
 10
250.127
 20
32.9778
 30
0.0
 11
249.327
 21
32.9778
 31
0.0
  0
LINE
  8
0
 62
     0
 10
249.327
 20
32.9778
 30
0.0
 11
249.327
 21
29.8772
 31
0.0
  0
LINE
  8
0
 62
     0
 10
249.327
 20
29.8772
 30
0.0
 11
250.127
 21
29.8772
 31
0.0
  0
LINE
  8
0
 62
     0
 10
250.127
 20
29.8772
 30
0.0
 11
250.127
 21
28.8782
 31
0.0
  0
LINE
  8
0
 62
     0
 10
250.127
 20
28.8782
 30
0.0
 11
264.126
 21
28.8782
 31
0.0
  0
LINE
  8
0
 62
     0
 10
264.126
 20
28.8782
 30
0.0
 11
264.126
 21
29.8772
 31
0.0
  0
LINE
  8
0
 62
     0
 10
264.126
 20
29.8772
 30
0.0
 11
264.927
 21
29.8772
 31
0.0
  0
LINE
  8
0
 62
     0
 10
264.927
 20
29.8772
 30
0.0
 11
264.927
 21
32.9778
 31
0.0
  0
LINE
  8
0
 62
     0
 10
264.927
 20
32.9778
 30
0.0
 11
264.126
 21
32.9778
 31
0.0
  0
LINE
  8
0
 62
     0
 10
264.126
 20
32.9778
 30
0.0
 11
264.126
 21
38.778
 31
0.0
  0
LINE
  8
0
 62
     0
 10
264.126
 20
38.778
 30
0.0
 11
264.927
 21
38.778
 31
0.0
  0
LINE
  8
0
 62
     0
 10
264.927
 20
38.778
 30
0.0
 11
264.927
 21
41.8772
 31
0.0
  0
LINE
  8
0
 62
     0
 10
264.927
 20
41.8772
 30
0.0
 11
264.126
 21
41.8772
 31
0.0
  0
LINE
  8
0
 62
     0
 10
264.126
 20
41.8772
 30
0.0
 11
264.126
 21
42.8777
 31
0.0
  0
LINE
  8
0
 62
     0
 10
264.126
 20
42.8777
 30
0.0
 11
250.127
 21
42.8777
 31
0.0
  0
LINE
  8
0
 62
     0
 10
223.933
 20
42.8777
 30
0.0
 11
223.933
 21
41.8772
 31
0.0
  0
LINE
  8
0
 62
     0
 10
223.933
 20
41.8772
 30
0.0
 11
223.132
 21
41.8772
 31
0.0
  0
LINE
  8
0
 62
     0
 10
223.132
 20
41.8772
 30
0.0
 11
223.132
 21
38.778
 31
0.0
  0
LINE
  8
0
 62
     0
 10
223.132
 20
38.778
 30
0.0
 11
223.933
 21
38.778
 31
0.0
  0
LINE
  8
0
 62
     0
 10
223.933
 20
38.778
 30
0.0
 11
223.933
 21
32.9778
 31
0.0
  0
LINE
  8
0
 62
     0
 10
223.933
 20
32.9778
 30
0.0
 11
223.132
 21
32.9778
 31
0.0
  0
LINE
  8
0
 62
     0
 10
223.132
 20
32.9778
 30
0.0
 11
223.132
 21
29.8772
 31
0.0
  0
LINE
  8
0
 62
     0
 10
223.132
 20
29.8772
 30
0.0
 11
223.933
 21
29.8772
 31
0.0
  0
LINE
  8
0
 62
     0
 10
223.933
 20
29.8772
 30
0.0
 11
223.933
 21
28.8782
 31
0.0
  0
LINE
  8
0
 62
     0
 10
223.933
 20
28.8782
 30
0.0
 11
237.932
 21
28.8782
 31
0.0
  0
LINE
  8
0
 62
     0
 10
237.932
 20
28.8782
 30
0.0
 11
237.932
 21
29.8772
 31
0.0
  0
LINE
  8
0
 62
     0
 10
237.932
 20
29.8772
 30
0.0
 11
238.733
 21
29.8772
 31
0.0
  0
LINE
  8
0
 62
     0
 10
238.733
 20
29.8772
 30
0.0
 11
238.733
 21
32.9778
 31
0.0
  0
LINE
  8
0
 62
     0
 10
238.733
 20
32.9778
 30
0.0
 11
237.932
 21
32.9778
 31
0.0
  0
LINE
  8
0
 62
     0
 10
237.932
 20
32.9778
 30
0.0
 11
237.932
 21
38.778
 31
0.0
  0
LINE
  8
0
 62
     0
 10
237.932
 20
38.778
 30
0.0
 11
238.733
 21
38.778
 31
0.0
  0
LINE
  8
0
 62
     0
 10
238.733
 20
38.778
 30
0.0
 11
238.733
 21
41.8772
 31
0.0
  0
LINE
  8
0
 62
     0
 10
238.733
 20
41.8772
 30
0.0
 11
237.932
 21
41.8772
 31
0.0
  0
LINE
  8
0
 62
     0
 10
237.932
 20
41.8772
 30
0.0
 11
237.932
 21
42.8777
 31
0.0
  0
LINE
  8
0
 62
     0
 10
237.932
 20
42.8777
 30
0.0
 11
223.933
 21
42.8777
 31
0.0
  0
LINE
  8
0
 62
     0
 10
204.883
 20
42.8777
 30
0.0
 11
204.883
 21
41.8772
 31
0.0
  0
LINE
  8
0
 62
     0
 10
204.883
 20
41.8772
 30
0.0
 11
204.082
 21
41.8772
 31
0.0
  0
LINE
  8
0
 62
     0
 10
204.082
 20
41.8772
 30
0.0
 11
204.082
 21
38.778
 31
0.0
  0
LINE
  8
0
 62
     0
 10
204.082
 20
38.778
 30
0.0
 11
204.883
 21
38.778
 31
0.0
  0
LINE
  8
0
 62
     0
 10
204.883
 20
38.778
 30
0.0
 11
204.883
 21
32.9778
 31
0.0
  0
LINE
  8
0
 62
     0
 10
204.883
 20
32.9778
 30
0.0
 11
204.082
 21
32.9778
 31
0.0
  0
LINE
  8
0
 62
     0
 10
204.082
 20
32.9778
 30
0.0
 11
204.082
 21
29.8772
 31
0.0
  0
LINE
  8
0
 62
     0
 10
204.082
 20
29.8772
 30
0.0
 11
204.883
 21
29.8772
 31
0.0
  0
LINE
  8
0
 62
     0
 10
204.883
 20
29.8772
 30
0.0
 11
204.883
 21
28.8782
 31
0.0
  0
LINE
  8
0
 62
     0
 10
204.883
 20
28.8782
 30
0.0
 11
218.882
 21
28.8782
 31
0.0
  0
LINE
  8
0
 62
     0
 10
218.882
 20
28.8782
 30
0.0
 11
218.882
 21
29.8772
 31
0.0
  0
LINE
  8
0
 62
     0
 10
218.882
 20
29.8772
 30
0.0
 11
219.683
 21
29.8772
 31
0.0
  0
LINE
  8
0
 62
     0
 10
219.683
 20
29.8772
 30
0.0
 11
219.683
 21
32.9778
 31
0.0
  0
LINE
  8
0
 62
     0
 10
219.683
 20
32.9778
 30
0.0
 11
218.882
 21
32.9778
 31
0.0
  0
LINE
  8
0
 62
     0
 10
218.882
 20
32.9778
 30
0.0
 11
218.882
 21
38.778
 31
0.0
  0
LINE
  8
0
 62
     0
 10
218.882
 20
38.778
 30
0.0
 11
219.683
 21
38.778
 31
0.0
  0
LINE
  8
0
 62
     0
 10
219.683
 20
38.778
 30
0.0
 11
219.683
 21
41.8772
 31
0.0
  0
LINE
  8
0
 62
     0
 10
219.683
 20
41.8772
 30
0.0
 11
218.882
 21
41.8772
 31
0.0
  0
LINE
  8
0
 62
     0
 10
218.882
 20
41.8772
 30
0.0
 11
218.882
 21
42.8777
 31
0.0
  0
LINE
  8
0
 62
     0
 10
218.882
 20
42.8777
 30
0.0
 11
204.883
 21
42.8777
 31
0.0
  0
LINE
  8
0
 62
     0
 10
185.833
 20
42.8777
 30
0.0
 11
185.833
 21
41.8772
 31
0.0
  0
LINE
  8
0
 62
     0
 10
185.833
 20
41.8772
 30
0.0
 11
185.032
 21
41.8772
 31
0.0
  0
LINE
  8
0
 62
     0
 10
185.032
 20
41.8772
 30
0.0
 11
185.032
 21
38.778
 31
0.0
  0
LINE
  8
0
 62
     0
 10
185.032
 20
38.778
 30
0.0
 11
185.833
 21
38.778
 31
0.0
  0
LINE
  8
0
 62
     0
 10
185.833
 20
38.778
 30
0.0
 11
185.833
 21
32.9778
 31
0.0
  0
LINE
  8
0
 62
     0
 10
185.833
 20
32.9778
 30
0.0
 11
185.032
 21
32.9778
 31
0.0
  0
LINE
  8
0
 62
     0
 10
185.032
 20
32.9778
 30
0.0
 11
185.032
 21
29.8772
 31
0.0
  0
LINE
  8
0
 62
     0
 10
185.032
 20
29.8772
 30
0.0
 11
185.833
 21
29.8772
 31
0.0
  0
LINE
  8
0
 62
     0
 10
185.833
 20
29.8772
 30
0.0
 11
185.833
 21
28.8782
 31
0.0
  0
LINE
  8
0
 62
     0
 10
185.833
 20
28.8782
 30
0.0
 11
199.832
 21
28.8782
 31
0.0
  0
LINE
  8
0
 62
     0
 10
199.832
 20
28.8782
 30
0.0
 11
199.832
 21
29.8772
 31
0.0
  0
LINE
  8
0
 62
     0
 10
199.832
 20
29.8772
 30
0.0
 11
200.633
 21
29.8772
 31
0.0
  0
LINE
  8
0
 62
     0
 10
200.633
 20
29.8772
 30
0.0
 11
200.633
 21
32.9778
 31
0.0
  0
LINE
  8
0
 62
     0
 10
200.633
 20
32.9778
 30
0.0
 11
199.832
 21
32.9778
 31
0.0
  0
LINE
  8
0
 62
     0
 10
199.832
 20
32.9778
 30
0.0
 11
199.832
 21
38.778
 31
0.0
  0
LINE
  8
0
 62
     0
 10
199.832
 20
38.778
 30
0.0
 11
200.633
 21
38.778
 31
0.0
  0
LINE
  8
0
 62
     0
 10
200.633
 20
38.778
 30
0.0
 11
200.633
 21
41.8772
 31
0.0
  0
LINE
  8
0
 62
     0
 10
200.633
 20
41.8772
 30
0.0
 11
199.832
 21
41.8772
 31
0.0
  0
LINE
  8
0
 62
     0
 10
199.832
 20
41.8772
 30
0.0
 11
199.832
 21
42.8777
 31
0.0
  0
LINE
  8
0
 62
     0
 10
199.832
 20
42.8777
 30
0.0
 11
185.833
 21
42.8777
 31
0.0
  0
LINE
  8
0
 62
     0
 10
166.783
 20
42.8777
 30
0.0
 11
166.783
 21
41.8772
 31
0.0
  0
LINE
  8
0
 62
     0
 10
166.783
 20
41.8772
 30
0.0
 11
165.982
 21
41.8772
 31
0.0
  0
LINE
  8
0
 62
     0
 10
165.982
 20
41.8772
 30
0.0
 11
165.982
 21
38.778
 31
0.0
  0
LINE
  8
0
 62
     0
 10
165.982
 20
38.778
 30
0.0
 11
166.783
 21
38.778
 31
0.0
  0
LINE
  8
0
 62
     0
 10
166.783
 20
38.778
 30
0.0
 11
166.783
 21
32.9778
 31
0.0
  0
LINE
  8
0
 62
     0
 10
166.783
 20
32.9778
 30
0.0
 11
165.982
 21
32.9778
 31
0.0
  0
LINE
  8
0
 62
     0
 10
165.982
 20
32.9778
 30
0.0
 11
165.982
 21
29.8772
 31
0.0
  0
LINE
  8
0
 62
     0
 10
165.982
 20
29.8772
 30
0.0
 11
166.783
 21
29.8772
 31
0.0
  0
LINE
  8
0
 62
     0
 10
166.783
 20
29.8772
 30
0.0
 11
166.783
 21
28.8782
 31
0.0
  0
LINE
  8
0
 62
     0
 10
166.783
 20
28.8782
 30
0.0
 11
180.782
 21
28.8782
 31
0.0
  0
LINE
  8
0
 62
     0
 10
180.782
 20
28.8782
 30
0.0
 11
180.782
 21
29.8772
 31
0.0
  0
LINE
  8
0
 62
     0
 10
180.782
 20
29.8772
 30
0.0
 11
181.583
 21
29.8772
 31
0.0
  0
LINE
  8
0
 62
     0
 10
181.583
 20
29.8772
 30
0.0
 11
181.583
 21
32.9778
 31
0.0
  0
LINE
  8
0
 62
     0
 10
181.583
 20
32.9778
 30
0.0
 11
180.782
 21
32.9778
 31
0.0
  0
LINE
  8
0
 62
     0
 10
180.782
 20
32.9778
 30
0.0
 11
180.782
 21
38.778
 31
0.0
  0
LINE
  8
0
 62
     0
 10
180.782
 20
38.778
 30
0.0
 11
181.583
 21
38.778
 31
0.0
  0
LINE
  8
0
 62
     0
 10
181.583
 20
38.778
 30
0.0
 11
181.583
 21
41.8772
 31
0.0
  0
LINE
  8
0
 62
     0
 10
181.583
 20
41.8772
 30
0.0
 11
180.782
 21
41.8772
 31
0.0
  0
LINE
  8
0
 62
     0
 10
180.782
 20
41.8772
 30
0.0
 11
180.782
 21
42.8777
 31
0.0
  0
LINE
  8
0
 62
     0
 10
180.782
 20
42.8777
 30
0.0
 11
166.783
 21
42.8777
 31
0.0
  0
LINE
  8
0
 62
     0
 10
147.733
 20
42.8777
 30
0.0
 11
147.733
 21
41.8772
 31
0.0
  0
LINE
  8
0
 62
     0
 10
147.733
 20
41.8772
 30
0.0
 11
146.932
 21
41.8772
 31
0.0
  0
LINE
  8
0
 62
     0
 10
146.932
 20
41.8772
 30
0.0
 11
146.932
 21
38.778
 31
0.0
  0
LINE
  8
0
 62
     0
 10
146.932
 20
38.778
 30
0.0
 11
147.733
 21
38.778
 31
0.0
  0
LINE
  8
0
 62
     0
 10
147.733
 20
38.778
 30
0.0
 11
147.733
 21
32.9778
 31
0.0
  0
LINE
  8
0
 62
     0
 10
147.733
 20
32.9778
 30
0.0
 11
146.932
 21
32.9778
 31
0.0
  0
LINE
  8
0
 62
     0
 10
146.932
 20
32.9778
 30
0.0
 11
146.932
 21
29.8772
 31
0.0
  0
LINE
  8
0
 62
     0
 10
146.932
 20
29.8772
 30
0.0
 11
147.733
 21
29.8772
 31
0.0
  0
LINE
  8
0
 62
     0
 10
147.733
 20
29.8772
 30
0.0
 11
147.733
 21
28.8782
 31
0.0
  0
LINE
  8
0
 62
     0
 10
147.733
 20
28.8782
 30
0.0
 11
161.732
 21
28.8782
 31
0.0
  0
LINE
  8
0
 62
     0
 10
161.732
 20
28.8782
 30
0.0
 11
161.732
 21
29.8772
 31
0.0
  0
LINE
  8
0
 62
     0
 10
161.732
 20
29.8772
 30
0.0
 11
162.533
 21
29.8772
 31
0.0
  0
LINE
  8
0
 62
     0
 10
162.533
 20
29.8772
 30
0.0
 11
162.533
 21
32.9778
 31
0.0
  0
LINE
  8
0
 62
     0
 10
162.533
 20
32.9778
 30
0.0
 11
161.732
 21
32.9778
 31
0.0
  0
LINE
  8
0
 62
     0
 10
161.732
 20
32.9778
 30
0.0
 11
161.732
 21
38.778
 31
0.0
  0
LINE
  8
0
 62
     0
 10
161.732
 20
38.778
 30
0.0
 11
162.533
 21
38.778
 31
0.0
  0
LINE
  8
0
 62
     0
 10
162.533
 20
38.778
 30
0.0
 11
162.533
 21
41.8772
 31
0.0
  0
LINE
  8
0
 62
     0
 10
162.533
 20
41.8772
 30
0.0
 11
161.732
 21
41.8772
 31
0.0
  0
LINE
  8
0
 62
     0
 10
161.732
 20
41.8772
 30
0.0
 11
161.732
 21
42.8777
 31
0.0
  0
LINE
  8
0
 62
     0
 10
161.732
 20
42.8777
 30
0.0
 11
147.733
 21
42.8777
 31
0.0
  0
LINE
  8
0
 62
     0
 10
128.683
 20
42.8777
 30
0.0
 11
128.683
 21
41.8772
 31
0.0
  0
LINE
  8
0
 62
     0
 10
128.683
 20
41.8772
 30
0.0
 11
127.882
 21
41.8772
 31
0.0
  0
LINE
  8
0
 62
     0
 10
127.882
 20
41.8772
 30
0.0
 11
127.882
 21
38.778
 31
0.0
  0
LINE
  8
0
 62
     0
 10
127.882
 20
38.778
 30
0.0
 11
128.683
 21
38.778
 31
0.0
  0
LINE
  8
0
 62
     0
 10
128.683
 20
38.778
 30
0.0
 11
128.683
 21
32.9778
 31
0.0
  0
LINE
  8
0
 62
     0
 10
128.683
 20
32.9778
 30
0.0
 11
127.882
 21
32.9778
 31
0.0
  0
LINE
  8
0
 62
     0
 10
127.882
 20
32.9778
 30
0.0
 11
127.882
 21
29.8772
 31
0.0
  0
LINE
  8
0
 62
     0
 10
127.882
 20
29.8772
 30
0.0
 11
128.683
 21
29.8772
 31
0.0
  0
LINE
  8
0
 62
     0
 10
128.683
 20
29.8772
 30
0.0
 11
128.683
 21
28.8782
 31
0.0
  0
LINE
  8
0
 62
     0
 10
128.683
 20
28.8782
 30
0.0
 11
142.682
 21
28.8782
 31
0.0
  0
LINE
  8
0
 62
     0
 10
142.682
 20
28.8782
 30
0.0
 11
142.682
 21
29.8772
 31
0.0
  0
LINE
  8
0
 62
     0
 10
142.682
 20
29.8772
 30
0.0
 11
143.483
 21
29.8772
 31
0.0
  0
LINE
  8
0
 62
     0
 10
143.483
 20
29.8772
 30
0.0
 11
143.483
 21
32.9778
 31
0.0
  0
LINE
  8
0
 62
     0
 10
143.483
 20
32.9778
 30
0.0
 11
142.682
 21
32.9778
 31
0.0
  0
LINE
  8
0
 62
     0
 10
142.682
 20
32.9778
 30
0.0
 11
142.682
 21
38.778
 31
0.0
  0
LINE
  8
0
 62
     0
 10
142.682
 20
38.778
 30
0.0
 11
143.483
 21
38.778
 31
0.0
  0
LINE
  8
0
 62
     0
 10
143.483
 20
38.778
 30
0.0
 11
143.483
 21
41.8772
 31
0.0
  0
LINE
  8
0
 62
     0
 10
143.483
 20
41.8772
 30
0.0
 11
142.682
 21
41.8772
 31
0.0
  0
LINE
  8
0
 62
     0
 10
142.682
 20
41.8772
 30
0.0
 11
142.682
 21
42.8777
 31
0.0
  0
LINE
  8
0
 62
     0
 10
142.682
 20
42.8777
 30
0.0
 11
128.683
 21
42.8777
 31
0.0
  0
LINE
  8
0
 62
     0
 10
109.633
 20
42.8777
 30
0.0
 11
109.633
 21
41.8772
 31
0.0
  0
LINE
  8
0
 62
     0
 10
109.633
 20
41.8772
 30
0.0
 11
108.832
 21
41.8772
 31
0.0
  0
LINE
  8
0
 62
     0
 10
108.832
 20
41.8772
 30
0.0
 11
108.832
 21
38.778
 31
0.0
  0
LINE
  8
0
 62
     0
 10
108.832
 20
38.778
 30
0.0
 11
109.633
 21
38.778
 31
0.0
  0
LINE
  8
0
 62
     0
 10
109.633
 20
38.778
 30
0.0
 11
109.633
 21
32.9778
 31
0.0
  0
LINE
  8
0
 62
     0
 10
109.633
 20
32.9778
 30
0.0
 11
108.832
 21
32.9778
 31
0.0
  0
LINE
  8
0
 62
     0
 10
108.832
 20
32.9778
 30
0.0
 11
108.832
 21
29.8772
 31
0.0
  0
LINE
  8
0
 62
     0
 10
108.832
 20
29.8772
 30
0.0
 11
109.633
 21
29.8772
 31
0.0
  0
LINE
  8
0
 62
     0
 10
109.633
 20
29.8772
 30
0.0
 11
109.633
 21
28.8782
 31
0.0
  0
LINE
  8
0
 62
     0
 10
109.633
 20
28.8782
 30
0.0
 11
123.632
 21
28.8782
 31
0.0
  0
LINE
  8
0
 62
     0
 10
123.632
 20
28.8782
 30
0.0
 11
123.632
 21
29.8772
 31
0.0
  0
LINE
  8
0
 62
     0
 10
123.632
 20
29.8772
 30
0.0
 11
124.431
 21
29.8772
 31
0.0
  0
LINE
  8
0
 62
     0
 10
124.431
 20
29.8772
 30
0.0
 11
124.431
 21
32.9778
 31
0.0
  0
LINE
  8
0
 62
     0
 10
124.431
 20
32.9778
 30
0.0
 11
123.632
 21
32.9778
 31
0.0
  0
LINE
  8
0
 62
     0
 10
123.632
 20
32.9778
 30
0.0
 11
123.632
 21
38.778
 31
0.0
  0
LINE
  8
0
 62
     0
 10
123.632
 20
38.778
 30
0.0
 11
124.431
 21
38.778
 31
0.0
  0
LINE
  8
0
 62
     0
 10
124.431
 20
38.778
 30
0.0
 11
124.431
 21
41.8772
 31
0.0
  0
LINE
  8
0
 62
     0
 10
124.431
 20
41.8772
 30
0.0
 11
123.632
 21
41.8772
 31
0.0
  0
LINE
  8
0
 62
     0
 10
123.632
 20
41.8772
 30
0.0
 11
123.632
 21
42.8777
 31
0.0
  0
LINE
  8
0
 62
     0
 10
123.632
 20
42.8777
 30
0.0
 11
109.633
 21
42.8777
 31
0.0
  0
LINE
  8
0
 62
     0
 10
90.5827
 20
42.8777
 30
0.0
 11
90.5827
 21
41.8772
 31
0.0
  0
LINE
  8
0
 62
     0
 10
90.5827
 20
41.8772
 30
0.0
 11
89.7819
 21
41.8772
 31
0.0
  0
LINE
  8
0
 62
     0
 10
89.7819
 20
41.8772
 30
0.0
 11
89.7819
 21
38.778
 31
0.0
  0
LINE
  8
0
 62
     0
 10
89.7819
 20
38.778
 30
0.0
 11
90.5827
 21
38.778
 31
0.0
  0
LINE
  8
0
 62
     0
 10
90.5827
 20
38.778
 30
0.0
 11
90.5827
 21
32.9778
 31
0.0
  0
LINE
  8
0
 62
     0
 10
90.5827
 20
32.9778
 30
0.0
 11
89.7819
 21
32.9778
 31
0.0
  0
LINE
  8
0
 62
     0
 10
89.7819
 20
32.9778
 30
0.0
 11
89.7819
 21
29.8772
 31
0.0
  0
LINE
  8
0
 62
     0
 10
89.7819
 20
29.8772
 30
0.0
 11
90.5827
 21
29.8772
 31
0.0
  0
LINE
  8
0
 62
     0
 10
90.5827
 20
29.8772
 30
0.0
 11
90.5827
 21
28.8782
 31
0.0
  0
LINE
  8
0
 62
     0
 10
90.5827
 20
28.8782
 30
0.0
 11
104.582
 21
28.8782
 31
0.0
  0
LINE
  8
0
 62
     0
 10
104.582
 20
28.8782
 30
0.0
 11
104.582
 21
29.8772
 31
0.0
  0
LINE
  8
0
 62
     0
 10
104.582
 20
29.8772
 30
0.0
 11
105.383
 21
29.8772
 31
0.0
  0
LINE
  8
0
 62
     0
 10
105.383
 20
29.8772
 30
0.0
 11
105.383
 21
32.9778
 31
0.0
  0
LINE
  8
0
 62
     0
 10
105.383
 20
32.9778
 30
0.0
 11
104.582
 21
32.9778
 31
0.0
  0
LINE
  8
0
 62
     0
 10
104.582
 20
32.9778
 30
0.0
 11
104.582
 21
38.778
 31
0.0
  0
LINE
  8
0
 62
     0
 10
104.582
 20
38.778
 30
0.0
 11
105.383
 21
38.778
 31
0.0
  0
LINE
  8
0
 62
     0
 10
105.383
 20
38.778
 30
0.0
 11
105.383
 21
41.8772
 31
0.0
  0
LINE
  8
0
 62
     0
 10
105.383
 20
41.8772
 30
0.0
 11
104.582
 21
41.8772
 31
0.0
  0
LINE
  8
0
 62
     0
 10
104.582
 20
41.8772
 30
0.0
 11
104.582
 21
42.8777
 31
0.0
  0
LINE
  8
0
 62
     0
 10
104.582
 20
42.8777
 30
0.0
 11
90.5827
 21
42.8777
 31
0.0
  0
LINE
  8
0
 62
     0
 10
71.5328
 20
42.8777
 30
0.0
 11
71.5328
 21
41.8772
 31
0.0
  0
LINE
  8
0
 62
     0
 10
71.5328
 20
41.8772
 30
0.0
 11
70.7319
 21
41.8772
 31
0.0
  0
LINE
  8
0
 62
     0
 10
70.7319
 20
41.8772
 30
0.0
 11
70.7319
 21
38.778
 31
0.0
  0
LINE
  8
0
 62
     0
 10
70.7319
 20
38.778
 30
0.0
 11
71.5328
 21
38.778
 31
0.0
  0
LINE
  8
0
 62
     0
 10
71.5328
 20
38.778
 30
0.0
 11
71.5328
 21
32.9778
 31
0.0
  0
LINE
  8
0
 62
     0
 10
71.5328
 20
32.9778
 30
0.0
 11
70.7319
 21
32.9778
 31
0.0
  0
LINE
  8
0
 62
     0
 10
70.7319
 20
32.9778
 30
0.0
 11
70.7319
 21
29.8772
 31
0.0
  0
LINE
  8
0
 62
     0
 10
70.7319
 20
29.8772
 30
0.0
 11
71.5328
 21
29.8772
 31
0.0
  0
LINE
  8
0
 62
     0
 10
71.5328
 20
29.8772
 30
0.0
 11
71.5328
 21
28.8782
 31
0.0
  0
LINE
  8
0
 62
     0
 10
71.5328
 20
28.8782
 30
0.0
 11
85.532
 21
28.8782
 31
0.0
  0
LINE
  8
0
 62
     0
 10
85.532
 20
28.8782
 30
0.0
 11
85.532
 21
29.8772
 31
0.0
  0
LINE
  8
0
 62
     0
 10
85.532
 20
29.8772
 30
0.0
 11
86.3328
 21
29.8772
 31
0.0
  0
LINE
  8
0
 62
     0
 10
86.3328
 20
29.8772
 30
0.0
 11
86.3328
 21
32.9778
 31
0.0
  0
LINE
  8
0
 62
     0
 10
86.3328
 20
32.9778
 30
0.0
 11
85.532
 21
32.9778
 31
0.0
  0
LINE
  8
0
 62
     0
 10
85.532
 20
32.9778
 30
0.0
 11
85.532
 21
38.778
 31
0.0
  0
LINE
  8
0
 62
     0
 10
85.532
 20
38.778
 30
0.0
 11
86.3328
 21
38.778
 31
0.0
  0
LINE
  8
0
 62
     0
 10
86.3328
 20
38.778
 30
0.0
 11
86.3328
 21
41.8772
 31
0.0
  0
LINE
  8
0
 62
     0
 10
86.3328
 20
41.8772
 30
0.0
 11
85.532
 21
41.8772
 31
0.0
  0
LINE
  8
0
 62
     0
 10
85.532
 20
41.8772
 30
0.0
 11
85.532
 21
42.8777
 31
0.0
  0
LINE
  8
0
 62
     0
 10
85.532
 20
42.8777
 30
0.0
 11
71.5328
 21
42.8777
 31
0.0
  0
LINE
  8
0
 62
     0
 10
52.4828
 20
42.8777
 30
0.0
 11
52.4828
 21
41.8772
 31
0.0
  0
LINE
  8
0
 62
     0
 10
52.4828
 20
41.8772
 30
0.0
 11
51.6819
 21
41.8772
 31
0.0
  0
LINE
  8
0
 62
     0
 10
51.6819
 20
41.8772
 30
0.0
 11
51.6819
 21
38.778
 31
0.0
  0
LINE
  8
0
 62
     0
 10
51.6819
 20
38.778
 30
0.0
 11
52.4828
 21
38.778
 31
0.0
  0
LINE
  8
0
 62
     0
 10
52.4828
 20
38.778
 30
0.0
 11
52.4828
 21
32.9778
 31
0.0
  0
LINE
  8
0
 62
     0
 10
52.4828
 20
32.9778
 30
0.0
 11
51.6819
 21
32.9778
 31
0.0
  0
LINE
  8
0
 62
     0
 10
51.6819
 20
32.9778
 30
0.0
 11
51.6819
 21
29.8772
 31
0.0
  0
LINE
  8
0
 62
     0
 10
51.6819
 20
29.8772
 30
0.0
 11
52.4828
 21
29.8772
 31
0.0
  0
LINE
  8
0
 62
     0
 10
52.4828
 20
29.8772
 30
0.0
 11
52.4828
 21
28.8782
 31
0.0
  0
LINE
  8
0
 62
     0
 10
52.4828
 20
28.8782
 30
0.0
 11
66.482
 21
28.8782
 31
0.0
  0
LINE
  8
0
 62
     0
 10
66.482
 20
28.8782
 30
0.0
 11
66.482
 21
29.8772
 31
0.0
  0
LINE
  8
0
 62
     0
 10
66.482
 20
29.8772
 30
0.0
 11
67.2828
 21
29.8772
 31
0.0
  0
LINE
  8
0
 62
     0
 10
67.2828
 20
29.8772
 30
0.0
 11
67.2828
 21
32.9778
 31
0.0
  0
LINE
  8
0
 62
     0
 10
67.2828
 20
32.9778
 30
0.0
 11
66.482
 21
32.9778
 31
0.0
  0
LINE
  8
0
 62
     0
 10
66.482
 20
32.9778
 30
0.0
 11
66.482
 21
38.778
 31
0.0
  0
LINE
  8
0
 62
     0
 10
66.482
 20
38.778
 30
0.0
 11
67.2828
 21
38.778
 31
0.0
  0
LINE
  8
0
 62
     0
 10
67.2828
 20
38.778
 30
0.0
 11
67.2828
 21
41.8772
 31
0.0
  0
LINE
  8
0
 62
     0
 10
67.2828
 20
41.8772
 30
0.0
 11
66.482
 21
41.8772
 31
0.0
  0
LINE
  8
0
 62
     0
 10
66.482
 20
41.8772
 30
0.0
 11
66.482
 21
42.8777
 31
0.0
  0
LINE
  8
0
 62
     0
 10
66.482
 20
42.8777
 30
0.0
 11
52.4828
 21
42.8777
 31
0.0
  0
LINE
  8
0
 62
     0
 10
264.414
 20
61.9277
 30
0.0
 11
264.414
 21
60.9272
 31
0.0
  0
LINE
  8
0
 62
     0
 10
264.414
 20
60.9272
 30
0.0
 11
263.613
 21
60.9272
 31
0.0
  0
LINE
  8
0
 62
     0
 10
263.613
 20
60.9272
 30
0.0
 11
263.613
 21
57.828
 31
0.0
  0
LINE
  8
0
 62
     0
 10
263.613
 20
57.828
 30
0.0
 11
264.414
 21
57.828
 31
0.0
  0
LINE
  8
0
 62
     0
 10
264.414
 20
57.828
 30
0.0
 11
264.414
 21
57.2273
 31
0.0
  0
LINE
  8
0
 62
     0
 10
264.414
 20
57.2273
 30
0.0
 11
262.888
 21
57.2273
 31
0.0
  0
LINE
  8
0
 62
     0
 10
262.888
 20
57.2273
 30
0.0
 11
262.888
 21
60.4573
 31
0.0
  0
LINE
  8
0
 62
     0
 10
262.888
 20
60.4573
 30
0.0
 11
261.163
 21
60.4573
 31
0.0
  0
LINE
  8
0
 62
     0
 10
261.163
 20
60.4573
 30
0.0
 11
261.163
 21
61.3777
 31
0.0
  0
LINE
  8
0
 62
     0
 10
261.163
 20
61.3777
 30
0.0
 11
257.864
 21
61.3777
 31
0.0
  0
LINE
  8
0
 62
     0
 10
257.864
 20
61.3777
 30
0.0
 11
257.864
 21
60.4573
 31
0.0
  0
LINE
  8
0
 62
     0
 10
257.864
 20
60.4573
 30
0.0
 11
256.139
 21
60.4573
 31
0.0
  0
LINE
  8
0
 62
     0
 10
256.139
 20
60.4573
 30
0.0
 11
256.139
 21
57.2273
 31
0.0
  0
LINE
  8
0
 62
     0
 10
256.139
 20
57.2273
 30
0.0
 11
255.313
 21
57.2273
 31
0.0
  0
LINE
  8
0
 62
     0
 10
255.313
 20
57.2273
 30
0.0
 11
255.313
 21
54.4283
 31
0.0
  0
LINE
  8
0
 62
     0
 10
255.313
 20
54.4283
 30
0.0
 11
256.139
 21
54.4283
 31
0.0
  0
LINE
  8
0
 62
     0
 10
256.139
 20
54.4283
 30
0.0
 11
256.139
 21
48.1584
 31
0.0
  0
LINE
  8
0
 62
     0
 10
256.139
 20
48.1584
 30
0.0
 11
257.864
 21
48.1584
 31
0.0
  0
LINE
  8
0
 62
     0
 10
257.864
 20
48.1584
 30
0.0
 11
257.864
 21
47.1784
 31
0.0
  0
LINE
  8
0
 62
     0
 10
257.864
 20
47.1784
 30
0.0
 11
261.163
 21
47.1784
 31
0.0
  0
LINE
  8
0
 62
     0
 10
261.163
 20
47.1784
 30
0.0
 11
261.163
 21
48.1584
 31
0.0
  0
LINE
  8
0
 62
     0
 10
261.163
 20
48.1584
 30
0.0
 11
262.888
 21
48.1584
 31
0.0
  0
LINE
  8
0
 62
     0
 10
262.888
 20
48.1584
 30
0.0
 11
262.888
 21
52.6274
 31
0.0
  0
LINE
  8
0
 62
     0
 10
262.888
 20
52.6274
 30
0.0
 11
264.414
 21
52.6274
 31
0.0
  0
LINE
  8
0
 62
     0
 10
264.414
 20
52.6274
 30
0.0
 11
264.414
 21
52.0277
 31
0.0
  0
LINE
  8
0
 62
     0
 10
264.414
 20
52.0277
 30
0.0
 11
263.613
 21
52.0277
 31
0.0
  0
LINE
  8
0
 62
     0
 10
263.613
 20
52.0277
 30
0.0
 11
263.613
 21
48.9271
 31
0.0
  0
LINE
  8
0
 62
     0
 10
263.613
 20
48.9271
 30
0.0
 11
264.414
 21
48.9271
 31
0.0
  0
LINE
  8
0
 62
     0
 10
264.414
 20
48.9271
 30
0.0
 11
264.414
 21
47.928
 31
0.0
  0
LINE
  8
0
 62
     0
 10
264.414
 20
47.928
 30
0.0
 11
278.413
 21
47.928
 31
0.0
  0
LINE
  8
0
 62
     0
 10
278.413
 20
47.928
 30
0.0
 11
278.413
 21
48.9271
 31
0.0
  0
LINE
  8
0
 62
     0
 10
278.413
 20
48.9271
 30
0.0
 11
279.214
 21
48.9271
 31
0.0
  0
LINE
  8
0
 62
     0
 10
279.214
 20
48.9271
 30
0.0
 11
279.214
 21
52.0277
 31
0.0
  0
LINE
  8
0
 62
     0
 10
279.214
 20
52.0277
 30
0.0
 11
278.413
 21
52.0277
 31
0.0
  0
LINE
  8
0
 62
     0
 10
278.413
 20
52.0277
 30
0.0
 11
278.413
 21
52.6274
 31
0.0
  0
LINE
  8
0
 62
     0
 10
278.413
 20
52.6274
 30
0.0
 11
279.939
 21
52.6274
 31
0.0
  0
LINE
  8
0
 62
     0
 10
279.939
 20
52.6274
 30
0.0
 11
279.939
 21
48.1584
 31
0.0
  0
LINE
  8
0
 62
     0
 10
279.939
 20
48.1584
 30
0.0
 11
281.664
 21
48.1584
 31
0.0
  0
LINE
  8
0
 62
     0
 10
281.664
 20
48.1584
 30
0.0
 11
281.664
 21
47.1784
 31
0.0
  0
LINE
  8
0
 62
     0
 10
281.664
 20
47.1784
 30
0.0
 11
284.963
 21
47.1784
 31
0.0
  0
LINE
  8
0
 62
     0
 10
284.963
 20
47.1784
 30
0.0
 11
284.963
 21
48.1584
 31
0.0
  0
LINE
  8
0
 62
     0
 10
284.963
 20
48.1584
 30
0.0
 11
286.688
 21
48.1584
 31
0.0
  0
LINE
  8
0
 62
     0
 10
286.688
 20
48.1584
 30
0.0
 11
286.688
 21
54.4283
 31
0.0
  0
LINE
  8
0
 62
     0
 10
286.688
 20
54.4283
 30
0.0
 11
287.514
 21
54.4283
 31
0.0
  0
LINE
  8
0
 62
     0
 10
287.514
 20
54.4283
 30
0.0
 11
287.514
 21
57.2273
 31
0.0
  0
LINE
  8
0
 62
     0
 10
287.514
 20
57.2273
 30
0.0
 11
286.688
 21
57.2273
 31
0.0
  0
LINE
  8
0
 62
     0
 10
286.688
 20
57.2273
 30
0.0
 11
286.688
 21
60.4573
 31
0.0
  0
LINE
  8
0
 62
     0
 10
286.688
 20
60.4573
 30
0.0
 11
284.963
 21
60.4573
 31
0.0
  0
LINE
  8
0
 62
     0
 10
284.963
 20
60.4573
 30
0.0
 11
284.963
 21
61.3777
 31
0.0
  0
LINE
  8
0
 62
     0
 10
284.963
 20
61.3777
 30
0.0
 11
281.664
 21
61.3777
 31
0.0
  0
LINE
  8
0
 62
     0
 10
281.664
 20
61.3777
 30
0.0
 11
281.664
 21
60.4573
 31
0.0
  0
LINE
  8
0
 62
     0
 10
281.664
 20
60.4573
 30
0.0
 11
279.939
 21
60.4573
 31
0.0
  0
LINE
  8
0
 62
     0
 10
279.939
 20
60.4573
 30
0.0
 11
279.939
 21
57.2273
 31
0.0
  0
LINE
  8
0
 62
     0
 10
279.939
 20
57.2273
 30
0.0
 11
278.413
 21
57.2273
 31
0.0
  0
LINE
  8
0
 62
     0
 10
278.413
 20
57.2273
 30
0.0
 11
278.413
 21
57.828
 31
0.0
  0
LINE
  8
0
 62
     0
 10
278.413
 20
57.828
 30
0.0
 11
279.214
 21
57.828
 31
0.0
  0
LINE
  8
0
 62
     0
 10
279.214
 20
57.828
 30
0.0
 11
279.214
 21
60.9272
 31
0.0
  0
LINE
  8
0
 62
     0
 10
279.214
 20
60.9272
 30
0.0
 11
278.413
 21
60.9272
 31
0.0
  0
LINE
  8
0
 62
     0
 10
278.413
 20
60.9272
 30
0.0
 11
278.413
 21
61.9277
 31
0.0
  0
LINE
  8
0
 62
     0
 10
278.413
 20
61.9277
 30
0.0
 11
264.414
 21
61.9277
 31
0.0
  0
LINE
  8
0
 62
     0
 10
295.37
 20
61.9277
 30
0.0
 11
295.37
 21
60.9272
 31
0.0
  0
LINE
  8
0
 62
     0
 10
295.37
 20
60.9272
 30
0.0
 11
294.571
 21
60.9272
 31
0.0
  0
LINE
  8
0
 62
     0
 10
294.571
 20
60.9272
 30
0.0
 11
294.571
 21
57.828
 31
0.0
  0
LINE
  8
0
 62
     0
 10
294.571
 20
57.828
 30
0.0
 11
295.37
 21
57.828
 31
0.0
  0
LINE
  8
0
 62
     0
 10
295.37
 20
57.828
 30
0.0
 11
295.37
 21
52.0277
 31
0.0
  0
LINE
  8
0
 62
     0
 10
295.37
 20
52.0277
 30
0.0
 11
294.571
 21
52.0277
 31
0.0
  0
LINE
  8
0
 62
     0
 10
294.571
 20
52.0277
 30
0.0
 11
294.571
 21
48.9271
 31
0.0
  0
LINE
  8
0
 62
     0
 10
294.571
 20
48.9271
 30
0.0
 11
295.37
 21
48.9271
 31
0.0
  0
LINE
  8
0
 62
     0
 10
295.37
 20
48.9271
 30
0.0
 11
295.37
 21
47.928
 31
0.0
  0
LINE
  8
0
 62
     0
 10
295.37
 20
47.928
 30
0.0
 11
309.371
 21
47.928
 31
0.0
  0
LINE
  8
0
 62
     0
 10
309.371
 20
47.928
 30
0.0
 11
309.371
 21
48.9271
 31
0.0
  0
LINE
  8
0
 62
     0
 10
309.371
 20
48.9271
 30
0.0
 11
310.17
 21
48.9271
 31
0.0
  0
LINE
  8
0
 62
     0
 10
310.17
 20
48.9271
 30
0.0
 11
310.17
 21
52.0277
 31
0.0
  0
LINE
  8
0
 62
     0
 10
310.17
 20
52.0277
 30
0.0
 11
309.371
 21
52.0277
 31
0.0
  0
LINE
  8
0
 62
     0
 10
309.371
 20
52.0277
 30
0.0
 11
309.371
 21
57.828
 31
0.0
  0
LINE
  8
0
 62
     0
 10
309.371
 20
57.828
 30
0.0
 11
310.17
 21
57.828
 31
0.0
  0
LINE
  8
0
 62
     0
 10
310.17
 20
57.828
 30
0.0
 11
310.17
 21
60.9272
 31
0.0
  0
LINE
  8
0
 62
     0
 10
310.17
 20
60.9272
 30
0.0
 11
309.371
 21
60.9272
 31
0.0
  0
LINE
  8
0
 62
     0
 10
309.371
 20
60.9272
 30
0.0
 11
309.371
 21
61.9277
 31
0.0
  0
LINE
  8
0
 62
     0
 10
309.371
 20
61.9277
 30
0.0
 11
295.37
 21
61.9277
 31
0.0
  0
LINE
  8
0
 62
     0
 10
233.458
 20
61.9277
 30
0.0
 11
233.458
 21
60.9272
 31
0.0
  0
LINE
  8
0
 62
     0
 10
233.458
 20
60.9272
 30
0.0
 11
232.657
 21
60.9272
 31
0.0
  0
LINE
  8
0
 62
     0
 10
232.657
 20
60.9272
 30
0.0
 11
232.657
 21
57.828
 31
0.0
  0
LINE
  8
0
 62
     0
 10
232.657
 20
57.828
 30
0.0
 11
233.458
 21
57.828
 31
0.0
  0
LINE
  8
0
 62
     0
 10
233.458
 20
57.828
 30
0.0
 11
233.458
 21
52.0277
 31
0.0
  0
LINE
  8
0
 62
     0
 10
233.458
 20
52.0277
 30
0.0
 11
232.657
 21
52.0277
 31
0.0
  0
LINE
  8
0
 62
     0
 10
232.657
 20
52.0277
 30
0.0
 11
232.657
 21
48.9271
 31
0.0
  0
LINE
  8
0
 62
     0
 10
232.657
 20
48.9271
 30
0.0
 11
233.458
 21
48.9271
 31
0.0
  0
LINE
  8
0
 62
     0
 10
233.458
 20
48.9271
 30
0.0
 11
233.458
 21
47.928
 31
0.0
  0
LINE
  8
0
 62
     0
 10
233.458
 20
47.928
 30
0.0
 11
247.457
 21
47.928
 31
0.0
  0
LINE
  8
0
 62
     0
 10
247.457
 20
47.928
 30
0.0
 11
247.457
 21
48.9271
 31
0.0
  0
LINE
  8
0
 62
     0
 10
247.457
 20
48.9271
 30
0.0
 11
248.258
 21
48.9271
 31
0.0
  0
LINE
  8
0
 62
     0
 10
248.258
 20
48.9271
 30
0.0
 11
248.258
 21
52.0277
 31
0.0
  0
LINE
  8
0
 62
     0
 10
248.258
 20
52.0277
 30
0.0
 11
247.457
 21
52.0277
 31
0.0
  0
LINE
  8
0
 62
     0
 10
247.457
 20
52.0277
 30
0.0
 11
247.457
 21
57.828
 31
0.0
  0
LINE
  8
0
 62
     0
 10
247.457
 20
57.828
 30
0.0
 11
248.258
 21
57.828
 31
0.0
  0
LINE
  8
0
 62
     0
 10
248.258
 20
57.828
 30
0.0
 11
248.258
 21
60.9272
 31
0.0
  0
LINE
  8
0
 62
     0
 10
248.258
 20
60.9272
 30
0.0
 11
247.457
 21
60.9272
 31
0.0
  0
LINE
  8
0
 62
     0
 10
247.457
 20
60.9272
 30
0.0
 11
247.457
 21
61.9277
 31
0.0
  0
LINE
  8
0
 62
     0
 10
247.457
 20
61.9277
 30
0.0
 11
233.458
 21
61.9277
 31
0.0
  0
LINE
  8
0
 62
     0
 10
214.408
 20
61.9277
 30
0.0
 11
214.408
 21
60.9272
 31
0.0
  0
LINE
  8
0
 62
     0
 10
214.408
 20
60.9272
 30
0.0
 11
213.607
 21
60.9272
 31
0.0
  0
LINE
  8
0
 62
     0
 10
213.607
 20
60.9272
 30
0.0
 11
213.607
 21
57.828
 31
0.0
  0
LINE
  8
0
 62
     0
 10
213.607
 20
57.828
 30
0.0
 11
214.408
 21
57.828
 31
0.0
  0
LINE
  8
0
 62
     0
 10
214.408
 20
57.828
 30
0.0
 11
214.408
 21
52.0277
 31
0.0
  0
LINE
  8
0
 62
     0
 10
214.408
 20
52.0277
 30
0.0
 11
213.607
 21
52.0277
 31
0.0
  0
LINE
  8
0
 62
     0
 10
213.607
 20
52.0277
 30
0.0
 11
213.607
 21
48.9271
 31
0.0
  0
LINE
  8
0
 62
     0
 10
213.607
 20
48.9271
 30
0.0
 11
214.408
 21
48.9271
 31
0.0
  0
LINE
  8
0
 62
     0
 10
214.408
 20
48.9271
 30
0.0
 11
214.408
 21
47.928
 31
0.0
  0
LINE
  8
0
 62
     0
 10
214.408
 20
47.928
 30
0.0
 11
228.407
 21
47.928
 31
0.0
  0
LINE
  8
0
 62
     0
 10
228.407
 20
47.928
 30
0.0
 11
228.407
 21
48.9271
 31
0.0
  0
LINE
  8
0
 62
     0
 10
228.407
 20
48.9271
 30
0.0
 11
229.208
 21
48.9271
 31
0.0
  0
LINE
  8
0
 62
     0
 10
229.208
 20
48.9271
 30
0.0
 11
229.208
 21
52.0277
 31
0.0
  0
LINE
  8
0
 62
     0
 10
229.208
 20
52.0277
 30
0.0
 11
228.407
 21
52.0277
 31
0.0
  0
LINE
  8
0
 62
     0
 10
228.407
 20
52.0277
 30
0.0
 11
228.407
 21
57.828
 31
0.0
  0
LINE
  8
0
 62
     0
 10
228.407
 20
57.828
 30
0.0
 11
229.208
 21
57.828
 31
0.0
  0
LINE
  8
0
 62
     0
 10
229.208
 20
57.828
 30
0.0
 11
229.208
 21
60.9272
 31
0.0
  0
LINE
  8
0
 62
     0
 10
229.208
 20
60.9272
 30
0.0
 11
228.407
 21
60.9272
 31
0.0
  0
LINE
  8
0
 62
     0
 10
228.407
 20
60.9272
 30
0.0
 11
228.407
 21
61.9277
 31
0.0
  0
LINE
  8
0
 62
     0
 10
228.407
 20
61.9277
 30
0.0
 11
214.408
 21
61.9277
 31
0.0
  0
LINE
  8
0
 62
     0
 10
195.358
 20
61.9277
 30
0.0
 11
195.358
 21
60.9272
 31
0.0
  0
LINE
  8
0
 62
     0
 10
195.358
 20
60.9272
 30
0.0
 11
194.557
 21
60.9272
 31
0.0
  0
LINE
  8
0
 62
     0
 10
194.557
 20
60.9272
 30
0.0
 11
194.557
 21
57.828
 31
0.0
  0
LINE
  8
0
 62
     0
 10
194.557
 20
57.828
 30
0.0
 11
195.358
 21
57.828
 31
0.0
  0
LINE
  8
0
 62
     0
 10
195.358
 20
57.828
 30
0.0
 11
195.358
 21
52.0277
 31
0.0
  0
LINE
  8
0
 62
     0
 10
195.358
 20
52.0277
 30
0.0
 11
194.557
 21
52.0277
 31
0.0
  0
LINE
  8
0
 62
     0
 10
194.557
 20
52.0277
 30
0.0
 11
194.557
 21
48.9271
 31
0.0
  0
LINE
  8
0
 62
     0
 10
194.557
 20
48.9271
 30
0.0
 11
195.358
 21
48.9271
 31
0.0
  0
LINE
  8
0
 62
     0
 10
195.358
 20
48.9271
 30
0.0
 11
195.358
 21
47.928
 31
0.0
  0
LINE
  8
0
 62
     0
 10
195.358
 20
47.928
 30
0.0
 11
209.357
 21
47.928
 31
0.0
  0
LINE
  8
0
 62
     0
 10
209.357
 20
47.928
 30
0.0
 11
209.357
 21
48.9271
 31
0.0
  0
LINE
  8
0
 62
     0
 10
209.357
 20
48.9271
 30
0.0
 11
210.158
 21
48.9271
 31
0.0
  0
LINE
  8
0
 62
     0
 10
210.158
 20
48.9271
 30
0.0
 11
210.158
 21
52.0277
 31
0.0
  0
LINE
  8
0
 62
     0
 10
210.158
 20
52.0277
 30
0.0
 11
209.357
 21
52.0277
 31
0.0
  0
LINE
  8
0
 62
     0
 10
209.357
 20
52.0277
 30
0.0
 11
209.357
 21
57.828
 31
0.0
  0
LINE
  8
0
 62
     0
 10
209.357
 20
57.828
 30
0.0
 11
210.158
 21
57.828
 31
0.0
  0
LINE
  8
0
 62
     0
 10
210.158
 20
57.828
 30
0.0
 11
210.158
 21
60.9272
 31
0.0
  0
LINE
  8
0
 62
     0
 10
210.158
 20
60.9272
 30
0.0
 11
209.357
 21
60.9272
 31
0.0
  0
LINE
  8
0
 62
     0
 10
209.357
 20
60.9272
 30
0.0
 11
209.357
 21
61.9277
 31
0.0
  0
LINE
  8
0
 62
     0
 10
209.357
 20
61.9277
 30
0.0
 11
195.358
 21
61.9277
 31
0.0
  0
LINE
  8
0
 62
     0
 10
176.308
 20
61.9277
 30
0.0
 11
176.308
 21
60.9272
 31
0.0
  0
LINE
  8
0
 62
     0
 10
176.308
 20
60.9272
 30
0.0
 11
175.507
 21
60.9272
 31
0.0
  0
LINE
  8
0
 62
     0
 10
175.507
 20
60.9272
 30
0.0
 11
175.507
 21
57.828
 31
0.0
  0
LINE
  8
0
 62
     0
 10
175.507
 20
57.828
 30
0.0
 11
176.308
 21
57.828
 31
0.0
  0
LINE
  8
0
 62
     0
 10
176.308
 20
57.828
 30
0.0
 11
176.308
 21
52.0277
 31
0.0
  0
LINE
  8
0
 62
     0
 10
176.308
 20
52.0277
 30
0.0
 11
175.507
 21
52.0277
 31
0.0
  0
LINE
  8
0
 62
     0
 10
175.507
 20
52.0277
 30
0.0
 11
175.507
 21
48.9271
 31
0.0
  0
LINE
  8
0
 62
     0
 10
175.507
 20
48.9271
 30
0.0
 11
176.308
 21
48.9271
 31
0.0
  0
LINE
  8
0
 62
     0
 10
176.308
 20
48.9271
 30
0.0
 11
176.308
 21
47.928
 31
0.0
  0
LINE
  8
0
 62
     0
 10
176.308
 20
47.928
 30
0.0
 11
190.307
 21
47.928
 31
0.0
  0
LINE
  8
0
 62
     0
 10
190.307
 20
47.928
 30
0.0
 11
190.307
 21
48.9271
 31
0.0
  0
LINE
  8
0
 62
     0
 10
190.307
 20
48.9271
 30
0.0
 11
191.108
 21
48.9271
 31
0.0
  0
LINE
  8
0
 62
     0
 10
191.108
 20
48.9271
 30
0.0
 11
191.108
 21
52.0277
 31
0.0
  0
LINE
  8
0
 62
     0
 10
191.108
 20
52.0277
 30
0.0
 11
190.307
 21
52.0277
 31
0.0
  0
LINE
  8
0
 62
     0
 10
190.307
 20
52.0277
 30
0.0
 11
190.307
 21
57.828
 31
0.0
  0
LINE
  8
0
 62
     0
 10
190.307
 20
57.828
 30
0.0
 11
191.108
 21
57.828
 31
0.0
  0
LINE
  8
0
 62
     0
 10
191.108
 20
57.828
 30
0.0
 11
191.108
 21
60.9272
 31
0.0
  0
LINE
  8
0
 62
     0
 10
191.108
 20
60.9272
 30
0.0
 11
190.307
 21
60.9272
 31
0.0
  0
LINE
  8
0
 62
     0
 10
190.307
 20
60.9272
 30
0.0
 11
190.307
 21
61.9277
 31
0.0
  0
LINE
  8
0
 62
     0
 10
190.307
 20
61.9277
 30
0.0
 11
176.308
 21
61.9277
 31
0.0
  0
LINE
  8
0
 62
     0
 10
157.258
 20
61.9277
 30
0.0
 11
157.258
 21
60.9272
 31
0.0
  0
LINE
  8
0
 62
     0
 10
157.258
 20
60.9272
 30
0.0
 11
156.457
 21
60.9272
 31
0.0
  0
LINE
  8
0
 62
     0
 10
156.457
 20
60.9272
 30
0.0
 11
156.457
 21
57.828
 31
0.0
  0
LINE
  8
0
 62
     0
 10
156.457
 20
57.828
 30
0.0
 11
157.258
 21
57.828
 31
0.0
  0
LINE
  8
0
 62
     0
 10
157.258
 20
57.828
 30
0.0
 11
157.258
 21
52.0277
 31
0.0
  0
LINE
  8
0
 62
     0
 10
157.258
 20
52.0277
 30
0.0
 11
156.457
 21
52.0277
 31
0.0
  0
LINE
  8
0
 62
     0
 10
156.457
 20
52.0277
 30
0.0
 11
156.457
 21
48.9271
 31
0.0
  0
LINE
  8
0
 62
     0
 10
156.457
 20
48.9271
 30
0.0
 11
157.258
 21
48.9271
 31
0.0
  0
LINE
  8
0
 62
     0
 10
157.258
 20
48.9271
 30
0.0
 11
157.258
 21
47.928
 31
0.0
  0
LINE
  8
0
 62
     0
 10
157.258
 20
47.928
 30
0.0
 11
171.257
 21
47.928
 31
0.0
  0
LINE
  8
0
 62
     0
 10
171.257
 20
47.928
 30
0.0
 11
171.257
 21
48.9271
 31
0.0
  0
LINE
  8
0
 62
     0
 10
171.257
 20
48.9271
 30
0.0
 11
172.058
 21
48.9271
 31
0.0
  0
LINE
  8
0
 62
     0
 10
172.058
 20
48.9271
 30
0.0
 11
172.058
 21
52.0277
 31
0.0
  0
LINE
  8
0
 62
     0
 10
172.058
 20
52.0277
 30
0.0
 11
171.257
 21
52.0277
 31
0.0
  0
LINE
  8
0
 62
     0
 10
171.257
 20
52.0277
 30
0.0
 11
171.257
 21
57.828
 31
0.0
  0
LINE
  8
0
 62
     0
 10
171.257
 20
57.828
 30
0.0
 11
172.058
 21
57.828
 31
0.0
  0
LINE
  8
0
 62
     0
 10
172.058
 20
57.828
 30
0.0
 11
172.058
 21
60.9272
 31
0.0
  0
LINE
  8
0
 62
     0
 10
172.058
 20
60.9272
 30
0.0
 11
171.257
 21
60.9272
 31
0.0
  0
LINE
  8
0
 62
     0
 10
171.257
 20
60.9272
 30
0.0
 11
171.257
 21
61.9277
 31
0.0
  0
LINE
  8
0
 62
     0
 10
171.257
 20
61.9277
 30
0.0
 11
157.258
 21
61.9277
 31
0.0
  0
LINE
  8
0
 62
     0
 10
138.208
 20
61.9277
 30
0.0
 11
138.208
 21
60.9272
 31
0.0
  0
LINE
  8
0
 62
     0
 10
138.208
 20
60.9272
 30
0.0
 11
137.407
 21
60.9272
 31
0.0
  0
LINE
  8
0
 62
     0
 10
137.407
 20
60.9272
 30
0.0
 11
137.407
 21
57.828
 31
0.0
  0
LINE
  8
0
 62
     0
 10
137.407
 20
57.828
 30
0.0
 11
138.208
 21
57.828
 31
0.0
  0
LINE
  8
0
 62
     0
 10
138.208
 20
57.828
 30
0.0
 11
138.208
 21
52.0277
 31
0.0
  0
LINE
  8
0
 62
     0
 10
138.208
 20
52.0277
 30
0.0
 11
137.407
 21
52.0277
 31
0.0
  0
LINE
  8
0
 62
     0
 10
137.407
 20
52.0277
 30
0.0
 11
137.407
 21
48.9271
 31
0.0
  0
LINE
  8
0
 62
     0
 10
137.407
 20
48.9271
 30
0.0
 11
138.208
 21
48.9271
 31
0.0
  0
LINE
  8
0
 62
     0
 10
138.208
 20
48.9271
 30
0.0
 11
138.208
 21
47.928
 31
0.0
  0
LINE
  8
0
 62
     0
 10
138.208
 20
47.928
 30
0.0
 11
152.207
 21
47.928
 31
0.0
  0
LINE
  8
0
 62
     0
 10
152.207
 20
47.928
 30
0.0
 11
152.207
 21
48.9271
 31
0.0
  0
LINE
  8
0
 62
     0
 10
152.207
 20
48.9271
 30
0.0
 11
153.008
 21
48.9271
 31
0.0
  0
LINE
  8
0
 62
     0
 10
153.008
 20
48.9271
 30
0.0
 11
153.008
 21
52.0277
 31
0.0
  0
LINE
  8
0
 62
     0
 10
153.008
 20
52.0277
 30
0.0
 11
152.207
 21
52.0277
 31
0.0
  0
LINE
  8
0
 62
     0
 10
152.207
 20
52.0277
 30
0.0
 11
152.207
 21
57.828
 31
0.0
  0
LINE
  8
0
 62
     0
 10
152.207
 20
57.828
 30
0.0
 11
153.008
 21
57.828
 31
0.0
  0
LINE
  8
0
 62
     0
 10
153.008
 20
57.828
 30
0.0
 11
153.008
 21
60.9272
 31
0.0
  0
LINE
  8
0
 62
     0
 10
153.008
 20
60.9272
 30
0.0
 11
152.207
 21
60.9272
 31
0.0
  0
LINE
  8
0
 62
     0
 10
152.207
 20
60.9272
 30
0.0
 11
152.207
 21
61.9277
 31
0.0
  0
LINE
  8
0
 62
     0
 10
152.207
 20
61.9277
 30
0.0
 11
138.208
 21
61.9277
 31
0.0
  0
LINE
  8
0
 62
     0
 10
119.158
 20
61.9277
 30
0.0
 11
119.158
 21
60.9272
 31
0.0
  0
LINE
  8
0
 62
     0
 10
119.158
 20
60.9272
 30
0.0
 11
118.357
 21
60.9272
 31
0.0
  0
LINE
  8
0
 62
     0
 10
118.357
 20
60.9272
 30
0.0
 11
118.357
 21
57.828
 31
0.0
  0
LINE
  8
0
 62
     0
 10
118.357
 20
57.828
 30
0.0
 11
119.158
 21
57.828
 31
0.0
  0
LINE
  8
0
 62
     0
 10
119.158
 20
57.828
 30
0.0
 11
119.158
 21
52.0277
 31
0.0
  0
LINE
  8
0
 62
     0
 10
119.158
 20
52.0277
 30
0.0
 11
118.357
 21
52.0277
 31
0.0
  0
LINE
  8
0
 62
     0
 10
118.357
 20
52.0277
 30
0.0
 11
118.357
 21
48.9271
 31
0.0
  0
LINE
  8
0
 62
     0
 10
118.357
 20
48.9271
 30
0.0
 11
119.158
 21
48.9271
 31
0.0
  0
LINE
  8
0
 62
     0
 10
119.158
 20
48.9271
 30
0.0
 11
119.158
 21
47.928
 31
0.0
  0
LINE
  8
0
 62
     0
 10
119.158
 20
47.928
 30
0.0
 11
133.157
 21
47.928
 31
0.0
  0
LINE
  8
0
 62
     0
 10
133.157
 20
47.928
 30
0.0
 11
133.157
 21
48.9271
 31
0.0
  0
LINE
  8
0
 62
     0
 10
133.157
 20
48.9271
 30
0.0
 11
133.958
 21
48.9271
 31
0.0
  0
LINE
  8
0
 62
     0
 10
133.958
 20
48.9271
 30
0.0
 11
133.958
 21
52.0277
 31
0.0
  0
LINE
  8
0
 62
     0
 10
133.958
 20
52.0277
 30
0.0
 11
133.157
 21
52.0277
 31
0.0
  0
LINE
  8
0
 62
     0
 10
133.157
 20
52.0277
 30
0.0
 11
133.157
 21
57.828
 31
0.0
  0
LINE
  8
0
 62
     0
 10
133.157
 20
57.828
 30
0.0
 11
133.958
 21
57.828
 31
0.0
  0
LINE
  8
0
 62
     0
 10
133.958
 20
57.828
 30
0.0
 11
133.958
 21
60.9272
 31
0.0
  0
LINE
  8
0
 62
     0
 10
133.958
 20
60.9272
 30
0.0
 11
133.157
 21
60.9272
 31
0.0
  0
LINE
  8
0
 62
     0
 10
133.157
 20
60.9272
 30
0.0
 11
133.157
 21
61.9277
 31
0.0
  0
LINE
  8
0
 62
     0
 10
133.157
 20
61.9277
 30
0.0
 11
119.158
 21
61.9277
 31
0.0
  0
LINE
  8
0
 62
     0
 10
100.108
 20
61.9277
 30
0.0
 11
100.108
 21
60.9272
 31
0.0
  0
LINE
  8
0
 62
     0
 10
100.108
 20
60.9272
 30
0.0
 11
99.3069
 21
60.9272
 31
0.0
  0
LINE
  8
0
 62
     0
 10
99.3069
 20
60.9272
 30
0.0
 11
99.3069
 21
57.828
 31
0.0
  0
LINE
  8
0
 62
     0
 10
99.3069
 20
57.828
 30
0.0
 11
100.108
 21
57.828
 31
0.0
  0
LINE
  8
0
 62
     0
 10
100.108
 20
57.828
 30
0.0
 11
100.108
 21
52.0277
 31
0.0
  0
LINE
  8
0
 62
     0
 10
100.108
 20
52.0277
 30
0.0
 11
99.3069
 21
52.0277
 31
0.0
  0
LINE
  8
0
 62
     0
 10
99.3069
 20
52.0277
 30
0.0
 11
99.3069
 21
48.9271
 31
0.0
  0
LINE
  8
0
 62
     0
 10
99.3069
 20
48.9271
 30
0.0
 11
100.108
 21
48.9271
 31
0.0
  0
LINE
  8
0
 62
     0
 10
100.108
 20
48.9271
 30
0.0
 11
100.108
 21
47.928
 31
0.0
  0
LINE
  8
0
 62
     0
 10
100.108
 20
47.928
 30
0.0
 11
114.107
 21
47.928
 31
0.0
  0
LINE
  8
0
 62
     0
 10
114.107
 20
47.928
 30
0.0
 11
114.107
 21
48.9271
 31
0.0
  0
LINE
  8
0
 62
     0
 10
114.107
 20
48.9271
 30
0.0
 11
114.908
 21
48.9271
 31
0.0
  0
LINE
  8
0
 62
     0
 10
114.908
 20
48.9271
 30
0.0
 11
114.908
 21
52.0277
 31
0.0
  0
LINE
  8
0
 62
     0
 10
114.908
 20
52.0277
 30
0.0
 11
114.107
 21
52.0277
 31
0.0
  0
LINE
  8
0
 62
     0
 10
114.107
 20
52.0277
 30
0.0
 11
114.107
 21
57.828
 31
0.0
  0
LINE
  8
0
 62
     0
 10
114.107
 20
57.828
 30
0.0
 11
114.908
 21
57.828
 31
0.0
  0
LINE
  8
0
 62
     0
 10
114.908
 20
57.828
 30
0.0
 11
114.908
 21
60.9272
 31
0.0
  0
LINE
  8
0
 62
     0
 10
114.908
 20
60.9272
 30
0.0
 11
114.107
 21
60.9272
 31
0.0
  0
LINE
  8
0
 62
     0
 10
114.107
 20
60.9272
 30
0.0
 11
114.107
 21
61.9277
 31
0.0
  0
LINE
  8
0
 62
     0
 10
114.107
 20
61.9277
 30
0.0
 11
100.108
 21
61.9277
 31
0.0
  0
LINE
  8
0
 62
     0
 10
81.0578
 20
61.9277
 30
0.0
 11
81.0578
 21
60.9272
 31
0.0
  0
LINE
  8
0
 62
     0
 10
81.0578
 20
60.9272
 30
0.0
 11
80.2569
 21
60.9272
 31
0.0
  0
LINE
  8
0
 62
     0
 10
80.2569
 20
60.9272
 30
0.0
 11
80.2569
 21
57.828
 31
0.0
  0
LINE
  8
0
 62
     0
 10
80.2569
 20
57.828
 30
0.0
 11
81.0578
 21
57.828
 31
0.0
  0
LINE
  8
0
 62
     0
 10
81.0578
 20
57.828
 30
0.0
 11
81.0578
 21
52.0277
 31
0.0
  0
LINE
  8
0
 62
     0
 10
81.0578
 20
52.0277
 30
0.0
 11
80.2569
 21
52.0277
 31
0.0
  0
LINE
  8
0
 62
     0
 10
80.2569
 20
52.0277
 30
0.0
 11
80.2569
 21
48.9271
 31
0.0
  0
LINE
  8
0
 62
     0
 10
80.2569
 20
48.9271
 30
0.0
 11
81.0578
 21
48.9271
 31
0.0
  0
LINE
  8
0
 62
     0
 10
81.0578
 20
48.9271
 30
0.0
 11
81.0578
 21
47.928
 31
0.0
  0
LINE
  8
0
 62
     0
 10
81.0578
 20
47.928
 30
0.0
 11
95.057
 21
47.928
 31
0.0
  0
LINE
  8
0
 62
     0
 10
95.057
 20
47.928
 30
0.0
 11
95.057
 21
48.9271
 31
0.0
  0
LINE
  8
0
 62
     0
 10
95.057
 20
48.9271
 30
0.0
 11
95.8578
 21
48.9271
 31
0.0
  0
LINE
  8
0
 62
     0
 10
95.8578
 20
48.9271
 30
0.0
 11
95.8578
 21
52.0277
 31
0.0
  0
LINE
  8
0
 62
     0
 10
95.8578
 20
52.0277
 30
0.0
 11
95.057
 21
52.0277
 31
0.0
  0
LINE
  8
0
 62
     0
 10
95.057
 20
52.0277
 30
0.0
 11
95.057
 21
57.828
 31
0.0
  0
LINE
  8
0
 62
     0
 10
95.057
 20
57.828
 30
0.0
 11
95.8578
 21
57.828
 31
0.0
  0
LINE
  8
0
 62
     0
 10
95.8578
 20
57.828
 30
0.0
 11
95.8578
 21
60.9272
 31
0.0
  0
LINE
  8
0
 62
     0
 10
95.8578
 20
60.9272
 30
0.0
 11
95.057
 21
60.9272
 31
0.0
  0
LINE
  8
0
 62
     0
 10
95.057
 20
60.9272
 30
0.0
 11
95.057
 21
61.9277
 31
0.0
  0
LINE
  8
0
 62
     0
 10
95.057
 20
61.9277
 30
0.0
 11
81.0578
 21
61.9277
 31
0.0
  0
LINE
  8
0
 62
     0
 10
62.0078
 20
61.9277
 30
0.0
 11
62.0078
 21
60.9272
 31
0.0
  0
LINE
  8
0
 62
     0
 10
62.0078
 20
60.9272
 30
0.0
 11
61.2069
 21
60.9272
 31
0.0
  0
LINE
  8
0
 62
     0
 10
61.2069
 20
60.9272
 30
0.0
 11
61.2069
 21
57.828
 31
0.0
  0
LINE
  8
0
 62
     0
 10
61.2069
 20
57.828
 30
0.0
 11
62.0078
 21
57.828
 31
0.0
  0
LINE
  8
0
 62
     0
 10
62.0078
 20
57.828
 30
0.0
 11
62.0078
 21
52.0277
 31
0.0
  0
LINE
  8
0
 62
     0
 10
62.0078
 20
52.0277
 30
0.0
 11
61.2069
 21
52.0277
 31
0.0
  0
LINE
  8
0
 62
     0
 10
61.2069
 20
52.0277
 30
0.0
 11
61.2069
 21
48.9271
 31
0.0
  0
LINE
  8
0
 62
     0
 10
61.2069
 20
48.9271
 30
0.0
 11
62.0078
 21
48.9271
 31
0.0
  0
LINE
  8
0
 62
     0
 10
62.0078
 20
48.9271
 30
0.0
 11
62.0078
 21
47.928
 31
0.0
  0
LINE
  8
0
 62
     0
 10
62.0078
 20
47.928
 30
0.0
 11
76.007
 21
47.928
 31
0.0
  0
LINE
  8
0
 62
     0
 10
76.007
 20
47.928
 30
0.0
 11
76.007
 21
48.9271
 31
0.0
  0
LINE
  8
0
 62
     0
 10
76.007
 20
48.9271
 30
0.0
 11
76.8078
 21
48.9271
 31
0.0
  0
LINE
  8
0
 62
     0
 10
76.8078
 20
48.9271
 30
0.0
 11
76.8078
 21
52.0277
 31
0.0
  0
LINE
  8
0
 62
     0
 10
76.8078
 20
52.0277
 30
0.0
 11
76.007
 21
52.0277
 31
0.0
  0
LINE
  8
0
 62
     0
 10
76.007
 20
52.0277
 30
0.0
 11
76.007
 21
57.828
 31
0.0
  0
LINE
  8
0
 62
     0
 10
76.007
 20
57.828
 30
0.0
 11
76.8078
 21
57.828
 31
0.0
  0
LINE
  8
0
 62
     0
 10
76.8078
 20
57.828
 30
0.0
 11
76.8078
 21
60.9272
 31
0.0
  0
LINE
  8
0
 62
     0
 10
76.8078
 20
60.9272
 30
0.0
 11
76.007
 21
60.9272
 31
0.0
  0
LINE
  8
0
 62
     0
 10
76.007
 20
60.9272
 30
0.0
 11
76.007
 21
61.9277
 31
0.0
  0
LINE
  8
0
 62
     0
 10
76.007
 20
61.9277
 30
0.0
 11
62.0078
 21
61.9277
 31
0.0
  0
LINE
  8
0
 62
     0
 10
42.9577
 20
61.9277
 30
0.0
 11
42.9577
 21
60.9272
 31
0.0
  0
LINE
  8
0
 62
     0
 10
42.9577
 20
60.9272
 30
0.0
 11
42.1569
 21
60.9272
 31
0.0
  0
LINE
  8
0
 62
     0
 10
42.1569
 20
60.9272
 30
0.0
 11
42.1569
 21
57.828
 31
0.0
  0
LINE
  8
0
 62
     0
 10
42.1569
 20
57.828
 30
0.0
 11
42.9577
 21
57.828
 31
0.0
  0
LINE
  8
0
 62
     0
 10
42.9577
 20
57.828
 30
0.0
 11
42.9577
 21
52.0277
 31
0.0
  0
LINE
  8
0
 62
     0
 10
42.9577
 20
52.0277
 30
0.0
 11
42.1569
 21
52.0277
 31
0.0
  0
LINE
  8
0
 62
     0
 10
42.1569
 20
52.0277
 30
0.0
 11
42.1569
 21
48.9271
 31
0.0
  0
LINE
  8
0
 62
     0
 10
42.1569
 20
48.9271
 30
0.0
 11
42.9577
 21
48.9271
 31
0.0
  0
LINE
  8
0
 62
     0
 10
42.9577
 20
48.9271
 30
0.0
 11
42.9577
 21
47.928
 31
0.0
  0
LINE
  8
0
 62
     0
 10
42.9577
 20
47.928
 30
0.0
 11
56.957
 21
47.928
 31
0.0
  0
LINE
  8
0
 62
     0
 10
56.957
 20
47.928
 30
0.0
 11
56.957
 21
48.9271
 31
0.0
  0
LINE
  8
0
 62
     0
 10
56.957
 20
48.9271
 30
0.0
 11
57.7578
 21
48.9271
 31
0.0
  0
LINE
  8
0
 62
     0
 10
57.7578
 20
48.9271
 30
0.0
 11
57.7578
 21
52.0277
 31
0.0
  0
LINE
  8
0
 62
     0
 10
57.7578
 20
52.0277
 30
0.0
 11
56.957
 21
52.0277
 31
0.0
  0
LINE
  8
0
 62
     0
 10
56.957
 20
52.0277
 30
0.0
 11
56.957
 21
57.828
 31
0.0
  0
LINE
  8
0
 62
     0
 10
56.957
 20
57.828
 30
0.0
 11
57.7578
 21
57.828
 31
0.0
  0
LINE
  8
0
 62
     0
 10
57.7578
 20
57.828
 30
0.0
 11
57.7578
 21
60.9272
 31
0.0
  0
LINE
  8
0
 62
     0
 10
57.7578
 20
60.9272
 30
0.0
 11
56.957
 21
60.9272
 31
0.0
  0
LINE
  8
0
 62
     0
 10
56.957
 20
60.9272
 30
0.0
 11
56.957
 21
61.9277
 31
0.0
  0
LINE
  8
0
 62
     0
 10
56.957
 20
61.9277
 30
0.0
 11
42.9577
 21
61.9277
 31
0.0
  0
LINE
  8
0
 62
     0
 10
16.7638
 20
61.9277
 30
0.0
 11
16.7638
 21
60.9272
 31
0.0
  0
LINE
  8
0
 62
     0
 10
16.7638
 20
60.9272
 30
0.0
 11
15.9632
 21
60.9272
 31
0.0
  0
LINE
  8
0
 62
     0
 10
15.9632
 20
60.9272
 30
0.0
 11
15.9632
 21
57.828
 31
0.0
  0
LINE
  8
0
 62
     0
 10
15.9632
 20
57.828
 30
0.0
 11
16.7638
 21
57.828
 31
0.0
  0
LINE
  8
0
 62
     0
 10
16.7638
 20
57.828
 30
0.0
 11
16.7638
 21
52.0277
 31
0.0
  0
LINE
  8
0
 62
     0
 10
16.7638
 20
52.0277
 30
0.0
 11
15.9632
 21
52.0277
 31
0.0
  0
LINE
  8
0
 62
     0
 10
15.9632
 20
52.0277
 30
0.0
 11
15.9632
 21
48.9271
 31
0.0
  0
LINE
  8
0
 62
     0
 10
15.9632
 20
48.9271
 30
0.0
 11
16.7638
 21
48.9271
 31
0.0
  0
LINE
  8
0
 62
     0
 10
16.7638
 20
48.9271
 30
0.0
 11
16.7638
 21
47.928
 31
0.0
  0
LINE
  8
0
 62
     0
 10
16.7638
 20
47.928
 30
0.0
 11
30.7633
 21
47.928
 31
0.0
  0
LINE
  8
0
 62
     0
 10
30.7633
 20
47.928
 30
0.0
 11
30.7633
 21
48.9271
 31
0.0
  0
LINE
  8
0
 62
     0
 10
30.7633
 20
48.9271
 30
0.0
 11
31.564
 21
48.9271
 31
0.0
  0
LINE
  8
0
 62
     0
 10
31.564
 20
48.9271
 30
0.0
 11
31.564
 21
52.0277
 31
0.0
  0
LINE
  8
0
 62
     0
 10
31.564
 20
52.0277
 30
0.0
 11
30.7633
 21
52.0277
 31
0.0
  0
LINE
  8
0
 62
     0
 10
30.7633
 20
52.0277
 30
0.0
 11
30.7633
 21
57.828
 31
0.0
  0
LINE
  8
0
 62
     0
 10
30.7633
 20
57.828
 30
0.0
 11
31.564
 21
57.828
 31
0.0
  0
LINE
  8
0
 62
     0
 10
31.564
 20
57.828
 30
0.0
 11
31.564
 21
60.9272
 31
0.0
  0
LINE
  8
0
 62
     0
 10
31.564
 20
60.9272
 30
0.0
 11
30.7633
 21
60.9272
 31
0.0
  0
LINE
  8
0
 62
     0
 10
30.7633
 20
60.9272
 30
0.0
 11
30.7633
 21
61.9277
 31
0.0
  0
LINE
  8
0
 62
     0
 10
30.7633
 20
61.9277
 30
0.0
 11
16.7638
 21
61.9277
 31
0.0
  0
LINE
  8
0
 62
     0
 10
295.37
 20
80.9791
 30
0.0
 11
295.37
 21
79.9786
 31
0.0
  0
LINE
  8
0
 62
     0
 10
295.37
 20
79.9786
 30
0.0
 11
294.571
 21
79.9786
 31
0.0
  0
LINE
  8
0
 62
     0
 10
294.571
 20
79.9786
 30
0.0
 11
294.571
 21
76.8794
 31
0.0
  0
LINE
  8
0
 62
     0
 10
294.571
 20
76.8794
 30
0.0
 11
295.37
 21
76.8794
 31
0.0
  0
LINE
  8
0
 62
     0
 10
295.37
 20
76.8794
 30
0.0
 11
295.37
 21
71.0777
 31
0.0
  0
LINE
  8
0
 62
     0
 10
295.37
 20
71.0777
 30
0.0
 11
294.571
 21
71.0777
 31
0.0
  0
LINE
  8
0
 62
     0
 10
294.571
 20
71.0777
 30
0.0
 11
294.571
 21
67.9785
 31
0.0
  0
LINE
  8
0
 62
     0
 10
294.571
 20
67.9785
 30
0.0
 11
295.37
 21
67.9785
 31
0.0
  0
LINE
  8
0
 62
     0
 10
295.37
 20
67.9785
 30
0.0
 11
295.37
 21
66.978
 31
0.0
  0
LINE
  8
0
 62
     0
 10
295.37
 20
66.978
 30
0.0
 11
309.371
 21
66.978
 31
0.0
  0
LINE
  8
0
 62
     0
 10
309.371
 20
66.978
 30
0.0
 11
309.371
 21
67.9785
 31
0.0
  0
LINE
  8
0
 62
     0
 10
309.371
 20
67.9785
 30
0.0
 11
310.17
 21
67.9785
 31
0.0
  0
LINE
  8
0
 62
     0
 10
310.17
 20
67.9785
 30
0.0
 11
310.17
 21
71.0777
 31
0.0
  0
LINE
  8
0
 62
     0
 10
310.17
 20
71.0777
 30
0.0
 11
309.371
 21
71.0777
 31
0.0
  0
LINE
  8
0
 62
     0
 10
309.371
 20
71.0777
 30
0.0
 11
309.371
 21
76.8794
 31
0.0
  0
LINE
  8
0
 62
     0
 10
309.371
 20
76.8794
 30
0.0
 11
310.17
 21
76.8794
 31
0.0
  0
LINE
  8
0
 62
     0
 10
310.17
 20
76.8794
 30
0.0
 11
310.17
 21
79.9786
 31
0.0
  0
LINE
  8
0
 62
     0
 10
310.17
 20
79.9786
 30
0.0
 11
309.371
 21
79.9786
 31
0.0
  0
LINE
  8
0
 62
     0
 10
309.371
 20
79.9786
 30
0.0
 11
309.371
 21
80.9791
 31
0.0
  0
LINE
  8
0
 62
     0
 10
309.371
 20
80.9791
 30
0.0
 11
295.37
 21
80.9791
 31
0.0
  0
LINE
  8
0
 62
     0
 10
271.558
 20
80.9791
 30
0.0
 11
271.558
 21
79.9786
 31
0.0
  0
LINE
  8
0
 62
     0
 10
271.558
 20
79.9786
 30
0.0
 11
270.757
 21
79.9786
 31
0.0
  0
LINE
  8
0
 62
     0
 10
270.757
 20
79.9786
 30
0.0
 11
270.757
 21
76.8794
 31
0.0
  0
LINE
  8
0
 62
     0
 10
270.757
 20
76.8794
 30
0.0
 11
271.558
 21
76.8794
 31
0.0
  0
LINE
  8
0
 62
     0
 10
271.558
 20
76.8794
 30
0.0
 11
271.558
 21
71.0777
 31
0.0
  0
LINE
  8
0
 62
     0
 10
271.558
 20
71.0777
 30
0.0
 11
270.757
 21
71.0777
 31
0.0
  0
LINE
  8
0
 62
     0
 10
270.757
 20
71.0777
 30
0.0
 11
270.757
 21
67.9785
 31
0.0
  0
LINE
  8
0
 62
     0
 10
270.757
 20
67.9785
 30
0.0
 11
271.558
 21
67.9785
 31
0.0
  0
LINE
  8
0
 62
     0
 10
271.558
 20
67.9785
 30
0.0
 11
271.558
 21
66.978
 31
0.0
  0
LINE
  8
0
 62
     0
 10
271.558
 20
66.978
 30
0.0
 11
285.557
 21
66.978
 31
0.0
  0
LINE
  8
0
 62
     0
 10
285.557
 20
66.978
 30
0.0
 11
285.557
 21
67.9785
 31
0.0
  0
LINE
  8
0
 62
     0
 10
285.557
 20
67.9785
 30
0.0
 11
286.358
 21
67.9785
 31
0.0
  0
LINE
  8
0
 62
     0
 10
286.358
 20
67.9785
 30
0.0
 11
286.358
 21
71.0777
 31
0.0
  0
LINE
  8
0
 62
     0
 10
286.358
 20
71.0777
 30
0.0
 11
285.557
 21
71.0777
 31
0.0
  0
LINE
  8
0
 62
     0
 10
285.557
 20
71.0777
 30
0.0
 11
285.557
 21
76.8794
 31
0.0
  0
LINE
  8
0
 62
     0
 10
285.557
 20
76.8794
 30
0.0
 11
286.358
 21
76.8794
 31
0.0
  0
LINE
  8
0
 62
     0
 10
286.358
 20
76.8794
 30
0.0
 11
286.358
 21
79.9786
 31
0.0
  0
LINE
  8
0
 62
     0
 10
286.358
 20
79.9786
 30
0.0
 11
285.557
 21
79.9786
 31
0.0
  0
LINE
  8
0
 62
     0
 10
285.557
 20
79.9786
 30
0.0
 11
285.557
 21
80.9791
 31
0.0
  0
LINE
  8
0
 62
     0
 10
285.557
 20
80.9791
 30
0.0
 11
271.558
 21
80.9791
 31
0.0
  0
LINE
  8
0
 62
     0
 10
247.745
 20
80.9791
 30
0.0
 11
247.745
 21
79.9786
 31
0.0
  0
LINE
  8
0
 62
     0
 10
247.745
 20
79.9786
 30
0.0
 11
246.946
 21
79.9786
 31
0.0
  0
LINE
  8
0
 62
     0
 10
246.946
 20
79.9786
 30
0.0
 11
246.946
 21
76.8794
 31
0.0
  0
LINE
  8
0
 62
     0
 10
246.946
 20
76.8794
 30
0.0
 11
247.745
 21
76.8794
 31
0.0
  0
LINE
  8
0
 62
     0
 10
247.745
 20
76.8794
 30
0.0
 11
247.745
 21
71.0777
 31
0.0
  0
LINE
  8
0
 62
     0
 10
247.745
 20
71.0777
 30
0.0
 11
246.946
 21
71.0777
 31
0.0
  0
LINE
  8
0
 62
     0
 10
246.946
 20
71.0777
 30
0.0
 11
246.946
 21
67.9785
 31
0.0
  0
LINE
  8
0
 62
     0
 10
246.946
 20
67.9785
 30
0.0
 11
247.745
 21
67.9785
 31
0.0
  0
LINE
  8
0
 62
     0
 10
247.745
 20
67.9785
 30
0.0
 11
247.745
 21
66.978
 31
0.0
  0
LINE
  8
0
 62
     0
 10
247.745
 20
66.978
 30
0.0
 11
261.746
 21
66.978
 31
0.0
  0
LINE
  8
0
 62
     0
 10
261.746
 20
66.978
 30
0.0
 11
261.746
 21
67.9785
 31
0.0
  0
LINE
  8
0
 62
     0
 10
261.746
 20
67.9785
 30
0.0
 11
262.545
 21
67.9785
 31
0.0
  0
LINE
  8
0
 62
     0
 10
262.545
 20
67.9785
 30
0.0
 11
262.545
 21
71.0777
 31
0.0
  0
LINE
  8
0
 62
     0
 10
262.545
 20
71.0777
 30
0.0
 11
261.746
 21
71.0777
 31
0.0
  0
LINE
  8
0
 62
     0
 10
261.746
 20
71.0777
 30
0.0
 11
261.746
 21
76.8794
 31
0.0
  0
LINE
  8
0
 62
     0
 10
261.746
 20
76.8794
 30
0.0
 11
262.545
 21
76.8794
 31
0.0
  0
LINE
  8
0
 62
     0
 10
262.545
 20
76.8794
 30
0.0
 11
262.545
 21
79.9786
 31
0.0
  0
LINE
  8
0
 62
     0
 10
262.545
 20
79.9786
 30
0.0
 11
261.746
 21
79.9786
 31
0.0
  0
LINE
  8
0
 62
     0
 10
261.746
 20
79.9786
 30
0.0
 11
261.746
 21
80.9791
 31
0.0
  0
LINE
  8
0
 62
     0
 10
261.746
 20
80.9791
 30
0.0
 11
247.745
 21
80.9791
 31
0.0
  0
LINE
  8
0
 62
     0
 10
228.695
 20
80.9791
 30
0.0
 11
228.695
 21
79.9786
 31
0.0
  0
LINE
  8
0
 62
     0
 10
228.695
 20
79.9786
 30
0.0
 11
227.896
 21
79.9786
 31
0.0
  0
LINE
  8
0
 62
     0
 10
227.896
 20
79.9786
 30
0.0
 11
227.896
 21
76.8794
 31
0.0
  0
LINE
  8
0
 62
     0
 10
227.896
 20
76.8794
 30
0.0
 11
228.695
 21
76.8794
 31
0.0
  0
LINE
  8
0
 62
     0
 10
228.695
 20
76.8794
 30
0.0
 11
228.695
 21
71.0777
 31
0.0
  0
LINE
  8
0
 62
     0
 10
228.695
 20
71.0777
 30
0.0
 11
227.896
 21
71.0777
 31
0.0
  0
LINE
  8
0
 62
     0
 10
227.896
 20
71.0777
 30
0.0
 11
227.896
 21
67.9785
 31
0.0
  0
LINE
  8
0
 62
     0
 10
227.896
 20
67.9785
 30
0.0
 11
228.695
 21
67.9785
 31
0.0
  0
LINE
  8
0
 62
     0
 10
228.695
 20
67.9785
 30
0.0
 11
228.695
 21
66.978
 31
0.0
  0
LINE
  8
0
 62
     0
 10
228.695
 20
66.978
 30
0.0
 11
242.696
 21
66.978
 31
0.0
  0
LINE
  8
0
 62
     0
 10
242.696
 20
66.978
 30
0.0
 11
242.696
 21
67.9785
 31
0.0
  0
LINE
  8
0
 62
     0
 10
242.696
 20
67.9785
 30
0.0
 11
243.495
 21
67.9785
 31
0.0
  0
LINE
  8
0
 62
     0
 10
243.495
 20
67.9785
 30
0.0
 11
243.495
 21
71.0777
 31
0.0
  0
LINE
  8
0
 62
     0
 10
243.495
 20
71.0777
 30
0.0
 11
242.696
 21
71.0777
 31
0.0
  0
LINE
  8
0
 62
     0
 10
242.696
 20
71.0777
 30
0.0
 11
242.696
 21
76.8794
 31
0.0
  0
LINE
  8
0
 62
     0
 10
242.696
 20
76.8794
 30
0.0
 11
243.495
 21
76.8794
 31
0.0
  0
LINE
  8
0
 62
     0
 10
243.495
 20
76.8794
 30
0.0
 11
243.495
 21
79.9786
 31
0.0
  0
LINE
  8
0
 62
     0
 10
243.495
 20
79.9786
 30
0.0
 11
242.696
 21
79.9786
 31
0.0
  0
LINE
  8
0
 62
     0
 10
242.696
 20
79.9786
 30
0.0
 11
242.696
 21
80.9791
 31
0.0
  0
LINE
  8
0
 62
     0
 10
242.696
 20
80.9791
 30
0.0
 11
228.695
 21
80.9791
 31
0.0
  0
LINE
  8
0
 62
     0
 10
209.645
 20
80.9791
 30
0.0
 11
209.645
 21
79.9786
 31
0.0
  0
LINE
  8
0
 62
     0
 10
209.645
 20
79.9786
 30
0.0
 11
208.846
 21
79.9786
 31
0.0
  0
LINE
  8
0
 62
     0
 10
208.846
 20
79.9786
 30
0.0
 11
208.846
 21
76.8794
 31
0.0
  0
LINE
  8
0
 62
     0
 10
208.846
 20
76.8794
 30
0.0
 11
209.645
 21
76.8794
 31
0.0
  0
LINE
  8
0
 62
     0
 10
209.645
 20
76.8794
 30
0.0
 11
209.645
 21
71.0777
 31
0.0
  0
LINE
  8
0
 62
     0
 10
209.645
 20
71.0777
 30
0.0
 11
208.846
 21
71.0777
 31
0.0
  0
LINE
  8
0
 62
     0
 10
208.846
 20
71.0777
 30
0.0
 11
208.846
 21
67.9785
 31
0.0
  0
LINE
  8
0
 62
     0
 10
208.846
 20
67.9785
 30
0.0
 11
209.645
 21
67.9785
 31
0.0
  0
LINE
  8
0
 62
     0
 10
209.645
 20
67.9785
 30
0.0
 11
209.645
 21
66.978
 31
0.0
  0
LINE
  8
0
 62
     0
 10
209.645
 20
66.978
 30
0.0
 11
223.646
 21
66.978
 31
0.0
  0
LINE
  8
0
 62
     0
 10
223.646
 20
66.978
 30
0.0
 11
223.646
 21
67.9785
 31
0.0
  0
LINE
  8
0
 62
     0
 10
223.646
 20
67.9785
 30
0.0
 11
224.445
 21
67.9785
 31
0.0
  0
LINE
  8
0
 62
     0
 10
224.445
 20
67.9785
 30
0.0
 11
224.445
 21
71.0777
 31
0.0
  0
LINE
  8
0
 62
     0
 10
224.445
 20
71.0777
 30
0.0
 11
223.646
 21
71.0777
 31
0.0
  0
LINE
  8
0
 62
     0
 10
223.646
 20
71.0777
 30
0.0
 11
223.646
 21
76.8794
 31
0.0
  0
LINE
  8
0
 62
     0
 10
223.646
 20
76.8794
 30
0.0
 11
224.445
 21
76.8794
 31
0.0
  0
LINE
  8
0
 62
     0
 10
224.445
 20
76.8794
 30
0.0
 11
224.445
 21
79.9786
 31
0.0
  0
LINE
  8
0
 62
     0
 10
224.445
 20
79.9786
 30
0.0
 11
223.646
 21
79.9786
 31
0.0
  0
LINE
  8
0
 62
     0
 10
223.646
 20
79.9786
 30
0.0
 11
223.646
 21
80.9791
 31
0.0
  0
LINE
  8
0
 62
     0
 10
223.646
 20
80.9791
 30
0.0
 11
209.645
 21
80.9791
 31
0.0
  0
LINE
  8
0
 62
     0
 10
190.595
 20
80.9791
 30
0.0
 11
190.595
 21
79.9786
 31
0.0
  0
LINE
  8
0
 62
     0
 10
190.595
 20
79.9786
 30
0.0
 11
189.796
 21
79.9786
 31
0.0
  0
LINE
  8
0
 62
     0
 10
189.796
 20
79.9786
 30
0.0
 11
189.796
 21
76.8794
 31
0.0
  0
LINE
  8
0
 62
     0
 10
189.796
 20
76.8794
 30
0.0
 11
190.595
 21
76.8794
 31
0.0
  0
LINE
  8
0
 62
     0
 10
190.595
 20
76.8794
 30
0.0
 11
190.595
 21
71.0777
 31
0.0
  0
LINE
  8
0
 62
     0
 10
190.595
 20
71.0777
 30
0.0
 11
189.796
 21
71.0777
 31
0.0
  0
LINE
  8
0
 62
     0
 10
189.796
 20
71.0777
 30
0.0
 11
189.796
 21
67.9785
 31
0.0
  0
LINE
  8
0
 62
     0
 10
189.796
 20
67.9785
 30
0.0
 11
190.595
 21
67.9785
 31
0.0
  0
LINE
  8
0
 62
     0
 10
190.595
 20
67.9785
 30
0.0
 11
190.595
 21
66.978
 31
0.0
  0
LINE
  8
0
 62
     0
 10
190.595
 20
66.978
 30
0.0
 11
204.596
 21
66.978
 31
0.0
  0
LINE
  8
0
 62
     0
 10
204.596
 20
66.978
 30
0.0
 11
204.596
 21
67.9785
 31
0.0
  0
LINE
  8
0
 62
     0
 10
204.596
 20
67.9785
 30
0.0
 11
205.395
 21
67.9785
 31
0.0
  0
LINE
  8
0
 62
     0
 10
205.395
 20
67.9785
 30
0.0
 11
205.395
 21
71.0777
 31
0.0
  0
LINE
  8
0
 62
     0
 10
205.395
 20
71.0777
 30
0.0
 11
204.596
 21
71.0777
 31
0.0
  0
LINE
  8
0
 62
     0
 10
204.596
 20
71.0777
 30
0.0
 11
204.596
 21
76.8794
 31
0.0
  0
LINE
  8
0
 62
     0
 10
204.596
 20
76.8794
 30
0.0
 11
205.395
 21
76.8794
 31
0.0
  0
LINE
  8
0
 62
     0
 10
205.395
 20
76.8794
 30
0.0
 11
205.395
 21
79.9786
 31
0.0
  0
LINE
  8
0
 62
     0
 10
205.395
 20
79.9786
 30
0.0
 11
204.596
 21
79.9786
 31
0.0
  0
LINE
  8
0
 62
     0
 10
204.596
 20
79.9786
 30
0.0
 11
204.596
 21
80.9791
 31
0.0
  0
LINE
  8
0
 62
     0
 10
204.596
 20
80.9791
 30
0.0
 11
190.595
 21
80.9791
 31
0.0
  0
LINE
  8
0
 62
     0
 10
171.545
 20
80.9791
 30
0.0
 11
171.545
 21
79.9786
 31
0.0
  0
LINE
  8
0
 62
     0
 10
171.545
 20
79.9786
 30
0.0
 11
170.746
 21
79.9786
 31
0.0
  0
LINE
  8
0
 62
     0
 10
170.746
 20
79.9786
 30
0.0
 11
170.746
 21
76.8794
 31
0.0
  0
LINE
  8
0
 62
     0
 10
170.746
 20
76.8794
 30
0.0
 11
171.545
 21
76.8794
 31
0.0
  0
LINE
  8
0
 62
     0
 10
171.545
 20
76.8794
 30
0.0
 11
171.545
 21
71.0777
 31
0.0
  0
LINE
  8
0
 62
     0
 10
171.545
 20
71.0777
 30
0.0
 11
170.746
 21
71.0777
 31
0.0
  0
LINE
  8
0
 62
     0
 10
170.746
 20
71.0777
 30
0.0
 11
170.746
 21
67.9785
 31
0.0
  0
LINE
  8
0
 62
     0
 10
170.746
 20
67.9785
 30
0.0
 11
171.545
 21
67.9785
 31
0.0
  0
LINE
  8
0
 62
     0
 10
171.545
 20
67.9785
 30
0.0
 11
171.545
 21
66.978
 31
0.0
  0
LINE
  8
0
 62
     0
 10
171.545
 20
66.978
 30
0.0
 11
185.546
 21
66.978
 31
0.0
  0
LINE
  8
0
 62
     0
 10
185.546
 20
66.978
 30
0.0
 11
185.546
 21
67.9785
 31
0.0
  0
LINE
  8
0
 62
     0
 10
185.546
 20
67.9785
 30
0.0
 11
186.345
 21
67.9785
 31
0.0
  0
LINE
  8
0
 62
     0
 10
186.345
 20
67.9785
 30
0.0
 11
186.345
 21
71.0777
 31
0.0
  0
LINE
  8
0
 62
     0
 10
186.345
 20
71.0777
 30
0.0
 11
185.546
 21
71.0777
 31
0.0
  0
LINE
  8
0
 62
     0
 10
185.546
 20
71.0777
 30
0.0
 11
185.546
 21
76.8794
 31
0.0
  0
LINE
  8
0
 62
     0
 10
185.546
 20
76.8794
 30
0.0
 11
186.345
 21
76.8794
 31
0.0
  0
LINE
  8
0
 62
     0
 10
186.345
 20
76.8794
 30
0.0
 11
186.345
 21
79.9786
 31
0.0
  0
LINE
  8
0
 62
     0
 10
186.345
 20
79.9786
 30
0.0
 11
185.546
 21
79.9786
 31
0.0
  0
LINE
  8
0
 62
     0
 10
185.546
 20
79.9786
 30
0.0
 11
185.546
 21
80.9791
 31
0.0
  0
LINE
  8
0
 62
     0
 10
185.546
 20
80.9791
 30
0.0
 11
171.545
 21
80.9791
 31
0.0
  0
LINE
  8
0
 62
     0
 10
152.495
 20
80.9791
 30
0.0
 11
152.495
 21
79.9786
 31
0.0
  0
LINE
  8
0
 62
     0
 10
152.495
 20
79.9786
 30
0.0
 11
151.696
 21
79.9786
 31
0.0
  0
LINE
  8
0
 62
     0
 10
151.696
 20
79.9786
 30
0.0
 11
151.696
 21
76.8794
 31
0.0
  0
LINE
  8
0
 62
     0
 10
151.696
 20
76.8794
 30
0.0
 11
152.495
 21
76.8794
 31
0.0
  0
LINE
  8
0
 62
     0
 10
152.495
 20
76.8794
 30
0.0
 11
152.495
 21
71.0777
 31
0.0
  0
LINE
  8
0
 62
     0
 10
152.495
 20
71.0777
 30
0.0
 11
151.696
 21
71.0777
 31
0.0
  0
LINE
  8
0
 62
     0
 10
151.696
 20
71.0777
 30
0.0
 11
151.696
 21
67.9785
 31
0.0
  0
LINE
  8
0
 62
     0
 10
151.696
 20
67.9785
 30
0.0
 11
152.495
 21
67.9785
 31
0.0
  0
LINE
  8
0
 62
     0
 10
152.495
 20
67.9785
 30
0.0
 11
152.495
 21
66.978
 31
0.0
  0
LINE
  8
0
 62
     0
 10
152.495
 20
66.978
 30
0.0
 11
166.496
 21
66.978
 31
0.0
  0
LINE
  8
0
 62
     0
 10
166.496
 20
66.978
 30
0.0
 11
166.496
 21
67.9785
 31
0.0
  0
LINE
  8
0
 62
     0
 10
166.496
 20
67.9785
 30
0.0
 11
167.295
 21
67.9785
 31
0.0
  0
LINE
  8
0
 62
     0
 10
167.295
 20
67.9785
 30
0.0
 11
167.295
 21
71.0777
 31
0.0
  0
LINE
  8
0
 62
     0
 10
167.295
 20
71.0777
 30
0.0
 11
166.496
 21
71.0777
 31
0.0
  0
LINE
  8
0
 62
     0
 10
166.496
 20
71.0777
 30
0.0
 11
166.496
 21
76.8794
 31
0.0
  0
LINE
  8
0
 62
     0
 10
166.496
 20
76.8794
 30
0.0
 11
167.295
 21
76.8794
 31
0.0
  0
LINE
  8
0
 62
     0
 10
167.295
 20
76.8794
 30
0.0
 11
167.295
 21
79.9786
 31
0.0
  0
LINE
  8
0
 62
     0
 10
167.295
 20
79.9786
 30
0.0
 11
166.496
 21
79.9786
 31
0.0
  0
LINE
  8
0
 62
     0
 10
166.496
 20
79.9786
 30
0.0
 11
166.496
 21
80.9791
 31
0.0
  0
LINE
  8
0
 62
     0
 10
166.496
 20
80.9791
 30
0.0
 11
152.495
 21
80.9791
 31
0.0
  0
LINE
  8
0
 62
     0
 10
133.445
 20
80.9791
 30
0.0
 11
133.445
 21
79.9786
 31
0.0
  0
LINE
  8
0
 62
     0
 10
133.445
 20
79.9786
 30
0.0
 11
132.644
 21
79.9786
 31
0.0
  0
LINE
  8
0
 62
     0
 10
132.644
 20
79.9786
 30
0.0
 11
132.644
 21
76.8794
 31
0.0
  0
LINE
  8
0
 62
     0
 10
132.644
 20
76.8794
 30
0.0
 11
133.445
 21
76.8794
 31
0.0
  0
LINE
  8
0
 62
     0
 10
133.445
 20
76.8794
 30
0.0
 11
133.445
 21
71.0777
 31
0.0
  0
LINE
  8
0
 62
     0
 10
133.445
 20
71.0777
 30
0.0
 11
132.644
 21
71.0777
 31
0.0
  0
LINE
  8
0
 62
     0
 10
132.644
 20
71.0777
 30
0.0
 11
132.644
 21
67.9785
 31
0.0
  0
LINE
  8
0
 62
     0
 10
132.644
 20
67.9785
 30
0.0
 11
133.445
 21
67.9785
 31
0.0
  0
LINE
  8
0
 62
     0
 10
133.445
 20
67.9785
 30
0.0
 11
133.445
 21
66.978
 31
0.0
  0
LINE
  8
0
 62
     0
 10
133.445
 20
66.978
 30
0.0
 11
147.446
 21
66.978
 31
0.0
  0
LINE
  8
0
 62
     0
 10
147.446
 20
66.978
 30
0.0
 11
147.446
 21
67.9785
 31
0.0
  0
LINE
  8
0
 62
     0
 10
147.446
 20
67.9785
 30
0.0
 11
148.245
 21
67.9785
 31
0.0
  0
LINE
  8
0
 62
     0
 10
148.245
 20
67.9785
 30
0.0
 11
148.245
 21
71.0777
 31
0.0
  0
LINE
  8
0
 62
     0
 10
148.245
 20
71.0777
 30
0.0
 11
147.446
 21
71.0777
 31
0.0
  0
LINE
  8
0
 62
     0
 10
147.446
 20
71.0777
 30
0.0
 11
147.446
 21
76.8794
 31
0.0
  0
LINE
  8
0
 62
     0
 10
147.446
 20
76.8794
 30
0.0
 11
148.245
 21
76.8794
 31
0.0
  0
LINE
  8
0
 62
     0
 10
148.245
 20
76.8794
 30
0.0
 11
148.245
 21
79.9786
 31
0.0
  0
LINE
  8
0
 62
     0
 10
148.245
 20
79.9786
 30
0.0
 11
147.446
 21
79.9786
 31
0.0
  0
LINE
  8
0
 62
     0
 10
147.446
 20
79.9786
 30
0.0
 11
147.446
 21
80.9791
 31
0.0
  0
LINE
  8
0
 62
     0
 10
147.446
 20
80.9791
 30
0.0
 11
133.445
 21
80.9791
 31
0.0
  0
LINE
  8
0
 62
     0
 10
114.395
 20
80.9791
 30
0.0
 11
114.395
 21
79.9786
 31
0.0
  0
LINE
  8
0
 62
     0
 10
114.395
 20
79.9786
 30
0.0
 11
113.596
 21
79.9786
 31
0.0
  0
LINE
  8
0
 62
     0
 10
113.596
 20
79.9786
 30
0.0
 11
113.596
 21
76.8794
 31
0.0
  0
LINE
  8
0
 62
     0
 10
113.596
 20
76.8794
 30
0.0
 11
114.395
 21
76.8794
 31
0.0
  0
LINE
  8
0
 62
     0
 10
114.395
 20
76.8794
 30
0.0
 11
114.395
 21
71.0777
 31
0.0
  0
LINE
  8
0
 62
     0
 10
114.395
 20
71.0777
 30
0.0
 11
113.596
 21
71.0777
 31
0.0
  0
LINE
  8
0
 62
     0
 10
113.596
 20
71.0777
 30
0.0
 11
113.596
 21
67.9785
 31
0.0
  0
LINE
  8
0
 62
     0
 10
113.596
 20
67.9785
 30
0.0
 11
114.395
 21
67.9785
 31
0.0
  0
LINE
  8
0
 62
     0
 10
114.395
 20
67.9785
 30
0.0
 11
114.395
 21
66.978
 31
0.0
  0
LINE
  8
0
 62
     0
 10
114.395
 20
66.978
 30
0.0
 11
128.396
 21
66.978
 31
0.0
  0
LINE
  8
0
 62
     0
 10
128.396
 20
66.978
 30
0.0
 11
128.396
 21
67.9785
 31
0.0
  0
LINE
  8
0
 62
     0
 10
128.396
 20
67.9785
 30
0.0
 11
129.195
 21
67.9785
 31
0.0
  0
LINE
  8
0
 62
     0
 10
129.195
 20
67.9785
 30
0.0
 11
129.195
 21
71.0777
 31
0.0
  0
LINE
  8
0
 62
     0
 10
129.195
 20
71.0777
 30
0.0
 11
128.396
 21
71.0777
 31
0.0
  0
LINE
  8
0
 62
     0
 10
128.396
 20
71.0777
 30
0.0
 11
128.396
 21
76.8794
 31
0.0
  0
LINE
  8
0
 62
     0
 10
128.396
 20
76.8794
 30
0.0
 11
129.195
 21
76.8794
 31
0.0
  0
LINE
  8
0
 62
     0
 10
129.195
 20
76.8794
 30
0.0
 11
129.195
 21
79.9786
 31
0.0
  0
LINE
  8
0
 62
     0
 10
129.195
 20
79.9786
 30
0.0
 11
128.396
 21
79.9786
 31
0.0
  0
LINE
  8
0
 62
     0
 10
128.396
 20
79.9786
 30
0.0
 11
128.396
 21
80.9791
 31
0.0
  0
LINE
  8
0
 62
     0
 10
128.396
 20
80.9791
 30
0.0
 11
114.395
 21
80.9791
 31
0.0
  0
LINE
  8
0
 62
     0
 10
95.3452
 20
80.9791
 30
0.0
 11
95.3452
 21
79.9786
 31
0.0
  0
LINE
  8
0
 62
     0
 10
95.3452
 20
79.9786
 30
0.0
 11
94.5459
 21
79.9786
 31
0.0
  0
LINE
  8
0
 62
     0
 10
94.5459
 20
79.9786
 30
0.0
 11
94.5459
 21
76.8794
 31
0.0
  0
LINE
  8
0
 62
     0
 10
94.5459
 20
76.8794
 30
0.0
 11
95.3452
 21
76.8794
 31
0.0
  0
LINE
  8
0
 62
     0
 10
95.3452
 20
76.8794
 30
0.0
 11
95.3452
 21
71.0777
 31
0.0
  0
LINE
  8
0
 62
     0
 10
95.3452
 20
71.0777
 30
0.0
 11
94.5459
 21
71.0777
 31
0.0
  0
LINE
  8
0
 62
     0
 10
94.5459
 20
71.0777
 30
0.0
 11
94.5459
 21
67.9785
 31
0.0
  0
LINE
  8
0
 62
     0
 10
94.5459
 20
67.9785
 30
0.0
 11
95.3452
 21
67.9785
 31
0.0
  0
LINE
  8
0
 62
     0
 10
95.3452
 20
67.9785
 30
0.0
 11
95.3452
 21
66.978
 31
0.0
  0
LINE
  8
0
 62
     0
 10
95.3452
 20
66.978
 30
0.0
 11
109.346
 21
66.978
 31
0.0
  0
LINE
  8
0
 62
     0
 10
109.346
 20
66.978
 30
0.0
 11
109.346
 21
67.9785
 31
0.0
  0
LINE
  8
0
 62
     0
 10
109.346
 20
67.9785
 30
0.0
 11
110.145
 21
67.9785
 31
0.0
  0
LINE
  8
0
 62
     0
 10
110.145
 20
67.9785
 30
0.0
 11
110.145
 21
71.0777
 31
0.0
  0
LINE
  8
0
 62
     0
 10
110.145
 20
71.0777
 30
0.0
 11
109.346
 21
71.0777
 31
0.0
  0
LINE
  8
0
 62
     0
 10
109.346
 20
71.0777
 30
0.0
 11
109.346
 21
76.8794
 31
0.0
  0
LINE
  8
0
 62
     0
 10
109.346
 20
76.8794
 30
0.0
 11
110.145
 21
76.8794
 31
0.0
  0
LINE
  8
0
 62
     0
 10
110.145
 20
76.8794
 30
0.0
 11
110.145
 21
79.9786
 31
0.0
  0
LINE
  8
0
 62
     0
 10
110.145
 20
79.9786
 30
0.0
 11
109.346
 21
79.9786
 31
0.0
  0
LINE
  8
0
 62
     0
 10
109.346
 20
79.9786
 30
0.0
 11
109.346
 21
80.9791
 31
0.0
  0
LINE
  8
0
 62
     0
 10
109.346
 20
80.9791
 30
0.0
 11
95.3452
 21
80.9791
 31
0.0
  0
LINE
  8
0
 62
     0
 10
76.2953
 20
80.9791
 30
0.0
 11
76.2953
 21
79.9786
 31
0.0
  0
LINE
  8
0
 62
     0
 10
76.2953
 20
79.9786
 30
0.0
 11
75.4959
 21
79.9786
 31
0.0
  0
LINE
  8
0
 62
     0
 10
75.4959
 20
79.9786
 30
0.0
 11
75.4959
 21
76.8794
 31
0.0
  0
LINE
  8
0
 62
     0
 10
75.4959
 20
76.8794
 30
0.0
 11
76.2953
 21
76.8794
 31
0.0
  0
LINE
  8
0
 62
     0
 10
76.2953
 20
76.8794
 30
0.0
 11
76.2953
 21
71.0777
 31
0.0
  0
LINE
  8
0
 62
     0
 10
76.2953
 20
71.0777
 30
0.0
 11
75.4959
 21
71.0777
 31
0.0
  0
LINE
  8
0
 62
     0
 10
75.4959
 20
71.0777
 30
0.0
 11
75.4959
 21
67.9785
 31
0.0
  0
LINE
  8
0
 62
     0
 10
75.4959
 20
67.9785
 30
0.0
 11
76.2953
 21
67.9785
 31
0.0
  0
LINE
  8
0
 62
     0
 10
76.2953
 20
67.9785
 30
0.0
 11
76.2953
 21
66.978
 31
0.0
  0
LINE
  8
0
 62
     0
 10
76.2953
 20
66.978
 30
0.0
 11
90.2959
 21
66.978
 31
0.0
  0
LINE
  8
0
 62
     0
 10
90.2959
 20
66.978
 30
0.0
 11
90.2959
 21
67.9785
 31
0.0
  0
LINE
  8
0
 62
     0
 10
90.2959
 20
67.9785
 30
0.0
 11
91.0953
 21
67.9785
 31
0.0
  0
LINE
  8
0
 62
     0
 10
91.0953
 20
67.9785
 30
0.0
 11
91.0953
 21
71.0777
 31
0.0
  0
LINE
  8
0
 62
     0
 10
91.0953
 20
71.0777
 30
0.0
 11
90.2959
 21
71.0777
 31
0.0
  0
LINE
  8
0
 62
     0
 10
90.2959
 20
71.0777
 30
0.0
 11
90.2959
 21
76.8794
 31
0.0
  0
LINE
  8
0
 62
     0
 10
90.2959
 20
76.8794
 30
0.0
 11
91.0953
 21
76.8794
 31
0.0
  0
LINE
  8
0
 62
     0
 10
91.0953
 20
76.8794
 30
0.0
 11
91.0953
 21
79.9786
 31
0.0
  0
LINE
  8
0
 62
     0
 10
91.0953
 20
79.9786
 30
0.0
 11
90.2959
 21
79.9786
 31
0.0
  0
LINE
  8
0
 62
     0
 10
90.2959
 20
79.9786
 30
0.0
 11
90.2959
 21
80.9791
 31
0.0
  0
LINE
  8
0
 62
     0
 10
90.2959
 20
80.9791
 30
0.0
 11
76.2953
 21
80.9791
 31
0.0
  0
LINE
  8
0
 62
     0
 10
57.2453
 20
80.9791
 30
0.0
 11
57.2453
 21
79.9786
 31
0.0
  0
LINE
  8
0
 62
     0
 10
57.2453
 20
79.9786
 30
0.0
 11
56.4459
 21
79.9786
 31
0.0
  0
LINE
  8
0
 62
     0
 10
56.4459
 20
79.9786
 30
0.0
 11
56.4459
 21
76.8794
 31
0.0
  0
LINE
  8
0
 62
     0
 10
56.4459
 20
76.8794
 30
0.0
 11
57.2453
 21
76.8794
 31
0.0
  0
LINE
  8
0
 62
     0
 10
57.2453
 20
76.8794
 30
0.0
 11
57.2453
 21
71.0777
 31
0.0
  0
LINE
  8
0
 62
     0
 10
57.2453
 20
71.0777
 30
0.0
 11
56.4459
 21
71.0777
 31
0.0
  0
LINE
  8
0
 62
     0
 10
56.4459
 20
71.0777
 30
0.0
 11
56.4459
 21
67.9785
 31
0.0
  0
LINE
  8
0
 62
     0
 10
56.4459
 20
67.9785
 30
0.0
 11
57.2453
 21
67.9785
 31
0.0
  0
LINE
  8
0
 62
     0
 10
57.2453
 20
67.9785
 30
0.0
 11
57.2453
 21
66.978
 31
0.0
  0
LINE
  8
0
 62
     0
 10
57.2453
 20
66.978
 30
0.0
 11
71.2459
 21
66.978
 31
0.0
  0
LINE
  8
0
 62
     0
 10
71.2459
 20
66.978
 30
0.0
 11
71.2459
 21
67.9785
 31
0.0
  0
LINE
  8
0
 62
     0
 10
71.2459
 20
67.9785
 30
0.0
 11
72.0453
 21
67.9785
 31
0.0
  0
LINE
  8
0
 62
     0
 10
72.0453
 20
67.9785
 30
0.0
 11
72.0453
 21
71.0777
 31
0.0
  0
LINE
  8
0
 62
     0
 10
72.0453
 20
71.0777
 30
0.0
 11
71.2459
 21
71.0777
 31
0.0
  0
LINE
  8
0
 62
     0
 10
71.2459
 20
71.0777
 30
0.0
 11
71.2459
 21
76.8794
 31
0.0
  0
LINE
  8
0
 62
     0
 10
71.2459
 20
76.8794
 30
0.0
 11
72.0453
 21
76.8794
 31
0.0
  0
LINE
  8
0
 62
     0
 10
72.0453
 20
76.8794
 30
0.0
 11
72.0453
 21
79.9786
 31
0.0
  0
LINE
  8
0
 62
     0
 10
72.0453
 20
79.9786
 30
0.0
 11
71.2459
 21
79.9786
 31
0.0
  0
LINE
  8
0
 62
     0
 10
71.2459
 20
79.9786
 30
0.0
 11
71.2459
 21
80.9791
 31
0.0
  0
LINE
  8
0
 62
     0
 10
71.2459
 20
80.9791
 30
0.0
 11
57.2453
 21
80.9791
 31
0.0
  0
LINE
  8
0
 62
     0
 10
38.1952
 20
80.9791
 30
0.0
 11
38.1952
 21
79.9786
 31
0.0
  0
LINE
  8
0
 62
     0
 10
38.1952
 20
79.9786
 30
0.0
 11
37.3959
 21
79.9786
 31
0.0
  0
LINE
  8
0
 62
     0
 10
37.3959
 20
79.9786
 30
0.0
 11
37.3959
 21
76.8794
 31
0.0
  0
LINE
  8
0
 62
     0
 10
37.3959
 20
76.8794
 30
0.0
 11
38.1952
 21
76.8794
 31
0.0
  0
LINE
  8
0
 62
     0
 10
38.1952
 20
76.8794
 30
0.0
 11
38.1952
 21
71.0777
 31
0.0
  0
LINE
  8
0
 62
     0
 10
38.1952
 20
71.0777
 30
0.0
 11
37.3959
 21
71.0777
 31
0.0
  0
LINE
  8
0
 62
     0
 10
37.3959
 20
71.0777
 30
0.0
 11
37.3959
 21
67.9785
 31
0.0
  0
LINE
  8
0
 62
     0
 10
37.3959
 20
67.9785
 30
0.0
 11
38.1952
 21
67.9785
 31
0.0
  0
LINE
  8
0
 62
     0
 10
38.1952
 20
67.9785
 30
0.0
 11
38.1952
 21
66.978
 31
0.0
  0
LINE
  8
0
 62
     0
 10
38.1952
 20
66.978
 30
0.0
 11
52.1959
 21
66.978
 31
0.0
  0
LINE
  8
0
 62
     0
 10
52.1959
 20
66.978
 30
0.0
 11
52.1959
 21
67.9785
 31
0.0
  0
LINE
  8
0
 62
     0
 10
52.1959
 20
67.9785
 30
0.0
 11
52.9953
 21
67.9785
 31
0.0
  0
LINE
  8
0
 62
     0
 10
52.9953
 20
67.9785
 30
0.0
 11
52.9953
 21
71.0777
 31
0.0
  0
LINE
  8
0
 62
     0
 10
52.9953
 20
71.0777
 30
0.0
 11
52.1959
 21
71.0777
 31
0.0
  0
LINE
  8
0
 62
     0
 10
52.1959
 20
71.0777
 30
0.0
 11
52.1959
 21
76.8794
 31
0.0
  0
LINE
  8
0
 62
     0
 10
52.1959
 20
76.8794
 30
0.0
 11
52.9953
 21
76.8794
 31
0.0
  0
LINE
  8
0
 62
     0
 10
52.9953
 20
76.8794
 30
0.0
 11
52.9953
 21
79.9786
 31
0.0
  0
LINE
  8
0
 62
     0
 10
52.9953
 20
79.9786
 30
0.0
 11
52.1959
 21
79.9786
 31
0.0
  0
LINE
  8
0
 62
     0
 10
52.1959
 20
79.9786
 30
0.0
 11
52.1959
 21
80.9791
 31
0.0
  0
LINE
  8
0
 62
     0
 10
52.1959
 20
80.9791
 30
0.0
 11
38.1952
 21
80.9791
 31
0.0
  0
LINE
  8
0
 62
     0
 10
14.3826
 20
80.9791
 30
0.0
 11
14.3826
 21
79.9786
 31
0.0
  0
LINE
  8
0
 62
     0
 10
14.3826
 20
79.9786
 30
0.0
 11
13.5819
 21
79.9786
 31
0.0
  0
LINE
  8
0
 62
     0
 10
13.5819
 20
79.9786
 30
0.0
 11
13.5819
 21
76.8794
 31
0.0
  0
LINE
  8
0
 62
     0
 10
13.5819
 20
76.8794
 30
0.0
 11
14.3826
 21
76.8794
 31
0.0
  0
LINE
  8
0
 62
     0
 10
14.3826
 20
76.8794
 30
0.0
 11
14.3826
 21
71.0777
 31
0.0
  0
LINE
  8
0
 62
     0
 10
14.3826
 20
71.0777
 30
0.0
 11
13.5819
 21
71.0777
 31
0.0
  0
LINE
  8
0
 62
     0
 10
13.5819
 20
71.0777
 30
0.0
 11
13.5819
 21
67.9785
 31
0.0
  0
LINE
  8
0
 62
     0
 10
13.5819
 20
67.9785
 30
0.0
 11
14.3826
 21
67.9785
 31
0.0
  0
LINE
  8
0
 62
     0
 10
14.3826
 20
67.9785
 30
0.0
 11
14.3826
 21
66.978
 31
0.0
  0
LINE
  8
0
 62
     0
 10
14.3826
 20
66.978
 30
0.0
 11
28.3821
 21
66.978
 31
0.0
  0
LINE
  8
0
 62
     0
 10
28.3821
 20
66.978
 30
0.0
 11
28.3821
 21
67.9785
 31
0.0
  0
LINE
  8
0
 62
     0
 10
28.3821
 20
67.9785
 30
0.0
 11
29.1827
 21
67.9785
 31
0.0
  0
LINE
  8
0
 62
     0
 10
29.1827
 20
67.9785
 30
0.0
 11
29.1827
 21
71.0777
 31
0.0
  0
LINE
  8
0
 62
     0
 10
29.1827
 20
71.0777
 30
0.0
 11
28.3821
 21
71.0777
 31
0.0
  0
LINE
  8
0
 62
     0
 10
28.3821
 20
71.0777
 30
0.0
 11
28.3821
 21
76.8794
 31
0.0
  0
LINE
  8
0
 62
     0
 10
28.3821
 20
76.8794
 30
0.0
 11
29.1827
 21
76.8794
 31
0.0
  0
LINE
  8
0
 62
     0
 10
29.1827
 20
76.8794
 30
0.0
 11
29.1827
 21
79.9786
 31
0.0
  0
LINE
  8
0
 62
     0
 10
29.1827
 20
79.9786
 30
0.0
 11
28.3821
 21
79.9786
 31
0.0
  0
LINE
  8
0
 62
     0
 10
28.3821
 20
79.9786
 30
0.0
 11
28.3821
 21
80.9791
 31
0.0
  0
LINE
  8
0
 62
     0
 10
28.3821
 20
80.9791
 30
0.0
 11
14.3826
 21
80.9791
 31
0.0
  0
LINE
  8
0
 62
     0
 10
266.795
 20
100.028
 30
0.0
 11
266.795
 21
99.0272
 31
0.0
  0
LINE
  8
0
 62
     0
 10
266.795
 20
99.0272
 30
0.0
 11
265.996
 21
99.0272
 31
0.0
  0
LINE
  8
0
 62
     0
 10
265.996
 20
99.0272
 30
0.0
 11
265.996
 21
95.9294
 31
0.0
  0
LINE
  8
0
 62
     0
 10
265.996
 20
95.9294
 30
0.0
 11
266.795
 21
95.9294
 31
0.0
  0
LINE
  8
0
 62
     0
 10
266.795
 20
95.9294
 30
0.0
 11
266.795
 21
95.3273
 31
0.0
  0
LINE
  8
0
 62
     0
 10
266.795
 20
95.3273
 30
0.0
 11
265.271
 21
95.3273
 31
0.0
  0
LINE
  8
0
 62
     0
 10
265.271
 20
95.3273
 30
0.0
 11
265.271
 21
98.5587
 31
0.0
  0
LINE
  8
0
 62
     0
 10
265.271
 20
98.5587
 30
0.0
 11
263.546
 21
98.5587
 31
0.0
  0
LINE
  8
0
 62
     0
 10
263.546
 20
98.5587
 30
0.0
 11
263.546
 21
99.4791
 31
0.0
  0
LINE
  8
0
 62
     0
 10
263.546
 20
99.4791
 30
0.0
 11
260.245
 21
99.4791
 31
0.0
  0
LINE
  8
0
 62
     0
 10
260.245
 20
99.4791
 30
0.0
 11
260.245
 21
98.5587
 31
0.0
  0
LINE
  8
0
 62
     0
 10
260.245
 20
98.5587
 30
0.0
 11
258.52
 21
98.5587
 31
0.0
  0
LINE
  8
0
 62
     0
 10
258.52
 20
98.5587
 30
0.0
 11
258.52
 21
95.3273
 31
0.0
  0
LINE
  8
0
 62
     0
 10
258.52
 20
95.3273
 30
0.0
 11
257.696
 21
95.3273
 31
0.0
  0
LINE
  8
0
 62
     0
 10
257.696
 20
95.3273
 30
0.0
 11
257.696
 21
92.5283
 31
0.0
  0
LINE
  8
0
 62
     0
 10
257.696
 20
92.5283
 30
0.0
 11
258.52
 21
92.5283
 31
0.0
  0
LINE
  8
0
 62
     0
 10
258.52
 20
92.5283
 30
0.0
 11
258.52
 21
86.2584
 31
0.0
  0
LINE
  8
0
 62
     0
 10
258.52
 20
86.2584
 30
0.0
 11
260.245
 21
86.2584
 31
0.0
  0
LINE
  8
0
 62
     0
 10
260.245
 20
86.2584
 30
0.0
 11
260.245
 21
85.2784
 31
0.0
  0
LINE
  8
0
 62
     0
 10
260.245
 20
85.2784
 30
0.0
 11
263.546
 21
85.2784
 31
0.0
  0
LINE
  8
0
 62
     0
 10
263.546
 20
85.2784
 30
0.0
 11
263.546
 21
86.2584
 31
0.0
  0
LINE
  8
0
 62
     0
 10
263.546
 20
86.2584
 30
0.0
 11
265.271
 21
86.2584
 31
0.0
  0
LINE
  8
0
 62
     0
 10
265.271
 20
86.2584
 30
0.0
 11
265.271
 21
90.7288
 31
0.0
  0
LINE
  8
0
 62
     0
 10
265.271
 20
90.7288
 30
0.0
 11
266.795
 21
90.7288
 31
0.0
  0
LINE
  8
0
 62
     0
 10
266.795
 20
90.7288
 30
0.0
 11
266.795
 21
90.1277
 31
0.0
  0
LINE
  8
0
 62
     0
 10
266.795
 20
90.1277
 30
0.0
 11
265.996
 21
90.1277
 31
0.0
  0
LINE
  8
0
 62
     0
 10
265.996
 20
90.1277
 30
0.0
 11
265.996
 21
87.0271
 31
0.0
  0
LINE
  8
0
 62
     0
 10
265.996
 20
87.0271
 30
0.0
 11
266.795
 21
87.0271
 31
0.0
  0
LINE
  8
0
 62
     0
 10
266.795
 20
87.0271
 30
0.0
 11
266.795
 21
86.028
 31
0.0
  0
LINE
  8
0
 62
     0
 10
266.795
 20
86.028
 30
0.0
 11
280.796
 21
86.028
 31
0.0
  0
LINE
  8
0
 62
     0
 10
280.796
 20
86.028
 30
0.0
 11
280.796
 21
87.0271
 31
0.0
  0
LINE
  8
0
 62
     0
 10
280.796
 20
87.0271
 30
0.0
 11
281.595
 21
87.0271
 31
0.0
  0
LINE
  8
0
 62
     0
 10
281.595
 20
87.0271
 30
0.0
 11
281.595
 21
90.1277
 31
0.0
  0
LINE
  8
0
 62
     0
 10
281.595
 20
90.1277
 30
0.0
 11
280.796
 21
90.1277
 31
0.0
  0
LINE
  8
0
 62
     0
 10
280.796
 20
90.1277
 30
0.0
 11
280.796
 21
90.7288
 31
0.0
  0
LINE
  8
0
 62
     0
 10
280.796
 20
90.7288
 30
0.0
 11
282.32
 21
90.7288
 31
0.0
  0
LINE
  8
0
 62
     0
 10
282.32
 20
90.7288
 30
0.0
 11
282.32
 21
86.2584
 31
0.0
  0
LINE
  8
0
 62
     0
 10
282.32
 20
86.2584
 30
0.0
 11
284.045
 21
86.2584
 31
0.0
  0
LINE
  8
0
 62
     0
 10
284.045
 20
86.2584
 30
0.0
 11
284.045
 21
85.2784
 31
0.0
  0
LINE
  8
0
 62
     0
 10
284.045
 20
85.2784
 30
0.0
 11
287.346
 21
85.2784
 31
0.0
  0
LINE
  8
0
 62
     0
 10
287.346
 20
85.2784
 30
0.0
 11
287.346
 21
86.2584
 31
0.0
  0
LINE
  8
0
 62
     0
 10
287.346
 20
86.2584
 30
0.0
 11
289.071
 21
86.2584
 31
0.0
  0
LINE
  8
0
 62
     0
 10
289.071
 20
86.2584
 30
0.0
 11
289.071
 21
92.5283
 31
0.0
  0
LINE
  8
0
 62
     0
 10
289.071
 20
92.5283
 30
0.0
 11
289.895
 21
92.5283
 31
0.0
  0
LINE
  8
0
 62
     0
 10
289.895
 20
92.5283
 30
0.0
 11
289.895
 21
95.3273
 31
0.0
  0
LINE
  8
0
 62
     0
 10
289.895
 20
95.3273
 30
0.0
 11
289.071
 21
95.3273
 31
0.0
  0
LINE
  8
0
 62
     0
 10
289.071
 20
95.3273
 30
0.0
 11
289.071
 21
98.5587
 31
0.0
  0
LINE
  8
0
 62
     0
 10
289.071
 20
98.5587
 30
0.0
 11
287.346
 21
98.5587
 31
0.0
  0
LINE
  8
0
 62
     0
 10
287.346
 20
98.5587
 30
0.0
 11
287.346
 21
99.4791
 31
0.0
  0
LINE
  8
0
 62
     0
 10
287.346
 20
99.4791
 30
0.0
 11
284.045
 21
99.4791
 31
0.0
  0
LINE
  8
0
 62
     0
 10
284.045
 20
99.4791
 30
0.0
 11
284.045
 21
98.5587
 31
0.0
  0
LINE
  8
0
 62
     0
 10
284.045
 20
98.5587
 30
0.0
 11
282.32
 21
98.5587
 31
0.0
  0
LINE
  8
0
 62
     0
 10
282.32
 20
98.5587
 30
0.0
 11
282.32
 21
95.3273
 31
0.0
  0
LINE
  8
0
 62
     0
 10
282.32
 20
95.3273
 30
0.0
 11
280.796
 21
95.3273
 31
0.0
  0
LINE
  8
0
 62
     0
 10
280.796
 20
95.3273
 30
0.0
 11
280.796
 21
95.9294
 31
0.0
  0
LINE
  8
0
 62
     0
 10
280.796
 20
95.9294
 30
0.0
 11
281.595
 21
95.9294
 31
0.0
  0
LINE
  8
0
 62
     0
 10
281.595
 20
95.9294
 30
0.0
 11
281.595
 21
99.0272
 31
0.0
  0
LINE
  8
0
 62
     0
 10
281.595
 20
99.0272
 30
0.0
 11
280.796
 21
99.0272
 31
0.0
  0
LINE
  8
0
 62
     0
 10
280.796
 20
99.0272
 30
0.0
 11
280.796
 21
100.028
 31
0.0
  0
LINE
  8
0
 62
     0
 10
280.796
 20
100.028
 30
0.0
 11
266.795
 21
100.028
 31
0.0
  0
LINE
  8
0
 62
     0
 10
295.37
 20
100.028
 30
0.0
 11
295.37
 21
99.0272
 31
0.0
  0
LINE
  8
0
 62
     0
 10
295.37
 20
99.0272
 30
0.0
 11
294.571
 21
99.0272
 31
0.0
  0
LINE
  8
0
 62
     0
 10
294.571
 20
99.0272
 30
0.0
 11
294.571
 21
95.9294
 31
0.0
  0
LINE
  8
0
 62
     0
 10
294.571
 20
95.9294
 30
0.0
 11
295.37
 21
95.9294
 31
0.0
  0
LINE
  8
0
 62
     0
 10
295.37
 20
95.9294
 30
0.0
 11
295.37
 21
90.1277
 31
0.0
  0
LINE
  8
0
 62
     0
 10
295.37
 20
90.1277
 30
0.0
 11
294.571
 21
90.1277
 31
0.0
  0
LINE
  8
0
 62
     0
 10
294.571
 20
90.1277
 30
0.0
 11
294.571
 21
87.0271
 31
0.0
  0
LINE
  8
0
 62
     0
 10
294.571
 20
87.0271
 30
0.0
 11
295.37
 21
87.0271
 31
0.0
  0
LINE
  8
0
 62
     0
 10
295.37
 20
87.0271
 30
0.0
 11
295.37
 21
86.028
 31
0.0
  0
LINE
  8
0
 62
     0
 10
295.37
 20
86.028
 30
0.0
 11
309.371
 21
86.028
 31
0.0
  0
LINE
  8
0
 62
     0
 10
309.371
 20
86.028
 30
0.0
 11
309.371
 21
87.0271
 31
0.0
  0
LINE
  8
0
 62
     0
 10
309.371
 20
87.0271
 30
0.0
 11
310.17
 21
87.0271
 31
0.0
  0
LINE
  8
0
 62
     0
 10
310.17
 20
87.0271
 30
0.0
 11
310.17
 21
90.1277
 31
0.0
  0
LINE
  8
0
 62
     0
 10
310.17
 20
90.1277
 30
0.0
 11
309.371
 21
90.1277
 31
0.0
  0
LINE
  8
0
 62
     0
 10
309.371
 20
90.1277
 30
0.0
 11
309.371
 21
95.9294
 31
0.0
  0
LINE
  8
0
 62
     0
 10
309.371
 20
95.9294
 30
0.0
 11
310.17
 21
95.9294
 31
0.0
  0
LINE
  8
0
 62
     0
 10
310.17
 20
95.9294
 30
0.0
 11
310.17
 21
99.0272
 31
0.0
  0
LINE
  8
0
 62
     0
 10
310.17
 20
99.0272
 30
0.0
 11
309.371
 21
99.0272
 31
0.0
  0
LINE
  8
0
 62
     0
 10
309.371
 20
99.0272
 30
0.0
 11
309.371
 21
100.028
 31
0.0
  0
LINE
  8
0
 62
     0
 10
309.371
 20
100.028
 30
0.0
 11
295.37
 21
100.028
 31
0.0
  0
LINE
  8
0
 62
     0
 10
238.22
 20
100.028
 30
0.0
 11
238.22
 21
99.0272
 31
0.0
  0
LINE
  8
0
 62
     0
 10
238.22
 20
99.0272
 30
0.0
 11
237.421
 21
99.0272
 31
0.0
  0
LINE
  8
0
 62
     0
 10
237.421
 20
99.0272
 30
0.0
 11
237.421
 21
95.9294
 31
0.0
  0
LINE
  8
0
 62
     0
 10
237.421
 20
95.9294
 30
0.0
 11
238.22
 21
95.9294
 31
0.0
  0
LINE
  8
0
 62
     0
 10
238.22
 20
95.9294
 30
0.0
 11
238.22
 21
90.1277
 31
0.0
  0
LINE
  8
0
 62
     0
 10
238.22
 20
90.1277
 30
0.0
 11
237.421
 21
90.1277
 31
0.0
  0
LINE
  8
0
 62
     0
 10
237.421
 20
90.1277
 30
0.0
 11
237.421
 21
87.0271
 31
0.0
  0
LINE
  8
0
 62
     0
 10
237.421
 20
87.0271
 30
0.0
 11
238.22
 21
87.0271
 31
0.0
  0
LINE
  8
0
 62
     0
 10
238.22
 20
87.0271
 30
0.0
 11
238.22
 21
86.028
 31
0.0
  0
LINE
  8
0
 62
     0
 10
238.22
 20
86.028
 30
0.0
 11
252.221
 21
86.028
 31
0.0
  0
LINE
  8
0
 62
     0
 10
252.221
 20
86.028
 30
0.0
 11
252.221
 21
87.0271
 31
0.0
  0
LINE
  8
0
 62
     0
 10
252.221
 20
87.0271
 30
0.0
 11
253.02
 21
87.0271
 31
0.0
  0
LINE
  8
0
 62
     0
 10
253.02
 20
87.0271
 30
0.0
 11
253.02
 21
90.1277
 31
0.0
  0
LINE
  8
0
 62
     0
 10
253.02
 20
90.1277
 30
0.0
 11
252.221
 21
90.1277
 31
0.0
  0
LINE
  8
0
 62
     0
 10
252.221
 20
90.1277
 30
0.0
 11
252.221
 21
95.9294
 31
0.0
  0
LINE
  8
0
 62
     0
 10
252.221
 20
95.9294
 30
0.0
 11
253.02
 21
95.9294
 31
0.0
  0
LINE
  8
0
 62
     0
 10
253.02
 20
95.9294
 30
0.0
 11
253.02
 21
99.0272
 31
0.0
  0
LINE
  8
0
 62
     0
 10
253.02
 20
99.0272
 30
0.0
 11
252.221
 21
99.0272
 31
0.0
  0
LINE
  8
0
 62
     0
 10
252.221
 20
99.0272
 30
0.0
 11
252.221
 21
100.028
 31
0.0
  0
LINE
  8
0
 62
     0
 10
252.221
 20
100.028
 30
0.0
 11
238.22
 21
100.028
 31
0.0
  0
LINE
  8
0
 62
     0
 10
219.17
 20
100.028
 30
0.0
 11
219.17
 21
99.0272
 31
0.0
  0
LINE
  8
0
 62
     0
 10
219.17
 20
99.0272
 30
0.0
 11
218.371
 21
99.0272
 31
0.0
  0
LINE
  8
0
 62
     0
 10
218.371
 20
99.0272
 30
0.0
 11
218.371
 21
95.9294
 31
0.0
  0
LINE
  8
0
 62
     0
 10
218.371
 20
95.9294
 30
0.0
 11
219.17
 21
95.9294
 31
0.0
  0
LINE
  8
0
 62
     0
 10
219.17
 20
95.9294
 30
0.0
 11
219.17
 21
90.1277
 31
0.0
  0
LINE
  8
0
 62
     0
 10
219.17
 20
90.1277
 30
0.0
 11
218.371
 21
90.1277
 31
0.0
  0
LINE
  8
0
 62
     0
 10
218.371
 20
90.1277
 30
0.0
 11
218.371
 21
87.0271
 31
0.0
  0
LINE
  8
0
 62
     0
 10
218.371
 20
87.0271
 30
0.0
 11
219.17
 21
87.0271
 31
0.0
  0
LINE
  8
0
 62
     0
 10
219.17
 20
87.0271
 30
0.0
 11
219.17
 21
86.028
 31
0.0
  0
LINE
  8
0
 62
     0
 10
219.17
 20
86.028
 30
0.0
 11
233.171
 21
86.028
 31
0.0
  0
LINE
  8
0
 62
     0
 10
233.171
 20
86.028
 30
0.0
 11
233.171
 21
87.0271
 31
0.0
  0
LINE
  8
0
 62
     0
 10
233.171
 20
87.0271
 30
0.0
 11
233.97
 21
87.0271
 31
0.0
  0
LINE
  8
0
 62
     0
 10
233.97
 20
87.0271
 30
0.0
 11
233.97
 21
90.1277
 31
0.0
  0
LINE
  8
0
 62
     0
 10
233.97
 20
90.1277
 30
0.0
 11
233.171
 21
90.1277
 31
0.0
  0
LINE
  8
0
 62
     0
 10
233.171
 20
90.1277
 30
0.0
 11
233.171
 21
95.9294
 31
0.0
  0
LINE
  8
0
 62
     0
 10
233.171
 20
95.9294
 30
0.0
 11
233.97
 21
95.9294
 31
0.0
  0
LINE
  8
0
 62
     0
 10
233.97
 20
95.9294
 30
0.0
 11
233.97
 21
99.0272
 31
0.0
  0
LINE
  8
0
 62
     0
 10
233.97
 20
99.0272
 30
0.0
 11
233.171
 21
99.0272
 31
0.0
  0
LINE
  8
0
 62
     0
 10
233.171
 20
99.0272
 30
0.0
 11
233.171
 21
100.028
 31
0.0
  0
LINE
  8
0
 62
     0
 10
233.171
 20
100.028
 30
0.0
 11
219.17
 21
100.028
 31
0.0
  0
LINE
  8
0
 62
     0
 10
200.12
 20
100.028
 30
0.0
 11
200.12
 21
99.0272
 31
0.0
  0
LINE
  8
0
 62
     0
 10
200.12
 20
99.0272
 30
0.0
 11
199.321
 21
99.0272
 31
0.0
  0
LINE
  8
0
 62
     0
 10
199.321
 20
99.0272
 30
0.0
 11
199.321
 21
95.9294
 31
0.0
  0
LINE
  8
0
 62
     0
 10
199.321
 20
95.9294
 30
0.0
 11
200.12
 21
95.9294
 31
0.0
  0
LINE
  8
0
 62
     0
 10
200.12
 20
95.9294
 30
0.0
 11
200.12
 21
90.1277
 31
0.0
  0
LINE
  8
0
 62
     0
 10
200.12
 20
90.1277
 30
0.0
 11
199.321
 21
90.1277
 31
0.0
  0
LINE
  8
0
 62
     0
 10
199.321
 20
90.1277
 30
0.0
 11
199.321
 21
87.0271
 31
0.0
  0
LINE
  8
0
 62
     0
 10
199.321
 20
87.0271
 30
0.0
 11
200.12
 21
87.0271
 31
0.0
  0
LINE
  8
0
 62
     0
 10
200.12
 20
87.0271
 30
0.0
 11
200.12
 21
86.028
 31
0.0
  0
LINE
  8
0
 62
     0
 10
200.12
 20
86.028
 30
0.0
 11
214.121
 21
86.028
 31
0.0
  0
LINE
  8
0
 62
     0
 10
214.121
 20
86.028
 30
0.0
 11
214.121
 21
87.0271
 31
0.0
  0
LINE
  8
0
 62
     0
 10
214.121
 20
87.0271
 30
0.0
 11
214.92
 21
87.0271
 31
0.0
  0
LINE
  8
0
 62
     0
 10
214.92
 20
87.0271
 30
0.0
 11
214.92
 21
90.1277
 31
0.0
  0
LINE
  8
0
 62
     0
 10
214.92
 20
90.1277
 30
0.0
 11
214.121
 21
90.1277
 31
0.0
  0
LINE
  8
0
 62
     0
 10
214.121
 20
90.1277
 30
0.0
 11
214.121
 21
95.9294
 31
0.0
  0
LINE
  8
0
 62
     0
 10
214.121
 20
95.9294
 30
0.0
 11
214.92
 21
95.9294
 31
0.0
  0
LINE
  8
0
 62
     0
 10
214.92
 20
95.9294
 30
0.0
 11
214.92
 21
99.0272
 31
0.0
  0
LINE
  8
0
 62
     0
 10
214.92
 20
99.0272
 30
0.0
 11
214.121
 21
99.0272
 31
0.0
  0
LINE
  8
0
 62
     0
 10
214.121
 20
99.0272
 30
0.0
 11
214.121
 21
100.028
 31
0.0
  0
LINE
  8
0
 62
     0
 10
214.121
 20
100.028
 30
0.0
 11
200.12
 21
100.028
 31
0.0
  0
LINE
  8
0
 62
     0
 10
181.07
 20
100.028
 30
0.0
 11
181.07
 21
99.0272
 31
0.0
  0
LINE
  8
0
 62
     0
 10
181.07
 20
99.0272
 30
0.0
 11
180.271
 21
99.0272
 31
0.0
  0
LINE
  8
0
 62
     0
 10
180.271
 20
99.0272
 30
0.0
 11
180.271
 21
95.9294
 31
0.0
  0
LINE
  8
0
 62
     0
 10
180.271
 20
95.9294
 30
0.0
 11
181.07
 21
95.9294
 31
0.0
  0
LINE
  8
0
 62
     0
 10
181.07
 20
95.9294
 30
0.0
 11
181.07
 21
90.1277
 31
0.0
  0
LINE
  8
0
 62
     0
 10
181.07
 20
90.1277
 30
0.0
 11
180.271
 21
90.1277
 31
0.0
  0
LINE
  8
0
 62
     0
 10
180.271
 20
90.1277
 30
0.0
 11
180.271
 21
87.0271
 31
0.0
  0
LINE
  8
0
 62
     0
 10
180.271
 20
87.0271
 30
0.0
 11
181.07
 21
87.0271
 31
0.0
  0
LINE
  8
0
 62
     0
 10
181.07
 20
87.0271
 30
0.0
 11
181.07
 21
86.028
 31
0.0
  0
LINE
  8
0
 62
     0
 10
181.07
 20
86.028
 30
0.0
 11
195.071
 21
86.028
 31
0.0
  0
LINE
  8
0
 62
     0
 10
195.071
 20
86.028
 30
0.0
 11
195.071
 21
87.0271
 31
0.0
  0
LINE
  8
0
 62
     0
 10
195.071
 20
87.0271
 30
0.0
 11
195.87
 21
87.0271
 31
0.0
  0
LINE
  8
0
 62
     0
 10
195.87
 20
87.0271
 30
0.0
 11
195.87
 21
90.1277
 31
0.0
  0
LINE
  8
0
 62
     0
 10
195.87
 20
90.1277
 30
0.0
 11
195.071
 21
90.1277
 31
0.0
  0
LINE
  8
0
 62
     0
 10
195.071
 20
90.1277
 30
0.0
 11
195.071
 21
95.9294
 31
0.0
  0
LINE
  8
0
 62
     0
 10
195.071
 20
95.9294
 30
0.0
 11
195.87
 21
95.9294
 31
0.0
  0
LINE
  8
0
 62
     0
 10
195.87
 20
95.9294
 30
0.0
 11
195.87
 21
99.0272
 31
0.0
  0
LINE
  8
0
 62
     0
 10
195.87
 20
99.0272
 30
0.0
 11
195.071
 21
99.0272
 31
0.0
  0
LINE
  8
0
 62
     0
 10
195.071
 20
99.0272
 30
0.0
 11
195.071
 21
100.028
 31
0.0
  0
LINE
  8
0
 62
     0
 10
195.071
 20
100.028
 30
0.0
 11
181.07
 21
100.028
 31
0.0
  0
LINE
  8
0
 62
     0
 10
162.02
 20
100.028
 30
0.0
 11
162.02
 21
99.0272
 31
0.0
  0
LINE
  8
0
 62
     0
 10
162.02
 20
99.0272
 30
0.0
 11
161.221
 21
99.0272
 31
0.0
  0
LINE
  8
0
 62
     0
 10
161.221
 20
99.0272
 30
0.0
 11
161.221
 21
95.9294
 31
0.0
  0
LINE
  8
0
 62
     0
 10
161.221
 20
95.9294
 30
0.0
 11
162.02
 21
95.9294
 31
0.0
  0
LINE
  8
0
 62
     0
 10
162.02
 20
95.9294
 30
0.0
 11
162.02
 21
90.1277
 31
0.0
  0
LINE
  8
0
 62
     0
 10
162.02
 20
90.1277
 30
0.0
 11
161.221
 21
90.1277
 31
0.0
  0
LINE
  8
0
 62
     0
 10
161.221
 20
90.1277
 30
0.0
 11
161.221
 21
87.0271
 31
0.0
  0
LINE
  8
0
 62
     0
 10
161.221
 20
87.0271
 30
0.0
 11
162.02
 21
87.0271
 31
0.0
  0
LINE
  8
0
 62
     0
 10
162.02
 20
87.0271
 30
0.0
 11
162.02
 21
86.028
 31
0.0
  0
LINE
  8
0
 62
     0
 10
162.02
 20
86.028
 30
0.0
 11
176.021
 21
86.028
 31
0.0
  0
LINE
  8
0
 62
     0
 10
176.021
 20
86.028
 30
0.0
 11
176.021
 21
87.0271
 31
0.0
  0
LINE
  8
0
 62
     0
 10
176.021
 20
87.0271
 30
0.0
 11
176.82
 21
87.0271
 31
0.0
  0
LINE
  8
0
 62
     0
 10
176.82
 20
87.0271
 30
0.0
 11
176.82
 21
90.1277
 31
0.0
  0
LINE
  8
0
 62
     0
 10
176.82
 20
90.1277
 30
0.0
 11
176.021
 21
90.1277
 31
0.0
  0
LINE
  8
0
 62
     0
 10
176.021
 20
90.1277
 30
0.0
 11
176.021
 21
95.9294
 31
0.0
  0
LINE
  8
0
 62
     0
 10
176.021
 20
95.9294
 30
0.0
 11
176.82
 21
95.9294
 31
0.0
  0
LINE
  8
0
 62
     0
 10
176.82
 20
95.9294
 30
0.0
 11
176.82
 21
99.0272
 31
0.0
  0
LINE
  8
0
 62
     0
 10
176.82
 20
99.0272
 30
0.0
 11
176.021
 21
99.0272
 31
0.0
  0
LINE
  8
0
 62
     0
 10
176.021
 20
99.0272
 30
0.0
 11
176.021
 21
100.028
 31
0.0
  0
LINE
  8
0
 62
     0
 10
176.021
 20
100.028
 30
0.0
 11
162.02
 21
100.028
 31
0.0
  0
LINE
  8
0
 62
     0
 10
142.97
 20
100.028
 30
0.0
 11
142.97
 21
99.0272
 31
0.0
  0
LINE
  8
0
 62
     0
 10
142.97
 20
99.0272
 30
0.0
 11
142.171
 21
99.0272
 31
0.0
  0
LINE
  8
0
 62
     0
 10
142.171
 20
99.0272
 30
0.0
 11
142.171
 21
95.9294
 31
0.0
  0
LINE
  8
0
 62
     0
 10
142.171
 20
95.9294
 30
0.0
 11
142.97
 21
95.9294
 31
0.0
  0
LINE
  8
0
 62
     0
 10
142.97
 20
95.9294
 30
0.0
 11
142.97
 21
90.1277
 31
0.0
  0
LINE
  8
0
 62
     0
 10
142.97
 20
90.1277
 30
0.0
 11
142.171
 21
90.1277
 31
0.0
  0
LINE
  8
0
 62
     0
 10
142.171
 20
90.1277
 30
0.0
 11
142.171
 21
87.0271
 31
0.0
  0
LINE
  8
0
 62
     0
 10
142.171
 20
87.0271
 30
0.0
 11
142.97
 21
87.0271
 31
0.0
  0
LINE
  8
0
 62
     0
 10
142.97
 20
87.0271
 30
0.0
 11
142.97
 21
86.028
 31
0.0
  0
LINE
  8
0
 62
     0
 10
142.97
 20
86.028
 30
0.0
 11
156.971
 21
86.028
 31
0.0
  0
LINE
  8
0
 62
     0
 10
156.971
 20
86.028
 30
0.0
 11
156.971
 21
87.0271
 31
0.0
  0
LINE
  8
0
 62
     0
 10
156.971
 20
87.0271
 30
0.0
 11
157.77
 21
87.0271
 31
0.0
  0
LINE
  8
0
 62
     0
 10
157.77
 20
87.0271
 30
0.0
 11
157.77
 21
90.1277
 31
0.0
  0
LINE
  8
0
 62
     0
 10
157.77
 20
90.1277
 30
0.0
 11
156.971
 21
90.1277
 31
0.0
  0
LINE
  8
0
 62
     0
 10
156.971
 20
90.1277
 30
0.0
 11
156.971
 21
95.9294
 31
0.0
  0
LINE
  8
0
 62
     0
 10
156.971
 20
95.9294
 30
0.0
 11
157.77
 21
95.9294
 31
0.0
  0
LINE
  8
0
 62
     0
 10
157.77
 20
95.9294
 30
0.0
 11
157.77
 21
99.0272
 31
0.0
  0
LINE
  8
0
 62
     0
 10
157.77
 20
99.0272
 30
0.0
 11
156.971
 21
99.0272
 31
0.0
  0
LINE
  8
0
 62
     0
 10
156.971
 20
99.0272
 30
0.0
 11
156.971
 21
100.028
 31
0.0
  0
LINE
  8
0
 62
     0
 10
156.971
 20
100.028
 30
0.0
 11
142.97
 21
100.028
 31
0.0
  0
LINE
  8
0
 62
     0
 10
123.92
 20
100.028
 30
0.0
 11
123.92
 21
99.0272
 31
0.0
  0
LINE
  8
0
 62
     0
 10
123.92
 20
99.0272
 30
0.0
 11
123.119
 21
99.0272
 31
0.0
  0
LINE
  8
0
 62
     0
 10
123.119
 20
99.0272
 30
0.0
 11
123.119
 21
95.9294
 31
0.0
  0
LINE
  8
0
 62
     0
 10
123.119
 20
95.9294
 30
0.0
 11
123.92
 21
95.9294
 31
0.0
  0
LINE
  8
0
 62
     0
 10
123.92
 20
95.9294
 30
0.0
 11
123.92
 21
90.1277
 31
0.0
  0
LINE
  8
0
 62
     0
 10
123.92
 20
90.1277
 30
0.0
 11
123.119
 21
90.1277
 31
0.0
  0
LINE
  8
0
 62
     0
 10
123.119
 20
90.1277
 30
0.0
 11
123.119
 21
87.0271
 31
0.0
  0
LINE
  8
0
 62
     0
 10
123.119
 20
87.0271
 30
0.0
 11
123.92
 21
87.0271
 31
0.0
  0
LINE
  8
0
 62
     0
 10
123.92
 20
87.0271
 30
0.0
 11
123.92
 21
86.028
 31
0.0
  0
LINE
  8
0
 62
     0
 10
123.92
 20
86.028
 30
0.0
 11
137.921
 21
86.028
 31
0.0
  0
LINE
  8
0
 62
     0
 10
137.921
 20
86.028
 30
0.0
 11
137.921
 21
87.0271
 31
0.0
  0
LINE
  8
0
 62
     0
 10
137.921
 20
87.0271
 30
0.0
 11
138.72
 21
87.0271
 31
0.0
  0
LINE
  8
0
 62
     0
 10
138.72
 20
87.0271
 30
0.0
 11
138.72
 21
90.1277
 31
0.0
  0
LINE
  8
0
 62
     0
 10
138.72
 20
90.1277
 30
0.0
 11
137.921
 21
90.1277
 31
0.0
  0
LINE
  8
0
 62
     0
 10
137.921
 20
90.1277
 30
0.0
 11
137.921
 21
95.9294
 31
0.0
  0
LINE
  8
0
 62
     0
 10
137.921
 20
95.9294
 30
0.0
 11
138.72
 21
95.9294
 31
0.0
  0
LINE
  8
0
 62
     0
 10
138.72
 20
95.9294
 30
0.0
 11
138.72
 21
99.0272
 31
0.0
  0
LINE
  8
0
 62
     0
 10
138.72
 20
99.0272
 30
0.0
 11
137.921
 21
99.0272
 31
0.0
  0
LINE
  8
0
 62
     0
 10
137.921
 20
99.0272
 30
0.0
 11
137.921
 21
100.028
 31
0.0
  0
LINE
  8
0
 62
     0
 10
137.921
 20
100.028
 30
0.0
 11
123.92
 21
100.028
 31
0.0
  0
LINE
  8
0
 62
     0
 10
104.87
 20
100.028
 30
0.0
 11
104.87
 21
99.0272
 31
0.0
  0
LINE
  8
0
 62
     0
 10
104.87
 20
99.0272
 30
0.0
 11
104.071
 21
99.0272
 31
0.0
  0
LINE
  8
0
 62
     0
 10
104.071
 20
99.0272
 30
0.0
 11
104.071
 21
95.9294
 31
0.0
  0
LINE
  8
0
 62
     0
 10
104.071
 20
95.9294
 30
0.0
 11
104.87
 21
95.9294
 31
0.0
  0
LINE
  8
0
 62
     0
 10
104.87
 20
95.9294
 30
0.0
 11
104.87
 21
90.1277
 31
0.0
  0
LINE
  8
0
 62
     0
 10
104.87
 20
90.1277
 30
0.0
 11
104.071
 21
90.1277
 31
0.0
  0
LINE
  8
0
 62
     0
 10
104.071
 20
90.1277
 30
0.0
 11
104.071
 21
87.0271
 31
0.0
  0
LINE
  8
0
 62
     0
 10
104.071
 20
87.0271
 30
0.0
 11
104.87
 21
87.0271
 31
0.0
  0
LINE
  8
0
 62
     0
 10
104.87
 20
87.0271
 30
0.0
 11
104.87
 21
86.028
 31
0.0
  0
LINE
  8
0
 62
     0
 10
104.87
 20
86.028
 30
0.0
 11
118.87
 21
86.028
 31
0.0
  0
LINE
  8
0
 62
     0
 10
118.87
 20
86.028
 30
0.0
 11
118.87
 21
87.0271
 31
0.0
  0
LINE
  8
0
 62
     0
 10
118.87
 20
87.0271
 30
0.0
 11
119.669
 21
87.0271
 31
0.0
  0
LINE
  8
0
 62
     0
 10
119.669
 20
87.0271
 30
0.0
 11
119.669
 21
90.1277
 31
0.0
  0
LINE
  8
0
 62
     0
 10
119.669
 20
90.1277
 30
0.0
 11
118.87
 21
90.1277
 31
0.0
  0
LINE
  8
0
 62
     0
 10
118.87
 20
90.1277
 30
0.0
 11
118.87
 21
95.9294
 31
0.0
  0
LINE
  8
0
 62
     0
 10
118.87
 20
95.9294
 30
0.0
 11
119.669
 21
95.9294
 31
0.0
  0
LINE
  8
0
 62
     0
 10
119.669
 20
95.9294
 30
0.0
 11
119.669
 21
99.0272
 31
0.0
  0
LINE
  8
0
 62
     0
 10
119.669
 20
99.0272
 30
0.0
 11
118.87
 21
99.0272
 31
0.0
  0
LINE
  8
0
 62
     0
 10
118.87
 20
99.0272
 30
0.0
 11
118.87
 21
100.028
 31
0.0
  0
LINE
  8
0
 62
     0
 10
118.87
 20
100.028
 30
0.0
 11
104.87
 21
100.028
 31
0.0
  0
LINE
  8
0
 62
     0
 10
85.8203
 20
100.028
 30
0.0
 11
85.8203
 21
99.0272
 31
0.0
  0
LINE
  8
0
 62
     0
 10
85.8203
 20
99.0272
 30
0.0
 11
85.0209
 21
99.0272
 31
0.0
  0
LINE
  8
0
 62
     0
 10
85.0209
 20
99.0272
 30
0.0
 11
85.0209
 21
95.9294
 31
0.0
  0
LINE
  8
0
 62
     0
 10
85.0209
 20
95.9294
 30
0.0
 11
85.8203
 21
95.9294
 31
0.0
  0
LINE
  8
0
 62
     0
 10
85.8203
 20
95.9294
 30
0.0
 11
85.8203
 21
90.1277
 31
0.0
  0
LINE
  8
0
 62
     0
 10
85.8203
 20
90.1277
 30
0.0
 11
85.0209
 21
90.1277
 31
0.0
  0
LINE
  8
0
 62
     0
 10
85.0209
 20
90.1277
 30
0.0
 11
85.0209
 21
87.0271
 31
0.0
  0
LINE
  8
0
 62
     0
 10
85.0209
 20
87.0271
 30
0.0
 11
85.8203
 21
87.0271
 31
0.0
  0
LINE
  8
0
 62
     0
 10
85.8203
 20
87.0271
 30
0.0
 11
85.8203
 21
86.028
 31
0.0
  0
LINE
  8
0
 62
     0
 10
85.8203
 20
86.028
 30
0.0
 11
99.8209
 21
86.028
 31
0.0
  0
LINE
  8
0
 62
     0
 10
99.8209
 20
86.028
 30
0.0
 11
99.8209
 21
87.0271
 31
0.0
  0
LINE
  8
0
 62
     0
 10
99.8209
 20
87.0271
 30
0.0
 11
100.619
 21
87.0271
 31
0.0
  0
LINE
  8
0
 62
     0
 10
100.619
 20
87.0271
 30
0.0
 11
100.619
 21
90.1277
 31
0.0
  0
LINE
  8
0
 62
     0
 10
100.619
 20
90.1277
 30
0.0
 11
99.8209
 21
90.1277
 31
0.0
  0
LINE
  8
0
 62
     0
 10
99.8209
 20
90.1277
 30
0.0
 11
99.8209
 21
95.9294
 31
0.0
  0
LINE
  8
0
 62
     0
 10
99.8209
 20
95.9294
 30
0.0
 11
100.619
 21
95.9294
 31
0.0
  0
LINE
  8
0
 62
     0
 10
100.619
 20
95.9294
 30
0.0
 11
100.619
 21
99.0272
 31
0.0
  0
LINE
  8
0
 62
     0
 10
100.619
 20
99.0272
 30
0.0
 11
99.8209
 21
99.0272
 31
0.0
  0
LINE
  8
0
 62
     0
 10
99.8209
 20
99.0272
 30
0.0
 11
99.8209
 21
100.028
 31
0.0
  0
LINE
  8
0
 62
     0
 10
99.8209
 20
100.028
 30
0.0
 11
85.8203
 21
100.028
 31
0.0
  0
LINE
  8
0
 62
     0
 10
66.7703
 20
100.028
 30
0.0
 11
66.7703
 21
99.0272
 31
0.0
  0
LINE
  8
0
 62
     0
 10
66.7703
 20
99.0272
 30
0.0
 11
65.9709
 21
99.0272
 31
0.0
  0
LINE
  8
0
 62
     0
 10
65.9709
 20
99.0272
 30
0.0
 11
65.9709
 21
95.9294
 31
0.0
  0
LINE
  8
0
 62
     0
 10
65.9709
 20
95.9294
 30
0.0
 11
66.7703
 21
95.9294
 31
0.0
  0
LINE
  8
0
 62
     0
 10
66.7703
 20
95.9294
 30
0.0
 11
66.7703
 21
90.1277
 31
0.0
  0
LINE
  8
0
 62
     0
 10
66.7703
 20
90.1277
 30
0.0
 11
65.9709
 21
90.1277
 31
0.0
  0
LINE
  8
0
 62
     0
 10
65.9709
 20
90.1277
 30
0.0
 11
65.9709
 21
87.0271
 31
0.0
  0
LINE
  8
0
 62
     0
 10
65.9709
 20
87.0271
 30
0.0
 11
66.7703
 21
87.0271
 31
0.0
  0
LINE
  8
0
 62
     0
 10
66.7703
 20
87.0271
 30
0.0
 11
66.7703
 21
86.028
 31
0.0
  0
LINE
  8
0
 62
     0
 10
66.7703
 20
86.028
 30
0.0
 11
80.7709
 21
86.028
 31
0.0
  0
LINE
  8
0
 62
     0
 10
80.7709
 20
86.028
 30
0.0
 11
80.7709
 21
87.0271
 31
0.0
  0
LINE
  8
0
 62
     0
 10
80.7709
 20
87.0271
 30
0.0
 11
81.5703
 21
87.0271
 31
0.0
  0
LINE
  8
0
 62
     0
 10
81.5703
 20
87.0271
 30
0.0
 11
81.5703
 21
90.1277
 31
0.0
  0
LINE
  8
0
 62
     0
 10
81.5703
 20
90.1277
 30
0.0
 11
80.7709
 21
90.1277
 31
0.0
  0
LINE
  8
0
 62
     0
 10
80.7709
 20
90.1277
 30
0.0
 11
80.7709
 21
95.9294
 31
0.0
  0
LINE
  8
0
 62
     0
 10
80.7709
 20
95.9294
 30
0.0
 11
81.5703
 21
95.9294
 31
0.0
  0
LINE
  8
0
 62
     0
 10
81.5703
 20
95.9294
 30
0.0
 11
81.5703
 21
99.0272
 31
0.0
  0
LINE
  8
0
 62
     0
 10
81.5703
 20
99.0272
 30
0.0
 11
80.7709
 21
99.0272
 31
0.0
  0
LINE
  8
0
 62
     0
 10
80.7709
 20
99.0272
 30
0.0
 11
80.7709
 21
100.028
 31
0.0
  0
LINE
  8
0
 62
     0
 10
80.7709
 20
100.028
 30
0.0
 11
66.7703
 21
100.028
 31
0.0
  0
LINE
  8
0
 62
     0
 10
47.7203
 20
100.028
 30
0.0
 11
47.7203
 21
99.0272
 31
0.0
  0
LINE
  8
0
 62
     0
 10
47.7203
 20
99.0272
 30
0.0
 11
46.9209
 21
99.0272
 31
0.0
  0
LINE
  8
0
 62
     0
 10
46.9209
 20
99.0272
 30
0.0
 11
46.9209
 21
95.9294
 31
0.0
  0
LINE
  8
0
 62
     0
 10
46.9209
 20
95.9294
 30
0.0
 11
47.7203
 21
95.9294
 31
0.0
  0
LINE
  8
0
 62
     0
 10
47.7203
 20
95.9294
 30
0.0
 11
47.7203
 21
90.1277
 31
0.0
  0
LINE
  8
0
 62
     0
 10
47.7203
 20
90.1277
 30
0.0
 11
46.9209
 21
90.1277
 31
0.0
  0
LINE
  8
0
 62
     0
 10
46.9209
 20
90.1277
 30
0.0
 11
46.9209
 21
87.0271
 31
0.0
  0
LINE
  8
0
 62
     0
 10
46.9209
 20
87.0271
 30
0.0
 11
47.7203
 21
87.0271
 31
0.0
  0
LINE
  8
0
 62
     0
 10
47.7203
 20
87.0271
 30
0.0
 11
47.7203
 21
86.028
 31
0.0
  0
LINE
  8
0
 62
     0
 10
47.7203
 20
86.028
 30
0.0
 11
61.7209
 21
86.028
 31
0.0
  0
LINE
  8
0
 62
     0
 10
61.7209
 20
86.028
 30
0.0
 11
61.7209
 21
87.0271
 31
0.0
  0
LINE
  8
0
 62
     0
 10
61.7209
 20
87.0271
 30
0.0
 11
62.5203
 21
87.0271
 31
0.0
  0
LINE
  8
0
 62
     0
 10
62.5203
 20
87.0271
 30
0.0
 11
62.5203
 21
90.1277
 31
0.0
  0
LINE
  8
0
 62
     0
 10
62.5203
 20
90.1277
 30
0.0
 11
61.7209
 21
90.1277
 31
0.0
  0
LINE
  8
0
 62
     0
 10
61.7209
 20
90.1277
 30
0.0
 11
61.7209
 21
95.9294
 31
0.0
  0
LINE
  8
0
 62
     0
 10
61.7209
 20
95.9294
 30
0.0
 11
62.5203
 21
95.9294
 31
0.0
  0
LINE
  8
0
 62
     0
 10
62.5203
 20
95.9294
 30
0.0
 11
62.5203
 21
99.0272
 31
0.0
  0
LINE
  8
0
 62
     0
 10
62.5203
 20
99.0272
 30
0.0
 11
61.7209
 21
99.0272
 31
0.0
  0
LINE
  8
0
 62
     0
 10
61.7209
 20
99.0272
 30
0.0
 11
61.7209
 21
100.028
 31
0.0
  0
LINE
  8
0
 62
     0
 10
61.7209
 20
100.028
 30
0.0
 11
47.7203
 21
100.028
 31
0.0
  0
LINE
  8
0
 62
     0
 10
28.6701
 20
100.028
 30
0.0
 11
28.6701
 21
99.0272
 31
0.0
  0
LINE
  8
0
 62
     0
 10
28.6701
 20
99.0272
 30
0.0
 11
27.8708
 21
99.0272
 31
0.0
  0
LINE
  8
0
 62
     0
 10
27.8708
 20
99.0272
 30
0.0
 11
27.8708
 21
95.9294
 31
0.0
  0
LINE
  8
0
 62
     0
 10
27.8708
 20
95.9294
 30
0.0
 11
28.6701
 21
95.9294
 31
0.0
  0
LINE
  8
0
 62
     0
 10
28.6701
 20
95.9294
 30
0.0
 11
28.6701
 21
90.1277
 31
0.0
  0
LINE
  8
0
 62
     0
 10
28.6701
 20
90.1277
 30
0.0
 11
27.8708
 21
90.1277
 31
0.0
  0
LINE
  8
0
 62
     0
 10
27.8708
 20
90.1277
 30
0.0
 11
27.8708
 21
87.0271
 31
0.0
  0
LINE
  8
0
 62
     0
 10
27.8708
 20
87.0271
 30
0.0
 11
28.6701
 21
87.0271
 31
0.0
  0
LINE
  8
0
 62
     0
 10
28.6701
 20
87.0271
 30
0.0
 11
28.6701
 21
86.028
 31
0.0
  0
LINE
  8
0
 62
     0
 10
28.6701
 20
86.028
 30
0.0
 11
42.6709
 21
86.028
 31
0.0
  0
LINE
  8
0
 62
     0
 10
42.6709
 20
86.028
 30
0.0
 11
42.6709
 21
87.0271
 31
0.0
  0
LINE
  8
0
 62
     0
 10
42.6709
 20
87.0271
 30
0.0
 11
43.4703
 21
87.0271
 31
0.0
  0
LINE
  8
0
 62
     0
 10
43.4703
 20
87.0271
 30
0.0
 11
43.4703
 21
90.1277
 31
0.0
  0
LINE
  8
0
 62
     0
 10
43.4703
 20
90.1277
 30
0.0
 11
42.6709
 21
90.1277
 31
0.0
  0
LINE
  8
0
 62
     0
 10
42.6709
 20
90.1277
 30
0.0
 11
42.6709
 21
95.9294
 31
0.0
  0
LINE
  8
0
 62
     0
 10
42.6709
 20
95.9294
 30
0.0
 11
43.4703
 21
95.9294
 31
0.0
  0
LINE
  8
0
 62
     0
 10
43.4703
 20
95.9294
 30
0.0
 11
43.4703
 21
99.0272
 31
0.0
  0
LINE
  8
0
 62
     0
 10
43.4703
 20
99.0272
 30
0.0
 11
42.6709
 21
99.0272
 31
0.0
  0
LINE
  8
0
 62
     0
 10
42.6709
 20
99.0272
 30
0.0
 11
42.6709
 21
100.028
 31
0.0
  0
LINE
  8
0
 62
     0
 10
42.6709
 20
100.028
 30
0.0
 11
28.6701
 21
100.028
 31
0.0
  0
LINE
  8
0
 62
     0
 10
9.62007
 20
100.028
 30
0.0
 11
9.62007
 21
99.0272
 31
0.0
  0
LINE
  8
0
 62
     0
 10
9.62007
 20
99.0272
 30
0.0
 11
8.81944
 21
99.0272
 31
0.0
  0
LINE
  8
0
 62
     0
 10
8.81944
 20
99.0272
 30
0.0
 11
8.81944
 21
95.9294
 31
0.0
  0
LINE
  8
0
 62
     0
 10
8.81944
 20
95.9294
 30
0.0
 11
9.62007
 21
95.9294
 31
0.0
  0
LINE
  8
0
 62
     0
 10
9.62007
 20
95.9294
 30
0.0
 11
9.62007
 21
90.1277
 31
0.0
  0
LINE
  8
0
 62
     0
 10
9.62007
 20
90.1277
 30
0.0
 11
8.81944
 21
90.1277
 31
0.0
  0
LINE
  8
0
 62
     0
 10
8.81944
 20
90.1277
 30
0.0
 11
8.81944
 21
87.0271
 31
0.0
  0
LINE
  8
0
 62
     0
 10
8.81944
 20
87.0271
 30
0.0
 11
9.62007
 21
87.0271
 31
0.0
  0
LINE
  8
0
 62
     0
 10
9.62007
 20
87.0271
 30
0.0
 11
9.62007
 21
86.028
 31
0.0
  0
LINE
  8
0
 62
     0
 10
9.62007
 20
86.028
 30
0.0
 11
23.6209
 21
86.028
 31
0.0
  0
LINE
  8
0
 62
     0
 10
23.6209
 20
86.028
 30
0.0
 11
23.6209
 21
87.0271
 31
0.0
  0
LINE
  8
0
 62
     0
 10
23.6209
 20
87.0271
 30
0.0
 11
24.4202
 21
87.0271
 31
0.0
  0
LINE
  8
0
 62
     0
 10
24.4202
 20
87.0271
 30
0.0
 11
24.4202
 21
90.1277
 31
0.0
  0
LINE
  8
0
 62
     0
 10
24.4202
 20
90.1277
 30
0.0
 11
23.6209
 21
90.1277
 31
0.0
  0
LINE
  8
0
 62
     0
 10
23.6209
 20
90.1277
 30
0.0
 11
23.6209
 21
95.9294
 31
0.0
  0
LINE
  8
0
 62
     0
 10
23.6209
 20
95.9294
 30
0.0
 11
24.4202
 21
95.9294
 31
0.0
  0
LINE
  8
0
 62
     0
 10
24.4202
 20
95.9294
 30
0.0
 11
24.4202
 21
99.0272
 31
0.0
  0
LINE
  8
0
 62
     0
 10
24.4202
 20
99.0272
 30
0.0
 11
23.6209
 21
99.0272
 31
0.0
  0
LINE
  8
0
 62
     0
 10
23.6209
 20
99.0272
 30
0.0
 11
23.6209
 21
100.028
 31
0.0
  0
LINE
  8
0
 62
     0
 10
23.6209
 20
100.028
 30
0.0
 11
9.62007
 21
100.028
 31
0.0
  0
LINE
  8
0
 62
     0
 10
3.06889
 20
94.3254
 30
0.0
 11
2.59485
 21
94.0827
 31
0.0
  0
LINE
  8
0
 62
     0
 10
2.59485
 20
94.0827
 30
0.0
 11
2.22002
 21
93.7066
 31
0.0
  0
LINE
  8
0
 62
     0
 10
2.22002
 20
93.7066
 30
0.0
 11
1.97886
 21
93.2325
 31
0.0
  0
LINE
  8
0
 62
     0
 10
1.97886
 20
93.2325
 30
0.0
 11
1.8948
 21
92.7075
 31
0.0
  0
LINE
  8
0
 62
     0
 10
1.8948
 20
92.7075
 30
0.0
 11
1.97886
 21
92.1826
 31
0.0
  0
LINE
  8
0
 62
     0
 10
1.97886
 20
92.1826
 30
0.0
 11
2.22002
 21
91.7085
 31
0.0
  0
LINE
  8
0
 62
     0
 10
2.22002
 20
91.7085
 30
0.0
 11
2.59485
 21
91.3324
 31
0.0
  0
LINE
  8
0
 62
     0
 10
2.59485
 20
91.3324
 30
0.0
 11
3.06889
 21
91.0911
 31
0.0
  0
LINE
  8
0
 62
     0
 10
3.06889
 20
91.0911
 30
0.0
 11
3.5953
 21
91.0085
 31
0.0
  0
LINE
  8
0
 62
     0
 10
3.5953
 20
91.0085
 30
0.0
 11
4.12034
 21
91.0911
 31
0.0
  0
LINE
  8
0
 62
     0
 10
4.12034
 20
91.0911
 30
0.0
 11
4.59437
 21
91.3324
 31
0.0
  0
LINE
  8
0
 62
     0
 10
4.59437
 20
91.3324
 30
0.0
 11
4.97057
 21
91.7085
 31
0.0
  0
LINE
  8
0
 62
     0
 10
4.97057
 20
91.7085
 30
0.0
 11
5.21173
 21
92.1826
 31
0.0
  0
LINE
  8
0
 62
     0
 10
5.21173
 20
92.1826
 30
0.0
 11
5.29579
 21
92.7075
 31
0.0
  0
LINE
  8
0
 62
     0
 10
5.29579
 20
92.7075
 30
0.0
 11
5.21173
 21
93.2325
 31
0.0
  0
LINE
  8
0
 62
     0
 10
5.21173
 20
93.2325
 30
0.0
 11
4.97057
 21
93.7066
 31
0.0
  0
LINE
  8
0
 62
     0
 10
4.97057
 20
93.7066
 30
0.0
 11
4.59437
 21
94.0827
 31
0.0
  0
LINE
  8
0
 62
     0
 10
4.59437
 20
94.0827
 30
0.0
 11
4.12034
 21
94.3254
 31
0.0
  0
LINE
  8
0
 62
     0
 10
4.12034
 20
94.3254
 30
0.0
 11
3.5953
 21
94.4079
 31
0.0
  0
LINE
  8
0
 62
     0
 10
3.5953
 20
94.4079
 30
0.0
 11
3.06889
 21
94.3254
 31
0.0
  0
LINE
  8
0
 62
     0
 10
314.871
 20
94.3254
 30
0.0
 11
314.397
 21
94.0827
 31
0.0
  0
LINE
  8
0
 62
     0
 10
314.397
 20
94.0827
 30
0.0
 11
314.021
 21
93.7066
 31
0.0
  0
LINE
  8
0
 62
     0
 10
314.021
 20
93.7066
 30
0.0
 11
313.779
 21
93.2325
 31
0.0
  0
LINE
  8
0
 62
     0
 10
313.779
 20
93.2325
 30
0.0
 11
313.697
 21
92.7075
 31
0.0
  0
LINE
  8
0
 62
     0
 10
313.697
 20
92.7075
 30
0.0
 11
313.779
 21
92.1826
 31
0.0
  0
LINE
  8
0
 62
     0
 10
313.779
 20
92.1826
 30
0.0
 11
314.021
 21
91.7085
 31
0.0
  0
LINE
  8
0
 62
     0
 10
314.021
 20
91.7085
 30
0.0
 11
314.397
 21
91.3324
 31
0.0
  0
LINE
  8
0
 62
     0
 10
314.397
 20
91.3324
 30
0.0
 11
314.871
 21
91.0911
 31
0.0
  0
LINE
  8
0
 62
     0
 10
314.871
 20
91.0911
 30
0.0
 11
315.397
 21
91.0085
 31
0.0
  0
LINE
  8
0
 62
     0
 10
315.397
 20
91.0085
 30
0.0
 11
315.922
 21
91.0911
 31
0.0
  0
LINE
  8
0
 62
     0
 10
315.922
 20
91.0911
 30
0.0
 11
316.395
 21
91.3324
 31
0.0
  0
LINE
  8
0
 62
     0
 10
316.395
 20
91.3324
 30
0.0
 11
316.771
 21
91.7085
 31
0.0
  0
LINE
  8
0
 62
     0
 10
316.771
 20
91.7085
 30
0.0
 11
317.012
 21
92.1826
 31
0.0
  0
LINE
  8
0
 62
     0
 10
317.012
 20
92.1826
 30
0.0
 11
317.096
 21
92.7075
 31
0.0
  0
LINE
  8
0
 62
     0
 10
317.096
 20
92.7075
 30
0.0
 11
317.012
 21
93.2325
 31
0.0
  0
LINE
  8
0
 62
     0
 10
317.012
 20
93.2325
 30
0.0
 11
316.771
 21
93.7066
 31
0.0
  0
LINE
  8
0
 62
     0
 10
316.771
 20
93.7066
 30
0.0
 11
316.395
 21
94.0827
 31
0.0
  0
LINE
  8
0
 62
     0
 10
316.395
 20
94.0827
 30
0.0
 11
315.922
 21
94.3254
 31
0.0
  0
LINE
  8
0
 62
     0
 10
315.922
 20
94.3254
 30
0.0
 11
315.397
 21
94.4079
 31
0.0
  0
LINE
  8
0
 62
     0
 10
315.397
 20
94.4079
 30
0.0
 11
314.871
 21
94.3254
 31
0.0
  0
LINE
  8
0
 62
     0
 10
295.37
 20
119.078
 30
0.0
 11
295.37
 21
118.077
 31
0.0
  0
LINE
  8
0
 62
     0
 10
295.37
 20
118.077
 30
0.0
 11
294.571
 21
118.077
 31
0.0
  0
LINE
  8
0
 62
     0
 10
294.571
 20
118.077
 30
0.0
 11
294.571
 21
114.979
 31
0.0
  0
LINE
  8
0
 62
     0
 10
294.571
 20
114.979
 30
0.0
 11
295.37
 21
114.979
 31
0.0
  0
LINE
  8
0
 62
     0
 10
295.37
 20
114.979
 30
0.0
 11
295.37
 21
109.178
 31
0.0
  0
LINE
  8
0
 62
     0
 10
295.37
 20
109.178
 30
0.0
 11
294.571
 21
109.178
 31
0.0
  0
LINE
  8
0
 62
     0
 10
294.571
 20
109.178
 30
0.0
 11
294.571
 21
106.077
 31
0.0
  0
LINE
  8
0
 62
     0
 10
294.571
 20
106.077
 30
0.0
 11
295.37
 21
106.077
 31
0.0
  0
LINE
  8
0
 62
     0
 10
295.37
 20
106.077
 30
0.0
 11
295.37
 21
105.078
 31
0.0
  0
LINE
  8
0
 62
     0
 10
295.37
 20
105.078
 30
0.0
 11
309.371
 21
105.078
 31
0.0
  0
LINE
  8
0
 62
     0
 10
309.371
 20
105.078
 30
0.0
 11
309.371
 21
106.077
 31
0.0
  0
LINE
  8
0
 62
     0
 10
309.371
 20
106.077
 30
0.0
 11
310.17
 21
106.077
 31
0.0
  0
LINE
  8
0
 62
     0
 10
310.17
 20
106.077
 30
0.0
 11
310.17
 21
109.178
 31
0.0
  0
LINE
  8
0
 62
     0
 10
310.17
 20
109.178
 30
0.0
 11
309.371
 21
109.178
 31
0.0
  0
LINE
  8
0
 62
     0
 10
309.371
 20
109.178
 30
0.0
 11
309.371
 21
114.979
 31
0.0
  0
LINE
  8
0
 62
     0
 10
309.371
 20
114.979
 30
0.0
 11
310.17
 21
114.979
 31
0.0
  0
LINE
  8
0
 62
     0
 10
310.17
 20
114.979
 30
0.0
 11
310.17
 21
118.077
 31
0.0
  0
LINE
  8
0
 62
     0
 10
310.17
 20
118.077
 30
0.0
 11
309.371
 21
118.077
 31
0.0
  0
LINE
  8
0
 62
     0
 10
309.371
 20
118.077
 30
0.0
 11
309.371
 21
119.078
 31
0.0
  0
LINE
  8
0
 62
     0
 10
309.371
 20
119.078
 30
0.0
 11
295.37
 21
119.078
 31
0.0
  0
LINE
  8
0
 62
     0
 10
276.32
 20
119.078
 30
0.0
 11
276.32
 21
118.077
 31
0.0
  0
LINE
  8
0
 62
     0
 10
276.32
 20
118.077
 30
0.0
 11
275.521
 21
118.077
 31
0.0
  0
LINE
  8
0
 62
     0
 10
275.521
 20
118.077
 30
0.0
 11
275.521
 21
114.979
 31
0.0
  0
LINE
  8
0
 62
     0
 10
275.521
 20
114.979
 30
0.0
 11
276.32
 21
114.979
 31
0.0
  0
LINE
  8
0
 62
     0
 10
276.32
 20
114.979
 30
0.0
 11
276.32
 21
109.178
 31
0.0
  0
LINE
  8
0
 62
     0
 10
276.32
 20
109.178
 30
0.0
 11
275.521
 21
109.178
 31
0.0
  0
LINE
  8
0
 62
     0
 10
275.521
 20
109.178
 30
0.0
 11
275.521
 21
106.077
 31
0.0
  0
LINE
  8
0
 62
     0
 10
275.521
 20
106.077
 30
0.0
 11
276.32
 21
106.077
 31
0.0
  0
LINE
  8
0
 62
     0
 10
276.32
 20
106.077
 30
0.0
 11
276.32
 21
105.078
 31
0.0
  0
LINE
  8
0
 62
     0
 10
276.32
 20
105.078
 30
0.0
 11
290.321
 21
105.078
 31
0.0
  0
LINE
  8
0
 62
     0
 10
290.321
 20
105.078
 30
0.0
 11
290.321
 21
106.077
 31
0.0
  0
LINE
  8
0
 62
     0
 10
290.321
 20
106.077
 30
0.0
 11
291.12
 21
106.077
 31
0.0
  0
LINE
  8
0
 62
     0
 10
291.12
 20
106.077
 30
0.0
 11
291.12
 21
109.178
 31
0.0
  0
LINE
  8
0
 62
     0
 10
291.12
 20
109.178
 30
0.0
 11
290.321
 21
109.178
 31
0.0
  0
LINE
  8
0
 62
     0
 10
290.321
 20
109.178
 30
0.0
 11
290.321
 21
114.979
 31
0.0
  0
LINE
  8
0
 62
     0
 10
290.321
 20
114.979
 30
0.0
 11
291.12
 21
114.979
 31
0.0
  0
LINE
  8
0
 62
     0
 10
291.12
 20
114.979
 30
0.0
 11
291.12
 21
118.077
 31
0.0
  0
LINE
  8
0
 62
     0
 10
291.12
 20
118.077
 30
0.0
 11
290.321
 21
118.077
 31
0.0
  0
LINE
  8
0
 62
     0
 10
290.321
 20
118.077
 30
0.0
 11
290.321
 21
119.078
 31
0.0
  0
LINE
  8
0
 62
     0
 10
290.321
 20
119.078
 30
0.0
 11
276.32
 21
119.078
 31
0.0
  0
LINE
  8
0
 62
     0
 10
257.27
 20
119.078
 30
0.0
 11
257.27
 21
118.077
 31
0.0
  0
LINE
  8
0
 62
     0
 10
257.27
 20
118.077
 30
0.0
 11
256.471
 21
118.077
 31
0.0
  0
LINE
  8
0
 62
     0
 10
256.471
 20
118.077
 30
0.0
 11
256.471
 21
114.979
 31
0.0
  0
LINE
  8
0
 62
     0
 10
256.471
 20
114.979
 30
0.0
 11
257.27
 21
114.979
 31
0.0
  0
LINE
  8
0
 62
     0
 10
257.27
 20
114.979
 30
0.0
 11
257.27
 21
109.178
 31
0.0
  0
LINE
  8
0
 62
     0
 10
257.27
 20
109.178
 30
0.0
 11
256.471
 21
109.178
 31
0.0
  0
LINE
  8
0
 62
     0
 10
256.471
 20
109.178
 30
0.0
 11
256.471
 21
106.077
 31
0.0
  0
LINE
  8
0
 62
     0
 10
256.471
 20
106.077
 30
0.0
 11
257.27
 21
106.077
 31
0.0
  0
LINE
  8
0
 62
     0
 10
257.27
 20
106.077
 30
0.0
 11
257.27
 21
105.078
 31
0.0
  0
LINE
  8
0
 62
     0
 10
257.27
 20
105.078
 30
0.0
 11
271.271
 21
105.078
 31
0.0
  0
LINE
  8
0
 62
     0
 10
271.271
 20
105.078
 30
0.0
 11
271.271
 21
106.077
 31
0.0
  0
LINE
  8
0
 62
     0
 10
271.271
 20
106.077
 30
0.0
 11
272.07
 21
106.077
 31
0.0
  0
LINE
  8
0
 62
     0
 10
272.07
 20
106.077
 30
0.0
 11
272.07
 21
109.178
 31
0.0
  0
LINE
  8
0
 62
     0
 10
272.07
 20
109.178
 30
0.0
 11
271.271
 21
109.178
 31
0.0
  0
LINE
  8
0
 62
     0
 10
271.271
 20
109.178
 30
0.0
 11
271.271
 21
114.979
 31
0.0
  0
LINE
  8
0
 62
     0
 10
271.271
 20
114.979
 30
0.0
 11
272.07
 21
114.979
 31
0.0
  0
LINE
  8
0
 62
     0
 10
272.07
 20
114.979
 30
0.0
 11
272.07
 21
118.077
 31
0.0
  0
LINE
  8
0
 62
     0
 10
272.07
 20
118.077
 30
0.0
 11
271.271
 21
118.077
 31
0.0
  0
LINE
  8
0
 62
     0
 10
271.271
 20
118.077
 30
0.0
 11
271.271
 21
119.078
 31
0.0
  0
LINE
  8
0
 62
     0
 10
271.271
 20
119.078
 30
0.0
 11
257.27
 21
119.078
 31
0.0
  0
LINE
  8
0
 62
     0
 10
238.22
 20
119.078
 30
0.0
 11
238.22
 21
118.077
 31
0.0
  0
LINE
  8
0
 62
     0
 10
238.22
 20
118.077
 30
0.0
 11
237.421
 21
118.077
 31
0.0
  0
LINE
  8
0
 62
     0
 10
237.421
 20
118.077
 30
0.0
 11
237.421
 21
114.979
 31
0.0
  0
LINE
  8
0
 62
     0
 10
237.421
 20
114.979
 30
0.0
 11
238.22
 21
114.979
 31
0.0
  0
LINE
  8
0
 62
     0
 10
238.22
 20
114.979
 30
0.0
 11
238.22
 21
109.178
 31
0.0
  0
LINE
  8
0
 62
     0
 10
238.22
 20
109.178
 30
0.0
 11
237.421
 21
109.178
 31
0.0
  0
LINE
  8
0
 62
     0
 10
237.421
 20
109.178
 30
0.0
 11
237.421
 21
106.077
 31
0.0
  0
LINE
  8
0
 62
     0
 10
237.421
 20
106.077
 30
0.0
 11
238.22
 21
106.077
 31
0.0
  0
LINE
  8
0
 62
     0
 10
238.22
 20
106.077
 30
0.0
 11
238.22
 21
105.078
 31
0.0
  0
LINE
  8
0
 62
     0
 10
238.22
 20
105.078
 30
0.0
 11
252.221
 21
105.078
 31
0.0
  0
LINE
  8
0
 62
     0
 10
252.221
 20
105.078
 30
0.0
 11
252.221
 21
106.077
 31
0.0
  0
LINE
  8
0
 62
     0
 10
252.221
 20
106.077
 30
0.0
 11
253.02
 21
106.077
 31
0.0
  0
LINE
  8
0
 62
     0
 10
253.02
 20
106.077
 30
0.0
 11
253.02
 21
109.178
 31
0.0
  0
LINE
  8
0
 62
     0
 10
253.02
 20
109.178
 30
0.0
 11
252.221
 21
109.178
 31
0.0
  0
LINE
  8
0
 62
     0
 10
252.221
 20
109.178
 30
0.0
 11
252.221
 21
114.979
 31
0.0
  0
LINE
  8
0
 62
     0
 10
252.221
 20
114.979
 30
0.0
 11
253.02
 21
114.979
 31
0.0
  0
LINE
  8
0
 62
     0
 10
253.02
 20
114.979
 30
0.0
 11
253.02
 21
118.077
 31
0.0
  0
LINE
  8
0
 62
     0
 10
253.02
 20
118.077
 30
0.0
 11
252.221
 21
118.077
 31
0.0
  0
LINE
  8
0
 62
     0
 10
252.221
 20
118.077
 30
0.0
 11
252.221
 21
119.078
 31
0.0
  0
LINE
  8
0
 62
     0
 10
252.221
 20
119.078
 30
0.0
 11
238.22
 21
119.078
 31
0.0
  0
LINE
  8
0
 62
     0
 10
219.17
 20
119.078
 30
0.0
 11
219.17
 21
118.077
 31
0.0
  0
LINE
  8
0
 62
     0
 10
219.17
 20
118.077
 30
0.0
 11
218.371
 21
118.077
 31
0.0
  0
LINE
  8
0
 62
     0
 10
218.371
 20
118.077
 30
0.0
 11
218.371
 21
114.979
 31
0.0
  0
LINE
  8
0
 62
     0
 10
218.371
 20
114.979
 30
0.0
 11
219.17
 21
114.979
 31
0.0
  0
LINE
  8
0
 62
     0
 10
219.17
 20
114.979
 30
0.0
 11
219.17
 21
109.178
 31
0.0
  0
LINE
  8
0
 62
     0
 10
219.17
 20
109.178
 30
0.0
 11
218.371
 21
109.178
 31
0.0
  0
LINE
  8
0
 62
     0
 10
218.371
 20
109.178
 30
0.0
 11
218.371
 21
106.077
 31
0.0
  0
LINE
  8
0
 62
     0
 10
218.371
 20
106.077
 30
0.0
 11
219.17
 21
106.077
 31
0.0
  0
LINE
  8
0
 62
     0
 10
219.17
 20
106.077
 30
0.0
 11
219.17
 21
105.078
 31
0.0
  0
LINE
  8
0
 62
     0
 10
219.17
 20
105.078
 30
0.0
 11
233.171
 21
105.078
 31
0.0
  0
LINE
  8
0
 62
     0
 10
233.171
 20
105.078
 30
0.0
 11
233.171
 21
106.077
 31
0.0
  0
LINE
  8
0
 62
     0
 10
233.171
 20
106.077
 30
0.0
 11
233.97
 21
106.077
 31
0.0
  0
LINE
  8
0
 62
     0
 10
233.97
 20
106.077
 30
0.0
 11
233.97
 21
109.178
 31
0.0
  0
LINE
  8
0
 62
     0
 10
233.97
 20
109.178
 30
0.0
 11
233.171
 21
109.178
 31
0.0
  0
LINE
  8
0
 62
     0
 10
233.171
 20
109.178
 30
0.0
 11
233.171
 21
114.979
 31
0.0
  0
LINE
  8
0
 62
     0
 10
233.171
 20
114.979
 30
0.0
 11
233.97
 21
114.979
 31
0.0
  0
LINE
  8
0
 62
     0
 10
233.97
 20
114.979
 30
0.0
 11
233.97
 21
118.077
 31
0.0
  0
LINE
  8
0
 62
     0
 10
233.97
 20
118.077
 30
0.0
 11
233.171
 21
118.077
 31
0.0
  0
LINE
  8
0
 62
     0
 10
233.171
 20
118.077
 30
0.0
 11
233.171
 21
119.078
 31
0.0
  0
LINE
  8
0
 62
     0
 10
233.171
 20
119.078
 30
0.0
 11
219.17
 21
119.078
 31
0.0
  0
LINE
  8
0
 62
     0
 10
200.12
 20
119.078
 30
0.0
 11
200.12
 21
118.077
 31
0.0
  0
LINE
  8
0
 62
     0
 10
200.12
 20
118.077
 30
0.0
 11
199.321
 21
118.077
 31
0.0
  0
LINE
  8
0
 62
     0
 10
199.321
 20
118.077
 30
0.0
 11
199.321
 21
114.979
 31
0.0
  0
LINE
  8
0
 62
     0
 10
199.321
 20
114.979
 30
0.0
 11
200.12
 21
114.979
 31
0.0
  0
LINE
  8
0
 62
     0
 10
200.12
 20
114.979
 30
0.0
 11
200.12
 21
109.178
 31
0.0
  0
LINE
  8
0
 62
     0
 10
200.12
 20
109.178
 30
0.0
 11
199.321
 21
109.178
 31
0.0
  0
LINE
  8
0
 62
     0
 10
199.321
 20
109.178
 30
0.0
 11
199.321
 21
106.077
 31
0.0
  0
LINE
  8
0
 62
     0
 10
199.321
 20
106.077
 30
0.0
 11
200.12
 21
106.077
 31
0.0
  0
LINE
  8
0
 62
     0
 10
200.12
 20
106.077
 30
0.0
 11
200.12
 21
105.078
 31
0.0
  0
LINE
  8
0
 62
     0
 10
200.12
 20
105.078
 30
0.0
 11
214.121
 21
105.078
 31
0.0
  0
LINE
  8
0
 62
     0
 10
214.121
 20
105.078
 30
0.0
 11
214.121
 21
106.077
 31
0.0
  0
LINE
  8
0
 62
     0
 10
214.121
 20
106.077
 30
0.0
 11
214.92
 21
106.077
 31
0.0
  0
LINE
  8
0
 62
     0
 10
214.92
 20
106.077
 30
0.0
 11
214.92
 21
109.178
 31
0.0
  0
LINE
  8
0
 62
     0
 10
214.92
 20
109.178
 30
0.0
 11
214.121
 21
109.178
 31
0.0
  0
LINE
  8
0
 62
     0
 10
214.121
 20
109.178
 30
0.0
 11
214.121
 21
114.979
 31
0.0
  0
LINE
  8
0
 62
     0
 10
214.121
 20
114.979
 30
0.0
 11
214.92
 21
114.979
 31
0.0
  0
LINE
  8
0
 62
     0
 10
214.92
 20
114.979
 30
0.0
 11
214.92
 21
118.077
 31
0.0
  0
LINE
  8
0
 62
     0
 10
214.92
 20
118.077
 30
0.0
 11
214.121
 21
118.077
 31
0.0
  0
LINE
  8
0
 62
     0
 10
214.121
 20
118.077
 30
0.0
 11
214.121
 21
119.078
 31
0.0
  0
LINE
  8
0
 62
     0
 10
214.121
 20
119.078
 30
0.0
 11
200.12
 21
119.078
 31
0.0
  0
LINE
  8
0
 62
     0
 10
181.07
 20
119.078
 30
0.0
 11
181.07
 21
118.077
 31
0.0
  0
LINE
  8
0
 62
     0
 10
181.07
 20
118.077
 30
0.0
 11
180.271
 21
118.077
 31
0.0
  0
LINE
  8
0
 62
     0
 10
180.271
 20
118.077
 30
0.0
 11
180.271
 21
114.979
 31
0.0
  0
LINE
  8
0
 62
     0
 10
180.271
 20
114.979
 30
0.0
 11
181.07
 21
114.979
 31
0.0
  0
LINE
  8
0
 62
     0
 10
181.07
 20
114.979
 30
0.0
 11
181.07
 21
109.178
 31
0.0
  0
LINE
  8
0
 62
     0
 10
181.07
 20
109.178
 30
0.0
 11
180.271
 21
109.178
 31
0.0
  0
LINE
  8
0
 62
     0
 10
180.271
 20
109.178
 30
0.0
 11
180.271
 21
106.077
 31
0.0
  0
LINE
  8
0
 62
     0
 10
180.271
 20
106.077
 30
0.0
 11
181.07
 21
106.077
 31
0.0
  0
LINE
  8
0
 62
     0
 10
181.07
 20
106.077
 30
0.0
 11
181.07
 21
105.078
 31
0.0
  0
LINE
  8
0
 62
     0
 10
181.07
 20
105.078
 30
0.0
 11
195.071
 21
105.078
 31
0.0
  0
LINE
  8
0
 62
     0
 10
195.071
 20
105.078
 30
0.0
 11
195.071
 21
106.077
 31
0.0
  0
LINE
  8
0
 62
     0
 10
195.071
 20
106.077
 30
0.0
 11
195.87
 21
106.077
 31
0.0
  0
LINE
  8
0
 62
     0
 10
195.87
 20
106.077
 30
0.0
 11
195.87
 21
109.178
 31
0.0
  0
LINE
  8
0
 62
     0
 10
195.87
 20
109.178
 30
0.0
 11
195.071
 21
109.178
 31
0.0
  0
LINE
  8
0
 62
     0
 10
195.071
 20
109.178
 30
0.0
 11
195.071
 21
114.979
 31
0.0
  0
LINE
  8
0
 62
     0
 10
195.071
 20
114.979
 30
0.0
 11
195.87
 21
114.979
 31
0.0
  0
LINE
  8
0
 62
     0
 10
195.87
 20
114.979
 30
0.0
 11
195.87
 21
118.077
 31
0.0
  0
LINE
  8
0
 62
     0
 10
195.87
 20
118.077
 30
0.0
 11
195.071
 21
118.077
 31
0.0
  0
LINE
  8
0
 62
     0
 10
195.071
 20
118.077
 30
0.0
 11
195.071
 21
119.078
 31
0.0
  0
LINE
  8
0
 62
     0
 10
195.071
 20
119.078
 30
0.0
 11
181.07
 21
119.078
 31
0.0
  0
LINE
  8
0
 62
     0
 10
162.02
 20
119.078
 30
0.0
 11
162.02
 21
118.077
 31
0.0
  0
LINE
  8
0
 62
     0
 10
162.02
 20
118.077
 30
0.0
 11
161.221
 21
118.077
 31
0.0
  0
LINE
  8
0
 62
     0
 10
161.221
 20
118.077
 30
0.0
 11
161.221
 21
114.979
 31
0.0
  0
LINE
  8
0
 62
     0
 10
161.221
 20
114.979
 30
0.0
 11
162.02
 21
114.979
 31
0.0
  0
LINE
  8
0
 62
     0
 10
162.02
 20
114.979
 30
0.0
 11
162.02
 21
109.178
 31
0.0
  0
LINE
  8
0
 62
     0
 10
162.02
 20
109.178
 30
0.0
 11
161.221
 21
109.178
 31
0.0
  0
LINE
  8
0
 62
     0
 10
161.221
 20
109.178
 30
0.0
 11
161.221
 21
106.077
 31
0.0
  0
LINE
  8
0
 62
     0
 10
161.221
 20
106.077
 30
0.0
 11
162.02
 21
106.077
 31
0.0
  0
LINE
  8
0
 62
     0
 10
162.02
 20
106.077
 30
0.0
 11
162.02
 21
105.078
 31
0.0
  0
LINE
  8
0
 62
     0
 10
162.02
 20
105.078
 30
0.0
 11
176.021
 21
105.078
 31
0.0
  0
LINE
  8
0
 62
     0
 10
176.021
 20
105.078
 30
0.0
 11
176.021
 21
106.077
 31
0.0
  0
LINE
  8
0
 62
     0
 10
176.021
 20
106.077
 30
0.0
 11
176.82
 21
106.077
 31
0.0
  0
LINE
  8
0
 62
     0
 10
176.82
 20
106.077
 30
0.0
 11
176.82
 21
109.178
 31
0.0
  0
LINE
  8
0
 62
     0
 10
176.82
 20
109.178
 30
0.0
 11
176.021
 21
109.178
 31
0.0
  0
LINE
  8
0
 62
     0
 10
176.021
 20
109.178
 30
0.0
 11
176.021
 21
114.979
 31
0.0
  0
LINE
  8
0
 62
     0
 10
176.021
 20
114.979
 30
0.0
 11
176.82
 21
114.979
 31
0.0
  0
LINE
  8
0
 62
     0
 10
176.82
 20
114.979
 30
0.0
 11
176.82
 21
118.077
 31
0.0
  0
LINE
  8
0
 62
     0
 10
176.82
 20
118.077
 30
0.0
 11
176.021
 21
118.077
 31
0.0
  0
LINE
  8
0
 62
     0
 10
176.021
 20
118.077
 30
0.0
 11
176.021
 21
119.078
 31
0.0
  0
LINE
  8
0
 62
     0
 10
176.021
 20
119.078
 30
0.0
 11
162.02
 21
119.078
 31
0.0
  0
LINE
  8
0
 62
     0
 10
142.97
 20
119.078
 30
0.0
 11
142.97
 21
118.077
 31
0.0
  0
LINE
  8
0
 62
     0
 10
142.97
 20
118.077
 30
0.0
 11
142.171
 21
118.077
 31
0.0
  0
LINE
  8
0
 62
     0
 10
142.171
 20
118.077
 30
0.0
 11
142.171
 21
114.979
 31
0.0
  0
LINE
  8
0
 62
     0
 10
142.171
 20
114.979
 30
0.0
 11
142.97
 21
114.979
 31
0.0
  0
LINE
  8
0
 62
     0
 10
142.97
 20
114.979
 30
0.0
 11
142.97
 21
109.178
 31
0.0
  0
LINE
  8
0
 62
     0
 10
142.97
 20
109.178
 30
0.0
 11
142.171
 21
109.178
 31
0.0
  0
LINE
  8
0
 62
     0
 10
142.171
 20
109.178
 30
0.0
 11
142.171
 21
106.077
 31
0.0
  0
LINE
  8
0
 62
     0
 10
142.171
 20
106.077
 30
0.0
 11
142.97
 21
106.077
 31
0.0
  0
LINE
  8
0
 62
     0
 10
142.97
 20
106.077
 30
0.0
 11
142.97
 21
105.078
 31
0.0
  0
LINE
  8
0
 62
     0
 10
142.97
 20
105.078
 30
0.0
 11
156.971
 21
105.078
 31
0.0
  0
LINE
  8
0
 62
     0
 10
156.971
 20
105.078
 30
0.0
 11
156.971
 21
106.077
 31
0.0
  0
LINE
  8
0
 62
     0
 10
156.971
 20
106.077
 30
0.0
 11
157.77
 21
106.077
 31
0.0
  0
LINE
  8
0
 62
     0
 10
157.77
 20
106.077
 30
0.0
 11
157.77
 21
109.178
 31
0.0
  0
LINE
  8
0
 62
     0
 10
157.77
 20
109.178
 30
0.0
 11
156.971
 21
109.178
 31
0.0
  0
LINE
  8
0
 62
     0
 10
156.971
 20
109.178
 30
0.0
 11
156.971
 21
114.979
 31
0.0
  0
LINE
  8
0
 62
     0
 10
156.971
 20
114.979
 30
0.0
 11
157.77
 21
114.979
 31
0.0
  0
LINE
  8
0
 62
     0
 10
157.77
 20
114.979
 30
0.0
 11
157.77
 21
118.077
 31
0.0
  0
LINE
  8
0
 62
     0
 10
157.77
 20
118.077
 30
0.0
 11
156.971
 21
118.077
 31
0.0
  0
LINE
  8
0
 62
     0
 10
156.971
 20
118.077
 30
0.0
 11
156.971
 21
119.078
 31
0.0
  0
LINE
  8
0
 62
     0
 10
156.971
 20
119.078
 30
0.0
 11
142.97
 21
119.078
 31
0.0
  0
LINE
  8
0
 62
     0
 10
123.92
 20
119.078
 30
0.0
 11
123.92
 21
118.077
 31
0.0
  0
LINE
  8
0
 62
     0
 10
123.92
 20
118.077
 30
0.0
 11
123.119
 21
118.077
 31
0.0
  0
LINE
  8
0
 62
     0
 10
123.119
 20
118.077
 30
0.0
 11
123.119
 21
114.979
 31
0.0
  0
LINE
  8
0
 62
     0
 10
123.119
 20
114.979
 30
0.0
 11
123.92
 21
114.979
 31
0.0
  0
LINE
  8
0
 62
     0
 10
123.92
 20
114.979
 30
0.0
 11
123.92
 21
109.178
 31
0.0
  0
LINE
  8
0
 62
     0
 10
123.92
 20
109.178
 30
0.0
 11
123.119
 21
109.178
 31
0.0
  0
LINE
  8
0
 62
     0
 10
123.119
 20
109.178
 30
0.0
 11
123.119
 21
106.077
 31
0.0
  0
LINE
  8
0
 62
     0
 10
123.119
 20
106.077
 30
0.0
 11
123.92
 21
106.077
 31
0.0
  0
LINE
  8
0
 62
     0
 10
123.92
 20
106.077
 30
0.0
 11
123.92
 21
105.078
 31
0.0
  0
LINE
  8
0
 62
     0
 10
123.92
 20
105.078
 30
0.0
 11
137.921
 21
105.078
 31
0.0
  0
LINE
  8
0
 62
     0
 10
137.921
 20
105.078
 30
0.0
 11
137.921
 21
106.077
 31
0.0
  0
LINE
  8
0
 62
     0
 10
137.921
 20
106.077
 30
0.0
 11
138.72
 21
106.077
 31
0.0
  0
LINE
  8
0
 62
     0
 10
138.72
 20
106.077
 30
0.0
 11
138.72
 21
109.178
 31
0.0
  0
LINE
  8
0
 62
     0
 10
138.72
 20
109.178
 30
0.0
 11
137.921
 21
109.178
 31
0.0
  0
LINE
  8
0
 62
     0
 10
137.921
 20
109.178
 30
0.0
 11
137.921
 21
114.979
 31
0.0
  0
LINE
  8
0
 62
     0
 10
137.921
 20
114.979
 30
0.0
 11
138.72
 21
114.979
 31
0.0
  0
LINE
  8
0
 62
     0
 10
138.72
 20
114.979
 30
0.0
 11
138.72
 21
118.077
 31
0.0
  0
LINE
  8
0
 62
     0
 10
138.72
 20
118.077
 30
0.0
 11
137.921
 21
118.077
 31
0.0
  0
LINE
  8
0
 62
     0
 10
137.921
 20
118.077
 30
0.0
 11
137.921
 21
119.078
 31
0.0
  0
LINE
  8
0
 62
     0
 10
137.921
 20
119.078
 30
0.0
 11
123.92
 21
119.078
 31
0.0
  0
LINE
  8
0
 62
     0
 10
104.87
 20
119.078
 30
0.0
 11
104.87
 21
118.077
 31
0.0
  0
LINE
  8
0
 62
     0
 10
104.87
 20
118.077
 30
0.0
 11
104.071
 21
118.077
 31
0.0
  0
LINE
  8
0
 62
     0
 10
104.071
 20
118.077
 30
0.0
 11
104.071
 21
114.979
 31
0.0
  0
LINE
  8
0
 62
     0
 10
104.071
 20
114.979
 30
0.0
 11
104.87
 21
114.979
 31
0.0
  0
LINE
  8
0
 62
     0
 10
104.87
 20
114.979
 30
0.0
 11
104.87
 21
109.178
 31
0.0
  0
LINE
  8
0
 62
     0
 10
104.87
 20
109.178
 30
0.0
 11
104.071
 21
109.178
 31
0.0
  0
LINE
  8
0
 62
     0
 10
104.071
 20
109.178
 30
0.0
 11
104.071
 21
106.077
 31
0.0
  0
LINE
  8
0
 62
     0
 10
104.071
 20
106.077
 30
0.0
 11
104.87
 21
106.077
 31
0.0
  0
LINE
  8
0
 62
     0
 10
104.87
 20
106.077
 30
0.0
 11
104.87
 21
105.078
 31
0.0
  0
LINE
  8
0
 62
     0
 10
104.87
 20
105.078
 30
0.0
 11
118.87
 21
105.078
 31
0.0
  0
LINE
  8
0
 62
     0
 10
118.87
 20
105.078
 30
0.0
 11
118.87
 21
106.077
 31
0.0
  0
LINE
  8
0
 62
     0
 10
118.87
 20
106.077
 30
0.0
 11
119.669
 21
106.077
 31
0.0
  0
LINE
  8
0
 62
     0
 10
119.669
 20
106.077
 30
0.0
 11
119.669
 21
109.178
 31
0.0
  0
LINE
  8
0
 62
     0
 10
119.669
 20
109.178
 30
0.0
 11
118.87
 21
109.178
 31
0.0
  0
LINE
  8
0
 62
     0
 10
118.87
 20
109.178
 30
0.0
 11
118.87
 21
114.979
 31
0.0
  0
LINE
  8
0
 62
     0
 10
118.87
 20
114.979
 30
0.0
 11
119.669
 21
114.979
 31
0.0
  0
LINE
  8
0
 62
     0
 10
119.669
 20
114.979
 30
0.0
 11
119.669
 21
118.077
 31
0.0
  0
LINE
  8
0
 62
     0
 10
119.669
 20
118.077
 30
0.0
 11
118.87
 21
118.077
 31
0.0
  0
LINE
  8
0
 62
     0
 10
118.87
 20
118.077
 30
0.0
 11
118.87
 21
119.078
 31
0.0
  0
LINE
  8
0
 62
     0
 10
118.87
 20
119.078
 30
0.0
 11
104.87
 21
119.078
 31
0.0
  0
LINE
  8
0
 62
     0
 10
85.8203
 20
119.078
 30
0.0
 11
85.8203
 21
118.077
 31
0.0
  0
LINE
  8
0
 62
     0
 10
85.8203
 20
118.077
 30
0.0
 11
85.0209
 21
118.077
 31
0.0
  0
LINE
  8
0
 62
     0
 10
85.0209
 20
118.077
 30
0.0
 11
85.0209
 21
114.979
 31
0.0
  0
LINE
  8
0
 62
     0
 10
85.0209
 20
114.979
 30
0.0
 11
85.8203
 21
114.979
 31
0.0
  0
LINE
  8
0
 62
     0
 10
85.8203
 20
114.979
 30
0.0
 11
85.8203
 21
109.178
 31
0.0
  0
LINE
  8
0
 62
     0
 10
85.8203
 20
109.178
 30
0.0
 11
85.0209
 21
109.178
 31
0.0
  0
LINE
  8
0
 62
     0
 10
85.0209
 20
109.178
 30
0.0
 11
85.0209
 21
106.077
 31
0.0
  0
LINE
  8
0
 62
     0
 10
85.0209
 20
106.077
 30
0.0
 11
85.8203
 21
106.077
 31
0.0
  0
LINE
  8
0
 62
     0
 10
85.8203
 20
106.077
 30
0.0
 11
85.8203
 21
105.078
 31
0.0
  0
LINE
  8
0
 62
     0
 10
85.8203
 20
105.078
 30
0.0
 11
99.8209
 21
105.078
 31
0.0
  0
LINE
  8
0
 62
     0
 10
99.8209
 20
105.078
 30
0.0
 11
99.8209
 21
106.077
 31
0.0
  0
LINE
  8
0
 62
     0
 10
99.8209
 20
106.077
 30
0.0
 11
100.619
 21
106.077
 31
0.0
  0
LINE
  8
0
 62
     0
 10
100.619
 20
106.077
 30
0.0
 11
100.619
 21
109.178
 31
0.0
  0
LINE
  8
0
 62
     0
 10
100.619
 20
109.178
 30
0.0
 11
99.8209
 21
109.178
 31
0.0
  0
LINE
  8
0
 62
     0
 10
99.8209
 20
109.178
 30
0.0
 11
99.8209
 21
114.979
 31
0.0
  0
LINE
  8
0
 62
     0
 10
99.8209
 20
114.979
 30
0.0
 11
100.619
 21
114.979
 31
0.0
  0
LINE
  8
0
 62
     0
 10
100.619
 20
114.979
 30
0.0
 11
100.619
 21
118.077
 31
0.0
  0
LINE
  8
0
 62
     0
 10
100.619
 20
118.077
 30
0.0
 11
99.8209
 21
118.077
 31
0.0
  0
LINE
  8
0
 62
     0
 10
99.8209
 20
118.077
 30
0.0
 11
99.8209
 21
119.078
 31
0.0
  0
LINE
  8
0
 62
     0
 10
99.8209
 20
119.078
 30
0.0
 11
85.8203
 21
119.078
 31
0.0
  0
LINE
  8
0
 62
     0
 10
66.7703
 20
119.078
 30
0.0
 11
66.7703
 21
118.077
 31
0.0
  0
LINE
  8
0
 62
     0
 10
66.7703
 20
118.077
 30
0.0
 11
65.9709
 21
118.077
 31
0.0
  0
LINE
  8
0
 62
     0
 10
65.9709
 20
118.077
 30
0.0
 11
65.9709
 21
114.979
 31
0.0
  0
LINE
  8
0
 62
     0
 10
65.9709
 20
114.979
 30
0.0
 11
66.7703
 21
114.979
 31
0.0
  0
LINE
  8
0
 62
     0
 10
66.7703
 20
114.979
 30
0.0
 11
66.7703
 21
109.178
 31
0.0
  0
LINE
  8
0
 62
     0
 10
66.7703
 20
109.178
 30
0.0
 11
65.9709
 21
109.178
 31
0.0
  0
LINE
  8
0
 62
     0
 10
65.9709
 20
109.178
 30
0.0
 11
65.9709
 21
106.077
 31
0.0
  0
LINE
  8
0
 62
     0
 10
65.9709
 20
106.077
 30
0.0
 11
66.7703
 21
106.077
 31
0.0
  0
LINE
  8
0
 62
     0
 10
66.7703
 20
106.077
 30
0.0
 11
66.7703
 21
105.078
 31
0.0
  0
LINE
  8
0
 62
     0
 10
66.7703
 20
105.078
 30
0.0
 11
80.7709
 21
105.078
 31
0.0
  0
LINE
  8
0
 62
     0
 10
80.7709
 20
105.078
 30
0.0
 11
80.7709
 21
106.077
 31
0.0
  0
LINE
  8
0
 62
     0
 10
80.7709
 20
106.077
 30
0.0
 11
81.5703
 21
106.077
 31
0.0
  0
LINE
  8
0
 62
     0
 10
81.5703
 20
106.077
 30
0.0
 11
81.5703
 21
109.178
 31
0.0
  0
LINE
  8
0
 62
     0
 10
81.5703
 20
109.178
 30
0.0
 11
80.7709
 21
109.178
 31
0.0
  0
LINE
  8
0
 62
     0
 10
80.7709
 20
109.178
 30
0.0
 11
80.7709
 21
114.979
 31
0.0
  0
LINE
  8
0
 62
     0
 10
80.7709
 20
114.979
 30
0.0
 11
81.5703
 21
114.979
 31
0.0
  0
LINE
  8
0
 62
     0
 10
81.5703
 20
114.979
 30
0.0
 11
81.5703
 21
118.077
 31
0.0
  0
LINE
  8
0
 62
     0
 10
81.5703
 20
118.077
 30
0.0
 11
80.7709
 21
118.077
 31
0.0
  0
LINE
  8
0
 62
     0
 10
80.7709
 20
118.077
 30
0.0
 11
80.7709
 21
119.078
 31
0.0
  0
LINE
  8
0
 62
     0
 10
80.7709
 20
119.078
 30
0.0
 11
66.7703
 21
119.078
 31
0.0
  0
LINE
  8
0
 62
     0
 10
47.7203
 20
119.078
 30
0.0
 11
47.7203
 21
118.077
 31
0.0
  0
LINE
  8
0
 62
     0
 10
47.7203
 20
118.077
 30
0.0
 11
46.9209
 21
118.077
 31
0.0
  0
LINE
  8
0
 62
     0
 10
46.9209
 20
118.077
 30
0.0
 11
46.9209
 21
114.979
 31
0.0
  0
LINE
  8
0
 62
     0
 10
46.9209
 20
114.979
 30
0.0
 11
47.7203
 21
114.979
 31
0.0
  0
LINE
  8
0
 62
     0
 10
47.7203
 20
114.979
 30
0.0
 11
47.7203
 21
109.178
 31
0.0
  0
LINE
  8
0
 62
     0
 10
47.7203
 20
109.178
 30
0.0
 11
46.9209
 21
109.178
 31
0.0
  0
LINE
  8
0
 62
     0
 10
46.9209
 20
109.178
 30
0.0
 11
46.9209
 21
106.077
 31
0.0
  0
LINE
  8
0
 62
     0
 10
46.9209
 20
106.077
 30
0.0
 11
47.7203
 21
106.077
 31
0.0
  0
LINE
  8
0
 62
     0
 10
47.7203
 20
106.077
 30
0.0
 11
47.7203
 21
105.078
 31
0.0
  0
LINE
  8
0
 62
     0
 10
47.7203
 20
105.078
 30
0.0
 11
61.7209
 21
105.078
 31
0.0
  0
LINE
  8
0
 62
     0
 10
61.7209
 20
105.078
 30
0.0
 11
61.7209
 21
106.077
 31
0.0
  0
LINE
  8
0
 62
     0
 10
61.7209
 20
106.077
 30
0.0
 11
62.5203
 21
106.077
 31
0.0
  0
LINE
  8
0
 62
     0
 10
62.5203
 20
106.077
 30
0.0
 11
62.5203
 21
109.178
 31
0.0
  0
LINE
  8
0
 62
     0
 10
62.5203
 20
109.178
 30
0.0
 11
61.7209
 21
109.178
 31
0.0
  0
LINE
  8
0
 62
     0
 10
61.7209
 20
109.178
 30
0.0
 11
61.7209
 21
114.979
 31
0.0
  0
LINE
  8
0
 62
     0
 10
61.7209
 20
114.979
 30
0.0
 11
62.5203
 21
114.979
 31
0.0
  0
LINE
  8
0
 62
     0
 10
62.5203
 20
114.979
 30
0.0
 11
62.5203
 21
118.077
 31
0.0
  0
LINE
  8
0
 62
     0
 10
62.5203
 20
118.077
 30
0.0
 11
61.7209
 21
118.077
 31
0.0
  0
LINE
  8
0
 62
     0
 10
61.7209
 20
118.077
 30
0.0
 11
61.7209
 21
119.078
 31
0.0
  0
LINE
  8
0
 62
     0
 10
61.7209
 20
119.078
 30
0.0
 11
47.7203
 21
119.078
 31
0.0
  0
LINE
  8
0
 62
     0
 10
28.6701
 20
119.078
 30
0.0
 11
28.6701
 21
118.077
 31
0.0
  0
LINE
  8
0
 62
     0
 10
28.6701
 20
118.077
 30
0.0
 11
27.8708
 21
118.077
 31
0.0
  0
LINE
  8
0
 62
     0
 10
27.8708
 20
118.077
 30
0.0
 11
27.8708
 21
114.979
 31
0.0
  0
LINE
  8
0
 62
     0
 10
27.8708
 20
114.979
 30
0.0
 11
28.6701
 21
114.979
 31
0.0
  0
LINE
  8
0
 62
     0
 10
28.6701
 20
114.979
 30
0.0
 11
28.6701
 21
109.178
 31
0.0
  0
LINE
  8
0
 62
     0
 10
28.6701
 20
109.178
 30
0.0
 11
27.8708
 21
109.178
 31
0.0
  0
LINE
  8
0
 62
     0
 10
27.8708
 20
109.178
 30
0.0
 11
27.8708
 21
106.077
 31
0.0
  0
LINE
  8
0
 62
     0
 10
27.8708
 20
106.077
 30
0.0
 11
28.6701
 21
106.077
 31
0.0
  0
LINE
  8
0
 62
     0
 10
28.6701
 20
106.077
 30
0.0
 11
28.6701
 21
105.078
 31
0.0
  0
LINE
  8
0
 62
     0
 10
28.6701
 20
105.078
 30
0.0
 11
42.6709
 21
105.078
 31
0.0
  0
LINE
  8
0
 62
     0
 10
42.6709
 20
105.078
 30
0.0
 11
42.6709
 21
106.077
 31
0.0
  0
LINE
  8
0
 62
     0
 10
42.6709
 20
106.077
 30
0.0
 11
43.4703
 21
106.077
 31
0.0
  0
LINE
  8
0
 62
     0
 10
43.4703
 20
106.077
 30
0.0
 11
43.4703
 21
109.178
 31
0.0
  0
LINE
  8
0
 62
     0
 10
43.4703
 20
109.178
 30
0.0
 11
42.6709
 21
109.178
 31
0.0
  0
LINE
  8
0
 62
     0
 10
42.6709
 20
109.178
 30
0.0
 11
42.6709
 21
114.979
 31
0.0
  0
LINE
  8
0
 62
     0
 10
42.6709
 20
114.979
 30
0.0
 11
43.4703
 21
114.979
 31
0.0
  0
LINE
  8
0
 62
     0
 10
43.4703
 20
114.979
 30
0.0
 11
43.4703
 21
118.077
 31
0.0
  0
LINE
  8
0
 62
     0
 10
43.4703
 20
118.077
 30
0.0
 11
42.6709
 21
118.077
 31
0.0
  0
LINE
  8
0
 62
     0
 10
42.6709
 20
118.077
 30
0.0
 11
42.6709
 21
119.078
 31
0.0
  0
LINE
  8
0
 62
     0
 10
42.6709
 20
119.078
 30
0.0
 11
28.6701
 21
119.078
 31
0.0
  0
LINE
  8
0
 62
     0
 10
9.62007
 20
119.078
 30
0.0
 11
9.62007
 21
118.077
 31
0.0
  0
LINE
  8
0
 62
     0
 10
9.62007
 20
118.077
 30
0.0
 11
8.81944
 21
118.077
 31
0.0
  0
LINE
  8
0
 62
     0
 10
8.81944
 20
118.077
 30
0.0
 11
8.81944
 21
114.979
 31
0.0
  0
LINE
  8
0
 62
     0
 10
8.81944
 20
114.979
 30
0.0
 11
9.62007
 21
114.979
 31
0.0
  0
LINE
  8
0
 62
     0
 10
9.62007
 20
114.979
 30
0.0
 11
9.62007
 21
109.178
 31
0.0
  0
LINE
  8
0
 62
     0
 10
9.62007
 20
109.178
 30
0.0
 11
8.81944
 21
109.178
 31
0.0
  0
LINE
  8
0
 62
     0
 10
8.81944
 20
109.178
 30
0.0
 11
8.81944
 21
106.077
 31
0.0
  0
LINE
  8
0
 62
     0
 10
8.81944
 20
106.077
 30
0.0
 11
9.62007
 21
106.077
 31
0.0
  0
LINE
  8
0
 62
     0
 10
9.62007
 20
106.077
 30
0.0
 11
9.62007
 21
105.078
 31
0.0
  0
LINE
  8
0
 62
     0
 10
9.62007
 20
105.078
 30
0.0
 11
23.6209
 21
105.078
 31
0.0
  0
LINE
  8
0
 62
     0
 10
23.6209
 20
105.078
 30
0.0
 11
23.6209
 21
106.077
 31
0.0
  0
LINE
  8
0
 62
     0
 10
23.6209
 20
106.077
 30
0.0
 11
24.4202
 21
106.077
 31
0.0
  0
LINE
  8
0
 62
     0
 10
24.4202
 20
106.077
 30
0.0
 11
24.4202
 21
109.178
 31
0.0
  0
LINE
  8
0
 62
     0
 10
24.4202
 20
109.178
 30
0.0
 11
23.6209
 21
109.178
 31
0.0
  0
LINE
  8
0
 62
     0
 10
23.6209
 20
109.178
 30
0.0
 11
23.6209
 21
114.979
 31
0.0
  0
LINE
  8
0
 62
     0
 10
23.6209
 20
114.979
 30
0.0
 11
24.4202
 21
114.979
 31
0.0
  0
LINE
  8
0
 62
     0
 10
24.4202
 20
114.979
 30
0.0
 11
24.4202
 21
118.077
 31
0.0
  0
LINE
  8
0
 62
     0
 10
24.4202
 20
118.077
 30
0.0
 11
23.6209
 21
118.077
 31
0.0
  0
LINE
  8
0
 62
     0
 10
23.6209
 20
118.077
 30
0.0
 11
23.6209
 21
119.078
 31
0.0
  0
LINE
  8
0
 62
     0
 10
23.6209
 20
119.078
 30
0.0
 11
9.62007
 21
119.078
 31
0.0
  0
LINE
  8
0
 62
     0
 10
3.06889
 20
183.23
 30
0.0
 11
2.59485
 21
182.988
 31
0.0
  0
LINE
  8
0
 62
     0
 10
2.59485
 20
182.988
 30
0.0
 11
2.22002
 21
182.614
 31
0.0
  0
LINE
  8
0
 62
     0
 10
2.22002
 20
182.614
 30
0.0
 11
1.97886
 21
182.14
 31
0.0
  0
LINE
  8
0
 62
     0
 10
1.97886
 20
182.14
 30
0.0
 11
1.8948
 21
181.613
 31
0.0
  0
LINE
  8
0
 62
     0
 10
1.8948
 20
181.613
 30
0.0
 11
1.97886
 21
181.088
 31
0.0
  0
LINE
  8
0
 62
     0
 10
1.97886
 20
181.088
 30
0.0
 11
2.22002
 21
180.614
 31
0.0
  0
LINE
  8
0
 62
     0
 10
2.22002
 20
180.614
 30
0.0
 11
2.59485
 21
180.238
 31
0.0
  0
LINE
  8
0
 62
     0
 10
2.59485
 20
180.238
 30
0.0
 11
3.06889
 21
179.997
 31
0.0
  0
LINE
  8
0
 62
     0
 10
3.06889
 20
179.997
 30
0.0
 11
3.5953
 21
179.912
 31
0.0
  0
LINE
  8
0
 62
     0
 10
3.5953
 20
179.912
 30
0.0
 11
4.12034
 21
179.997
 31
0.0
  0
LINE
  8
0
 62
     0
 10
4.12034
 20
179.997
 30
0.0
 11
4.59437
 21
180.238
 31
0.0
  0
LINE
  8
0
 62
     0
 10
4.59437
 20
180.238
 30
0.0
 11
4.97057
 21
180.614
 31
0.0
  0
LINE
  8
0
 62
     0
 10
4.97057
 20
180.614
 30
0.0
 11
5.21173
 21
181.088
 31
0.0
  0
LINE
  8
0
 62
     0
 10
5.21173
 20
181.088
 30
0.0
 11
5.29579
 21
181.613
 31
0.0
  0
LINE
  8
0
 62
     0
 10
5.29579
 20
181.613
 30
0.0
 11
5.21173
 21
182.14
 31
0.0
  0
LINE
  8
0
 62
     0
 10
5.21173
 20
182.14
 30
0.0
 11
4.97057
 21
182.614
 31
0.0
  0
LINE
  8
0
 62
     0
 10
4.97057
 20
182.614
 30
0.0
 11
4.59437
 21
182.988
 31
0.0
  0
LINE
  8
0
 62
     0
 10
4.59437
 20
182.988
 30
0.0
 11
4.12034
 21
183.23
 31
0.0
  0
LINE
  8
0
 62
     0
 10
4.12034
 20
183.23
 30
0.0
 11
3.5953
 21
183.314
 31
0.0
  0
LINE
  8
0
 62
     0
 10
3.5953
 20
183.314
 30
0.0
 11
3.06889
 21
183.23
 31
0.0
  0
LINE
  8
0
 62
     0
 10
314.871
 20
183.23
 30
0.0
 11
314.397
 21
182.988
 31
0.0
  0
LINE
  8
0
 62
     0
 10
314.397
 20
182.988
 30
0.0
 11
314.021
 21
182.614
 31
0.0
  0
LINE
  8
0
 62
     0
 10
314.021
 20
182.614
 30
0.0
 11
313.779
 21
182.14
 31
0.0
  0
LINE
  8
0
 62
     0
 10
313.779
 20
182.14
 30
0.0
 11
313.697
 21
181.613
 31
0.0
  0
LINE
  8
0
 62
     0
 10
313.697
 20
181.613
 30
0.0
 11
313.779
 21
181.088
 31
0.0
  0
LINE
  8
0
 62
     0
 10
313.779
 20
181.088
 30
0.0
 11
314.021
 21
180.614
 31
0.0
  0
LINE
  8
0
 62
     0
 10
314.021
 20
180.614
 30
0.0
 11
314.397
 21
180.238
 31
0.0
  0
LINE
  8
0
 62
     0
 10
314.397
 20
180.238
 30
0.0
 11
314.871
 21
179.997
 31
0.0
  0
LINE
  8
0
 62
     0
 10
314.871
 20
179.997
 30
0.0
 11
315.397
 21
179.912
 31
0.0
  0
LINE
  8
0
 62
     0
 10
315.397
 20
179.912
 30
0.0
 11
315.922
 21
179.997
 31
0.0
  0
LINE
  8
0
 62
     0
 10
315.922
 20
179.997
 30
0.0
 11
316.395
 21
180.238
 31
0.0
  0
LINE
  8
0
 62
     0
 10
316.395
 20
180.238
 30
0.0
 11
316.771
 21
180.614
 31
0.0
  0
LINE
  8
0
 62
     0
 10
316.771
 20
180.614
 30
0.0
 11
317.012
 21
181.088
 31
0.0
  0
LINE
  8
0
 62
     0
 10
317.012
 20
181.088
 30
0.0
 11
317.096
 21
181.613
 31
0.0
  0
LINE
  8
0
 62
     0
 10
317.096
 20
181.613
 30
0.0
 11
317.012
 21
182.14
 31
0.0
  0
LINE
  8
0
 62
     0
 10
317.012
 20
182.14
 30
0.0
 11
316.771
 21
182.614
 31
0.0
  0
LINE
  8
0
 62
     0
 10
316.771
 20
182.614
 30
0.0
 11
316.395
 21
182.988
 31
0.0
  0
LINE
  8
0
 62
     0
 10
316.395
 20
182.988
 30
0.0
 11
315.922
 21
183.23
 31
0.0
  0
LINE
  8
0
 62
     0
 10
315.922
 20
183.23
 30
0.0
 11
315.397
 21
183.314
 31
0.0
  0
LINE
  8
0
 62
     0
 10
315.397
 20
183.314
 30
0.0
 11
314.871
 21
183.23
 31
0.0
  0
LINE
  8
0
 62
     0
 10
210.938
 20
183.23
 30
0.0
 11
210.464
 21
182.988
 31
0.0
  0
LINE
  8
0
 62
     0
 10
210.464
 20
182.988
 30
0.0
 11
210.087
 21
182.614
 31
0.0
  0
LINE
  8
0
 62
     0
 10
210.087
 20
182.614
 30
0.0
 11
209.845
 21
182.14
 31
0.0
  0
LINE
  8
0
 62
     0
 10
209.845
 20
182.14
 30
0.0
 11
209.762
 21
181.613
 31
0.0
  0
LINE
  8
0
 62
     0
 10
209.762
 20
181.613
 30
0.0
 11
209.845
 21
181.088
 31
0.0
  0
LINE
  8
0
 62
     0
 10
209.845
 20
181.088
 30
0.0
 11
210.087
 21
180.614
 31
0.0
  0
LINE
  8
0
 62
     0
 10
210.087
 20
180.614
 30
0.0
 11
210.464
 21
180.238
 31
0.0
  0
LINE
  8
0
 62
     0
 10
210.464
 20
180.238
 30
0.0
 11
210.938
 21
179.997
 31
0.0
  0
LINE
  8
0
 62
     0
 10
210.938
 20
179.997
 30
0.0
 11
211.463
 21
179.912
 31
0.0
  0
LINE
  8
0
 62
     0
 10
211.463
 20
179.912
 30
0.0
 11
211.988
 21
179.997
 31
0.0
  0
LINE
  8
0
 62
     0
 10
211.988
 20
179.997
 30
0.0
 11
212.462
 21
180.238
 31
0.0
  0
LINE
  8
0
 62
     0
 10
212.462
 20
180.238
 30
0.0
 11
212.838
 21
180.614
 31
0.0
  0
LINE
  8
0
 62
     0
 10
212.838
 20
180.614
 30
0.0
 11
213.079
 21
181.088
 31
0.0
  0
LINE
  8
0
 62
     0
 10
213.079
 20
181.088
 30
0.0
 11
213.162
 21
181.613
 31
0.0
  0
LINE
  8
0
 62
     0
 10
213.162
 20
181.613
 30
0.0
 11
213.079
 21
182.14
 31
0.0
  0
LINE
  8
0
 62
     0
 10
213.079
 20
182.14
 30
0.0
 11
212.838
 21
182.614
 31
0.0
  0
LINE
  8
0
 62
     0
 10
212.838
 20
182.614
 30
0.0
 11
212.462
 21
182.988
 31
0.0
  0
LINE
  8
0
 62
     0
 10
212.462
 20
182.988
 30
0.0
 11
211.988
 21
183.23
 31
0.0
  0
LINE
  8
0
 62
     0
 10
211.988
 20
183.23
 30
0.0
 11
211.463
 21
183.314
 31
0.0
  0
LINE
  8
0
 62
     0
 10
211.463
 20
183.314
 30
0.0
 11
210.938
 21
183.23
 31
0.0
  0
LINE
  8
0
 62
     0
 10
107.003
 20
183.23
 30
0.0
 11
106.529
 21
182.988
 31
0.0
  0
LINE
  8
0
 62
     0
 10
106.529
 20
182.988
 30
0.0
 11
106.153
 21
182.614
 31
0.0
  0
LINE
  8
0
 62
     0
 10
106.153
 20
182.614
 30
0.0
 11
105.912
 21
182.14
 31
0.0
  0
LINE
  8
0
 62
     0
 10
105.912
 20
182.14
 30
0.0
 11
105.828
 21
181.613
 31
0.0
  0
LINE
  8
0
 62
     0
 10
105.828
 20
181.613
 30
0.0
 11
105.912
 21
181.088
 31
0.0
  0
LINE
  8
0
 62
     0
 10
105.912
 20
181.088
 30
0.0
 11
106.153
 21
180.614
 31
0.0
  0
LINE
  8
0
 62
     0
 10
106.153
 20
180.614
 30
0.0
 11
106.529
 21
180.238
 31
0.0
  0
LINE
  8
0
 62
     0
 10
106.529
 20
180.238
 30
0.0
 11
107.003
 21
179.997
 31
0.0
  0
LINE
  8
0
 62
     0
 10
107.003
 20
179.997
 30
0.0
 11
107.528
 21
179.912
 31
0.0
  0
LINE
  8
0
 62
     0
 10
107.528
 20
179.912
 30
0.0
 11
108.053
 21
179.997
 31
0.0
  0
LINE
  8
0
 62
     0
 10
108.053
 20
179.997
 30
0.0
 11
108.527
 21
180.238
 31
0.0
  0
LINE
  8
0
 62
     0
 10
108.527
 20
180.238
 30
0.0
 11
108.904
 21
180.614
 31
0.0
  0
LINE
  8
0
 62
     0
 10
108.904
 20
180.614
 30
0.0
 11
109.146
 21
181.088
 31
0.0
  0
LINE
  8
0
 62
     0
 10
109.146
 20
181.088
 30
0.0
 11
109.229
 21
181.613
 31
0.0
  0
LINE
  8
0
 62
     0
 10
109.229
 20
181.613
 30
0.0
 11
109.146
 21
182.14
 31
0.0
  0
LINE
  8
0
 62
     0
 10
109.146
 20
182.14
 30
0.0
 11
108.904
 21
182.614
 31
0.0
  0
LINE
  8
0
 62
     0
 10
108.904
 20
182.614
 30
0.0
 11
108.527
 21
182.988
 31
0.0
  0
LINE
  8
0
 62
     0
 10
108.527
 20
182.988
 30
0.0
 11
108.053
 21
183.23
 31
0.0
  0
LINE
  8
0
 62
     0
 10
108.053
 20
183.23
 30
0.0
 11
107.528
 21
183.314
 31
0.0
  0
LINE
  8
0
 62
     0
 10
107.528
 20
183.314
 30
0.0
 11
107.003
 21
183.23
 31
0.0
  0
ENDSEC
  0
EOF
