  0
SECTION
  2
HEADER
  9
$ACADVER
  1
AC1009
  9
$FILLMODE
 70
 0
  9
$SPLFRAME
 70
 1
  9
$EXTMIN
 10
0
 20
0
 30
0.0
  9
$EXTMAX
 10
1058.33
 20
1058.33
 30
0.0
  0
ENDSEC
  0
SECTION
  2
TABLES
  0
TABLE
  2
LAYER
 70
1
  0
LAYER
  2
0
 70
     0
 62
     7
  6
CONTINUOUS
  0
ENDTAB
  0
ENDSEC
  0
SECTION
  2
ENTITIES
  0
LINE
  8
0
 62
     0
 10
314.897
 20
184.408
 30
0.0
 11
315.053
 21
184.401
 31
0.0
  0
LINE
  8
0
 62
     0
 10
315.053
 20
184.401
 30
0.0
 11
315.208
 21
184.383
 31
0.0
  0
LINE
  8
0
 62
     0
 10
315.208
 20
184.383
 30
0.0
 11
315.363
 21
184.352
 31
0.0
  0
LINE
  8
0
 62
     0
 10
315.363
 20
184.352
 30
0.0
 11
315.514
 21
184.31
 31
0.0
  0
LINE
  8
0
 62
     0
 10
315.514
 20
184.31
 30
0.0
 11
315.662
 21
184.255
 31
0.0
  0
LINE
  8
0
 62
     0
 10
315.662
 20
184.255
 30
0.0
 11
315.803
 21
184.19
 31
0.0
  0
LINE
  8
0
 62
     0
 10
315.803
 20
184.19
 30
0.0
 11
315.94
 21
184.113
 31
0.0
  0
LINE
  8
0
 62
     0
 10
315.94
 20
184.113
 30
0.0
 11
316.071
 21
184.026
 31
0.0
  0
LINE
  8
0
 62
     0
 10
316.071
 20
184.026
 30
0.0
 11
316.195
 21
183.928
 31
0.0
  0
LINE
  8
0
 62
     0
 10
316.195
 20
183.928
 30
0.0
 11
316.311
 21
183.822
 31
0.0
  0
LINE
  8
0
 62
     0
 10
316.311
 20
183.822
 30
0.0
 11
316.417
 21
183.706
 31
0.0
  0
LINE
  8
0
 62
     0
 10
316.417
 20
183.706
 30
0.0
 11
316.515
 21
183.584
 31
0.0
  0
LINE
  8
0
 62
     0
 10
316.515
 20
183.584
 30
0.0
 11
316.601
 21
183.453
 31
0.0
  0
LINE
  8
0
 62
     0
 10
316.601
 20
183.453
 30
0.0
 11
316.679
 21
183.315
 31
0.0
  0
LINE
  8
0
 62
     0
 10
316.679
 20
183.315
 30
0.0
 11
316.743
 21
183.173
 31
0.0
  0
LINE
  8
0
 62
     0
 10
316.743
 20
183.173
 30
0.0
 11
316.799
 21
183.027
 31
0.0
  0
LINE
  8
0
 62
     0
 10
316.799
 20
183.027
 30
0.0
 11
316.84
 21
182.874
 31
0.0
  0
LINE
  8
0
 62
     0
 10
316.84
 20
182.874
 30
0.0
 11
316.872
 21
182.721
 31
0.0
  0
LINE
  8
0
 62
     0
 10
316.872
 20
182.721
 30
0.0
 11
316.89
 21
182.564
 31
0.0
  0
LINE
  8
0
 62
     0
 10
316.89
 20
182.564
 30
0.0
 11
316.896
 21
182.407
 31
0.0
  0
LINE
  8
0
 62
     0
 10
316.896
 20
182.407
 30
0.0
 11
316.896
 21
2.10564
 31
0.0
  0
LINE
  8
0
 62
     0
 10
316.896
 20
2.10564
 30
0.0
 11
316.89
 21
1.94992
 31
0.0
  0
LINE
  8
0
 62
     0
 10
316.89
 20
1.94992
 30
0.0
 11
316.872
 21
1.79421
 31
0.0
  0
LINE
  8
0
 62
     0
 10
316.872
 20
1.79421
 30
0.0
 11
316.84
 21
1.63987
 31
0.0
  0
LINE
  8
0
 62
     0
 10
316.84
 20
1.63987
 30
0.0
 11
316.799
 21
1.48828
 31
0.0
  0
LINE
  8
0
 62
     0
 10
316.799
 20
1.48828
 30
0.0
 11
316.743
 21
1.34083
 31
0.0
  0
LINE
  8
0
 62
     0
 10
316.743
 20
1.34083
 30
0.0
 11
316.679
 21
1.19889
 31
0.0
  0
LINE
  8
0
 62
     0
 10
316.679
 20
1.19889
 30
0.0
 11
316.601
 21
1.06247
 31
0.0
  0
LINE
  8
0
 62
     0
 10
316.601
 20
1.06247
 30
0.0
 11
316.515
 21
0.931556
 31
0.0
  0
LINE
  8
0
 62
     0
 10
316.515
 20
0.931556
 30
0.0
 11
316.417
 21
0.808909
 31
0.0
  0
LINE
  8
0
 62
     0
 10
316.417
 20
0.808909
 30
0.0
 11
316.311
 21
0.691776
 31
0.0
  0
LINE
  8
0
 62
     0
 10
316.311
 20
0.691776
 30
0.0
 11
316.195
 21
0.585668
 31
0.0
  0
LINE
  8
0
 62
     0
 10
316.195
 20
0.585668
 30
0.0
 11
316.071
 21
0.487825
 31
0.0
  0
LINE
  8
0
 62
     0
 10
316.071
 20
0.487825
 30
0.0
 11
315.94
 21
0.40101
 31
0.0
  0
LINE
  8
0
 62
     0
 10
315.94
 20
0.40101
 30
0.0
 11
315.803
 21
0.323839
 31
0.0
  0
LINE
  8
0
 62
     0
 10
315.803
 20
0.323839
 30
0.0
 11
315.662
 21
0.259071
 31
0.0
  0
LINE
  8
0
 62
     0
 10
315.662
 20
0.259071
 30
0.0
 11
315.514
 21
0.20395
 31
0.0
  0
LINE
  8
0
 62
     0
 10
315.514
 20
0.20395
 30
0.0
 11
315.363
 21
0.162609
 31
0.0
  0
LINE
  8
0
 62
     0
 10
315.363
 20
0.162609
 30
0.0
 11
315.208
 21
0.130914
 31
0.0
  0
LINE
  8
0
 62
     0
 10
315.208
 20
0.130914
 30
0.0
 11
315.053
 21
0.112999
 31
0.0
  0
LINE
  8
0
 62
     0
 10
315.053
 20
0.112999
 30
0.0
 11
314.897
 21
0.106109
 31
0.0
  0
LINE
  8
0
 62
     0
 10
314.897
 20
0.106109
 30
0.0
 11
2.096
 21
0.106109
 31
0.0
  0
LINE
  8
0
 62
     0
 10
2.096
 20
0.106109
 30
0.0
 11
1.9389
 21
0.112999
 31
0.0
  0
LINE
  8
0
 62
     0
 10
1.9389
 20
0.112999
 30
0.0
 11
1.7818
 21
0.130914
 31
0.0
  0
LINE
  8
0
 62
     0
 10
1.7818
 20
0.130914
 30
0.0
 11
1.62884
 21
0.162609
 31
0.0
  0
LINE
  8
0
 62
     0
 10
1.62884
 20
0.162609
 30
0.0
 11
1.47588
 21
0.20395
 31
0.0
  0
LINE
  8
0
 62
     0
 10
1.47588
 20
0.20395
 30
0.0
 11
1.32981
 21
0.259071
 31
0.0
  0
LINE
  8
0
 62
     0
 10
1.32981
 20
0.259071
 30
0.0
 11
1.18787
 21
0.323839
 31
0.0
  0
LINE
  8
0
 62
     0
 10
1.18787
 20
0.323839
 30
0.0
 11
1.05006
 21
0.40101
 31
0.0
  0
LINE
  8
0
 62
     0
 10
1.05006
 20
0.40101
 30
0.0
 11
0.919152
 21
0.487825
 31
0.0
  0
LINE
  8
0
 62
     0
 10
0.919152
 20
0.487825
 30
0.0
 11
0.796505
 21
0.585668
 31
0.0
  0
LINE
  8
0
 62
     0
 10
0.796505
 20
0.585668
 30
0.0
 11
0.680752
 21
0.691776
 31
0.0
  0
LINE
  8
0
 62
     0
 10
0.680752
 20
0.691776
 30
0.0
 11
0.574643
 21
0.808909
 31
0.0
  0
LINE
  8
0
 62
     0
 10
0.574643
 20
0.808909
 30
0.0
 11
0.4768
 21
0.931556
 31
0.0
  0
LINE
  8
0
 62
     0
 10
0.4768
 20
0.931556
 30
0.0
 11
0.389985
 21
1.06247
 31
0.0
  0
LINE
  8
0
 62
     0
 10
0.389985
 20
1.06247
 30
0.0
 11
0.312815
 21
1.19889
 31
0.0
  0
LINE
  8
0
 62
     0
 10
0.312815
 20
1.19889
 30
0.0
 11
0.248047
 21
1.34083
 31
0.0
  0
LINE
  8
0
 62
     0
 10
0.248047
 20
1.34083
 30
0.0
 11
0.192925
 21
1.48828
 31
0.0
  0
LINE
  8
0
 62
     0
 10
0.192925
 20
1.48828
 30
0.0
 11
0.150206
 21
1.63987
 31
0.0
  0
LINE
  8
0
 62
     0
 10
0.150206
 20
1.63987
 30
0.0
 11
0.119889
 21
1.79421
 31
0.0
  0
LINE
  8
0
 62
     0
 10
0.119889
 20
1.79421
 30
0.0
 11
0.101975
 21
1.94992
 31
0.0
  0
LINE
  8
0
 62
     0
 10
0.101975
 20
1.94992
 30
0.0
 11
0.0950846
 21
2.10564
 31
0.0
  0
LINE
  8
0
 62
     0
 10
0.0950846
 20
2.10564
 30
0.0
 11
0.0950846
 21
182.407
 31
0.0
  0
LINE
  8
0
 62
     0
 10
0.0950846
 20
182.407
 30
0.0
 11
0.101975
 21
182.564
 31
0.0
  0
LINE
  8
0
 62
     0
 10
0.101975
 20
182.564
 30
0.0
 11
0.119889
 21
182.721
 31
0.0
  0
LINE
  8
0
 62
     0
 10
0.119889
 20
182.721
 30
0.0
 11
0.150206
 21
182.874
 31
0.0
  0
LINE
  8
0
 62
     0
 10
0.150206
 20
182.874
 30
0.0
 11
0.192925
 21
183.027
 31
0.0
  0
LINE
  8
0
 62
     0
 10
0.192925
 20
183.027
 30
0.0
 11
0.248047
 21
183.173
 31
0.0
  0
LINE
  8
0
 62
     0
 10
0.248047
 20
183.173
 30
0.0
 11
0.312815
 21
183.315
 31
0.0
  0
LINE
  8
0
 62
     0
 10
0.312815
 20
183.315
 30
0.0
 11
0.389985
 21
183.453
 31
0.0
  0
LINE
  8
0
 62
     0
 10
0.389985
 20
183.453
 30
0.0
 11
0.4768
 21
183.584
 31
0.0
  0
LINE
  8
0
 62
     0
 10
0.4768
 20
183.584
 30
0.0
 11
0.574643
 21
183.706
 31
0.0
  0
LINE
  8
0
 62
     0
 10
0.574643
 20
183.706
 30
0.0
 11
0.680752
 21
183.822
 31
0.0
  0
LINE
  8
0
 62
     0
 10
0.680752
 20
183.822
 30
0.0
 11
0.796505
 21
183.928
 31
0.0
  0
LINE
  8
0
 62
     0
 10
0.796505
 20
183.928
 30
0.0
 11
0.919152
 21
184.026
 31
0.0
  0
LINE
  8
0
 62
     0
 10
0.919152
 20
184.026
 30
0.0
 11
1.05006
 21
184.113
 31
0.0
  0
LINE
  8
0
 62
     0
 10
1.05006
 20
184.113
 30
0.0
 11
1.18787
 21
184.19
 31
0.0
  0
LINE
  8
0
 62
     0
 10
1.18787
 20
184.19
 30
0.0
 11
1.32981
 21
184.255
 31
0.0
  0
LINE
  8
0
 62
     0
 10
1.32981
 20
184.255
 30
0.0
 11
1.47588
 21
184.31
 31
0.0
  0
LINE
  8
0
 62
     0
 10
1.47588
 20
184.31
 30
0.0
 11
1.62884
 21
184.352
 31
0.0
  0
LINE
  8
0
 62
     0
 10
1.62884
 20
184.352
 30
0.0
 11
1.7818
 21
184.383
 31
0.0
  0
LINE
  8
0
 62
     0
 10
1.7818
 20
184.383
 30
0.0
 11
1.9389
 21
184.401
 31
0.0
  0
LINE
  8
0
 62
     0
 10
1.9389
 20
184.401
 30
0.0
 11
2.096
 21
184.408
 31
0.0
  0
LINE
  8
0
 62
     0
 10
2.096
 20
184.408
 30
0.0
 11
314.897
 21
184.408
 31
0.0
  0
LINE
  8
0
 62
     0
 10
2.63205
 20
4.53376
 30
0.0
 11
2.21313
 21
4.32015
 31
0.0
  0
LINE
  8
0
 62
     0
 10
2.21313
 20
4.32015
 30
0.0
 11
1.88102
 21
3.98805
 31
0.0
  0
LINE
  8
0
 62
     0
 10
1.88102
 20
3.98805
 30
0.0
 11
1.6688
 21
3.5705
 31
0.0
  0
LINE
  8
0
 62
     0
 10
1.6688
 20
3.5705
 30
0.0
 11
1.59439
 21
3.1061
 31
0.0
  0
LINE
  8
0
 62
     0
 10
1.59439
 20
3.1061
 30
0.0
 11
1.6688
 21
2.64308
 31
0.0
  0
LINE
  8
0
 62
     0
 10
1.6688
 20
2.64308
 30
0.0
 11
1.88102
 21
2.22553
 31
0.0
  0
LINE
  8
0
 62
     0
 10
1.88102
 20
2.22553
 30
0.0
 11
2.21313
 21
1.89343
 31
0.0
  0
LINE
  8
0
 62
     0
 10
2.21313
 20
1.89343
 30
0.0
 11
2.63205
 21
1.67983
 31
0.0
  0
LINE
  8
0
 62
     0
 10
2.63205
 20
1.67983
 30
0.0
 11
3.09507
 21
1.60679
 31
0.0
  0
LINE
  8
0
 62
     0
 10
3.09507
 20
1.60679
 30
0.0
 11
3.55808
 21
1.67983
 31
0.0
  0
LINE
  8
0
 62
     0
 10
3.55808
 20
1.67983
 30
0.0
 11
3.97701
 21
1.89343
 31
0.0
  0
LINE
  8
0
 62
     0
 10
3.97701
 20
1.89343
 30
0.0
 11
4.30911
 21
2.22553
 31
0.0
  0
LINE
  8
0
 62
     0
 10
4.30911
 20
2.22553
 30
0.0
 11
4.52134
 21
2.64308
 31
0.0
  0
LINE
  8
0
 62
     0
 10
4.52134
 20
2.64308
 30
0.0
 11
4.59574
 21
3.1061
 31
0.0
  0
LINE
  8
0
 62
     0
 10
4.59574
 20
3.1061
 30
0.0
 11
4.52134
 21
3.5705
 31
0.0
  0
LINE
  8
0
 62
     0
 10
4.52134
 20
3.5705
 30
0.0
 11
4.30911
 21
3.98805
 31
0.0
  0
LINE
  8
0
 62
     0
 10
4.30911
 20
3.98805
 30
0.0
 11
3.97701
 21
4.32015
 31
0.0
  0
LINE
  8
0
 62
     0
 10
3.97701
 20
4.32015
 30
0.0
 11
3.55808
 21
4.53376
 31
0.0
  0
LINE
  8
0
 62
     0
 10
3.55808
 20
4.53376
 30
0.0
 11
3.09507
 21
4.60678
 31
0.0
  0
LINE
  8
0
 62
     0
 10
3.09507
 20
4.60678
 30
0.0
 11
2.63205
 21
4.53376
 31
0.0
  0
LINE
  8
0
 62
     0
 10
106.232
 20
4.53376
 30
0.0
 11
105.814
 21
4.32015
 31
0.0
  0
LINE
  8
0
 62
     0
 10
105.814
 20
4.32015
 30
0.0
 11
105.482
 21
3.98805
 31
0.0
  0
LINE
  8
0
 62
     0
 10
105.482
 20
3.98805
 30
0.0
 11
105.268
 21
3.5705
 31
0.0
  0
LINE
  8
0
 62
     0
 10
105.268
 20
3.5705
 30
0.0
 11
105.195
 21
3.1061
 31
0.0
  0
LINE
  8
0
 62
     0
 10
105.195
 20
3.1061
 30
0.0
 11
105.268
 21
2.64308
 31
0.0
  0
LINE
  8
0
 62
     0
 10
105.268
 20
2.64308
 30
0.0
 11
105.482
 21
2.22553
 31
0.0
  0
LINE
  8
0
 62
     0
 10
105.482
 20
2.22553
 30
0.0
 11
105.814
 21
1.89343
 31
0.0
  0
LINE
  8
0
 62
     0
 10
105.814
 20
1.89343
 30
0.0
 11
106.232
 21
1.67983
 31
0.0
  0
LINE
  8
0
 62
     0
 10
106.232
 20
1.67983
 30
0.0
 11
106.696
 21
1.60679
 31
0.0
  0
LINE
  8
0
 62
     0
 10
106.696
 20
1.60679
 30
0.0
 11
107.159
 21
1.67983
 31
0.0
  0
LINE
  8
0
 62
     0
 10
107.159
 20
1.67983
 30
0.0
 11
107.578
 21
1.89343
 31
0.0
  0
LINE
  8
0
 62
     0
 10
107.578
 20
1.89343
 30
0.0
 11
107.909
 21
2.22553
 31
0.0
  0
LINE
  8
0
 62
     0
 10
107.909
 20
2.22553
 30
0.0
 11
108.121
 21
2.64308
 31
0.0
  0
LINE
  8
0
 62
     0
 10
108.121
 20
2.64308
 30
0.0
 11
108.195
 21
3.1061
 31
0.0
  0
LINE
  8
0
 62
     0
 10
108.195
 20
3.1061
 30
0.0
 11
108.121
 21
3.5705
 31
0.0
  0
LINE
  8
0
 62
     0
 10
108.121
 20
3.5705
 30
0.0
 11
107.909
 21
3.98805
 31
0.0
  0
LINE
  8
0
 62
     0
 10
107.909
 20
3.98805
 30
0.0
 11
107.578
 21
4.32015
 31
0.0
  0
LINE
  8
0
 62
     0
 10
107.578
 20
4.32015
 30
0.0
 11
107.159
 21
4.53376
 31
0.0
  0
LINE
  8
0
 62
     0
 10
107.159
 20
4.53376
 30
0.0
 11
106.696
 21
4.60678
 31
0.0
  0
LINE
  8
0
 62
     0
 10
106.696
 20
4.60678
 30
0.0
 11
106.232
 21
4.53376
 31
0.0
  0
LINE
  8
0
 62
     0
 10
209.833
 20
4.53376
 30
0.0
 11
209.413
 21
4.32015
 31
0.0
  0
LINE
  8
0
 62
     0
 10
209.413
 20
4.32015
 30
0.0
 11
209.083
 21
3.98805
 31
0.0
  0
LINE
  8
0
 62
     0
 10
209.083
 20
3.98805
 30
0.0
 11
208.869
 21
3.5705
 31
0.0
  0
LINE
  8
0
 62
     0
 10
208.869
 20
3.5705
 30
0.0
 11
208.795
 21
3.1061
 31
0.0
  0
LINE
  8
0
 62
     0
 10
208.795
 20
3.1061
 30
0.0
 11
208.869
 21
2.64308
 31
0.0
  0
LINE
  8
0
 62
     0
 10
208.869
 20
2.64308
 30
0.0
 11
209.083
 21
2.22553
 31
0.0
  0
LINE
  8
0
 62
     0
 10
209.083
 20
2.22553
 30
0.0
 11
209.413
 21
1.89343
 31
0.0
  0
LINE
  8
0
 62
     0
 10
209.413
 20
1.89343
 30
0.0
 11
209.833
 21
1.67983
 31
0.0
  0
LINE
  8
0
 62
     0
 10
209.833
 20
1.67983
 30
0.0
 11
210.295
 21
1.60679
 31
0.0
  0
LINE
  8
0
 62
     0
 10
210.295
 20
1.60679
 30
0.0
 11
210.76
 21
1.67983
 31
0.0
  0
LINE
  8
0
 62
     0
 10
210.76
 20
1.67983
 30
0.0
 11
211.177
 21
1.89343
 31
0.0
  0
LINE
  8
0
 62
     0
 10
211.177
 20
1.89343
 30
0.0
 11
211.51
 21
2.22553
 31
0.0
  0
LINE
  8
0
 62
     0
 10
211.51
 20
2.22553
 30
0.0
 11
211.723
 21
2.64308
 31
0.0
  0
LINE
  8
0
 62
     0
 10
211.723
 20
2.64308
 30
0.0
 11
211.795
 21
3.1061
 31
0.0
  0
LINE
  8
0
 62
     0
 10
211.795
 20
3.1061
 30
0.0
 11
211.723
 21
3.5705
 31
0.0
  0
LINE
  8
0
 62
     0
 10
211.723
 20
3.5705
 30
0.0
 11
211.51
 21
3.98805
 31
0.0
  0
LINE
  8
0
 62
     0
 10
211.51
 20
3.98805
 30
0.0
 11
211.177
 21
4.32015
 31
0.0
  0
LINE
  8
0
 62
     0
 10
211.177
 20
4.32015
 30
0.0
 11
210.76
 21
4.53376
 31
0.0
  0
LINE
  8
0
 62
     0
 10
210.76
 20
4.53376
 30
0.0
 11
210.295
 21
4.60678
 31
0.0
  0
LINE
  8
0
 62
     0
 10
210.295
 20
4.60678
 30
0.0
 11
209.833
 21
4.53376
 31
0.0
  0
LINE
  8
0
 62
     0
 10
313.432
 20
4.53376
 30
0.0
 11
313.014
 21
4.32015
 31
0.0
  0
LINE
  8
0
 62
     0
 10
313.014
 20
4.32015
 30
0.0
 11
312.682
 21
3.98805
 31
0.0
  0
LINE
  8
0
 62
     0
 10
312.682
 20
3.98805
 30
0.0
 11
312.47
 21
3.5705
 31
0.0
  0
LINE
  8
0
 62
     0
 10
312.47
 20
3.5705
 30
0.0
 11
312.397
 21
3.1061
 31
0.0
  0
LINE
  8
0
 62
     0
 10
312.397
 20
3.1061
 30
0.0
 11
312.47
 21
2.64308
 31
0.0
  0
LINE
  8
0
 62
     0
 10
312.47
 20
2.64308
 30
0.0
 11
312.682
 21
2.22553
 31
0.0
  0
LINE
  8
0
 62
     0
 10
312.682
 20
2.22553
 30
0.0
 11
313.014
 21
1.89343
 31
0.0
  0
LINE
  8
0
 62
     0
 10
313.014
 20
1.89343
 30
0.0
 11
313.432
 21
1.67983
 31
0.0
  0
LINE
  8
0
 62
     0
 10
313.432
 20
1.67983
 30
0.0
 11
313.896
 21
1.60679
 31
0.0
  0
LINE
  8
0
 62
     0
 10
313.896
 20
1.60679
 30
0.0
 11
314.36
 21
1.67983
 31
0.0
  0
LINE
  8
0
 62
     0
 10
314.36
 20
1.67983
 30
0.0
 11
314.777
 21
1.89343
 31
0.0
  0
LINE
  8
0
 62
     0
 10
314.777
 20
1.89343
 30
0.0
 11
315.109
 21
2.22553
 31
0.0
  0
LINE
  8
0
 62
     0
 10
315.109
 20
2.22553
 30
0.0
 11
315.323
 21
2.64308
 31
0.0
  0
LINE
  8
0
 62
     0
 10
315.323
 20
2.64308
 30
0.0
 11
315.397
 21
3.1061
 31
0.0
  0
LINE
  8
0
 62
     0
 10
315.397
 20
3.1061
 30
0.0
 11
315.323
 21
3.5705
 31
0.0
  0
LINE
  8
0
 62
     0
 10
315.323
 20
3.5705
 30
0.0
 11
315.109
 21
3.98805
 31
0.0
  0
LINE
  8
0
 62
     0
 10
315.109
 20
3.98805
 30
0.0
 11
314.777
 21
4.32015
 31
0.0
  0
LINE
  8
0
 62
     0
 10
314.777
 20
4.32015
 30
0.0
 11
314.36
 21
4.53376
 31
0.0
  0
LINE
  8
0
 62
     0
 10
314.36
 20
4.53376
 30
0.0
 11
313.896
 21
4.60678
 31
0.0
  0
LINE
  8
0
 62
     0
 10
313.896
 20
4.60678
 30
0.0
 11
313.432
 21
4.53376
 31
0.0
  0
LINE
  8
0
 62
     0
 10
2.63205
 20
93.6847
 30
0.0
 11
2.21313
 21
93.4709
 31
0.0
  0
LINE
  8
0
 62
     0
 10
2.21313
 20
93.4709
 30
0.0
 11
1.88102
 21
93.139
 31
0.0
  0
LINE
  8
0
 62
     0
 10
1.88102
 20
93.139
 30
0.0
 11
1.6688
 21
92.7213
 31
0.0
  0
LINE
  8
0
 62
     0
 10
1.6688
 20
92.7213
 30
0.0
 11
1.59439
 21
92.257
 31
0.0
  0
LINE
  8
0
 62
     0
 10
1.59439
 20
92.257
 30
0.0
 11
1.6688
 21
91.7938
 31
0.0
  0
LINE
  8
0
 62
     0
 10
1.6688
 20
91.7938
 30
0.0
 11
1.88102
 21
91.3751
 31
0.0
  0
LINE
  8
0
 62
     0
 10
1.88102
 20
91.3751
 30
0.0
 11
2.21313
 21
91.0428
 31
0.0
  0
LINE
  8
0
 62
     0
 10
2.21313
 20
91.0428
 30
0.0
 11
2.63205
 21
90.8308
 31
0.0
  0
LINE
  8
0
 62
     0
 10
2.63205
 20
90.8308
 30
0.0
 11
3.09507
 21
90.7577
 31
0.0
  0
LINE
  8
0
 62
     0
 10
3.09507
 20
90.7577
 30
0.0
 11
3.55808
 21
90.8308
 31
0.0
  0
LINE
  8
0
 62
     0
 10
3.55808
 20
90.8308
 30
0.0
 11
3.97701
 21
91.0428
 31
0.0
  0
LINE
  8
0
 62
     0
 10
3.97701
 20
91.0428
 30
0.0
 11
4.30911
 21
91.3751
 31
0.0
  0
LINE
  8
0
 62
     0
 10
4.30911
 20
91.3751
 30
0.0
 11
4.52134
 21
91.7938
 31
0.0
  0
LINE
  8
0
 62
     0
 10
4.52134
 20
91.7938
 30
0.0
 11
4.59574
 21
92.257
 31
0.0
  0
LINE
  8
0
 62
     0
 10
4.59574
 20
92.257
 30
0.0
 11
4.52134
 21
92.7213
 31
0.0
  0
LINE
  8
0
 62
     0
 10
4.52134
 20
92.7213
 30
0.0
 11
4.30911
 21
93.139
 31
0.0
  0
LINE
  8
0
 62
     0
 10
4.30911
 20
93.139
 30
0.0
 11
3.97701
 21
93.4709
 31
0.0
  0
LINE
  8
0
 62
     0
 10
3.97701
 20
93.4709
 30
0.0
 11
3.55808
 21
93.6847
 31
0.0
  0
LINE
  8
0
 62
     0
 10
3.55808
 20
93.6847
 30
0.0
 11
3.09507
 21
93.7577
 31
0.0
  0
LINE
  8
0
 62
     0
 10
3.09507
 20
93.7577
 30
0.0
 11
2.63205
 21
93.6847
 31
0.0
  0
LINE
  8
0
 62
     0
 10
313.432
 20
93.6847
 30
0.0
 11
313.014
 21
93.4709
 31
0.0
  0
LINE
  8
0
 62
     0
 10
313.014
 20
93.4709
 30
0.0
 11
312.682
 21
93.139
 31
0.0
  0
LINE
  8
0
 62
     0
 10
312.682
 20
93.139
 30
0.0
 11
312.47
 21
92.7213
 31
0.0
  0
LINE
  8
0
 62
     0
 10
312.47
 20
92.7213
 30
0.0
 11
312.397
 21
92.257
 31
0.0
  0
LINE
  8
0
 62
     0
 10
312.397
 20
92.257
 30
0.0
 11
312.47
 21
91.7938
 31
0.0
  0
LINE
  8
0
 62
     0
 10
312.47
 20
91.7938
 30
0.0
 11
312.682
 21
91.3751
 31
0.0
  0
LINE
  8
0
 62
     0
 10
312.682
 20
91.3751
 30
0.0
 11
313.014
 21
91.0428
 31
0.0
  0
LINE
  8
0
 62
     0
 10
313.014
 20
91.0428
 30
0.0
 11
313.432
 21
90.8308
 31
0.0
  0
LINE
  8
0
 62
     0
 10
313.432
 20
90.8308
 30
0.0
 11
313.896
 21
90.7577
 31
0.0
  0
LINE
  8
0
 62
     0
 10
313.896
 20
90.7577
 30
0.0
 11
314.36
 21
90.8308
 31
0.0
  0
LINE
  8
0
 62
     0
 10
314.36
 20
90.8308
 30
0.0
 11
314.777
 21
91.0428
 31
0.0
  0
LINE
  8
0
 62
     0
 10
314.777
 20
91.0428
 30
0.0
 11
315.109
 21
91.3751
 31
0.0
  0
LINE
  8
0
 62
     0
 10
315.109
 20
91.3751
 30
0.0
 11
315.323
 21
91.7938
 31
0.0
  0
LINE
  8
0
 62
     0
 10
315.323
 20
91.7938
 30
0.0
 11
315.397
 21
92.257
 31
0.0
  0
LINE
  8
0
 62
     0
 10
315.397
 20
92.257
 30
0.0
 11
315.323
 21
92.7213
 31
0.0
  0
LINE
  8
0
 62
     0
 10
315.323
 20
92.7213
 30
0.0
 11
315.109
 21
93.139
 31
0.0
  0
LINE
  8
0
 62
     0
 10
315.109
 20
93.139
 30
0.0
 11
314.777
 21
93.4709
 31
0.0
  0
LINE
  8
0
 62
     0
 10
314.777
 20
93.4709
 30
0.0
 11
314.36
 21
93.6847
 31
0.0
  0
LINE
  8
0
 62
     0
 10
314.36
 20
93.6847
 30
0.0
 11
313.896
 21
93.7577
 31
0.0
  0
LINE
  8
0
 62
     0
 10
313.896
 20
93.7577
 30
0.0
 11
313.432
 21
93.6847
 31
0.0
  0
LINE
  8
0
 62
     0
 10
2.63205
 20
182.834
 30
0.0
 11
2.21313
 21
182.622
 31
0.0
  0
LINE
  8
0
 62
     0
 10
2.21313
 20
182.622
 30
0.0
 11
1.88102
 21
182.29
 31
0.0
  0
LINE
  8
0
 62
     0
 10
1.88102
 20
182.29
 30
0.0
 11
1.6688
 21
181.871
 31
0.0
  0
LINE
  8
0
 62
     0
 10
1.6688
 20
181.871
 30
0.0
 11
1.59439
 21
181.408
 31
0.0
  0
LINE
  8
0
 62
     0
 10
1.59439
 20
181.408
 30
0.0
 11
1.6688
 21
180.945
 31
0.0
  0
LINE
  8
0
 62
     0
 10
1.6688
 20
180.945
 30
0.0
 11
1.88102
 21
180.526
 31
0.0
  0
LINE
  8
0
 62
     0
 10
1.88102
 20
180.526
 30
0.0
 11
2.21313
 21
180.194
 31
0.0
  0
LINE
  8
0
 62
     0
 10
2.21313
 20
180.194
 30
0.0
 11
2.63205
 21
179.982
 31
0.0
  0
LINE
  8
0
 62
     0
 10
2.63205
 20
179.982
 30
0.0
 11
3.09507
 21
179.907
 31
0.0
  0
LINE
  8
0
 62
     0
 10
3.09507
 20
179.907
 30
0.0
 11
3.55808
 21
179.982
 31
0.0
  0
LINE
  8
0
 62
     0
 10
3.55808
 20
179.982
 30
0.0
 11
3.97701
 21
180.194
 31
0.0
  0
LINE
  8
0
 62
     0
 10
3.97701
 20
180.194
 30
0.0
 11
4.30911
 21
180.526
 31
0.0
  0
LINE
  8
0
 62
     0
 10
4.30911
 20
180.526
 30
0.0
 11
4.52134
 21
180.945
 31
0.0
  0
LINE
  8
0
 62
     0
 10
4.52134
 20
180.945
 30
0.0
 11
4.59574
 21
181.408
 31
0.0
  0
LINE
  8
0
 62
     0
 10
4.59574
 20
181.408
 30
0.0
 11
4.52134
 21
181.871
 31
0.0
  0
LINE
  8
0
 62
     0
 10
4.52134
 20
181.871
 30
0.0
 11
4.30911
 21
182.29
 31
0.0
  0
LINE
  8
0
 62
     0
 10
4.30911
 20
182.29
 30
0.0
 11
3.97701
 21
182.622
 31
0.0
  0
LINE
  8
0
 62
     0
 10
3.97701
 20
182.622
 30
0.0
 11
3.55808
 21
182.834
 31
0.0
  0
LINE
  8
0
 62
     0
 10
3.55808
 20
182.834
 30
0.0
 11
3.09507
 21
182.907
 31
0.0
  0
LINE
  8
0
 62
     0
 10
3.09507
 20
182.907
 30
0.0
 11
2.63205
 21
182.834
 31
0.0
  0
LINE
  8
0
 62
     0
 10
313.432
 20
182.834
 30
0.0
 11
313.014
 21
182.622
 31
0.0
  0
LINE
  8
0
 62
     0
 10
313.014
 20
182.622
 30
0.0
 11
312.682
 21
182.29
 31
0.0
  0
LINE
  8
0
 62
     0
 10
312.682
 20
182.29
 30
0.0
 11
312.47
 21
181.871
 31
0.0
  0
LINE
  8
0
 62
     0
 10
312.47
 20
181.871
 30
0.0
 11
312.397
 21
181.408
 31
0.0
  0
LINE
  8
0
 62
     0
 10
312.397
 20
181.408
 30
0.0
 11
312.47
 21
180.945
 31
0.0
  0
LINE
  8
0
 62
     0
 10
312.47
 20
180.945
 30
0.0
 11
312.682
 21
180.526
 31
0.0
  0
LINE
  8
0
 62
     0
 10
312.682
 20
180.526
 30
0.0
 11
313.014
 21
180.194
 31
0.0
  0
LINE
  8
0
 62
     0
 10
313.014
 20
180.194
 30
0.0
 11
313.432
 21
179.982
 31
0.0
  0
LINE
  8
0
 62
     0
 10
313.432
 20
179.982
 30
0.0
 11
313.896
 21
179.907
 31
0.0
  0
LINE
  8
0
 62
     0
 10
313.896
 20
179.907
 30
0.0
 11
314.36
 21
179.982
 31
0.0
  0
LINE
  8
0
 62
     0
 10
314.36
 20
179.982
 30
0.0
 11
314.777
 21
180.194
 31
0.0
  0
LINE
  8
0
 62
     0
 10
314.777
 20
180.194
 30
0.0
 11
315.109
 21
180.526
 31
0.0
  0
LINE
  8
0
 62
     0
 10
315.109
 20
180.526
 30
0.0
 11
315.323
 21
180.945
 31
0.0
  0
LINE
  8
0
 62
     0
 10
315.323
 20
180.945
 30
0.0
 11
315.397
 21
181.408
 31
0.0
  0
LINE
  8
0
 62
     0
 10
315.397
 20
181.408
 30
0.0
 11
315.323
 21
181.871
 31
0.0
  0
LINE
  8
0
 62
     0
 10
315.323
 20
181.871
 30
0.0
 11
315.109
 21
182.29
 31
0.0
  0
LINE
  8
0
 62
     0
 10
315.109
 20
182.29
 30
0.0
 11
314.777
 21
182.622
 31
0.0
  0
LINE
  8
0
 62
     0
 10
314.777
 20
182.622
 30
0.0
 11
314.36
 21
182.834
 31
0.0
  0
LINE
  8
0
 62
     0
 10
314.36
 20
182.834
 30
0.0
 11
313.896
 21
182.907
 31
0.0
  0
LINE
  8
0
 62
     0
 10
313.896
 20
182.907
 30
0.0
 11
313.432
 21
182.834
 31
0.0
  0
LINE
  8
0
 62
     0
 10
209.833
 20
182.834
 30
0.0
 11
209.413
 21
182.622
 31
0.0
  0
LINE
  8
0
 62
     0
 10
209.413
 20
182.622
 30
0.0
 11
209.083
 21
182.29
 31
0.0
  0
LINE
  8
0
 62
     0
 10
209.083
 20
182.29
 30
0.0
 11
208.869
 21
181.871
 31
0.0
  0
LINE
  8
0
 62
     0
 10
208.869
 20
181.871
 30
0.0
 11
208.795
 21
181.408
 31
0.0
  0
LINE
  8
0
 62
     0
 10
208.795
 20
181.408
 30
0.0
 11
208.869
 21
180.945
 31
0.0
  0
LINE
  8
0
 62
     0
 10
208.869
 20
180.945
 30
0.0
 11
209.083
 21
180.526
 31
0.0
  0
LINE
  8
0
 62
     0
 10
209.083
 20
180.526
 30
0.0
 11
209.413
 21
180.194
 31
0.0
  0
LINE
  8
0
 62
     0
 10
209.413
 20
180.194
 30
0.0
 11
209.833
 21
179.982
 31
0.0
  0
LINE
  8
0
 62
     0
 10
209.833
 20
179.982
 30
0.0
 11
210.295
 21
179.907
 31
0.0
  0
LINE
  8
0
 62
     0
 10
210.295
 20
179.907
 30
0.0
 11
210.76
 21
179.982
 31
0.0
  0
LINE
  8
0
 62
     0
 10
210.76
 20
179.982
 30
0.0
 11
211.177
 21
180.194
 31
0.0
  0
LINE
  8
0
 62
     0
 10
211.177
 20
180.194
 30
0.0
 11
211.51
 21
180.526
 31
0.0
  0
LINE
  8
0
 62
     0
 10
211.51
 20
180.526
 30
0.0
 11
211.723
 21
180.945
 31
0.0
  0
LINE
  8
0
 62
     0
 10
211.723
 20
180.945
 30
0.0
 11
211.795
 21
181.408
 31
0.0
  0
LINE
  8
0
 62
     0
 10
211.795
 20
181.408
 30
0.0
 11
211.723
 21
181.871
 31
0.0
  0
LINE
  8
0
 62
     0
 10
211.723
 20
181.871
 30
0.0
 11
211.51
 21
182.29
 31
0.0
  0
LINE
  8
0
 62
     0
 10
211.51
 20
182.29
 30
0.0
 11
211.177
 21
182.622
 31
0.0
  0
LINE
  8
0
 62
     0
 10
211.177
 20
182.622
 30
0.0
 11
210.76
 21
182.834
 31
0.0
  0
LINE
  8
0
 62
     0
 10
210.76
 20
182.834
 30
0.0
 11
210.295
 21
182.907
 31
0.0
  0
LINE
  8
0
 62
     0
 10
210.295
 20
182.907
 30
0.0
 11
209.833
 21
182.834
 31
0.0
  0
LINE
  8
0
 62
     0
 10
106.232
 20
182.834
 30
0.0
 11
105.814
 21
182.622
 31
0.0
  0
LINE
  8
0
 62
     0
 10
105.814
 20
182.622
 30
0.0
 11
105.482
 21
182.29
 31
0.0
  0
LINE
  8
0
 62
     0
 10
105.482
 20
182.29
 30
0.0
 11
105.268
 21
181.871
 31
0.0
  0
LINE
  8
0
 62
     0
 10
105.268
 20
181.871
 30
0.0
 11
105.195
 21
181.408
 31
0.0
  0
LINE
  8
0
 62
     0
 10
105.195
 20
181.408
 30
0.0
 11
105.268
 21
180.945
 31
0.0
  0
LINE
  8
0
 62
     0
 10
105.268
 20
180.945
 30
0.0
 11
105.482
 21
180.526
 31
0.0
  0
LINE
  8
0
 62
     0
 10
105.482
 20
180.526
 30
0.0
 11
105.814
 21
180.194
 31
0.0
  0
LINE
  8
0
 62
     0
 10
105.814
 20
180.194
 30
0.0
 11
106.232
 21
179.982
 31
0.0
  0
LINE
  8
0
 62
     0
 10
106.232
 20
179.982
 30
0.0
 11
106.696
 21
179.907
 31
0.0
  0
LINE
  8
0
 62
     0
 10
106.696
 20
179.907
 30
0.0
 11
107.159
 21
179.982
 31
0.0
  0
LINE
  8
0
 62
     0
 10
107.159
 20
179.982
 30
0.0
 11
107.578
 21
180.194
 31
0.0
  0
LINE
  8
0
 62
     0
 10
107.578
 20
180.194
 30
0.0
 11
107.909
 21
180.526
 31
0.0
  0
LINE
  8
0
 62
     0
 10
107.909
 20
180.526
 30
0.0
 11
108.121
 21
180.945
 31
0.0
  0
LINE
  8
0
 62
     0
 10
108.121
 20
180.945
 30
0.0
 11
108.195
 21
181.408
 31
0.0
  0
LINE
  8
0
 62
     0
 10
108.195
 20
181.408
 30
0.0
 11
108.121
 21
181.871
 31
0.0
  0
LINE
  8
0
 62
     0
 10
108.121
 20
181.871
 30
0.0
 11
107.909
 21
182.29
 31
0.0
  0
LINE
  8
0
 62
     0
 10
107.909
 20
182.29
 30
0.0
 11
107.578
 21
182.622
 31
0.0
  0
LINE
  8
0
 62
     0
 10
107.578
 20
182.622
 30
0.0
 11
107.159
 21
182.834
 31
0.0
  0
LINE
  8
0
 62
     0
 10
107.159
 20
182.834
 30
0.0
 11
106.696
 21
182.907
 31
0.0
  0
LINE
  8
0
 62
     0
 10
106.696
 20
182.907
 30
0.0
 11
106.232
 21
182.834
 31
0.0
  0
ENDSEC
  0
EOF
