<?xml version="1.0"?>
<!-- Generated by SVGo -->
<svg width="328.802mm" height="194.812mm"
     viewBox="0.000 0.000 328.802 194.812"
     xmlns="http://www.w3.org/2000/svg" 
     xmlns:xlink="http://www.w3.org/1999/xlink">
<polygon points="319.992,5.001 320.290,5.012 320.588,5.047 320.881,5.106 321.169,5.187 321.450,5.291 321.721,5.416 321.982,5.562 322.231,5.728 322.466,5.913 322.686,6.116 322.889,6.336 323.074,6.571 323.240,6.820 323.386,7.081 323.511,7.352 323.615,7.633 323.696,7.921 323.755,8.214 323.790,8.512 323.802,8.811 323.802,186.002 323.790,186.300 323.755,186.598 323.696,186.891 323.615,187.179 323.511,187.460 323.386,187.731 323.240,187.992 323.074,188.241 322.889,188.476 322.686,188.696 322.466,188.899 322.231,189.084 321.982,189.250 321.721,189.396 321.450,189.521 321.169,189.625 320.881,189.706 320.588,189.765 320.290,189.800 319.992,189.812 8.811,189.812 8.512,189.800 8.214,189.765 7.921,189.706 7.633,189.625 7.352,189.521 7.081,189.396 6.820,189.250 6.571,189.084 6.336,188.899 6.116,188.696 5.913,188.476 5.728,188.241 5.562,187.992 5.416,187.731 5.291,187.460 5.187,187.179 5.106,186.891 5.047,186.598 5.012,186.300 5.000,186.002 5.001,8.811 5.012,8.512 5.047,8.214 5.106,7.921 5.187,7.633 5.291,7.352 5.416,7.081 5.562,6.820 5.728,6.571 5.913,6.336 6.116,6.116 6.336,5.913 6.571,5.728 6.820,5.562 7.081,5.416 7.352,5.291 7.633,5.187 7.921,5.106 8.214,5.047 8.512,5.012 8.811,5.000" style="fill:none;stroke-width:0.050000mm;stroke:black"/>
<polygon points="7.975,184.695 7.501,184.936 7.125,185.312 6.884,185.786 6.801,186.312 6.884,186.837 7.125,187.311 7.501,187.687 7.975,187.928 8.501,188.012 9.026,187.928 9.500,187.687 9.876,187.311 10.117,186.837 10.201,186.312 10.117,185.786 9.876,185.312 9.500,184.936 9.026,184.695 8.501,184.612" style="fill:none;stroke-width:0.050000mm;stroke:black"/>
<polygon points="111.909,184.695 111.435,184.936 111.059,185.312 110.817,185.786 110.734,186.312 110.817,186.837 111.059,187.311 111.435,187.687 111.909,187.928 112.434,188.012 112.959,187.928 113.433,187.687 113.809,187.311 114.051,186.837 114.134,186.312 114.051,185.786 113.809,185.312 113.433,184.936 112.959,184.695 112.434,184.612" style="fill:none;stroke-width:0.050000mm;stroke:black"/>
<polygon points="215.843,184.695 215.369,184.936 214.993,185.312 214.751,185.786 214.668,186.312 214.751,186.837 214.993,187.311 215.369,187.687 215.843,187.928 216.368,188.012 216.893,187.928 217.367,187.687 217.743,187.311 217.985,186.837 218.068,186.312 217.985,185.786 217.743,185.312 217.367,184.936 216.893,184.695 216.368,184.612" style="fill:none;stroke-width:0.050000mm;stroke:black"/>
<polygon points="319.776,184.695 319.302,184.936 318.926,185.312 318.685,185.786 318.602,186.312 318.685,186.837 318.926,187.311 319.302,187.687 319.776,187.928 320.302,188.012 320.827,187.928 321.301,187.687 321.677,187.311 321.918,186.837 322.002,186.312 321.918,185.786 321.677,185.312 321.301,184.936 320.827,184.695 320.302,184.612" style="fill:none;stroke-width:0.050000mm;stroke:black"/>
<polygon points="300.276,166.286 300.276,167.286 299.476,167.286 299.476,170.386 300.276,170.386 300.276,176.186 299.476,176.186 299.476,179.286 300.276,179.286 300.276,180.286 314.276,180.286 314.276,179.286 315.076,179.286 315.076,176.186 314.276,176.186 314.276,170.386 315.076,170.386 315.076,167.286 314.276,167.286 314.276,166.286" style="fill:none;stroke-width:0.050000mm;stroke:black"/>
<polygon points="281.226,166.286 281.226,167.286 280.426,167.286 280.426,170.386 281.226,170.386 281.226,176.186 280.426,176.186 280.426,179.286 281.226,179.286 281.226,180.286 295.226,180.286 295.226,179.286 296.026,179.286 296.026,176.186 295.226,176.186 295.226,170.386 296.026,170.386 296.026,167.286 295.226,167.286 295.226,166.286" style="fill:none;stroke-width:0.050000mm;stroke:black"/>
<polygon points="262.176,166.286 262.176,167.286 261.376,167.286 261.376,170.386 262.176,170.386 262.176,176.186 261.376,176.186 261.376,179.286 262.176,179.286 262.176,180.286 276.176,180.286 276.176,179.286 276.976,179.286 276.976,176.186 276.176,176.186 276.176,170.386 276.976,170.386 276.976,167.286 276.176,167.286 276.176,166.286" style="fill:none;stroke-width:0.050000mm;stroke:black"/>
<polygon points="243.126,166.286 243.126,167.286 242.326,167.286 242.326,170.386 243.126,170.386 243.126,176.186 242.326,176.186 242.326,179.286 243.126,179.286 243.126,180.286 257.126,180.286 257.126,179.286 257.926,179.286 257.926,176.186 257.126,176.186 257.126,170.386 257.926,170.386 257.926,167.286 257.126,167.286 257.126,166.286" style="fill:none;stroke-width:0.050000mm;stroke:black"/>
<polygon points="224.076,166.286 224.076,167.286 223.276,167.286 223.276,170.386 224.076,170.386 224.076,176.186 223.276,176.186 223.276,179.286 224.076,179.286 224.076,180.286 238.076,180.286 238.076,179.286 238.876,179.286 238.876,176.186 238.076,176.186 238.076,170.386 238.876,170.386 238.876,167.286 238.076,167.286 238.076,166.286" style="fill:none;stroke-width:0.050000mm;stroke:black"/>
<polygon points="205.026,166.286 205.026,167.286 204.226,167.286 204.226,170.386 205.026,170.386 205.026,176.186 204.226,176.186 204.226,179.286 205.026,179.286 205.026,180.286 219.026,180.286 219.026,179.286 219.826,179.286 219.826,176.186 219.026,176.186 219.026,170.386 219.826,170.386 219.826,167.286 219.026,167.286 219.026,166.286" style="fill:none;stroke-width:0.050000mm;stroke:black"/>
<polygon points="91.319,165.536 91.319,166.516 89.594,166.516 89.594,172.786 88.769,172.786 88.769,175.586 89.594,175.586 89.594,178.816 91.319,178.816 91.319,179.736 94.619,179.736 94.619,178.816 96.344,178.816 96.344,175.586 135.969,175.586 135.969,176.186 135.169,176.186 135.169,179.286 135.969,179.286 135.969,180.286 149.969,180.286 149.969,179.286 150.769,179.286 150.769,176.186 149.969,176.186 149.969,175.586 189.594,175.586 189.594,178.816 191.319,178.816 191.319,179.736 194.619,179.736 194.619,178.816 196.344,178.816 196.344,175.586 197.169,175.586 197.169,172.786 196.344,172.786 196.344,166.516 194.619,166.516 194.619,165.536 191.319,165.536 191.319,166.516 189.594,166.516 189.594,170.986 149.969,170.986 149.969,170.386 150.769,170.386 150.769,167.286 149.969,167.286 149.969,166.286 135.969,166.286 135.969,167.286 135.169,167.286 135.169,170.386 135.969,170.386 135.969,170.986 96.344,170.986 96.344,166.516 94.619,166.516 94.619,165.536" style="fill:none;stroke-width:0.050000mm;stroke:black"/>
<polygon points="64.532,166.286 64.532,167.286 63.732,167.286 63.732,170.386 64.532,170.386 64.532,176.186 63.732,176.186 63.732,179.286 64.532,179.286 64.532,180.286 78.532,180.286 78.532,179.286 79.332,179.286 79.332,176.186 78.532,176.186 78.532,170.386 79.332,170.386 79.332,167.286 78.532,167.286 78.532,166.286" style="fill:none;stroke-width:0.050000mm;stroke:black"/>
<polygon points="40.719,166.286 40.719,167.286 39.919,167.286 39.919,170.386 40.719,170.386 40.719,176.186 39.919,176.186 39.919,179.286 40.719,179.286 40.719,180.286 54.719,180.286 54.719,179.286 55.519,179.286 55.519,176.186 54.719,176.186 54.719,170.386 55.519,170.386 55.519,167.286 54.719,167.286 54.719,166.286" style="fill:none;stroke-width:0.050000mm;stroke:black"/>
<polygon points="16.907,166.286 16.907,167.286 16.107,167.286 16.107,170.386 16.907,170.386 16.907,176.186 16.107,176.186 16.107,179.286 16.907,179.286 16.907,180.286 30.907,180.286 30.907,179.286 31.707,179.286 31.707,176.186 30.907,176.186 30.907,170.386 31.707,170.386 31.707,167.286 30.907,167.286 30.907,166.286" style="fill:none;stroke-width:0.050000mm;stroke:black"/>
<polygon points="26.432,147.236 26.432,148.236 25.632,148.236 25.632,151.336 26.432,151.336 26.432,151.936 24.907,151.936 24.907,148.706 23.182,148.706 23.182,147.786 19.882,147.786 19.882,148.706 18.157,148.706 18.157,151.936 17.332,151.936 17.332,154.736 18.157,154.736 18.157,161.006 19.882,161.006 19.882,161.986 23.182,161.986 23.182,161.006 24.907,161.006 24.907,156.536 26.432,156.536 26.432,157.136 25.632,157.136 25.632,160.236 26.432,160.236 26.432,161.236 40.432,161.236 40.432,160.236 41.232,160.236 41.232,157.136 40.432,157.136 40.432,156.536 41.957,156.536 41.957,161.006 43.682,161.006 43.682,161.986 46.982,161.986 46.982,161.006 48.707,161.006 48.707,154.736 49.532,154.736 49.532,151.936 48.707,151.936 48.707,148.706 46.982,148.706 46.982,147.786 43.682,147.786 43.682,148.706 41.957,148.706 41.957,151.936 40.432,151.936 40.432,151.336 41.232,151.336 41.232,148.236 40.432,148.236 40.432,147.236" style="fill:none;stroke-width:0.050000mm;stroke:black"/>
<polygon points="300.276,147.236 300.276,148.236 299.476,148.236 299.476,151.336 300.276,151.336 300.276,157.136 299.476,157.136 299.476,160.236 300.276,160.236 300.276,161.236 314.276,161.236 314.276,160.236 315.076,160.236 315.076,157.136 314.276,157.136 314.276,151.336 315.076,151.336 315.076,148.236 314.276,148.236 314.276,147.236" style="fill:none;stroke-width:0.050000mm;stroke:black"/>
<polygon points="281.226,147.236 281.226,148.236 280.426,148.236 280.426,151.336 281.226,151.336 281.226,157.136 280.426,157.136 280.426,160.236 281.226,160.236 281.226,161.236 295.226,161.236 295.226,160.236 296.026,160.236 296.026,157.136 295.226,157.136 295.226,151.336 296.026,151.336 296.026,148.236 295.226,148.236 295.226,147.236" style="fill:none;stroke-width:0.050000mm;stroke:black"/>
<polygon points="255.032,147.236 255.032,148.236 254.232,148.236 254.232,151.336 255.032,151.336 255.032,157.136 254.232,157.136 254.232,160.236 255.032,160.236 255.032,161.236 269.032,161.236 269.032,160.236 269.832,160.236 269.832,157.136 269.032,157.136 269.032,151.336 269.832,151.336 269.832,148.236 269.032,148.236 269.032,147.236" style="fill:none;stroke-width:0.050000mm;stroke:black"/>
<polygon points="228.838,147.236 228.838,148.236 228.038,148.236 228.038,151.336 228.838,151.336 228.838,157.136 228.038,157.136 228.038,160.236 228.838,160.236 228.838,161.236 242.838,161.236 242.838,160.236 243.638,160.236 243.638,157.136 242.838,157.136 242.838,151.336 243.638,151.336 243.638,148.236 242.838,148.236 242.838,147.236" style="fill:none;stroke-width:0.050000mm;stroke:black"/>
<polygon points="209.788,147.236 209.788,148.236 208.988,148.236 208.988,151.336 209.788,151.336 209.788,157.136 208.988,157.136 208.988,160.236 209.788,160.236 209.788,161.236 223.788,161.236 223.788,160.236 224.588,160.236 224.588,157.136 223.788,157.136 223.788,151.336 224.588,151.336 224.588,148.236 223.788,148.236 223.788,147.236" style="fill:none;stroke-width:0.050000mm;stroke:black"/>
<polygon points="190.738,147.236 190.738,148.236 189.938,148.236 189.938,151.336 190.738,151.336 190.738,157.136 189.938,157.136 189.938,160.236 190.738,160.236 190.738,161.236 204.738,161.236 204.738,160.236 205.538,160.236 205.538,157.136 204.738,157.136 204.738,151.336 205.538,151.336 205.538,148.236 204.738,148.236 204.738,147.236" style="fill:none;stroke-width:0.050000mm;stroke:black"/>
<polygon points="171.688,147.236 171.688,148.236 170.888,148.236 170.888,151.336 171.688,151.336 171.688,157.136 170.888,157.136 170.888,160.236 171.688,160.236 171.688,161.236 185.688,161.236 185.688,160.236 186.488,160.236 186.488,157.136 185.688,157.136 185.688,151.336 186.488,151.336 186.488,148.236 185.688,148.236 185.688,147.236" style="fill:none;stroke-width:0.050000mm;stroke:black"/>
<polygon points="152.638,147.236 152.638,148.236 151.838,148.236 151.838,151.336 152.638,151.336 152.638,157.136 151.838,157.136 151.838,160.236 152.638,160.236 152.638,161.236 166.638,161.236 166.638,160.236 167.438,160.236 167.438,157.136 166.638,157.136 166.638,151.336 167.438,151.336 167.438,148.236 166.638,148.236 166.638,147.236" style="fill:none;stroke-width:0.050000mm;stroke:black"/>
<polygon points="133.588,147.236 133.588,148.236 132.788,148.236 132.788,151.336 133.588,151.336 133.588,157.136 132.788,157.136 132.788,160.236 133.588,160.236 133.588,161.236 147.588,161.236 147.588,160.236 148.388,160.236 148.388,157.136 147.588,157.136 147.588,151.336 148.388,151.336 148.388,148.236 147.588,148.236 147.588,147.236" style="fill:none;stroke-width:0.050000mm;stroke:black"/>
<polygon points="114.538,147.236 114.538,148.236 113.738,148.236 113.738,151.336 114.538,151.336 114.538,157.136 113.738,157.136 113.738,160.236 114.538,160.236 114.538,161.236 128.538,161.236 128.538,160.236 129.337,160.236 129.337,157.136 128.538,157.136 128.538,151.336 129.337,151.336 129.337,148.236 128.538,148.236 128.538,147.236" style="fill:none;stroke-width:0.050000mm;stroke:black"/>
<polygon points="95.488,147.236 95.488,148.236 94.688,148.236 94.688,151.336 95.488,151.336 95.488,157.136 94.688,157.136 94.688,160.236 95.488,160.236 95.488,161.236 109.488,161.236 109.488,160.236 110.288,160.236 110.288,157.136 109.488,157.136 109.488,151.336 110.288,151.336 110.288,148.236 109.488,148.236 109.488,147.236" style="fill:none;stroke-width:0.050000mm;stroke:black"/>
<polygon points="76.438,147.236 76.438,148.236 75.638,148.236 75.638,151.336 76.438,151.336 76.438,157.136 75.638,157.136 75.638,160.236 76.438,160.236 76.438,161.236 90.438,161.236 90.438,160.236 91.238,160.236 91.238,157.136 90.438,157.136 90.438,151.336 91.238,151.336 91.238,148.236 90.438,148.236 90.438,147.236" style="fill:none;stroke-width:0.050000mm;stroke:black"/>
<polygon points="57.388,147.236 57.388,148.236 56.588,148.236 56.588,151.336 57.388,151.336 57.388,157.136 56.588,157.136 56.588,160.236 57.388,160.236 57.388,161.236 71.388,161.236 71.388,160.236 72.188,160.236 72.188,157.136 71.388,157.136 71.388,151.336 72.188,151.336 72.188,148.236 71.388,148.236 71.388,147.236" style="fill:none;stroke-width:0.050000mm;stroke:black"/>
<polygon points="269.319,128.186 269.319,129.186 268.519,129.186 268.519,132.286 269.319,132.286 269.319,132.886 267.794,132.886 267.794,129.656 266.069,129.656 266.069,128.736 262.769,128.736 262.769,129.656 261.044,129.656 261.044,132.886 260.219,132.886 260.219,135.686 261.044,135.686 261.044,141.956 262.769,141.956 262.769,142.936 266.069,142.936 266.069,141.956 267.794,141.956 267.794,137.486 269.319,137.486 269.319,138.086 268.519,138.086 268.519,141.186 269.319,141.186 269.319,142.186 283.319,142.186 283.319,141.186 284.119,141.186 284.119,138.086 283.319,138.086 283.319,137.486 284.844,137.486 284.844,141.956 286.569,141.956 286.569,142.936 289.869,142.936 289.869,141.956 291.594,141.956 291.594,135.686 292.419,135.686 292.419,132.886 291.594,132.886 291.594,129.656 289.869,129.656 289.869,128.736 286.569,128.736 286.569,129.656 284.844,129.656 284.844,132.886 283.319,132.886 283.319,132.286 284.119,132.286 284.119,129.186 283.319,129.186 283.319,128.186" style="fill:none;stroke-width:0.050000mm;stroke:black"/>
<polygon points="300.276,128.186 300.276,129.186 299.476,129.186 299.476,132.286 300.276,132.286 300.276,138.086 299.476,138.086 299.476,141.186 300.276,141.186 300.276,142.186 314.276,142.186 314.276,141.186 315.076,141.186 315.076,138.086 314.276,138.086 314.276,132.286 315.076,132.286 315.076,129.186 314.276,129.186 314.276,128.186" style="fill:none;stroke-width:0.050000mm;stroke:black"/>
<polygon points="238.363,128.186 238.363,129.186 237.563,129.186 237.563,132.286 238.363,132.286 238.363,138.086 237.563,138.086 237.563,141.186 238.363,141.186 238.363,142.186 252.363,142.186 252.363,141.186 253.163,141.186 253.163,138.086 252.363,138.086 252.363,132.286 253.163,132.286 253.163,129.186 252.363,129.186 252.363,128.186" style="fill:none;stroke-width:0.050000mm;stroke:black"/>
<polygon points="219.313,128.186 219.313,129.186 218.513,129.186 218.513,132.286 219.313,132.286 219.313,138.086 218.513,138.086 218.513,141.186 219.313,141.186 219.313,142.186 233.313,142.186 233.313,141.186 234.113,141.186 234.113,138.086 233.313,138.086 233.313,132.286 234.113,132.286 234.113,129.186 233.313,129.186 233.313,128.186" style="fill:none;stroke-width:0.050000mm;stroke:black"/>
<polygon points="200.263,128.186 200.263,129.186 199.463,129.186 199.463,132.286 200.263,132.286 200.263,138.086 199.463,138.086 199.463,141.186 200.263,141.186 200.263,142.186 214.263,142.186 214.263,141.186 215.063,141.186 215.063,138.086 214.263,138.086 214.263,132.286 215.063,132.286 215.063,129.186 214.263,129.186 214.263,128.186" style="fill:none;stroke-width:0.050000mm;stroke:black"/>
<polygon points="181.213,128.186 181.213,129.186 180.413,129.186 180.413,132.286 181.213,132.286 181.213,138.086 180.413,138.086 180.413,141.186 181.213,141.186 181.213,142.186 195.213,142.186 195.213,141.186 196.013,141.186 196.013,138.086 195.213,138.086 195.213,132.286 196.013,132.286 196.013,129.186 195.213,129.186 195.213,128.186" style="fill:none;stroke-width:0.050000mm;stroke:black"/>
<polygon points="162.163,128.186 162.163,129.186 161.363,129.186 161.363,132.286 162.163,132.286 162.163,138.086 161.363,138.086 161.363,141.186 162.163,141.186 162.163,142.186 176.163,142.186 176.163,141.186 176.963,141.186 176.963,138.086 176.163,138.086 176.163,132.286 176.963,132.286 176.963,129.186 176.163,129.186 176.163,128.186" style="fill:none;stroke-width:0.050000mm;stroke:black"/>
<polygon points="143.113,128.186 143.113,129.186 142.313,129.186 142.313,132.286 143.113,132.286 143.113,138.086 142.313,138.086 142.313,141.186 143.113,141.186 143.113,142.186 157.113,142.186 157.113,141.186 157.913,141.186 157.913,138.086 157.113,138.086 157.113,132.286 157.913,132.286 157.913,129.186 157.113,129.186 157.113,128.186" style="fill:none;stroke-width:0.050000mm;stroke:black"/>
<polygon points="124.063,128.186 124.063,129.186 123.263,129.186 123.263,132.286 124.063,132.286 124.063,138.086 123.263,138.086 123.263,141.186 124.063,141.186 124.063,142.186 138.063,142.186 138.063,141.186 138.863,141.186 138.863,138.086 138.063,138.086 138.063,132.286 138.863,132.286 138.863,129.186 138.063,129.186 138.063,128.186" style="fill:none;stroke-width:0.050000mm;stroke:black"/>
<polygon points="105.013,128.186 105.013,129.186 104.213,129.186 104.213,132.286 105.013,132.286 105.013,138.086 104.213,138.086 104.213,141.186 105.013,141.186 105.013,142.186 119.013,142.186 119.013,141.186 119.813,141.186 119.813,138.086 119.013,138.086 119.013,132.286 119.813,132.286 119.813,129.186 119.013,129.186 119.013,128.186" style="fill:none;stroke-width:0.050000mm;stroke:black"/>
<polygon points="85.963,128.186 85.963,129.186 85.163,129.186 85.163,132.286 85.963,132.286 85.963,138.086 85.163,138.086 85.163,141.186 85.963,141.186 85.963,142.186 99.963,142.186 99.963,141.186 100.763,141.186 100.763,138.086 99.963,138.086 99.963,132.286 100.763,132.286 100.763,129.186 99.963,129.186 99.963,128.186" style="fill:none;stroke-width:0.050000mm;stroke:black"/>
<polygon points="66.913,128.186 66.913,129.186 66.113,129.186 66.113,132.286 66.913,132.286 66.913,138.086 66.113,138.086 66.113,141.186 66.913,141.186 66.913,142.186 80.913,142.186 80.913,141.186 81.713,141.186 81.713,138.086 80.913,138.086 80.913,132.286 81.713,132.286 81.713,129.186 80.913,129.186 80.913,128.186" style="fill:none;stroke-width:0.050000mm;stroke:black"/>
<polygon points="47.863,128.186 47.863,129.186 47.063,129.186 47.063,132.286 47.863,132.286 47.863,138.086 47.063,138.086 47.063,141.186 47.863,141.186 47.863,142.186 61.863,142.186 61.863,141.186 62.663,141.186 62.663,138.086 61.863,138.086 61.863,132.286 62.663,132.286 62.663,129.186 61.863,129.186 61.863,128.186" style="fill:none;stroke-width:0.050000mm;stroke:black"/>
<polygon points="21.669,128.186 21.669,129.186 20.869,129.186 20.869,132.286 21.669,132.286 21.669,138.086 20.869,138.086 20.869,141.186 21.669,141.186 21.669,142.186 35.669,142.186 35.669,141.186 36.469,141.186 36.469,138.086 35.669,138.086 35.669,132.286 36.469,132.286 36.469,129.186 35.669,129.186 35.669,128.186" style="fill:none;stroke-width:0.050000mm;stroke:black"/>
<polygon points="300.276,109.135 300.276,110.135 299.476,110.135 299.476,113.235 300.276,113.235 300.276,119.036 299.476,119.036 299.476,122.135 300.276,122.135 300.276,123.135 314.276,123.135 314.276,122.135 315.076,122.135 315.076,119.036 314.276,119.036 314.276,113.235 315.076,113.235 315.076,110.135 314.276,110.135 314.276,109.135" style="fill:none;stroke-width:0.050000mm;stroke:black"/>
<polygon points="276.463,109.135 276.463,110.135 275.663,110.135 275.663,113.235 276.463,113.235 276.463,119.036 275.663,119.036 275.663,122.135 276.463,122.135 276.463,123.135 290.463,123.135 290.463,122.135 291.263,122.135 291.263,119.036 290.463,119.036 290.463,113.235 291.263,113.235 291.263,110.135 290.463,110.135 290.463,109.135" style="fill:none;stroke-width:0.050000mm;stroke:black"/>
<polygon points="252.651,109.135 252.651,110.135 251.851,110.135 251.851,113.235 252.651,113.235 252.651,119.036 251.851,119.036 251.851,122.135 252.651,122.135 252.651,123.135 266.651,123.135 266.651,122.135 267.451,122.135 267.451,119.036 266.651,119.036 266.651,113.235 267.451,113.235 267.451,110.135 266.651,110.135 266.651,109.135" style="fill:none;stroke-width:0.050000mm;stroke:black"/>
<polygon points="233.601,109.135 233.601,110.135 232.801,110.135 232.801,113.235 233.601,113.235 233.601,119.036 232.801,119.036 232.801,122.135 233.601,122.135 233.601,123.135 247.601,123.135 247.601,122.135 248.401,122.135 248.401,119.036 247.601,119.036 247.601,113.235 248.401,113.235 248.401,110.135 247.601,110.135 247.601,109.135" style="fill:none;stroke-width:0.050000mm;stroke:black"/>
<polygon points="214.551,109.135 214.551,110.135 213.751,110.135 213.751,113.235 214.551,113.235 214.551,119.036 213.751,119.036 213.751,122.135 214.551,122.135 214.551,123.135 228.551,123.135 228.551,122.135 229.351,122.135 229.351,119.036 228.551,119.036 228.551,113.235 229.351,113.235 229.351,110.135 228.551,110.135 228.551,109.135" style="fill:none;stroke-width:0.050000mm;stroke:black"/>
<polygon points="195.501,109.135 195.501,110.135 194.701,110.135 194.701,113.235 195.501,113.235 195.501,119.036 194.701,119.036 194.701,122.135 195.501,122.135 195.501,123.135 209.501,123.135 209.501,122.135 210.301,122.135 210.301,119.036 209.501,119.036 209.501,113.235 210.301,113.235 210.301,110.135 209.501,110.135 209.501,109.135" style="fill:none;stroke-width:0.050000mm;stroke:black"/>
<polygon points="176.451,109.135 176.451,110.135 175.651,110.135 175.651,113.235 176.451,113.235 176.451,119.036 175.651,119.036 175.651,122.135 176.451,122.135 176.451,123.135 190.451,123.135 190.451,122.135 191.251,122.135 191.251,119.036 190.451,119.036 190.451,113.235 191.251,113.235 191.251,110.135 190.451,110.135 190.451,109.135" style="fill:none;stroke-width:0.050000mm;stroke:black"/>
<polygon points="157.401,109.135 157.401,110.135 156.601,110.135 156.601,113.235 157.401,113.235 157.401,119.036 156.601,119.036 156.601,122.135 157.401,122.135 157.401,123.135 171.401,123.135 171.401,122.135 172.201,122.135 172.201,119.036 171.401,119.036 171.401,113.235 172.201,113.235 172.201,110.135 171.401,110.135 171.401,109.135" style="fill:none;stroke-width:0.050000mm;stroke:black"/>
<polygon points="138.351,109.135 138.351,110.135 137.550,110.135 137.550,113.235 138.351,113.235 138.351,119.036 137.550,119.036 137.550,122.135 138.351,122.135 138.351,123.135 152.351,123.135 152.351,122.135 153.151,122.135 153.151,119.036 152.351,119.036 152.351,113.235 153.151,113.235 153.151,110.135 152.351,110.135 152.351,109.135" style="fill:none;stroke-width:0.050000mm;stroke:black"/>
<polygon points="119.301,109.135 119.301,110.135 118.501,110.135 118.501,113.235 119.301,113.235 119.301,119.036 118.501,119.036 118.501,122.135 119.301,122.135 119.301,123.135 133.301,123.135 133.301,122.135 134.101,122.135 134.101,119.036 133.301,119.036 133.301,113.235 134.101,113.235 134.101,110.135 133.301,110.135 133.301,109.135" style="fill:none;stroke-width:0.050000mm;stroke:black"/>
<polygon points="100.251,109.135 100.251,110.135 99.451,110.135 99.451,113.235 100.251,113.235 100.251,119.036 99.451,119.036 99.451,122.135 100.251,122.135 100.251,123.135 114.251,123.135 114.251,122.135 115.051,122.135 115.051,119.036 114.251,119.036 114.251,113.235 115.051,113.235 115.051,110.135 114.251,110.135 114.251,109.135" style="fill:none;stroke-width:0.050000mm;stroke:black"/>
<polygon points="81.201,109.135 81.201,110.135 80.401,110.135 80.401,113.235 81.201,113.235 81.201,119.036 80.401,119.036 80.401,122.135 81.201,122.135 81.201,123.135 95.201,123.135 95.201,122.135 96.001,122.135 96.001,119.036 95.201,119.036 95.201,113.235 96.001,113.235 96.001,110.135 95.201,110.135 95.201,109.135" style="fill:none;stroke-width:0.050000mm;stroke:black"/>
<polygon points="62.151,109.135 62.151,110.135 61.351,110.135 61.351,113.235 62.151,113.235 62.151,119.036 61.351,119.036 61.351,122.135 62.151,122.135 62.151,123.135 76.151,123.135 76.151,122.135 76.951,122.135 76.951,119.036 76.151,119.036 76.151,113.235 76.951,113.235 76.951,110.135 76.151,110.135 76.151,109.135" style="fill:none;stroke-width:0.050000mm;stroke:black"/>
<polygon points="43.101,109.135 43.101,110.135 42.301,110.135 42.301,113.235 43.101,113.235 43.101,119.036 42.301,119.036 42.301,122.135 43.101,122.135 43.101,123.135 57.101,123.135 57.101,122.135 57.901,122.135 57.901,119.036 57.101,119.036 57.101,113.235 57.901,113.235 57.901,110.135 57.101,110.135 57.101,109.135" style="fill:none;stroke-width:0.050000mm;stroke:black"/>
<polygon points="19.288,109.135 19.288,110.135 18.488,110.135 18.488,113.235 19.288,113.235 19.288,119.036 18.488,119.036 18.488,122.135 19.288,122.135 19.288,123.135 33.288,123.135 33.288,122.135 34.088,122.135 34.088,119.036 33.288,119.036 33.288,113.235 34.088,113.235 34.088,110.135 33.288,110.135 33.288,109.135" style="fill:none;stroke-width:0.050000mm;stroke:black"/>
<polygon points="271.701,90.086 271.701,91.086 270.901,91.086 270.901,94.185 271.701,94.185 271.701,94.786 270.176,94.786 270.176,91.555 268.451,91.555 268.451,90.635 265.151,90.635 265.151,91.555 263.426,91.555 263.426,94.786 262.601,94.786 262.601,97.586 263.426,97.586 263.426,103.855 265.151,103.855 265.151,104.836 268.451,104.836 268.451,103.855 270.176,103.855 270.176,99.385 271.701,99.385 271.701,99.986 270.901,99.986 270.901,103.086 271.701,103.086 271.701,104.086 285.701,104.086 285.701,103.086 286.501,103.086 286.501,99.986 285.701,99.986 285.701,99.385 287.226,99.385 287.226,103.855 288.951,103.855 288.951,104.836 292.251,104.836 292.251,103.855 293.976,103.855 293.976,97.586 294.801,97.586 294.801,94.786 293.976,94.786 293.976,91.555 292.251,91.555 292.251,90.635 288.951,90.635 288.951,91.555 287.226,91.555 287.226,94.786 285.701,94.786 285.701,94.185 286.501,94.185 286.501,91.086 285.701,91.086 285.701,90.086" style="fill:none;stroke-width:0.050000mm;stroke:black"/>
<polygon points="300.276,90.086 300.276,91.086 299.476,91.086 299.476,94.185 300.276,94.185 300.276,99.986 299.476,99.986 299.476,103.086 300.276,103.086 300.276,104.086 314.276,104.086 314.276,103.086 315.076,103.086 315.076,99.986 314.276,99.986 314.276,94.185 315.076,94.185 315.076,91.086 314.276,91.086 314.276,90.086" style="fill:none;stroke-width:0.050000mm;stroke:black"/>
<polygon points="243.126,90.086 243.126,91.086 242.326,91.086 242.326,94.185 243.126,94.185 243.126,99.986 242.326,99.986 242.326,103.086 243.126,103.086 243.126,104.086 257.126,104.086 257.126,103.086 257.926,103.086 257.926,99.986 257.126,99.986 257.126,94.185 257.926,94.185 257.926,91.086 257.126,91.086 257.126,90.086" style="fill:none;stroke-width:0.050000mm;stroke:black"/>
<polygon points="224.076,90.086 224.076,91.086 223.276,91.086 223.276,94.185 224.076,94.185 224.076,99.986 223.276,99.986 223.276,103.086 224.076,103.086 224.076,104.086 238.076,104.086 238.076,103.086 238.876,103.086 238.876,99.986 238.076,99.986 238.076,94.185 238.876,94.185 238.876,91.086 238.076,91.086 238.076,90.086" style="fill:none;stroke-width:0.050000mm;stroke:black"/>
<polygon points="205.026,90.086 205.026,91.086 204.226,91.086 204.226,94.185 205.026,94.185 205.026,99.986 204.226,99.986 204.226,103.086 205.026,103.086 205.026,104.086 219.026,104.086 219.026,103.086 219.826,103.086 219.826,99.986 219.026,99.986 219.026,94.185 219.826,94.185 219.826,91.086 219.026,91.086 219.026,90.086" style="fill:none;stroke-width:0.050000mm;stroke:black"/>
<polygon points="185.976,90.086 185.976,91.086 185.176,91.086 185.176,94.185 185.976,94.185 185.976,99.986 185.176,99.986 185.176,103.086 185.976,103.086 185.976,104.086 199.976,104.086 199.976,103.086 200.776,103.086 200.776,99.986 199.976,99.986 199.976,94.185 200.776,94.185 200.776,91.086 199.976,91.086 199.976,90.086" style="fill:none;stroke-width:0.050000mm;stroke:black"/>
<polygon points="166.926,90.086 166.926,91.086 166.126,91.086 166.126,94.185 166.926,94.185 166.926,99.986 166.126,99.986 166.126,103.086 166.926,103.086 166.926,104.086 180.926,104.086 180.926,103.086 181.726,103.086 181.726,99.986 180.926,99.986 180.926,94.185 181.726,94.185 181.726,91.086 180.926,91.086 180.926,90.086" style="fill:none;stroke-width:0.050000mm;stroke:black"/>
<polygon points="147.876,90.086 147.876,91.086 147.076,91.086 147.076,94.185 147.876,94.185 147.876,99.986 147.076,99.986 147.076,103.086 147.876,103.086 147.876,104.086 161.876,104.086 161.876,103.086 162.676,103.086 162.676,99.986 161.876,99.986 161.876,94.185 162.676,94.185 162.676,91.086 161.876,91.086 161.876,90.086" style="fill:none;stroke-width:0.050000mm;stroke:black"/>
<polygon points="128.825,90.086 128.825,91.086 128.025,91.086 128.025,94.185 128.825,94.185 128.825,99.986 128.025,99.986 128.025,103.086 128.825,103.086 128.825,104.086 142.826,104.086 142.826,103.086 143.626,103.086 143.626,99.986 142.826,99.986 142.826,94.185 143.626,94.185 143.626,91.086 142.826,91.086 142.826,90.086" style="fill:none;stroke-width:0.050000mm;stroke:black"/>
<polygon points="109.775,90.086 109.775,91.086 108.976,91.086 108.976,94.185 109.775,94.185 109.775,99.986 108.976,99.986 108.976,103.086 109.775,103.086 109.775,104.086 123.775,104.086 123.775,103.086 124.575,103.086 124.575,99.986 123.775,99.986 123.775,94.185 124.575,94.185 124.575,91.086 123.775,91.086 123.775,90.086" style="fill:none;stroke-width:0.050000mm;stroke:black"/>
<polygon points="90.726,90.086 90.726,91.086 89.926,91.086 89.926,94.185 90.726,94.185 90.726,99.986 89.926,99.986 89.926,103.086 90.726,103.086 90.726,104.086 104.726,104.086 104.726,103.086 105.525,103.086 105.525,99.986 104.726,99.986 104.726,94.185 105.525,94.185 105.525,91.086 104.726,91.086 104.726,90.086" style="fill:none;stroke-width:0.050000mm;stroke:black"/>
<polygon points="71.676,90.086 71.676,91.086 70.876,91.086 70.876,94.185 71.676,94.185 71.676,99.986 70.876,99.986 70.876,103.086 71.676,103.086 71.676,104.086 85.676,104.086 85.676,103.086 86.476,103.086 86.476,99.986 85.676,99.986 85.676,94.185 86.476,94.185 86.476,91.086 85.676,91.086 85.676,90.086" style="fill:none;stroke-width:0.050000mm;stroke:black"/>
<polygon points="52.626,90.086 52.626,91.086 51.826,91.086 51.826,94.185 52.626,94.185 52.626,99.986 51.826,99.986 51.826,103.086 52.626,103.086 52.626,104.086 66.626,104.086 66.626,103.086 67.426,103.086 67.426,99.986 66.626,99.986 66.626,94.185 67.426,94.185 67.426,91.086 66.626,91.086 66.626,90.086" style="fill:none;stroke-width:0.050000mm;stroke:black"/>
<polygon points="33.576,90.086 33.576,91.086 32.776,91.086 32.776,94.185 33.576,94.185 33.576,99.986 32.776,99.986 32.776,103.086 33.576,103.086 33.576,104.086 47.576,104.086 47.576,103.086 48.376,103.086 48.376,99.986 47.576,99.986 47.576,94.185 48.376,94.185 48.376,91.086 47.576,91.086 47.576,90.086" style="fill:none;stroke-width:0.050000mm;stroke:black"/>
<polygon points="14.525,90.086 14.525,91.086 13.725,91.086 13.725,94.185 14.525,94.185 14.525,99.986 13.725,99.986 13.725,103.086 14.525,103.086 14.525,104.086 28.526,104.086 28.526,103.086 29.326,103.086 29.326,99.986 28.526,99.986 28.526,94.185 29.326,94.185 29.326,91.086 28.526,91.086 28.526,90.086" style="fill:none;stroke-width:0.050000mm;stroke:black"/>
<polygon points="7.975,95.789 7.501,96.031 7.125,96.407 6.884,96.881 6.801,97.406 6.884,97.931 7.125,98.405 7.501,98.781 7.975,99.023 8.501,99.106 9.026,99.023 9.500,98.781 9.876,98.405 10.117,97.931 10.201,97.406 10.117,96.881 9.876,96.407 9.500,96.031 9.026,95.789 8.501,95.706" style="fill:none;stroke-width:0.050000mm;stroke:black"/>
<polygon points="319.776,95.789 319.302,96.031 318.926,96.407 318.685,96.881 318.602,97.406 318.685,97.931 318.926,98.405 319.302,98.781 319.776,99.023 320.302,99.106 320.827,99.023 321.301,98.781 321.677,98.405 321.918,97.931 322.002,97.406 321.918,96.881 321.677,96.407 321.301,96.031 320.827,95.789 320.302,95.706" style="fill:none;stroke-width:0.050000mm;stroke:black"/>
<polygon points="300.276,71.036 300.276,72.036 299.476,72.036 299.476,75.135 300.276,75.135 300.276,80.936 299.476,80.936 299.476,84.036 300.276,84.036 300.276,85.036 314.276,85.036 314.276,84.036 315.076,84.036 315.076,80.936 314.276,80.936 314.276,75.135 315.076,75.135 315.076,72.036 314.276,72.036 314.276,71.036" style="fill:none;stroke-width:0.050000mm;stroke:black"/>
<polygon points="281.226,71.036 281.226,72.036 280.426,72.036 280.426,75.135 281.226,75.135 281.226,80.936 280.426,80.936 280.426,84.036 281.226,84.036 281.226,85.036 295.226,85.036 295.226,84.036 296.026,84.036 296.026,80.936 295.226,80.936 295.226,75.135 296.026,75.135 296.026,72.036 295.226,72.036 295.226,71.036" style="fill:none;stroke-width:0.050000mm;stroke:black"/>
<polygon points="262.176,71.036 262.176,72.036 261.376,72.036 261.376,75.135 262.176,75.135 262.176,80.936 261.376,80.936 261.376,84.036 262.176,84.036 262.176,85.036 276.176,85.036 276.176,84.036 276.976,84.036 276.976,80.936 276.176,80.936 276.176,75.135 276.976,75.135 276.976,72.036 276.176,72.036 276.176,71.036" style="fill:none;stroke-width:0.050000mm;stroke:black"/>
<polygon points="243.126,71.036 243.126,72.036 242.326,72.036 242.326,75.135 243.126,75.135 243.126,80.936 242.326,80.936 242.326,84.036 243.126,84.036 243.126,85.036 257.126,85.036 257.126,84.036 257.926,84.036 257.926,80.936 257.126,80.936 257.126,75.135 257.926,75.135 257.926,72.036 257.126,72.036 257.126,71.036" style="fill:none;stroke-width:0.050000mm;stroke:black"/>
<polygon points="224.076,71.036 224.076,72.036 223.276,72.036 223.276,75.135 224.076,75.135 224.076,80.936 223.276,80.936 223.276,84.036 224.076,84.036 224.076,85.036 238.076,85.036 238.076,84.036 238.876,84.036 238.876,80.936 238.076,80.936 238.076,75.135 238.876,75.135 238.876,72.036 238.076,72.036 238.076,71.036" style="fill:none;stroke-width:0.050000mm;stroke:black"/>
<polygon points="205.026,71.036 205.026,72.036 204.226,72.036 204.226,75.135 205.026,75.135 205.026,80.936 204.226,80.936 204.226,84.036 205.026,84.036 205.026,85.036 219.026,85.036 219.026,84.036 219.826,84.036 219.826,80.936 219.026,80.936 219.026,75.135 219.826,75.135 219.826,72.036 219.026,72.036 219.026,71.036" style="fill:none;stroke-width:0.050000mm;stroke:black"/>
<polygon points="185.976,71.036 185.976,72.036 185.176,72.036 185.176,75.135 185.976,75.135 185.976,80.936 185.176,80.936 185.176,84.036 185.976,84.036 185.976,85.036 199.976,85.036 199.976,84.036 200.776,84.036 200.776,80.936 199.976,80.936 199.976,75.135 200.776,75.135 200.776,72.036 199.976,72.036 199.976,71.036" style="fill:none;stroke-width:0.050000mm;stroke:black"/>
<polygon points="166.926,71.036 166.926,72.036 166.126,72.036 166.126,75.135 166.926,75.135 166.926,80.936 166.126,80.936 166.126,84.036 166.926,84.036 166.926,85.036 180.926,85.036 180.926,84.036 181.726,84.036 181.726,80.936 180.926,80.936 180.926,75.135 181.726,75.135 181.726,72.036 180.926,72.036 180.926,71.036" style="fill:none;stroke-width:0.050000mm;stroke:black"/>
<polygon points="147.876,71.036 147.876,72.036 147.076,72.036 147.076,75.135 147.876,75.135 147.876,80.936 147.076,80.936 147.076,84.036 147.876,84.036 147.876,85.036 161.876,85.036 161.876,84.036 162.676,84.036 162.676,80.936 161.876,80.936 161.876,75.135 162.676,75.135 162.676,72.036 161.876,72.036 161.876,71.036" style="fill:none;stroke-width:0.050000mm;stroke:black"/>
<polygon points="128.825,71.036 128.825,72.036 128.025,72.036 128.025,75.135 128.825,75.135 128.825,80.936 128.025,80.936 128.025,84.036 128.825,84.036 128.825,85.036 142.826,85.036 142.826,84.036 143.626,84.036 143.626,80.936 142.826,80.936 142.826,75.135 143.626,75.135 143.626,72.036 142.826,72.036 142.826,71.036" style="fill:none;stroke-width:0.050000mm;stroke:black"/>
<polygon points="109.775,71.036 109.775,72.036 108.976,72.036 108.976,75.135 109.775,75.135 109.775,80.936 108.976,80.936 108.976,84.036 109.775,84.036 109.775,85.036 123.775,85.036 123.775,84.036 124.575,84.036 124.575,80.936 123.775,80.936 123.775,75.135 124.575,75.135 124.575,72.036 123.775,72.036 123.775,71.036" style="fill:none;stroke-width:0.050000mm;stroke:black"/>
<polygon points="90.726,71.036 90.726,72.036 89.926,72.036 89.926,75.135 90.726,75.135 90.726,80.936 89.926,80.936 89.926,84.036 90.726,84.036 90.726,85.036 104.726,85.036 104.726,84.036 105.525,84.036 105.525,80.936 104.726,80.936 104.726,75.135 105.525,75.135 105.525,72.036 104.726,72.036 104.726,71.036" style="fill:none;stroke-width:0.050000mm;stroke:black"/>
<polygon points="71.676,71.036 71.676,72.036 70.876,72.036 70.876,75.135 71.676,75.135 71.676,80.936 70.876,80.936 70.876,84.036 71.676,84.036 71.676,85.036 85.676,85.036 85.676,84.036 86.476,84.036 86.476,80.936 85.676,80.936 85.676,75.135 86.476,75.135 86.476,72.036 85.676,72.036 85.676,71.036" style="fill:none;stroke-width:0.050000mm;stroke:black"/>
<polygon points="52.626,71.036 52.626,72.036 51.826,72.036 51.826,75.135 52.626,75.135 52.626,80.936 51.826,80.936 51.826,84.036 52.626,84.036 52.626,85.036 66.626,85.036 66.626,84.036 67.426,84.036 67.426,80.936 66.626,80.936 66.626,75.135 67.426,75.135 67.426,72.036 66.626,72.036 66.626,71.036" style="fill:none;stroke-width:0.050000mm;stroke:black"/>
<polygon points="33.576,71.036 33.576,72.036 32.776,72.036 32.776,75.135 33.576,75.135 33.576,80.936 32.776,80.936 32.776,84.036 33.576,84.036 33.576,85.036 47.576,85.036 47.576,84.036 48.376,84.036 48.376,80.936 47.576,80.936 47.576,75.135 48.376,75.135 48.376,72.036 47.576,72.036 47.576,71.036" style="fill:none;stroke-width:0.050000mm;stroke:black"/>
<polygon points="14.525,71.036 14.525,72.036 13.725,72.036 13.725,75.135 14.525,75.135 14.525,80.936 13.725,80.936 13.725,84.036 14.525,84.036 14.525,85.036 28.526,85.036 28.526,84.036 29.326,84.036 29.326,80.936 28.526,80.936 28.526,75.135 29.326,75.135 29.326,72.036 28.526,72.036 28.526,71.036" style="fill:none;stroke-width:0.050000mm;stroke:black"/>
<polygon points="7.975,6.884 7.501,7.125 7.125,7.501 6.884,7.975 6.801,8.501 6.884,9.026 7.125,9.500 7.501,9.876 7.975,10.117 8.501,10.201 9.026,10.117 9.500,9.876 9.876,9.500 10.117,9.026 10.201,8.501 10.117,7.975 9.876,7.501 9.500,7.125 9.026,6.884 8.501,6.801" style="fill:none;stroke-width:0.050000mm;stroke:black"/>
<polygon points="319.776,6.884 319.302,7.125 318.926,7.501 318.685,7.975 318.602,8.501 318.685,9.026 318.926,9.500 319.302,9.876 319.776,10.117 320.302,10.201 320.827,10.117 321.301,9.876 321.677,9.500 321.918,9.026 322.002,8.501 321.918,7.975 321.677,7.501 321.301,7.125 320.827,6.884 320.302,6.801" style="fill:none;stroke-width:0.050000mm;stroke:black"/>
<polygon points="215.843,6.884 215.369,7.125 214.993,7.501 214.751,7.975 214.668,8.501 214.751,9.026 214.993,9.500 215.369,9.876 215.843,10.117 216.368,10.201 216.893,10.117 217.367,9.876 217.743,9.500 217.985,9.026 218.068,8.501 217.985,7.975 217.743,7.501 217.367,7.125 216.893,6.884 216.368,6.801" style="fill:none;stroke-width:0.050000mm;stroke:black"/>
<polygon points="111.909,6.884 111.435,7.125 111.059,7.501 110.817,7.975 110.734,8.501 110.817,9.026 111.059,9.500 111.435,9.876 111.909,10.117 112.434,10.201 112.959,10.117 113.433,9.876 113.809,9.500 114.051,9.026 114.134,8.501 114.051,7.975 113.809,7.501 113.433,7.125 112.959,6.884 112.434,6.801" style="fill:none;stroke-width:0.050000mm;stroke:black"/>
</svg>
