  0
SECTION
  2
HEADER
  9
$ACADVER
  1
AC1009
  9
$FILLMODE
 70
 0
  9
$SPLFRAME
 70
 1
  9
$EXTMIN
 10
0
 20
0
 30
0.0
  9
$EXTMAX
 10
1058.33
 20
1058.33
 30
0.0
  0
ENDSEC
  0
SECTION
  2
TABLES
  0
TABLE
  2
LAYER
 70
1
  0
LAYER
  2
0
 70
     0
 62
     7
  6
CONTINUOUS
  0
ENDTAB
  0
ENDSEC
  0
SECTION
  2
ENTITIES
  0
LINE
  8
0
 62
     0
 10
315.087
 20
185.113
 30
0.0
 11
315.385
 21
185.102
 31
0.0
  0
LINE
  8
0
 62
     0
 10
315.385
 20
185.102
 30
0.0
 11
315.682
 21
185.067
 31
0.0
  0
LINE
  8
0
 62
     0
 10
315.682
 20
185.067
 30
0.0
 11
315.976
 21
185.009
 31
0.0
  0
LINE
  8
0
 62
     0
 10
315.976
 20
185.009
 30
0.0
 11
316.264
 21
184.927
 31
0.0
  0
LINE
  8
0
 62
     0
 10
316.264
 20
184.927
 30
0.0
 11
316.545
 21
184.822
 31
0.0
  0
LINE
  8
0
 62
     0
 10
316.545
 20
184.822
 30
0.0
 11
316.815
 21
184.699
 31
0.0
  0
LINE
  8
0
 62
     0
 10
316.815
 20
184.699
 30
0.0
 11
317.077
 21
184.553
 31
0.0
  0
LINE
  8
0
 62
     0
 10
317.077
 20
184.553
 30
0.0
 11
317.325
 21
184.386
 31
0.0
  0
LINE
  8
0
 62
     0
 10
317.325
 20
184.386
 30
0.0
 11
317.561
 21
184.201
 31
0.0
  0
LINE
  8
0
 62
     0
 10
317.561
 20
184.201
 30
0.0
 11
317.781
 21
183.998
 31
0.0
  0
LINE
  8
0
 62
     0
 10
317.781
 20
183.998
 30
0.0
 11
317.984
 21
183.778
 31
0.0
  0
LINE
  8
0
 62
     0
 10
317.984
 20
183.778
 30
0.0
 11
318.169
 21
183.542
 31
0.0
  0
LINE
  8
0
 62
     0
 10
318.169
 20
183.542
 30
0.0
 11
318.335
 21
183.294
 31
0.0
  0
LINE
  8
0
 62
     0
 10
318.335
 20
183.294
 30
0.0
 11
318.481
 21
183.032
 31
0.0
  0
LINE
  8
0
 62
     0
 10
318.481
 20
183.032
 30
0.0
 11
318.605
 21
182.762
 31
0.0
  0
LINE
  8
0
 62
     0
 10
318.605
 20
182.762
 30
0.0
 11
318.71
 21
182.481
 31
0.0
  0
LINE
  8
0
 62
     0
 10
318.71
 20
182.481
 30
0.0
 11
318.79
 21
182.193
 31
0.0
  0
LINE
  8
0
 62
     0
 10
318.79
 20
182.193
 30
0.0
 11
318.849
 21
181.9
 31
0.0
  0
LINE
  8
0
 62
     0
 10
318.849
 20
181.9
 30
0.0
 11
318.885
 21
181.602
 31
0.0
  0
LINE
  8
0
 62
     0
 10
318.885
 20
181.602
 30
0.0
 11
318.896
 21
181.303
 31
0.0
  0
LINE
  8
0
 62
     0
 10
318.896
 20
181.303
 30
0.0
 11
318.896
 21
4.11208
 31
0.0
  0
LINE
  8
0
 62
     0
 10
318.896
 20
4.11208
 30
0.0
 11
318.885
 21
3.81441
 31
0.0
  0
LINE
  8
0
 62
     0
 10
318.885
 20
3.81441
 30
0.0
 11
318.849
 21
3.51537
 31
0.0
  0
LINE
  8
0
 62
     0
 10
318.849
 20
3.51537
 30
0.0
 11
318.79
 21
3.22323
 31
0.0
  0
LINE
  8
0
 62
     0
 10
318.79
 20
3.22323
 30
0.0
 11
318.71
 21
2.93522
 31
0.0
  0
LINE
  8
0
 62
     0
 10
318.71
 20
2.93522
 30
0.0
 11
318.605
 21
2.6541
 31
0.0
  0
LINE
  8
0
 62
     0
 10
318.605
 20
2.6541
 30
0.0
 11
318.481
 21
2.38263
 31
0.0
  0
LINE
  8
0
 62
     0
 10
318.481
 20
2.38263
 30
0.0
 11
318.335
 21
2.12218
 31
0.0
  0
LINE
  8
0
 62
     0
 10
318.335
 20
2.12218
 30
0.0
 11
318.169
 21
1.87275
 31
0.0
  0
LINE
  8
0
 62
     0
 10
318.169
 20
1.87275
 30
0.0
 11
317.984
 21
1.63849
 31
0.0
  0
LINE
  8
0
 62
     0
 10
317.984
 20
1.63849
 30
0.0
 11
317.781
 21
1.418
 31
0.0
  0
LINE
  8
0
 62
     0
 10
317.781
 20
1.418
 30
0.0
 11
317.561
 21
1.21543
 31
0.0
  0
LINE
  8
0
 62
     0
 10
317.561
 20
1.21543
 30
0.0
 11
317.325
 21
1.02939
 31
0.0
  0
LINE
  8
0
 62
     0
 10
317.325
 20
1.02939
 30
0.0
 11
317.077
 21
0.86403
 31
0.0
  0
LINE
  8
0
 62
     0
 10
317.077
 20
0.86403
 30
0.0
 11
316.815
 21
0.717959
 31
0.0
  0
LINE
  8
0
 62
     0
 10
316.815
 20
0.717959
 30
0.0
 11
316.545
 21
0.592557
 31
0.0
  0
LINE
  8
0
 62
     0
 10
316.545
 20
0.592557
 30
0.0
 11
316.264
 21
0.489204
 31
0.0
  0
LINE
  8
0
 62
     0
 10
316.264
 20
0.489204
 30
0.0
 11
315.976
 21
0.407899
 31
0.0
  0
LINE
  8
0
 62
     0
 10
315.976
 20
0.407899
 30
0.0
 11
315.682
 21
0.348644
 31
0.0
  0
LINE
  8
0
 62
     0
 10
315.682
 20
0.348644
 30
0.0
 11
315.385
 21
0.314193
 31
0.0
  0
LINE
  8
0
 62
     0
 10
315.385
 20
0.314193
 30
0.0
 11
315.087
 21
0.30179
 31
0.0
  0
LINE
  8
0
 62
     0
 10
315.087
 20
0.30179
 30
0.0
 11
3.90536
 21
0.30179
 31
0.0
  0
LINE
  8
0
 62
     0
 10
3.90536
 20
0.30179
 30
0.0
 11
3.60634
 21
0.314193
 31
0.0
  0
LINE
  8
0
 62
     0
 10
3.60634
 20
0.314193
 30
0.0
 11
3.30867
 21
0.348644
 31
0.0
  0
LINE
  8
0
 62
     0
 10
3.30867
 20
0.348644
 30
0.0
 11
3.01515
 21
0.407899
 31
0.0
  0
LINE
  8
0
 62
     0
 10
3.01515
 20
0.407899
 30
0.0
 11
2.72714
 21
0.489204
 31
0.0
  0
LINE
  8
0
 62
     0
 10
2.72714
 20
0.489204
 30
0.0
 11
2.44602
 21
0.592557
 31
0.0
  0
LINE
  8
0
 62
     0
 10
2.44602
 20
0.592557
 30
0.0
 11
2.17592
 21
0.717959
 31
0.0
  0
LINE
  8
0
 62
     0
 10
2.17592
 20
0.717959
 30
0.0
 11
1.91409
 21
0.86403
 31
0.0
  0
LINE
  8
0
 62
     0
 10
1.91409
 20
0.86403
 30
0.0
 11
1.66605
 21
1.02939
 31
0.0
  0
LINE
  8
0
 62
     0
 10
1.66605
 20
1.02939
 30
0.0
 11
1.4304
 21
1.21543
 31
0.0
  0
LINE
  8
0
 62
     0
 10
1.4304
 20
1.21543
 30
0.0
 11
1.20992
 21
1.418
 31
0.0
  0
LINE
  8
0
 62
     0
 10
1.20992
 20
1.418
 30
0.0
 11
1.00735
 21
1.63849
 31
0.0
  0
LINE
  8
0
 62
     0
 10
1.00735
 20
1.63849
 30
0.0
 11
0.822688
 21
1.87275
 31
0.0
  0
LINE
  8
0
 62
     0
 10
0.822688
 20
1.87275
 30
0.0
 11
0.655948
 21
2.12218
 31
0.0
  0
LINE
  8
0
 62
     0
 10
0.655948
 20
2.12218
 30
0.0
 11
0.509873
 21
2.38263
 31
0.0
  0
LINE
  8
0
 62
     0
 10
0.509873
 20
2.38263
 30
0.0
 11
0.385851
 21
2.6541
 31
0.0
  0
LINE
  8
0
 62
     0
 10
0.385851
 20
2.6541
 30
0.0
 11
0.28112
 21
2.93522
 31
0.0
  0
LINE
  8
0
 62
     0
 10
0.28112
 20
2.93522
 30
0.0
 11
0.199815
 21
3.22323
 31
0.0
  0
LINE
  8
0
 62
     0
 10
0.199815
 20
3.22323
 30
0.0
 11
0.141938
 21
3.51537
 31
0.0
  0
LINE
  8
0
 62
     0
 10
0.141938
 20
3.51537
 30
0.0
 11
0.106109
 21
3.81441
 31
0.0
  0
LINE
  8
0
 62
     0
 10
0.106109
 20
3.81441
 30
0.0
 11
0.0950846
 21
4.11208
 31
0.0
  0
LINE
  8
0
 62
     0
 10
0.0950846
 20
4.11208
 30
0.0
 11
0.0950846
 21
181.303
 31
0.0
  0
LINE
  8
0
 62
     0
 10
0.0950846
 20
181.303
 30
0.0
 11
0.106109
 21
181.602
 31
0.0
  0
LINE
  8
0
 62
     0
 10
0.106109
 20
181.602
 30
0.0
 11
0.141938
 21
181.9
 31
0.0
  0
LINE
  8
0
 62
     0
 10
0.141938
 20
181.9
 30
0.0
 11
0.199815
 21
182.193
 31
0.0
  0
LINE
  8
0
 62
     0
 10
0.199815
 20
182.193
 30
0.0
 11
0.28112
 21
182.481
 31
0.0
  0
LINE
  8
0
 62
     0
 10
0.28112
 20
182.481
 30
0.0
 11
0.385851
 21
182.762
 31
0.0
  0
LINE
  8
0
 62
     0
 10
0.385851
 20
182.762
 30
0.0
 11
0.509873
 21
183.032
 31
0.0
  0
LINE
  8
0
 62
     0
 10
0.509873
 20
183.032
 30
0.0
 11
0.655948
 21
183.294
 31
0.0
  0
LINE
  8
0
 62
     0
 10
0.655948
 20
183.294
 30
0.0
 11
0.822688
 21
183.542
 31
0.0
  0
LINE
  8
0
 62
     0
 10
0.822688
 20
183.542
 30
0.0
 11
1.00735
 21
183.778
 31
0.0
  0
LINE
  8
0
 62
     0
 10
1.00735
 20
183.778
 30
0.0
 11
1.20992
 21
183.998
 31
0.0
  0
LINE
  8
0
 62
     0
 10
1.20992
 20
183.998
 30
0.0
 11
1.4304
 21
184.201
 31
0.0
  0
LINE
  8
0
 62
     0
 10
1.4304
 20
184.201
 30
0.0
 11
1.66605
 21
184.386
 31
0.0
  0
LINE
  8
0
 62
     0
 10
1.66605
 20
184.386
 30
0.0
 11
1.91409
 21
184.553
 31
0.0
  0
LINE
  8
0
 62
     0
 10
1.91409
 20
184.553
 30
0.0
 11
2.17592
 21
184.699
 31
0.0
  0
LINE
  8
0
 62
     0
 10
2.17592
 20
184.699
 30
0.0
 11
2.44602
 21
184.822
 31
0.0
  0
LINE
  8
0
 62
     0
 10
2.44602
 20
184.822
 30
0.0
 11
2.72714
 21
184.927
 31
0.0
  0
LINE
  8
0
 62
     0
 10
2.72714
 20
184.927
 30
0.0
 11
3.01515
 21
185.009
 31
0.0
  0
LINE
  8
0
 62
     0
 10
3.01515
 20
185.009
 30
0.0
 11
3.30867
 21
185.067
 31
0.0
  0
LINE
  8
0
 62
     0
 10
3.30867
 20
185.067
 30
0.0
 11
3.60634
 21
185.102
 31
0.0
  0
LINE
  8
0
 62
     0
 10
3.60634
 20
185.102
 30
0.0
 11
3.90536
 21
185.113
 31
0.0
  0
LINE
  8
0
 62
     0
 10
3.90536
 20
185.113
 30
0.0
 11
315.087
 21
185.113
 31
0.0
  0
LINE
  8
0
 62
     0
 10
3.06889
 20
5.41845
 30
0.0
 11
2.59485
 21
5.1773
 31
0.0
  0
LINE
  8
0
 62
     0
 10
2.59485
 20
5.1773
 30
0.0
 11
2.22002
 21
4.80247
 31
0.0
  0
LINE
  8
0
 62
     0
 10
2.22002
 20
4.80247
 30
0.0
 11
1.97886
 21
4.32841
 31
0.0
  0
LINE
  8
0
 62
     0
 10
1.97886
 20
4.32841
 30
0.0
 11
1.8948
 21
3.80199
 31
0.0
  0
LINE
  8
0
 62
     0
 10
1.8948
 20
3.80199
 30
0.0
 11
1.97886
 21
3.27697
 31
0.0
  0
LINE
  8
0
 62
     0
 10
1.97886
 20
3.27697
 30
0.0
 11
2.22002
 21
2.80293
 31
0.0
  0
LINE
  8
0
 62
     0
 10
2.22002
 20
2.80293
 30
0.0
 11
2.59485
 21
2.42673
 31
0.0
  0
LINE
  8
0
 62
     0
 10
2.59485
 20
2.42673
 30
0.0
 11
3.06889
 21
2.18557
 31
0.0
  0
LINE
  8
0
 62
     0
 10
3.06889
 20
2.18557
 30
0.0
 11
3.5953
 21
2.10151
 31
0.0
  0
LINE
  8
0
 62
     0
 10
3.5953
 20
2.10151
 30
0.0
 11
4.12034
 21
2.18557
 31
0.0
  0
LINE
  8
0
 62
     0
 10
4.12034
 20
2.18557
 30
0.0
 11
4.59437
 21
2.42673
 31
0.0
  0
LINE
  8
0
 62
     0
 10
4.59437
 20
2.42673
 30
0.0
 11
4.97057
 21
2.80293
 31
0.0
  0
LINE
  8
0
 62
     0
 10
4.97057
 20
2.80293
 30
0.0
 11
5.21173
 21
3.27697
 31
0.0
  0
LINE
  8
0
 62
     0
 10
5.21173
 20
3.27697
 30
0.0
 11
5.29579
 21
3.80199
 31
0.0
  0
LINE
  8
0
 62
     0
 10
5.29579
 20
3.80199
 30
0.0
 11
5.21173
 21
4.32841
 31
0.0
  0
LINE
  8
0
 62
     0
 10
5.21173
 20
4.32841
 30
0.0
 11
4.97057
 21
4.80247
 31
0.0
  0
LINE
  8
0
 62
     0
 10
4.97057
 20
4.80247
 30
0.0
 11
4.59437
 21
5.1773
 31
0.0
  0
LINE
  8
0
 62
     0
 10
4.59437
 20
5.1773
 30
0.0
 11
4.12034
 21
5.41845
 31
0.0
  0
LINE
  8
0
 62
     0
 10
4.12034
 20
5.41845
 30
0.0
 11
3.5953
 21
5.50252
 31
0.0
  0
LINE
  8
0
 62
     0
 10
3.5953
 20
5.50252
 30
0.0
 11
3.06889
 21
5.41845
 31
0.0
  0
LINE
  8
0
 62
     0
 10
107.003
 20
5.41845
 30
0.0
 11
106.529
 21
5.1773
 31
0.0
  0
LINE
  8
0
 62
     0
 10
106.529
 20
5.1773
 30
0.0
 11
106.153
 21
4.80247
 31
0.0
  0
LINE
  8
0
 62
     0
 10
106.153
 20
4.80247
 30
0.0
 11
105.912
 21
4.32841
 31
0.0
  0
LINE
  8
0
 62
     0
 10
105.912
 20
4.32841
 30
0.0
 11
105.828
 21
3.80199
 31
0.0
  0
LINE
  8
0
 62
     0
 10
105.828
 20
3.80199
 30
0.0
 11
105.912
 21
3.27697
 31
0.0
  0
LINE
  8
0
 62
     0
 10
105.912
 20
3.27697
 30
0.0
 11
106.153
 21
2.80293
 31
0.0
  0
LINE
  8
0
 62
     0
 10
106.153
 20
2.80293
 30
0.0
 11
106.529
 21
2.42673
 31
0.0
  0
LINE
  8
0
 62
     0
 10
106.529
 20
2.42673
 30
0.0
 11
107.003
 21
2.18557
 31
0.0
  0
LINE
  8
0
 62
     0
 10
107.003
 20
2.18557
 30
0.0
 11
107.528
 21
2.10151
 31
0.0
  0
LINE
  8
0
 62
     0
 10
107.528
 20
2.10151
 30
0.0
 11
108.053
 21
2.18557
 31
0.0
  0
LINE
  8
0
 62
     0
 10
108.053
 20
2.18557
 30
0.0
 11
108.527
 21
2.42673
 31
0.0
  0
LINE
  8
0
 62
     0
 10
108.527
 20
2.42673
 30
0.0
 11
108.904
 21
2.80293
 31
0.0
  0
LINE
  8
0
 62
     0
 10
108.904
 20
2.80293
 30
0.0
 11
109.146
 21
3.27697
 31
0.0
  0
LINE
  8
0
 62
     0
 10
109.146
 20
3.27697
 30
0.0
 11
109.229
 21
3.80199
 31
0.0
  0
LINE
  8
0
 62
     0
 10
109.229
 20
3.80199
 30
0.0
 11
109.146
 21
4.32841
 31
0.0
  0
LINE
  8
0
 62
     0
 10
109.146
 20
4.32841
 30
0.0
 11
108.904
 21
4.80247
 31
0.0
  0
LINE
  8
0
 62
     0
 10
108.904
 20
4.80247
 30
0.0
 11
108.527
 21
5.1773
 31
0.0
  0
LINE
  8
0
 62
     0
 10
108.527
 20
5.1773
 30
0.0
 11
108.053
 21
5.41845
 31
0.0
  0
LINE
  8
0
 62
     0
 10
108.053
 20
5.41845
 30
0.0
 11
107.528
 21
5.50252
 31
0.0
  0
LINE
  8
0
 62
     0
 10
107.528
 20
5.50252
 30
0.0
 11
107.003
 21
5.41845
 31
0.0
  0
LINE
  8
0
 62
     0
 10
210.938
 20
5.41845
 30
0.0
 11
210.464
 21
5.1773
 31
0.0
  0
LINE
  8
0
 62
     0
 10
210.464
 20
5.1773
 30
0.0
 11
210.087
 21
4.80247
 31
0.0
  0
LINE
  8
0
 62
     0
 10
210.087
 20
4.80247
 30
0.0
 11
209.845
 21
4.32841
 31
0.0
  0
LINE
  8
0
 62
     0
 10
209.845
 20
4.32841
 30
0.0
 11
209.762
 21
3.80199
 31
0.0
  0
LINE
  8
0
 62
     0
 10
209.762
 20
3.80199
 30
0.0
 11
209.845
 21
3.27697
 31
0.0
  0
LINE
  8
0
 62
     0
 10
209.845
 20
3.27697
 30
0.0
 11
210.087
 21
2.80293
 31
0.0
  0
LINE
  8
0
 62
     0
 10
210.087
 20
2.80293
 30
0.0
 11
210.464
 21
2.42673
 31
0.0
  0
LINE
  8
0
 62
     0
 10
210.464
 20
2.42673
 30
0.0
 11
210.938
 21
2.18557
 31
0.0
  0
LINE
  8
0
 62
     0
 10
210.938
 20
2.18557
 30
0.0
 11
211.463
 21
2.10151
 31
0.0
  0
LINE
  8
0
 62
     0
 10
211.463
 20
2.10151
 30
0.0
 11
211.988
 21
2.18557
 31
0.0
  0
LINE
  8
0
 62
     0
 10
211.988
 20
2.18557
 30
0.0
 11
212.462
 21
2.42673
 31
0.0
  0
LINE
  8
0
 62
     0
 10
212.462
 20
2.42673
 30
0.0
 11
212.838
 21
2.80293
 31
0.0
  0
LINE
  8
0
 62
     0
 10
212.838
 20
2.80293
 30
0.0
 11
213.079
 21
3.27697
 31
0.0
  0
LINE
  8
0
 62
     0
 10
213.079
 20
3.27697
 30
0.0
 11
213.162
 21
3.80199
 31
0.0
  0
LINE
  8
0
 62
     0
 10
213.162
 20
3.80199
 30
0.0
 11
213.079
 21
4.32841
 31
0.0
  0
LINE
  8
0
 62
     0
 10
213.079
 20
4.32841
 30
0.0
 11
212.838
 21
4.80247
 31
0.0
  0
LINE
  8
0
 62
     0
 10
212.838
 20
4.80247
 30
0.0
 11
212.462
 21
5.1773
 31
0.0
  0
LINE
  8
0
 62
     0
 10
212.462
 20
5.1773
 30
0.0
 11
211.988
 21
5.41845
 31
0.0
  0
LINE
  8
0
 62
     0
 10
211.988
 20
5.41845
 30
0.0
 11
211.463
 21
5.50252
 31
0.0
  0
LINE
  8
0
 62
     0
 10
211.463
 20
5.50252
 30
0.0
 11
210.938
 21
5.41845
 31
0.0
  0
LINE
  8
0
 62
     0
 10
314.871
 20
5.41845
 30
0.0
 11
314.397
 21
5.1773
 31
0.0
  0
LINE
  8
0
 62
     0
 10
314.397
 20
5.1773
 30
0.0
 11
314.021
 21
4.80247
 31
0.0
  0
LINE
  8
0
 62
     0
 10
314.021
 20
4.80247
 30
0.0
 11
313.779
 21
4.32841
 31
0.0
  0
LINE
  8
0
 62
     0
 10
313.779
 20
4.32841
 30
0.0
 11
313.697
 21
3.80199
 31
0.0
  0
LINE
  8
0
 62
     0
 10
313.697
 20
3.80199
 30
0.0
 11
313.779
 21
3.27697
 31
0.0
  0
LINE
  8
0
 62
     0
 10
313.779
 20
3.27697
 30
0.0
 11
314.021
 21
2.80293
 31
0.0
  0
LINE
  8
0
 62
     0
 10
314.021
 20
2.80293
 30
0.0
 11
314.397
 21
2.42673
 31
0.0
  0
LINE
  8
0
 62
     0
 10
314.397
 20
2.42673
 30
0.0
 11
314.871
 21
2.18557
 31
0.0
  0
LINE
  8
0
 62
     0
 10
314.871
 20
2.18557
 30
0.0
 11
315.397
 21
2.10151
 31
0.0
  0
LINE
  8
0
 62
     0
 10
315.397
 20
2.10151
 30
0.0
 11
315.922
 21
2.18557
 31
0.0
  0
LINE
  8
0
 62
     0
 10
315.922
 20
2.18557
 30
0.0
 11
316.395
 21
2.42673
 31
0.0
  0
LINE
  8
0
 62
     0
 10
316.395
 20
2.42673
 30
0.0
 11
316.771
 21
2.80293
 31
0.0
  0
LINE
  8
0
 62
     0
 10
316.771
 20
2.80293
 30
0.0
 11
317.012
 21
3.27697
 31
0.0
  0
LINE
  8
0
 62
     0
 10
317.012
 20
3.27697
 30
0.0
 11
317.096
 21
3.80199
 31
0.0
  0
LINE
  8
0
 62
     0
 10
317.096
 20
3.80199
 30
0.0
 11
317.012
 21
4.32841
 31
0.0
  0
LINE
  8
0
 62
     0
 10
317.012
 20
4.32841
 30
0.0
 11
316.771
 21
4.80247
 31
0.0
  0
LINE
  8
0
 62
     0
 10
316.771
 20
4.80247
 30
0.0
 11
316.395
 21
5.1773
 31
0.0
  0
LINE
  8
0
 62
     0
 10
316.395
 20
5.1773
 30
0.0
 11
315.922
 21
5.41845
 31
0.0
  0
LINE
  8
0
 62
     0
 10
315.922
 20
5.41845
 30
0.0
 11
315.397
 21
5.50252
 31
0.0
  0
LINE
  8
0
 62
     0
 10
315.397
 20
5.50252
 30
0.0
 11
314.871
 21
5.41845
 31
0.0
  0
LINE
  8
0
 62
     0
 10
7.09415
 20
121.604
 30
0.0
 11
311.897
 21
121.604
 31
0.0
  0
LINE
  8
0
 62
     0
 10
311.897
 20
121.604
 30
0.0
 11
311.897
 21
7.30222
 31
0.0
  0
LINE
  8
0
 62
     0
 10
311.897
 20
7.30222
 30
0.0
 11
7.09415
 21
7.30222
 31
0.0
  0
LINE
  8
0
 62
     0
 10
7.09415
 20
7.30222
 30
0.0
 11
7.09415
 21
121.604
 31
0.0
  0
LINE
  8
0
 62
     0
 10
3.06889
 20
94.3254
 30
0.0
 11
2.59485
 21
94.0827
 31
0.0
  0
LINE
  8
0
 62
     0
 10
2.59485
 20
94.0827
 30
0.0
 11
2.22002
 21
93.7066
 31
0.0
  0
LINE
  8
0
 62
     0
 10
2.22002
 20
93.7066
 30
0.0
 11
1.97886
 21
93.2325
 31
0.0
  0
LINE
  8
0
 62
     0
 10
1.97886
 20
93.2325
 30
0.0
 11
1.8948
 21
92.7075
 31
0.0
  0
LINE
  8
0
 62
     0
 10
1.8948
 20
92.7075
 30
0.0
 11
1.97886
 21
92.1826
 31
0.0
  0
LINE
  8
0
 62
     0
 10
1.97886
 20
92.1826
 30
0.0
 11
2.22002
 21
91.7085
 31
0.0
  0
LINE
  8
0
 62
     0
 10
2.22002
 20
91.7085
 30
0.0
 11
2.59485
 21
91.3324
 31
0.0
  0
LINE
  8
0
 62
     0
 10
2.59485
 20
91.3324
 30
0.0
 11
3.06889
 21
91.0911
 31
0.0
  0
LINE
  8
0
 62
     0
 10
3.06889
 20
91.0911
 30
0.0
 11
3.5953
 21
91.0085
 31
0.0
  0
LINE
  8
0
 62
     0
 10
3.5953
 20
91.0085
 30
0.0
 11
4.12034
 21
91.0911
 31
0.0
  0
LINE
  8
0
 62
     0
 10
4.12034
 20
91.0911
 30
0.0
 11
4.59437
 21
91.3324
 31
0.0
  0
LINE
  8
0
 62
     0
 10
4.59437
 20
91.3324
 30
0.0
 11
4.97057
 21
91.7085
 31
0.0
  0
LINE
  8
0
 62
     0
 10
4.97057
 20
91.7085
 30
0.0
 11
5.21173
 21
92.1826
 31
0.0
  0
LINE
  8
0
 62
     0
 10
5.21173
 20
92.1826
 30
0.0
 11
5.29579
 21
92.7075
 31
0.0
  0
LINE
  8
0
 62
     0
 10
5.29579
 20
92.7075
 30
0.0
 11
5.21173
 21
93.2325
 31
0.0
  0
LINE
  8
0
 62
     0
 10
5.21173
 20
93.2325
 30
0.0
 11
4.97057
 21
93.7066
 31
0.0
  0
LINE
  8
0
 62
     0
 10
4.97057
 20
93.7066
 30
0.0
 11
4.59437
 21
94.0827
 31
0.0
  0
LINE
  8
0
 62
     0
 10
4.59437
 20
94.0827
 30
0.0
 11
4.12034
 21
94.3254
 31
0.0
  0
LINE
  8
0
 62
     0
 10
4.12034
 20
94.3254
 30
0.0
 11
3.5953
 21
94.4079
 31
0.0
  0
LINE
  8
0
 62
     0
 10
3.5953
 20
94.4079
 30
0.0
 11
3.06889
 21
94.3254
 31
0.0
  0
LINE
  8
0
 62
     0
 10
314.871
 20
94.3254
 30
0.0
 11
314.397
 21
94.0827
 31
0.0
  0
LINE
  8
0
 62
     0
 10
314.397
 20
94.0827
 30
0.0
 11
314.021
 21
93.7066
 31
0.0
  0
LINE
  8
0
 62
     0
 10
314.021
 20
93.7066
 30
0.0
 11
313.779
 21
93.2325
 31
0.0
  0
LINE
  8
0
 62
     0
 10
313.779
 20
93.2325
 30
0.0
 11
313.697
 21
92.7075
 31
0.0
  0
LINE
  8
0
 62
     0
 10
313.697
 20
92.7075
 30
0.0
 11
313.779
 21
92.1826
 31
0.0
  0
LINE
  8
0
 62
     0
 10
313.779
 20
92.1826
 30
0.0
 11
314.021
 21
91.7085
 31
0.0
  0
LINE
  8
0
 62
     0
 10
314.021
 20
91.7085
 30
0.0
 11
314.397
 21
91.3324
 31
0.0
  0
LINE
  8
0
 62
     0
 10
314.397
 20
91.3324
 30
0.0
 11
314.871
 21
91.0911
 31
0.0
  0
LINE
  8
0
 62
     0
 10
314.871
 20
91.0911
 30
0.0
 11
315.397
 21
91.0085
 31
0.0
  0
LINE
  8
0
 62
     0
 10
315.397
 20
91.0085
 30
0.0
 11
315.922
 21
91.0911
 31
0.0
  0
LINE
  8
0
 62
     0
 10
315.922
 20
91.0911
 30
0.0
 11
316.395
 21
91.3324
 31
0.0
  0
LINE
  8
0
 62
     0
 10
316.395
 20
91.3324
 30
0.0
 11
316.771
 21
91.7085
 31
0.0
  0
LINE
  8
0
 62
     0
 10
316.771
 20
91.7085
 30
0.0
 11
317.012
 21
92.1826
 31
0.0
  0
LINE
  8
0
 62
     0
 10
317.012
 20
92.1826
 30
0.0
 11
317.096
 21
92.7075
 31
0.0
  0
LINE
  8
0
 62
     0
 10
317.096
 20
92.7075
 30
0.0
 11
317.012
 21
93.2325
 31
0.0
  0
LINE
  8
0
 62
     0
 10
317.012
 20
93.2325
 30
0.0
 11
316.771
 21
93.7066
 31
0.0
  0
LINE
  8
0
 62
     0
 10
316.771
 20
93.7066
 30
0.0
 11
316.395
 21
94.0827
 31
0.0
  0
LINE
  8
0
 62
     0
 10
316.395
 20
94.0827
 30
0.0
 11
315.922
 21
94.3254
 31
0.0
  0
LINE
  8
0
 62
     0
 10
315.922
 20
94.3254
 30
0.0
 11
315.397
 21
94.4079
 31
0.0
  0
LINE
  8
0
 62
     0
 10
315.397
 20
94.4079
 30
0.0
 11
314.871
 21
94.3254
 31
0.0
  0
LINE
  8
0
 62
     0
 10
3.06889
 20
183.23
 30
0.0
 11
2.59485
 21
182.988
 31
0.0
  0
LINE
  8
0
 62
     0
 10
2.59485
 20
182.988
 30
0.0
 11
2.22002
 21
182.614
 31
0.0
  0
LINE
  8
0
 62
     0
 10
2.22002
 20
182.614
 30
0.0
 11
1.97886
 21
182.14
 31
0.0
  0
LINE
  8
0
 62
     0
 10
1.97886
 20
182.14
 30
0.0
 11
1.8948
 21
181.613
 31
0.0
  0
LINE
  8
0
 62
     0
 10
1.8948
 20
181.613
 30
0.0
 11
1.97886
 21
181.088
 31
0.0
  0
LINE
  8
0
 62
     0
 10
1.97886
 20
181.088
 30
0.0
 11
2.22002
 21
180.614
 31
0.0
  0
LINE
  8
0
 62
     0
 10
2.22002
 20
180.614
 30
0.0
 11
2.59485
 21
180.238
 31
0.0
  0
LINE
  8
0
 62
     0
 10
2.59485
 20
180.238
 30
0.0
 11
3.06889
 21
179.997
 31
0.0
  0
LINE
  8
0
 62
     0
 10
3.06889
 20
179.997
 30
0.0
 11
3.5953
 21
179.912
 31
0.0
  0
LINE
  8
0
 62
     0
 10
3.5953
 20
179.912
 30
0.0
 11
4.12034
 21
179.997
 31
0.0
  0
LINE
  8
0
 62
     0
 10
4.12034
 20
179.997
 30
0.0
 11
4.59437
 21
180.238
 31
0.0
  0
LINE
  8
0
 62
     0
 10
4.59437
 20
180.238
 30
0.0
 11
4.97057
 21
180.614
 31
0.0
  0
LINE
  8
0
 62
     0
 10
4.97057
 20
180.614
 30
0.0
 11
5.21173
 21
181.088
 31
0.0
  0
LINE
  8
0
 62
     0
 10
5.21173
 20
181.088
 30
0.0
 11
5.29579
 21
181.613
 31
0.0
  0
LINE
  8
0
 62
     0
 10
5.29579
 20
181.613
 30
0.0
 11
5.21173
 21
182.14
 31
0.0
  0
LINE
  8
0
 62
     0
 10
5.21173
 20
182.14
 30
0.0
 11
4.97057
 21
182.614
 31
0.0
  0
LINE
  8
0
 62
     0
 10
4.97057
 20
182.614
 30
0.0
 11
4.59437
 21
182.988
 31
0.0
  0
LINE
  8
0
 62
     0
 10
4.59437
 20
182.988
 30
0.0
 11
4.12034
 21
183.23
 31
0.0
  0
LINE
  8
0
 62
     0
 10
4.12034
 20
183.23
 30
0.0
 11
3.5953
 21
183.314
 31
0.0
  0
LINE
  8
0
 62
     0
 10
3.5953
 20
183.314
 30
0.0
 11
3.06889
 21
183.23
 31
0.0
  0
LINE
  8
0
 62
     0
 10
314.871
 20
183.23
 30
0.0
 11
314.397
 21
182.988
 31
0.0
  0
LINE
  8
0
 62
     0
 10
314.397
 20
182.988
 30
0.0
 11
314.021
 21
182.614
 31
0.0
  0
LINE
  8
0
 62
     0
 10
314.021
 20
182.614
 30
0.0
 11
313.779
 21
182.14
 31
0.0
  0
LINE
  8
0
 62
     0
 10
313.779
 20
182.14
 30
0.0
 11
313.697
 21
181.613
 31
0.0
  0
LINE
  8
0
 62
     0
 10
313.697
 20
181.613
 30
0.0
 11
313.779
 21
181.088
 31
0.0
  0
LINE
  8
0
 62
     0
 10
313.779
 20
181.088
 30
0.0
 11
314.021
 21
180.614
 31
0.0
  0
LINE
  8
0
 62
     0
 10
314.021
 20
180.614
 30
0.0
 11
314.397
 21
180.238
 31
0.0
  0
LINE
  8
0
 62
     0
 10
314.397
 20
180.238
 30
0.0
 11
314.871
 21
179.997
 31
0.0
  0
LINE
  8
0
 62
     0
 10
314.871
 20
179.997
 30
0.0
 11
315.397
 21
179.912
 31
0.0
  0
LINE
  8
0
 62
     0
 10
315.397
 20
179.912
 30
0.0
 11
315.922
 21
179.997
 31
0.0
  0
LINE
  8
0
 62
     0
 10
315.922
 20
179.997
 30
0.0
 11
316.395
 21
180.238
 31
0.0
  0
LINE
  8
0
 62
     0
 10
316.395
 20
180.238
 30
0.0
 11
316.771
 21
180.614
 31
0.0
  0
LINE
  8
0
 62
     0
 10
316.771
 20
180.614
 30
0.0
 11
317.012
 21
181.088
 31
0.0
  0
LINE
  8
0
 62
     0
 10
317.012
 20
181.088
 30
0.0
 11
317.096
 21
181.613
 31
0.0
  0
LINE
  8
0
 62
     0
 10
317.096
 20
181.613
 30
0.0
 11
317.012
 21
182.14
 31
0.0
  0
LINE
  8
0
 62
     0
 10
317.012
 20
182.14
 30
0.0
 11
316.771
 21
182.614
 31
0.0
  0
LINE
  8
0
 62
     0
 10
316.771
 20
182.614
 30
0.0
 11
316.395
 21
182.988
 31
0.0
  0
LINE
  8
0
 62
     0
 10
316.395
 20
182.988
 30
0.0
 11
315.922
 21
183.23
 31
0.0
  0
LINE
  8
0
 62
     0
 10
315.922
 20
183.23
 30
0.0
 11
315.397
 21
183.314
 31
0.0
  0
LINE
  8
0
 62
     0
 10
315.397
 20
183.314
 30
0.0
 11
314.871
 21
183.23
 31
0.0
  0
LINE
  8
0
 62
     0
 10
210.938
 20
183.23
 30
0.0
 11
210.464
 21
182.988
 31
0.0
  0
LINE
  8
0
 62
     0
 10
210.464
 20
182.988
 30
0.0
 11
210.087
 21
182.614
 31
0.0
  0
LINE
  8
0
 62
     0
 10
210.087
 20
182.614
 30
0.0
 11
209.845
 21
182.14
 31
0.0
  0
LINE
  8
0
 62
     0
 10
209.845
 20
182.14
 30
0.0
 11
209.762
 21
181.613
 31
0.0
  0
LINE
  8
0
 62
     0
 10
209.762
 20
181.613
 30
0.0
 11
209.845
 21
181.088
 31
0.0
  0
LINE
  8
0
 62
     0
 10
209.845
 20
181.088
 30
0.0
 11
210.087
 21
180.614
 31
0.0
  0
LINE
  8
0
 62
     0
 10
210.087
 20
180.614
 30
0.0
 11
210.464
 21
180.238
 31
0.0
  0
LINE
  8
0
 62
     0
 10
210.464
 20
180.238
 30
0.0
 11
210.938
 21
179.997
 31
0.0
  0
LINE
  8
0
 62
     0
 10
210.938
 20
179.997
 30
0.0
 11
211.463
 21
179.912
 31
0.0
  0
LINE
  8
0
 62
     0
 10
211.463
 20
179.912
 30
0.0
 11
211.988
 21
179.997
 31
0.0
  0
LINE
  8
0
 62
     0
 10
211.988
 20
179.997
 30
0.0
 11
212.462
 21
180.238
 31
0.0
  0
LINE
  8
0
 62
     0
 10
212.462
 20
180.238
 30
0.0
 11
212.838
 21
180.614
 31
0.0
  0
LINE
  8
0
 62
     0
 10
212.838
 20
180.614
 30
0.0
 11
213.079
 21
181.088
 31
0.0
  0
LINE
  8
0
 62
     0
 10
213.079
 20
181.088
 30
0.0
 11
213.162
 21
181.613
 31
0.0
  0
LINE
  8
0
 62
     0
 10
213.162
 20
181.613
 30
0.0
 11
213.079
 21
182.14
 31
0.0
  0
LINE
  8
0
 62
     0
 10
213.079
 20
182.14
 30
0.0
 11
212.838
 21
182.614
 31
0.0
  0
LINE
  8
0
 62
     0
 10
212.838
 20
182.614
 30
0.0
 11
212.462
 21
182.988
 31
0.0
  0
LINE
  8
0
 62
     0
 10
212.462
 20
182.988
 30
0.0
 11
211.988
 21
183.23
 31
0.0
  0
LINE
  8
0
 62
     0
 10
211.988
 20
183.23
 30
0.0
 11
211.463
 21
183.314
 31
0.0
  0
LINE
  8
0
 62
     0
 10
211.463
 20
183.314
 30
0.0
 11
210.938
 21
183.23
 31
0.0
  0
LINE
  8
0
 62
     0
 10
107.003
 20
183.23
 30
0.0
 11
106.529
 21
182.988
 31
0.0
  0
LINE
  8
0
 62
     0
 10
106.529
 20
182.988
 30
0.0
 11
106.153
 21
182.614
 31
0.0
  0
LINE
  8
0
 62
     0
 10
106.153
 20
182.614
 30
0.0
 11
105.912
 21
182.14
 31
0.0
  0
LINE
  8
0
 62
     0
 10
105.912
 20
182.14
 30
0.0
 11
105.828
 21
181.613
 31
0.0
  0
LINE
  8
0
 62
     0
 10
105.828
 20
181.613
 30
0.0
 11
105.912
 21
181.088
 31
0.0
  0
LINE
  8
0
 62
     0
 10
105.912
 20
181.088
 30
0.0
 11
106.153
 21
180.614
 31
0.0
  0
LINE
  8
0
 62
     0
 10
106.153
 20
180.614
 30
0.0
 11
106.529
 21
180.238
 31
0.0
  0
LINE
  8
0
 62
     0
 10
106.529
 20
180.238
 30
0.0
 11
107.003
 21
179.997
 31
0.0
  0
LINE
  8
0
 62
     0
 10
107.003
 20
179.997
 30
0.0
 11
107.528
 21
179.912
 31
0.0
  0
LINE
  8
0
 62
     0
 10
107.528
 20
179.912
 30
0.0
 11
108.053
 21
179.997
 31
0.0
  0
LINE
  8
0
 62
     0
 10
108.053
 20
179.997
 30
0.0
 11
108.527
 21
180.238
 31
0.0
  0
LINE
  8
0
 62
     0
 10
108.527
 20
180.238
 30
0.0
 11
108.904
 21
180.614
 31
0.0
  0
LINE
  8
0
 62
     0
 10
108.904
 20
180.614
 30
0.0
 11
109.146
 21
181.088
 31
0.0
  0
LINE
  8
0
 62
     0
 10
109.146
 20
181.088
 30
0.0
 11
109.229
 21
181.613
 31
0.0
  0
LINE
  8
0
 62
     0
 10
109.229
 20
181.613
 30
0.0
 11
109.146
 21
182.14
 31
0.0
  0
LINE
  8
0
 62
     0
 10
109.146
 20
182.14
 30
0.0
 11
108.904
 21
182.614
 31
0.0
  0
LINE
  8
0
 62
     0
 10
108.904
 20
182.614
 30
0.0
 11
108.527
 21
182.988
 31
0.0
  0
LINE
  8
0
 62
     0
 10
108.527
 20
182.988
 30
0.0
 11
108.053
 21
183.23
 31
0.0
  0
LINE
  8
0
 62
     0
 10
108.053
 20
183.23
 30
0.0
 11
107.528
 21
183.314
 31
0.0
  0
LINE
  8
0
 62
     0
 10
107.528
 20
183.314
 30
0.0
 11
107.003
 21
183.23
 31
0.0
  0
ENDSEC
  0
EOF
